<svg width="133" height="367" viewBox="0 0 133 367" fill="none" xmlns="http://www.w3.org/2000/svg">
<path d="M21.1343 3.68423C20.8666 4.53212 20.6881 5.33538 20.5096 6.04939C19.6617 10.1996 18.9031 16.6257 18.9031 22.1593C18.9031 29.2101 20.1972 34.2082 21.6699 38.7154L16.5379 40.2327C15.1991 36.2164 13.905 29.6118 13.905 23.0518C13.905 17.2058 14.7082 10.6458 15.1991 6.2279C15.2884 5.33538 15.3776 4.30899 15.333 3.50573L21.1343 3.68423ZM13.1463 8.59306C21.6252 8.59306 28.3637 8.19143 35.1914 6.54028L35.2361 11.6722C29.1223 12.7879 19.751 13.4573 13.0125 13.4573C10.6473 13.4573 7.1665 13.2341 5.0691 13.1449L4.93522 8.01292C6.54174 8.23605 10.4242 8.59306 13.1463 8.59306ZM32.4246 15.153C32.0676 15.9563 31.3983 18.0091 31.0859 18.9462C28.5422 26.9788 23.9458 33.0033 19.7063 36.1271C16.8057 38.2691 12.9232 40.2327 9.04078 40.2327C5.78311 40.2327 3.06094 38.2691 3.06094 33.7173C3.06094 27.4251 8.68378 20.8651 15.7793 18.2768C18.7246 17.2058 22.3839 16.5364 25.7308 16.5364C34.0758 16.5364 40.2341 21.356 40.2341 28.3176C40.2341 34.6545 36.4856 40.7682 25.5523 42.464L22.5624 37.7336C31.1751 36.7965 34.7006 32.4678 34.7006 28.0499C34.7006 24.2567 31.4429 21.0436 25.4184 21.0436C21.3575 21.0436 18.1444 22.2039 15.9578 23.1857C11.4952 25.2831 8.32677 29.5671 8.32677 32.5571C8.32677 34.0297 8.90691 34.7883 10.3796 34.7883C12.477 34.7883 15.4669 33.3157 18.1891 30.772C21.4467 27.7821 24.4813 23.8104 26.2663 17.6521C26.5787 16.7149 26.8911 14.796 26.9357 13.8143L32.4246 15.153ZM59.7356 3.72886C59.1108 5.91552 58.1737 10.512 57.9059 13.011C60.048 9.57482 63.975 5.78164 68.9731 5.78164C75.1761 5.78164 79.9956 11.8954 79.9956 21.713C79.9956 34.3421 72.2754 40.3219 60.4496 42.5086L57.058 37.332C67.0096 35.8147 73.9712 32.5124 73.9712 21.713C73.9712 14.8407 71.6506 11.0028 67.9467 11.0028C62.6809 11.0028 58.0398 18.9462 57.8613 24.7922C57.772 26.0417 57.8167 27.4697 58.0398 29.5225L52.5508 29.9241C52.2831 28.1837 52.0153 25.4616 52.0153 22.4717C52.0153 18.2768 52.5955 12.7879 53.2648 8.1468C53.4434 6.49565 53.5772 4.71062 53.6219 3.50573L59.7356 3.72886ZM108.511 4.66599C108.244 5.82626 107.976 7.25429 107.753 8.36993C107.307 10.3781 106.771 13.1449 106.28 15.4208C104.808 21.713 101.237 34.4313 96.5518 41.9731L90.7058 39.6525C96.0163 32.5124 99.3632 20.7312 100.613 15.1084C101.461 11.0921 101.951 7.29891 101.907 3.95198L108.511 4.66599ZM123.907 9.12857C126.629 13.011 130.378 21.3114 131.761 25.5508L126.094 28.1837C124.934 23.2303 121.765 15.3762 118.552 11.4045L123.907 9.12857ZM90.4381 13.8143C92.0446 13.9035 93.5619 13.8589 95.213 13.8143C98.7831 13.725 107.262 12.7432 110.564 12.7432C115.295 12.7432 118.641 14.8407 118.641 21.3114C118.641 26.5772 117.972 33.8066 116.098 37.6444C114.625 40.7682 112.126 41.75 108.779 41.75C107.039 41.75 104.941 41.4822 103.424 41.1252L102.442 35.2346C104.183 35.7255 106.726 36.1717 107.887 36.1717C109.404 36.1717 110.564 35.7255 111.234 34.2528C112.483 31.7538 113.063 26.3095 113.063 21.9361C113.063 18.3661 111.546 17.8306 108.735 17.8306C106.102 17.8306 98.3814 18.8123 95.927 19.1247C94.6329 19.3032 92.3123 19.6156 90.9736 19.8387L90.4381 13.8143ZM123.104 2.97022C124.22 4.57674 125.782 7.43279 126.629 9.08394L123.059 10.6012C122.122 8.77156 120.739 6.13865 119.534 4.39824L123.104 2.97022ZM128.37 0.917436C129.53 2.61321 131.181 5.46926 131.985 7.03116L128.415 8.54843C127.522 6.67415 126.049 4.08586 124.844 2.39008L128.37 0.917436ZM36.1732 67.5465C34.7898 68.3498 33.3618 69.153 31.7106 69.9563C28.9438 71.3397 23.3656 73.9726 19.2601 76.6055C15.5561 79.0153 13.0571 81.6036 13.0571 84.6828C13.0571 87.8958 16.1809 89.6362 22.3839 89.6362C26.9357 89.6362 32.9602 88.9222 36.9318 87.9851L36.8872 94.4112C33.0494 95.0359 28.3637 95.5268 22.5624 95.5268C13.6372 95.5268 6.89875 93.0278 6.89875 85.3522C6.89875 79.6847 11.0489 75.713 16.3594 72.2322C20.5988 69.4208 26.2217 66.654 28.9438 65.0921C30.6396 64.1103 31.8891 63.3517 33.0494 62.4146L36.1732 67.5465ZM13.7265 57.9966C15.8685 63.9318 18.6799 69.2869 20.7773 73.0355L15.69 75.9808C13.2356 71.9198 10.5581 66.0739 8.10364 60.3171L13.7265 57.9966ZM74.1497 78.9707C74.1497 76.0254 71.8738 73.6602 67.679 73.6602C62.7701 73.6602 58.3076 75.1329 56.0763 75.8023C54.7821 76.2039 52.9971 76.8733 51.7476 77.4088L50.0518 70.9827C51.5691 70.8934 53.4434 70.5364 54.916 70.2241C58.1737 69.51 63.1718 68.2159 68.4376 68.2159C75.4884 68.2159 80.4419 72.2322 80.4419 79.1938C80.4419 88.7883 71.5614 94.6789 59.1554 96.4193L55.987 90.8411C67.0542 89.5916 74.1497 85.9769 74.1497 78.9707ZM56.6118 57.5504C61.833 58.666 71.963 59.5585 76.6487 59.5585L75.8008 65.0475C70.5796 64.6905 60.8958 63.798 55.7639 62.9054L56.6118 57.5504ZM96.9534 61.6113C100.256 61.9683 104.451 62.1468 109.136 62.1468C113.51 62.1468 118.641 61.879 122.078 61.522V67.4573C118.954 67.725 113.42 67.9928 109.181 67.9928C104.495 67.9928 100.613 67.7696 96.9534 67.5019V61.6113ZM100.747 80.488C100.3 82.0945 99.988 83.5225 99.988 85.0398C99.988 87.8958 102.665 89.9486 109.136 89.9486C115.161 89.9486 120.828 89.2792 124.8 88.2082L124.844 94.4558C120.962 95.3929 115.607 95.9731 109.315 95.9731C99.0954 95.9731 93.9635 92.5369 93.9635 86.4232C93.9635 83.8349 94.499 81.6482 94.856 79.9971L100.747 80.488ZM123.238 56.9702C124.354 58.6214 125.915 61.4774 126.763 63.1286L123.193 64.6458C122.256 62.8162 120.873 60.1386 119.668 58.4429L123.238 56.9702ZM128.504 54.9621C129.664 56.6578 131.315 59.4693 132.118 61.0312L128.548 62.5931C127.656 60.7188 126.183 58.1305 124.978 56.4347L128.504 54.9621ZM33.8527 110.569C34.9683 112.22 36.5302 115.076 37.3781 116.727L33.808 118.244C32.8709 116.415 31.4875 113.782 30.2826 112.041L33.8527 110.569ZM39.1631 108.65C40.3234 110.345 41.9745 113.202 42.7778 114.763L39.2078 116.281C38.2706 114.406 36.8426 111.818 35.6377 110.122L39.1631 108.65ZM20.7327 116.191C20.3757 115.165 19.8848 113.559 19.3493 112.086L25.3738 111.372C26.0432 114.808 27.1142 118.333 28.1852 121.19C29.5686 124.938 31.666 128.731 33.1387 130.829C33.8973 131.9 34.7006 132.881 35.5038 133.819L32.7817 137.79C30.238 137.299 24.6152 136.719 20.8666 136.407L21.3128 131.677C23.4995 131.9 26.4448 132.123 27.8282 132.257C26.2217 129.624 24.2581 125.831 22.8301 122.171C21.893 119.717 21.2236 117.664 20.7327 116.191ZM4.48896 118.244C12.834 119.271 19.6171 119.226 24.9722 118.601C28.9438 118.155 32.8709 117.396 36.3963 116.325L37.0657 121.904C34.1204 122.751 30.2826 123.421 26.7126 123.822C20.7773 124.536 13.7265 124.715 4.57821 123.956L4.48896 118.244ZM13.4587 133.462C11.9861 135.604 11.2721 137.567 11.2721 139.486C11.2721 143.235 14.5744 144.841 20.7327 144.841C25.5969 144.886 29.524 144.395 32.6478 143.77L32.3354 149.438C29.7917 149.884 25.7754 150.464 20.3757 150.464C11.2274 150.419 5.51535 146.894 5.51535 140.468C5.51535 137.746 6.31861 135.202 7.83589 132.167L13.4587 133.462ZM55.1838 115.701C54.8714 117.262 54.6482 119.895 54.6482 121.145C54.6482 124.046 54.6482 127.348 54.916 130.606C55.5408 137.032 56.8795 141.45 59.691 141.45C61.833 141.45 63.5734 136.184 64.4213 132.658L68.9285 138.058C65.9385 145.868 63.1718 148.545 59.6017 148.545C54.6482 148.545 50.4088 144.172 49.1593 132.212C48.713 128.106 48.6684 122.841 48.6684 120.118C48.6684 118.914 48.6238 116.995 48.3114 115.611L55.1838 115.701ZM77.4966 116.682C81.736 121.814 85.1722 132.971 85.6631 139.798L79.7725 142.119C79.1031 134.89 76.6933 124.09 71.8291 118.557L77.4966 116.682ZM114.893 111.506C114.759 112.398 114.625 113.514 114.581 114.674C114.491 116.95 114.447 123.287 114.447 127.035C114.447 131.944 115.161 140.022 115.161 143.547C115.161 147.385 112.26 150.33 106.414 150.33C99.2739 150.33 95.5254 147.608 95.5254 142.878C95.5254 138.37 99.6756 135.202 106.503 135.202C116.321 135.202 123.64 140.022 127.344 143.145L124.13 148.143C119.891 144.127 113.42 139.798 105.789 139.798C102.665 139.798 100.925 141.003 100.925 142.565C100.925 144.261 102.487 145.287 105.566 145.287C107.931 145.287 109.538 144.618 109.538 142.03C109.538 139.352 109.047 131.364 109.047 127.035C109.047 122.751 109.092 117.084 109.092 114.54C109.092 113.737 109.002 112.354 108.824 111.506H114.893ZM96.3733 115.656C99.5417 116.191 104.674 116.638 107.396 116.638C113.465 116.638 119.311 116.325 125.826 115.299L125.782 120.386C121.23 121.011 114.134 121.547 107.44 121.547C104.584 121.547 99.4078 121.145 96.4625 120.788L96.3733 115.656ZM96.1055 125.295C99.0508 125.831 104.495 126.143 106.86 126.143C115.116 126.143 120.873 125.607 126.362 124.893L126.317 130.159C120.159 130.873 115.295 131.141 106.816 131.141C104.183 131.141 99.1401 130.918 96.1948 130.561L96.1055 125.295ZM28.1406 165.595C28.0067 166.354 27.8728 168.719 27.8282 169.433C27.6943 172.378 27.7836 181.482 27.8282 185.052L22.25 183.178C22.25 180.411 22.25 171.843 22.0715 169.477C21.9376 167.692 21.7591 166.175 21.6699 165.595H28.1406ZM2.88244 171.173C9.53167 171.173 21.3128 170.816 26.8911 170.816C31.4429 170.816 38.226 170.772 40.725 170.816L40.6358 176.082C37.869 175.948 33.3172 175.814 26.7572 175.814C18.6353 175.814 9.75479 176.171 3.01631 176.528L2.88244 171.173ZM27.0696 184.382C27.0696 191.656 24.392 195.271 19.2601 195.271C15.8239 195.271 11.5398 192.549 11.5398 187.105C11.5398 182.062 15.6454 178.76 20.465 178.76C26.3556 178.76 29.4347 183.088 29.4347 188.622C29.4347 194.468 25.9985 201.831 15.1099 204.91L10.3796 200.18C17.9659 198.529 23.9011 195.539 23.9011 187.729C23.9011 184.829 22.3392 183.445 20.3757 183.445C18.6353 183.445 16.8949 184.65 16.8949 187.015C16.8949 189.023 18.5461 190.318 20.3757 190.318C22.4731 190.318 24.3028 188.533 22.8747 183.222L27.0696 184.382ZM63.618 190.094L62.4577 174.832L62.2346 168.183H69.5979L69.3747 174.832L68.2145 190.094H63.618ZM65.9385 202.01C63.618 202.01 61.9669 200.358 61.9669 198.038C61.9669 195.717 63.6626 194.111 65.9385 194.111C68.1698 194.111 69.8656 195.717 69.8656 198.038C69.8656 200.358 68.1698 202.01 65.9385 202.01ZM96.9534 169.611C100.256 169.968 104.451 170.147 109.136 170.147C113.51 170.147 118.641 169.879 122.078 169.522V175.457C118.954 175.725 113.42 175.993 109.181 175.993C104.495 175.993 100.613 175.77 96.9534 175.502V169.611ZM100.747 188.488C100.3 190.094 99.988 191.523 99.988 193.04C99.988 195.896 102.665 197.949 109.136 197.949C115.161 197.949 120.828 197.279 124.8 196.208L124.844 202.456C120.962 203.393 115.607 203.973 109.315 203.973C99.0954 203.973 93.9635 200.537 93.9635 194.423C93.9635 191.835 94.499 189.648 94.856 187.997L100.747 188.488ZM123.238 164.97C124.354 166.621 125.915 169.477 126.763 171.129L123.193 172.646C122.256 170.816 120.873 168.139 119.668 166.443L123.238 164.97ZM128.504 162.962C129.664 164.658 131.315 167.469 132.118 169.031L128.548 170.593C127.656 168.719 126.183 166.13 124.978 164.435L128.504 162.962ZM19.4832 221.692L23.0086 217.587C26.6233 219.283 31.3536 222.094 33.6295 224.281L29.7917 228.877C27.739 226.646 23.1425 223.611 19.4832 221.692ZM16.5379 239.81H39.6986V244.942H16.5379V239.81ZM13.3248 253.064H42.2869V258.152H13.3248V253.064ZM14.9314 227.404H41.3498V232.492H14.9314V227.404ZM25.106 229.1H30.6842V255.34H25.106V229.1ZM3.19482 221.826L6.09549 217.899C8.95153 218.926 12.7447 220.844 14.619 222.451L11.4952 226.824C9.75479 225.218 6.09549 223.076 3.19482 221.826ZM0.204894 233.964L2.97169 229.904C5.87236 230.885 9.75479 232.715 11.6737 234.188L8.7284 238.65C6.94337 237.133 3.15019 235.125 0.204894 233.964ZM2.1238 255.429C4.48896 252.082 7.92514 246.504 10.6027 241.372L14.5297 244.898C12.1646 249.628 9.30854 254.715 6.63099 259.044L2.1238 255.429ZM74.4621 227.628L80.1741 229.279C74.5513 245.344 64.1535 254.715 48.1775 259.713C47.5528 258.375 45.857 255.786 44.786 254.492C60.2265 250.431 69.821 242.176 74.4621 227.628ZM57.2365 227.985C61.7437 241.194 71.3829 250.699 87.2696 254.269C85.9755 255.519 84.2351 258.062 83.3872 259.624C66.6526 255.251 57.4597 245.032 51.8815 229.591L57.2365 227.985ZM45.5892 224.727H86.4664V229.993H45.5892V224.727ZM63.1271 217.676H68.6607V227.94H63.1271V217.676ZM108.511 220.666C108.244 221.826 107.976 223.254 107.753 224.37C107.307 226.378 106.771 229.145 106.28 231.421C104.808 237.713 101.237 250.431 96.5518 257.973L90.7058 255.653C96.0163 248.512 99.3632 236.731 100.613 231.108C101.461 227.092 101.951 223.299 101.907 219.952L108.511 220.666ZM123.907 225.129C126.629 229.011 130.378 237.311 131.761 241.551L126.094 244.184C124.934 239.23 121.765 231.376 118.552 227.404L123.907 225.129ZM90.4381 229.814C92.0446 229.904 93.5619 229.859 95.213 229.814C98.7831 229.725 107.262 228.743 110.564 228.743C115.295 228.743 118.641 230.841 118.641 237.311C118.641 242.577 117.972 249.807 116.098 253.644C114.625 256.768 112.126 257.75 108.779 257.75C107.039 257.75 104.941 257.482 103.424 257.125L102.442 251.235C104.183 251.725 106.726 252.172 107.887 252.172C109.404 252.172 110.564 251.725 111.234 250.253C112.483 247.754 113.063 242.309 113.063 237.936C113.063 234.366 111.546 233.831 108.735 233.831C106.102 233.831 98.3814 234.812 95.927 235.125C94.6329 235.303 92.3123 235.616 90.9736 235.839L90.4381 229.814ZM123.104 218.97C124.22 220.577 125.782 223.433 126.629 225.084L123.059 226.601C122.122 224.772 120.739 222.139 119.534 220.398L123.104 218.97ZM128.37 216.917C129.53 218.613 131.181 221.469 131.985 223.031L128.415 224.548C127.522 222.674 126.049 220.086 124.844 218.39L128.37 216.917ZM9.62092 284.35H32.7817V289.169H9.62092V284.35ZM1.32054 292.382H41.3052V297.425H1.32054V292.382ZM12.12 296.399H17.9213C17.0734 304.699 14.9314 310.59 3.15019 313.713C2.61468 312.285 1.23128 310.054 0.0263911 308.939C10.2457 306.663 11.4506 302.512 12.12 296.399ZM23.6334 295.551H29.0331V306.439C29.0331 307.868 29.3008 308.091 30.8628 308.091C31.5768 308.091 34.4774 308.091 35.3253 308.091C36.798 308.091 37.0657 307.332 37.2442 302.646C38.3152 303.494 40.6358 304.342 42.0192 304.699C41.4837 311.214 40.0556 312.91 35.8162 312.91C34.7898 312.91 31.1305 312.91 30.1041 312.91C24.8829 312.91 23.6334 311.348 23.6334 306.529V295.551ZM18.3229 271.721H24.035V279.798H18.3229V271.721ZM2.1238 276.005H40.4573V286.626H34.7006V281.047H7.56813V286.626H2.1238V276.005ZM63.3503 286.938H69.0177V307.377C69.0177 310.411 68.2591 311.884 66.0278 312.687C63.8411 313.49 60.6281 313.58 56.344 313.58C56.0316 312.018 55.0053 309.608 54.1574 308.135C57.3258 308.269 60.9851 308.269 62.0115 308.269C62.9933 308.269 63.3503 308.001 63.3503 307.243V286.938ZM48.0883 274.8H79.2816V280.066H48.0883V274.8ZM77.2735 274.8H78.7015L79.9956 274.443L84.1905 277.567C80.1741 282.475 74.2836 288.143 68.7946 291.579C67.9467 290.419 66.2063 288.634 65.1353 287.786C69.7764 284.841 75.0422 279.486 77.2735 276.094V274.8ZM104.808 274.175C104.54 276.049 104.317 278.37 104.227 280.155C104.004 284.975 103.692 294.926 103.692 300.46C103.692 304.967 106.369 306.439 109.85 306.439C117.213 306.439 121.855 302.2 125.112 297.336L129.173 302.289C126.272 306.573 119.936 312.509 109.761 312.509C102.442 312.509 97.7567 309.296 97.7567 301.665C97.7567 295.685 98.1583 283.993 98.1583 280.155C98.1583 278.013 97.9798 275.871 97.6228 274.13L104.808 274.175ZM25.6415 327.506C25.5077 328.398 25.3738 329.514 25.3292 330.674C25.2399 332.95 25.1953 339.287 25.1953 343.035C25.1953 347.944 25.9093 356.022 25.9093 359.547C25.9093 363.385 23.0086 366.33 17.1627 366.33C10.0225 366.33 6.27399 363.608 6.27399 358.878C6.27399 354.37 10.4242 351.202 17.2519 351.202C27.0696 351.202 34.3882 356.022 38.0921 359.145L34.8791 364.143C30.6396 360.127 24.1689 355.798 16.5379 355.798C13.4141 355.798 11.6737 357.003 11.6737 358.565C11.6737 360.261 13.2356 361.287 16.3148 361.287C18.6799 361.287 20.2865 360.618 20.2865 358.03C20.2865 355.352 19.7956 347.364 19.7956 343.035C19.7956 338.751 19.8402 333.084 19.8402 330.54C19.8402 329.737 19.751 328.354 19.5724 327.506H25.6415ZM7.12188 331.656C10.2903 332.191 15.4223 332.638 18.1444 332.638C24.2135 332.638 30.0595 332.325 36.5748 331.299L36.5302 336.386C31.9784 337.011 24.8829 337.547 18.1891 337.547C15.333 337.547 10.1564 337.145 7.21113 336.788L7.12188 331.656ZM6.85412 341.295C9.79942 341.831 15.2438 342.143 17.6089 342.143C25.8647 342.143 31.6214 341.607 37.1103 340.893L37.0657 346.159C30.9074 346.873 26.0432 347.141 17.5643 347.141C14.9314 347.141 9.88867 346.918 6.94337 346.561L6.85412 341.295ZM60.1818 328.175C59.9141 330.049 59.691 332.37 59.6017 334.155C59.3786 338.975 59.0662 348.926 59.0662 354.46C59.0662 358.967 61.7437 360.439 65.2245 360.439C72.5878 360.439 77.2288 356.2 80.4865 351.336L84.5475 356.289C81.6468 360.573 75.3099 366.509 65.1353 366.509C57.8167 366.509 53.131 363.296 53.131 355.665C53.131 349.685 53.5326 337.993 53.5326 334.155C53.5326 332.013 53.3541 329.871 52.9971 328.13L60.1818 328.175ZM109.359 327.952C109.047 329.202 108.645 331.21 108.422 332.191C107.797 335.226 106.682 340.67 105.477 345.222C103.87 351.47 100.88 360.573 98.4261 365.884L92.2231 363.786C94.856 359.279 98.2476 349.952 99.9433 343.705C101.059 339.51 102.085 334.601 102.398 331.968C102.621 330.317 102.665 328.487 102.532 327.416L109.359 327.952ZM97.9798 334.646C103.424 334.646 109.716 333.798 115.518 332.415V337.993C109.984 339.287 102.978 340.046 97.9352 340.046C95.7485 340.046 94.0974 339.956 92.5355 339.867L92.357 334.289C94.6775 334.557 96.1501 334.646 97.9798 334.646ZM111.992 341.474C114.491 341.206 117.704 341.027 120.605 341.027C123.149 341.027 125.826 341.161 128.415 341.429L128.325 346.784C126.049 346.516 123.327 346.204 120.65 346.204C117.57 346.204 114.804 346.338 111.992 346.695V341.474ZM114.402 352.675C114.09 353.969 113.822 355.397 113.822 356.379C113.822 358.342 115.116 359.815 119.936 359.815C122.926 359.815 126.005 359.502 129.173 358.922L128.95 364.59C126.451 364.947 123.461 365.214 119.891 365.214C112.349 365.214 108.333 362.671 108.333 358.164C108.333 356.066 108.735 353.924 109.092 352.184L114.402 352.675Z" fill="#C00A00"/>
</svg>
