<svg width="582" height="740" viewBox="0 0 582 740" fill="none" xmlns="http://www.w3.org/2000/svg">
<path d="M34.4326 25.8471C34.2822 26.3234 34.182 26.7745 34.0817 27.1756C33.6055 29.5067 33.1793 33.1162 33.1793 36.2243C33.1793 40.1847 33.9063 42.9921 34.7334 45.5237L31.8509 46.376C31.0989 44.1201 30.372 40.4103 30.372 36.7257C30.372 33.442 30.8232 29.7574 31.0989 27.2759C31.149 26.7745 31.1991 26.198 31.1741 25.7468L34.4326 25.8471ZM29.9459 28.6043C34.7084 28.6043 38.4933 28.3788 42.3284 27.4513L42.3534 30.3339C38.9194 30.9605 33.6556 31.3365 29.8707 31.3365C28.5422 31.3365 26.587 31.2112 25.4089 31.1611L25.3337 28.2785C26.2361 28.4038 28.4168 28.6043 29.9459 28.6043ZM40.7743 32.289C40.5738 32.7402 40.1978 33.8932 40.0223 34.4196C38.5936 38.9314 36.0118 42.3153 33.6305 44.0699C32.0012 45.2731 29.8205 46.376 27.6398 46.376C25.81 46.376 24.281 45.2731 24.281 42.7164C24.281 39.1821 27.4393 35.4974 31.4247 34.0436C33.0791 33.442 35.1345 33.0661 37.0144 33.0661C41.7017 33.0661 45.1608 35.7732 45.1608 39.6834C45.1608 43.2428 43.0553 46.6768 36.9141 47.6293L35.2347 44.9723C40.0724 44.4459 42.0526 42.0145 42.0526 39.533C42.0526 37.4024 40.2228 35.5977 36.8389 35.5977C34.558 35.5977 32.7532 36.2494 31.525 36.8009C29.0184 37.9789 27.2387 40.3853 27.2387 42.0647C27.2387 42.8918 27.5646 43.318 28.3918 43.318C29.5699 43.318 31.2493 42.4908 32.7783 41.062C34.6081 39.3826 36.3126 37.1518 37.3152 33.6927C37.4907 33.1663 37.6661 32.0885 37.6912 31.537L40.7743 32.289ZM56.1145 25.8722C55.7636 27.1004 55.2372 29.6822 55.0868 31.0859C56.29 29.1558 58.4958 27.0252 61.3032 27.0252C64.7873 27.0252 67.4944 30.4592 67.4944 35.9737C67.4944 43.0673 63.158 46.4261 56.5156 47.6543L54.6106 44.7467C60.2003 43.8945 64.1105 42.0396 64.1105 35.9737C64.1105 32.1136 62.8071 29.9579 60.7266 29.9579C57.7689 29.9579 55.162 34.4196 55.0618 37.7032C55.0116 38.4051 55.0367 39.2072 55.162 40.3602L52.0789 40.5858C51.9286 39.6082 51.7782 38.0792 51.7782 36.3998C51.7782 34.0436 52.104 30.9605 52.48 28.3537C52.5803 27.4262 52.6555 26.4236 52.6805 25.7468L56.1145 25.8722ZM83.5114 26.3986C83.3611 27.0503 83.2107 27.8524 83.0853 28.479C82.8347 29.607 82.5339 31.1611 82.2582 32.4394C81.431 35.9737 79.4257 43.1174 76.7938 47.3536L73.5102 46.0501C76.493 42.0396 78.373 35.4222 79.0748 32.2639C79.551 30.008 79.8268 27.8774 79.8017 25.9975L83.5114 26.3986ZM92.1591 28.9051C93.6882 31.0859 95.7937 35.7481 96.5707 38.1293L93.3874 39.6082C92.7357 36.8259 90.956 32.4143 89.1512 30.1835L92.1591 28.9051ZM73.3598 31.537C74.2622 31.5872 75.1144 31.5621 76.0418 31.537C78.0471 31.4869 82.8096 30.9355 84.6645 30.9355C87.3214 30.9355 89.2014 32.1136 89.2014 35.7481C89.2014 38.7059 88.8254 42.7665 87.7726 44.9222C86.9455 46.6768 85.5418 47.2282 83.6618 47.2282C82.6843 47.2282 81.5062 47.0778 80.6539 46.8773L80.1025 43.5686C81.0801 43.8443 82.5088 44.095 83.1605 44.095C84.0128 44.095 84.6645 43.8443 85.0405 43.0172C85.7423 41.6135 86.0682 38.5555 86.0682 36.099C86.0682 34.0937 85.2159 33.793 83.6368 33.793C82.1579 33.793 77.8215 34.3444 76.4429 34.5199C75.716 34.6201 74.4126 34.7956 73.6606 34.9209L73.3598 31.537ZM91.708 25.4461C92.3346 26.3484 93.2119 27.9526 93.6882 28.8801L91.6829 29.7323C91.1565 28.7046 90.3795 27.2257 89.7027 26.2482L91.708 25.4461ZM94.6657 24.293C95.3174 25.2455 96.2449 26.8497 96.696 27.727L94.6908 28.5793C94.1895 27.5265 93.3623 26.0727 92.6855 25.1202L94.6657 24.293ZM42.8798 62.3866C42.1028 62.8378 41.3007 63.289 40.3732 63.7402C38.8191 64.5172 35.6859 65.9961 33.3799 67.475C31.2994 68.8286 29.8957 70.2824 29.8957 72.0119C29.8957 73.8166 31.6503 74.7942 35.1345 74.7942C37.6912 74.7942 41.0751 74.3932 43.3059 73.8668L43.2809 77.4763C41.1252 77.8272 38.4933 78.1029 35.2347 78.1029C30.2216 78.1029 26.4366 76.6992 26.4366 72.3879C26.4366 69.2045 28.7678 66.9737 31.7506 65.0186C34.1318 63.4394 37.2901 61.8853 38.8191 61.008C39.7716 60.4566 40.4735 60.0305 41.1252 59.5041L42.8798 62.3866ZM30.2717 57.0226C31.4749 60.3563 33.054 63.3642 34.2321 65.4697L31.3746 67.1241C29.996 64.8431 28.492 61.5595 27.1134 58.326L30.2717 57.0226ZM64.2108 68.8035C64.2108 67.1491 62.9324 65.8207 60.5762 65.8207C57.819 65.8207 55.3124 66.6478 54.0591 67.0238C53.3322 67.2494 52.3296 67.6254 51.6278 67.9262L50.6753 64.3167C51.5275 64.2666 52.5803 64.0661 53.4074 63.8906C55.2372 63.4895 58.0446 62.7626 61.0024 62.7626C64.9628 62.7626 67.7451 65.0186 67.7451 68.9288C67.7451 74.318 62.757 77.6266 55.7887 78.6042L54.009 75.471C60.2253 74.7691 64.2108 72.7388 64.2108 68.8035ZM54.3599 56.7719C57.2926 57.3986 62.9826 57.8999 65.6145 57.8999L65.1382 60.983C62.2055 60.7824 56.7662 60.2811 53.8837 59.7798L54.3599 56.7719ZM83.3611 70.5581L82.7093 61.9856L82.584 58.2508H86.7199L86.5945 61.9856L85.9428 70.5581H83.3611ZM84.6645 77.2507C83.3611 77.2507 82.4336 76.3232 82.4336 75.0198C82.4336 73.7164 83.3861 72.814 84.6645 72.814C85.9178 72.814 86.8703 73.7164 86.8703 75.0198C86.8703 76.3232 85.9178 77.2507 84.6645 77.2507ZM45.8626 92.2086C45.5117 92.6096 45.2109 92.9605 45.0104 93.2613C43.0553 96.4948 39.3455 101.007 35.4603 103.864L32.9537 101.558C36.2624 99.252 39.0698 95.8431 40.3732 93.537C38.1674 93.537 29.0435 93.537 27.1385 93.537C26.1108 93.537 24.7572 93.6624 24.2309 93.7376V90.2033C24.9076 90.3286 26.2612 90.4539 27.1385 90.4539C28.7176 90.4539 38.3429 90.4539 41.0249 90.4539C42.0025 90.4539 42.8297 90.3537 43.3811 90.1782L45.8626 92.2086ZM32.653 104.24C31.1741 102.761 28.6174 100.48 27.1385 99.4275L29.7704 97.2718C31.1239 98.2995 33.6305 100.33 35.5355 102.16C37.1899 103.764 39.1701 105.844 40.3732 107.298L37.4155 109.654C36.3878 108.251 34.2822 105.894 32.653 104.24ZM70.9284 92.2086C70.5775 92.6096 70.2767 92.9605 70.0762 93.2613C68.1211 96.4948 64.4113 101.007 60.5261 103.864L58.0195 101.558C61.3282 99.252 64.1356 95.8431 65.439 93.537C63.2332 93.537 54.1093 93.537 52.2043 93.537C51.1766 93.537 49.823 93.6624 49.2966 93.7376V90.2033C49.9734 90.3286 51.327 90.4539 52.2043 90.4539C53.7834 90.4539 63.4087 90.4539 66.0907 90.4539C67.0683 90.4539 67.8955 90.3537 68.4469 90.1782L70.9284 92.2086ZM57.7187 104.24C56.2399 102.761 53.6832 100.48 52.2043 99.4275L54.8362 97.2718C56.1897 98.2995 58.6963 100.33 60.6013 102.16C62.2557 103.764 64.2359 105.844 65.439 107.298L62.4812 109.654C61.4536 108.251 59.348 105.894 57.7187 104.24ZM74.6632 88.4988H94.5905V91.0305H74.6632V88.4988ZM75.716 92.384H93.6882V94.8154H75.716V92.384ZM73.2846 96.2441H96.0193V98.8259H73.2846V96.2441ZM73.7609 100.656H95.6182V103.263H73.7609V100.656ZM88.7251 98.5251H91.8082V106.947C91.8082 108.401 91.5325 109.203 90.5299 109.679C89.5022 110.131 88.1235 110.181 86.2937 110.181C86.1684 109.328 85.6922 108.075 85.2911 107.248C86.4943 107.298 87.8478 107.298 88.2238 107.298C88.6249 107.298 88.7251 107.198 88.7251 106.872V98.5251ZM82.7595 86.669L86.0431 86.9949C84.7898 97.723 82.0827 105.168 75.4403 109.454C74.9389 108.852 73.5102 107.624 72.7332 107.073C79.3004 103.438 81.7318 96.57 82.7595 86.669ZM79.7766 105.544L82.208 104.04C83.2608 105.067 84.5893 106.546 85.2159 107.549L82.6341 109.253C82.0827 108.251 80.8043 106.672 79.7766 105.544ZM23.9802 119.223H42.6291V122.081H23.9802V119.223ZM24.2058 123.885H39.0447V126.492H24.2058V123.885ZM41.5764 119.223H44.6595V137.446C44.6595 139.175 44.3587 140.103 43.2809 140.629C42.2281 141.131 40.6489 141.206 38.368 141.206C38.2677 140.303 37.8165 138.799 37.3904 137.947C38.8191 138.022 40.4484 138.022 40.9497 137.997C41.4009 137.997 41.5764 137.872 41.5764 137.396V119.223ZM25.5092 128.347H28.4419V138.699H25.5092V128.347ZM28.1161 128.347H37.7413V136.869H28.1161V134.288H34.7836V130.954H28.1161V128.347ZM58.8216 118.922C58.5961 119.85 58.4958 120.501 58.3705 121.153C58.0697 123.309 56.8916 131.581 56.8916 134.112C56.8916 136.193 58.1449 137.321 60.6013 137.321C64.1105 137.321 66.0406 135.691 66.0406 133.636C66.0406 131.957 65.0881 130.327 63.4588 128.798L66.968 128.046C68.6474 130.152 69.3994 131.906 69.3994 134.037C69.3994 137.822 66.0155 140.554 60.5261 140.554C56.5657 140.554 53.7834 138.85 53.7834 134.639C53.7834 132.082 54.9866 124.462 55.2372 120.953C55.3375 119.8 55.3375 119.298 55.2874 118.722L58.8216 118.922ZM49.8732 122.03C52.0539 122.757 55.162 123.083 57.7187 123.083C59.6488 123.083 61.4285 122.958 62.6818 122.732L62.5815 125.74C61.1026 125.891 59.724 125.966 57.6185 125.966C55.0868 125.966 52.0288 125.565 49.7228 124.913L49.8732 122.03ZM49.3217 128.247C52.0288 129.174 54.9364 129.375 57.4681 129.375C58.9971 129.375 60.852 129.274 62.4812 129.074L62.4061 132.057C61.0274 132.207 59.5486 132.282 57.9694 132.282C54.6357 132.282 51.4523 131.931 49.1713 131.28L49.3217 128.247ZM73.0841 127.595H96.295V130.879H73.0841V127.595ZM32.6028 151.251H41.827V153.757H32.6028V151.251ZM35.7611 164.511H43.1806V166.867H35.7611V164.511ZM35.6859 168.747H43.2809V171.228H35.6859V168.747ZM31.8007 155.863H46.2386V158.42H31.8007V155.863ZM36.0619 148.744H38.8442V157.417H36.0619V148.744ZM26.4868 148.744L29.0936 149.647C28.0659 151.602 26.9129 153.833 25.9604 155.236L23.9551 154.409C24.8324 152.905 25.9103 150.474 26.4868 148.744ZM29.3192 151.702L31.7506 152.83C29.9208 155.637 27.4894 159.121 25.5593 161.277L23.8298 160.3C25.7097 158.044 27.9907 154.384 29.3192 151.702ZM22.6016 154.585L24.0805 152.579C25.3839 153.757 26.9129 155.387 27.5145 156.565L25.8852 158.871C25.3337 157.643 23.8549 155.863 22.6016 154.585ZM28.467 157.718L30.5474 156.84C31.525 158.495 32.4775 160.676 32.8034 162.104L30.5224 163.132C30.2717 161.703 29.3693 159.447 28.467 157.718ZM22.5264 159.723C24.7823 159.598 28.0158 159.422 31.149 159.222L31.1741 161.678C28.2414 161.904 25.1834 162.129 22.8522 162.305L22.5264 159.723ZM29.1438 164.009L31.2493 163.358C31.8509 164.761 32.3522 166.591 32.5276 167.794L30.2968 168.521C30.1714 167.293 29.6952 165.438 29.1438 164.009ZM23.6042 163.458L26.0105 163.859C25.7599 166.265 25.2335 168.747 24.5066 170.351C24.0053 170.025 22.9024 169.549 22.3259 169.298C23.0277 167.819 23.4037 165.563 23.6042 163.458ZM26.3614 161.052H28.9432V172.256H26.3614V161.052ZM43.4312 149.22L46.0381 150.048C43.6067 156.54 39.2453 161.377 32.7532 164.586C32.4023 163.984 31.5501 162.957 30.9736 162.48C37.0896 159.648 41.4009 154.935 43.4312 149.22ZM36.864 160.249H43.2558V162.706H36.864V172.231H34.1569V161.753L35.5857 160.249H36.864ZM41.9774 160.249H44.8851V172.256H41.9774V160.249ZM48.7953 152.83C49.7729 152.805 50.7755 152.755 51.2518 152.705C53.3322 152.504 57.4681 152.153 62.0551 151.752C64.662 151.552 67.3941 151.376 69.1738 151.301L69.1989 154.534C67.8453 154.534 65.6897 154.559 64.3361 154.86C61.3282 155.662 59.0472 158.921 59.0472 161.904C59.0472 166.015 62.9074 167.518 67.1435 167.719L65.9654 171.153C60.7266 170.827 55.7636 167.995 55.7636 162.555C55.7636 158.971 57.7939 156.114 59.4734 154.835C57.1422 155.086 52.0037 155.637 49.1212 156.264L48.7953 152.83ZM65.6145 156.991C66.2161 157.868 67.1184 159.397 67.5947 160.4L65.7147 161.227C65.063 159.873 64.5366 158.871 63.7596 157.768L65.6145 156.991ZM68.3968 155.838C69.0485 156.715 70.001 158.194 70.5274 159.172L68.6474 160.074C67.9707 158.72 67.3941 157.768 66.592 156.665L68.3968 155.838ZM38.368 180.797C38.2928 181.223 38.2176 182.552 38.1925 182.953C38.1173 184.607 38.1674 189.72 38.1925 191.726L35.0593 190.673C35.0593 189.119 35.0593 184.306 34.959 182.978C34.8838 181.975 34.7836 181.123 34.7334 180.797H38.368ZM24.1807 183.93C27.9155 183.93 34.5329 183.73 37.6661 183.73C40.2228 183.73 44.0328 183.705 45.4365 183.73L45.3864 186.687C43.8323 186.612 41.2756 186.537 37.5909 186.537C33.0289 186.537 28.0409 186.738 24.2559 186.938L24.1807 183.93ZM37.7664 191.35C37.7664 195.435 36.2624 197.466 33.3799 197.466C31.4498 197.466 29.0435 195.937 29.0435 192.879C29.0435 190.046 31.3495 188.191 34.0566 188.191C37.3653 188.191 39.0949 190.623 39.0949 193.731C39.0949 197.015 37.1648 201.15 31.0488 202.88L28.3918 200.223C32.653 199.296 35.9867 197.616 35.9867 193.23C35.9867 191.6 35.1094 190.823 34.0065 190.823C33.0289 190.823 32.0514 191.5 32.0514 192.829C32.0514 193.957 32.9788 194.683 34.0065 194.683C35.1846 194.683 36.2123 193.681 35.4102 190.698L37.7664 191.35ZM58.2953 194.558L57.6436 185.986L57.5182 182.251H61.6541L61.5287 185.986L60.877 194.558H58.2953ZM59.5987 201.251C58.2953 201.251 57.3678 200.323 57.3678 199.02C57.3678 197.716 58.3203 196.814 59.5987 196.814C60.852 196.814 61.8045 197.716 61.8045 199.02C61.8045 200.323 60.852 201.251 59.5987 201.251Z" fill="#C00A00"/>
<path d="M482.888 500.053C484.743 500.253 487.099 500.354 489.731 500.354C492.187 500.354 495.07 500.203 497 500.003V503.337C495.245 503.487 492.137 503.637 489.756 503.637C487.124 503.637 484.943 503.512 482.888 503.362V500.053ZM485.018 510.656C484.768 511.558 484.592 512.36 484.592 513.212C484.592 514.817 486.096 515.97 489.731 515.97C493.115 515.97 496.298 515.594 498.529 514.992L498.554 518.501C496.373 519.028 493.365 519.354 489.831 519.354C484.091 519.354 481.208 517.423 481.208 513.989C481.208 512.536 481.509 511.307 481.71 510.38L485.018 510.656ZM497.652 497.446C498.278 498.373 499.156 499.978 499.632 500.905L497.627 501.757C497.1 500.73 496.323 499.226 495.646 498.273L497.652 497.446ZM500.609 496.318C501.261 497.271 502.188 498.85 502.64 499.727L500.634 500.604C500.133 499.552 499.306 498.098 498.629 497.145L500.609 496.318ZM514.571 498.975L516.551 496.669C518.582 497.622 521.238 499.201 522.517 500.429L520.361 503.011C519.208 501.757 516.626 500.053 514.571 498.975ZM512.917 509.152H525.926V512.034H512.917V509.152ZM511.112 516.596H527.38V519.454H511.112V516.596ZM512.014 502.183H526.853V505.041H512.014V502.183ZM517.729 503.136H520.862V517.875H517.729V503.136ZM505.422 499.05L507.051 496.844C508.655 497.421 510.786 498.499 511.839 499.401L510.084 501.858C509.107 500.955 507.051 499.752 505.422 499.05ZM503.743 505.868L505.297 503.587C506.926 504.139 509.107 505.166 510.184 505.993L508.53 508.5C507.527 507.648 505.397 506.52 503.743 505.868ZM504.82 517.925C506.149 516.045 508.079 512.912 509.583 510.029L511.789 512.009C510.46 514.666 508.856 517.524 507.352 519.955L504.82 517.925ZM545.452 502.309L548.66 503.236C545.502 512.26 539.662 517.524 530.688 520.331C530.337 519.579 529.385 518.125 528.783 517.398C537.456 515.117 542.845 510.48 545.452 502.309ZM535.777 502.509C538.308 509.929 543.722 515.268 552.646 517.273C551.919 517.975 550.941 519.404 550.465 520.281C541.066 517.825 535.902 512.084 532.769 503.412L535.777 502.509ZM529.234 500.68H552.195V503.637H529.234V500.68ZM539.085 496.719H542.193V502.484H539.085V496.719ZM492.814 531.83C492.463 534.387 491.962 537.319 491.084 540.277C489.58 545.34 487.425 548.449 484.693 548.449C481.885 548.449 479.579 545.365 479.579 541.129C479.579 535.364 484.617 530.401 491.109 530.401C497.301 530.401 501.236 534.712 501.236 540.202C501.236 545.466 498.002 549.201 491.686 550.178L489.781 547.22C490.758 547.095 491.46 546.97 492.137 546.819C495.32 546.042 497.827 543.761 497.827 540.077C497.827 536.141 495.371 533.334 491.034 533.334C485.72 533.334 482.813 537.67 482.813 540.829C482.813 543.36 483.815 544.588 484.768 544.588C485.846 544.588 486.798 542.984 487.851 539.6C488.578 537.244 489.129 534.362 489.38 531.73L492.814 531.83ZM504.595 529.624H526.628V532.331H504.595V529.624ZM513.919 527.719H517.027V531.228H513.919V527.719ZM505.422 534.311H524.698V536.893H508.279V551.206H505.422V534.311ZM523.143 534.311H526.051V547.997C526.051 549.451 525.75 550.303 524.773 550.755C523.77 551.206 522.366 551.281 520.386 551.281C520.261 550.479 519.81 549.15 519.409 548.398C520.712 548.474 522.166 548.474 522.592 548.449C523.018 548.449 523.143 548.323 523.143 547.972V534.311ZM511.739 536.567H514.396C514.195 539.575 513.343 541.28 509.357 542.182C509.132 541.555 508.505 540.578 507.979 540.102C511.087 539.55 511.613 538.573 511.739 536.567ZM516.376 536.567H518.983V538.472C518.983 539.024 519.033 539.074 519.484 539.074C519.709 539.074 520.537 539.074 520.787 539.074C521.188 539.074 521.289 538.898 521.364 537.67C521.84 538.021 522.893 538.372 523.57 538.523C523.319 540.653 522.667 541.23 521.113 541.23C520.662 541.23 519.509 541.23 519.083 541.23C516.852 541.23 516.376 540.578 516.376 538.523V536.567ZM510.736 542.182H513.393V550.078H510.736V542.182ZM512.39 542.182H520.637V548.724H512.39V546.518H517.93V544.388H512.39V542.182ZM509.082 532.281L512.064 531.78C512.516 532.582 512.992 533.66 513.192 534.387L510.084 535.013C509.934 534.286 509.483 533.133 509.082 532.281ZM518.882 531.755L522.216 532.256C521.614 533.359 521.088 534.261 520.637 534.938L517.654 534.437C518.08 533.66 518.607 532.532 518.882 531.755ZM536.228 531.579V534.963H545.051V531.579H536.228ZM533.32 528.722H548.134V537.821H533.32V528.722ZM529.886 539.926H539.461V551.106H536.453V542.784H532.719V551.256H529.886V539.926ZM541.592 539.926H551.518V551.131H548.485V542.784H544.474V551.256H541.592V539.926ZM531.139 547.12H537.707V550.003H531.139V547.12ZM542.971 547.12H549.989V550.003H542.971V547.12ZM487.776 564.61C489.229 564.76 490.658 564.835 492.187 564.835C495.245 564.835 498.378 564.585 500.985 564.033V567.141C498.353 567.542 495.195 567.743 492.187 567.768C490.708 567.768 489.28 567.718 487.801 567.618L487.776 564.61ZM497.326 560.399C497.251 560.875 497.2 561.476 497.175 562.003C497.125 562.83 497.075 564.559 497.075 566.364C497.075 570.976 497.476 574.235 497.476 576.616C497.476 579.248 496.173 581.153 492.563 581.153C489.079 581.153 486.923 579.724 486.923 577.092C486.923 574.536 489.079 572.781 492.513 572.781C497.225 572.781 500.258 575.137 502.214 576.942L500.509 579.574C497.627 576.892 495.095 575.212 492.262 575.212C490.834 575.212 489.856 575.789 489.856 576.741C489.856 577.769 490.859 578.22 492.212 578.22C493.741 578.22 494.268 577.418 494.268 575.939C494.268 574.21 493.942 569.999 493.942 566.389C493.942 564.484 493.917 562.805 493.892 562.053C493.892 561.652 493.817 560.875 493.741 560.399H497.326ZM485.094 560.649C484.893 561.151 484.592 562.454 484.492 562.905C484.116 564.585 483.289 570.099 483.289 572.606C483.289 573.082 483.314 573.734 483.389 574.235C483.74 573.358 484.166 572.505 484.517 571.653L486.071 572.881C485.369 574.962 484.542 577.493 484.266 578.872C484.191 579.223 484.116 579.774 484.141 580.025C484.141 580.301 484.141 580.727 484.166 581.078L481.334 581.278C480.832 579.549 480.331 576.666 480.331 573.282C480.331 569.497 481.083 564.76 481.384 562.83C481.484 562.128 481.584 561.151 481.609 560.373L485.094 560.649ZM519.434 559.797C519.359 560.223 519.283 561.552 519.258 561.953C519.183 563.607 519.233 568.72 519.258 570.726L516.125 569.673C516.125 568.119 516.125 563.306 516.025 561.978C515.95 560.975 515.849 560.123 515.799 559.797H519.434ZM505.247 562.93C508.981 562.93 515.599 562.73 518.732 562.73C521.289 562.73 525.099 562.705 526.502 562.73L526.452 565.687C524.898 565.612 522.341 565.537 518.657 565.537C514.095 565.537 509.107 565.738 505.322 565.938L505.247 562.93ZM518.832 570.35C518.832 574.435 517.328 576.466 514.446 576.466C512.516 576.466 510.109 574.937 510.109 571.879C510.109 569.046 512.415 567.191 515.122 567.191C518.431 567.191 520.161 569.623 520.161 572.731C520.161 576.015 518.231 580.15 512.115 581.88L509.458 579.223C513.719 578.296 517.052 576.616 517.052 572.23C517.052 570.6 516.175 569.823 515.072 569.823C514.095 569.823 513.117 570.5 513.117 571.829C513.117 572.957 514.045 573.683 515.072 573.683C516.25 573.683 517.278 572.681 516.476 569.698L518.832 570.35ZM544.525 565.512C545.201 566.464 546.179 568.319 546.655 569.247L544.575 570.124C544.048 569.071 543.196 567.317 542.544 566.314L544.525 565.512ZM547.558 564.309C548.209 565.261 549.212 567.091 549.688 568.019L547.658 568.896C547.106 567.843 546.229 566.139 545.527 565.186L547.558 564.309ZM546.129 561.953C545.352 562.529 544.525 563.181 543.923 563.657C542.294 564.961 538.985 567.517 537.331 568.971C535.977 570.099 536.002 570.4 537.381 571.578C539.261 573.157 543.998 576.892 546.555 579.373L543.647 582.08C542.945 581.278 542.193 580.501 541.467 579.749C539.938 578.17 536.253 575.012 533.947 573.082C531.465 570.951 531.666 569.598 534.172 567.517C536.153 565.913 539.562 563.131 541.266 561.476C541.968 560.775 542.795 559.947 543.196 559.346L546.129 561.953ZM489.204 593.479C492.288 593.905 497.301 593.78 499.983 593.454V596.687C496.925 596.988 492.363 596.988 489.229 596.687L489.204 593.479ZM491.21 604.182C491.009 605.034 490.909 605.636 490.909 606.288C490.909 607.416 491.886 608.092 494.443 608.092C496.674 608.092 498.529 607.892 500.71 607.416L500.785 610.799C499.156 611.125 497.125 611.301 494.293 611.301C489.981 611.301 487.901 609.747 487.901 607.19C487.901 606.187 488.051 605.21 488.352 603.931L491.21 604.182ZM485.344 591.8C485.169 592.326 484.843 593.604 484.743 594.056C484.392 595.71 483.514 600.723 483.514 603.23C483.514 603.731 483.54 604.358 483.615 604.859C483.991 604.007 484.392 603.154 484.768 602.302L486.322 603.53C485.595 605.636 484.768 608.343 484.517 609.672C484.442 610.047 484.367 610.599 484.367 610.85C484.392 611.125 484.392 611.551 484.417 611.902L481.534 612.078C481.033 610.373 480.557 607.315 480.557 603.906C480.557 600.121 481.309 595.91 481.584 593.955C481.685 593.278 481.81 592.326 481.835 591.524L485.344 591.8ZM513.994 590.647C513.894 591.123 513.794 592.201 513.769 592.827C513.644 594.808 513.568 597.515 513.568 599.846C513.568 602.578 513.719 606.914 513.719 608.368C513.719 611.451 512.616 612.303 510.962 612.303C508.53 612.303 505.071 610.198 505.071 607.541C505.071 605.11 508.204 602.553 511.688 601.325C513.919 600.523 516.451 600.121 518.356 600.121C522.216 600.121 525.274 602.127 525.274 605.586C525.274 608.569 523.72 610.799 519.735 611.777C518.582 612.028 517.454 612.103 516.426 612.203L515.298 608.945C516.401 608.945 517.504 608.945 518.356 608.769C520.386 608.418 522.016 607.391 522.016 605.586C522.016 603.856 520.512 602.879 518.331 602.879C516.2 602.879 513.994 603.33 512.039 604.107C509.783 604.959 508.179 606.313 508.179 607.391C508.179 608.193 509.357 608.869 510.009 608.869C510.46 608.869 510.786 608.669 510.786 607.792C510.786 606.488 510.661 603.004 510.661 599.971C510.661 597.114 510.686 594.005 510.686 592.852C510.686 592.351 510.611 591.098 510.535 590.647H513.994ZM521.138 593.379C523.043 594.306 525.951 595.935 527.304 596.888L525.775 599.445C524.572 598.442 521.314 596.562 519.76 595.81L521.138 593.379ZM505.748 594.757C507.227 594.933 508.305 594.933 509.207 594.933C511.814 594.933 515.724 594.457 518.306 593.705L518.381 596.813C515.549 597.464 511.513 597.916 509.307 597.916C507.653 597.916 506.675 597.891 505.823 597.79L505.748 594.757ZM531.365 590.872H534.398V598.267C534.398 602.628 533.997 609.145 531.34 613.256C530.763 612.755 529.435 612.003 528.658 611.702C531.19 607.892 531.365 602.227 531.365 598.267V590.872ZM533.245 590.872H550.641V598.467H533.245V595.735H547.608V593.604H533.245V590.872ZM536.679 605.41H549.563V607.792H536.679V605.41ZM536.679 609.822H549.563V612.479H536.679V609.822ZM541.517 598.417H544.424V611.175H541.517V598.417ZM535.3 600.898H551.017V613.231H548.059V603.53H538.108V613.231H535.3V600.898ZM497.501 622.073C497.401 622.624 497.376 623.226 497.376 623.802C497.326 624.955 497.376 629.693 497.376 631.172C497.376 637.062 496.925 640.722 491.937 643.88L489.029 641.624C490.007 641.198 491.26 640.396 491.962 639.619C493.867 637.613 494.293 635.358 494.293 631.147C494.293 629.267 494.243 625.206 494.117 623.802C494.067 623.201 493.942 622.474 493.842 622.073H497.501ZM487.6 626.986C488.828 627.161 490.057 627.236 491.41 627.236C494.644 627.236 498.654 627.011 501.111 626.559V629.818C498.729 630.094 494.869 630.294 491.485 630.294C490.382 630.294 488.853 630.219 487.6 630.144V626.986ZM485.018 622.499C484.818 623.125 484.567 624.028 484.442 624.554C483.815 627.337 482.913 632.6 483.59 635.708C483.916 634.931 484.392 633.703 484.793 632.801L486.372 633.803C485.62 635.959 484.968 638.466 484.667 639.894C484.567 640.296 484.492 640.847 484.517 641.123C484.517 641.398 484.542 641.825 484.567 642.175L481.76 642.451C481.208 640.922 480.331 637.438 480.331 634.33C480.331 630.219 480.832 626.359 481.158 624.304C481.259 623.627 481.284 622.775 481.309 622.148L485.018 622.499ZM509.558 624.103C509.382 624.98 509.257 626.459 509.257 627.161C509.257 628.79 509.257 630.645 509.407 632.475C509.758 636.084 510.51 638.566 512.089 638.566C513.293 638.566 514.27 635.608 514.746 633.628L517.278 636.661C515.599 641.047 514.045 642.551 512.039 642.551C509.257 642.551 506.876 640.095 506.174 633.377C505.923 631.071 505.898 628.114 505.898 626.585C505.898 625.908 505.873 624.83 505.698 624.053L509.558 624.103ZM522.091 624.654C524.472 627.537 526.402 633.803 526.678 637.639L523.369 638.942C522.993 634.881 521.64 628.815 518.907 625.707L522.091 624.654ZM539.988 621.998C539.812 622.699 539.587 623.827 539.461 624.379C539.11 626.083 538.484 629.141 537.807 631.698C536.905 635.207 535.225 640.321 533.847 643.303L530.362 642.125C531.841 639.594 533.746 634.355 534.699 630.846C535.325 628.49 535.902 625.732 536.077 624.253C536.203 623.326 536.228 622.298 536.153 621.697L539.988 621.998ZM533.596 625.757C536.654 625.757 540.188 625.281 543.447 624.504V627.637C540.339 628.364 536.403 628.79 533.571 628.79C532.343 628.79 531.415 628.74 530.538 628.69L530.438 625.557C531.741 625.707 532.568 625.757 533.596 625.757ZM541.467 629.592C542.87 629.442 544.675 629.342 546.304 629.342C547.733 629.342 549.237 629.417 550.691 629.567L550.641 632.575C549.362 632.425 547.833 632.249 546.329 632.249C544.6 632.249 543.046 632.325 541.467 632.525V629.592ZM542.82 635.884C542.645 636.611 542.494 637.413 542.494 637.964C542.494 639.067 543.221 639.894 545.928 639.894C547.608 639.894 549.337 639.719 551.117 639.393L550.992 642.577C549.588 642.777 547.908 642.927 545.903 642.927C541.667 642.927 539.411 641.499 539.411 638.967C539.411 637.789 539.637 636.586 539.837 635.608L542.82 635.884ZM487.299 653.123C487.149 654.176 487.024 655.479 486.974 656.482C486.848 659.189 486.673 664.778 486.673 667.887C486.673 670.418 488.177 671.245 490.132 671.245C494.268 671.245 496.875 668.864 498.704 666.132L500.985 668.914C499.356 671.321 495.797 674.654 490.082 674.654C485.971 674.654 483.339 672.85 483.339 668.563C483.339 665.205 483.565 658.637 483.565 656.482C483.565 655.278 483.464 654.075 483.264 653.098L487.299 653.123ZM518.03 652.747C517.955 653.248 517.88 653.875 517.855 654.527C517.804 655.805 517.779 659.364 517.779 661.47C517.779 664.227 518.18 668.764 518.18 670.744C518.18 672.9 516.551 674.554 513.268 674.554C509.257 674.554 507.152 673.025 507.152 670.368C507.152 667.836 509.483 666.057 513.318 666.057C518.832 666.057 522.943 668.764 525.023 670.518L523.219 673.326C520.837 671.07 517.203 668.639 512.917 668.639C511.162 668.639 510.184 669.315 510.184 670.193C510.184 671.145 511.062 671.722 512.791 671.722C514.12 671.722 515.022 671.346 515.022 669.892C515.022 668.388 514.746 663.901 514.746 661.47C514.746 659.063 514.772 655.88 514.772 654.451C514.772 654 514.721 653.223 514.621 652.747H518.03ZM507.628 655.078C509.407 655.379 512.29 655.629 513.819 655.629C517.228 655.629 520.512 655.454 524.171 654.877L524.146 657.735C521.589 658.086 517.604 658.387 513.844 658.387C512.24 658.387 509.332 658.161 507.678 657.961L507.628 655.078ZM507.477 660.492C509.132 660.793 512.19 660.968 513.518 660.968C518.155 660.968 521.389 660.668 524.472 660.267L524.447 663.224C520.988 663.625 518.256 663.776 513.493 663.776C512.014 663.776 509.182 663.65 507.527 663.45L507.477 660.492ZM494.368 683.797C494.293 684.223 494.218 685.552 494.192 685.953C494.117 687.607 494.167 692.72 494.192 694.726L491.059 693.673C491.059 692.119 491.059 687.306 490.959 685.978C490.884 684.975 490.784 684.123 490.733 683.797H494.368ZM480.181 686.93C483.916 686.93 490.533 686.73 493.666 686.73C496.223 686.73 500.033 686.705 501.437 686.73L501.386 689.687C499.832 689.612 497.276 689.537 493.591 689.537C489.029 689.537 484.041 689.738 480.256 689.938L480.181 686.93ZM493.766 694.35C493.766 698.435 492.262 700.466 489.38 700.466C487.45 700.466 485.043 698.937 485.043 695.879C485.043 693.046 487.35 691.191 490.057 691.191C493.365 691.191 495.095 693.623 495.095 696.731C495.095 700.015 493.165 704.15 487.049 705.88L484.392 703.223C488.653 702.296 491.987 700.616 491.987 696.23C491.987 694.6 491.109 693.823 490.007 693.823C489.029 693.823 488.051 694.5 488.051 695.829C488.051 696.957 488.979 697.683 490.007 697.683C491.185 697.683 492.212 696.681 491.41 693.698L493.766 694.35ZM505.407 697.809C507.663 697.809 509.467 699.613 509.467 701.844C509.467 704.1 507.663 705.905 505.407 705.905C503.176 705.905 501.346 704.1 501.346 701.844C501.346 699.613 503.176 697.809 505.407 697.809ZM505.407 704.1C506.66 704.1 507.663 703.098 507.663 701.844C507.663 700.616 506.66 699.613 505.407 699.613C504.178 699.613 503.151 700.616 503.151 701.844C503.151 703.098 504.178 704.1 505.407 704.1Z" fill="#C00A00"/>
</svg>
