<svg xmlns="http://www.w3.org/2000/svg" width="37" height="35" viewBox="0 0 37 35" fill="none">
  <path d="M37 7.70081C37 7.23561 36.6105 6.84606 36.1453 6.84606C34.4849 6.84606 32.9683 7.20914 31.3004 7.21292C30.8844 7.21292 30.4684 7.21292 30.0524 7.2167C29.886 7.03895 29.5607 7.00869 29.4283 7.2167C27.6167 7.22427 25.8051 7.25074 23.9935 7.35286C21.4633 7.49658 18.9785 7.78023 16.437 7.78401C14.406 7.78779 12.341 7.61004 10.3176 7.82561C10.2458 6.94061 10.1134 6.06696 9.94319 5.19331C9.76165 4.25536 9.83729 3.40061 9.25864 2.60638C9.25864 2.60638 9.25864 2.60638 9.25864 2.6026C9.33428 2.28491 9.15652 1.91427 8.81235 1.83106C8.4228 1.73651 8.09755 1.86132 7.71556 1.9067C7.6437 1.91427 7.57184 1.92183 7.50376 1.92939C7.58319 1.18811 7.46972 0.571637 6.46748 0.166957C5.85857 -0.0788766 5.06812 0.0421491 4.43274 0.0799697C3.58556 0.129136 2.73838 0.106444 1.8912 0.155611C1.74748 0.00811064 1.52055 -0.0637484 1.33523 0.0724055C1.24446 0.1367 1.15748 0.200995 1.06671 0.269072C1.06293 0.269072 1.05914 0.276636 1.05536 0.280418C0.786835 0.287983 0.53722 0.458175 0.419976 0.768303C0.0871556 1.66465 -0.502845 3.54055 0.839784 3.91119C1.46382 4.08138 2.34504 3.83555 2.99177 3.82798C4.22094 3.81664 5.40094 3.97927 6.62254 4.03978C7.00831 4.05869 7.27306 3.71452 7.29953 3.36279C7.29953 3.34388 7.30331 3.32497 7.30331 3.30606C7.62479 3.32497 7.96139 3.32875 8.27152 3.27202C8.29799 3.45356 8.33581 3.62754 8.30934 3.82042C8.26774 4.13433 8.25261 4.45581 8.29421 4.76972C8.41146 5.63202 8.5287 6.48299 8.60056 7.34529C8.59299 7.34151 8.58165 7.33773 8.57408 7.33395C8.58921 7.71594 8.61947 8.09414 8.66107 8.46856C8.66107 8.53286 8.66864 8.59715 8.66864 8.66523C8.66864 8.76356 8.68755 8.84677 8.71402 8.92619C8.80479 9.69017 8.91069 10.4504 8.95985 11.2257C9.06197 12.7688 9.26242 14.5955 9.70114 16.0667C9.90537 16.7513 10.3252 17.4434 10.3252 18.1733C10.3252 18.6877 10.2911 19.2096 10.3743 19.7202C10.4765 20.348 10.4651 21.5923 10.9379 22.065C11.543 22.6702 12.5906 22.4773 13.3395 22.3903C14.9317 22.2088 16.5429 22.5794 18.1313 22.6853C19.89 22.8025 21.7508 22.36 23.5359 22.3487C23.9481 22.3487 24.3566 22.3487 24.7688 22.3487C24.905 22.3827 25.0487 22.3827 25.1811 22.3487C26.3573 22.3487 27.5373 22.3487 28.7135 22.3487C30.2528 22.3487 31.7619 22.3714 33.286 22.1785C32.4653 22.2844 32.9721 25.2571 31.7732 25.3668C30.5554 25.4765 29.2619 25.1323 28.0517 25.0226C26.2514 24.86 24.4171 25.0302 22.6244 25.2004C18.918 25.5521 15.291 25.9984 11.5619 25.9984C10.4386 25.9984 10.4386 27.7381 11.5619 27.7381C16.8643 27.7343 22.0987 26.5997 27.3898 26.717C29.1447 26.7548 30.9449 27.3788 32.6922 26.9552C34.0613 26.6224 34.311 24.478 34.6287 23.3925C34.8631 22.5908 35.1468 21.3049 34.5038 20.7224C34.5833 19.8941 34.7837 19.0848 35.0182 18.2792C35.3813 18.1809 35.559 17.7686 35.5023 17.4018C35.491 17.3261 35.4758 17.2467 35.4645 17.1711C35.4531 17.1106 35.4342 17.0614 35.4115 17.0122C35.6952 16.1121 35.9713 15.2082 36.1263 14.2891C36.4894 12.1107 36.9924 9.92465 37 7.70837V7.70081ZM2.35261 2.40971C2.18241 2.39459 2.016 2.40215 1.84959 2.42862C1.7853 2.43619 1.721 2.44375 1.66049 2.4551C1.58107 2.45888 1.51677 2.46266 1.46004 2.47023C1.47895 2.18279 1.59619 1.41503 1.63023 1.38478C1.67184 1.35074 1.70209 1.30535 1.73235 1.25619C2.79132 1.34696 3.87677 1.35074 4.93197 1.30914C5.38203 1.29401 6.35402 1.14273 6.23299 1.84241C6.20274 2.00882 6.1687 2.16766 6.13466 2.33029C6.07793 2.42484 6.04767 2.53074 6.04389 2.64042C4.81094 2.54587 3.60825 2.41728 2.35639 2.40971H2.35261ZM10.9038 12.9768C10.8736 12.7612 10.8433 12.5494 10.8131 12.3527C10.6391 11.2862 10.4878 10.1516 10.3706 9.04722C11.3161 9.18337 12.2692 9.27036 13.226 9.33087C13.2714 10.4428 13.3659 11.5434 13.4832 12.6402C12.6209 12.6515 11.7737 12.7234 10.9038 12.9806V12.9768ZM11.6905 16.479C11.3274 15.7377 11.1534 14.7959 11.0249 13.8807C11.9099 13.7559 12.757 13.7559 13.6156 13.7861C13.7328 14.7468 13.8652 15.7074 14.0051 16.6643C13.2752 16.687 12.5528 16.7361 11.8342 16.8307C11.7964 16.7134 11.751 16.5962 11.6905 16.479ZM12.3561 20.7716C12.2881 20.3669 12.2011 19.9622 12.1217 19.5575C12.0044 18.9524 12.0384 18.404 12.012 17.8594C12.7343 17.9313 13.4605 17.9502 14.1867 17.9615C14.3115 18.8427 14.4363 19.7277 14.5535 20.6127C13.8538 20.6808 12.9461 20.851 12.3561 20.7678V20.7716ZM14.1034 9.37247C15.499 9.42542 16.9022 9.4103 18.3015 9.36113C18.2448 10.2613 18.4868 11.1425 18.5209 12.054C18.5285 12.2355 18.5322 12.4132 18.536 12.5948C17.5376 12.6061 16.5353 12.6213 15.5368 12.6364C15.2192 12.6402 14.909 12.6364 14.6027 12.6364C14.4552 11.5434 14.3001 10.4541 14.1072 9.37247H14.1034ZM15.0074 15.6318C14.9204 15.0304 14.8409 14.4329 14.7615 13.8277C15.0187 13.8391 15.2759 13.8466 15.5368 13.8504C16.5467 13.8656 17.5565 13.8807 18.5663 13.892C18.5776 14.6484 18.6003 15.4086 18.6722 16.1688C18.6873 16.3504 18.6986 16.5584 18.7024 16.7777C17.53 16.7172 16.35 16.6567 15.1776 16.6454C15.1208 16.305 15.0603 15.9684 15.0111 15.628L15.0074 15.6318ZM15.8924 20.6808C15.7562 19.7807 15.586 18.8843 15.4158 17.9842C15.4952 17.9842 15.5747 17.9842 15.6541 17.988C16.6752 18.0145 17.6926 18.0674 18.7138 18.1241C18.7289 19.0621 18.797 20.0606 19.1033 20.8208C18.033 20.9456 16.9589 20.8056 15.8924 20.6808ZM19.0693 9.33087C20.4989 9.2628 21.921 9.16446 23.3241 9.051C23.3733 9.051 23.4186 9.04344 23.464 9.03965C23.464 9.07369 23.4602 9.10773 23.4602 9.14555C23.4602 9.16446 23.4678 9.18337 23.4716 9.20228C23.4489 10.318 23.4754 11.4337 23.5321 12.5532C23.1539 12.5532 22.7757 12.5532 22.3975 12.557C21.4785 12.5607 20.5594 12.5721 19.6366 12.5797C19.5042 11.4866 19.2886 10.4428 19.0693 9.32331V9.33087ZM19.769 14.3799C19.769 14.2173 19.7576 14.0622 19.7501 13.9072C20.6313 13.9147 21.5125 13.9261 22.3975 13.9298C22.8022 13.9298 23.2069 13.9299 23.6115 13.9336C23.6796 14.917 23.759 15.9003 23.846 16.8836C23.2031 16.8912 22.5601 16.895 21.9172 16.8912C21.2818 16.8912 20.6388 16.8685 19.9921 16.8382C19.8824 16.0175 19.7841 15.1817 19.769 14.3761V14.3799ZM20.6048 20.6657C20.567 20.5674 20.5292 20.469 20.4951 20.3745C20.4724 20.2913 20.427 20.2308 20.3703 20.1854C20.2342 19.5689 20.2001 18.6688 20.1623 18.2036C20.7447 18.23 21.331 18.2565 21.9172 18.2679C22.6017 18.283 23.2825 18.2868 23.967 18.2868C24.0313 19.0394 24.0919 19.7882 24.1448 20.5371C22.9648 20.5447 21.7848 20.5711 20.6086 20.6695L20.6048 20.6657ZM28.0668 20.4766C28.0668 20.4766 28.0706 20.4993 28.0706 20.5106C27.6319 20.522 27.1931 20.5333 26.7582 20.5333C26.3913 20.5333 26.0245 20.5333 25.6576 20.5333C25.6425 19.7807 25.5858 19.0281 25.5139 18.2754C26.3876 18.2641 27.2574 18.249 28.1273 18.2376C28.063 18.9978 28.0328 19.7504 28.0668 20.4804V20.4766ZM28.2824 16.8118C27.3104 16.8269 26.3384 16.8496 25.3664 16.8685C25.3021 16.305 25.234 15.7377 25.166 15.1779C25.1168 14.7695 25.0828 14.3572 25.0487 13.945C26.2741 13.9525 27.4995 13.9563 28.7211 13.9601C28.5698 14.8791 28.411 15.8436 28.2824 16.8118ZM28.9064 12.5343C27.5827 12.5418 26.2627 12.5456 24.9428 12.5532C24.852 11.3505 24.7499 10.1478 24.4965 8.98292C26.0585 8.9035 27.6243 8.9035 29.1901 8.90728C29.0766 10.1138 29.0312 11.3278 28.9102 12.5343H28.9064ZM32.8133 20.3858C31.7278 20.3707 30.6272 20.4123 29.5267 20.4577C29.6553 19.7126 29.7309 18.9638 29.7952 18.2111C30.9676 18.1998 32.1363 18.2036 33.3087 18.2338C33.0969 18.9373 32.9116 19.6483 32.8133 20.382V20.3858ZM34.3601 14.448C34.224 15.2611 33.9895 16.0516 33.7437 16.8345C32.4615 16.7891 31.1794 16.7815 29.8973 16.7929C29.9616 15.9003 30.0259 15.004 30.1431 14.1152C30.1507 14.0698 30.1507 14.0282 30.1583 13.9828C31.6144 14.0093 33.1499 14.0131 34.4736 13.5365C34.4925 13.529 34.5038 13.5176 34.5228 13.51C34.466 13.824 34.4093 14.1379 34.3563 14.448H34.3601ZM34.7081 12.5116C34.6589 12.5116 34.6135 12.5116 34.5644 12.5116C34.5379 12.4965 34.5114 12.4851 34.4774 12.4738C33.252 12.1182 31.7203 12.3263 30.3095 12.4511C30.3965 11.2711 30.4079 10.0797 30.3171 8.9035C30.4268 8.9035 30.5365 8.9035 30.6461 8.9035C32.227 8.90728 33.7285 8.65767 35.2565 8.57824C35.1771 9.88683 34.9501 11.1992 34.7119 12.504L34.7081 12.5116Z" fill="#F1EDE4"/>
  <path d="M15.8205 29.8372C15.3477 28.9787 14.5686 28.3698 13.5702 28.5589C13.1352 28.6421 12.7154 28.8387 12.4015 29.1337C11.9514 29.2132 11.5505 29.4703 11.2026 29.9809C10.6618 30.7676 10.5143 31.7812 10.9189 32.6586C11.6148 34.1563 13.6647 34.4664 15.0678 33.918C15.7902 33.6382 16.3537 33.1011 16.5542 32.3409C16.7849 31.4748 16.2214 30.5671 15.8167 29.8372H15.8205ZM14.4022 32.617C13.7479 32.8212 12.8969 32.7305 12.3977 32.235C12.0838 31.9249 12.1708 31.4521 12.2918 31.0815C12.515 30.3894 13.2676 30.378 13.85 30.1662C14.0807 30.083 14.1753 29.875 14.145 29.6859C14.5686 29.9961 14.8069 30.639 14.9846 31.0853C15.2759 31.8266 15.3515 32.3182 14.406 32.617H14.4022Z" fill="#F1EDE4"/>
  <path d="M33.6755 30.2116C33.2632 29.3909 32.5068 29.111 31.6256 29.1451C31.0469 29.1678 30.3699 29.1753 29.7686 29.3417C27.7792 29.5157 27.749 32.3106 28.547 33.6987C29.3828 35.1472 31.2663 34.9392 32.4803 34.1676C33.8041 33.328 34.4054 31.6677 33.6717 30.2116H33.6755ZM31.8752 32.8137C31.3495 33.2146 30.4607 33.5814 29.9123 33.0444C29.2164 32.3598 29.519 31.1193 30.0447 30.3591C30.8654 30.1889 32.2345 30.2154 32.4501 30.7297C32.7791 31.5278 32.5408 32.3106 31.8752 32.8137Z" fill="#F1EDE4"/>
  <path d="M31.2776 31.6488C31.1301 31.0248 30.1392 31.1307 30.1392 31.8001C30.1392 32.4695 31.1263 32.5754 31.2776 31.9514C31.3192 31.853 31.3192 31.7434 31.2776 31.645V31.6488Z" fill="#F1EDE4"/>
  <path d="M13.3699 30.7411C12.6286 30.7411 12.6286 31.8946 13.3699 31.8946C14.1112 31.8946 14.1112 30.7411 13.3699 30.7411Z" fill="#F1EDE4"/>
</svg>