<svg width="340" height="600" viewBox="0 0 340 600" fill="none" xmlns="http://www.w3.org/2000/svg">
<path d="M40.92 66.92C40.8 67.3 40.72 67.66 40.64 67.98C40.26 69.84 39.92 72.72 39.92 75.2C39.92 78.36 40.5 80.6 41.16 82.62L38.86 83.3C38.26 81.5 37.68 78.54 37.68 75.6C37.68 72.98 38.04 70.04 38.26 68.06C38.3 67.66 38.34 67.2 38.32 66.84L40.92 66.92ZM37.34 69.12C41.14 69.12 44.16 68.94 47.22 68.2L47.24 70.5C44.5 71 40.3 71.3 37.28 71.3C36.22 71.3 34.66 71.2 33.72 71.16L33.66 68.86C34.38 68.96 36.12 69.12 37.34 69.12ZM45.98 72.06C45.82 72.42 45.52 73.34 45.38 73.76C44.24 77.36 42.18 80.06 40.28 81.46C38.98 82.42 37.24 83.3 35.5 83.3C34.04 83.3 32.82 82.42 32.82 80.38C32.82 77.56 35.34 74.62 38.52 73.46C39.84 72.98 41.48 72.68 42.98 72.68C46.72 72.68 49.48 74.84 49.48 77.96C49.48 80.8 47.8 83.54 42.9 84.3L41.56 82.18C45.42 81.76 47 79.82 47 77.84C47 76.14 45.54 74.7 42.84 74.7C41.02 74.7 39.58 75.22 38.6 75.66C36.6 76.6 35.18 78.52 35.18 79.86C35.18 80.52 35.44 80.86 36.1 80.86C37.04 80.86 38.38 80.2 39.6 79.06C41.06 77.72 42.42 75.94 43.22 73.18C43.36 72.76 43.5 71.9 43.52 71.46L45.98 72.06ZM58.22 66.94C57.94 67.92 57.52 69.98 57.4 71.1C58.36 69.56 60.12 67.86 62.36 67.86C65.14 67.86 67.3 70.6 67.3 75C67.3 80.66 63.84 83.34 58.54 84.32L57.02 82C61.48 81.32 64.6 79.84 64.6 75C64.6 71.92 63.56 70.2 61.9 70.2C59.54 70.2 57.46 73.76 57.38 76.38C57.34 76.94 57.36 77.58 57.46 78.5L55 78.68C54.88 77.9 54.76 76.68 54.76 75.34C54.76 73.46 55.02 71 55.32 68.92C55.4 68.18 55.46 67.38 55.48 66.84L58.22 66.94ZM80.08 67.36C79.96 67.88 79.84 68.52 79.74 69.02C79.54 69.92 79.3 71.16 79.08 72.18C78.42 75 76.82 80.7 74.72 84.08L72.1 83.04C74.48 79.84 75.98 74.56 76.54 72.04C76.92 70.24 77.14 68.54 77.12 67.04L80.08 67.36ZM86.98 69.36C88.2 71.1 89.88 74.82 90.5 76.72L87.96 77.9C87.44 75.68 86.02 72.16 84.58 70.38L86.98 69.36ZM71.98 71.46C72.7 71.5 73.38 71.48 74.12 71.46C75.72 71.42 79.52 70.98 81 70.98C83.12 70.98 84.62 71.92 84.62 74.82C84.62 77.18 84.32 80.42 83.48 82.14C82.82 83.54 81.7 83.98 80.2 83.98C79.42 83.98 78.48 83.86 77.8 83.7L77.36 81.06C78.14 81.28 79.28 81.48 79.8 81.48C80.48 81.48 81 81.28 81.3 80.62C81.86 79.5 82.12 77.06 82.12 75.1C82.12 73.5 81.44 73.26 80.18 73.26C79 73.26 75.54 73.7 74.44 73.84C73.86 73.92 72.82 74.06 72.22 74.16L71.98 71.46ZM86.62 66.6C87.12 67.32 87.82 68.6 88.2 69.34L86.6 70.02C86.18 69.2 85.56 68.02 85.02 67.24L86.62 66.6ZM88.98 65.68C89.5 66.44 90.24 67.72 90.6 68.42L89 69.1C88.6 68.26 87.94 67.1 87.4 66.34L88.98 65.68ZM47.66 95.34C47.04 95.7 46.4 96.06 45.66 96.42C44.42 97.04 41.92 98.22 40.08 99.4C38.42 100.48 37.3 101.64 37.3 103.02C37.3 104.46 38.7 105.24 41.48 105.24C43.52 105.24 46.22 104.92 48 104.5L47.98 107.38C46.26 107.66 44.16 107.88 41.56 107.88C37.56 107.88 34.54 106.76 34.54 103.32C34.54 100.78 36.4 99 38.78 97.44C40.68 96.18 43.2 94.94 44.42 94.24C45.18 93.8 45.74 93.46 46.26 93.04L47.66 95.34ZM37.6 91.06C38.56 93.72 39.82 96.12 40.76 97.8L38.48 99.12C37.38 97.3 36.18 94.68 35.08 92.1L37.6 91.06ZM64.68 100.46C64.68 99.14 63.66 98.08 61.78 98.08C59.58 98.08 57.58 98.74 56.58 99.04C56 99.22 55.2 99.52 54.64 99.76L53.88 96.88C54.56 96.84 55.4 96.68 56.06 96.54C57.52 96.22 59.76 95.64 62.12 95.64C65.28 95.64 67.5 97.44 67.5 100.56C67.5 104.86 63.52 107.5 57.96 108.28L56.54 105.78C61.5 105.22 64.68 103.6 64.68 100.46ZM56.82 90.86C59.16 91.36 63.7 91.76 65.8 91.76L65.42 94.22C63.08 94.06 58.74 93.66 56.44 93.26L56.82 90.86ZM79.96 101.86L79.44 95.02L79.34 92.04H82.64L82.54 95.02L82.02 101.86H79.96ZM81 107.2C79.96 107.2 79.22 106.46 79.22 105.42C79.22 104.38 79.98 103.66 81 103.66C82 103.66 82.76 104.38 82.76 105.42C82.76 106.46 82 107.2 81 107.2ZM50.04 118.4C49.76 118.72 49.52 119 49.36 119.24C47.8 121.82 44.84 125.42 41.74 127.7L39.74 125.86C42.38 124.02 44.62 121.3 45.66 119.46C43.9 119.46 36.62 119.46 35.1 119.46C34.28 119.46 33.2 119.56 32.78 119.62V116.8C33.32 116.9 34.4 117 35.1 117C36.36 117 44.04 117 46.18 117C46.96 117 47.62 116.92 48.06 116.78L50.04 118.4ZM39.5 128C38.32 126.82 36.28 125 35.1 124.16L37.2 122.44C38.28 123.26 40.28 124.88 41.8 126.34C43.12 127.62 44.7 129.28 45.66 130.44L43.3 132.32C42.48 131.2 40.8 129.32 39.5 128ZM70.04 118.4C69.76 118.72 69.52 119 69.36 119.24C67.8 121.82 64.84 125.42 61.74 127.7L59.74 125.86C62.38 124.02 64.62 121.3 65.66 119.46C63.9 119.46 56.62 119.46 55.1 119.46C54.28 119.46 53.2 119.56 52.78 119.62V116.8C53.32 116.9 54.4 117 55.1 117C56.36 117 64.04 117 66.18 117C66.96 117 67.62 116.92 68.06 116.78L70.04 118.4ZM59.5 128C58.32 126.82 56.28 125 55.1 124.16L57.2 122.44C58.28 123.26 60.28 124.88 61.8 126.34C63.12 127.62 64.7 129.28 65.66 130.44L63.3 132.32C62.48 131.2 60.8 129.32 59.5 128ZM73.02 115.44H88.92V117.46H73.02V115.44ZM73.86 118.54H88.2V120.48H73.86V118.54ZM71.92 121.62H90.06V123.68H71.92V121.62ZM72.3 125.14H89.74V127.22H72.3V125.14ZM84.24 123.44H86.7V130.16C86.7 131.32 86.48 131.96 85.68 132.34C84.86 132.7 83.76 132.74 82.3 132.74C82.2 132.06 81.82 131.06 81.5 130.4C82.46 130.44 83.54 130.44 83.84 130.44C84.16 130.44 84.24 130.36 84.24 130.1V123.44ZM79.48 113.98L82.1 114.24C81.1 122.8 78.94 128.74 73.64 132.16C73.24 131.68 72.1 130.7 71.48 130.26C76.72 127.36 78.66 121.88 79.48 113.98ZM77.1 129.04L79.04 127.84C79.88 128.66 80.94 129.84 81.44 130.64L79.38 132C78.94 131.2 77.92 129.94 77.1 129.04ZM32.58 139.22H47.46V141.5H32.58V139.22ZM32.76 142.94H44.6V145.02H32.76V142.94ZM46.62 139.22H49.08V153.76C49.08 155.14 48.84 155.88 47.98 156.3C47.14 156.7 45.88 156.76 44.06 156.76C43.98 156.04 43.62 154.84 43.28 154.16C44.42 154.22 45.72 154.22 46.12 154.2C46.48 154.2 46.62 154.1 46.62 153.72V139.22ZM33.8 146.5H36.14V154.76H33.8V146.5ZM35.88 146.5H43.56V153.3H35.88V151.24H41.2V148.58H35.88V146.5ZM60.38 138.98C60.2 139.72 60.12 140.24 60.02 140.76C59.78 142.48 58.84 149.08 58.84 151.1C58.84 152.76 59.84 153.66 61.8 153.66C64.6 153.66 66.14 152.36 66.14 150.72C66.14 149.38 65.38 148.08 64.08 146.86L66.88 146.26C68.22 147.94 68.82 149.34 68.82 151.04C68.82 154.06 66.12 156.24 61.74 156.24C58.58 156.24 56.36 154.88 56.36 151.52C56.36 149.48 57.32 143.4 57.52 140.6C57.6 139.68 57.6 139.28 57.56 138.82L60.38 138.98ZM53.24 141.46C54.98 142.04 57.46 142.3 59.5 142.3C61.04 142.3 62.46 142.2 63.46 142.02L63.38 144.42C62.2 144.54 61.1 144.6 59.42 144.6C57.4 144.6 54.96 144.28 53.12 143.76L53.24 141.46ZM52.8 146.42C54.96 147.16 57.28 147.32 59.3 147.32C60.52 147.32 62 147.24 63.3 147.08L63.24 149.46C62.14 149.58 60.96 149.64 59.7 149.64C57.04 149.64 54.5 149.36 52.68 148.84L52.8 146.42ZM71.76 145.9H90.28V148.52H71.76V145.9ZM39.46 164.04H46.82V166.04H39.46V164.04ZM41.98 174.62H47.9V176.5H41.98V174.62ZM41.92 178H47.98V179.98H41.92V178ZM38.82 167.72H50.34V169.76H38.82V167.72ZM42.22 162.04H44.44V168.96H42.22V162.04ZM34.58 162.04L36.66 162.76C35.84 164.32 34.92 166.1 34.16 167.22L32.56 166.56C33.26 165.36 34.12 163.42 34.58 162.04ZM36.84 164.4L38.78 165.3C37.32 167.54 35.38 170.32 33.84 172.04L32.46 171.26C33.96 169.46 35.78 166.54 36.84 164.4ZM31.48 166.7L32.66 165.1C33.7 166.04 34.92 167.34 35.4 168.28L34.1 170.12C33.66 169.14 32.48 167.72 31.48 166.7ZM36.16 169.2L37.82 168.5C38.6 169.82 39.36 171.56 39.62 172.7L37.8 173.52C37.6 172.38 36.88 170.58 36.16 169.2ZM31.42 170.8C33.22 170.7 35.8 170.56 38.3 170.4L38.32 172.36C35.98 172.54 33.54 172.72 31.68 172.86L31.42 170.8ZM36.7 174.22L38.38 173.7C38.86 174.82 39.26 176.28 39.4 177.24L37.62 177.82C37.52 176.84 37.14 175.36 36.7 174.22ZM32.28 173.78L34.2 174.1C34 176.02 33.58 178 33 179.28C32.6 179.02 31.72 178.64 31.26 178.44C31.82 177.26 32.12 175.46 32.28 173.78ZM34.48 171.86H36.54V180.8H34.48V171.86ZM48.1 162.42L50.18 163.08C48.24 168.26 44.76 172.12 39.58 174.68C39.3 174.2 38.62 173.38 38.16 173C43.04 170.74 46.48 166.98 48.1 162.42ZM42.86 171.22H47.96V173.18H42.86V180.78H40.7V172.42L41.84 171.22H42.86ZM46.94 171.22H49.26V180.8H46.94V171.22ZM52.38 165.3C53.16 165.28 53.96 165.24 54.34 165.2C56 165.04 59.3 164.76 62.96 164.44C65.04 164.28 67.22 164.14 68.64 164.08L68.66 166.66C67.58 166.66 65.86 166.68 64.78 166.92C62.38 167.56 60.56 170.16 60.56 172.54C60.56 175.82 63.64 177.02 67.02 177.18L66.08 179.92C61.9 179.66 57.94 177.4 57.94 173.06C57.94 170.2 59.56 167.92 60.9 166.9C59.04 167.1 54.94 167.54 52.64 168.04L52.38 165.3ZM65.8 168.62C66.28 169.32 67 170.54 67.38 171.34L65.88 172C65.36 170.92 64.94 170.12 64.32 169.24L65.8 168.62ZM68.02 167.7C68.54 168.4 69.3 169.58 69.72 170.36L68.22 171.08C67.68 170 67.22 169.24 66.58 168.36L68.02 167.7ZM44.06 186.88C44 187.22 43.94 188.28 43.92 188.6C43.86 189.92 43.9 194 43.92 195.6L41.42 194.76C41.42 193.52 41.42 189.68 41.34 188.62C41.28 187.82 41.2 187.14 41.16 186.88H44.06ZM32.74 189.38C35.72 189.38 41 189.22 43.5 189.22C45.54 189.22 48.58 189.2 49.7 189.22L49.66 191.58C48.42 191.52 46.38 191.46 43.44 191.46C39.8 191.46 35.82 191.62 32.8 191.78L32.74 189.38ZM43.58 195.3C43.58 198.56 42.38 200.18 40.08 200.18C38.54 200.18 36.62 198.96 36.62 196.52C36.62 194.26 38.46 192.78 40.62 192.78C43.26 192.78 44.64 194.72 44.64 197.2C44.64 199.82 43.1 203.12 38.22 204.5L36.1 202.38C39.5 201.64 42.16 200.3 42.16 196.8C42.16 195.5 41.46 194.88 40.58 194.88C39.8 194.88 39.02 195.42 39.02 196.48C39.02 197.38 39.76 197.96 40.58 197.96C41.52 197.96 42.34 197.16 41.7 194.78L43.58 195.3ZM59.96 197.86L59.44 191.02L59.34 188.04H62.64L62.54 191.02L62.02 197.86H59.96ZM61 203.2C59.96 203.2 59.22 202.46 59.22 201.42C59.22 200.38 59.98 199.66 61 199.66C62 199.66 62.76 200.38 62.76 201.42C62.76 202.46 62 203.2 61 203.2Z" fill="#C00A00"/>
<path d="M262.9 396.68C264.38 396.84 266.26 396.92 268.36 396.92C270.32 396.92 272.62 396.8 274.16 396.64V399.3C272.76 399.42 270.28 399.54 268.38 399.54C266.28 399.54 264.54 399.44 262.9 399.32V396.68ZM264.6 405.14C264.4 405.86 264.26 406.5 264.26 407.18C264.26 408.46 265.46 409.38 268.36 409.38C271.06 409.38 273.6 409.08 275.38 408.6L275.4 411.4C273.66 411.82 271.26 412.08 268.44 412.08C263.86 412.08 261.56 410.54 261.56 407.8C261.56 406.64 261.8 405.66 261.96 404.92L264.6 405.14ZM274.68 394.6C275.18 395.34 275.88 396.62 276.26 397.36L274.66 398.04C274.24 397.22 273.62 396.02 273.08 395.26L274.68 394.6ZM277.04 393.7C277.56 394.46 278.3 395.72 278.66 396.42L277.06 397.12C276.66 396.28 276 395.12 275.46 394.36L277.04 393.7ZM288.18 395.82L289.76 393.98C291.38 394.74 293.5 396 294.52 396.98L292.8 399.04C291.88 398.04 289.82 396.68 288.18 395.82ZM286.86 403.94H297.24V406.24H286.86V403.94ZM285.42 409.88H298.4V412.16H285.42V409.88ZM286.14 398.38H297.98V400.66H286.14V398.38ZM290.7 399.14H293.2V410.9H290.7V399.14ZM280.88 395.88L282.18 394.12C283.46 394.58 285.16 395.44 286 396.16L284.6 398.12C283.82 397.4 282.18 396.44 280.88 395.88ZM279.54 401.32L280.78 399.5C282.08 399.94 283.82 400.76 284.68 401.42L283.36 403.42C282.56 402.74 280.86 401.84 279.54 401.32ZM280.4 410.94C281.46 409.44 283 406.94 284.2 404.64L285.96 406.22C284.9 408.34 283.62 410.62 282.42 412.56L280.4 410.94ZM312.82 398.48L315.38 399.22C312.86 406.42 308.2 410.62 301.04 412.86C300.76 412.26 300 411.1 299.52 410.52C306.44 408.7 310.74 405 312.82 398.48ZM305.1 398.64C307.12 404.56 311.44 408.82 318.56 410.42C317.98 410.98 317.2 412.12 316.82 412.82C309.32 410.86 305.2 406.28 302.7 399.36L305.1 398.64ZM299.88 397.18H318.2V399.54H299.88V397.18ZM307.74 394.02H310.22V398.62H307.74V394.02ZM270.82 421.3C270.54 423.34 270.14 425.68 269.44 428.04C268.24 432.08 266.52 434.56 264.34 434.56C262.1 434.56 260.26 432.1 260.26 428.72C260.26 424.12 264.28 420.16 269.46 420.16C274.4 420.16 277.54 423.6 277.54 427.98C277.54 432.18 274.96 435.16 269.92 435.94L268.4 433.58C269.18 433.48 269.74 433.38 270.28 433.26C272.82 432.64 274.82 430.82 274.82 427.88C274.82 424.74 272.86 422.5 269.4 422.5C265.16 422.5 262.84 425.96 262.84 428.48C262.84 430.5 263.64 431.48 264.4 431.48C265.26 431.48 266.02 430.2 266.86 427.5C267.44 425.62 267.88 423.32 268.08 421.22L270.82 421.3ZM280.22 419.54H297.8V421.7H280.22V419.54ZM287.66 418.02H290.14V420.82H287.66V418.02ZM280.88 423.28H296.26V425.34H283.16V436.76H280.88V423.28ZM295.02 423.28H297.34V434.2C297.34 435.36 297.1 436.04 296.32 436.4C295.52 436.76 294.4 436.82 292.82 436.82C292.72 436.18 292.36 435.12 292.04 434.52C293.08 434.58 294.24 434.58 294.58 434.56C294.92 434.56 295.02 434.46 295.02 434.18V423.28ZM285.92 425.08H288.04C287.88 427.48 287.2 428.84 284.02 429.56C283.84 429.06 283.34 428.28 282.92 427.9C285.4 427.46 285.82 426.68 285.92 425.08ZM289.62 425.08H291.7V426.6C291.7 427.04 291.74 427.08 292.1 427.08C292.28 427.08 292.94 427.08 293.14 427.08C293.46 427.08 293.54 426.94 293.6 425.96C293.98 426.24 294.82 426.52 295.36 426.64C295.16 428.34 294.64 428.8 293.4 428.8C293.04 428.8 292.12 428.8 291.78 428.8C290 428.8 289.62 428.28 289.62 426.64V425.08ZM285.12 429.56H287.24V435.86H285.12V429.56ZM286.44 429.56H293.02V434.78H286.44V433.02H290.86V431.32H286.44V429.56ZM283.8 421.66L286.18 421.26C286.54 421.9 286.92 422.76 287.08 423.34L284.6 423.84C284.48 423.26 284.12 422.34 283.8 421.66ZM291.62 421.24L294.28 421.64C293.8 422.52 293.38 423.24 293.02 423.78L290.64 423.38C290.98 422.76 291.4 421.86 291.62 421.24ZM305.46 421.1V423.8H312.5V421.1H305.46ZM303.14 418.82H314.96V426.08H303.14V418.82ZM300.4 427.76H308.04V436.68H305.64V430.04H302.66V436.8H300.4V427.76ZM309.74 427.76H317.66V436.7H315.24V430.04H312.04V436.8H309.74V427.76ZM301.4 433.5H306.64V435.8H301.4V433.5ZM310.84 433.5H316.44V435.8H310.84V433.5ZM266.8 446.72C267.96 446.84 269.1 446.9 270.32 446.9C272.76 446.9 275.26 446.7 277.34 446.26V448.74C275.24 449.06 272.72 449.22 270.32 449.24C269.14 449.24 268 449.2 266.82 449.12L266.8 446.72ZM274.42 443.36C274.36 443.74 274.32 444.22 274.3 444.64C274.26 445.3 274.22 446.68 274.22 448.12C274.22 451.8 274.54 454.4 274.54 456.3C274.54 458.4 273.5 459.92 270.62 459.92C267.84 459.92 266.12 458.78 266.12 456.68C266.12 454.64 267.84 453.24 270.58 453.24C274.34 453.24 276.76 455.12 278.32 456.56L276.96 458.66C274.66 456.52 272.64 455.18 270.38 455.18C269.24 455.18 268.46 455.64 268.46 456.4C268.46 457.22 269.26 457.58 270.34 457.58C271.56 457.58 271.98 456.94 271.98 455.76C271.98 454.38 271.72 451.02 271.72 448.14C271.72 446.62 271.7 445.28 271.68 444.68C271.68 444.36 271.62 443.74 271.56 443.36H274.42ZM264.66 443.56C264.5 443.96 264.26 445 264.18 445.36C263.88 446.7 263.22 451.1 263.22 453.1C263.22 453.48 263.24 454 263.3 454.4C263.58 453.7 263.92 453.02 264.2 452.34L265.44 453.32C264.88 454.98 264.22 457 264 458.1C263.94 458.38 263.88 458.82 263.9 459.02C263.9 459.24 263.9 459.58 263.92 459.86L261.66 460.02C261.26 458.64 260.86 456.34 260.86 453.64C260.86 450.62 261.46 446.84 261.7 445.3C261.78 444.74 261.86 443.96 261.88 443.34L264.66 443.56ZM292.06 442.88C292 443.22 291.94 444.28 291.92 444.6C291.86 445.92 291.9 450 291.92 451.6L289.42 450.76C289.42 449.52 289.42 445.68 289.34 444.62C289.28 443.82 289.2 443.14 289.16 442.88H292.06ZM280.74 445.38C283.72 445.38 289 445.22 291.5 445.22C293.54 445.22 296.58 445.2 297.7 445.22L297.66 447.58C296.42 447.52 294.38 447.46 291.44 447.46C287.8 447.46 283.82 447.62 280.8 447.78L280.74 445.38ZM291.58 451.3C291.58 454.56 290.38 456.18 288.08 456.18C286.54 456.18 284.62 454.96 284.62 452.52C284.62 450.26 286.46 448.78 288.62 448.78C291.26 448.78 292.64 450.72 292.64 453.2C292.64 455.82 291.1 459.12 286.22 460.5L284.1 458.38C287.5 457.64 290.16 456.3 290.16 452.8C290.16 451.5 289.46 450.88 288.58 450.88C287.8 450.88 287.02 451.42 287.02 452.48C287.02 453.38 287.76 453.96 288.58 453.96C289.52 453.96 290.34 453.16 289.7 450.78L291.58 451.3ZM312.08 447.44C312.62 448.2 313.4 449.68 313.78 450.42L312.12 451.12C311.7 450.28 311.02 448.88 310.5 448.08L312.08 447.44ZM314.5 446.48C315.02 447.24 315.82 448.7 316.2 449.44L314.58 450.14C314.14 449.3 313.44 447.94 312.88 447.18L314.5 446.48ZM313.36 444.6C312.74 445.06 312.08 445.58 311.6 445.96C310.3 447 307.66 449.04 306.34 450.2C305.26 451.1 305.28 451.34 306.38 452.28C307.88 453.54 311.66 456.52 313.7 458.5L311.38 460.66C310.82 460.02 310.22 459.4 309.64 458.8C308.42 457.54 305.48 455.02 303.64 453.48C301.66 451.78 301.82 450.7 303.82 449.04C305.4 447.76 308.12 445.54 309.48 444.22C310.04 443.66 310.7 443 311.02 442.52L313.36 444.6ZM267.94 469.02C270.4 469.36 274.4 469.26 276.54 469V471.58C274.1 471.82 270.46 471.82 267.96 471.58L267.94 469.02ZM269.54 477.56C269.38 478.24 269.3 478.72 269.3 479.24C269.3 480.14 270.08 480.68 272.12 480.68C273.9 480.68 275.38 480.52 277.12 480.14L277.18 482.84C275.88 483.1 274.26 483.24 272 483.24C268.56 483.24 266.9 482 266.9 479.96C266.9 479.16 267.02 478.38 267.26 477.36L269.54 477.56ZM264.86 467.68C264.72 468.1 264.46 469.12 264.38 469.48C264.1 470.8 263.4 474.8 263.4 476.8C263.4 477.2 263.42 477.7 263.48 478.1C263.78 477.42 264.1 476.74 264.4 476.06L265.64 477.04C265.06 478.72 264.4 480.88 264.2 481.94C264.14 482.24 264.08 482.68 264.08 482.88C264.1 483.1 264.1 483.44 264.12 483.72L261.82 483.86C261.42 482.5 261.04 480.06 261.04 477.34C261.04 474.32 261.64 470.96 261.86 469.4C261.94 468.86 262.04 468.1 262.06 467.46L264.86 467.68ZM287.72 466.76C287.64 467.14 287.56 468 287.54 468.5C287.44 470.08 287.38 472.24 287.38 474.1C287.38 476.28 287.5 479.74 287.5 480.9C287.5 483.36 286.62 484.04 285.3 484.04C283.36 484.04 280.6 482.36 280.6 480.24C280.6 478.3 283.1 476.26 285.88 475.28C287.66 474.64 289.68 474.32 291.2 474.32C294.28 474.32 296.72 475.92 296.72 478.68C296.72 481.06 295.48 482.84 292.3 483.62C291.38 483.82 290.48 483.88 289.66 483.96L288.76 481.36C289.64 481.36 290.52 481.36 291.2 481.22C292.82 480.94 294.12 480.12 294.12 478.68C294.12 477.3 292.92 476.52 291.18 476.52C289.48 476.52 287.72 476.88 286.16 477.5C284.36 478.18 283.08 479.26 283.08 480.12C283.08 480.76 284.02 481.3 284.54 481.3C284.9 481.3 285.16 481.14 285.16 480.44C285.16 479.4 285.06 476.62 285.06 474.2C285.06 471.92 285.08 469.44 285.08 468.52C285.08 468.12 285.02 467.12 284.96 466.76H287.72ZM293.42 468.94C294.94 469.68 297.26 470.98 298.34 471.74L297.12 473.78C296.16 472.98 293.56 471.48 292.32 470.88L293.42 468.94ZM281.14 470.04C282.32 470.18 283.18 470.18 283.9 470.18C285.98 470.18 289.1 469.8 291.16 469.2L291.22 471.68C288.96 472.2 285.74 472.56 283.98 472.56C282.66 472.56 281.88 472.54 281.2 472.46L281.14 470.04ZM301.58 466.94H304V472.84C304 476.32 303.68 481.52 301.56 484.8C301.1 484.4 300.04 483.8 299.42 483.56C301.44 480.52 301.58 476 301.58 472.84V466.94ZM303.08 466.94H316.96V473H303.08V470.82H314.54V469.12H303.08V466.94ZM305.82 478.54H316.1V480.44H305.82V478.54ZM305.82 482.06H316.1V484.18H305.82V482.06ZM309.68 472.96H312V483.14H309.68V472.96ZM304.72 474.94H317.26V484.78H314.9V477.04H306.96V484.78H304.72V474.94ZM274.56 491.1C274.48 491.54 274.46 492.02 274.46 492.48C274.42 493.4 274.46 497.18 274.46 498.36C274.46 503.06 274.1 505.98 270.12 508.5L267.8 506.7C268.58 506.36 269.58 505.72 270.14 505.1C271.66 503.5 272 501.7 272 498.34C272 496.84 271.96 493.6 271.86 492.48C271.82 492 271.72 491.42 271.64 491.1H274.56ZM266.66 495.02C267.64 495.16 268.62 495.22 269.7 495.22C272.28 495.22 275.48 495.04 277.44 494.68V497.28C275.54 497.5 272.46 497.66 269.76 497.66C268.88 497.66 267.66 497.6 266.66 497.54V495.02ZM264.6 491.44C264.44 491.94 264.24 492.66 264.14 493.08C263.64 495.3 262.92 499.5 263.46 501.98C263.72 501.36 264.1 500.38 264.42 499.66L265.68 500.46C265.08 502.18 264.56 504.18 264.32 505.32C264.24 505.64 264.18 506.08 264.2 506.3C264.2 506.52 264.22 506.86 264.24 507.14L262 507.36C261.56 506.14 260.86 503.36 260.86 500.88C260.86 497.6 261.26 494.52 261.52 492.88C261.6 492.34 261.62 491.66 261.64 491.16L264.6 491.44ZM284.18 492.72C284.04 493.42 283.94 494.6 283.94 495.16C283.94 496.46 283.94 497.94 284.06 499.4C284.34 502.28 284.94 504.26 286.2 504.26C287.16 504.26 287.94 501.9 288.32 500.32L290.34 502.74C289 506.24 287.76 507.44 286.16 507.44C283.94 507.44 282.04 505.48 281.48 500.12C281.28 498.28 281.26 495.92 281.26 494.7C281.26 494.16 281.24 493.3 281.1 492.68L284.18 492.72ZM294.18 493.16C296.08 495.46 297.62 500.46 297.84 503.52L295.2 504.56C294.9 501.32 293.82 496.48 291.64 494L294.18 493.16ZM308.46 491.04C308.32 491.6 308.14 492.5 308.04 492.94C307.76 494.3 307.26 496.74 306.72 498.78C306 501.58 304.66 505.66 303.56 508.04L300.78 507.1C301.96 505.08 303.48 500.9 304.24 498.1C304.74 496.22 305.2 494.02 305.34 492.84C305.44 492.1 305.46 491.28 305.4 490.8L308.46 491.04ZM303.36 494.04C305.8 494.04 308.62 493.66 311.22 493.04V495.54C308.74 496.12 305.6 496.46 303.34 496.46C302.36 496.46 301.62 496.42 300.92 496.38L300.84 493.88C301.88 494 302.54 494.04 303.36 494.04ZM309.64 497.1C310.76 496.98 312.2 496.9 313.5 496.9C314.64 496.9 315.84 496.96 317 497.08L316.96 499.48C315.94 499.36 314.72 499.22 313.52 499.22C312.14 499.22 310.9 499.28 309.64 499.44V497.1ZM310.72 502.12C310.58 502.7 310.46 503.34 310.46 503.78C310.46 504.66 311.04 505.32 313.2 505.32C314.54 505.32 315.92 505.18 317.34 504.92L317.24 507.46C316.12 507.62 314.78 507.74 313.18 507.74C309.8 507.74 308 506.6 308 504.58C308 503.64 308.18 502.68 308.34 501.9L310.72 502.12ZM266.42 515.14C266.3 515.98 266.2 517.02 266.16 517.82C266.06 519.98 265.92 524.44 265.92 526.92C265.92 528.94 267.12 529.6 268.68 529.6C271.98 529.6 274.06 527.7 275.52 525.52L277.34 527.74C276.04 529.66 273.2 532.32 268.64 532.32C265.36 532.32 263.26 530.88 263.26 527.46C263.26 524.78 263.44 519.54 263.44 517.82C263.44 516.86 263.36 515.9 263.2 515.12L266.42 515.14ZM290.94 514.84C290.88 515.24 290.82 515.74 290.8 516.26C290.76 517.28 290.74 520.12 290.74 521.8C290.74 524 291.06 527.62 291.06 529.2C291.06 530.92 289.76 532.24 287.14 532.24C283.94 532.24 282.26 531.02 282.26 528.9C282.26 526.88 284.12 525.46 287.18 525.46C291.58 525.46 294.86 527.62 296.52 529.02L295.08 531.26C293.18 529.46 290.28 527.52 286.86 527.52C285.46 527.52 284.68 528.06 284.68 528.76C284.68 529.52 285.38 529.98 286.76 529.98C287.82 529.98 288.54 529.68 288.54 528.52C288.54 527.32 288.32 523.74 288.32 521.8C288.32 519.88 288.34 517.34 288.34 516.2C288.34 515.84 288.3 515.22 288.22 514.84H290.94ZM282.64 516.7C284.06 516.94 286.36 517.14 287.58 517.14C290.3 517.14 292.92 517 295.84 516.54L295.82 518.82C293.78 519.1 290.6 519.34 287.6 519.34C286.32 519.34 284 519.16 282.68 519L282.64 516.7ZM282.52 521.02C283.84 521.26 286.28 521.4 287.34 521.4C291.04 521.4 293.62 521.16 296.08 520.84L296.06 523.2C293.3 523.52 291.12 523.64 287.32 523.64C286.14 523.64 283.88 523.54 282.56 523.38L282.52 521.02ZM272.06 538.88C272 539.22 271.94 540.28 271.92 540.6C271.86 541.92 271.9 546 271.92 547.6L269.42 546.76C269.42 545.52 269.42 541.68 269.34 540.62C269.28 539.82 269.2 539.14 269.16 538.88H272.06ZM260.74 541.38C263.72 541.38 269 541.22 271.5 541.22C273.54 541.22 276.58 541.2 277.7 541.22L277.66 543.58C276.42 543.52 274.38 543.46 271.44 543.46C267.8 543.46 263.82 543.62 260.8 543.78L260.74 541.38ZM271.58 547.3C271.58 550.56 270.38 552.18 268.08 552.18C266.54 552.18 264.62 550.96 264.62 548.52C264.62 546.26 266.46 544.78 268.62 544.78C271.26 544.78 272.64 546.72 272.64 549.2C272.64 551.82 271.1 555.12 266.22 556.5L264.1 554.38C267.5 553.64 270.16 552.3 270.16 548.8C270.16 547.5 269.46 546.88 268.58 546.88C267.8 546.88 267.02 547.42 267.02 548.48C267.02 549.38 267.76 549.96 268.58 549.96C269.52 549.96 270.34 549.16 269.7 546.78L271.58 547.3ZM280.868 550.06C282.668 550.06 284.108 551.5 284.108 553.28C284.108 555.08 282.668 556.52 280.868 556.52C279.088 556.52 277.628 555.08 277.628 553.28C277.628 551.5 279.088 550.06 280.868 550.06ZM280.868 555.08C281.868 555.08 282.668 554.28 282.668 553.28C282.668 552.3 281.868 551.5 280.868 551.5C279.888 551.5 279.068 552.3 279.068 553.28C279.068 554.28 279.888 555.08 280.868 555.08Z" fill="#C00A00"/>
</svg>
