<svg width="1570" height="319" viewBox="0 0 1570 319" fill="none" xmlns="http://www.w3.org/2000/svg">
<path d="M226.257 100.525C226.056 101.029 225.72 102.337 225.653 102.806C225.049 106.295 224.278 111.192 221.661 115.251C218.877 119.612 214.315 122.966 208.914 124.845L205.191 121.054C209.686 119.914 214.885 117.163 217.502 112.97C219.213 110.253 220.219 106.496 220.554 102.907C218.441 102.907 206.868 102.907 204.487 102.907C204.487 103.913 204.487 107.134 204.487 108.475C204.487 108.979 204.487 110.186 204.587 111.226H199.656C199.757 110.22 199.824 109.381 199.824 108.475C199.824 107.134 199.824 102.974 199.824 101.398C199.824 100.492 199.79 99.4856 199.69 98.6134C200.73 98.6805 202.239 98.714 203.782 98.714C205.124 98.714 217.435 98.714 219.816 98.714C220.957 98.714 222.097 98.6469 223.003 98.4792L226.257 100.525ZM246.383 122.262C246.551 121.625 246.652 120.719 246.652 119.813C246.652 118.035 246.652 102.974 246.652 100.257C246.652 98.7476 246.417 97.4394 246.417 97.3723H251.381C251.381 97.4394 251.147 98.7811 251.147 100.291C251.147 102.974 251.147 115.754 251.147 117.801C253.897 116.627 257.185 113.977 259.466 110.723L262.015 114.446C259.231 118.069 254.434 121.692 250.643 123.604C249.939 123.973 249.536 124.342 249.201 124.577L246.383 122.262ZM230.852 121.792C233.838 119.713 235.649 116.627 236.555 113.742C237.528 110.891 237.561 104.517 237.561 100.492C237.561 99.1166 237.427 98.2444 237.226 97.4058H242.157C242.157 97.54 241.922 99.0495 241.922 100.425C241.922 104.417 241.821 111.494 240.949 114.882C239.909 118.639 237.83 121.96 234.945 124.509L230.852 121.792ZM206.332 137.467C208.546 138.674 212.235 141.022 213.98 142.263L211.497 145.953C209.619 144.645 206.13 142.398 203.916 141.156L206.332 137.467ZM200.126 161.283C203.883 160.646 207.875 159.505 211.531 157.492C217.233 154.306 221.93 149.71 224.58 144.913L227.163 149.475C224.076 154.138 219.313 158.365 213.845 161.551C210.424 163.463 205.594 165.141 202.642 165.677L200.126 161.283ZM201.166 145.115C203.413 146.322 207.103 148.603 208.847 149.844L206.365 153.601C204.487 152.26 200.998 150.012 198.751 148.805L201.166 145.115ZM242.962 142.699C243.062 143.505 243.297 144.377 243.499 145.249C244.639 149.274 247.792 160.813 248.631 163.597C248.798 164.201 249.268 165.677 249.503 166.348L244.974 167.489C244.84 166.583 244.639 165.476 244.371 164.537C243.532 161.618 240.48 149.643 239.406 146.155C239.171 145.316 238.802 144.477 238.433 143.773L242.962 142.699ZM259.063 147.899C257.621 150.817 254.266 155.882 251.918 158.365L248.195 156.52C249.939 154.977 252.254 152.159 253.159 150.515C251.415 150.817 237.762 153.668 235.012 154.272L233.972 150.28C235.012 150.18 235.951 150.079 237.058 149.878C238.869 149.61 252.287 147.06 254.669 146.523C255.239 146.389 255.91 146.188 256.346 145.987L259.063 147.899ZM293.345 141.525C293.144 142.029 292.808 143.337 292.741 143.806C292.138 147.295 291.366 152.192 288.75 156.251C285.965 160.612 281.403 163.966 276.003 165.845L272.279 162.054C276.774 160.914 281.974 158.163 284.59 153.97C286.301 151.253 287.307 147.496 287.643 143.907C285.529 143.907 273.957 143.907 271.575 143.907C271.575 144.913 271.575 148.134 271.575 149.475C271.575 149.979 271.575 151.186 271.676 152.226H266.745C266.845 151.22 266.912 150.381 266.912 149.475C266.912 148.134 266.912 143.974 266.912 142.398C266.912 141.492 266.879 140.486 266.778 139.613C267.818 139.68 269.328 139.714 270.871 139.714C272.212 139.714 284.523 139.714 286.905 139.714C288.045 139.714 289.186 139.647 290.091 139.479L293.345 141.525ZM212.638 180.345C209.854 184.303 204.721 188.832 199.22 191.884C198.684 190.945 197.543 189.469 196.671 188.63C202.44 185.712 207.875 180.546 210.357 176.387H214.55C218.139 181.553 223.607 185.947 228.94 188.228C227.934 189.268 227.028 190.61 226.29 191.851C221.125 188.999 215.489 184.337 212.638 180.345ZM201.233 196.077H224.177V199.566H201.233V196.077ZM202.944 188.664H222.634V192.186H202.944V188.664ZM198.549 203.625H227.196V207.214H198.549V203.625ZM210.525 190.241H214.785V205.637H210.525V190.241ZM230.718 184.538H240.043V188.329H230.718V184.538ZM233.737 176.991H237.461V199.465H233.737V176.991ZM230.416 199.968C232.764 198.929 236.354 197.117 239.775 195.306L240.949 198.861C237.964 200.639 234.676 202.518 231.926 203.994L230.416 199.968ZM240.547 181.15H261.713V184.773H240.547V181.15ZM239.507 200.639C242.459 200.103 246.886 199.096 251.147 198.123L251.516 201.478C247.692 202.518 243.633 203.591 240.446 204.396L239.507 200.639ZM251.247 176.555H255.071C254.836 190.039 256.681 204.228 258.895 204.228C259.331 204.228 259.633 203.021 259.7 200.035C260.472 200.941 261.612 201.78 262.417 202.216C261.881 206.711 260.908 208.019 258.359 208.019C252.522 208.019 251.314 191.582 251.247 176.555ZM255.709 178.467L257.956 176.521C259.264 177.46 260.908 178.836 261.679 179.808L259.298 181.989C258.56 180.982 257.017 179.506 255.709 178.467ZM257.654 186.987L261.243 187.658C259.13 196.614 255.239 203.558 249.302 207.818C248.731 207.147 247.222 205.839 246.417 205.268C252.321 201.545 255.91 195.172 257.654 186.987ZM244.471 190.106V194.199H247.054V190.106H244.471ZM241.519 187.02H250.174V197.318H241.519V187.02ZM278.083 181.553C282.208 182.123 288.917 181.955 292.507 181.519V185.846C288.414 186.249 282.309 186.249 278.116 185.846L278.083 181.553ZM280.766 195.876C280.498 197.016 280.364 197.822 280.364 198.694C280.364 200.203 281.672 201.109 285.093 201.109C288.079 201.109 290.561 200.841 293.479 200.203L293.58 204.732C291.4 205.168 288.682 205.403 284.892 205.403C279.122 205.403 276.338 203.323 276.338 199.901C276.338 198.56 276.539 197.251 276.942 195.541L280.766 195.876ZM272.917 179.305C272.682 180.01 272.246 181.72 272.112 182.324C271.642 184.538 270.468 191.247 270.468 194.601C270.468 195.272 270.502 196.111 270.602 196.782C271.105 195.641 271.642 194.501 272.145 193.36L274.225 195.004C273.252 197.822 272.145 201.444 271.81 203.222C271.709 203.725 271.609 204.463 271.609 204.799C271.642 205.168 271.642 205.738 271.676 206.208L267.818 206.442C267.147 204.161 266.51 200.069 266.51 195.507C266.51 190.442 267.516 184.806 267.885 182.19C268.019 181.284 268.187 180.01 268.221 178.936L272.917 179.305ZM210.625 218.762C210.491 219.399 210.357 220.842 210.323 221.68C210.156 224.33 210.055 227.953 210.055 231.073C210.055 234.729 210.256 240.532 210.256 242.478C210.256 246.604 208.78 247.744 206.566 247.744C203.313 247.744 198.684 244.927 198.684 241.371C198.684 238.117 202.877 234.696 207.539 233.052C210.525 231.979 213.913 231.442 216.462 231.442C221.628 231.442 225.72 234.125 225.72 238.754C225.72 242.746 223.64 245.732 218.307 247.04C216.764 247.375 215.254 247.476 213.879 247.61L212.37 243.249C213.845 243.249 215.321 243.249 216.462 243.015C219.179 242.545 221.359 241.17 221.359 238.754C221.359 236.44 219.347 235.132 216.428 235.132C213.577 235.132 210.625 235.735 208.009 236.775C204.99 237.916 202.843 239.727 202.843 241.17C202.843 242.243 204.42 243.149 205.292 243.149C205.896 243.149 206.332 242.88 206.332 241.706C206.332 239.962 206.164 235.299 206.164 231.241C206.164 227.417 206.197 223.257 206.197 221.714C206.197 221.043 206.097 219.366 205.996 218.762H210.625ZM220.185 222.418C222.735 223.66 226.626 225.84 228.437 227.115L226.391 230.536C224.781 229.194 220.42 226.679 218.34 225.672L220.185 222.418ZM199.589 224.263C201.568 224.498 203.011 224.498 204.218 224.498C207.707 224.498 212.94 223.861 216.395 222.855L216.495 227.014C212.705 227.886 207.304 228.49 204.352 228.49C202.139 228.49 200.83 228.456 199.69 228.322L199.589 224.263ZM233.871 219.064H237.93V228.96C237.93 234.796 237.393 243.518 233.838 249.019C233.066 248.348 231.288 247.342 230.249 246.939C233.637 241.841 233.871 234.26 233.871 228.96V219.064ZM236.387 219.064H259.667V229.228H236.387V225.572H255.608V222.72H236.387V219.064ZM240.983 238.52H258.224V241.706H240.983V238.52ZM240.983 244.423H258.224V247.979H240.983V244.423ZM247.457 229.161H251.348V246.235H247.457V229.161ZM239.138 232.482H260.17V248.985H256.212V236.004H242.895V248.985H239.138V232.482ZM289.186 219.332C289.051 220.07 289.018 220.875 289.018 221.647C288.951 223.19 289.018 229.53 289.018 231.509C289.018 239.392 288.414 244.289 281.739 248.516L277.848 245.497C279.156 244.927 280.833 243.853 281.772 242.813C284.322 240.13 284.892 237.111 284.892 231.475C284.892 228.96 284.825 223.525 284.657 221.647C284.59 220.842 284.422 219.869 284.288 219.332H289.186ZM275.936 225.907C277.579 226.142 279.223 226.242 281.034 226.242C285.362 226.242 290.729 225.941 294.016 225.337V229.698C290.829 230.067 285.664 230.335 281.135 230.335C279.659 230.335 277.613 230.234 275.936 230.134V225.907ZM272.481 219.903C272.212 220.741 271.877 221.949 271.709 222.653C270.871 226.377 269.663 233.421 270.569 237.58C271.005 236.541 271.642 234.897 272.179 233.689L274.292 235.031C273.286 237.916 272.414 241.27 272.011 243.182C271.877 243.719 271.776 244.457 271.81 244.826C271.81 245.195 271.843 245.765 271.877 246.235L268.12 246.604C267.382 244.558 266.208 239.895 266.208 235.735C266.208 230.234 266.879 225.068 267.315 222.318C267.449 221.412 267.483 220.272 267.516 219.433L272.481 219.903ZM208.445 260.399C208.244 261.808 208.076 263.553 208.009 264.894C207.841 268.517 207.606 275.998 207.606 280.157C207.606 283.545 209.619 284.652 212.235 284.652C217.77 284.652 221.259 281.465 223.707 277.809L226.76 281.532C224.58 284.753 219.816 289.214 212.168 289.214C206.667 289.214 203.145 286.799 203.145 281.063C203.145 276.568 203.447 267.779 203.447 264.894C203.447 263.284 203.313 261.674 203.044 260.366L208.445 260.399ZM249.57 259.896C249.469 260.567 249.369 261.406 249.335 262.278C249.268 263.989 249.235 268.752 249.235 271.57C249.235 275.26 249.771 281.331 249.771 283.981C249.771 286.866 247.591 289.08 243.197 289.08C237.83 289.08 235.012 287.034 235.012 283.478C235.012 280.09 238.131 277.708 243.264 277.708C250.643 277.708 256.145 281.331 258.929 283.679L256.514 287.436C253.327 284.417 248.463 281.163 242.727 281.163C240.379 281.163 239.071 282.069 239.071 283.243C239.071 284.518 240.245 285.289 242.559 285.289C244.337 285.289 245.545 284.786 245.545 282.841C245.545 280.828 245.176 274.823 245.176 271.57C245.176 268.349 245.209 264.089 245.209 262.177C245.209 261.574 245.142 260.534 245.008 259.896H249.57ZM235.649 263.016C238.031 263.418 241.888 263.754 243.935 263.754C248.497 263.754 252.891 263.519 257.788 262.748L257.755 266.572C254.333 267.041 249 267.444 243.968 267.444C241.821 267.444 237.93 267.142 235.716 266.874L235.649 263.016ZM235.448 270.261C237.662 270.664 241.754 270.899 243.532 270.899C249.738 270.899 254.065 270.496 258.191 269.96L258.157 273.918C253.528 274.454 249.872 274.656 243.499 274.656C241.519 274.656 237.729 274.488 235.515 274.22L235.448 270.261ZM284.993 259.963C284.892 260.534 284.791 262.312 284.758 262.848C284.657 265.062 284.724 271.905 284.758 274.589L280.565 273.18C280.565 271.1 280.565 264.66 280.431 262.882C280.33 261.54 280.196 260.399 280.129 259.963H284.993ZM266.007 264.156C271.005 264.156 279.86 263.888 284.053 263.888C287.475 263.888 292.574 263.855 294.452 263.888L294.385 267.846C292.305 267.746 288.884 267.645 283.953 267.645C277.848 267.645 271.172 267.913 266.107 268.182L266.007 264.156ZM284.188 274.086C284.188 279.553 282.175 282.27 278.317 282.27C275.734 282.27 272.514 280.224 272.514 276.132C272.514 272.341 275.6 269.859 279.223 269.859C283.651 269.859 285.965 273.113 285.965 277.272C285.965 281.666 283.383 287.201 275.198 289.516L271.642 285.96C277.345 284.719 281.806 282.472 281.806 276.601C281.806 274.421 280.632 273.381 279.156 273.381C277.848 273.381 276.539 274.287 276.539 276.065C276.539 277.574 277.781 278.547 279.156 278.547C280.733 278.547 282.108 277.205 281.034 273.213L284.188 274.086Z" fill="#C00A00"/>
<path d="M1211.46 28.5386C1211.46 25.788 1211.46 14.4501 1211.46 10.3912C1211.46 9.25074 1211.36 7.53999 1211.19 6.53367H1216.19C1216.02 7.53999 1215.89 9.25074 1215.89 10.3912C1215.89 14.4165 1215.89 23.6412 1215.89 27.3646C1215.89 29.4779 1216.49 30.1823 1220.15 30.1823C1223.67 30.1823 1227.43 29.7462 1230.75 29.0753L1230.58 33.6373C1227.83 34.0399 1223.8 34.3418 1220.18 34.3418C1212.57 34.3418 1211.46 32.5304 1211.46 28.5386ZM1232.56 13.8127C1232.26 14.2824 1231.79 15.0539 1231.49 15.6241C1230.01 18.4418 1226.96 23.0374 1224.54 25.419L1220.85 23.2387C1223.07 21.2595 1225.25 18.1735 1226.19 16.4292C1224.14 16.8317 1208.64 19.9178 1204.38 20.857L1203.58 16.4627C1208.14 15.926 1223.9 12.84 1226.96 12.102C1227.9 11.8672 1228.73 11.6324 1229.34 11.2969L1232.56 13.8127ZM1252.38 32.262C1252.55 31.6247 1252.65 30.719 1252.65 29.8133C1252.65 28.0355 1252.65 12.9741 1252.65 10.2571C1252.65 8.74758 1252.42 7.43936 1252.42 7.37227H1257.38C1257.38 7.43936 1257.15 8.78112 1257.15 10.2906C1257.15 12.9741 1257.15 25.7545 1257.15 27.8007C1259.9 26.6266 1263.18 23.9766 1265.47 20.7228L1268.01 24.4462C1265.23 28.069 1260.43 31.6918 1256.64 33.6038C1255.94 33.9728 1255.54 34.3418 1255.2 34.5766L1252.38 32.262ZM1236.85 31.7924C1239.84 29.7127 1241.65 26.6266 1242.55 23.7418C1243.53 20.8906 1243.56 14.5172 1243.56 10.4919C1243.56 9.11657 1243.43 8.24442 1243.23 7.40582H1248.16C1248.16 7.53999 1247.92 9.04948 1247.92 10.4248C1247.92 14.4165 1247.82 21.4944 1246.95 24.8823C1245.91 28.6393 1243.83 31.9601 1240.94 34.5095L1236.85 31.7924ZM1298.91 10.6931C1298.57 11.3305 1298.34 12.3033 1298.17 13.0077C1297.4 16.295 1295.92 21.4944 1293.11 25.2513C1290.09 29.2431 1285.63 32.5975 1279.62 34.5095L1275.96 30.4842C1282.64 28.9412 1286.4 26.0228 1289.11 22.6349C1291.36 19.8171 1292.6 16.0267 1293.07 13.1419C1291.03 13.1419 1279.96 13.1419 1277.44 13.1419C1275.9 13.1419 1274.32 13.2425 1273.45 13.276V8.54632C1274.46 8.68049 1276.33 8.81467 1277.44 8.81467C1279.96 8.81467 1291.09 8.81467 1292.97 8.81467C1293.61 8.81467 1294.68 8.78112 1295.59 8.57986L1298.91 10.6931ZM1319.4 15.9931C1321.75 15.9931 1323.66 17.9051 1323.66 20.2532C1323.66 22.6349 1321.75 24.5469 1319.4 24.5469C1317.02 24.5469 1315.11 22.6349 1315.11 20.2532C1315.11 17.9051 1317.02 15.9931 1319.4 15.9931ZM1342.45 7.70771C1343.52 7.84189 1344.93 7.94252 1346.04 7.94252C1348.15 7.94252 1355.06 7.94252 1357.04 7.94252C1358.18 7.94252 1359.49 7.84189 1360.63 7.70771V12.0349C1359.49 11.9678 1358.18 11.9007 1357.04 11.9007C1355.06 11.9007 1348.15 11.9007 1346.07 11.9007C1344.9 11.9007 1343.49 11.9678 1342.45 12.0349V7.70771ZM1338.59 16.2615C1339.56 16.3956 1340.74 16.4963 1341.78 16.4963C1343.89 16.4963 1361.77 16.4963 1363.75 16.4963C1364.45 16.4963 1365.93 16.4292 1366.84 16.2615V20.6558C1366 20.5887 1364.69 20.5551 1363.75 20.5551C1361.77 20.5551 1343.89 20.5551 1341.78 20.5551C1340.81 20.5551 1339.5 20.5887 1338.59 20.6558V16.2615ZM1355.73 18.6096C1355.73 23.0038 1354.96 26.3583 1353.55 29.176C1352.38 31.4905 1349.8 34.107 1346.81 35.6164L1342.85 32.7652C1345.23 31.826 1347.62 29.9139 1348.96 27.9348C1350.63 25.419 1351.07 22.2323 1351.07 18.6431L1355.73 18.6096ZM1362.64 5.39317C1363.48 6.60075 1364.69 8.74758 1365.29 9.98871L1362.61 11.1292C1361.94 9.75391 1360.9 7.7748 1359.99 6.46658L1362.64 5.39317ZM1366.6 3.88368C1367.47 5.12481 1368.71 7.27164 1369.32 8.44568L1366.67 9.58618C1365.96 8.17733 1364.89 6.23177 1363.95 4.95709L1366.6 3.88368ZM1228.9 47.9697C1228.84 48.909 1228.8 49.9824 1228.8 51.3577C1228.8 53.0685 1228.8 56.3222 1228.8 57.9659C1228.8 65.2114 1227.39 68.2975 1224.88 71.0481C1222.66 73.4968 1219.21 75.107 1216.76 75.912L1213.24 72.1886C1216.59 71.4171 1219.28 70.1424 1221.32 67.9621C1223.6 65.4462 1224.07 62.9304 1224.07 57.6975C1224.07 56.0203 1224.07 52.8001 1224.07 51.3577C1224.07 49.9824 1223.97 48.909 1223.84 47.9697H1228.9ZM1213.37 48.2716C1213.3 49.0432 1213.24 49.7811 1213.24 50.821C1213.24 52.2969 1213.24 60.2804 1213.24 62.1589C1213.24 62.9975 1213.3 64.3057 1213.37 65.0773H1208.47C1208.54 64.4735 1208.64 63.1652 1208.64 62.1254C1208.64 60.2134 1208.64 52.2969 1208.64 50.821C1208.64 50.2172 1208.61 49.0432 1208.51 48.2716H1213.37ZM1261.68 47.2653C1262.51 48.4729 1263.72 50.6197 1264.36 51.8609L1261.64 53.0014C1260.97 51.6261 1259.93 49.6469 1259.03 48.3387L1261.68 47.2653ZM1265.67 45.7558C1266.54 46.997 1267.78 49.1438 1268.35 50.3178L1265.7 51.4583C1265 50.0495 1263.92 48.1039 1262.98 46.8292L1265.67 45.7558ZM1241.98 63.5678C1243.46 59.8444 1244.74 55.1146 1245.17 50.821L1250.04 51.8609C1249.77 52.8001 1249.36 54.4438 1249.23 55.2153C1248.76 57.5634 1247.55 62.1589 1246.38 65.2785C1245.17 68.5323 1243.19 72.3563 1241.45 74.8721L1236.75 72.893C1238.83 70.1424 1240.81 66.5532 1241.98 63.5678ZM1258.52 62.8969C1257.25 59.3748 1255.1 54.4102 1253.66 51.8609L1258.12 50.4185C1259.53 53.0014 1261.81 58.1672 1263.08 61.3874C1264.29 64.4399 1266.07 69.7734 1266.98 73.0943L1262.01 74.7044C1261.1 70.7462 1259.86 66.5197 1258.52 62.8969ZM1295.99 47.9697C1295.92 48.909 1295.89 49.9824 1295.89 51.3577C1295.89 53.0685 1295.89 56.3222 1295.89 57.9659C1295.89 65.2114 1294.48 68.2975 1291.97 71.0481C1289.75 73.4968 1286.3 75.107 1283.85 75.912L1280.33 72.1886C1283.68 71.4171 1286.36 70.1424 1288.41 67.9621C1290.69 65.4462 1291.16 62.9304 1291.16 57.6975C1291.16 56.0203 1291.16 52.8001 1291.16 51.3577C1291.16 49.9824 1291.06 48.909 1290.93 47.9697H1295.99ZM1280.46 48.2716C1280.39 49.0432 1280.33 49.7811 1280.33 50.821C1280.33 52.2969 1280.33 60.2804 1280.33 62.1589C1280.33 62.9975 1280.39 64.3057 1280.46 65.0773H1275.56C1275.63 64.4735 1275.73 63.1652 1275.73 62.1254C1275.73 60.2134 1275.73 52.2969 1275.73 50.821C1275.73 50.2172 1275.7 49.0432 1275.6 48.2716H1280.46ZM1305.68 58.4691C1306.93 58.5697 1309.34 58.7039 1311.09 58.7039C1315.04 58.7039 1326.11 58.7039 1329.1 58.7039C1330.68 58.7039 1332.15 58.5361 1333.06 58.4691V63.769C1332.25 63.7355 1330.54 63.5678 1329.13 63.5678C1326.08 63.5678 1315.04 63.5678 1311.09 63.5678C1309.21 63.5678 1306.96 63.6684 1305.68 63.769V58.4691ZM1344.4 76.3145C1342.36 73.8323 1339.51 70.9475 1337.16 68.9348L1340.68 65.9159C1343.06 67.8614 1346.28 71.1487 1347.99 73.2285L1344.4 76.3145ZM1213.3 88.2318H1233.93V91.7539H1213.3V88.2318ZM1216.09 107.788C1219.34 111.78 1226.15 113.625 1235.04 114.027C1234.17 114.966 1233.13 116.677 1232.63 117.784C1223.33 117.013 1216.66 114.497 1212.57 108.996L1216.09 107.788ZM1217.5 101.918V104.4H1229.24V101.918H1217.5ZM1217.5 96.7184V99.1336H1229.24V96.7184H1217.5ZM1213.77 93.7666H1233.13V107.318H1213.77V93.7666ZM1221.52 89.2716H1225.51V103.125C1225.51 109.465 1223.3 115.201 1213.61 118.053C1213.1 117.147 1211.93 115.57 1211.09 114.765C1220.68 112.853 1221.52 108.123 1221.52 103.058V89.2716ZM1209.85 86.6552L1213.64 87.7957C1211.66 93.4982 1208.41 99.5697 1204.95 103.427C1204.58 102.454 1203.48 100.241 1202.77 99.2678C1205.62 96.1817 1208.27 91.4185 1209.85 86.6552ZM1206.7 95.9134L1210.52 92.0893L1210.55 92.1229V117.985H1206.7V95.9134ZM1236.99 96.4836H1253.09V100.207H1236.99V96.4836ZM1254.7 90.5799H1258.62V109.432H1254.7V90.5799ZM1243.39 89.8419H1247.35V117.985H1243.39V89.8419ZM1262.65 87.1584H1266.64V113.088C1266.64 115.47 1266.17 116.577 1264.79 117.247C1263.39 117.885 1261.17 118.019 1258.09 118.019C1257.88 116.845 1257.25 115 1256.68 113.859C1258.89 113.927 1261.04 113.927 1261.74 113.927C1262.38 113.927 1262.65 113.725 1262.65 113.088V87.1584ZM1250.14 86.6552L1253.02 89.7413C1248.76 91.4185 1242.86 92.559 1237.79 93.2634C1237.62 92.3577 1237.05 90.9488 1236.58 90.1102C1241.48 89.3723 1246.88 88.1311 1250.14 86.6552ZM1243.36 98.2615L1246.08 99.4355C1244.4 104.467 1241.45 110.472 1238.29 113.826C1237.89 112.618 1236.89 110.941 1236.22 109.868C1239.1 107.084 1242.02 102.186 1243.36 98.2615ZM1246.75 101.649C1248.06 102.488 1252.22 105.977 1253.19 106.849L1250.91 110.304C1249.43 108.492 1246.31 105.239 1244.67 103.729L1246.75 101.649ZM1271.84 93.0286C1273.28 93.1963 1275.09 93.2634 1276.3 93.2634C1280.46 93.2634 1284.99 92.559 1288.24 91.5191L1288.34 95.4102C1285.46 96.2153 1280.63 97.0874 1276.33 97.0539C1274.99 97.0539 1273.58 97.0203 1272.14 96.9532L1271.84 93.0286ZM1284.89 87.997C1284.45 89.7748 1283.65 93.0621 1282.74 95.9134C1281.2 100.744 1278.18 106.983 1275.33 110.941L1271.27 108.861C1274.29 105.172 1277.31 99.3013 1278.61 95.6786C1279.42 93.2634 1280.16 90.1438 1280.26 87.5609L1284.89 87.997ZM1292.77 98.4627C1292.67 99.8716 1292.7 101.28 1292.74 102.756C1292.8 104.735 1293.11 109.734 1293.11 111.612C1293.11 114.732 1291.43 117.18 1286.63 117.18C1282.47 117.18 1279.19 115.302 1279.19 111.612C1279.19 108.358 1281.94 105.809 1286.6 105.809C1292.47 105.809 1297.1 108.761 1299.88 111.277L1297.67 114.899C1295.25 112.652 1291.43 109.197 1286.36 109.197C1284.42 109.197 1283.14 110.035 1283.14 111.21C1283.14 112.451 1284.22 113.323 1286.06 113.323C1288.34 113.323 1289.08 112.048 1289.08 110.17C1289.08 108.157 1288.71 101.985 1288.54 98.4627H1292.77ZM1298.54 100.241C1296.59 98.664 1292.77 96.4836 1290.46 95.4438L1292.64 92.1564C1295.05 93.1963 1299.18 95.4438 1300.92 96.6849L1298.54 100.241ZM1304.18 91.8881H1334.6V95.7457H1304.18V91.8881ZM1315.38 100.106H1328.23V103.93H1315.38V100.106ZM1326.75 100.106H1330.91C1330.91 100.106 1330.88 101.314 1330.78 101.851C1330.17 111.042 1329.47 114.832 1328.13 116.308C1327.12 117.382 1326.05 117.717 1324.5 117.885C1323.23 117.985 1320.98 117.952 1318.73 117.885C1318.67 116.711 1318.06 115.034 1317.29 113.927C1319.61 114.128 1321.99 114.128 1322.96 114.128C1323.7 114.128 1324.17 114.094 1324.6 113.725C1325.61 112.853 1326.25 109.029 1326.72 100.744L1326.75 100.106ZM1313.87 94.1691H1318.4C1317.9 103.159 1316.99 112.954 1306.46 118.254C1305.85 117.18 1304.65 115.704 1303.57 114.866C1313.33 110.337 1313.53 101.817 1313.87 94.1691ZM1317.12 86.3533H1321.28V93.3976H1317.12V86.3533ZM1346.54 99.9722H1368.31V103.796H1346.54V99.9722ZM1348.22 91.3514H1366.7V95.1754H1348.22V91.3514ZM1355.2 86.521H1359.39V102.756H1355.2V86.521ZM1346.54 112.618C1351.04 112.451 1358.11 112.048 1364.72 111.679V115.302C1358.45 115.839 1351.81 116.342 1347.08 116.677L1346.54 112.618ZM1359.39 107.989L1362.88 106.144C1365.36 109.13 1368.08 113.088 1369.12 115.939L1365.29 118.053C1364.39 115.302 1361.84 111.075 1359.39 107.989ZM1352.61 102.656L1357.07 103.83C1355.6 107.721 1353.69 112.015 1352.14 114.799L1348.55 113.658C1350.06 110.706 1351.74 106.111 1352.61 102.656ZM1339.03 89.6071L1341.24 86.6552C1343.42 87.4603 1346.27 88.9027 1347.68 90.0767L1345.33 93.364C1344.03 92.1564 1341.24 90.5463 1339.03 89.6071ZM1337.12 98.7646L1339.2 95.7121C1341.38 96.4501 1344.26 97.7583 1345.74 98.8653L1343.49 102.22C1342.15 101.113 1339.33 99.6032 1337.12 98.7646ZM1338.06 114.966C1339.73 112.451 1342.15 108.258 1343.99 104.4L1347.04 106.949C1345.4 110.505 1343.42 114.329 1341.54 117.583L1338.06 114.966ZM1218.3 129.098C1218.03 130.339 1217.6 132.318 1216.66 134.733C1215.95 136.377 1214.98 138.289 1214.04 139.63C1214.95 139.228 1216.73 138.993 1217.87 138.993C1220.65 138.993 1222.76 140.637 1222.76 143.756C1222.76 145.568 1222.86 149.224 1222.9 151.337H1218.87C1219.01 149.761 1219.07 146.91 1219.04 145.098C1219.04 142.951 1217.7 142.247 1216.29 142.247C1214.44 142.247 1212.33 143.354 1211.06 144.561C1210.05 145.568 1209.11 146.775 1207.97 148.251L1204.38 145.568C1208.68 141.61 1211.26 137.987 1212.67 134.297C1213.34 132.486 1213.77 130.439 1213.87 128.729L1218.3 129.098ZM1205.66 132.217C1207.37 132.452 1209.85 132.586 1211.56 132.586C1215.99 132.586 1222.06 132.351 1226.92 131.479L1226.89 135.37C1222.16 136.041 1215.42 136.343 1211.33 136.343C1209.95 136.343 1207.5 136.276 1205.66 136.108V132.217ZM1232.22 141.744C1231.18 142.046 1229.37 142.717 1228.23 143.153C1226.05 143.991 1223.03 145.199 1219.88 146.809C1216.83 148.385 1215.18 149.828 1215.18 151.673C1215.18 153.518 1216.79 154.021 1220.05 154.021C1222.9 154.021 1226.65 153.652 1229.61 153.048L1229.47 157.375C1227.23 157.677 1223.13 157.979 1219.95 157.979C1214.71 157.979 1210.79 156.671 1210.79 152.344C1210.79 147.681 1215.59 144.93 1219.61 142.918C1222.7 141.308 1224.81 140.503 1226.82 139.563C1228.13 138.993 1229.3 138.456 1230.58 137.819L1232.22 141.744ZM1244 140.603V152.947H1240.24V144.327H1236.75V140.603H1244ZM1244 151.404C1245.31 153.685 1247.75 154.658 1251.21 154.826C1255.37 154.994 1263.62 154.893 1268.38 154.524C1267.95 155.396 1267.34 157.174 1267.18 158.281C1262.88 158.482 1255.44 158.549 1251.24 158.382C1247.15 158.214 1244.4 157.208 1242.39 154.591C1241.11 155.933 1239.77 157.208 1238.19 158.717L1236.28 154.859C1237.62 153.92 1239.23 152.646 1240.64 151.404H1244ZM1236.55 130.305L1239.7 128.293C1241.48 129.903 1243.56 132.184 1244.47 133.827L1241.05 136.075C1240.27 134.465 1238.26 132.016 1236.55 130.305ZM1246.04 141.241H1266.61V144.159H1246.04V141.241ZM1245.04 146.406H1267.65V149.392H1245.04V146.406ZM1250.5 139.463H1254.3V147.849H1250.5V139.463ZM1258.19 139.463H1262.01V147.849H1258.19V139.463ZM1246.95 132.486H1251.85V131.077H1245.47V128.561H1255.23V135.035H1246.95V132.486ZM1245.94 132.486H1249.26V135.739C1249.26 136.444 1249.4 136.578 1250.27 136.578C1250.64 136.578 1252.35 136.578 1252.85 136.578C1253.52 136.578 1253.66 136.377 1253.79 135.27C1254.4 135.706 1255.67 136.142 1256.58 136.31C1256.24 138.591 1255.34 139.228 1253.29 139.228C1252.65 139.228 1250.4 139.228 1249.77 139.228C1246.78 139.228 1245.94 138.456 1245.94 135.773V132.486ZM1257.99 132.486H1262.92V131.077H1256.38V128.561H1266.34V135.035H1257.99V132.486ZM1256.98 132.486H1260.3V135.739C1260.3 136.444 1260.47 136.578 1261.34 136.578C1261.74 136.578 1263.52 136.578 1264.02 136.578C1264.73 136.578 1264.86 136.377 1265 135.236C1265.6 135.672 1266.87 136.075 1267.78 136.276C1267.44 138.591 1266.54 139.228 1264.46 139.228C1263.82 139.228 1261.47 139.228 1260.84 139.228C1257.82 139.228 1256.98 138.456 1256.98 135.739V132.486ZM1257.62 150.801L1260.57 149.157C1262.98 150.264 1265.94 151.874 1267.61 153.015L1263.45 154.524C1262.21 153.451 1259.83 151.941 1257.62 150.801ZM1251.75 149.157L1255.27 150.398C1253.52 152.008 1250.71 153.551 1248.39 154.491C1247.75 153.82 1246.31 152.612 1245.47 152.075C1247.82 151.371 1250.3 150.297 1251.75 149.157ZM1288.44 131.11C1288.07 131.546 1287.74 132.117 1287.37 132.687C1285.69 135.068 1283.34 139.362 1281.7 142.348C1282.94 141.61 1284.25 141.308 1285.52 141.308C1288.04 141.308 1289.55 142.884 1289.68 145.702C1289.75 147.178 1289.68 149.861 1289.85 151.27C1289.99 152.578 1290.89 153.115 1292 153.115C1294.92 153.115 1296.73 149.325 1297.67 145.165L1301.32 148.117C1299.55 153.887 1296.46 157.711 1291.29 157.711C1287.57 157.711 1285.86 155.463 1285.69 153.048C1285.59 151.237 1285.59 148.52 1285.49 147.144C1285.39 145.97 1284.75 145.266 1283.55 145.266C1281.26 145.266 1279.35 147.614 1278.18 150.331C1277.27 152.277 1276.13 156.034 1275.63 157.811L1270.9 156.201C1273.35 149.492 1280.22 135.806 1282.04 132.586C1282.44 131.714 1283.08 130.607 1283.68 129.198L1288.44 131.11ZM1303.28 133.022C1304.58 132.989 1305.93 132.922 1306.56 132.855C1309.35 132.586 1314.88 132.117 1321.02 131.58C1324.51 131.312 1328.17 131.077 1330.55 130.976L1330.58 135.303C1328.77 135.303 1325.89 135.337 1324.07 135.739C1320.05 136.813 1317 141.173 1317 145.165C1317 150.666 1322.16 152.679 1327.83 152.947L1326.25 157.543C1319.24 157.107 1312.6 153.316 1312.6 146.037C1312.6 141.241 1315.32 137.417 1317.57 135.706C1314.45 136.041 1307.57 136.779 1303.71 137.618L1303.28 133.022ZM1325.78 138.591C1326.59 139.765 1327.8 141.811 1328.43 143.153L1325.92 144.26C1325.05 142.448 1324.34 141.106 1323.3 139.63L1325.78 138.591ZM1329.51 137.048C1330.38 138.222 1331.65 140.201 1332.36 141.509L1329.84 142.717C1328.94 140.905 1328.17 139.63 1327.09 138.155L1329.51 137.048ZM1339.64 129.534H1363.05V158.583H1358.72V133.593H1343.8V158.616H1339.64V129.534ZM1342.49 140.805H1360.54V144.796H1342.49V140.805ZM1342.46 152.377H1360.54V156.436H1342.46V152.377ZM1203.95 175.029H1233.63V179.121H1203.95V175.029ZM1210.86 190.258H1226.42V194.35H1210.86V190.258ZM1216.59 168.521H1220.89V200.019H1216.59V168.521ZM1215.38 176.505L1219.07 177.679C1216.19 184.991 1211.43 191.398 1205.56 195.088C1204.88 194.082 1203.54 192.539 1202.64 191.734C1208.14 188.715 1213 182.677 1215.38 176.505ZM1222.09 176.605C1224.54 182.576 1229.44 188.413 1235.07 191.331C1234.07 192.17 1232.63 193.847 1231.95 194.987C1226.05 191.365 1221.35 184.958 1218.44 177.813L1222.09 176.605ZM1241.88 168.689H1245.61V199.952H1241.88V168.689ZM1236.82 179.691H1250.57V183.448H1236.82V179.691ZM1241.18 181.704L1243.39 182.777C1242.32 187.272 1240.24 193.109 1238.03 196.329C1237.66 195.088 1236.79 193.31 1236.18 192.17C1238.19 189.687 1240.24 185.025 1241.18 181.704ZM1245.54 183.649C1246.51 184.522 1249.77 188.413 1250.5 189.352L1248.02 192.505C1247.15 190.593 1244.9 186.87 1243.7 185.226L1245.54 183.649ZM1236.75 171.272L1239.57 170.534C1240.44 172.982 1241.11 176.169 1241.28 178.282L1238.26 179.087C1238.19 176.974 1237.56 173.72 1236.75 171.272ZM1247.82 170.366L1251.21 171.104C1250.34 173.821 1249.33 177.008 1248.49 178.987L1245.98 178.282C1246.65 176.136 1247.45 172.748 1247.82 170.366ZM1260.5 168.487H1264.29V199.985H1260.5V168.487ZM1250.47 189.486L1267.71 186.4L1268.32 190.123L1251.11 193.243L1250.47 189.486ZM1252.38 173.083L1254.36 170.332C1256.24 171.473 1258.62 173.15 1259.73 174.391L1257.62 177.444C1256.61 176.136 1254.26 174.291 1252.38 173.083ZM1250.87 181.536L1252.75 178.651C1254.7 179.691 1257.21 181.301 1258.42 182.542L1256.41 185.729C1255.27 184.488 1252.82 182.677 1250.87 181.536ZM1286.3 179.322V182.207H1296.46V179.322H1286.3ZM1286.3 173.351V176.169H1296.46V173.351H1286.3ZM1282.67 169.93H1300.28V185.595H1282.67V169.93ZM1282.44 188.48H1300.65V192.103H1282.44V188.48ZM1280.09 195.323H1301.76V198.946H1280.09V195.323ZM1270.26 170.433H1281.4V174.19H1270.26V170.433ZM1270.6 180.094H1280.83V183.817H1270.6V180.094ZM1269.89 192.841C1272.78 192.103 1277.07 190.761 1281.1 189.453L1281.8 193.31C1278.04 194.585 1274.02 195.893 1270.8 196.933L1269.89 192.841ZM1273.99 171.909H1277.81V192.539L1273.99 193.142V171.909ZM1289.75 171.372H1293.14V184.018H1293.51V197.034H1289.38V184.018H1289.75V171.372ZM1318.93 170.098C1318.67 171.339 1318.23 173.318 1317.29 175.733C1316.59 177.377 1315.61 179.289 1314.67 180.63C1315.58 180.228 1317.36 179.993 1318.5 179.993C1321.28 179.993 1323.4 181.637 1323.4 184.756C1323.4 186.568 1323.5 190.224 1323.53 192.337H1319.51C1319.64 190.761 1319.71 187.91 1319.67 186.098C1319.67 183.951 1318.33 183.247 1316.92 183.247C1315.08 183.247 1312.96 184.354 1311.69 185.561C1310.68 186.568 1309.74 187.775 1308.6 189.251L1305.01 186.568C1309.31 182.61 1311.89 178.987 1313.3 175.297C1313.97 173.486 1314.41 171.439 1314.51 169.729L1318.93 170.098ZM1306.29 173.217C1308 173.452 1310.48 173.586 1312.19 173.586C1316.62 173.586 1322.69 173.351 1327.56 172.479L1327.52 176.37C1322.79 177.041 1316.05 177.343 1311.96 177.343C1310.58 177.343 1308.13 177.276 1306.29 177.108V173.217ZM1332.86 182.744C1331.82 183.046 1330 183.717 1328.86 184.153C1326.68 184.991 1323.66 186.199 1320.51 187.809C1317.46 189.385 1315.82 190.828 1315.82 192.673C1315.82 194.518 1317.43 195.021 1320.68 195.021C1323.53 195.021 1327.29 194.652 1330.24 194.048L1330.11 198.375C1327.86 198.677 1323.77 198.979 1320.58 198.979C1315.35 198.979 1311.42 197.671 1311.42 193.344C1311.42 188.681 1316.22 185.93 1320.24 183.918C1323.33 182.308 1325.44 181.503 1327.46 180.563C1328.76 179.993 1329.94 179.456 1331.21 178.819L1332.86 182.744ZM1337.99 187.608H1367.94V191.096H1337.99V187.608ZM1350.84 184.924H1354.93V199.985H1350.84V184.924ZM1349.59 189.117L1352.88 190.56C1349.83 194.518 1344.73 197.939 1339.77 199.717C1339.16 198.711 1337.95 197.168 1337.08 196.363C1341.91 194.987 1347.01 192.203 1349.59 189.117ZM1356.14 189.218C1358.79 192.136 1363.92 194.786 1368.82 196.094C1367.94 196.866 1366.7 198.442 1366.13 199.449C1361.17 197.772 1356 194.484 1352.81 190.761L1356.14 189.218ZM1350.1 180.027V182.308H1355.6V180.027H1350.1ZM1350.1 174.928V177.175H1355.6V174.928H1350.1ZM1346.37 171.842H1359.52V185.394H1346.37V171.842ZM1351 168.487L1355.53 168.991C1354.83 170.802 1354.12 172.513 1353.55 173.687L1350 173.049C1350.4 171.674 1350.84 169.863 1351 168.487ZM1337.75 172.915L1340.5 170.601C1342.48 171.976 1344.86 173.989 1345.94 175.565L1342.99 178.148C1342.01 176.572 1339.73 174.391 1337.75 172.915ZM1358.65 180.932L1361 178.249C1363.48 179.49 1367 181.469 1368.75 182.878L1366.27 185.897C1364.66 184.454 1361.23 182.308 1358.65 180.932ZM1364.32 170.165L1367.81 172.244C1366.03 174.19 1363.85 176.203 1362.14 177.544L1359.15 175.565C1360.8 174.19 1363.05 171.909 1364.32 170.165ZM1337.15 182.71C1339.2 181.737 1342.21 180.127 1345.17 178.551L1346.27 181.771C1343.93 183.213 1341.31 184.79 1339.16 186.031L1337.15 182.71ZM1214.44 211.399C1214.24 212.808 1214.08 214.553 1214.01 215.894C1213.84 219.517 1213.61 226.998 1213.61 231.157C1213.61 234.545 1215.62 235.652 1218.24 235.652C1223.77 235.652 1227.26 232.465 1229.71 228.809L1232.76 232.532C1230.58 235.753 1225.82 240.214 1218.17 240.214C1212.67 240.214 1209.14 237.799 1209.14 232.063C1209.14 227.568 1209.45 218.779 1209.45 215.894C1209.45 214.284 1209.31 212.674 1209.04 211.366L1214.44 211.399ZM1251.28 211.131C1250.97 212.372 1250.84 213.244 1250.67 214.117C1250.27 217.001 1248.69 228.071 1248.69 231.459C1248.69 234.243 1250.37 235.753 1253.66 235.753C1258.35 235.753 1260.94 233.572 1260.94 230.822C1260.94 228.574 1259.66 226.394 1257.48 224.348L1262.18 223.341C1264.43 226.159 1265.43 228.507 1265.43 231.358C1265.43 236.423 1260.9 240.08 1253.56 240.08C1248.26 240.08 1244.53 237.799 1244.53 232.163C1244.53 228.742 1246.14 218.544 1246.48 213.848C1246.61 212.305 1246.61 211.634 1246.55 210.863L1251.28 211.131ZM1239.3 215.291C1242.22 216.263 1246.38 216.699 1249.8 216.699C1252.38 216.699 1254.76 216.532 1256.44 216.23L1256.31 220.255C1254.33 220.456 1252.48 220.557 1249.67 220.557C1246.28 220.557 1242.19 220.02 1239.1 219.148L1239.3 215.291ZM1238.56 223.61C1242.19 224.851 1246.08 225.119 1249.46 225.119C1251.51 225.119 1253.99 224.985 1256.17 224.717L1256.07 228.708C1254.23 228.91 1252.25 229.01 1250.14 229.01C1245.67 229.01 1241.41 228.541 1238.36 227.668L1238.56 223.61ZM1291.02 227.031C1291.02 224.817 1289.31 223.039 1286.15 223.039C1282.46 223.039 1279.11 224.146 1277.43 224.649C1276.46 224.951 1275.12 225.454 1274.18 225.857L1272.9 221.027C1274.04 220.96 1275.45 220.691 1276.56 220.456C1279.01 219.92 1282.77 218.947 1286.72 218.947C1292.02 218.947 1295.75 221.966 1295.75 227.199C1295.75 234.411 1289.07 238.839 1279.75 240.147L1277.36 235.954C1285.68 235.015 1291.02 232.297 1291.02 227.031ZM1277.83 210.93C1281.76 211.768 1289.37 212.439 1292.9 212.439L1292.26 216.565C1288.33 216.297 1281.05 215.626 1277.2 214.955L1277.83 210.93Z" fill="#C00A00"/>
</svg>
