<svg width="19" height="19" viewBox="0 0 19 19" fill="none" xmlns="http://www.w3.org/2000/svg">
<rect width="18.7785" height="18.7785" rx="9.38927" fill="#891812"/>
<path d="M9.38946 5.54301C10.6338 5.54301 10.8035 5.54301 11.3126 5.54301C11.7651 5.54301 11.9913 5.65613 12.161 5.71269C12.3872 5.82582 12.5569 5.88238 12.7266 6.05206C12.8963 6.22175 13.0094 6.39144 13.066 6.61768C13.1225 6.78737 13.1791 7.01362 13.2357 7.46611C13.2357 7.97517 13.2357 8.08829 13.2357 9.38921C13.2357 10.6901 13.2357 10.8033 13.2357 11.3123C13.2357 11.7648 13.1225 11.9911 13.066 12.1607C12.9529 12.387 12.8963 12.5567 12.7266 12.7264C12.5569 12.896 12.3872 13.0092 12.161 13.0657C11.9913 13.1223 11.7651 13.1789 11.3126 13.2354C10.8035 13.2354 10.6904 13.2354 9.38946 13.2354C8.08853 13.2354 7.97541 13.2354 7.46636 13.2354C7.01386 13.2354 6.78761 13.1223 6.61793 13.0657C6.39168 12.9526 6.22199 12.896 6.05231 12.7264C5.88262 12.5567 5.7695 12.387 5.71294 12.1607C5.65638 11.9911 5.59981 11.7648 5.54325 11.3123C5.54325 10.8033 5.54325 10.6901 5.54325 9.38921C5.54325 8.08829 5.54325 7.97517 5.54325 7.46611C5.54325 7.01362 5.65638 6.78737 5.71294 6.61768C5.82606 6.39144 5.88262 6.22175 6.05231 6.05206C6.22199 5.88238 6.39168 5.76926 6.61793 5.71269C6.78761 5.65613 7.01386 5.59957 7.46636 5.54301C7.97541 5.54301 8.1451 5.54301 9.38946 5.54301ZM9.38946 4.69458C8.08853 4.69458 7.97541 4.69458 7.46636 4.69458C6.9573 4.69458 6.61793 4.8077 6.33512 4.92083C6.05231 5.03395 5.7695 5.20364 5.48669 5.48645C5.20388 5.76926 5.09076 5.9955 4.92107 6.33487C4.80795 6.61768 4.75139 6.95705 4.69482 7.46611C4.69482 7.97517 4.69482 8.14485 4.69482 9.38921C4.69482 10.6901 4.69482 10.8033 4.69482 11.3123C4.69482 11.8214 4.80795 12.1607 4.92107 12.4436C5.0342 12.7264 5.20388 13.0092 5.48669 13.292C5.7695 13.5748 5.99575 13.6879 6.33512 13.8576C6.61793 13.9707 6.9573 14.0273 7.46636 14.0838C7.97541 14.0838 8.1451 14.0838 9.38946 14.0838C10.6338 14.0838 10.8035 14.0838 11.3126 14.0838C11.8216 14.0838 12.161 13.9707 12.4438 13.8576C12.7266 13.7445 13.0094 13.5748 13.2922 13.292C13.575 13.0092 13.6882 12.7829 13.8578 12.4436C13.971 12.1607 14.0275 11.8214 14.0841 11.3123C14.0841 10.8033 14.0841 10.6336 14.0841 9.38921C14.0841 8.14485 14.0841 7.97517 14.0841 7.46611C14.0841 6.95705 13.971 6.61768 13.8578 6.33487C13.7447 6.05206 13.575 5.76926 13.2922 5.48645C13.0094 5.20364 12.7832 5.09051 12.4438 4.92083C12.161 4.8077 11.8216 4.75114 11.3126 4.69458C10.8035 4.69458 10.6904 4.69458 9.38946 4.69458Z" fill="#F1EDE4"/>
<path d="M9.38946 6.95705C8.03197 6.95705 6.9573 8.03173 6.9573 9.38921C6.9573 10.7467 8.03197 11.8214 9.38946 11.8214C10.7469 11.8214 11.8216 10.7467 11.8216 9.38921C11.8216 8.03173 10.7469 6.95705 9.38946 6.95705ZM9.38946 10.9729C8.54103 10.9729 7.80573 10.2942 7.80573 9.38921C7.80573 8.54079 8.48447 7.80548 9.38946 7.80548C10.2379 7.80548 10.9732 8.48422 10.9732 9.38921C10.9732 10.2376 10.2379 10.9729 9.38946 10.9729Z" fill="#F1EDE4"/>
<path d="M11.8782 7.46611C12.1906 7.46611 12.4438 7.21287 12.4438 6.90049C12.4438 6.58811 12.1906 6.33487 11.8782 6.33487C11.5658 6.33487 11.3126 6.58811 11.3126 6.90049C11.3126 7.21287 11.5658 7.46611 11.8782 7.46611Z" fill="#F1EDE4"/>
</svg>
