<svg width="42" height="29" viewBox="0 0 42 29" fill="none" xmlns="http://www.w3.org/2000/svg">
<g clip-path="url(#clip0_216_152306)">
<path d="M0.895508 3.52326C0.895508 1.57742 2.42911 0 4.3209 0H38.5748C40.4666 0 42.0002 1.57742 42.0002 3.52326V24.6628C42.0002 26.6086 40.4666 28.186 38.5748 28.186H4.32089C2.42911 28.186 0.895508 26.6086 0.895508 24.6628V3.52326Z" fill="#E6E6E6"/>
<path d="M32.7604 22.133C34.3392 22.133 35.0822 21.5134 35.7313 19.6353L38.5747 11.4323H36.9284L35.0217 17.7787H34.9882L33.0815 11.4409H31.3885L34.1316 19.2485L33.9847 19.7234C33.8809 20.4032 33.2876 20.8881 32.6198 20.838C32.4923 20.838 32.2451 20.8244 32.1448 20.8108V22.1001C32.3489 22.1287 32.555 22.1424 32.7604 22.1416V22.133ZM27.2742 18.0251C26.4107 18.0251 25.8626 17.5953 25.8626 16.9449C25.8626 16.2709 26.3912 15.8783 27.4016 15.816L29.2011 15.6993V16.3053C29.1615 17.3038 28.3418 18.081 27.371 18.0401C27.3383 18.0387 27.3062 18.0358 27.2742 18.033V18.0251ZM26.8397 19.2979C27.8195 19.3252 28.7359 18.8001 29.2283 17.9284H29.2617V19.2177H30.7604V13.8777C30.7604 12.3291 29.5563 11.3313 27.7025 11.3313C25.9831 11.3313 24.7115 12.3427 24.6648 13.733H26.1238C26.2979 13.0261 26.9511 12.5597 27.6558 12.6385C28.6461 12.6385 29.2011 13.1134 29.2011 13.9873V14.579L27.1816 14.7029C25.3013 14.8197 24.2846 15.6112 24.2846 16.9879C24.2832 18.3839 25.3333 19.3058 26.839 19.3058L26.8397 19.2979ZM18.1549 9.89083H20.0212C21.4265 9.89083 22.2295 10.6616 22.2295 12.0175C22.2295 13.3735 21.4265 14.1506 20.0149 14.1506H18.1549V9.89083ZM16.5357 8.48689V19.2156H18.1549V15.5582H20.3966C22.2225 15.6592 23.7818 14.2187 23.88 12.3406C23.8855 12.2338 23.8862 12.1278 23.882 12.0211C23.9684 10.1637 22.5749 8.58645 20.7691 8.49692C20.6626 8.4919 20.5567 8.49262 20.4502 8.49763L16.5357 8.48689ZM11.1616 10.4889C10.2312 10.4338 9.43525 11.0326 8.99373 11.0326C8.55222 11.0326 7.86974 10.5169 7.13365 10.5312C6.15869 10.557 5.27009 11.1121 4.79862 11.9903C3.79511 13.766 4.53747 16.3948 5.50756 17.8396C5.9825 18.5559 6.55216 19.3402 7.30079 19.3123C8.00972 19.2851 8.29106 18.8374 9.14763 18.8374C10.0042 18.8374 10.2584 19.3123 11.0077 19.2979C11.7835 19.2843 12.2724 18.5816 12.7487 17.8654C13.0844 17.3582 13.3455 16.8031 13.5245 16.2179C12.6101 15.8067 12.0175 14.8805 12.0126 13.8541C12.0266 12.9487 12.4876 12.1135 13.2369 11.6386C12.7592 10.9409 11.9924 10.5126 11.163 10.4825L11.1616 10.4889ZM10.5808 9.54128C10.1734 10.0692 9.55015 10.3722 8.89484 10.36C8.85306 9.70244 9.07034 9.05563 9.49723 8.56425C9.92203 8.05711 10.5209 7.73908 11.1686 7.67676C11.2145 8.35294 11.0035 9.02053 10.5794 9.53913" fill="black"/>
</g>
<defs>
<clipPath id="clip0_216_152306">
<rect width="41.1047" height="28.186" fill="white" transform="translate(0.895508)"/>
</clipPath>
</defs>
</svg>
