<svg width="44" height="29" viewBox="0 0 44 29" fill="none" xmlns="http://www.w3.org/2000/svg">
<g clip-path="url(#clip0_216_152295)">
<path d="M0.87207 3.52326C0.87207 1.57742 2.44949 0 4.39533 0H39.6279C41.5737 0 43.1511 1.57742 43.1511 3.52326V24.6628C43.1511 26.6086 41.5737 28.186 39.6279 28.186H4.39532C2.44948 28.186 0.87207 26.6086 0.87207 24.6628V3.52326Z" fill="#E4E5E7"/>
<path d="M21.0584 15.0385V19.1111H19.7573V9.05341H23.2079C23.6198 9.04487 24.0293 9.11741 24.4128 9.26685C24.7962 9.4163 25.1461 9.63968 25.4423 9.92412C25.7413 10.1913 25.9794 10.5189 26.1404 10.8851C26.3014 11.2512 26.3816 11.6473 26.3756 12.0467C26.3842 12.4483 26.3052 12.847 26.1441 13.2155C25.983 13.5839 25.7436 13.9134 25.4423 14.1814C24.8389 14.7528 24.0941 15.0382 23.2079 15.0376H21.0584V15.0385ZM21.0584 10.2917V13.8026H23.2402C23.4794 13.8096 23.7174 13.767 23.9391 13.6775C24.1608 13.5879 24.3612 13.4534 24.5275 13.2826C24.6929 13.1228 24.8245 12.9318 24.9143 12.7207C25.0041 12.5096 25.0504 12.2827 25.0504 12.0536C25.0504 11.8244 25.0041 11.5975 24.9143 11.3864C24.8245 11.1753 24.6929 10.9843 24.5275 10.8245C24.3633 10.6501 24.1635 10.5123 23.9416 10.4203C23.7197 10.3283 23.4806 10.2842 23.2402 10.2909H21.0584V10.2917Z" fill="#5F6368"/>
<path d="M29.3733 12.0059C30.335 12.0059 31.094 12.2611 31.6505 12.7714C32.207 13.2818 32.485 13.9816 32.4845 14.8708V19.112H31.24V18.157H31.1835C30.6447 18.9435 29.9282 19.3367 29.0339 19.3367C28.2706 19.3367 27.6319 19.112 27.118 18.6626C26.8713 18.4563 26.6741 18.198 26.5408 17.9065C26.4074 17.6149 26.3412 17.2975 26.347 16.9773C26.347 16.2653 26.618 15.699 27.16 15.2785C27.7019 14.8579 28.4254 14.6472 29.3305 14.6461C30.103 14.6461 30.7393 14.7865 31.2392 15.0674V14.7721C31.2407 14.5538 31.1932 14.338 31.1003 14.1402C31.0073 13.9424 30.8712 13.7676 30.7018 13.6285C30.3578 13.3203 29.9094 13.1521 29.4461 13.1574C28.7193 13.1574 28.1442 13.4619 27.7208 14.0707L26.5749 13.3541C27.2052 12.4553 28.138 12.0059 29.3733 12.0059ZM27.6901 17.0054C27.6892 17.1699 27.7279 17.3321 27.803 17.4787C27.878 17.6253 27.9873 17.7519 28.1216 17.8481C28.4093 18.0728 28.7665 18.1919 29.1325 18.1851C29.6815 18.1842 30.2078 17.9672 30.596 17.5816C31.027 17.1788 31.2425 16.7061 31.2425 16.1636C30.8368 15.8426 30.2711 15.6821 29.5455 15.6821C29.017 15.6821 28.5763 15.8086 28.2234 16.0617C27.8671 16.3185 27.6901 16.6307 27.6901 17.0054Z" fill="#5F6368"/>
<path d="M39.6281 12.2314L35.2838 22.1463H33.9408L35.5529 18.6771L32.6963 12.2314H34.1105L36.1751 17.1748H36.2034L38.2115 12.2314H39.6281Z" fill="#5F6368"/>
<path d="M15.8005 14.1612C15.801 13.7674 15.7675 13.3744 15.7003 12.9863H10.2134V15.2117H13.356C13.2917 15.5671 13.1556 15.9059 12.9559 16.2077C12.7562 16.5094 12.497 16.7679 12.194 16.9675V18.412H14.0696C15.1678 17.4065 15.8005 15.9195 15.8005 14.1612Z" fill="#4285F4"/>
<path d="M10.2136 19.8079C11.7837 19.8079 13.1058 19.2959 14.0698 18.4131L12.1942 16.9687C11.6722 17.3201 10.9999 17.5208 10.2136 17.5208C8.696 17.5208 7.4079 16.5048 6.94728 15.1357H5.01514V16.6244C5.4994 17.5813 6.24196 18.3858 7.15993 18.948C8.07789 19.5101 9.13512 19.8078 10.2136 19.8079Z" fill="#34A853"/>
<path d="M6.9472 15.1349C6.70369 14.4175 6.70369 13.6406 6.9472 12.9232V11.4346H5.01505C4.60767 12.2396 4.39551 13.1281 4.39551 14.0291C4.39551 14.93 4.60767 15.8185 5.01505 16.6235L6.9472 15.1349Z" fill="#FBBC04"/>
<path d="M10.2136 10.5385C11.0433 10.525 11.8451 10.8363 12.4455 11.4052L14.1062 9.75604C13.0532 8.77384 11.6582 8.2346 10.2136 8.25136C9.13512 8.2514 8.07789 8.54913 7.15993 9.11128C6.24196 9.67344 5.4994 10.4779 5.01514 11.4349L6.94728 12.9235C7.4079 11.5544 8.696 10.5385 10.2136 10.5385Z" fill="#EA4335"/>
</g>
<defs>
<clipPath id="clip0_216_152295">
<rect width="42.2791" height="28.186" fill="white" transform="translate(0.87207)"/>
</clipPath>
</defs>
</svg>
