<svg width="44" height="29" viewBox="0 0 44 29" fill="none" xmlns="http://www.w3.org/2000/svg">
<g clip-path="url(#clip0_216_152288)">
<path d="M0.848633 3.52326C0.848633 1.57742 2.42605 0 4.37189 0H39.6044C41.5503 0 43.1277 1.57742 43.1277 3.52326V24.6628C43.1277 26.6086 41.5503 28.186 39.6044 28.186H4.37189C2.42605 28.186 0.848633 26.6086 0.848633 24.6628V3.52326Z" fill="#FDEACE"/>
<path d="M26.3992 5.74997L17.3013 5.78125L17.577 22.4373L26.6749 22.406L26.3992 5.74997Z" fill="#FF5F00"/>
<path d="M17.8999 14.1428C17.8436 10.7551 19.3611 7.74496 21.7382 5.79246C19.9439 4.38453 17.6946 3.53789 15.2562 3.54624C9.47967 3.56602 4.88497 8.32482 4.98239 14.187C5.0798 20.0492 9.83213 24.776 15.6087 24.7562C18.0471 24.7479 20.268 23.8859 22.0152 22.4659C19.5741 20.5593 17.9562 17.5305 17.8999 14.1428Z" fill="#EB001B"/>
<path d="M38.9934 14.0003C39.0908 19.8625 34.4961 24.6213 28.7195 24.641C26.2812 24.6494 24.0318 23.8028 22.2376 22.3948C24.6437 20.4422 26.1322 17.4322 26.0759 14.0445C26.0196 10.6568 24.4022 7.65741 21.9605 5.72142C23.7078 4.30135 25.9287 3.43941 28.3671 3.43105C34.1437 3.41127 38.8965 8.16751 38.9934 14.0003Z" fill="#F79E1B"/>
</g>
<defs>
<clipPath id="clip0_216_152288">
<rect width="42.2791" height="28.186" fill="white" transform="translate(0.848633)"/>
</clipPath>
</defs>
</svg>
