<svg width="42" height="29" viewBox="0 0 42 29" fill="none" xmlns="http://www.w3.org/2000/svg">
<g clip-path="url(#clip0_216_152280)">
<path d="M0 3.52326C0 1.57742 1.5336 0 3.42539 0H37.6793C39.5711 0 41.1047 1.57742 41.1047 3.52326V24.6628C41.1047 26.6086 39.5711 28.186 37.6793 28.186H3.42539C1.5336 28.186 0 26.6086 0 24.6628V3.52326Z" fill="#D8E3F3"/>
<path d="M35.3757 8.83984H33.2223C32.5713 8.83984 32.0705 9.04588 31.77 9.71551L27.6636 19.3478H30.5681C30.5681 19.3478 31.0689 18.0601 31.1691 17.751C31.4696 17.751 34.324 17.751 34.7247 17.751C34.8248 18.1116 35.0752 19.2963 35.0752 19.2963H37.6793L35.3757 8.83984ZM31.9703 15.5876C32.2207 14.9695 33.0721 12.6516 33.0721 12.6516C33.0721 12.7031 33.3225 12.0334 33.4226 11.6729L33.6229 12.6C33.6229 12.6 34.1738 15.124 34.274 15.6391H31.9703V15.5876Z" fill="#3362AB"/>
<path d="M27.8639 15.8959C27.8639 18.0593 25.9609 19.5016 23.0062 19.5016C21.7543 19.5016 20.5524 19.244 19.9014 18.935L20.302 16.5655L20.6525 16.7201C21.554 17.1321 22.1549 17.2867 23.2566 17.2867C24.0579 17.2867 24.9092 16.9776 24.9092 16.2565C24.9092 15.7929 24.5587 15.4838 23.457 14.9687C22.4053 14.4536 21.0031 13.6295 21.0031 12.1357C21.0031 10.0753 22.9562 8.68457 25.7105 8.68457C26.7622 8.68457 27.6636 8.89061 28.2144 9.14816L27.8138 11.4146L27.6135 11.2085C27.1127 11.0025 26.4617 10.7965 25.5102 10.7965C24.4585 10.848 23.9577 11.3116 23.9577 11.7236C23.9577 12.1872 24.5587 12.5478 25.5102 13.0114C27.1127 13.784 27.8639 14.6597 27.8639 15.8959Z" fill="#3362AB"/>
<path d="M3.42529 8.94237L3.47537 8.73633H7.78215C8.38309 8.73633 8.8338 8.94237 8.98404 9.61199L9.93553 14.2479C8.98404 11.7754 6.78057 9.76652 3.42529 8.94237Z" fill="#F9B50B"/>
<path d="M15.9951 8.8396L11.6383 19.296H8.68363L6.17969 10.5394C7.98252 11.7241 9.48489 13.5785 10.0358 14.8662L10.3362 15.9479L13.0405 8.78809H15.9951V8.8396Z" fill="#3362AB"/>
<path d="M17.1468 8.78809H19.9011L18.1484 19.296H15.394L17.1468 8.78809Z" fill="#3362AB"/>
</g>
<defs>
<clipPath id="clip0_216_152280">
<rect width="41.1047" height="28.186" fill="white"/>
</clipPath>
</defs>
</svg>
