<svg width="81" height="81" viewBox="0 0 81 81" fill="none" xmlns="http://www.w3.org/2000/svg">
<g clip-path="url(#clip0_216_113007)">
<path d="M46.3634 58.2668C46.1104 58.5428 45.9034 58.7575 45.7117 58.9875C43.5879 61.4793 40.8508 62.89 37.7073 63.6107C36.8793 63.8024 36.0436 63.8791 35.1926 63.9404C34.1498 64.0094 33.1148 64.1704 32.0721 64.2931C31.4817 64.3621 30.8837 64.4234 30.2933 64.4848C29.8486 64.5308 29.3963 64.5308 28.9593 64.6151C27.4719 64.8988 25.9768 64.8451 24.4894 64.7148C23.1017 64.5921 21.7139 64.4234 20.3339 64.2164C18.6088 63.9634 16.9221 63.4957 15.2813 62.9054C14.5299 62.637 13.8092 62.2997 13.0809 61.9777C12.8049 61.855 12.5365 61.7246 12.2835 61.5713C10.5738 60.5363 8.88701 59.4782 7.46095 58.0598C6.57157 57.1858 5.69753 56.3041 4.81583 55.4224C4.10279 54.7093 3.57377 53.866 3.05241 53.0149C2.64606 52.3555 2.46972 51.6425 2.50805 50.8758C2.51572 50.6765 2.50805 50.4771 2.55406 50.2778C2.8914 48.614 3.25175 46.9656 4.06446 45.4476C4.81583 44.0368 5.6362 42.6721 6.67891 41.453C6.93959 41.154 7.17727 40.832 7.41495 40.51C8.05897 39.613 8.82568 38.8309 9.67672 38.1409C9.9834 37.8879 10.2977 37.6349 10.5814 37.3589C12.6209 35.4344 15.0973 34.2921 17.7041 33.3797C18.7391 33.0193 19.8048 32.751 20.8629 32.4903C21.7829 32.2603 22.703 32.0533 23.6614 32.0533C23.8607 32.0533 24.0677 32.0533 24.2594 32.0073C24.7807 31.8846 25.3634 32.0763 25.8388 31.7083C26.0305 31.2252 25.8925 30.7269 25.8771 30.2362C25.7928 27.4607 26.6898 25.061 28.5376 22.9909C29.3043 22.1322 30.1247 21.3348 31.0524 20.6601C32.1564 19.8551 33.3678 19.303 34.7402 19.1497C35.1389 19.1037 35.5299 19.0117 35.9286 18.9963C36.8333 18.9657 37.6997 18.7433 38.566 18.498C39.6164 18.199 40.6668 17.8846 41.7249 17.5933C43.6493 17.0643 45.6044 16.7116 47.6131 16.7576C48.4642 16.7806 49.2999 16.8343 50.1279 17.0566C50.6646 17.2023 51.1706 17.3863 51.6536 17.6546C53.2791 18.544 54.7971 19.579 56.0699 20.9438C57.2276 22.1858 58.3623 23.4356 59.3283 24.8386C60.6317 26.74 61.6591 28.7795 62.4641 30.9339C62.8782 32.0303 63.1388 33.1267 62.7938 34.2921C62.7632 34.3841 62.7478 34.5067 62.7862 34.5834C62.8398 34.7137 62.9165 34.8824 63.0315 34.9207C63.2615 35.0051 63.5145 35.0281 63.7599 35.0434C65.0096 35.1124 66.2286 35.3654 67.44 35.6644C68.4674 35.9175 69.4335 36.3161 70.3152 36.8835C71.2352 37.4815 72.1323 38.1102 73.0216 38.7466C73.842 39.3293 74.5014 40.073 75.0687 40.901C75.8584 42.0511 76.5638 43.2548 77.0775 44.5582C77.5528 45.7619 78.0589 46.958 78.3579 48.223C78.7872 50.0631 78.6952 51.8879 78.1892 53.6896C77.9592 54.5176 77.4992 55.2383 76.9011 55.8517C75.7204 57.0631 74.5244 58.2745 73.3053 59.4399C72.2473 60.4519 70.9822 61.1496 69.5715 61.556C68.6131 61.832 67.6547 62.0773 66.6427 62.1003C65.4926 62.1233 64.3579 62.292 63.2462 62.591C61.5364 63.0434 59.8114 63.1814 58.0633 62.9897C57.2736 62.9054 56.4762 62.8057 55.7095 62.5987C54.1684 62.1923 52.6274 61.786 51.1246 61.2646C49.9822 60.8659 48.9319 60.3292 48.0425 59.4859C47.5748 59.0412 47.0841 58.6118 46.3711 58.2515L46.3634 58.2668ZM73.75 57.5538C73.9493 57.5538 74.0413 57.4464 74.049 57.2471C74.2484 57.2471 74.348 57.1474 74.348 56.9481C74.5474 56.9481 74.647 56.8484 74.647 56.6491C74.8464 56.6491 74.9461 56.5494 74.9461 56.3501C75.0381 56.3271 75.1607 56.3347 75.2297 56.2887C75.9198 55.7827 76.4871 55.154 76.9625 54.4563C77.2462 54.0423 77.4378 53.5746 77.5452 53.0839C77.8902 51.4508 77.9439 49.8178 77.4838 48.2C77.0315 46.6129 76.3875 45.1025 75.6591 43.6305C75.5747 43.4618 75.3984 43.3468 75.2604 43.2088L75.2911 43.2395C75.2297 43.0555 75.1991 42.8484 75.1071 42.6798C74.9154 42.3348 74.693 42.0051 74.4784 41.6677C73.7193 40.4717 72.6843 39.5593 71.4882 38.8233C71.3732 38.7466 71.2045 38.7543 71.0665 38.7159C70.9055 38.3019 70.5835 38.1256 70.1542 38.1179C70.0392 37.9722 69.9472 37.7729 69.7938 37.6732C69.2111 37.2899 68.5978 36.9832 67.9307 36.7762C66.3207 36.2931 64.6876 35.9175 62.9855 35.9941L63.0085 36.0171C62.7172 35.9558 62.4335 35.8638 62.1421 35.8331C60.6931 35.6721 59.2747 35.9558 57.8563 36.1705C57.2659 36.2625 56.6832 36.3238 56.0852 36.3545C54.8968 36.4158 53.7161 36.5078 52.5277 36.5922C50.9636 36.6995 49.5375 37.2439 48.2112 38.0566C47.0611 38.7619 46.0797 39.6666 45.1443 40.625C45.014 40.763 44.9143 40.947 44.8377 41.1234C44.7763 41.2614 44.7763 41.4147 44.899 41.5374C44.9833 41.6217 45.2057 41.6141 45.2977 41.522C45.5814 41.246 45.8574 40.9624 46.1334 40.6863C46.2024 40.7553 46.2637 40.8167 46.3327 40.8857C46.0567 41.292 45.773 41.6907 45.497 42.0894C45.5507 42.3654 45.6964 42.5418 45.9571 42.6184L45.9264 42.5878C46.1027 43.2625 46.5321 43.7225 47.1301 44.0522C47.2298 44.2592 47.3371 44.4739 47.4368 44.6809C47.5441 44.7805 47.6515 44.8802 47.7511 44.9875C47.8508 45.0872 48.0348 45.2176 48.0195 45.3019C47.9198 45.8923 48.2572 46.3599 48.4028 46.8813C48.9089 48.6754 49.1695 50.4848 48.7248 52.3325C48.6175 52.7696 48.5332 53.2066 48.4258 53.6436C48.3338 54.004 48.3722 54.326 48.6252 54.6173C48.6942 54.694 48.6252 54.7783 48.5332 54.855C48.4718 54.9087 48.4412 55.0007 48.4028 55.0773C48.6558 55.315 48.9012 55.5527 49.1465 55.7904C49.1695 55.8057 49.1619 55.8824 49.1389 55.9054C49.1159 55.936 49.0469 55.9744 49.0162 55.9667C48.7862 55.8747 48.5638 55.775 48.3415 55.6677C48.1038 55.5527 47.9428 55.5604 47.9735 55.6907C47.9965 55.7827 48.0041 55.89 48.0578 55.9514C48.5102 56.4267 49.0699 56.7564 49.6832 56.9864C51.1323 57.5308 52.52 58.1901 53.9154 58.8572C54.1378 58.9645 54.3754 59.0565 54.6054 59.1409C56.4072 59.8462 58.2703 60.0686 60.1794 59.7619C61.4061 59.5625 62.6252 59.3095 63.7675 58.7652C64.2122 58.5505 64.6799 58.3665 65.1936 58.3512C66.1673 58.3282 67.0183 57.9218 67.8771 57.5154C69.1421 56.9251 70.1005 56.0434 70.8059 54.8397C71.2045 54.1496 71.6799 53.5133 72.1246 52.8462C72.2933 52.6009 72.4696 52.3555 72.6229 52.1025C72.9373 51.5812 73.1366 51.0292 73.106 50.4081C73.0906 50.0094 73.0753 49.6108 73.1136 49.2121C73.198 48.3074 72.8683 47.5637 72.3163 46.8736C71.7489 46.1606 71.1049 45.5549 70.2922 45.1332C70.0238 44.9952 69.7708 44.8419 69.5025 44.7115C68.3677 44.1825 67.348 43.4771 66.3973 42.6644C65.4159 41.8134 64.3196 41.1234 63.1695 40.51C62.4641 40.1343 61.7664 39.7586 61.0611 39.3906C60.7084 39.2066 60.348 39.0379 59.9417 38.9996C57.9713 38.8233 56.0468 38.8846 54.4061 40.211C54.3294 40.2723 54.2374 40.3183 54.1531 40.372C52.9647 41.1387 51.7227 41.7214 50.2736 41.7904C49.5069 41.8287 48.8322 42.1584 48.2955 42.7334C48.0885 42.9481 47.8891 43.1705 47.6668 43.3698C47.6055 43.4311 47.4905 43.4388 47.3985 43.4695C47.3985 43.3698 47.3678 43.2548 47.3985 43.1781C47.9428 42.0357 48.8015 41.2614 50.0819 41.0544C50.5266 40.9854 50.9636 40.9317 51.393 40.7937C52.1597 40.556 52.8574 40.188 53.5397 39.7816C54.0918 39.452 54.6361 39.0993 55.2035 38.7926C55.5485 38.6086 55.9242 38.4246 56.3075 38.3632C57.1892 38.2022 58.0786 38.0796 58.9757 38.1332C59.9264 38.1946 60.8464 38.3479 61.6591 38.9076C62.0271 39.1606 62.4335 39.3523 62.8398 39.5363C64.3349 40.234 65.715 41.1157 66.98 42.1661C67.7851 42.8408 68.6514 43.4081 69.6021 43.8605C69.9165 44.0062 70.2232 44.1748 70.5299 44.3282C71.4882 44.7959 72.2396 45.5012 72.9066 46.3216C73.5967 47.1726 73.9417 48.1157 73.888 49.2121C73.75 51.8649 74.0183 51.0445 72.8606 53.3216C72.5539 53.5516 72.2856 53.8123 72.2549 54.2263C71.8486 54.3873 71.6952 54.7247 71.6569 55.131C71.5266 55.269 71.3656 55.3994 71.2582 55.5604C70.3688 56.9481 69.1498 57.9295 67.624 58.5428C67.578 58.5582 67.5397 58.5888 67.4937 58.6118C66.9493 58.8725 66.3973 59.0795 65.784 59.0872C65.2243 59.0872 64.6876 59.2482 64.1969 59.4782C63.2385 59.9306 62.2341 60.1989 61.1991 60.3752C59.6733 60.6436 58.1399 60.6896 56.5989 60.3906C55.1191 60.0992 53.7467 59.5242 52.382 58.9185C51.8837 58.6962 51.393 58.4432 50.8716 58.2668C49.7829 57.9065 48.7402 57.4388 47.7128 56.9251C47.6208 56.8254 47.5135 56.8178 47.4061 56.9021C47.4061 57.0094 47.4061 57.1168 47.4138 57.2164C47.4215 57.4158 47.4598 57.6151 47.6208 57.7531C47.9198 58.0138 48.2418 58.2592 48.5178 58.5352C49.3459 59.3632 50.3503 59.8846 51.4543 60.2372C53.3481 60.8506 55.2418 61.4333 57.1969 61.8013C58.485 62.0467 59.7654 62.039 61.0611 61.901C61.1914 61.8857 61.3141 61.7706 61.4444 61.7016L61.4138 61.7323C61.9505 61.6556 62.4948 61.602 63.0238 61.5023C64.0436 61.303 65.0556 61.0576 66.106 61.0653C67.256 61.0653 68.3601 60.7969 69.4565 60.4749C70.8595 60.0609 72.0786 59.3172 73.1213 58.2975C73.2516 58.1671 73.3283 57.9755 73.428 57.8068C73.6197 57.7915 73.7347 57.6995 73.7193 57.5001L73.75 57.5538ZM25.3864 63.6261C25.9691 63.6261 26.4675 63.6644 26.9582 63.6261C28.5453 63.4881 30.1323 63.3194 31.7117 63.166C31.8114 63.1584 31.9111 63.1277 32.0031 63.12C33.1915 62.9667 34.3722 62.7674 35.5606 62.683C38.3207 62.4837 40.7741 61.4793 43.0359 59.9382C43.4423 59.6622 43.818 59.3172 44.1706 58.9722C46.6087 56.6337 47.6668 53.6973 47.7511 50.3851C47.7971 48.545 47.2988 46.8506 46.2024 45.3326C45.497 44.3588 44.7763 43.4158 43.9406 42.5571C43.2813 41.8824 42.5912 41.2307 41.9242 40.556C41.2572 39.8813 40.5671 39.2296 39.9538 38.5166C39.0031 37.4049 37.9067 36.4925 36.6263 35.7871C36.2736 35.5954 35.9363 35.3884 35.5836 35.2044C33.5748 34.1387 31.4434 33.5177 29.1739 33.3567C28.7753 33.326 28.3766 33.3107 27.9856 33.257C25.5781 32.935 23.2167 33.234 20.8782 33.7707C20.0579 33.9624 19.2452 34.2154 18.4401 34.4761C15.7107 35.3501 13.2035 36.5998 11.0108 38.5012C9.65372 39.682 8.36566 40.901 7.1926 42.2734C6.18822 43.4541 5.31418 44.7192 4.47848 46.0226C3.78078 47.1113 3.4511 48.2844 3.46643 49.5571C3.46643 50.0554 3.50477 50.5538 3.5201 51.0522C3.53543 51.5122 3.67344 51.9415 3.91112 52.3249C4.34814 53.0532 4.77749 53.7816 5.36018 54.4026C6.5179 55.637 7.69863 56.8561 8.98668 57.9525C10.3207 59.0872 11.7621 60.0686 13.3262 60.8506C15.289 61.8396 17.3744 62.5067 19.5288 62.9437C19.9659 63.028 20.4029 63.1354 20.8476 63.1814C22.381 63.3424 23.922 63.4881 25.3711 63.6261H25.3864ZM60.026 33.0193C60.187 33.303 60.279 33.4103 60.3097 33.5254C60.4017 33.855 60.371 34.223 60.6394 34.4837C60.6624 34.5067 60.7774 34.4991 60.7774 34.4837C60.8234 34.3457 60.8924 34.2077 60.8924 34.0697C60.9077 33.5714 60.9001 33.073 60.9154 32.5746C60.9154 32.4903 60.9844 32.406 61.0304 32.3293C61.0764 32.2526 61.2834 32.4673 61.3141 32.636C61.3601 32.9273 61.4061 33.2263 61.4291 33.5177C61.4521 33.8627 61.4291 34.2077 61.4444 34.5527C61.4444 34.5911 61.5058 34.6677 61.5288 34.6677C61.6208 34.6601 61.7281 34.6447 61.7971 34.5911C61.8738 34.5374 61.9351 34.4377 61.9581 34.3457C62.1881 33.4027 62.1728 32.4826 61.8508 31.5549C61.1608 29.5692 60.2484 27.6907 59.1213 25.9197C58.2089 24.4859 57.1126 23.1979 55.9702 21.9405C54.7128 20.5604 53.2561 19.4487 51.6383 18.544C51.117 18.2526 50.5803 17.992 49.9976 17.8386C48.6788 17.5013 47.3371 17.4093 45.9877 17.5856C44.4083 17.7926 42.8366 18.0763 41.3108 18.5363C40.3065 18.8353 39.3021 19.1267 38.2977 19.418C37.4313 19.671 36.5573 19.8627 35.6526 19.8934C34.1038 19.9394 32.7314 20.4761 31.4894 21.3655C29.933 22.4772 28.6296 23.8419 27.6099 25.4673C27.1499 26.1957 26.8355 26.9777 26.6515 27.8058C26.4215 28.8331 26.4215 29.8835 26.5288 30.9262C26.5442 31.0719 26.5825 31.2252 26.6592 31.3479C26.7588 31.5089 26.8278 31.7159 27.0732 31.7313C27.2265 31.7466 27.3492 31.6009 27.3875 31.3172C27.4029 31.1716 27.3875 31.0182 27.4335 30.8726C27.4489 30.8036 27.5639 30.7039 27.6022 30.7192C27.6789 30.7499 27.7709 30.8266 27.8015 30.9032C27.9012 31.1792 27.9626 31.4706 28.0546 31.7543C28.0699 31.7926 28.1389 31.8463 28.1619 31.8386C28.2462 31.8079 28.3766 31.7619 28.3996 31.7006C28.4916 31.4169 28.5376 31.1256 28.6143 30.8342C28.6219 30.7959 28.6833 30.7576 28.7293 30.7499C28.7523 30.7499 28.8213 30.7882 28.8213 30.8189C28.8749 31.1562 28.9209 31.5013 28.9669 31.8463C28.9823 31.9613 29.0589 32.0303 29.1739 32.0073C29.2583 31.9919 29.3733 31.9383 29.404 31.8769C29.4653 31.7466 29.4883 31.5933 29.519 31.4476C29.542 31.3249 29.611 31.2636 29.7336 31.2866C29.7796 31.2942 29.8256 31.3326 29.8563 31.3709C29.9483 31.4859 30.0173 31.6239 30.117 31.7313C30.1937 31.8003 30.278 31.7466 30.3317 31.6316C30.393 31.5243 30.393 31.3096 30.6153 31.4323C30.6307 31.4783 30.6613 31.5243 30.6613 31.5779C30.6767 32.0226 30.8377 32.2986 31.3437 32.3906C33.5211 32.7893 35.5376 33.625 37.4313 34.7674C38.635 35.4958 39.7314 36.3391 40.6438 37.4202C41.6405 38.6086 42.7982 39.636 43.9253 40.694C44.0173 40.7783 44.1783 40.7937 44.278 40.832C44.8147 40.188 45.2824 39.5363 45.8344 38.9689C47.7818 36.9525 50.1279 35.7718 52.9647 35.6414C54.2068 35.5801 55.4488 35.4881 56.6985 35.4038C56.9439 35.3884 57.1969 35.3654 57.4269 35.2888C57.6569 35.2121 57.8563 34.9514 58.0633 34.9591C58.2856 34.9591 58.5156 35.1278 58.7686 35.0971C59.0677 35.0588 59.359 35.0204 59.658 34.9744C59.8267 34.9514 60.0184 34.7214 60.0184 34.5451C60.026 34.1004 60.0337 33.6557 60.0414 33.0193H60.026Z" fill="#F1EDE4"/>
<path d="M27.7705 33.9933C28.1615 33.978 28.5602 33.9167 28.9512 33.9473C30.9907 34.1083 32.9764 34.484 34.8088 35.4271C34.8548 35.4501 34.8932 35.4807 34.9392 35.5037C35.1769 35.6341 35.3149 35.8411 35.2152 35.9254C35.0848 36.0328 34.9392 36.0174 34.8012 35.9638C34.3871 35.7951 33.9808 35.6264 33.5668 35.4424C32.6084 35.0207 31.6117 34.737 30.5843 34.5454C29.6643 34.3767 28.7519 34.139 27.7705 33.9857V33.9933Z" fill="#F1EDE4"/>
<path d="M20.272 34.8828C20.3794 34.7831 20.4637 34.6298 20.5864 34.5991C21.4911 34.3844 22.3958 34.1774 23.3158 34.0701C23.4998 34.0471 23.6762 34.1467 23.6225 34.2464C23.5765 34.3231 23.5075 34.4381 23.4385 34.4458C22.3728 34.5608 21.3224 34.8521 20.249 34.8598L20.272 34.8828Z" fill="#F1EDE4"/>
<path d="M40.2445 60.2528C40.1449 60.3525 40.0682 60.4752 39.9532 60.5519C39.7922 60.6515 39.6082 60.7359 39.4242 60.7895C39.0101 60.9045 38.5885 60.9889 38.2128 61.0809C38.0518 60.9889 38.0748 60.9429 38.2051 60.8739C38.7188 60.5979 39.2555 60.3832 39.8152 60.2452C39.9532 60.2145 40.0989 60.2452 40.2445 60.2528Z" fill="#F1EDE4"/>
<path d="M45.3588 53.1147C45.2591 53.8508 44.9524 54.5025 44.5691 55.1235C44.4694 55.2845 44.3314 55.4302 44.1167 55.4455L44.1397 55.4685C44.385 54.6022 44.7071 53.9428 45.2438 53.1991C45.2668 53.1684 45.3281 53.1607 45.3741 53.1454L45.3588 53.1224V53.1147Z" fill="#F1EDE4"/>
<path d="M11.0716 39.46C10.7342 39.9277 10.3586 40.3647 9.8372 40.6714C9.82186 40.679 9.75286 40.6407 9.72986 40.61C9.70686 40.5794 9.69152 40.5104 9.70686 40.4797C10.0289 39.989 10.4122 39.5597 10.9642 39.322C10.9719 39.322 11.0179 39.391 11.0716 39.46Z" fill="#F1EDE4"/>
<path d="M4.20965 49.7949C4.36299 50.3163 4.501 50.7226 4.60067 51.1366C4.63134 51.2593 4.57767 51.4126 4.524 51.5353C4.478 51.635 4.32466 51.451 4.24032 51.1673C4.11765 50.7533 4.03331 50.3393 4.20965 49.7949Z" fill="#F1EDE4"/>
<path d="M45.0443 45.6011C45.581 46.0611 45.8417 46.6668 45.949 47.3492L45.9643 47.3262C45.5043 46.8355 45.19 46.2605 45.052 45.6011H45.0366H45.0443Z" fill="#F1EDE4"/>
<path d="M44.9751 55.714C45.1668 55.07 45.5118 54.518 45.9565 54.0119L45.9335 53.9889C45.8415 54.6866 45.6191 55.3153 45.0594 55.7907L44.9751 55.714Z" fill="#F1EDE4"/>
<path d="M17.1977 61.4335C16.523 61.4871 15.9174 61.3491 15.4267 60.8431L15.396 60.8661C16.04 60.9045 16.6304 61.0961 17.1671 61.4565L17.1901 61.4335H17.1977Z" fill="#F1EDE4"/>
<path d="M41.9927 41.622C41.9927 41.668 41.9927 41.7446 41.9773 41.7523C41.801 41.8136 41.7243 41.6603 41.6247 41.5683C41.525 41.4763 41.5403 41.3613 41.64 41.3689C41.732 41.3689 41.8163 41.4533 41.9007 41.5069C41.939 41.5299 41.962 41.5836 41.985 41.622H41.9927Z" fill="#F1EDE4"/>
<path d="M7.03117 53.3831C6.48681 53.5211 6.31814 53.4061 6.14947 52.7621L6.12646 52.7851C6.2338 52.7851 6.34114 52.7851 6.44848 52.7851L6.41781 52.7621C6.47915 52.9231 6.57882 53.0381 6.74749 53.0917L6.71683 53.0611C6.77049 53.2297 6.8625 53.3524 7.04651 53.3907H7.03117V53.3831Z" fill="#F1EDE4"/>
<path d="M20.2493 34.8596C20.0653 34.921 19.8813 34.99 19.6973 35.0513C19.6513 35.0667 19.5746 35.0513 19.5593 35.0283C19.4903 34.921 19.5363 34.8673 19.682 34.8673C19.8813 34.8673 20.073 34.8673 20.2723 34.875L20.2493 34.8596Z" fill="#F1EDE4"/>
<path d="M6.47906 44.4203C6.47906 44.014 6.76274 43.7686 7.01575 43.5156L6.99275 43.4926C6.93908 43.8683 6.73973 44.1596 6.45605 44.3973L6.47906 44.4203Z" fill="#F1EDE4"/>
<path d="M5.24468 45.9002C5.26768 45.4938 5.51303 45.2255 5.81971 45.0031L5.79671 44.9801C5.79671 45.4095 5.62803 45.7162 5.22168 45.8772L5.24468 45.9002Z" fill="#F1EDE4"/>
<path d="M45.0595 55.7906C45.0595 55.9976 44.9752 56.1509 44.8065 56.2659C44.7682 56.2889 44.7145 56.3196 44.6762 56.3119C44.5535 56.2889 44.5228 56.2122 44.5918 56.1049C44.6915 55.9516 44.7605 55.7599 44.9752 55.7216L45.0595 55.7982V55.7906Z" fill="#F1EDE4"/>
<path d="M34.0191 61.495C34.1494 61.3339 34.3104 61.2343 34.5174 61.2036C34.7168 61.1729 34.9085 61.1576 35.1078 61.1269H35.0848C34.7935 61.4566 34.3794 61.4183 33.9961 61.472L34.0191 61.495Z" fill="#F1EDE4"/>
<path d="M9.41553 57.5924C9.62254 57.5924 9.82955 57.5924 10.0289 57.5924L9.99822 57.5618C10.0672 57.6844 10.1439 57.7994 10.2052 57.9221C10.2436 58.0064 10.2666 58.0908 10.3049 58.1828L10.3279 58.1598C9.91388 58.1521 9.6302 57.9298 9.43853 57.5771L9.41553 57.6001V57.5924Z" fill="#F1EDE4"/>
<path d="M41.709 59.3558C41.5173 59.7008 41.2336 59.9079 40.835 59.9462L40.858 59.9692C41.0113 59.5705 41.364 59.4632 41.732 59.3788L41.709 59.3558Z" fill="#F1EDE4"/>
<path d="M4.93048 46.4906C4.93048 46.6286 4.93048 46.7666 4.90747 46.9046C4.90747 46.9429 4.84614 47.0043 4.82314 47.0043C4.7158 46.9889 4.6698 46.9123 4.6928 46.7973C4.72347 46.6439 4.79247 46.5366 4.96114 46.5213L4.93814 46.4983L4.93048 46.4906Z" fill="#F1EDE4"/>
<path d="M15.6948 36.3165C15.5951 36.5771 15.3805 36.6385 15.1351 36.6461L15.0508 36.5465C15.2118 36.2858 15.4571 36.2781 15.7178 36.3395L15.6948 36.3165Z" fill="#F1EDE4"/>
<path d="M14.5217 36.9297C14.5677 36.6154 14.8207 36.6 15.0507 36.554L15.135 36.6537C14.997 36.9067 14.767 36.9527 14.5063 36.9144L14.5217 36.9297Z" fill="#F1EDE4"/>
<path d="M13.9315 37.2211C14.0389 36.945 14.2612 36.899 14.5219 36.922L14.5066 36.9067C14.4069 37.2134 14.1616 37.2211 13.9009 37.1981L13.9239 37.2211H13.9315Z" fill="#F1EDE4"/>
<path d="M13.6172 37.5277C13.5482 37.5584 13.4792 37.5967 13.4102 37.6274C13.4408 37.5967 13.4638 37.5584 13.4945 37.5507C13.5405 37.5354 13.5942 37.5507 13.6402 37.5507L13.6172 37.5277Z" fill="#F1EDE4"/>
<path d="M5.22152 45.877C5.23686 46.1377 5.22152 46.3754 4.93018 46.4904L4.95318 46.5134C4.93018 46.2527 4.94551 46.0074 5.24452 45.9L5.22152 45.877Z" fill="#F1EDE4"/>
<path d="M45.9492 47.3507C45.998 47.3669 45.9492 47.3344 45.9655 47.3263L45.9492 47.3507Z" fill="#F1EDE4"/>
<path d="M5.84276 52.4632C5.57442 52.3329 5.59742 52.0799 5.58208 51.8422L5.55908 51.8652C5.65109 51.8958 5.73542 51.9035 5.83509 51.8805V51.8575C5.82743 52.0645 5.82743 52.2715 5.82743 52.4862L5.84276 52.4632Z" fill="#F1EDE4"/>
<path d="M6.14165 51.8881C6.23366 52.0875 6.32566 52.2868 6.41767 52.4861L6.44833 52.4708H6.11865L6.14165 52.5015C6.14165 52.2945 6.14165 52.0798 6.14165 51.8728V51.8958V51.8881Z" fill="#F1EDE4"/>
<path d="M45.3737 53.1379C45.3891 53.0689 45.4044 52.9999 45.4197 52.9309C45.4197 52.9539 45.4121 52.9845 45.4044 53.0075C45.3891 53.0459 45.3737 53.0765 45.3584 53.1149L45.3814 53.1379H45.3737Z" fill="#F1EDE4"/>
<path d="M45.9566 54.0119C45.9719 53.9352 45.9949 53.8509 46.0103 53.7742C46.0333 53.7819 46.0639 53.7972 46.0869 53.8049C46.0333 53.8662 45.9796 53.9276 45.9336 53.9889L45.9566 54.0119Z" fill="#F1EDE4"/>
<path d="M43.8481 56.0667C43.8941 55.8443 43.8865 55.5913 44.1395 55.461L44.1165 55.438C44.1318 55.6986 43.9862 55.8826 43.8481 56.0743V56.059V56.0667Z" fill="#F1EDE4"/>
<path d="M10.0292 57.5846C10.0292 57.4773 10.0292 57.3776 10.0369 57.2703L10.0139 57.2933C10.2132 57.3776 10.4126 57.462 10.6119 57.554C10.4049 57.554 10.1979 57.554 9.99854 57.554L10.0292 57.5846Z" fill="#F1EDE4"/>
<path d="M10.9262 58.4511C10.6655 58.4818 10.4202 58.4665 10.3282 58.1521L10.3052 58.1751C10.5659 58.1521 10.7882 58.1981 10.9032 58.4741L10.9262 58.4511Z" fill="#F1EDE4"/>
<path d="M10.9033 58.474C11.0183 58.4817 11.164 58.4357 11.1487 58.6351C11.1487 58.6504 11.049 58.6734 11.0413 58.6581C10.9953 58.589 10.9647 58.52 10.934 58.4434L10.911 58.4664L10.9033 58.474Z" fill="#F1EDE4"/>
<path d="M40.2445 60.2529C40.3442 59.9232 40.6048 59.9539 40.8578 59.9692L40.8348 59.9462C40.7275 60.2299 40.4975 60.2682 40.2368 60.2529H40.2445Z" fill="#F1EDE4"/>
<path d="M15.4265 60.8432C15.3192 60.7972 15.1351 60.8662 15.1428 60.6668C15.1428 60.6285 15.3115 60.5978 15.3958 60.5672C15.3958 60.6592 15.3958 60.7665 15.3958 60.8662L15.4265 60.8432Z" fill="#F1EDE4"/>
<path d="M35.108 61.1269C35.108 61.1269 35.177 61.1346 35.2153 61.1423C35.1693 61.1423 35.131 61.1269 35.085 61.1269H35.108Z" fill="#F1EDE4"/>
<path d="M17.1748 61.4641C17.2438 61.5101 17.3051 61.5485 17.3741 61.5945C17.3358 61.5868 17.2898 61.5868 17.2745 61.5638C17.2438 61.5331 17.2285 61.4795 17.2055 61.4411L17.1825 61.4641H17.1748Z" fill="#F1EDE4"/>
<path d="M33.9962 61.472L33.7969 61.5563C33.7969 61.5563 33.8582 61.5103 33.8889 61.495C33.9272 61.4797 33.9809 61.495 34.0192 61.4873L33.9962 61.4643V61.472Z" fill="#F1EDE4"/>
<path d="M15.7178 36.3393C15.7255 36.301 15.7408 36.2166 15.7408 36.2166C15.8405 36.2243 15.8252 36.2626 15.6948 36.3163L15.7178 36.3393Z" fill="#F1EDE4"/>
<path d="M13.9085 37.1982C13.9085 37.3975 13.7859 37.4742 13.6172 37.5279L13.6402 37.5509C13.6249 37.3439 13.7399 37.2519 13.9315 37.2212L13.9085 37.1982Z" fill="#F1EDE4"/>
<path d="M7.361 43.1942L7.37645 43.1478L7.33008 43.171L7.361 43.1942Z" fill="#F1EDE4"/>
<path d="M7.01616 43.5158C7.13117 43.4084 7.24618 43.3011 7.35351 43.1937L7.33051 43.1707C7.21551 43.2781 7.1005 43.3854 6.99316 43.5004L7.01616 43.5234V43.5158Z" fill="#F1EDE4"/>
<path d="M6.45644 44.3974C6.3491 44.4894 6.24943 44.5891 6.14209 44.6811L6.16509 44.7041C6.19576 44.5277 6.31076 44.4357 6.47944 44.4204L6.45644 44.3974Z" fill="#F1EDE4"/>
<path d="M6.13422 44.6812C6.08055 44.8499 5.98088 44.9649 5.79688 44.9726L5.81988 44.9956C5.88121 44.8422 5.98855 44.7349 6.15722 44.7042L6.13422 44.6812Z" fill="#F1EDE4"/>
<path d="M45.0522 45.5938L45.0059 45.5628L45.0445 45.6015L45.0522 45.5938Z" fill="#F1EDE4"/>
<path d="M5.5819 51.8498L5.49756 51.8422L5.55889 51.8728L5.5819 51.8498Z" fill="#F1EDE4"/>
<path d="M5.83516 51.888C5.93483 51.796 6.04217 51.8113 6.14184 51.888L6.14951 51.865C6.04217 51.865 5.93483 51.865 5.81982 51.865V51.888H5.83516Z" fill="#F1EDE4"/>
<path d="M6.14184 52.7698C5.95016 52.7622 5.86583 52.6395 5.83516 52.4708L5.81982 52.4938C5.92716 52.4938 6.0345 52.4938 6.14184 52.4938C6.14184 52.4938 6.11884 52.4708 6.11884 52.4632C6.11884 52.5705 6.11884 52.6778 6.11884 52.7852L6.14184 52.7622V52.7698Z" fill="#F1EDE4"/>
<path d="M6.41797 52.4862C6.51764 52.5858 6.61731 52.6855 6.71698 52.7775L6.74765 52.7622C6.64031 52.7622 6.52531 52.7622 6.41797 52.7622L6.44864 52.7852C6.44864 52.6778 6.44864 52.5705 6.44864 52.4555L6.41797 52.4708V52.4862Z" fill="#F1EDE4"/>
<path d="M6.7168 52.7774C6.82414 52.877 6.92381 52.969 7.03114 53.0687H7.04648C6.93914 53.0687 6.82414 53.0687 6.7168 53.0687L6.74746 53.0994C6.74746 52.9921 6.74746 52.877 6.74746 52.7697L6.7168 52.785V52.7774Z" fill="#F1EDE4"/>
<path d="M7.03125 53.0688C7.03125 53.1762 7.03125 53.2835 7.03125 53.3909H7.04658C7.04658 53.2835 7.04658 53.1685 7.04658 53.0612H7.03125V53.0688Z" fill="#F1EDE4"/>
<path d="M43.8486 56.082L43.8022 56.1207L43.8486 56.0666V56.082Z" fill="#F1EDE4"/>
<path d="M8.81006 56.9482C8.90973 57.0479 9.0094 57.1476 9.10907 57.2549L9.13207 57.2319C8.97107 57.1936 8.87906 57.0786 8.83306 56.9252L8.81006 56.9482Z" fill="#F1EDE4"/>
<path d="M9.43871 57.5694C9.27771 57.5157 9.17037 57.4084 9.1397 57.232L9.1167 57.255C9.27771 57.3087 9.38505 57.416 9.41571 57.5924L9.43871 57.5694Z" fill="#F1EDE4"/>
<path d="M10.6118 57.5539L10.6659 57.5925L10.6195 57.5616L10.6118 57.5539Z" fill="#F1EDE4"/>
<path d="M42.0543 59.0413L42.0849 58.9799L42.0312 59.0183L42.0543 59.0413Z" fill="#F1EDE4"/>
<path d="M42.0311 59.0184C41.9238 59.1334 41.8165 59.2485 41.7168 59.3635L41.7398 59.3865C41.8471 59.2715 41.9545 59.1641 42.0618 59.0491L42.0388 59.0261L42.0311 59.0184Z" fill="#F1EDE4"/>
<path d="M15.4037 60.5674L15.4424 60.521L15.396 60.5597L15.4037 60.5674Z" fill="#F1EDE4"/>
<path d="M42.0695 18.9812C42.1309 18.9122 42.1845 18.8049 42.2612 18.7742C43.1659 18.3602 44.1243 18.1685 45.1057 18.0842C45.2437 18.0688 45.3894 18.1378 45.5427 18.1608C45.4737 18.2528 45.4354 18.3448 45.3664 18.3832C45.236 18.4522 45.098 18.5135 44.9523 18.5442C44.086 18.6975 43.2119 18.8355 42.3455 18.9735C42.2535 18.9889 42.1462 18.9659 42.0542 18.9582L42.0695 18.9812Z" fill="#F1EDE4"/>
<path d="M30.3006 26.0732L30.385 25.5288L30.3543 25.5672C30.5613 25.5519 30.6687 25.4368 30.684 25.2375L30.6533 25.2682C30.983 25.2682 31.1363 24.9922 31.351 24.8082C31.443 24.7315 31.5274 24.7315 31.581 24.8158C31.5964 24.8465 31.581 24.9078 31.5657 24.9462C31.2667 25.4368 30.937 25.9045 30.4386 26.2189C30.3926 26.1729 30.3466 26.1269 30.293 26.0732H30.3006Z" fill="#F1EDE4"/>
<path d="M51.04 19.5181C50.8943 19.5334 50.741 19.6024 50.6106 19.5641C50.1506 19.4184 49.7059 19.2497 49.2613 19.0657C49.1922 19.035 49.1539 18.9277 49.1079 18.8587C49.1922 18.8204 49.2842 18.736 49.3456 18.7514C49.9513 18.9124 50.5723 19.0427 51.017 19.5411L51.04 19.5181Z" fill="#F1EDE4"/>
<path d="M30.3849 25.5288C30.1933 25.6669 30.0093 25.8125 29.8176 25.9352C29.7026 26.0042 29.5722 26.0502 29.4419 26.1039L29.4649 26.1269C29.6489 25.5748 29.9939 25.1378 30.4233 24.7621C30.4846 24.7085 30.5919 24.6931 30.6763 24.6625L30.661 24.6471C30.661 24.8542 30.661 25.0612 30.661 25.2682L30.6916 25.2375C30.4846 25.2528 30.3849 25.3755 30.3619 25.5672L30.3926 25.5288H30.3849Z" fill="#F1EDE4"/>
<path d="M36.0969 20.4993C36.3959 20.1696 36.7869 20.1543 37.1856 20.1926C37.2546 20.1926 37.3159 20.2999 37.3773 20.3536C37.3389 20.3843 37.2929 20.4303 37.2546 20.4303C36.8636 20.4456 36.4726 20.4609 36.0815 20.4763L36.1045 20.4993H36.0969Z" fill="#F1EDE4"/>
<path d="M42.0157 20.1389C41.8854 20.3612 41.6784 20.4302 41.4407 20.4532C41.2567 20.4686 41.0727 20.4762 40.8887 20.4916L40.9117 20.5146C41.0037 20.3382 41.134 20.2156 41.341 20.2002C41.571 20.1772 41.8087 20.1772 42.0387 20.1696L42.0157 20.1466V20.1389Z" fill="#F1EDE4"/>
<path d="M34.9239 20.7983C35.2459 20.4226 35.6752 20.484 36.0969 20.4916L36.0739 20.4686C35.9053 20.6527 35.6829 20.7063 35.4529 20.7293C35.2689 20.7447 35.0849 20.76 34.9009 20.783L34.9239 20.7983Z" fill="#F1EDE4"/>
<path d="M40.8812 20.4916C40.7125 20.5606 40.5361 20.6296 40.3675 20.6909C40.3291 20.7063 40.2525 20.6909 40.2371 20.6679C40.1605 20.5683 40.2065 20.5146 40.3445 20.5146C40.5285 20.5146 40.7202 20.5146 40.9042 20.5146L40.8812 20.4916Z" fill="#F1EDE4"/>
<path d="M49.7978 18.3832C49.6061 18.3602 49.4144 18.3449 49.2228 18.3219C49.1768 18.3219 49.1384 18.2759 49.1001 18.2529C49.1768 18.2069 49.2458 18.1302 49.3224 18.1225C49.5295 18.1072 49.6905 18.1992 49.7748 18.4062L49.7978 18.3832Z" fill="#F1EDE4"/>
<path d="M50.7179 18.6515C50.3653 18.7051 50.0356 18.6821 49.7979 18.3755L49.7749 18.3985C49.9512 18.3985 50.1199 18.3755 50.2963 18.3831C50.4803 18.3908 50.6183 18.4981 50.6949 18.6668L50.7179 18.6438V18.6515Z" fill="#F1EDE4"/>
<path d="M41.1954 19.2878C41.4177 18.9965 41.7321 18.9582 42.0694 18.9812L42.0541 18.9582C41.9621 19.1422 41.7934 19.2112 41.5941 19.2342C41.456 19.2495 41.3104 19.2572 41.1724 19.2648L41.1954 19.2878Z" fill="#F1EDE4"/>
<path d="M42.031 20.1619C42.0616 20.0009 42.1843 19.9396 42.33 19.9166C42.445 19.9013 42.5216 19.9396 42.537 20.0546C42.537 20.0776 42.468 20.1236 42.4296 20.1313C42.2916 20.1389 42.1536 20.1313 42.0156 20.1389L42.0386 20.1619H42.031Z" fill="#F1EDE4"/>
<path d="M34.8547 21.8409C34.778 21.8409 34.7013 21.8333 34.6323 21.8256C34.6553 21.7949 34.6783 21.7566 34.7013 21.7489C34.7397 21.7336 34.7857 21.7413 34.824 21.7489C34.8393 21.7489 34.8393 21.8103 34.8547 21.8409Z" fill="#F1EDE4"/>
<path d="M27.3183 28.2429H27.2109C27.2109 28.1662 27.2109 28.0972 27.2109 28.0206C27.2493 28.0206 27.3183 28.0206 27.3183 28.0206C27.3183 28.0896 27.3183 28.1662 27.3183 28.2429Z" fill="#F1EDE4"/>
<path d="M51.2852 18.9813C51.0628 18.9276 50.7945 18.9506 50.7178 18.6593L50.6948 18.6823C50.9325 18.6823 51.1778 18.6823 51.2622 18.9736H51.2852V18.9813Z" fill="#F1EDE4"/>
<path d="M41.1723 19.2649C41.1033 19.3033 41.0343 19.3493 40.9653 19.3876C40.996 19.3646 41.019 19.3339 41.0497 19.3186C41.0957 19.3033 41.1417 19.2956 41.1953 19.2879L41.1723 19.2649Z" fill="#F1EDE4"/>
<path d="M34.9008 20.7831C34.8395 20.8061 34.7781 20.8367 34.7168 20.8597C34.7858 20.8367 34.8548 20.8214 34.9238 20.7984L34.9008 20.7831Z" fill="#F1EDE4"/>
<path d="M32.4243 21.3426C32.3246 21.6186 32.0869 21.6033 31.8569 21.6186L31.8799 21.6416C32.0179 21.4423 32.2326 21.3963 32.4473 21.3503L32.4243 21.3349V21.3426Z" fill="#F1EDE4"/>
<path d="M28.583 25.5443C28.675 25.3526 28.767 25.1533 28.859 24.9616L28.836 24.9386C28.8207 25.1686 28.7593 25.3756 28.583 25.5366V25.5443Z" fill="#F1EDE4"/>
<path d="M29.4417 26.1038C29.4264 26.1805 29.4111 26.2648 29.3957 26.3415C29.365 26.3338 29.3344 26.3185 29.3037 26.3108C29.3574 26.2495 29.411 26.1882 29.4647 26.1268L29.4417 26.1038Z" fill="#F1EDE4"/>
<path d="M58.2319 27.5837C58.1015 27.4917 58.2395 27.6221 58.2089 27.6067L58.2319 27.5837Z" fill="#F1EDE4"/>
<path d="M58.2084 27.6067C58.239 27.668 58.2774 27.7217 58.308 27.783C58.2927 27.76 58.2697 27.7294 58.2544 27.7064C58.239 27.668 58.2314 27.6297 58.2237 27.5837L58.2007 27.6067H58.2084Z" fill="#F1EDE4"/>
<path d="M51.27 18.9735L51.3314 18.9965L51.293 18.9811L51.27 18.9735Z" fill="#F1EDE4"/>
<path d="M51.0171 19.5409L51.0478 19.6023L51.0401 19.5179L51.0171 19.5409Z" fill="#F1EDE4"/>
<path d="M54.6202 21.6417C54.4285 21.611 54.3518 21.4883 54.3365 21.312L54.3135 21.335C54.4055 21.4423 54.5051 21.5573 54.5972 21.6647L54.6202 21.6417Z" fill="#F1EDE4"/>
<path d="M31.8571 21.6188C31.7651 21.7338 31.6731 21.8488 31.5811 21.9561C31.6807 21.8488 31.7804 21.7491 31.8801 21.6418L31.8571 21.6188Z" fill="#F1EDE4"/>
<path d="M54.5977 21.6647C54.7663 21.7031 54.8737 21.7951 54.8967 21.9638L54.9197 21.9408C54.728 21.9331 54.6283 21.8258 54.6207 21.6341L54.5977 21.6571V21.6647Z" fill="#F1EDE4"/>
<path d="M31.5738 21.9562L31.5352 22.0103L31.5738 21.9562Z" fill="#F1EDE4"/>
<path d="M54.8965 21.9636C55.0882 21.9713 55.1878 22.071 55.1955 22.2626L55.2185 22.2396C55.0115 22.2473 54.9118 22.1476 54.9195 21.9406L54.8965 21.9636Z" fill="#F1EDE4"/>
<path d="M55.51 22.5234C55.3337 22.5158 55.2263 22.4237 55.211 22.2474L55.188 22.2704C55.3567 22.2934 55.4563 22.3854 55.487 22.5464L55.51 22.5234Z" fill="#F1EDE4"/>
<path d="M55.7935 22.8684C55.7015 22.7534 55.6018 22.6384 55.5098 22.5233L55.4868 22.5463C55.5865 22.646 55.6862 22.7534 55.7858 22.853V22.8684H55.7935Z" fill="#F1EDE4"/>
<path d="M55.7856 22.8531L55.847 22.8991L55.7933 22.8684L55.7856 22.8531Z" fill="#F1EDE4"/>
<path d="M31.2743 24.0338C31.167 24.1335 31.0596 24.2332 30.96 24.3328L30.983 24.3558C31.029 24.1872 31.144 24.1028 31.305 24.0568L31.282 24.0338H31.2743Z" fill="#F1EDE4"/>
<path d="M30.9601 24.3406C30.9448 24.5246 30.8605 24.6396 30.6611 24.6473L30.6765 24.6626C30.6918 24.4786 30.7991 24.3789 30.9831 24.3636L30.9601 24.3406Z" fill="#F1EDE4"/>
<path d="M28.8589 24.9539C28.9279 24.8005 29.0353 24.6932 29.204 24.6548L29.181 24.6318C29.1196 24.7928 29.0123 24.9002 28.8359 24.9308L28.8589 24.9539Z" fill="#F1EDE4"/>
<path d="M28.5837 25.5288L28.5527 25.5829L28.5914 25.5442L28.5837 25.5288Z" fill="#F1EDE4"/>
<path d="M30.4383 26.2189C30.377 26.3186 30.2849 26.4566 30.1776 26.3416C30.0626 26.2342 30.1929 26.1345 30.3003 26.0732C30.3463 26.1192 30.3923 26.1652 30.446 26.2189H30.4383Z" fill="#F1EDE4"/>
<path d="M58.1935 26.457L58.1626 26.4106L58.1935 26.4415V26.457Z" fill="#F1EDE4"/>
<path d="M58.1932 26.4412C58.1932 26.4412 58.2009 26.4872 58.2086 26.5102C58.2852 26.4565 58.2776 26.4412 58.1855 26.4489V26.4412H58.1932Z" fill="#F1EDE4"/>
<path d="M58.7838 27.3385L58.7529 27.2999L58.7761 27.3385H58.7838Z" fill="#F1EDE4"/>
<path d="M58.7759 27.3383L58.8145 27.377L58.7836 27.3383H58.7759Z" fill="#F1EDE4"/>
<path d="M71.848 47.6789C71.8097 47.7555 71.7867 47.9396 71.6793 48.0162C71.3113 48.2616 70.9893 48.5606 70.6366 48.8289C70.5829 48.8749 70.4296 48.8519 70.3606 48.8059C70.2379 48.7293 70.1152 48.6219 70.0386 48.4992C69.8239 48.1696 69.6552 47.8169 69.2489 47.6482C69.1262 47.6022 69.0495 47.4335 68.9652 47.3185C68.8119 47.0962 68.8042 46.7742 68.9269 46.6208C69.0955 46.4138 69.4635 46.3371 69.7472 46.4598C69.9466 46.5442 70.0156 46.7205 70.0692 46.9275C70.1766 47.3109 70.3453 47.4182 70.6826 47.3492C70.9279 47.3032 71.158 47.2112 71.3956 47.1575C71.618 47.1115 71.8863 47.3875 71.8403 47.6865L71.848 47.6789Z" fill="#F1EDE4"/>
<path d="M67.7157 51.4511C67.662 51.5507 67.6237 51.7117 67.524 51.7961C67.3784 51.9187 67.1943 51.9954 67.018 52.0721C66.7113 52.2024 66.4353 52.1794 66.3663 52.0108C66.2973 51.8421 66.2436 51.6427 66.2666 51.4664C66.2896 51.2824 66.3893 51.106 66.4813 50.9374C66.6346 50.6614 66.9567 50.5847 67.225 50.7457C67.4857 50.9067 67.6774 51.106 67.7234 51.4587L67.7157 51.4511Z" fill="#F1EDE4"/>
<path d="M63.6447 57.3931C63.614 57.4314 63.591 57.5004 63.5603 57.5081C63.2306 57.5617 62.901 57.6154 62.5713 57.6461C62.4869 57.6461 62.3643 57.5924 62.3183 57.5234C62.1266 57.2397 61.9503 56.9484 61.7969 56.6494C61.7586 56.5804 61.7892 56.4194 61.8429 56.381C61.9503 56.3044 62.1419 56.22 62.2263 56.266C62.6863 56.5344 63.131 56.8257 63.568 57.1324C63.6293 57.1707 63.6217 57.3087 63.6523 57.4007L63.6447 57.3931Z" fill="#F1EDE4"/>
<path d="M65.2011 55.691C65.1551 55.6833 65.1014 55.6757 65.063 55.6527C64.7334 55.4763 64.603 55.1697 64.603 54.817C64.603 54.7403 64.6797 54.6406 64.7487 54.587C64.9557 54.426 65.2011 54.403 65.4234 54.5333C65.5307 54.5946 65.6304 54.748 65.6457 54.8706C65.6841 55.1697 65.5537 55.4303 65.3237 55.6297C65.2931 55.6603 65.2394 55.668 65.2011 55.691Z" fill="#F1EDE4"/>
<path d="M62.8627 53.8891C62.8397 53.9811 62.8474 54.1038 62.786 54.1574C62.6403 54.2878 62.4793 54.4028 62.303 54.4871C62.1267 54.5715 61.9043 54.4795 61.7893 54.3031C61.682 54.1268 61.613 53.9428 61.7356 53.7434C61.866 53.5288 62.119 53.4597 62.3873 53.5671C62.5637 53.6438 62.7707 53.6821 62.8704 53.8891H62.8627Z" fill="#F1EDE4"/>
<path d="M67.171 46.3142C66.8949 46.3142 66.6956 46.1149 66.7186 45.8542C66.7416 45.5552 66.9026 45.3405 67.1173 45.3175C67.3933 45.2868 67.7076 45.6089 67.6693 45.8695C67.6233 46.1379 67.424 46.3142 67.171 46.3142Z" fill="#F1EDE4"/>
<path d="M60.8538 58.4741C60.7695 58.4204 60.6391 58.3667 60.5471 58.2747C60.4014 58.129 60.3631 57.945 60.4475 57.7534C60.5548 57.5233 60.7541 57.393 60.9995 57.3393C61.0685 57.324 61.1912 57.3777 61.2372 57.439C61.4748 57.7534 61.3675 58.2517 61.0301 58.428C60.9918 58.451 60.9381 58.4434 60.8461 58.4664L60.8538 58.4741Z" fill="#F1EDE4"/>
<path d="M60.1712 45.9768C60.3475 45.9998 60.5392 46.1838 60.5469 46.3525C60.5699 46.6055 60.4932 46.8278 60.2785 46.9812C60.2095 47.0272 60.0945 47.0502 60.0178 47.0272C59.8262 46.9658 59.7112 46.8202 59.6422 46.6285C59.5272 46.2758 59.7955 45.9385 60.1635 45.9768H60.1712Z" fill="#F1EDE4"/>
<path d="M54.582 42.4577C54.5207 42.3963 54.3827 42.312 54.3443 42.197C54.2523 41.8903 54.4977 41.4839 54.789 41.3919C54.9577 41.3383 55.2414 41.4916 55.3794 41.714C55.4714 41.8596 55.4331 42.1433 55.3027 42.243C55.1034 42.3887 54.8964 42.496 54.582 42.4653V42.4577Z" fill="#F1EDE4"/>
<path d="M53.3478 55.5377C53.1178 55.5377 52.9338 55.392 52.8188 55.1007C52.7345 54.9013 52.7958 54.6713 52.9491 54.5716C53.1255 54.4566 53.3172 54.4566 53.5165 54.518C53.6852 54.5716 53.8078 54.7863 53.7695 55.001C53.7388 55.139 53.6852 55.2847 53.6008 55.3997C53.5548 55.4687 53.4398 55.4917 53.3478 55.5377Z" fill="#F1EDE4"/>
<path d="M50.3727 44.9188C50.342 45.2791 50.112 45.3788 49.8744 45.4631C49.6367 45.5551 49.3607 45.3481 49.3837 45.1028C49.399 44.9034 49.4833 44.7271 49.6367 44.5891C49.7747 44.4741 50.0047 44.4664 50.181 44.6121C50.2807 44.6964 50.3267 44.8421 50.3727 44.9188Z" fill="#F1EDE4"/>
<path d="M57.0049 40.6252C56.9819 40.8399 56.8439 40.9626 56.6599 41.0546C56.4758 41.1389 56.2918 41.1542 56.1155 41.0239C56.0772 40.9932 56.0388 40.9549 56.0235 40.9166C55.9392 40.7095 56.0082 40.4029 56.1692 40.2419C56.2995 40.1192 56.5372 40.0885 56.7059 40.1729C56.9052 40.2725 57.0202 40.4489 57.0049 40.6252Z" fill="#F1EDE4"/>
<path d="M66.5272 46.9505C66.7572 46.9659 66.9796 47.2572 66.9259 47.4796C66.8646 47.6942 66.6192 47.8476 66.3509 47.8322C66.2052 47.8246 66.0518 47.6866 66.0442 47.5639C66.0288 47.2342 66.2589 46.9352 66.5272 46.9505Z" fill="#F1EDE4"/>
<path d="M57.5799 53.4904C57.7639 53.4981 57.9249 53.6821 57.9249 53.8814C57.9249 54.1268 57.6949 54.3798 57.4879 54.3721C57.2655 54.3645 57.0279 54.0885 57.0509 53.8738C57.0815 53.6514 57.3115 53.4828 57.5799 53.4904Z" fill="#F1EDE4"/>
<path d="M60.5164 40.9703C60.7617 40.9933 60.9381 41.208 60.9151 41.461C60.8921 41.7294 60.6621 41.9517 60.4627 41.8827C60.225 41.7984 60.0717 41.622 60.041 41.3614C60.0104 41.1543 60.271 40.9397 60.5164 40.9627V40.9703Z" fill="#F1EDE4"/>
<path d="M52.0671 50.3471C52.2511 50.3317 52.4658 50.4697 52.5041 50.6307C52.5885 50.9987 52.3355 51.3054 51.9675 51.2901C51.7834 51.2824 51.6148 51.1214 51.5918 50.9297C51.5534 50.6154 51.7451 50.3777 52.0595 50.3471H52.0671Z" fill="#F1EDE4"/>
<path d="M57.8638 57.1017C57.8331 57.347 57.5724 57.554 57.3578 57.5234C57.1968 57.5004 56.9897 57.2704 56.9897 57.1094C56.9897 56.8947 57.2581 56.6877 57.5111 56.703C57.6951 56.7107 57.8868 56.933 57.8638 57.1017Z" fill="#F1EDE4"/>
<path d="M54.3366 57.0479C54.2753 56.6416 54.6893 56.2659 55.065 56.3809C55.111 56.3962 55.1494 56.4346 55.18 56.4729C55.318 56.6416 55.3027 56.9482 55.1494 57.1476C54.996 57.3469 54.697 57.4159 54.5053 57.2779C54.4363 57.2243 54.398 57.1323 54.3443 57.0556L54.3366 57.0479Z" fill="#F1EDE4"/>
<path d="M50.2116 52.8082C50.2116 52.7392 50.2192 52.7852 50.2116 52.8312C50.1732 52.9845 50.0812 53.0842 49.9279 53.0995C49.8436 53.0995 49.7285 53.0765 49.6595 53.0152C49.3759 52.7699 49.4372 52.3558 49.7746 52.1948C49.9586 52.1028 50.1962 52.2178 50.2116 52.4019C50.2192 52.4939 50.2116 52.5935 50.2116 52.8005V52.8082Z" fill="#F1EDE4"/>
<path d="M50.7253 43.3701C50.7253 43.5771 50.6256 43.7304 50.4416 43.8301C50.2959 43.9068 50.1656 43.8684 50.0506 43.7764C49.8972 43.6384 49.8666 43.4544 49.9969 43.2704C50.0736 43.1631 50.1963 43.0711 50.3189 43.0327C50.4493 42.9944 50.7023 43.2398 50.7176 43.3701H50.7253Z" fill="#F1EDE4"/>
<path d="M67.8152 52.8082C67.8842 52.8542 68.0145 52.9079 68.1065 52.9999C68.1985 53.1072 68.2522 53.2529 68.1755 53.3909C68.1295 53.4676 68.0758 53.5519 68.0068 53.6056C67.8535 53.7282 67.6158 53.7129 67.4855 53.5902C67.3628 53.4752 67.3781 53.3296 67.4088 53.1916C67.4625 52.9462 67.5698 52.8312 67.8228 52.8005L67.8152 52.8082Z" fill="#F1EDE4"/>
<path d="M65.4387 49.5419C65.4233 49.6416 65.4157 49.7412 65.385 49.8332C65.3007 50.0709 64.9557 50.1629 64.7793 50.0019C64.7103 49.9329 64.649 49.8486 64.603 49.7642C64.4343 49.4499 64.58 49.1892 64.948 49.1355C65.2163 49.0972 65.4387 49.2812 65.431 49.5419H65.4387Z" fill="#F1EDE4"/>
<path d="M66.0442 56.9252C66.2512 56.9252 66.4429 57.0863 66.4199 57.2549C66.3816 57.5616 66.2052 57.7533 65.9982 57.7073C65.8219 57.6613 65.6916 57.4926 65.6762 57.2856C65.6609 57.1093 65.8372 56.9329 66.0366 56.9329L66.0442 56.9252Z" fill="#F1EDE4"/>
<path d="M51.3003 55.7138C51.285 55.8979 51.078 56.0972 50.9093 56.0895C50.7483 56.0819 50.549 55.8595 50.5336 55.6832C50.5106 55.4455 50.7713 55.2232 51.0167 55.2692C51.2007 55.3075 51.3233 55.4915 51.3003 55.7138Z" fill="#F1EDE4"/>
<path d="M60.8154 47.8706C60.8384 48.1082 60.6237 48.4456 60.363 48.5376C60.294 48.5606 60.179 48.5223 60.1024 48.4763C59.9644 48.3842 59.949 48.2309 60.0104 48.1006C60.1254 47.8782 60.3094 47.7249 60.5777 47.7479C60.6621 47.7479 60.7311 47.8322 60.8154 47.8782V47.8706Z" fill="#F1EDE4"/>
<path d="M69.3794 48.8289C69.5634 48.8596 69.732 49.0666 69.709 49.2276C69.6784 49.4422 69.4177 49.5956 69.157 49.5573C69.019 49.5343 68.9193 49.3962 68.9347 49.2429C68.95 48.9516 69.134 48.7829 69.3794 48.8212V48.8289Z" fill="#F1EDE4"/>
<path d="M53.7313 43.0327C53.7236 43.1861 53.509 43.3777 53.348 43.3777C53.1793 43.3777 53.0566 43.1784 53.0949 42.9714C53.1256 42.818 53.2176 42.7337 53.3633 42.703C53.5166 42.6647 53.7466 42.8794 53.7313 43.0404V43.0327Z" fill="#F1EDE4"/>
<path d="M59.6961 44.0217C59.6807 44.1828 59.4814 44.3821 59.3204 44.3821C59.167 44.3821 58.96 44.1751 58.9524 44.0141C58.9447 43.8531 59.1517 43.6691 59.328 43.6691C59.5121 43.6691 59.7114 43.8607 59.6961 44.0217Z" fill="#F1EDE4"/>
<path d="M63.9741 45.4249C64.0891 45.5552 64.2195 45.6319 64.2578 45.7469C64.3191 45.9462 64.1351 46.1839 63.9741 46.1609C63.7978 46.1379 63.6061 45.9079 63.6674 45.7469C63.7134 45.6319 63.8438 45.5552 63.9741 45.4249Z" fill="#F1EDE4"/>
<path d="M58.8296 56.3119C59.0672 56.2966 59.2436 56.4422 59.2283 56.6416C59.2129 56.8563 59.0366 57.0326 58.8602 57.0096C58.6686 56.9866 58.5229 56.8026 58.5382 56.5803C58.5459 56.4269 58.6686 56.3196 58.8372 56.3119H58.8296Z" fill="#F1EDE4"/>
<path d="M70.6213 51.2977C70.6597 51.5124 70.5063 51.7117 70.3146 51.7654C70.192 51.796 70.0233 51.704 69.9773 51.5737C69.9006 51.359 70.1153 51.037 70.33 51.0753C70.445 51.0983 70.5447 51.2363 70.6213 51.2977Z" fill="#F1EDE4"/>
<path d="M69.7859 52.9921C69.7015 53.0381 69.5942 53.1378 69.4715 53.1608C69.3335 53.1915 69.2032 53.0228 69.2185 52.8848C69.2339 52.7391 69.3029 52.6088 69.4562 52.5705C69.6325 52.5245 69.8242 52.7391 69.7935 52.9921H69.7859Z" fill="#F1EDE4"/>
<path d="M63.951 44.5968C63.7363 44.5968 63.606 44.4664 63.6213 44.3284C63.6367 44.1521 63.8513 43.9681 64.0047 43.9911C64.1044 44.0064 64.2194 44.1981 64.1657 44.3361C64.1197 44.4511 64.0047 44.5278 63.951 44.5968Z" fill="#F1EDE4"/>
<path d="M50.9171 46.1379C50.9401 46.3909 50.7944 46.5212 50.5644 46.5136C50.4187 46.5136 50.3037 46.3909 50.3114 46.2529C50.3267 46.0382 50.4801 45.8772 50.6641 45.9309C50.7714 45.9615 50.8558 46.0842 50.9171 46.1379Z" fill="#F1EDE4"/>
<path d="M51.1012 47.6635C51.0476 47.7632 51.0092 47.9319 50.9096 47.9855C50.7792 48.0545 50.6642 47.9089 50.5799 47.7939C50.5492 47.7555 50.5186 47.7095 50.5186 47.6712C50.5186 47.5869 50.5186 47.4795 50.5722 47.4105C50.6489 47.3032 50.8866 47.2955 50.9556 47.3875C51.0092 47.4565 51.0399 47.5485 51.1012 47.6712V47.6635Z" fill="#F1EDE4"/>
<path d="M47.4131 44.7118C47.4131 44.5048 47.4131 44.2901 47.4131 44.0831C47.5051 44.0677 47.6048 44.0754 47.6891 44.0371C47.8041 43.9911 47.8808 44.0064 47.9114 44.1061C47.9191 44.1444 47.9268 44.2057 47.9114 44.2364C47.7964 44.4434 47.6814 44.6428 47.4208 44.7041L47.4131 44.7118Z" fill="#F1EDE4"/>
<path d="M60.6698 56.0819C60.6544 56.2353 60.4704 56.381 60.3784 56.2966C60.3171 56.2353 60.2711 56.1356 60.2634 56.0513C60.2557 55.8903 60.4474 55.7523 60.5394 55.8443C60.6008 55.8979 60.6238 56.0053 60.6621 56.0896L60.6698 56.0819Z" fill="#F1EDE4"/>
<path d="M64.8481 57.117C64.7178 57.255 64.6411 57.37 64.5414 57.4237C64.4954 57.4467 64.3651 57.37 64.3114 57.3087C64.2194 57.1937 64.2884 56.9867 64.4264 56.9867C64.5414 56.9867 64.6641 57.0557 64.8481 57.117Z" fill="#F1EDE4"/>
<path d="M58.5536 57.9757C58.5536 58.129 58.4232 58.2594 58.2852 58.244C58.1319 58.2287 58.0092 58.0753 58.0399 57.945C58.0782 57.8147 58.2776 57.6843 58.3849 57.738C58.4616 57.7763 58.4999 57.8837 58.5536 57.968V57.9757Z" fill="#F1EDE4"/>
<path d="M59.3434 58.1061C59.2438 58.1751 59.1594 58.2825 59.1211 58.2595C59.0061 58.2058 58.8834 58.1291 58.8067 58.0295C58.7301 57.9298 58.8221 57.6768 58.9217 57.6768C59.0061 57.6768 59.1134 57.7074 59.1671 57.7611C59.2514 57.8608 59.2974 57.9835 59.3511 58.0985L59.3434 58.1061Z" fill="#F1EDE4"/>
<path d="M52.3124 45.1796C52.2281 45.2179 52.1361 45.2869 52.0517 45.2792C51.9367 45.2639 51.8984 45.1566 51.9367 45.0416C51.9751 44.9265 52.0747 44.8729 52.1744 44.9419C52.2434 44.9879 52.2664 45.0952 52.3124 45.1796Z" fill="#F1EDE4"/>
<path d="M55.8242 52.7084C55.8012 52.877 55.6401 52.992 55.5405 52.9C55.4791 52.8387 55.4255 52.7467 55.4178 52.6624C55.4025 52.532 55.6095 52.4017 55.7091 52.4783C55.7705 52.5243 55.7858 52.6317 55.8242 52.7084Z" fill="#F1EDE4"/>
<path d="M47.4366 44.1136C47.3293 44.1136 47.2219 44.1136 47.1069 44.1136C47.1223 43.853 47.1069 43.577 47.4366 43.4849C47.4366 43.692 47.4366 43.9066 47.4366 44.1136Z" fill="#F1EDE4"/>
<path d="M56.5908 47.6099C56.5448 47.7096 56.4681 47.7556 56.3761 47.702C56.3224 47.6713 56.2918 47.5946 56.2534 47.5333C56.3301 47.5026 56.4068 47.4413 56.4758 47.4489C56.5218 47.4489 56.5524 47.5563 56.5984 47.6176L56.5908 47.6099Z" fill="#F1EDE4"/>
<path d="M49.3687 48.2691C49.3687 48.2691 49.4377 48.3458 49.4377 48.3765C49.4377 48.4071 49.3917 48.4378 49.361 48.4685C49.338 48.4301 49.292 48.3995 49.292 48.3611C49.292 48.3228 49.338 48.2921 49.3687 48.2615V48.2691Z" fill="#F1EDE4"/>
<path d="M70.169 38.1029C70.2533 38.2179 70.353 38.3252 70.422 38.4556C70.4603 38.5322 70.4603 38.6319 70.4756 38.7239C70.376 38.7239 70.261 38.7699 70.1843 38.7316C68.7199 37.8882 67.1328 37.3592 65.5381 36.7842C65.7298 36.6001 65.9444 36.6231 66.1208 36.6768C67.3092 37.0218 68.5129 37.3132 69.6093 37.9035C69.7779 37.9955 69.9773 38.0415 70.1613 38.1029H70.169Z" fill="#F1EDE4"/>
<path d="M75.8271 45.6241C75.9345 45.7238 76.0878 45.7928 76.1338 45.9154C76.5095 46.8355 76.8929 47.7478 77.2225 48.6832C77.4219 49.2429 77.5062 49.8333 77.3529 50.4313C77.3452 50.4696 77.2915 50.5233 77.2532 50.531C77.2225 50.531 77.1689 50.4926 77.1382 50.462C77.1075 50.4313 77.0769 50.3776 77.0692 50.3393C77.0155 49.2813 76.6552 48.3075 76.3255 47.3185C76.1415 46.7588 75.8425 46.2221 75.8501 45.6087L75.8271 45.6317V45.6241Z" fill="#F1EDE4"/>
<path d="M62.97 36.0174C62.9316 36.4391 62.8626 36.5617 62.6326 36.5387C61.8353 36.4467 61.0532 36.5694 60.2635 36.6001C59.9262 36.6154 59.5658 36.6997 59.2515 36.4851C59.3281 36.4314 59.3971 36.3394 59.4815 36.3241C60.3172 36.2167 61.1146 35.8947 61.9733 35.933C62.3183 35.9484 62.6633 36.002 63.0006 36.0404L62.9776 36.0174H62.97Z" fill="#F1EDE4"/>
<path d="M73.8262 41.6373C74.2325 41.8673 74.4242 42.2737 74.6849 42.6264C74.8612 42.8564 74.9609 43.1477 75.2753 43.2474L75.2446 43.2167C75.2063 43.5311 75.3749 43.7841 75.4823 44.0601C75.6816 44.5584 75.9346 45.0568 75.8196 45.6318L75.8426 45.6088C75.7506 45.5015 75.6203 45.4095 75.5666 45.2791C75.0683 44.2058 74.5086 43.1707 73.8492 42.1817C73.7725 42.059 73.7342 41.9133 73.6729 41.7753C73.7189 41.7293 73.7725 41.6833 73.8185 41.645L73.8262 41.6373Z" fill="#F1EDE4"/>
<path d="M73.7648 57.5694C73.5961 57.6 73.4811 57.692 73.4658 57.876C73.1897 57.6844 73.1131 57.554 73.2204 57.4314C74.0255 56.496 74.8152 55.5529 75.8579 54.8782L75.8349 54.8552C75.8579 55.1236 75.7045 55.3229 75.5589 55.5299C75.3595 55.8136 75.0452 56.013 74.9608 56.3733C74.7998 56.4116 74.7078 56.519 74.6618 56.6723C74.5085 56.7183 74.4088 56.818 74.3628 56.9713C74.2095 57.0173 74.1098 57.117 74.0638 57.2704C73.9104 57.3164 73.8031 57.4084 73.7648 57.5694Z" fill="#F1EDE4"/>
<path d="M54.4438 60.7589C54.4438 60.7589 54.4592 60.6669 54.4822 60.6669C54.5742 60.6439 54.6892 60.5826 54.7582 60.6209C55.3946 60.9199 56.1536 60.7206 56.7593 61.1116C56.813 61.1423 56.8206 61.2496 56.836 61.3186C56.836 61.3263 56.7516 61.3799 56.7133 61.3723C55.9312 61.2573 55.1339 61.2266 54.4515 60.7666L54.4438 60.7589Z" fill="#F1EDE4"/>
<path d="M61.4669 61.7556C61.0835 61.7326 60.7002 61.7096 60.2861 61.679C60.3475 61.6023 60.3781 61.518 60.4318 61.5103C60.8458 61.4183 61.2675 61.3339 61.7505 61.2419C61.6202 61.4643 61.5282 61.6253 61.4362 61.7863L61.4669 61.7633V61.7556Z" fill="#F1EDE4"/>
<path d="M45.9569 42.6416C46.0259 42.0742 46.348 41.6909 46.8463 41.4379C46.8693 41.4302 46.9613 41.4916 46.9537 41.5069C46.9383 41.5989 46.923 41.6909 46.8693 41.7676C46.624 42.1279 46.3633 42.4653 45.9263 42.6186L45.9569 42.6493V42.6416Z" fill="#F1EDE4"/>
<path d="M76.2871 49.0283C76.5248 49.243 76.5631 49.5343 76.6244 49.818C76.6321 49.8563 76.6091 49.91 76.5784 49.9407C76.5631 49.956 76.4864 49.956 76.4711 49.9407C76.2334 49.68 76.0801 49.3963 76.2871 49.036V49.0283Z" fill="#F1EDE4"/>
<path d="M69.2797 59.6853C68.8427 60.0227 68.3826 60.2834 67.8076 60.2757L67.8306 60.2987C68.0913 59.8387 68.559 59.7773 69.0113 59.7007C69.1033 59.6853 69.1953 59.7007 69.2874 59.7083V59.6853H69.2797Z" fill="#F1EDE4"/>
<path d="M73.6805 41.7753C73.3201 41.5299 73.0748 41.1849 72.8371 40.8399L72.8218 40.8629C73.3738 40.8475 73.6191 41.2156 73.8185 41.6449C73.7725 41.6909 73.7188 41.7369 73.6728 41.7753H73.6805Z" fill="#F1EDE4"/>
<path d="M70.4529 38.7008C70.6599 38.7008 70.8669 38.7008 71.0739 38.7008C71.0739 38.7468 71.0739 38.8004 71.0739 38.8464C71.0739 39.1761 71.0356 39.2145 70.7902 39.0918C70.6216 39.0151 70.4145 38.9615 70.4529 38.7008Z" fill="#F1EDE4"/>
<path d="M68.973 41.6986C68.7736 41.737 68.605 41.6833 68.4593 41.5453C68.4286 41.5146 68.3903 41.4609 68.398 41.4226C68.421 41.3076 68.4976 41.2923 68.6126 41.3536C68.7737 41.4379 68.9807 41.4763 68.9423 41.7293L68.9653 41.7063L68.973 41.6986Z" fill="#F1EDE4"/>
<path d="M67.8613 41.9133C68.2294 42.0053 68.5284 42.2046 68.7431 42.5189C68.7047 42.5649 68.6741 42.6033 68.6357 42.6493C68.2447 42.5956 67.9304 42.4039 67.708 42.0743C67.754 42.0206 67.8077 41.9669 67.8537 41.9133H67.8613Z" fill="#F1EDE4"/>
<path d="M72.2471 54.886C72.2471 54.679 72.2471 54.472 72.2471 54.265C72.3697 54.2037 72.4924 54.1423 72.6151 54.0886C72.6994 54.0503 72.7838 54.0196 72.8681 53.989L72.8451 53.966C72.8451 54.173 72.8451 54.38 72.8451 54.587L72.8604 54.564C72.6381 54.6407 72.5231 54.9244 72.2471 54.8937V54.886Z" fill="#F1EDE4"/>
<path d="M71.6411 55.1619C71.8481 55.0623 72.0628 54.9549 72.2698 54.8552C72.2545 54.9856 72.2698 55.1313 72.2085 55.2386C72.0551 55.5223 71.8481 55.4839 71.6411 55.1619Z" fill="#F1EDE4"/>
<path d="M67.8001 60.2757C67.6238 60.4367 67.4244 60.5364 67.1791 60.4904C67.1484 60.4904 67.1101 60.4444 67.0948 60.4061C67.0871 60.3907 67.1254 60.3294 67.1408 60.3217C67.3708 60.3064 67.5931 60.2987 67.8231 60.2911L67.8001 60.2681V60.2757Z" fill="#F1EDE4"/>
<path d="M67.708 42.0667C67.6237 42.0284 67.524 42.0131 67.4703 41.9517C67.4243 41.9057 67.432 41.8061 67.4243 41.7294C67.4243 41.7141 67.5163 41.6757 67.5393 41.6911C67.6543 41.7524 67.754 41.8291 67.8613 41.9057C67.8153 41.9594 67.7617 42.0131 67.7157 42.0667H67.708Z" fill="#F1EDE4"/>
<path d="M68.9502 41.7215C69.2032 41.6985 69.4179 41.7752 69.5789 41.9745L69.6019 41.9515C69.3412 41.9822 69.1035 41.9822 68.9732 41.6985L68.9502 41.7215Z" fill="#F1EDE4"/>
<path d="M68.7431 42.5113C68.9654 42.5803 69.1954 42.634 69.2491 42.91L69.2721 42.8793C69.0038 42.933 68.7814 42.8793 68.6357 42.634C68.6741 42.5956 68.7047 42.5496 68.7431 42.5036V42.5113Z" fill="#F1EDE4"/>
<path d="M69.249 42.9176C69.364 42.9252 69.5097 42.8869 69.4867 43.0863C69.4867 43.1016 69.387 43.1169 69.3794 43.1093C69.3334 43.0402 69.3104 42.9636 69.272 42.8946L69.249 42.9252V42.9176Z" fill="#F1EDE4"/>
<path d="M72.8681 53.9888C72.8681 53.7741 72.8527 53.5671 72.8451 53.3524C73.0597 53.5134 73.0827 53.7511 73.1364 53.9811L73.1671 53.9581C73.0597 53.9581 72.9524 53.9581 72.8374 53.9581L72.8604 53.9811L72.8681 53.9888Z" fill="#F1EDE4"/>
<path d="M73.4737 53.9888C73.3664 54.1804 73.2591 54.3721 73.1594 54.5561L73.1747 54.5868C73.1747 54.3798 73.1747 54.1651 73.1747 53.9581L73.144 53.9811C73.2514 53.9811 73.3587 53.9964 73.4661 53.9964L73.4814 53.9811L73.4737 53.9888Z" fill="#F1EDE4"/>
<path d="M76.1646 54.587C76.1799 54.5026 76.1953 54.426 76.2106 54.3416C76.2413 54.3493 76.2719 54.3646 76.3026 54.3723L76.1416 54.564L76.1646 54.587Z" fill="#F1EDE4"/>
<path d="M46.8384 40.2189L46.8921 40.1268L46.8154 40.1958L46.8384 40.2189Z" fill="#F1EDE4"/>
<path d="M46.8151 40.1959C46.8228 40.3723 46.7385 40.4873 46.5928 40.5716C46.5391 40.518 46.4931 40.4643 46.4395 40.4106C46.5391 40.2726 46.6541 40.1806 46.8381 40.2189L46.8151 40.1959Z" fill="#F1EDE4"/>
<path d="M46.125 40.7097C46.2323 40.61 46.332 40.518 46.4393 40.4183C46.493 40.472 46.539 40.5256 46.5927 40.5717C46.5007 40.6867 46.4163 40.794 46.3243 40.909C46.2553 40.84 46.194 40.7787 46.125 40.7097Z" fill="#F1EDE4"/>
<path d="M69.5786 41.9745L69.6016 42.0205V41.9515L69.5786 41.9745Z" fill="#F1EDE4"/>
<path d="M73.458 54.0041L73.504 53.9428L73.4733 53.9888L73.458 54.0041Z" fill="#F1EDE4"/>
<path d="M73.1591 54.5561C73.0594 54.6788 72.9597 54.7095 72.8601 54.5561L72.8447 54.5791C72.9521 54.5791 73.0594 54.5791 73.1744 54.5791L73.1591 54.5485V54.5561Z" fill="#F1EDE4"/>
<path d="M76.1416 54.564C76.111 54.7403 76.0343 54.863 75.835 54.863L75.858 54.886C75.881 54.702 75.9576 54.5793 76.1646 54.587L76.1416 54.564Z" fill="#F1EDE4"/>
<path d="M47.4131 57.2781C47.4131 57.1708 47.4131 57.0558 47.4131 56.9484C47.5204 56.9484 47.6354 56.9484 47.7428 56.9484C47.7044 57.1324 47.5818 57.2244 47.4131 57.2781Z" fill="#F1EDE4"/>
<path d="M69.2878 59.7097C69.2878 59.7097 69.2797 59.6853 69.2878 59.6853C69.2959 59.6853 69.2878 59.7097 69.2878 59.7097Z" fill="#F1EDE4"/>
</g>
<defs>
<clipPath id="clip0_216_113007">
<rect width="76.1182" height="48.0492" fill="white" transform="translate(2.5 16.7578)"/>
</clipPath>
</defs>
</svg>
