<svg width="81" height="81" viewBox="0 0 81 81" fill="none" xmlns="http://www.w3.org/2000/svg">
<g clip-path="url(#clip0_216_117649)">
<path d="M77.4094 22.0408C77.3189 21.1856 77.0532 19.9827 76.2954 19.1067C75.4189 18.0985 74.1748 17.876 73.3209 17.7995C70.5896 17.5562 67.8526 18.4044 65.1779 20.3234C63.9734 21.1925 62.7745 22.2494 61.4117 23.6608C60.8915 24.1962 60.3599 24.7802 59.7266 25.4894C59.6587 25.5659 59.5343 25.7327 59.3816 25.9344C59.1441 26.2542 58.5956 26.9912 58.3977 27.1372C54.3883 26.7826 50.4242 27.9994 46.5959 29.1744C43.9494 29.9879 41.2124 30.8222 38.4868 31.1351C32.9506 31.7747 27.3749 30.266 21.9745 28.8128C19.1357 28.048 16.1951 27.2554 13.2829 26.7757C11.8974 26.5462 10.0709 26.3237 8.2387 26.6296C5.84668 27.026 4.34813 27.8464 3.78264 29.0701C3.07013 30.6136 3.9636 32.6578 4.252 33.2488C4.81184 34.3821 5.58656 35.3137 6.333 36.2107L6.60444 36.5374C9.13218 39.5967 11.3941 42.9966 13.3168 46.6608C15.2677 50.3666 18.0386 53.405 21.3411 55.623C21.3298 55.7829 21.1206 56.0819 20.9679 56.2974C20.6964 56.6798 20.3911 57.1109 20.3911 57.6254C20.3911 61.0601 26.7698 63.7509 34.9072 63.7509C43.0446 63.7509 49.4233 61.0601 49.4233 57.6254C49.4233 57.0205 49.1802 56.6659 48.9427 56.3322C48.8522 56.207 48.7617 56.0749 48.6769 55.922C52.8898 53.4537 56.7464 49.88 59.8566 45.4371C60.8745 45.159 61.8867 44.8044 62.8763 44.3803C63.3627 44.1717 63.849 43.9353 64.3353 43.685C71.3361 40.0556 78.416 31.733 77.4151 22.0338L77.4094 22.0408ZM48.445 56.8536C48.6656 57.1665 48.773 57.3334 48.773 57.6324C48.773 60.2049 43.1973 62.9652 34.9015 62.9652C26.6058 62.9652 21.0301 60.2119 21.0301 57.6324C21.0301 57.4168 21.2506 57.104 21.4485 56.8328C21.6352 56.5686 21.8218 56.3044 21.9179 56.0124C25.7802 58.4459 30.3324 59.7878 35.1447 59.7878C35.5745 59.7878 36.0043 59.7738 36.434 59.753C40.3925 59.5583 44.3622 58.3416 48.0718 56.2696C48.1962 56.506 48.3263 56.7007 48.4394 56.8606L48.445 56.8536ZM64.0752 42.9549C63.6058 43.1983 63.1251 43.4277 62.6558 43.6293C61.6605 44.0604 60.6313 44.415 59.6078 44.6862L59.5004 44.714L59.4268 44.8183C53.5627 53.2451 44.9616 58.5293 36.4114 58.9534C26.8772 59.4262 18.2253 54.5523 13.854 46.2367C11.9031 42.5238 9.6185 39.0752 7.05118 35.9812L6.77974 35.6544C6.06157 34.7923 5.31512 33.8954 4.80053 32.8524C4.29724 31.8304 3.91271 30.405 4.33682 29.4803C4.78356 28.5139 6.19729 27.7838 8.31787 27.4362C8.92295 27.3388 9.53368 27.2971 10.1274 27.2971C11.2471 27.2971 12.3102 27.4362 13.1924 27.5822C16.082 28.055 19.0056 28.8476 21.8331 29.6055C27.2787 31.0725 32.9054 32.5882 38.5433 31.9416C41.3199 31.6218 44.0795 30.7735 46.7486 29.9601C50.5487 28.7989 54.4788 27.5891 58.3977 27.9507C58.6974 27.9785 59.031 27.61 59.8623 26.4906C59.998 26.3098 60.1054 26.1569 60.162 26.0943C60.784 25.392 61.3156 24.815 61.8245 24.2865C63.1591 22.9029 64.3296 21.8669 65.5002 21.0257C68.0562 19.1901 70.6744 18.3766 73.27 18.6061C74.4745 18.7173 75.3001 19.058 75.8543 19.6977C76.3406 20.2539 76.663 21.1299 76.7704 22.152C77.7318 31.4341 70.8667 39.4507 64.0808 42.9688L64.0752 42.9549ZM7.03421 31.74C6.68361 31.5662 6.32169 31.4132 5.95978 31.2116C5.77882 31.1073 5.60352 31.003 5.42256 30.857C5.24161 30.711 5.04934 30.5232 4.93059 30.2034C4.87404 30.0435 4.85142 29.8419 4.88535 29.6611C4.91928 29.4734 4.99279 29.3204 5.07762 29.2022C5.25292 28.9658 5.42822 28.8406 5.60918 28.7155C5.97109 28.4652 6.36128 28.3192 6.74581 28.2079C7.52053 27.9994 8.28394 27.9437 9.04735 27.8673C10.5855 27.7282 12.1406 27.8533 13.6504 28.194C14.4025 28.3679 15.149 28.5973 15.8785 28.8754C16.6023 29.1813 17.3205 29.5012 18.0273 29.8488C17.2752 29.668 16.5344 29.4664 15.7993 29.2509C15.0585 29.0492 14.3177 28.8824 13.5713 28.7433C12.084 28.4652 10.5798 28.3331 9.08694 28.493C8.33484 28.5834 7.57143 28.646 6.86456 28.8476C6.51396 28.9519 6.16901 29.091 5.8693 29.2995C5.72227 29.4038 5.56959 29.529 5.49042 29.6402C5.41125 29.7654 5.4056 29.8349 5.43953 29.9392C5.5187 30.1825 5.8693 30.405 6.19729 30.5858C6.52527 30.7666 6.88718 30.9195 7.24344 31.0864L9.37534 32.0737L17.9142 36.0229C20.7586 37.344 23.5974 38.6581 26.5097 39.6384C29.4163 40.6396 32.3964 41.2862 35.4048 41.3349C38.4132 41.4044 41.4216 40.9734 44.3452 40.1043C47.2745 39.2421 50.0963 37.8654 52.7371 36.0994L53.7267 35.425L54.6824 34.688C55.1122 34.3682 55.525 34.0205 55.9378 33.6659C56.2375 33.4643 56.4524 33.0888 56.5259 32.6508C56.5937 32.2197 56.5146 31.7539 56.294 31.4132C56.0791 31.0725 55.7172 30.8848 55.3044 30.7944C54.8916 30.6971 54.4505 30.6345 54.0208 30.5928C52.279 30.4468 50.5204 30.6971 48.773 31.0377C49.6213 30.711 50.4808 30.4398 51.363 30.2729C52.2451 30.0922 53.1386 30.0157 54.0377 30.0296C54.4901 30.0365 54.9312 30.0783 55.3949 30.1478C55.8473 30.2312 56.3732 30.4328 56.7351 30.9474C57.0574 31.4062 57.1988 32.032 57.1479 32.623L57.4759 32.3171L58.392 31.4966C59.0084 30.9543 59.5852 30.3564 60.2298 29.828C59.7435 30.551 59.2402 31.2741 58.6917 31.9277C58.1206 32.5535 57.572 33.2279 56.95 33.7772L56.0226 34.6185C55.7172 34.9035 55.3779 35.133 55.0613 35.3972L54.0886 36.155L53.082 36.8434C50.396 38.665 47.5176 40.0834 44.5318 40.9803C41.5517 41.8911 38.4698 42.3292 35.3935 42.2457C32.3173 42.1901 29.258 41.5226 26.3118 40.5006C23.3656 39.4785 20.5098 38.1227 17.6767 36.7669L9.16611 32.7273L7.03987 31.7191L7.03421 31.74ZM20.6286 52.7167C20.6286 52.7167 20.3345 52.6889 19.8482 52.4525C19.3675 52.2092 18.689 51.7642 17.9764 51.0202C17.2583 50.2832 16.5175 49.2472 15.7993 48.0305C15.0811 46.8068 14.3516 45.4371 13.5091 44.0535C11.8465 41.2793 10.1727 38.9292 8.91729 37.2744C8.28394 36.454 7.76935 35.7865 7.41874 35.3277C7.06248 34.8688 6.87022 34.6115 6.88718 34.5837C6.90415 34.5628 7.13034 34.7784 7.52053 35.1955C7.90506 35.6197 8.45359 36.2385 9.10956 37.045C10.4158 38.6511 12.1349 40.9873 13.8088 43.7823C14.657 45.1729 15.3808 46.5634 16.0764 47.7802C16.7719 48.9969 17.4675 50.026 18.1461 50.7699C19.5033 52.2856 20.6569 52.6333 20.6229 52.7098L20.6286 52.7167ZM8.30091 33.3809C7.16427 32.8107 6.45741 32.4561 6.48003 32.3935C6.49699 32.3379 7.23213 32.5813 8.39704 33.0749C9.56195 33.5686 11.151 34.3195 12.8701 35.2512C14.5892 36.1898 16.1047 37.1354 17.1848 37.8724C18.2648 38.6024 18.9038 39.11 18.8812 39.1656C18.8529 39.2212 18.1687 38.818 17.066 38.1644C15.9633 37.5108 14.4308 36.607 12.723 35.6753C11.0153 34.7436 9.44885 33.951 8.30656 33.3809H8.30091ZM49.0897 40.5075C47.6533 41.2098 46.2509 41.766 44.956 42.204C43.661 42.6281 42.4791 42.941 41.4838 43.1357C40.9862 43.2469 40.5282 43.3095 40.1323 43.379C39.7365 43.4486 39.3915 43.4833 39.1088 43.5111C38.5433 43.5668 38.2323 43.5807 38.2323 43.5459C38.2323 43.5111 38.5376 43.4416 39.0918 43.3373C39.3689 43.2887 39.7082 43.2261 40.1041 43.1287C40.4999 43.0384 40.9466 42.9549 41.4386 42.8228C42.4282 42.5864 43.5875 42.2457 44.8711 41.8077C46.1435 41.3488 47.5346 40.7856 48.954 40.0903C50.3733 39.3812 51.6966 38.6163 52.8728 37.8654C54.0434 37.1006 55.0782 36.3567 55.9265 35.6892C56.3562 35.3694 56.7295 35.0495 57.0631 34.7784C57.3967 34.5142 57.6795 34.2708 57.9113 34.0692C58.375 33.6729 58.6352 33.4643 58.6521 33.4921C58.6691 33.5199 58.4316 33.7702 57.9962 34.2152C57.7813 34.4377 57.5098 34.7019 57.1819 34.9939C56.8595 35.2859 56.492 35.6266 56.0678 35.9673C55.2366 36.6765 54.2074 37.4483 53.0312 38.2409C51.8493 39.0196 50.5204 39.8053 49.0897 40.5214V40.5075ZM75.7695 22.2146C75.8317 22.5205 75.826 22.7708 75.8147 22.9307C75.7921 23.0906 75.7695 23.1741 75.7582 23.1671C75.7186 23.1671 75.7921 22.8195 75.6338 22.2633C75.4868 21.7279 75.0344 20.977 74.2427 20.6224C73.4397 20.2678 72.3879 20.3929 71.2908 20.7962C70.1825 21.1717 69.0062 21.7696 67.864 22.597C66.7273 23.4313 65.7321 24.4117 64.9291 25.4268C64.1148 26.428 63.5266 27.4848 62.9894 28.347C62.4579 29.2161 61.9489 29.8627 61.5474 30.2312C61.1459 30.5997 60.8858 30.7249 60.8745 30.704C60.8575 30.6692 61.0894 30.4954 61.4513 30.0922C61.8132 29.6958 62.2769 29.0423 62.7745 28.1593C63.2778 27.2832 63.8603 26.1777 64.6802 25.1348C65.4889 24.078 66.5011 23.0628 67.6717 22.2076C68.8423 21.3594 70.0581 20.7545 71.2003 20.3929C72.3257 20.0105 73.4623 19.8923 74.3332 20.3234C75.204 20.7614 75.6507 21.6166 75.7695 22.2146ZM53.8172 28.7294C53.7946 28.6112 54.7502 28.2636 55.966 28.2775C57.1818 28.2844 58.1319 28.6529 58.1093 28.7711C58.0866 28.9032 57.1366 28.7433 55.966 28.7364C54.7955 28.7225 53.8398 28.8615 53.8228 28.7364L53.8172 28.7294ZM60.0772 26.8939C59.7266 27.2693 59.4777 27.457 59.4551 27.4223C59.4268 27.3806 59.6304 27.1302 59.9414 26.72C60.2525 26.3098 60.6709 25.7188 61.1629 25.0931C61.6549 24.4673 62.1582 23.9528 62.5597 23.6538C62.9612 23.3549 63.2439 23.2436 63.2552 23.2853C63.2722 23.334 63.029 23.5148 62.6728 23.8555C62.3108 24.1962 61.8471 24.7176 61.3608 25.3364C60.8745 25.9552 60.4278 26.5184 60.0772 26.8939ZM63.1704 23.7581C63.6002 23.4105 63.9055 23.2923 63.9225 23.327C63.9451 23.3757 63.6737 23.5704 63.2891 23.9528C62.899 24.3283 62.4126 24.9262 61.9037 25.6284C61.3947 26.3307 60.9197 26.9703 60.5409 27.3875C60.162 27.8047 59.8905 28.0063 59.8679 27.9715C59.8397 27.9298 60.0658 27.6656 60.4051 27.2137C60.7444 26.7617 61.1855 26.1082 61.7001 25.399C62.2147 24.6898 62.7406 24.0988 63.176 23.7581H63.1704ZM63.7811 23.8555C64.2448 23.4661 64.5728 23.334 64.5841 23.3688C64.6067 23.4174 64.3127 23.626 63.8999 24.0501C63.4814 24.4673 62.9725 25.1348 62.4409 25.9205C61.9093 26.7061 61.4061 27.4153 60.9932 27.8742C60.5804 28.3331 60.2864 28.5486 60.2638 28.5139C60.2355 28.4721 60.49 28.194 60.8519 27.7004C61.2194 27.2137 61.6888 26.4906 62.226 25.698C62.7632 24.9053 63.3174 24.2379 63.7811 23.8555ZM64.3918 23.9528C64.8838 23.5217 65.2401 23.3688 65.2514 23.4035C65.274 23.4522 64.9517 23.6747 64.5106 24.1405C64.0639 24.5994 63.5323 25.3434 62.9725 26.2125C62.4183 27.0816 61.8924 27.8673 61.4456 28.3609C61.0046 28.8615 60.6822 29.091 60.6653 29.0562C60.637 29.0145 60.9141 28.7225 61.3099 28.1871C61.7058 27.6587 62.1977 26.866 62.7576 25.9969C63.3174 25.1209 63.8942 24.3769 64.3918 23.9528ZM65.0026 24.0501C65.5228 23.5704 65.9074 23.4105 65.9187 23.4452C65.9413 23.4939 65.5963 23.7303 65.127 24.2379C64.8895 24.4882 64.635 24.8219 64.3579 25.1974C64.0865 25.5867 63.8037 26.0247 63.5153 26.4975C62.9385 27.4501 62.3844 28.3053 61.9093 28.8476C61.44 29.3899 61.0894 29.6333 61.0724 29.5985C61.0441 29.5568 61.3495 29.2509 61.768 28.6738C62.1921 28.1036 62.7067 27.2484 63.2891 26.289C63.5832 25.8162 63.8772 25.3712 64.16 24.9818C64.454 24.6064 64.7311 24.2726 64.9969 24.0432L65.0026 24.0501ZM62.5653 35.0704C62.5653 35.0704 62.5766 34.8757 62.6501 34.542C62.7236 34.2082 62.8481 33.7285 63.0234 33.1514C63.374 31.9903 63.9564 30.4328 64.782 28.8337C65.6077 27.2345 66.5068 25.9205 67.208 25.0374C67.5586 24.5925 67.8526 24.2518 68.0732 24.0293C68.2881 23.8068 68.4125 23.6886 68.4238 23.7095C68.4521 23.7512 68.011 24.2865 67.355 25.2043C66.6934 26.1221 65.8338 27.4431 65.0195 29.0214C64.2052 30.5997 63.6002 32.1224 63.21 33.2488C62.8141 34.3751 62.6105 35.0913 62.5653 35.0773V35.0704ZM75.5772 25.246C75.5772 25.246 75.5772 25.6354 75.4811 26.3168C75.385 26.9981 75.1362 27.9646 74.7516 29.1118C73.9939 31.3993 72.4897 34.4099 70.1203 36.8434C68.9553 38.081 67.6887 39.0266 66.4955 39.7497C65.896 40.1182 65.3079 40.4102 64.7425 40.5979C64.177 40.7787 63.6171 40.883 63.1478 40.7787C62.9103 40.7231 62.701 40.6049 62.5483 40.4241C62.3957 40.2433 62.2995 40.0139 62.243 39.7914C62.2204 39.701 62.2091 39.6176 62.1977 39.5272C62.2543 39.6871 62.3391 39.8192 62.4466 39.9235C62.6219 40.0903 62.8424 40.1599 63.0912 40.1599C63.7189 40.1599 64.5332 39.7079 65.3362 39.2212L65.5398 39.103C66.9592 38.2617 68.2824 37.1771 69.4869 35.8839C71.9355 33.2348 73.7111 29.8975 74.6159 26.2125C74.8478 25.2669 75.0909 23.8833 74.5198 22.8125C74.0617 21.9573 73.1513 21.4984 72.1899 21.6306C71.3021 21.7627 70.5331 22.3328 69.9619 22.8264C67.9431 24.5577 66.1958 27.1163 64.7651 30.4328C63.6567 33.0054 62.571 35.7379 62.1469 38.2826C62.1299 38.3939 62.1129 38.5051 62.1073 38.6094C62.0394 38.9431 61.9829 39.3673 62.0846 39.84C62.1412 40.0903 62.2373 40.3546 62.4126 40.577C62.5879 40.7995 62.8311 40.9455 63.0969 41.0081C64.16 41.2237 65.3815 40.7439 66.5973 40.0278C67.8187 39.3116 69.108 38.3591 70.2956 37.1006C72.7102 34.6185 74.2087 31.5384 74.9326 29.1952C75.2945 28.0202 75.5207 27.0329 75.5885 26.3307C75.6225 25.9761 75.6225 25.7049 75.6168 25.5172C75.6055 25.3295 75.5885 25.2391 75.5829 25.2391L75.5772 25.246ZM62.7859 38.4564C63.193 36.016 64.2561 33.3391 65.3419 30.8222C66.7217 27.6169 68.4012 25.1556 70.3351 23.5009C70.8441 23.0628 71.5227 22.5553 72.2691 22.444C72.3483 22.4301 72.4275 22.4301 72.5123 22.4301C73.0495 22.4301 73.6602 22.6735 73.9769 23.2714C74.401 24.064 74.1861 25.2113 73.9939 26.0039C73.123 29.5429 71.4209 32.7551 69.0571 35.3068C67.8979 36.5583 66.6199 37.6012 65.257 38.4078L65.0535 38.5329C64.5445 38.8388 63.1987 39.6523 62.8481 39.3186C62.7406 39.2143 62.7236 38.9084 62.7972 38.4703L62.7859 38.4564ZM67.3946 38.3452C66.8461 38.7484 66.4842 38.957 66.4672 38.9153C66.422 38.8249 67.7735 37.8168 69.2551 36.2871C70.7479 34.7645 71.7998 33.3252 71.862 33.3878C71.8902 33.4156 71.6584 33.8189 71.2343 34.4099C70.8102 35.0009 70.1825 35.7796 69.4304 36.5513C68.6783 37.3231 67.9431 37.9419 67.3946 38.3452ZM67.3098 38.7624C67.2702 38.672 68.5143 37.7472 69.8828 36.3289C71.2569 34.9174 72.2126 33.5686 72.2748 33.6312C72.3313 33.6798 71.4548 35.1538 70.0581 36.5861C68.6669 38.0323 67.338 38.8319 67.3041 38.7554L67.3098 38.7624ZM75.0231 23.8416C75.0909 23.8277 75.2266 24.9123 74.9778 26.2125C74.7347 27.5127 74.2201 28.4096 74.1635 28.3609C74.09 28.3122 74.4745 27.3806 74.7064 26.136C74.9495 24.8984 74.9439 23.8485 75.0231 23.8485V23.8416ZM75.0739 26.581C75.385 25.3017 75.4528 24.217 75.532 24.217C75.6055 24.217 75.6564 25.3503 75.3397 26.6714C75.0287 27.9994 74.4802 28.9171 74.4236 28.8685C74.3501 28.8198 74.7742 27.8533 75.0739 26.574V26.581ZM66.5351 40.7995C66.552 40.8343 66.2071 41.1611 65.602 41.5922C64.9969 42.0232 64.1148 42.5447 63.1138 43.0036C62.1129 43.4625 61.1855 43.8032 60.5126 44.0326C59.8397 44.2551 59.4155 44.3663 59.4042 44.3246C59.3759 44.2203 61.0272 43.5876 63.0177 42.6838C64.0073 42.2249 64.8895 41.7521 65.5115 41.3766C66.1336 41.0081 66.5181 40.7509 66.5407 40.7926L66.5351 40.7995ZM59.8792 40.2503C59.5626 42.1206 58.7087 44.6445 57.1932 46.918C55.6776 49.1916 53.8964 50.763 52.5618 51.7294C51.8945 52.2161 51.329 52.5637 50.9332 52.7862C50.5373 53.0087 50.3111 53.113 50.3055 53.0922C50.2942 53.0713 50.5034 52.9253 50.8823 52.668C51.2612 52.4108 51.804 52.0284 52.4544 51.5208C53.7493 50.5127 55.4854 48.9344 56.9726 46.7025C58.4599 44.4706 59.3194 42.0232 59.6813 40.1946C60.0602 38.3591 60.0319 37.1702 60.0885 37.1702C60.1054 37.1702 60.1224 37.4622 60.1111 37.9975C60.0998 38.5329 60.0376 39.3047 59.8736 40.2433L59.8792 40.2503ZM45.6459 42.5656C45.6345 42.5169 46.381 42.1971 47.5685 41.6547C48.7617 41.1055 50.396 40.3128 52.132 39.263C52.9972 38.7345 53.8059 38.1853 54.5297 37.6569C55.2479 37.1215 55.8812 36.6139 56.3958 36.155C57.4307 35.2512 58.0244 34.6115 58.0584 34.6532C58.0697 34.6741 57.934 34.8479 57.6738 35.1469C57.4137 35.4528 57.0235 35.863 56.5146 36.3497C56.0113 36.8364 55.3836 37.3648 54.6654 37.928C53.9473 38.4773 53.1329 39.0335 52.2621 39.5689C50.5091 40.6327 48.8522 41.3905 47.6364 41.8842C47.0313 42.1275 46.5337 42.3153 46.1887 42.4265C45.8438 42.5377 45.6515 42.5934 45.6459 42.5725V42.5656ZM46.3358 43.3651C46.3244 43.3165 47.0539 42.9758 48.2188 42.3778C49.3837 41.7799 50.9784 40.9038 52.6579 39.7497C53.4949 39.1656 54.2696 38.5746 54.9651 37.9975C55.6494 37.4135 56.2544 36.8712 56.7464 36.3845C57.7304 35.418 58.2959 34.7436 58.3241 34.7853C58.3354 34.7992 58.211 34.987 57.9622 35.2998C57.7191 35.6197 57.3458 36.0577 56.8652 36.5653C56.3902 37.0798 55.7907 37.6499 55.1065 38.2548C54.4166 38.8458 53.6362 39.4576 52.7936 40.0417C51.0972 41.2028 49.4799 42.0511 48.2923 42.5934C47.6986 42.8645 47.2123 43.0662 46.873 43.1913C46.5337 43.3165 46.3414 43.379 46.3358 43.3512V43.3651ZM47.0257 44.1647C47.0087 44.116 47.7325 43.7545 48.8748 43.1079C50.0171 42.4613 51.5722 41.5018 53.1895 40.2503C53.9981 39.6176 54.7446 38.9709 55.4062 38.3591C56.0622 37.7333 56.639 37.1493 57.1027 36.6278C58.0357 35.5988 58.5673 34.8896 58.6012 34.9313C58.6182 34.9452 58.4938 35.1399 58.2676 35.4667C58.0414 35.8004 57.6908 36.2593 57.2384 36.8017C56.786 37.3509 56.2205 37.9558 55.5645 38.6024C54.9029 39.2351 54.1565 39.8957 53.3422 40.5353C51.7079 41.8007 50.1245 42.7324 48.9596 43.3234C48.3772 43.6224 47.8965 43.8449 47.5629 43.977C47.2292 44.116 47.0426 44.1786 47.0313 44.1578L47.0257 44.1647ZM48.2415 44.7627C47.9078 44.9156 47.7269 44.9851 47.7155 44.9643C47.6986 44.9156 48.4111 44.5332 49.5308 43.831C50.6504 43.1357 52.166 42.0928 53.7211 40.737C55.2818 39.3742 56.5711 37.9558 57.4533 36.8573C58.3354 35.7657 58.8331 35.0287 58.8727 35.0634C58.8896 35.0773 58.7765 35.279 58.5616 35.6197C58.3524 35.9673 58.0244 36.4471 57.5947 37.0241C57.1705 37.6012 56.6333 38.2478 56.0113 38.9362C55.3836 39.6176 54.6654 40.3267 53.885 41.0151C52.3073 42.3848 50.7635 43.3999 49.6156 44.0465C49.0445 44.3733 48.5694 44.6097 48.2415 44.7627ZM48.9257 45.5414C48.5977 45.7013 48.4168 45.7847 48.4054 45.7639C48.3885 45.7152 49.0897 45.305 50.1867 44.5541C51.2838 43.8032 52.7597 42.6838 54.2583 41.2237C55.7568 39.7636 56.9783 38.2478 57.8095 37.0937C58.6408 35.9395 59.1045 35.1747 59.1441 35.2025C59.1611 35.2164 59.0593 35.418 58.8614 35.7796C58.6691 36.1411 58.3581 36.6417 57.9622 37.2466C57.1649 38.4495 55.9491 40.0069 54.4336 41.4879C52.9181 42.9619 51.4082 44.0674 50.2829 44.7627C49.7174 45.1103 49.2537 45.3745 48.9257 45.5344V45.5414ZM49.6156 46.3201C49.2933 46.4939 49.1067 46.5843 49.101 46.5634C49.0784 46.5148 49.7796 46.0837 50.854 45.2772C51.9284 44.4776 53.3648 43.2678 54.8011 41.7104C56.2375 40.146 57.3911 38.5468 58.1658 37.3301C58.9462 36.1203 59.3759 35.3137 59.4155 35.3485C59.4325 35.3624 59.3364 35.571 59.1554 35.9465C58.9744 36.3219 58.6917 36.8503 58.3185 37.4761C57.572 38.7345 56.4297 40.3824 54.9821 41.9676C53.5288 43.5459 52.0585 44.7348 50.9502 45.4927C50.396 45.8682 49.9379 46.1532 49.6099 46.327L49.6156 46.3201ZM49.9436 47.3769C49.6156 47.5507 49.4346 47.6411 49.4233 47.6203C49.4007 47.5647 50.1076 47.1405 51.1877 46.334C52.2677 45.5205 53.6984 44.2899 55.1065 42.6699C55.8077 41.8564 56.4354 41.0359 56.9783 40.2572C57.5098 39.4715 57.9735 38.7345 58.3298 38.0949C59.048 36.8156 59.4268 35.9743 59.4721 36.0021C59.489 36.016 59.4099 36.2315 59.2515 36.6278C59.1724 36.8225 59.0706 37.0589 58.9405 37.3301C58.8105 37.6012 58.6747 37.9072 58.4938 38.2339C58.1545 38.9014 57.7078 39.6523 57.1762 40.4658C56.639 41.2654 56.0113 42.1067 55.2988 42.9271C53.8737 44.568 52.4035 45.7847 51.2894 46.5495C50.7353 46.9319 50.2716 47.217 49.9436 47.3908V47.3769ZM50.2716 48.4338C49.9436 48.6076 49.757 48.698 49.7513 48.6771C49.7287 48.6215 50.4469 48.2043 51.527 47.3839C52.607 46.5634 54.0434 45.305 55.4232 43.6224C56.1074 42.7811 56.7125 41.9259 57.2327 41.1124C57.736 40.285 58.1715 39.5202 58.4938 38.8527C59.1498 37.5178 59.4721 36.6209 59.5173 36.6487C59.5343 36.6556 59.4664 36.8851 59.3307 37.2953C59.2629 37.5039 59.178 37.7472 59.0593 38.0254C58.9462 38.3035 58.8218 38.6302 58.6578 38.9709C58.3524 39.6662 57.934 40.4588 57.4307 41.3001C56.9161 42.1345 56.311 43.0105 55.6154 43.8657C54.2187 45.5692 52.7428 46.8137 51.6231 47.5925C51.0632 47.9818 50.5995 48.2669 50.2659 48.4407L50.2716 48.4338ZM50.5995 49.4906C50.2659 49.6644 50.0793 49.7548 50.0736 49.7339C50.051 49.6783 50.7748 49.2611 51.8662 48.4268C52.952 47.5925 54.394 46.3062 55.7455 44.568C56.4184 43.6989 57.0009 42.802 57.4929 41.9607C57.9679 41.0985 58.375 40.3059 58.6578 39.5967C59.2515 38.1992 59.5117 37.2675 59.5569 37.2884C59.5739 37.2953 59.523 37.5317 59.4099 37.9558C59.359 38.1714 59.2855 38.4286 59.1837 38.7206C59.0876 39.0127 58.9801 39.3533 58.8331 39.7079C58.5673 40.438 58.1715 41.2584 57.7021 42.1414C57.2158 43.0105 56.6277 43.9214 55.9434 44.8113C54.5749 46.5773 53.0877 47.8567 51.9624 48.6423C51.3969 49.0317 50.9332 49.3237 50.5939 49.4975L50.5995 49.4906ZM50.9275 50.5474C50.5939 50.7282 50.4016 50.8116 50.396 50.7908C50.3734 50.7351 51.1085 50.318 52.2055 49.4767C53.2969 48.6284 54.7502 47.3144 56.0735 45.5066C56.7295 44.6027 57.2949 43.678 57.7586 42.795C58.1997 41.8981 58.5786 41.0707 58.8331 40.3407C59.359 38.8875 59.5569 37.9211 59.6078 37.9419C59.6248 37.9419 59.5852 38.1922 59.5004 38.6302C59.4608 38.8527 59.4042 39.1169 59.3137 39.4159C59.2346 39.7218 59.1441 40.0695 59.014 40.438C58.7822 41.1958 58.4203 42.0441 57.9792 42.9688C57.5155 43.8727 56.9557 44.8252 56.2827 45.743C54.9369 47.5786 53.444 48.8857 52.313 49.6922C51.7418 50.0885 51.2725 50.3875 50.9332 50.5544L50.9275 50.5474ZM51.2555 51.5973C50.9162 51.7781 50.724 51.8685 50.7183 51.8407C50.6957 51.785 51.4421 51.3679 52.5505 50.5127C53.6532 49.6505 55.1122 48.3017 56.4071 46.4313C57.0518 45.4997 57.589 44.5332 58.0301 43.6154C58.228 43.1426 58.4429 42.7116 58.5899 42.2735C58.6691 42.058 58.7483 41.8494 58.8218 41.6547C58.884 41.4531 58.9462 41.2515 59.0084 41.0637C59.4664 39.555 59.6021 38.5607 59.653 38.5746C59.67 38.5746 59.6474 38.8249 59.5852 39.2769C59.5569 39.4994 59.5173 39.7775 59.4438 40.0903C59.3759 40.4032 59.3081 40.7648 59.195 41.1472C59.1384 41.3419 59.0819 41.5435 59.0253 41.7521C58.9575 41.9607 58.884 42.1692 58.8048 42.3917C58.6634 42.8367 58.4542 43.2887 58.2563 43.7684C57.8209 44.707 57.278 45.6943 56.622 46.6469C55.3044 48.552 53.8002 49.8939 52.6579 50.7143C52.0811 51.1176 51.6061 51.4165 51.2612 51.5903L51.2555 51.5973ZM48.9483 53.6136C48.9483 53.6136 48.6599 53.8639 48.1057 54.2394C47.9644 54.3367 47.8117 54.441 47.642 54.5523C47.4724 54.6635 47.2801 54.7678 47.0765 54.886C46.6637 55.1154 46.2057 55.4005 45.6685 55.6439C45.4027 55.769 45.1256 55.9011 44.8372 56.0402C44.5488 56.1792 44.2378 56.2835 43.9155 56.4156C43.2821 56.6868 42.5866 56.8954 41.8571 57.1248C40.3868 57.535 38.7469 57.8549 37.0108 57.987C35.2748 58.0982 33.6122 58.0009 32.1193 57.7992C31.3729 57.6671 30.6604 57.5628 30.0101 57.3821C29.6821 57.2986 29.3654 57.2291 29.06 57.1387C28.7603 57.0414 28.4719 56.951 28.1948 56.8606C27.6407 56.6937 27.16 56.4782 26.7302 56.3044C26.5153 56.214 26.3174 56.1375 26.1365 56.0541C25.9555 55.9637 25.7915 55.8803 25.6445 55.8038C25.0564 55.5048 24.7397 55.324 24.751 55.2962C24.7793 55.2128 26.0743 55.8803 28.2627 56.5477C28.5341 56.6242 28.8225 56.7076 29.1222 56.798C29.422 56.8815 29.7386 56.9371 30.0666 57.0136C30.7169 57.1804 31.4181 57.2708 32.1589 57.389C33.6405 57.5698 35.2804 57.6463 36.9939 57.542C38.7073 57.4099 40.3302 57.104 41.7836 56.7215C42.5074 56.506 43.1973 56.3113 43.825 56.061C44.1417 55.9428 44.4527 55.8385 44.7411 55.7134C45.0295 55.5882 45.3066 55.4631 45.5723 55.3449C47.6873 54.3784 48.9144 53.5371 48.9483 53.6136ZM23.2129 41.4601C21.5503 40.7648 20.3515 39.7983 20.3967 39.701C20.4476 39.5828 21.703 40.3546 23.3316 41.029C24.9546 41.7173 26.3287 42.0441 26.3118 42.1762C26.3004 42.2944 24.8698 42.1623 23.2072 41.4601H23.2129ZM14.7531 37.5526C13.8031 36.9546 12.9492 36.4192 12.3272 36.0229C11.7108 35.6266 11.3263 35.3763 11.3432 35.3277C11.3772 35.2373 12.9775 36.0507 14.8776 37.2397C15.8276 37.8307 16.6815 38.3799 17.2979 38.7902C17.9142 39.1934 18.2875 39.4576 18.2705 39.4994C18.2366 39.5897 16.6475 38.7345 14.7475 37.5456L14.7531 37.5526ZM14.4987 38.366C12.7457 37.1145 11.3206 36.1203 11.3546 36.0368C11.3885 35.9465 12.8814 36.8156 14.64 38.0671C15.5166 38.6928 16.3026 39.2699 16.8681 39.701C17.4336 40.1321 17.7729 40.4171 17.7559 40.4588C17.7163 40.5423 16.2517 39.6106 14.4987 38.3591V38.366ZM14.2499 39.1795C12.6439 37.8654 11.3263 36.8295 11.3659 36.746C11.4054 36.6626 12.7909 37.5804 14.4025 38.8945C16.0142 40.2085 17.2809 41.3488 17.2356 41.4183C17.1904 41.5018 15.8559 40.4867 14.2499 39.1795ZM14.001 39.993C12.5364 38.6233 11.3376 37.5317 11.3772 37.4552C11.4168 37.3787 12.6948 38.3452 14.1707 39.7218C15.641 41.0916 16.7663 42.3083 16.7211 42.3778C16.6702 42.4543 15.4713 41.3627 14.001 39.993ZM16.2008 43.3373C16.1443 43.4069 15.0811 42.2318 13.7522 40.8065C12.429 39.3742 11.3376 38.2409 11.3885 38.1644C11.4337 38.0879 12.6099 39.1169 13.9388 40.5492C15.2677 41.9815 16.2573 43.2747 16.2008 43.3373ZM13.5091 41.62C12.3272 40.1251 11.3489 38.9431 11.3998 38.8666C11.4507 38.7971 12.5195 39.8748 13.707 41.3766C14.9002 42.8784 15.7371 44.2342 15.6805 44.2899C15.6183 44.3524 14.6909 43.1079 13.5091 41.613V41.62ZM13.4808 42.2179C14.5326 43.7823 15.2282 45.2007 15.1603 45.2494C15.0924 45.305 14.3064 43.9839 13.2659 42.4335C12.2254 40.876 11.3489 39.6384 11.4111 39.5758C11.462 39.5133 12.4346 40.6466 13.4808 42.2179ZM26.3174 61.0045C26.3174 61.1227 25.0903 61.0393 23.7557 60.2327C22.4155 59.4401 21.6125 58.2998 21.6861 58.2234C21.7596 58.126 22.6417 59.0647 23.9197 59.8225C25.1921 60.5943 26.3344 60.8654 26.3174 61.0045ZM22.6587 58.3277C22.7266 58.2303 23.1676 58.5432 23.7331 58.8352C24.2986 59.1342 24.7849 59.301 24.7736 59.4332C24.768 59.5513 24.2081 59.5792 23.5861 59.2524C22.9641 58.9325 22.5908 58.418 22.6587 58.3277ZM23.4051 57.8618C23.4787 57.7714 23.7784 57.98 24.1459 58.1886C24.5135 58.3972 24.8415 58.5362 24.8358 58.6614C24.8358 58.7865 24.4287 58.8491 23.9933 58.5988C23.5578 58.3555 23.3316 57.9452 23.4051 57.8618ZM46.1605 59.746C47.5176 59.016 48.2471 58.3068 48.2867 58.3763C48.298 58.3972 48.134 58.5988 47.8004 58.9117C47.4667 59.2246 46.9521 59.6278 46.2735 60.0381C44.9277 60.8654 42.9258 61.6581 40.6526 62.0335C38.3793 62.4159 36.304 62.3881 34.8111 62.3394C33.3182 62.2769 32.3964 62.1865 32.4021 62.1309C32.4021 62.0683 33.3238 62.0405 34.8167 62.0196C36.304 61.9848 38.3623 61.964 40.6017 61.5885C42.841 61.2131 44.8146 60.49 46.1605 59.753V59.746ZM36.6263 61.3452C36.6263 61.1992 39.2615 61.2618 42.3999 60.3579C43.9664 59.9129 45.3405 59.3289 46.3131 58.8283C47.2858 58.3277 47.8682 57.9522 47.8965 58.0148C47.9191 58.0634 47.3819 58.5432 46.4206 59.1203C45.4649 59.7043 44.0738 60.3509 42.4848 60.8029C40.8957 61.2548 39.4198 61.4286 38.351 61.4564C37.2823 61.4842 36.6263 61.4008 36.6263 61.3452ZM39.5668 60.2884C39.5499 60.1562 41.2746 59.7947 43.3387 59.0925C45.4083 58.3972 47.0313 57.6115 47.0765 57.7367C47.1161 57.841 45.5384 58.8213 43.4404 59.5305C41.3425 60.2466 39.5782 60.4066 39.5668 60.2884Z" fill="#F1EDE4"/>
<path d="M35.0485 42.1343C35.8741 42.0439 36.6149 41.8909 37.2087 41.6893C38.2831 41.3347 38.8769 40.9036 38.8373 40.7924C38.792 40.6603 38.1417 40.8549 37.0842 41.0288C36.0268 41.2095 34.5622 41.3277 32.9336 41.2304C31.3049 41.133 29.8234 40.8967 28.7433 40.7576C28.2513 40.6881 27.8441 40.6464 27.5444 40.6324C27.8272 40.7437 28.1099 40.8549 28.3927 40.9592C30.5698 41.7658 32.8035 42.1064 35.0485 42.1343Z" fill="#F1EDE4"/>
<path d="M39.3352 41.8357C39.5105 41.8079 39.6915 41.787 39.8668 41.7592C40.7263 41.6271 41.5859 41.4672 42.4341 41.2725C42.519 41.2169 42.6038 41.1613 42.6886 41.1057C43.7178 40.4104 44.4473 39.6664 44.8997 39.1102C45.3521 38.547 45.5387 38.1855 45.4991 38.1437C45.4029 38.0325 44.4416 39.3188 42.4059 40.5147C41.552 41.0153 40.5171 41.4811 39.3296 41.8357H39.3352Z" fill="#F1EDE4"/>
<path d="M45.1878 30.0921C44.6563 29.8001 44.283 29.8696 44.2661 29.9878C44.2378 30.1268 44.5262 30.2937 44.8655 30.6553C45.2048 31.0099 45.6006 31.6008 45.725 32.3378C45.8438 33.0748 45.6685 33.7979 45.4649 34.2707C45.267 34.7505 45.0521 35.0355 45.12 35.1468C45.1709 35.2511 45.5441 35.1537 45.9399 34.6531C46.3301 34.1734 46.7033 33.2348 46.5337 32.1571C46.3527 31.0863 45.7024 30.3702 45.1878 30.0921Z" fill="#F1EDE4"/>
<path d="M29.2746 29.2787C28.924 29.376 28.5055 29.4525 28.0136 29.529C27.5272 29.6124 26.9674 29.6958 26.3793 29.9114C25.7912 30.1269 25.237 30.4745 24.8412 30.9543C24.434 31.4271 24.2248 32.0389 24.1965 32.5326C24.1626 33.0332 24.2757 33.4434 24.4114 33.6729C24.5471 33.9023 24.6715 33.9788 24.7111 33.944C24.8129 33.8675 24.5867 33.3808 24.7733 32.6508C24.8638 32.2892 25.0504 31.9138 25.3727 31.594C25.6894 31.2672 26.1305 31.0099 26.6338 30.8222C27.1427 30.6345 27.6686 30.5302 28.1606 30.3981C28.6526 30.2729 29.105 30.113 29.4725 29.9253C30.2133 29.5429 30.53 29.0492 30.4508 28.9588C30.3717 28.8545 29.9758 29.1118 29.2803 29.2926L29.2746 29.2787Z" fill="#F1EDE4"/>
<path d="M26.9732 36.5306C26.6679 36.1691 26.5491 35.8284 26.4304 35.8493C26.3286 35.8493 26.2268 36.2942 26.4926 36.913C26.747 37.5179 27.3974 38.1785 28.2682 38.4009C29.1221 38.6095 29.8685 38.4427 30.3662 38.2758C30.8695 38.102 31.1522 37.9142 31.1296 37.7821C31.1126 37.65 30.779 37.6083 30.2814 37.6083C29.7837 37.6083 29.1108 37.6361 28.4492 37.4693C27.7989 37.3024 27.273 36.8991 26.9789 36.5306H26.9732Z" fill="#F1EDE4"/>
<path d="M18.4062 34.8477C18.1009 35.1884 17.7842 35.7864 17.6768 36.5234C17.9086 36.6902 18.18 36.8015 18.4628 36.8988C18.4854 36.2522 18.6777 35.6682 18.8699 35.2649C19.0905 34.7921 19.2997 34.514 19.2319 34.4028C19.1753 34.2985 18.819 34.3888 18.4119 34.8547L18.4062 34.8477Z" fill="#F1EDE4"/>
<path d="M17.2697 36.1485C17.8748 34.751 19.2376 33.0892 22.2856 32.2271C22.1386 32.5747 22.0255 32.978 21.9746 33.416C21.8502 34.5215 22.1612 35.4949 22.5118 36.0581C22.8624 36.6352 23.213 36.8299 23.2865 36.7464C23.377 36.6491 23.2017 36.3014 23.0264 35.7452C22.8511 35.189 22.6928 34.3964 22.7889 33.5412C22.8059 33.3673 22.8455 33.2074 22.8794 33.0475H22.902C23.1791 31.4275 24.6098 30.5306 25.2092 30.2247C25.8765 29.884 26.5777 29.6615 27.3241 29.432C27.8274 29.2721 28.342 29.1122 28.8453 28.9106C30.5305 28.2292 32.0686 27.075 33.2957 25.5732C33.7707 24.9892 34.3306 24.1965 34.4493 23.1884C34.5228 22.5487 34.3532 21.8048 33.963 21.2972C36.1458 20.7758 38.6452 21.6866 40.1608 23.6334C41.2748 25.0726 41.8233 27.0333 41.7441 28.9523C41.6367 29.6615 41.484 30.8017 41.009 31.9976C40.2682 33.9514 39.0524 35.0777 39.1881 35.3072C39.2447 35.4115 39.6518 35.2585 40.1777 34.7788C40.7036 34.306 41.3313 33.4716 41.7554 32.387C41.9138 31.9698 42.0325 31.5596 42.1174 31.1633C42.3266 30.4263 42.4453 29.6545 42.468 28.8828C43.9948 28.8967 45.5442 29.5363 46.7317 30.6488C47.2407 31.1216 47.874 31.8864 48.1455 32.8598C48.1851 33.3326 48.1907 33.9444 48.0324 34.5771C47.9532 34.89 47.8401 35.182 47.7214 35.4393C47.6818 35.481 47.6478 35.5297 47.6083 35.5714L47.6365 35.6062C47.5291 35.8147 47.416 36.0094 47.3085 36.1624C47.0541 36.5448 46.8505 36.7812 46.9071 36.8994C46.9523 37.0106 47.2746 36.9828 47.6987 36.663C48.038 36.4127 48.4226 35.9469 48.6714 35.3141C48.7845 35.0638 48.8636 34.7927 48.9202 34.5146C50.2321 35.335 51.1199 36.2458 51.5214 37.1775C51.7646 37.0245 52.0134 36.8855 52.2679 36.7603C51.7533 35.5575 50.6449 34.445 48.9824 33.4786C48.9711 33.2631 48.9428 33.0406 48.8976 32.825C48.6714 31.8099 48.0776 30.8365 47.1898 30.0022C45.8722 28.7646 44.1531 28.0693 42.4623 28.0484C42.3605 26.2268 41.7611 24.4399 40.7036 23.0771C38.8262 20.6576 35.5746 19.6772 32.979 20.7549C32.8264 20.8175 32.7302 20.9843 32.7415 21.1721C32.7472 21.3598 32.8603 21.5128 33.0186 21.5545C33.5445 21.7005 33.816 22.4583 33.7481 23.0771C33.6576 23.8489 33.1883 24.5094 32.7868 25.0031C31.6388 26.4076 30.2025 27.4852 28.6248 28.1249C28.1441 28.3196 27.6408 28.4795 27.1545 28.6255C26.4194 28.855 25.6559 29.0913 24.9378 29.4668C24.1348 29.877 23.4845 30.4402 23.0094 31.0868C19.0227 31.9281 17.2923 34.0001 16.5459 35.7383C16.8004 35.7661 17.0548 35.9051 17.2923 36.1554L17.2697 36.1485Z" fill="#F1EDE4"/>
<path d="M36.8131 22.743C36.6039 22.3884 36.2364 22.1033 35.8744 22.0616C35.5125 21.9921 35.0997 22.2007 34.9301 22.5135C34.7491 22.8125 34.7208 23.1184 34.7321 23.3687C34.7491 23.6121 34.8057 23.7998 34.8566 23.9458C34.9697 24.2309 35.0658 24.356 35.1167 24.3421C35.1732 24.3213 35.1732 24.1475 35.1676 23.8624C35.1563 23.5912 35.1676 23.1741 35.3825 22.9377C35.4842 22.8264 35.5973 22.7986 35.7557 22.8403C35.9197 22.8959 36.061 23.0141 36.1798 23.2366C36.2929 23.4522 36.3777 23.7581 36.4399 24.0988C36.5134 24.4325 36.5417 24.7941 36.5587 25.1556C36.6096 26.6366 36.1968 27.9437 35.7783 28.7989C35.3655 29.668 34.9697 30.1269 35.0488 30.2381C35.1054 30.3285 35.6596 30.0435 36.259 29.1744C36.553 28.7433 36.8527 28.1662 37.0676 27.4779C37.2825 26.7826 37.4013 25.9691 37.3786 25.1139C37.356 24.6898 37.3164 24.2657 37.2203 23.8763C37.1411 23.4869 37.0224 23.0906 36.8018 22.736L36.8131 22.743Z" fill="#F1EDE4"/>
<path d="M42.021 32.1919C41.8909 32.1919 41.8627 32.7968 41.5064 33.5895C41.1671 34.3821 40.4433 35.3555 39.4084 35.9951C38.3566 36.6348 37.2539 36.906 36.4566 37.1146C35.6536 37.3162 35.1446 37.4761 35.1559 37.6082C35.1673 37.7334 35.6875 37.8237 36.5357 37.782C37.3727 37.7334 38.5941 37.5665 39.8043 36.8295C41.0257 36.0786 41.8061 34.834 42.0549 33.8328C42.315 32.8177 42.1228 32.1711 42.0266 32.185L42.021 32.1919Z" fill="#F1EDE4"/>
<path d="M40.8447 29.0145C41.0257 27.2484 40.545 25.6771 40.0134 24.7385C39.4819 23.779 38.956 23.3966 38.8881 23.48C38.7976 23.5773 39.1482 24.1127 39.4988 25.0513C39.8551 25.983 40.1831 27.3805 40.0247 28.8963C39.8664 30.412 39.2726 31.6844 38.7354 32.4909C38.1982 33.3113 37.7515 33.7354 37.8193 33.8536C37.8702 33.951 38.4583 33.7215 39.1709 32.9359C39.8777 32.1711 40.6638 30.7666 40.8447 29.0006V29.0145Z" fill="#F1EDE4"/>
<path d="M35.32 34.8479C35.3709 34.9592 35.7441 34.8618 36.2701 34.5281C36.796 34.1944 37.4632 33.5895 38.04 32.7621C38.6168 31.9277 38.9844 31.0517 39.1597 30.3842C39.335 29.7167 39.335 29.2787 39.2276 29.2439C38.9957 29.1675 38.4585 30.6623 37.3954 32.1641C36.3492 33.6868 35.2013 34.6115 35.3144 34.8549L35.32 34.8479Z" fill="#F1EDE4"/>
<path d="M7.03443 31.7401C6.68383 31.5663 6.32191 31.4133 5.96 31.2117C5.77904 31.1074 5.60374 31.0031 5.42279 30.8571C5.24183 30.7111 5.04956 30.5234 4.93081 30.2035C4.87426 30.0436 4.85164 29.842 4.88557 29.6612C4.9195 29.4735 4.99301 29.3205 5.07784 29.2023C5.25314 28.9659 5.42844 28.8408 5.6094 28.7156C5.97131 28.4653 6.3615 28.3193 6.74603 28.2081C7.52075 27.9995 8.28416 27.9438 9.04758 27.8674C10.5857 27.7283 12.1408 27.8535 13.6507 28.1941C14.4028 28.368 15.1492 28.5974 15.8787 28.8755C16.6025 29.1815 17.3207 29.5013 18.0276 29.8489C17.2755 29.6682 16.5347 29.4665 15.7995 29.251C15.0587 29.0493 14.3179 28.8825 13.5715 28.7434C12.0843 28.4653 10.5801 28.3332 9.08716 28.4931C8.33506 28.5835 7.57165 28.6461 6.86478 28.8477C6.51418 28.952 6.16923 29.0911 5.86952 29.2997C5.7225 29.4039 5.56981 29.5291 5.49064 29.6403C5.41148 29.7655 5.40582 29.835 5.43975 29.9393C5.51892 30.1827 5.86952 30.4052 6.19751 30.5859C6.52549 30.7667 6.8874 30.9197 7.24366 31.0865L9.37556 32.0738L17.9145 36.023C20.7589 37.3441 23.5976 38.6582 26.5099 39.6385C29.4165 40.6397 32.3966 41.2863 35.4051 41.335C38.4135 41.4045 41.4219 40.9735 44.3455 40.1044C47.2747 39.2422 50.0965 37.8656 52.7373 36.0995L53.7269 35.4251L54.6826 34.6881C55.1124 34.3683 55.5252 34.0206 55.938 33.666C56.2377 33.4644 56.4526 33.0889 56.5261 32.6509C56.594 32.2198 56.5148 31.754 56.2943 31.4133C56.0794 31.0726 55.7175 30.8849 55.3046 30.7945C54.8918 30.6972 54.4508 30.6346 54.021 30.5929C52.2793 30.4469 50.5206 30.6972 48.7732 31.0379C49.6215 30.7111 50.481 30.4399 51.3632 30.273C52.2453 30.0923 53.1388 30.0158 54.0379 30.0297C54.4903 30.0367 54.9314 30.0784 55.3951 30.1479C55.8475 30.2313 56.3734 30.433 56.7353 30.9475C57.0577 31.4064 57.199 32.0321 57.1481 32.6231L57.4761 32.3172L58.3922 31.4967C59.0086 30.9544 59.5854 30.3565 60.2301 29.8281C59.7437 30.5512 59.2405 31.2743 58.6919 31.9278C58.1208 32.5536 57.5723 33.228 56.9502 33.7773L56.0228 34.6186C55.7175 34.9036 55.3782 35.1331 55.0615 35.3973L54.0888 36.1552L53.0823 36.8435C50.3962 38.6651 47.5178 40.0835 44.5321 40.9804C41.5519 41.8912 38.47 42.3293 35.3937 42.2458C32.3175 42.1902 29.2582 41.5227 26.312 40.5007C23.3658 39.4786 20.5101 38.1228 17.6769 36.767L9.16633 32.7274L7.04009 31.7192L7.03443 31.7401Z" fill="#F1EDE4"/>
</g>
<defs>
<clipPath id="clip0_216_117649">
<rect width="74" height="46" fill="white" transform="translate(3.5 17.7578)"/>
</clipPath>
</defs>
</svg>
