<svg width="81" height="81" viewBox="0 0 81 81" fill="none" xmlns="http://www.w3.org/2000/svg">
<g clip-path="url(#clip0_216_112291)">
<path d="M64.1127 14.9515C64.074 15.0633 64.0982 15.1623 63.9335 15.3644C63.856 15.4461 63.7447 15.4891 63.6188 15.5107C63.5025 15.5279 63.4493 15.5236 63.3718 15.5193C63.057 15.4977 62.8488 15.4547 62.7035 15.4074C62.7568 15.6354 62.8439 15.859 62.9747 16.0741C63.212 16.4612 63.5897 16.8225 64.1757 17.1365C64.2095 17.1537 64.2386 17.1795 64.258 17.2053C64.2628 17.2053 64.2677 17.1967 64.2773 17.1924C64.3694 17.1408 64.5001 17.0161 64.626 16.8397C64.7519 16.6634 64.8778 16.4354 64.9795 16.1816C65.1926 15.6741 65.3379 15.059 65.333 14.5171C65.333 14.0655 65.2313 13.674 65.0376 13.4289C64.8536 13.1966 64.6551 13.0633 64.4614 12.9816C64.2628 12.8998 64.0643 12.874 63.8803 12.874C63.5364 12.874 63.2459 12.9773 63.2313 12.9859C63.1878 13.0031 63.1442 13.0074 63.1006 13.0074C62.8246 13.6009 62.6309 14.2289 62.6309 14.8268C62.6309 14.8698 62.6357 14.9128 62.6405 14.9558C62.7858 14.9558 63.028 14.9816 63.396 15.0074C63.4396 15.0074 63.5122 15.0074 63.5171 15.0074C63.5074 15.0461 63.5606 14.9171 63.5897 14.8311C63.6526 14.6418 63.7108 14.444 63.7834 14.2805C63.9142 13.945 64.166 13.7386 64.2531 13.816C64.3064 13.8633 64.2386 14.0482 64.1999 14.3751C64.1757 14.5386 64.1514 14.7278 64.1079 14.9472L64.1127 14.9515Z" fill="#F1EDE4"/>
<path d="M68.8535 31.3129C68.3208 27.2526 68.0981 24.2934 68.0981 21.9578C68.0981 19.7814 68.2918 18.1513 68.6065 16.6631C68.7663 15.9233 68.8583 15.2093 68.8583 14.5297C68.8583 13.42 68.6017 12.4006 67.9189 11.5748C67.2361 10.7446 66.1465 10.1296 64.5678 9.78976C62.5194 9.35104 59.3426 9.2005 55.701 9.12308C52.0593 9.04996 47.9576 9.05426 44.1077 8.94673C40.0738 8.8349 35.3765 8.75317 31.5847 8.75317C29.8511 8.75317 28.3063 8.77038 27.0956 8.80909C26.4903 8.8306 25.9722 8.8564 25.5508 8.88651C25.1295 8.92092 24.8099 8.95533 24.5872 9.01125C24.1755 9.11017 23.8414 9.34674 23.5702 9.63922C23.1634 10.0822 22.8874 10.6629 22.6985 11.2393C22.5145 11.8199 22.4225 12.392 22.4225 12.8307C22.4225 13.0501 22.4419 13.235 22.5048 13.3942C22.6211 13.678 22.6404 14.0307 22.7131 14.3963C22.7518 14.5813 22.8099 14.7705 22.9165 14.9512C23.023 15.1318 23.1828 15.3039 23.4056 15.4372C23.4782 15.4759 23.5315 15.4931 23.5993 15.5103C23.7349 15.5448 23.914 15.5749 24.1416 15.6007C22.5678 20.0653 21.4492 22.4826 20.3257 25.1192C19.1877 27.7859 18.0496 30.6763 16.4419 36.113C14.8341 41.5626 13.3814 48.836 12.3111 54.8146C11.7785 57.8039 11.3378 60.4664 11.0278 62.4148C10.8729 63.3869 10.747 64.1826 10.6598 64.7503C10.6162 65.0342 10.5775 65.2579 10.5533 65.4213C10.5387 65.5031 10.5291 65.5676 10.5194 65.6149C10.5097 65.6622 10.5048 65.6923 10.5048 65.6923L10.5 65.7869C10.5 65.8773 10.5339 65.9633 10.5872 66.0278C10.6792 66.1482 10.8051 66.2171 10.9504 66.2859C11.2119 66.402 11.5751 66.5009 12.0835 66.5999C13.5993 66.8966 16.3789 67.1891 20.8341 67.4816C28.2046 67.9676 30.7518 68.7074 34.9939 69.8387C36.9116 70.3505 40.069 70.8709 43.1489 71.271C46.2288 71.671 49.2022 71.9419 50.7615 71.9462C51.1489 71.9462 51.4491 71.929 51.6719 71.886C52.5194 71.7183 53.6913 71.3699 55.3087 70.9484C56.9213 70.5268 58.9697 70.0322 61.5315 69.5763C64.0835 69.1247 65.6283 69.1677 66.6792 69.0214C66.9455 68.9827 67.178 68.9354 67.3959 68.8537C67.7203 68.7332 67.9867 68.5311 68.1707 68.2472C68.3547 67.9633 68.4661 67.6106 68.5484 67.1504C68.7615 65.9504 69.0956 63.2105 69.4346 59.6233C69.7736 56.0361 70.1223 51.6145 70.3644 47.0682C70.4516 45.4036 70.4952 44.0874 70.4952 42.9906C70.4952 40.5433 70.2918 39.2099 69.9867 37.7045C69.6816 36.1991 69.2748 34.5259 68.8535 31.3258V31.3129ZM23.9334 15.0286C23.8656 15.0157 23.8075 15.0071 23.7736 14.9942L23.7397 14.9856C23.6041 14.9039 23.5218 14.8135 23.454 14.7017C23.3523 14.534 23.3087 14.3103 23.2651 14.0522C23.2264 13.7942 23.1925 13.506 23.0714 13.2135C23.0472 13.1619 23.023 13.0157 23.023 12.8307C23.023 12.3361 23.1731 11.5403 23.4734 10.8651C23.6235 10.5253 23.8123 10.2156 24.0303 9.97901C24.2482 9.74245 24.4855 9.59191 24.7373 9.53169C24.8874 9.49298 25.1925 9.45427 25.5944 9.42416C26.8148 9.32953 28.9843 9.29082 31.5751 9.29082C35.3571 9.29082 40.0496 9.37255 44.0787 9.48438C47.9431 9.59191 52.0448 9.5833 55.6768 9.66072C59.1925 9.72954 62.2724 9.88439 64.2288 10.2758C63.9915 10.5425 63.6283 10.9769 63.2603 11.5145C62.6453 12.4221 62.0157 13.6221 62.0109 14.8222C62.0109 15.334 62.132 15.8458 62.4225 16.3233C62.6792 16.7405 63.0811 17.1233 63.6186 17.4545C63.4588 17.4803 63.2264 17.4975 62.8826 17.4975C61.5605 17.4975 58.655 17.2695 51.6816 16.6631C45.4685 16.1254 38.6259 15.8028 33.2409 15.562C30.5484 15.4415 28.224 15.3383 26.5339 15.2437C25.6864 15.1964 24.9988 15.149 24.5048 15.0974C24.2579 15.0716 24.0593 15.0501 23.9189 15.0243L23.9334 15.0286ZM64.2579 13.8157C64.1659 13.7426 63.9189 13.9447 63.7881 14.2802C63.7155 14.4436 63.6574 14.6372 63.5944 14.8308C63.5702 14.9168 63.5121 15.0458 63.5218 15.0114C63.5218 15.0114 63.4443 15.0114 63.4007 15.0114C63.0327 14.9856 62.7906 14.9555 62.6453 14.9598C62.6453 14.9168 62.6356 14.8738 62.6356 14.8308C62.6356 14.2372 62.8293 13.6049 63.1053 13.0114C63.1489 13.0114 63.1925 13.007 63.2361 12.9898C63.2361 12.9898 63.5363 12.878 63.885 12.878C64.069 12.878 64.2724 12.9081 64.4661 12.9855C64.6646 13.0673 64.8583 13.2006 65.0424 13.4329C65.2361 13.678 65.3426 14.0694 65.3378 14.5211C65.3378 15.063 65.1973 15.6781 64.9843 16.1856C64.8777 16.4394 64.7567 16.6674 64.6307 16.8437C64.5048 17.0201 64.3741 17.1448 64.2821 17.1964C64.2772 17.1964 64.2676 17.205 64.2627 17.2093C64.2385 17.1835 64.2143 17.1577 64.1804 17.1405C63.5944 16.8222 63.2167 16.4609 62.9794 16.0781C62.8487 15.8673 62.7615 15.6437 62.7082 15.4114C62.8535 15.4544 63.0617 15.4974 63.3765 15.5232C63.454 15.5232 63.5073 15.5275 63.6235 15.5146C63.7445 15.4931 63.8608 15.4501 63.9383 15.3684C64.1029 15.1619 64.0787 15.0673 64.1174 14.9555C64.161 14.7404 64.1852 14.5469 64.2094 14.3834C64.2482 14.0522 64.316 13.8716 64.2627 13.8243L64.2579 13.8157ZM51.5412 71.3484C51.4056 71.3742 51.1247 71.3957 50.7615 71.3957C49.27 71.3957 46.2918 71.1247 43.2361 70.729C40.1804 70.3333 37.023 69.8085 35.1683 69.3139C30.9358 68.187 28.2772 67.4214 20.8777 66.9397C17.2651 66.7031 14.7567 66.4665 13.1683 66.23C12.3741 66.1138 11.8075 65.9934 11.4588 65.8859C11.2845 65.8343 11.1683 65.7783 11.1199 65.7439C11.1199 65.7439 11.1247 65.7181 11.1295 65.6966C11.2651 64.9267 11.9625 60.1997 13.0182 54.3372C14.0738 48.479 15.4879 41.4938 17.0327 36.2507C18.6356 30.8269 19.7639 27.9666 20.8971 25.3084C22.0254 22.6632 23.1634 20.2072 24.7615 15.6609C24.7809 15.6609 24.7954 15.6609 24.8148 15.6652C26.8099 15.8329 30.8826 15.9878 35.7784 16.2157C40.6743 16.4437 46.3838 16.7448 51.638 17.2007C58.6211 17.8072 61.5121 18.0351 62.9019 18.0394C63.1489 18.0394 63.3475 18.0308 63.5169 18.0179C62.9504 20.5685 61.362 26.9171 59.0714 32.8183C56.6356 39.0981 56.5726 43.4724 54.9455 51.0296C53.4201 58.105 52.0061 69.7225 51.8172 71.2968C51.7252 71.3183 51.6332 71.3398 51.546 71.3527L51.5412 71.3484ZM69.7688 47.0295C69.5266 51.5672 69.178 55.9888 68.839 59.5674C68.5 63.146 68.1659 65.8902 67.9576 67.0558C67.8559 67.6278 67.7058 67.9504 67.5169 68.1311C67.3765 68.2687 67.1973 68.3547 66.9068 68.4236C66.4758 68.5225 65.8269 68.5526 64.9261 68.6171C64.0254 68.6816 62.8729 68.7806 61.4152 69.0429C58.8341 69.5032 56.7615 70.0021 55.1392 70.4279C54.0399 70.7161 53.1489 70.9656 52.4419 71.1462C52.4467 71.0903 52.4564 71.0387 52.4613 70.9742C52.5291 70.4193 52.6453 69.4817 52.8002 68.2902C53.3571 63.9804 54.4225 56.3157 55.5363 51.1328C57.1731 43.5283 57.2361 39.1927 59.6429 32.999C60.6404 30.4312 61.5024 27.7859 62.2046 25.4031C63.1828 22.0869 63.8608 19.2782 64.161 17.8846C64.2288 17.8588 64.2918 17.8287 64.345 17.7986C64.437 17.747 64.5145 17.6996 64.6017 17.6523C64.8099 17.5319 64.9794 17.3556 65.1344 17.1362C65.5944 16.4867 65.9383 15.463 65.9383 14.5254C65.9383 14.0092 65.8317 13.5146 65.5315 13.1275C65.2942 12.8221 65.0036 12.6199 64.7131 12.4995C64.4225 12.3791 64.132 12.3404 63.8753 12.3404C63.7058 12.3404 63.5557 12.3576 63.4249 12.3791C63.5412 12.1769 63.6671 11.9791 63.7881 11.7984C64.0835 11.364 64.3789 10.9984 64.5968 10.7403C64.7082 10.6113 64.8002 10.5124 64.8632 10.4435L64.8777 10.4306C66.0981 10.7618 66.9068 11.2651 67.4298 11.8973C68.0109 12.607 68.253 13.4974 68.253 14.534C68.253 15.1662 68.161 15.8501 68.0109 16.5641C67.6864 18.0825 67.4879 19.7556 67.4879 21.9578C67.4879 24.3235 67.7155 27.3042 68.2482 31.3774C68.6695 34.5947 69.0811 36.298 69.3862 37.7905C69.6913 39.283 69.885 40.5562 69.885 42.982C69.885 44.0659 69.8462 45.3778 69.7591 47.0338L69.7688 47.0295Z" fill="#F1EDE4"/>
<path d="M32.2191 17.8549C33.4056 17.5495 34.04 17.3689 34.3063 17.2614C34.3693 17.2399 34.4322 17.2183 34.5049 17.1968L34.6017 17.1366C34.6259 17.1108 34.6501 17.0807 34.6162 17.0248C34.5823 16.9689 34.4419 16.8958 34.2385 16.9087C33.8705 16.9388 33.27 17.0592 32.0593 17.3689C29.6526 17.984 27.2361 18.8442 27.3087 18.9732C27.4104 19.1539 29.8269 18.47 32.2191 17.8549Z" fill="#F1EDE4"/>
<path d="M30.0499 19.4119C29.4785 19.6011 28.9894 19.7732 28.6746 19.9366C28.355 20.0958 28.2049 20.2291 28.2291 20.2549C28.2678 20.2936 28.4664 20.2291 28.8005 20.1345C29.1347 20.0356 29.6189 19.9237 30.2097 19.7732C31.3816 19.4721 32.9167 19.0334 34.4325 18.5904C35.9482 18.1473 36.7182 17.8936 37.1008 17.7301C37.1976 17.6871 37.2848 17.6484 37.3816 17.6097C37.4252 17.5882 37.4494 17.5624 37.464 17.528C37.4785 17.4979 37.493 17.4592 37.4252 17.4161C37.3623 17.3688 37.1831 17.343 36.97 17.3903C36.5535 17.4635 35.769 17.6656 34.2485 18.1086C32.7327 18.5517 31.1928 19.0334 30.0451 19.4162L30.0499 19.4119Z" fill="#F1EDE4"/>
<path d="M33.231 20.2033C33.1632 20.2334 33.0954 20.2592 33.0373 20.285C32.9841 20.3065 32.8969 20.3452 32.8872 20.4269C32.8969 20.5172 32.9647 20.5258 32.9986 20.5215L33.0228 20.4828C32.9744 20.4269 32.955 20.4828 33.3327 20.4097C33.6523 20.3538 34.0979 20.2506 34.6257 20.1172C35.6814 19.8506 37.0664 19.4635 38.4368 19.0677C41.1729 18.2763 41.202 18.1473 41.1536 18.014C41.1051 17.8806 40.9937 17.7903 38.2577 18.586C36.8872 18.9817 35.5022 19.4118 34.4707 19.7602C33.9526 19.9323 33.5264 20.0871 33.231 20.2033Z" fill="#F1EDE4"/>
<path d="M36.9065 20.969C37.0324 21.1367 39.8072 20.0657 42.6257 19.2442C45.4441 18.4313 45.5022 18.3582 45.4537 18.2076C45.415 18.0872 45.2939 17.941 42.4416 18.7625C39.5893 19.5926 36.8145 20.8486 36.9065 20.969Z" fill="#F1EDE4"/>
<path d="M42.5098 21.0332C42.6357 21.201 44.7471 20.3365 46.9069 19.6913C49.0667 19.059 49.1102 18.9816 49.0618 18.8353C49.0231 18.7149 48.9214 18.5687 46.7228 19.2138C44.5243 19.8676 42.4226 20.9171 42.5146 21.0332H42.5098Z" fill="#F1EDE4"/>
<path d="M45.3815 21.4935C45.4203 21.5881 45.9627 21.5322 46.7278 21.3515C47.4978 21.1752 48.4905 20.8655 49.4542 20.5386C51.3864 19.8848 51.3912 19.7644 51.3331 19.631C51.275 19.4977 51.183 19.4117 49.2508 20.0612C48.3307 20.3795 47.3961 20.7063 46.5777 20.9902C45.8464 21.2483 45.3476 21.4246 45.3767 21.4935H45.3815Z" fill="#F1EDE4"/>
<path d="M34.9457 22.2334C30.2435 21.9022 27.8416 21.6527 26.6067 21.5667C25.3718 21.4678 25.304 21.528 25.2943 21.5968C25.2847 21.6656 25.3331 21.7344 26.5583 21.9237C27.7834 22.1043 30.1902 22.4097 34.9021 22.7409C39.6188 23.0678 44.4275 23.2571 48.0449 23.3861C49.8367 23.442 51.3428 23.4893 52.4227 23.5237C53.4784 23.5495 54.0788 23.5495 54.0595 23.5108C54.011 23.4076 51.5849 23.2097 47.9965 22.999C44.4033 22.7839 39.6479 22.5603 34.9408 22.2334H34.9457Z" fill="#F1EDE4"/>
<path d="M64.7807 25.9668C64.9308 25.984 65.0906 25.9496 65.3424 23.9065C65.5894 21.8592 65.5749 19.7215 65.4151 19.7344C65.1875 19.7516 65.018 21.8247 64.771 23.8549C64.5192 25.8851 64.616 25.9496 64.7807 25.9668Z" fill="#F1EDE4"/>
<path d="M56.9895 31.2236C57.0661 31.2402 57.1442 31.2311 57.3074 30.7823C57.4799 30.3383 57.7229 29.454 58.3111 27.7593C58.9042 26.0648 59.6229 24.3764 60.2186 23.1171C60.8045 21.8573 61.2432 21.0255 61.162 21.0044C61.057 20.9778 60.4906 21.7561 59.8144 22.9856C59.1335 24.2107 58.3666 25.8925 57.7626 27.608C57.1683 29.324 56.9868 30.2328 56.9097 30.7029C56.8422 31.1735 56.9081 31.2068 56.9847 31.2234L56.9895 31.2236Z" fill="#F1EDE4"/>
<path d="M55.7019 36.0378C55.8548 36.0753 55.9859 36.073 56.3151 34.9689C56.4799 34.4125 56.6163 33.8462 56.6916 33.4061C56.7722 32.9577 56.7236 32.6409 56.6409 32.6456C56.5243 32.6486 56.435 32.92 56.27 33.3212C56.1044 33.7311 55.925 34.2868 55.7604 34.8388C55.431 35.9473 55.5439 36.0044 55.6971 36.0376L55.7019 36.0378Z" fill="#F1EDE4"/>
<path d="M43.8799 60.63C43.8799 60.63 43.8896 60.6257 43.8945 60.6214L43.9041 60.6343C44.5095 60.4193 46.9211 58.8063 49.0664 56.9826C50.2722 55.9675 50.8339 55.3955 51.1003 55.0901C51.3618 54.7804 51.3279 54.7202 51.2698 54.6729C51.2116 54.6256 51.1438 54.5955 50.8097 54.8406C50.4707 55.0815 49.8654 55.6062 48.6741 56.6127C46.5966 58.3762 44.3206 60.0709 43.8509 60.5311C43.8509 60.5311 43.846 60.5311 43.8412 60.5311C43.8412 60.5311 43.8315 60.5483 43.8267 60.5483L43.8751 60.63H43.8799Z" fill="#F1EDE4"/>
<path d="M51.1684 57.0991C50.7035 57.4216 49.8561 58.1055 48.1854 59.426C46.5147 60.7465 44.7907 62.0669 43.4832 63.0562C42.1805 64.0498 41.304 64.7165 41.367 64.7638C41.5461 64.9014 45.2168 62.4712 48.5679 59.8088C50.2435 58.484 51.0522 57.7528 51.4493 57.3614C51.8415 56.9657 51.8125 56.9055 51.7592 56.8539C51.7059 56.8023 51.6333 56.7765 51.1732 57.0991H51.1684Z" fill="#F1EDE4"/>
<path d="M51.0862 59.7354C50.9797 59.6322 50.8247 59.6021 47.9676 61.9032C45.1104 64.2044 42.2339 66.6776 42.3646 66.7593C42.5535 66.8797 45.4978 64.5786 48.3501 62.2817C51.2024 59.9849 51.1879 59.843 51.0862 59.7354Z" fill="#F1EDE4"/>
<path d="M50.989 61.7701C50.8727 61.6626 50.7468 61.654 48.4079 63.6067C46.064 65.5595 43.6088 67.5638 43.7299 67.6541C43.9091 67.7875 46.4466 65.938 48.8001 63.9766C51.1488 62.011 51.0955 61.8647 50.9938 61.7658L50.989 61.7701Z" fill="#F1EDE4"/>
<path d="M49.2798 65.2798C47.425 66.7766 45.5897 68.4197 45.7108 68.51C45.8851 68.6434 47.8125 67.1551 49.6623 65.654C51.5171 64.1572 51.4735 64.0325 51.3669 63.9293C51.2604 63.826 51.1296 63.7787 49.2749 65.2755L49.2798 65.2798Z" fill="#F1EDE4"/>
<path d="M50.5534 66.2991C50.4323 66.3421 50.3209 66.4152 50.1611 66.5185C50.0013 66.626 49.7979 66.7765 49.5364 66.983C48.4904 67.8045 47.4929 68.7379 47.6042 68.8368C47.7689 68.9788 48.8682 68.183 49.9142 67.3615C50.1757 67.1551 50.3694 66.9959 50.505 66.8712C50.6454 66.7421 50.7326 66.6475 50.7665 66.6045C50.8294 66.5185 50.8391 66.4712 50.8343 66.3937C50.8343 66.3335 50.8052 66.226 50.5485 66.2991H50.5534Z" fill="#F1EDE4"/>
<path d="M49.5073 68.4713C48.9988 68.8412 48.5097 69.2584 48.2966 69.4992C48.2966 69.4992 48.2773 69.525 48.2676 69.5337L48.3547 69.6756C48.3547 69.6756 48.3741 69.6627 48.3886 69.6541L48.4032 69.6756C48.7083 69.5552 49.2652 69.1767 49.8027 68.7852C50.5242 68.2562 50.4807 68.1745 50.3983 68.0885C50.316 68.0024 50.2337 67.9465 49.5121 68.4713H49.5073Z" fill="#F1EDE4"/>
<path d="M66.8584 63.2969C66.5291 63.6496 66.6163 63.7313 66.7422 63.8216C66.8632 63.912 66.9698 63.9765 67.2991 63.6238C67.6284 63.2711 67.8753 62.8324 67.7494 62.7463C67.5702 62.6216 67.1877 62.9442 66.8584 63.2969Z" fill="#F1EDE4"/>
<path d="M66.2628 62.8238C66.3306 62.7808 66.4565 62.6904 66.7713 62.4152C67.0764 62.1485 67.3815 61.8474 67.5558 61.5764C67.735 61.3055 67.7834 61.0947 67.7108 61.0646C67.6042 61.0173 67.4444 61.1506 67.2168 61.3399C66.8972 61.6065 66.6405 61.8259 66.3694 62.0539C66.2144 62.1915 66.1079 62.299 66.0207 62.4023C65.9384 62.5055 65.8996 62.6044 65.8899 62.6732C65.8803 62.8152 65.9626 62.8324 66.0352 62.8453C66.1127 62.8625 66.1805 62.8625 66.258 62.8195L66.2628 62.8238Z" fill="#F1EDE4"/>
<path d="M66.0786 60.8281C65.1731 61.5249 65.2118 61.6109 65.3135 61.727C65.4055 61.8303 65.5266 61.9249 66.4612 61.2066C67.391 60.4797 68.1416 59.5463 68.0108 59.4646C67.8268 59.3442 66.9842 60.127 66.0835 60.8281H66.0786Z" fill="#F1EDE4"/>
<path d="M65.5315 59.1418C64.345 60.2644 64.4128 60.3677 64.5291 60.4623C64.6453 60.5569 64.7712 60.6042 65.9528 59.4859C67.1295 58.3719 68.2627 57.1289 68.1465 57.0386C67.9722 56.9095 66.7228 58.0149 65.5363 59.1418H65.5315Z" fill="#F1EDE4"/>
<path d="M64.6354 57.9119C63.0277 59.4216 63.0955 59.5506 63.2069 59.6409C63.3279 59.7399 63.449 59.7657 65.0471 58.2602C66.65 56.7591 68.3061 55.1935 68.1851 55.1032C68.0059 54.9698 66.2432 56.4021 64.6306 57.9119H64.6354Z" fill="#F1EDE4"/>
<path d="M64.5776 56.4709C62.7229 58.1354 62.7665 58.2559 62.8827 58.3505C62.9989 58.4451 63.1345 58.4838 64.9892 56.8236C66.8391 55.1633 68.6745 53.3611 68.5485 53.2708C68.3694 53.1461 66.4372 54.802 64.5824 56.4666L64.5776 56.4709Z" fill="#F1EDE4"/>
<path d="M64.3158 54.7934C63.7008 55.3569 63.4054 55.7096 63.3085 55.9117C63.2068 56.1182 63.2698 56.1612 63.3327 56.1956C63.4005 56.2343 63.4635 56.2558 63.633 56.1225C63.8025 55.9849 64.1027 55.7139 64.7274 55.1418C65.9574 53.9934 67.139 52.7203 67.018 52.6342C66.8388 52.5095 65.5458 53.645 64.3158 54.7934Z" fill="#F1EDE4"/>
<path d="M64.1951 53.06C63.7302 53.4772 63.5655 53.7654 63.5171 53.9202C63.4687 54.0794 63.5316 54.1138 63.5994 54.1482C63.6672 54.1826 63.735 54.2084 63.8609 54.1095C63.9917 54.0148 64.1709 53.8041 64.6018 53.417C65.0328 53.0342 65.5219 52.66 65.8561 52.3374C66.1999 52.0191 66.3839 51.7653 66.3258 51.718C66.2387 51.6492 65.9626 51.804 65.5704 52.0492C65.183 52.2987 64.6648 52.6385 64.1951 53.0557V53.06Z" fill="#F1EDE4"/>
<path d="M63.89 52.2557C64.011 52.3547 64.103 52.4063 64.8004 51.8084C65.4929 51.2148 66.2144 50.5783 66.1127 50.4707C65.9674 50.3116 65.1248 50.8234 64.4033 51.4385C63.6866 52.0579 63.7786 52.1611 63.89 52.2557Z" fill="#F1EDE4"/>
<path d="M64.3985 27.5456C64.1564 27.6445 63.0813 37.7695 62.074 47.7182C61.0716 57.6668 61.1733 57.9292 61.3283 57.9378C61.4881 57.9507 61.6382 57.7098 62.6406 47.7612C63.6431 37.8125 64.5583 27.4725 64.3937 27.5413L64.3985 27.5456Z" fill="#F1EDE4"/>
<path d="M59.2068 59.757C57.6474 61.1419 56.122 62.6603 56.2431 62.7463C56.4223 62.8753 58.0494 61.4989 59.6087 60.114C61.168 58.729 61.1148 58.6128 61.0034 58.5139C60.892 58.415 60.7612 58.3677 59.2019 59.7527L59.2068 59.757Z" fill="#F1EDE4"/>
<path d="M61.5751 58.6602C61.4395 58.7333 61.3717 58.8495 63.0085 61.3141C64.6453 63.7786 66.4565 66.2776 66.5775 66.1873C66.7567 66.054 65.1393 63.5206 63.4976 61.056C61.8608 58.5914 61.7059 58.5871 61.5703 58.6602H61.5751Z" fill="#F1EDE4"/>
<path d="M28.8935 36.1846C28.9373 36.2098 29.003 36.2755 29.0907 36.3817C29.1135 36.4048 29.139 36.4317 29.167 36.4623C29.2917 36.6209 29.4085 36.7822 29.5176 36.9462C29.5914 37.051 29.6337 37.1388 29.6446 37.2095C29.6642 37.2741 29.6533 37.3462 29.612 37.4257C29.5916 37.5073 29.551 37.5694 29.4903 37.6122C29.4296 37.655 29.3288 37.7007 29.188 37.7495C29.0611 37.7997 28.8371 37.9239 28.516 38.122C28.1879 38.3195 27.8512 38.537 27.506 38.7746C27.1677 39.0129 26.8954 39.2159 26.6891 39.3836C26.4083 39.6205 26.24 39.7363 26.1842 39.7308C26.1633 39.7287 26.1338 39.7467 26.0957 39.7847C26.0523 39.8153 26.0064 39.856 25.9579 39.907C25.9025 39.9572 25.8487 40.0007 25.7967 40.0373C25.7533 40.0679 25.7142 40.0814 25.6794 40.078C25.6584 40.0759 25.6115 40.0922 25.5385 40.1268C25.5316 40.1261 25.5237 40.1288 25.5151 40.1349C25.4351 40.1688 25.3483 40.216 25.2546 40.2764C25.2042 40.3062 25.1547 40.3327 25.1061 40.3557C25.0714 40.3802 25.0376 40.4012 25.0046 40.4189C24.9386 40.4541 24.8951 40.4707 24.8742 40.4687C24.8463 40.4659 24.847 40.4347 24.8762 40.3749C24.9125 40.3157 24.9669 40.241 25.0395 40.1507C25.1157 40.0746 25.2006 39.9924 25.2941 39.9041C25.3028 39.898 25.3123 39.8885 25.3227 39.8756C25.3868 39.8192 25.4491 39.7557 25.5097 39.6851C25.5823 39.5948 25.635 39.5268 25.6679 39.4813C25.6971 39.4215 25.7265 39.3756 25.7559 39.3437C25.7923 39.3125 25.814 39.2972 25.8209 39.2979C25.8279 39.2986 25.8357 39.2959 25.8444 39.2898C25.8531 39.2837 25.8661 39.2745 25.8834 39.2623C25.9095 39.2439 25.9311 39.2147 25.9482 39.1746C26.0052 39.0897 26.0041 39.0513 25.9449 39.0594C25.905 39.0763 25.8339 39.132 25.7316 39.2264C25.723 39.2325 25.7134 39.242 25.7031 39.2549C25.5888 39.369 25.4771 39.4869 25.3681 39.6084C25.2504 39.7361 25.183 39.82 25.1658 39.8601C25.1624 39.8737 25.1555 39.887 25.1451 39.8999C25.1417 39.9135 25.1305 39.9298 25.1115 39.9488C25.0837 39.9739 25.0534 39.9953 25.0204 40.0129C24.9857 40.0374 24.9536 40.0656 24.9242 40.0975C24.9069 40.1097 24.893 40.1223 24.8826 40.1352C24.8722 40.1481 24.8654 40.1613 24.862 40.1749C24.8552 40.2021 24.8431 40.2218 24.8257 40.234C24.8171 40.2402 24.8084 40.2463 24.7997 40.2524C24.791 40.2585 24.7797 40.2608 24.7658 40.2595C24.7588 40.2588 24.751 40.2615 24.7423 40.2676C24.7353 40.2669 24.7275 40.2696 24.7188 40.2757C24.7171 40.2825 24.7154 40.2893 24.7137 40.2961C24.712 40.3029 24.7138 40.3101 24.7191 40.3176C24.7211 40.3665 24.6943 40.3882 24.6385 40.3827C24.6176 40.3807 24.588 40.3847 24.5497 40.3949C24.5237 40.4132 24.5003 40.4353 24.4795 40.4611C24.4709 40.4672 24.4648 40.477 24.4614 40.4906C24.4667 40.4981 24.4746 40.5094 24.4852 40.5243C24.5096 40.5407 24.5742 40.554 24.6788 40.5643C24.7677 40.5801 24.9064 40.5972 25.0946 40.6158C25.269 40.633 25.4555 40.6584 25.6544 40.692C25.6753 40.694 25.6962 40.6961 25.7171 40.6981C25.9595 40.729 26.1557 40.7588 26.3057 40.7876C26.6754 40.8519 26.8628 40.86 26.8677 40.8117C26.8813 40.7573 26.8324 40.7386 26.721 40.7554C26.6096 40.7723 26.5659 40.7471 26.5899 40.6798C26.595 40.6594 26.6132 40.6438 26.6445 40.6329C26.6827 40.6228 26.7446 40.6184 26.8299 40.6199C26.9223 40.622 27.0521 40.6314 27.2195 40.6479C27.2683 40.6527 27.3241 40.6582 27.3869 40.6644C27.528 40.6714 27.6884 40.6872 27.868 40.7119C28.6978 40.7938 29.0972 40.8541 29.066 40.8928C29.047 40.9118 28.9983 40.921 28.9199 40.9202C28.8467 40.9269 28.7622 40.922 28.6663 40.9056C28.5617 40.8953 28.4501 40.8843 28.3316 40.8726C28.22 40.8616 28.1189 40.8516 28.0282 40.8426C27.7825 40.8254 27.7277 40.8443 27.8639 40.8996C27.9163 40.9187 27.9774 40.9317 28.0471 40.9385C28.1012 40.9508 28.1535 40.956 28.204 40.954C28.2249 40.9561 28.2458 40.9581 28.2668 40.9602C28.3452 40.961 28.4088 40.9638 28.4576 40.9686C28.496 40.9863 28.5249 40.9996 28.5441 41.0085C28.5424 41.0153 28.545 41.019 28.552 41.0197C28.568 41.07 28.6657 41.0936 28.8451 41.0904C29.0036 41.0852 29.0891 41.1006 29.1015 41.1366C29.1139 41.1727 29.0453 41.2042 28.8956 41.2312C28.873 41.236 28.8504 41.2407 28.8278 41.2454C28.8121 41.2509 28.7965 41.2563 28.7808 41.2617C28.7478 41.2793 28.7323 41.2987 28.7341 41.3198C28.7377 41.3341 28.6951 41.3473 28.6063 41.3594C28.5279 41.3586 28.4312 41.3595 28.3163 41.3621C28.2047 41.3511 28.1044 41.3377 28.0155 41.322C27.8061 41.2735 27.4278 41.2292 26.8805 41.1891C26.3314 41.1558 25.7903 41.1337 25.2571 41.1229C24.7309 41.1128 24.3895 41.1209 24.2328 41.1472C24.1876 41.1567 24.1389 41.1658 24.0867 41.1746C24.0797 41.1739 24.0727 41.1732 24.0657 41.1725C24.0588 41.1718 24.0483 41.1708 24.0344 41.1694C23.9822 41.1782 23.9351 41.1805 23.8933 41.1764C23.8514 41.1723 23.8122 41.1719 23.7757 41.1752C23.76 41.1806 23.747 41.1898 23.7366 41.2027C23.728 41.2088 23.7193 41.2149 23.7106 41.221C23.7055 41.2414 23.6925 41.2506 23.6716 41.2485C23.6507 41.2465 23.6271 41.2407 23.6009 41.2311C23.531 41.1964 23.4989 41.2106 23.5045 41.2738C23.4994 41.2942 23.5064 41.3089 23.5257 41.3177C23.5362 41.3327 23.5589 41.3419 23.5938 41.3453C23.5991 41.3528 23.6087 41.3573 23.6226 41.3586C23.6366 41.36 23.654 41.3617 23.6749 41.3638C23.722 41.3754 23.7778 41.3809 23.8423 41.3803C23.9259 41.3886 24.0314 41.3955 24.1586 41.4011C24.1882 41.397 24.2204 41.3967 24.2553 41.4002C24.2971 41.4043 24.3433 41.4054 24.3938 41.4034C24.535 41.4104 24.7049 41.4167 24.9036 41.4224C24.968 41.4218 25.0394 41.4218 25.1179 41.4226C25.3321 41.4229 25.5735 41.4293 25.8419 41.4418C26.0562 41.4421 26.349 41.457 26.7202 41.4867C27.0932 41.5096 27.4758 41.5369 27.868 41.5686C28.2655 41.6079 28.5967 41.6406 28.8617 41.6667C29.1337 41.6935 29.2644 41.7134 29.2541 41.7263C29.2454 41.7324 29.2298 41.7379 29.2071 41.7426C29.1915 41.748 29.1689 41.7527 29.1393 41.7568C29.101 41.7669 29.0601 41.7734 29.0166 41.776C28.987 41.7801 28.9574 41.7841 28.9278 41.7882C28.7519 41.8056 28.6494 41.8443 28.6201 41.9041C28.6031 41.972 28.4918 42.0029 28.2862 41.9965C28.1955 41.9875 28.1119 41.9932 28.0354 42.0135C27.9536 42.0264 27.898 42.0487 27.8685 42.0807C27.8425 42.099 27.8095 42.1166 27.7695 42.1336C27.7313 42.1437 27.6686 42.1515 27.5815 42.1568C27.4961 42.1553 27.3681 42.1532 27.1973 42.1502C27.1555 42.1461 27.1058 42.1447 27.0483 42.146C26.9055 42.1458 26.7356 42.1395 26.5386 42.127C26.3835 42.1187 26.245 42.1155 26.123 42.1174C26.0097 42.1131 25.9444 42.1171 25.9271 42.1294C25.9184 42.1355 25.9177 42.1667 25.9251 42.2232C25.941 42.2735 25.9614 42.3347 25.9863 42.4069C26.0198 42.4728 26.0428 42.5378 26.0554 42.6017C26.061 42.665 26.0613 42.7068 26.0562 42.7272C26.0305 42.8013 26.0176 42.9672 26.0174 43.2249C26.0242 43.4833 26.04 43.7774 26.0646 44.1072C26.0963 44.4377 26.1382 44.7413 26.1904 45.0181C26.1994 45.0678 26.2049 45.1171 26.207 45.166C26.2143 45.2225 26.2225 45.2755 26.2315 45.3252C26.2407 45.4027 26.241 45.4585 26.2325 45.4925C26.2223 45.5332 26.2405 45.6604 26.2871 45.874C26.3198 46.0862 26.378 46.3531 26.4619 46.6748C26.5386 46.968 26.647 47.32 26.7871 47.7308C26.929 48.1349 27.0485 48.4427 27.1456 48.6543C27.2779 48.9251 27.4522 49.2139 27.6683 49.5208C27.8898 49.8353 28.0697 50.0585 28.2082 50.1906C28.2747 50.2389 28.3229 50.289 28.3528 50.3407C28.3914 50.3863 28.4117 50.4196 28.4135 50.4407C28.4067 50.4679 28.4314 50.5121 28.4875 50.5734C28.535 50.6407 28.5946 50.7023 28.6664 50.7582C28.7451 50.8147 28.7984 50.8444 28.8263 50.8471C28.8333 50.8478 28.8429 50.8522 28.8552 50.8604C28.8657 50.8754 28.8762 50.8903 28.8868 50.9053C28.8992 50.9414 28.9177 50.9815 28.9424 51.0257C28.9584 51.0761 28.9839 51.1169 29.0189 51.1482C29.0523 51.1863 29.0794 51.2064 29.1003 51.2085C29.1561 51.214 29.1788 51.2232 29.1684 51.2361C29.1667 51.2429 29.1572 51.2524 29.1399 51.2646C29.1225 51.2769 29.1008 51.2921 29.0748 51.3105C28.9864 51.3783 28.8479 51.3891 28.6595 51.3426C28.6455 51.3412 28.629 51.3361 28.6097 51.3272C28.4806 51.3006 28.3533 51.2671 28.2276 51.2268C28.0896 51.1784 27.9753 51.1358 27.8844 51.0989C27.7953 51.0553 27.7533 51.0233 27.7584 51.0029C27.7618 50.9893 27.7609 50.9788 27.7556 50.9713C27.7556 50.9713 27.753 50.9676 27.7477 50.9601C27.7424 50.9526 27.7371 50.9451 27.7319 50.9376C27.7249 50.9369 27.7144 50.9359 27.7005 50.9345C27.7005 50.9345 27.697 50.9342 27.69 50.9335C27.6814 50.9396 27.6735 50.9423 27.6666 50.9416C27.6666 50.9416 27.6657 50.945 27.664 50.9518C27.6536 50.9647 27.6494 50.9817 27.6513 51.0028C27.6565 51.0103 27.6583 51.0174 27.6566 51.0242C27.6549 51.031 27.6532 51.0378 27.6515 51.0446C27.6428 51.0507 27.635 51.0534 27.628 51.0527C27.6263 51.0595 27.6185 51.0623 27.6046 51.0609C27.5767 51.0581 27.5653 51.0466 27.5704 51.0262C27.5651 51.0187 27.5642 51.0081 27.5676 50.9945C27.5693 50.9877 27.5753 50.9779 27.5857 50.965C27.6306 50.8998 27.6092 50.828 27.5217 50.7497C27.4883 50.7116 27.4646 50.6779 27.4505 50.6486C27.4486 50.6276 27.4459 50.6099 27.4423 50.5956C27.4457 50.582 27.4518 50.5721 27.4604 50.566C27.4916 50.5273 27.4828 50.5195 27.4342 50.5425C27.3733 50.5574 27.2824 50.5206 27.1617 50.4321C27.0357 50.3361 26.9235 50.2275 26.8252 50.1063C26.7935 50.0614 26.7585 50.0301 26.7201 50.0124C26.7131 50.0117 26.7096 50.0113 26.7096 50.0113C26.6904 50.0025 26.6738 49.9973 26.6599 49.996C26.6459 49.9946 26.6346 49.997 26.6259 50.0031C26.6033 50.0078 26.5843 50.0268 26.5688 50.0601C26.562 50.0873 26.563 50.1118 26.5718 50.1336C26.5877 50.156 26.6077 50.1615 26.6321 50.1499C26.6407 50.1438 26.6477 50.1445 26.653 50.152C26.6652 50.1602 26.6766 50.1718 26.6872 50.1867C26.6941 50.1874 26.7003 50.1915 26.7055 50.199C26.7406 50.2303 26.7757 50.2756 26.8109 50.3348C26.9182 50.5056 26.9317 50.5661 26.8512 50.5164C26.7811 50.4537 26.6637 50.3377 26.4989 50.1682C26.3445 49.9857 26.1873 49.7856 26.0274 49.5679C25.6721 49.0174 25.5323 48.6623 25.608 48.5026C25.6184 48.4897 25.6253 48.4764 25.6287 48.4628C25.6321 48.4492 25.6355 48.4356 25.6389 48.422C25.644 48.4016 25.6378 48.3836 25.6202 48.3679C25.615 48.3605 25.6045 48.3594 25.5889 48.3649C25.5819 48.3642 25.5741 48.3669 25.5654 48.373C25.5567 48.3791 25.5472 48.3886 25.5368 48.4015C25.5334 48.4151 25.53 48.4287 25.5266 48.4423C25.4975 48.53 25.4819 48.5354 25.4797 48.4586C25.4812 48.4239 25.4651 48.3596 25.4315 48.2657C25.419 48.2297 25.4075 48.1902 25.3968 48.1474C25.3755 48.0896 25.3516 48.028 25.3251 47.9627C25.2737 47.8253 25.2443 47.7144 25.2368 47.6301C25.2363 47.5464 25.2498 47.4781 25.2774 47.4251C25.2791 47.4183 25.2842 47.4119 25.2929 47.4058C25.3205 47.3528 25.3316 47.3225 25.3263 47.315C25.3228 47.3007 25.2828 47.3177 25.2064 47.3659C25.1161 47.4127 25.0909 47.4137 25.1307 47.3689C25.1791 47.3179 25.1755 47.2897 25.1197 47.2842C25.0569 47.278 25.0655 47.2579 25.1455 47.224C25.1924 47.2078 25.214 47.1786 25.2103 47.1364C25.1995 47.0936 25.1608 47.0201 25.0939 46.916C24.9883 46.7384 24.9607 46.6346 25.011 46.6048C25.0527 46.581 25.0769 46.5556 25.0837 46.5284C25.0837 46.5284 25.0846 46.525 25.0863 46.5182C25.081 46.5107 25.0766 46.4998 25.073 46.4855C25.0694 46.4712 25.0615 46.46 25.0493 46.4518C25.0195 46.428 24.9829 46.4174 24.9393 46.4201C24.8888 46.4221 24.8546 46.3873 24.8368 46.3159C24.8189 46.2445 24.8173 46.1225 24.8319 45.9498C24.8353 45.9362 24.8379 45.926 24.8396 45.9192C24.8545 45.8022 24.8131 45.725 24.7153 45.6875C24.6735 45.6834 24.6313 45.6235 24.5888 45.5079C24.5532 45.3929 24.5067 45.1933 24.4492 44.909C24.397 44.6322 24.3327 44.2323 24.2563 43.7093C24.2274 43.5393 24.2021 43.3835 24.1803 43.2421C24.1568 43.1074 24.1397 43.0187 24.129 42.9758C24.0843 42.7833 24.0739 42.6535 24.0979 42.5862C24.1375 42.5135 24.24 42.4609 24.4053 42.4284C24.4296 42.4169 24.4531 42.4088 24.4757 42.4041C24.5383 42.3824 24.5974 42.3603 24.653 42.338C24.7243 42.3102 24.7729 42.2871 24.799 42.2688C24.8457 42.2246 24.8229 42.1876 24.7303 42.1575C24.6431 42.135 24.5185 42.1331 24.3566 42.152C24.32 42.1553 24.2791 42.1618 24.2339 42.1712C24.1903 42.1739 24.1494 42.1803 24.1112 42.1905C24.0328 42.1897 23.9709 42.194 23.9257 42.2035C23.7219 42.2182 23.5331 42.2449 23.3591 42.2834C23.1938 42.3158 23.0999 42.3484 23.0774 42.381C23.0174 42.5353 22.9338 42.8265 22.8267 43.2548C22.7193 43.6551 22.608 44.1143 22.4927 44.6323C22.4842 44.6663 22.4757 44.7003 22.4672 44.7343C22.4264 44.8974 22.3676 45.118 22.2909 45.396C22.2229 45.6679 22.1513 45.9255 22.0761 46.1689C22.001 46.4122 21.943 46.6154 21.9021 46.7786C21.8596 46.9485 21.8419 47.0338 21.8488 47.0345C21.8558 47.0352 21.8584 47.039 21.8567 47.0458C21.8637 47.0464 21.8655 47.0536 21.8621 47.0672C21.8657 47.0815 21.8649 47.0988 21.8598 47.1192C21.8564 47.1328 21.8556 47.1501 21.8575 47.1712C21.8507 47.1984 21.8326 47.228 21.8032 47.2599C21.7771 47.2782 21.7537 47.2863 21.7328 47.2843C21.6909 47.2801 21.6742 47.2471 21.6825 47.1853C21.6822 47.1295 21.705 47.0238 21.7511 46.8682C21.7664 46.807 21.7844 46.7495 21.8049 46.6959C21.8151 46.6551 21.8254 46.6143 21.8356 46.5735C21.8663 46.479 21.8826 46.4284 21.8843 46.4216C21.893 46.4155 21.8981 46.409 21.8998 46.4022C21.9015 46.3954 21.8998 46.3883 21.8945 46.3808C21.8875 46.3801 21.884 46.3798 21.884 46.3798C21.8788 46.3723 21.8691 46.3679 21.8552 46.3665C21.8482 46.3658 21.8464 46.3447 21.8496 46.3032C21.8598 46.2624 21.876 46.2118 21.8983 46.1513C21.9498 46.031 21.9615 45.9416 21.9333 45.8831C21.912 45.8253 21.8606 45.8307 21.7792 45.8993C21.7186 45.9699 21.6872 45.9529 21.6848 45.8481C21.6754 45.7427 21.6957 45.6333 21.7455 45.5198C21.7936 45.4131 21.8567 45.3323 21.9348 45.2773C22.0042 45.2284 22.0414 45.1938 22.0465 45.1734C22.055 45.1394 22.0339 45.0955 21.983 45.0417C21.8791 44.8573 21.8934 44.7717 22.0259 44.7848C22.0816 44.7903 22.1136 44.7481 22.1218 44.6584C22.1233 44.6237 22.1197 44.5955 22.1108 44.5737C22.1038 44.573 22.1012 44.5693 22.1029 44.5625C22.0959 44.5618 22.089 44.5611 22.082 44.5604C22.0767 44.553 22.0697 44.5523 22.0611 44.5584C21.9534 44.6174 21.9471 44.4426 22.0422 44.0341C22.0881 43.8506 22.1179 43.7456 22.1317 43.719C22.1472 43.6857 22.1682 43.7018 22.1947 43.7671C22.2036 43.7888 22.2133 43.8072 22.2238 43.8222C22.2344 43.8371 22.2458 43.8487 22.258 43.8569C22.2703 43.8651 22.279 43.8729 22.2843 43.8804C22.2913 43.8811 22.2991 43.8784 22.3078 43.8722C22.3355 43.8471 22.3553 43.8108 22.3672 43.7632C22.3721 43.7149 22.3692 43.6694 22.3585 43.6265C22.3478 43.5837 22.3268 43.5676 22.2955 43.5785C22.2486 43.5948 22.2256 43.5437 22.2266 43.4254C22.2346 43.3078 22.2729 43.1548 22.3414 42.9666C22.393 42.8463 22.4185 42.7583 22.4182 42.7025C22.4318 42.6481 22.4168 42.6223 22.3733 42.6249C22.3105 42.6187 22.2445 42.6401 22.1751 42.689C22.1127 42.7385 22.0643 42.8034 22.0299 42.8836C22.0146 42.9448 22 42.9747 21.986 42.9733C21.9791 42.9726 21.9675 42.9332 21.9513 42.8549C21.9102 42.6768 21.8571 42.6889 21.7922 42.8915C21.7202 43.0933 21.6124 43.5529 21.4687 44.2701C21.4619 44.2972 21.4534 44.3312 21.4432 44.372C21.4112 44.5569 21.3825 44.7143 21.3572 44.8441C21.3402 44.9121 21.3284 44.9736 21.3217 45.0287C21.3132 45.0627 21.3047 45.0967 21.2962 45.1307C21.286 45.1715 21.281 45.2058 21.2812 45.2337C21.2761 45.2541 21.271 45.2745 21.2659 45.2948C21.2625 45.3084 21.2617 45.3258 21.2636 45.3469C21.2602 45.3605 21.2576 45.3707 21.2559 45.3775C21.2542 45.3842 21.2517 45.3944 21.2483 45.408C21.2535 45.4155 21.2588 45.423 21.2641 45.4305C21.2641 45.4305 21.2632 45.4339 21.2615 45.4407C21.267 45.4761 21.2578 45.5413 21.234 45.6365C21.2241 45.733 21.2039 45.8425 21.1733 45.9648C21.1177 46.2728 21.0747 46.373 21.0444 46.2656C21.0373 46.237 21.037 46.1952 21.0437 46.1401C21.0452 46.1054 21.0441 46.067 21.0404 46.0249C21.0483 45.9072 21.0632 45.7764 21.085 45.6322C21.0998 45.4874 21.1208 45.3606 21.148 45.2519C21.1461 45.2308 21.1373 45.209 21.1215 45.1866C21.1162 45.1791 21.1066 45.1746 21.0926 45.1733C21.0874 45.1658 21.0778 45.1614 21.0638 45.16C20.9732 45.151 20.9748 45.1303 21.0687 45.0978C21.0947 45.0794 21.1181 45.0574 21.1388 45.0316C21.1613 44.9989 21.181 44.9487 21.198 44.8807C21.1978 44.8528 21.2028 44.8185 21.2131 44.7777C21.225 44.7301 21.2341 44.6648 21.2406 44.5819C21.2659 44.452 21.2903 44.3117 21.3138 44.1607C21.3495 44.018 21.3793 43.899 21.4031 43.8039C21.446 43.6897 21.4791 43.5571 21.5026 43.4062C21.516 43.3239 21.5286 43.2451 21.5404 43.1696C21.5487 43.1078 21.557 43.0459 21.5654 42.984C21.575 42.8596 21.5728 42.7828 21.5587 42.7535C21.5551 42.7392 21.5238 42.7361 21.4646 42.7442C21.4001 42.7448 21.3305 42.7519 21.2556 42.7654C21.1738 42.7782 21.1015 42.7815 21.0388 42.7753C21.0092 42.7794 20.9839 42.7804 20.963 42.7783C20.9508 42.7701 20.942 42.7623 20.9367 42.7548C20.9332 42.7405 20.9218 42.729 20.9026 42.7201C20.8973 42.7126 20.8912 42.7085 20.8842 42.7078C20.8772 42.7072 20.8702 42.7065 20.8633 42.7058C20.6731 42.6661 20.5005 42.4993 20.3454 42.2054C20.2076 41.8993 20.1279 41.5466 20.1063 41.1474C20.1005 41.0563 20.1167 40.9917 20.1548 40.9537C20.1893 40.9014 20.2902 40.8696 20.4574 40.8582C20.5914 40.8366 20.8108 40.8165 21.1156 40.7978C21.1591 40.7951 21.2026 40.7924 21.2462 40.7898C21.3054 40.7817 21.3602 40.7766 21.4107 40.7747C21.564 40.7619 21.6998 40.7475 21.8182 40.7313C21.9818 40.7056 22.0757 40.6871 22.1001 40.6755C22.1346 40.6232 22.1757 40.5019 22.2233 40.3115C22.2726 40.1144 22.3166 39.9098 22.3554 39.6977C22.3571 39.6909 22.3597 39.6807 22.3631 39.6671C22.3983 39.4407 22.4181 39.2616 22.4225 39.1297C22.4152 39.0732 22.4198 38.9692 22.4363 38.8176C22.4327 38.8033 22.4335 38.786 22.4386 38.7656C22.4566 38.5793 22.4851 38.394 22.524 38.2098C22.5376 38.1554 22.5442 38.0864 22.5437 38.0028C22.5364 37.9463 22.5325 37.8902 22.5322 37.8345C22.5354 37.793 22.5352 37.7512 22.5314 37.709C22.5275 37.639 22.5254 37.5761 22.5251 37.5203C22.5232 37.4993 22.5213 37.4782 22.5194 37.4571C22.5193 37.4292 22.5182 37.4047 22.5164 37.3837C22.5126 37.3415 22.5142 37.3068 22.521 37.2796C22.5227 37.2728 22.5235 37.2694 22.5235 37.2694C22.5322 37.2633 22.5365 37.2603 22.5365 37.2603C22.5382 37.2535 22.5391 37.2501 22.5391 37.2501C22.5461 37.2508 22.5522 37.2548 22.5575 37.2623C22.5644 37.263 22.5705 37.2671 22.5758 37.2746C22.5811 37.2821 22.5864 37.2896 22.5916 37.2971C22.5969 37.3045 22.6022 37.312 22.6075 37.3195C22.6127 37.327 22.618 37.3345 22.6233 37.342C22.6355 37.3501 22.6443 37.358 22.6495 37.3655C22.6548 37.3729 22.6566 37.3801 22.6549 37.3869C22.6619 37.3876 22.6689 37.3883 22.6758 37.3889C22.6845 37.3828 22.6888 37.3798 22.6888 37.3798C22.6905 37.373 22.6914 37.3696 22.6914 37.3696C22.7065 37.2805 22.7087 37.2146 22.698 37.1717C22.7013 37.1303 22.6958 37.0949 22.6817 37.0656C22.6798 37.0446 22.6762 37.0163 22.6707 36.981C22.6724 36.9742 22.675 36.964 22.6784 36.9504C22.6782 36.9225 22.6859 36.8919 22.7013 36.8586C22.7217 36.777 22.7291 36.7046 22.7235 36.6414L22.6567 36.3945L22.8758 36.3325C22.8915 36.3271 22.9098 36.3254 22.9307 36.3275C22.9776 36.3112 23.022 36.3052 23.0639 36.3093C23.1196 36.3148 23.1685 36.3336 23.2105 36.3656C23.2473 36.3901 23.2849 36.4112 23.3233 36.4289C23.3512 36.4317 23.3721 36.4337 23.3861 36.4351C23.407 36.4372 23.4253 36.4355 23.4409 36.4301C23.4705 36.426 23.5062 36.4261 23.5481 36.4302C23.555 36.4309 23.5612 36.435 23.5664 36.4425C23.5926 36.452 23.618 36.465 23.6425 36.4813C23.6494 36.482 23.659 36.4864 23.6713 36.4946C23.6958 36.511 23.7342 36.5287 23.7866 36.5478C23.8443 36.5744 23.9106 36.5949 23.9856 36.6092C24.0659 36.6311 24.1478 36.6461 24.2315 36.6544C24.3326 36.6504 24.4137 36.6689 24.4749 36.7097C24.5395 36.737 24.5645 36.8231 24.5497 36.9679C24.5468 37.0651 24.4968 37.2935 24.3997 37.6531C24.3078 38.0202 24.1945 38.4304 24.0596 38.8838C23.937 39.3453 23.8304 39.7283 23.7399 40.0329C23.6617 40.3455 23.6235 40.5124 23.6254 40.5335C23.6482 40.5567 23.7119 40.5734 23.8165 40.5837C23.9211 40.594 24.0317 40.5945 24.1484 40.5851C24.2581 40.5751 24.3303 40.5578 24.365 40.5334C24.3667 40.5266 24.3719 40.5201 24.3806 40.514C24.3996 40.495 24.4316 40.4529 24.4765 40.3876C24.4903 40.3611 24.5075 40.335 24.5283 40.3092C24.5715 40.2507 24.612 40.1886 24.65 40.1227C24.6741 40.0833 24.6974 40.0472 24.7199 40.0146C24.7561 39.9555 24.7949 39.9001 24.8364 39.8485C24.8917 39.7704 24.9341 39.7154 24.9635 39.6834C24.9756 39.6637 24.9963 39.6379 25.0257 39.606C25.0448 39.587 25.0655 39.5612 25.088 39.5286C25.1502 39.4511 25.2133 39.3703 25.2773 39.286C25.5089 38.9885 25.7815 38.6845 26.0949 38.3742C26.4067 38.0706 26.6848 37.8299 26.9294 37.652C26.9554 37.6337 26.997 37.596 27.0542 37.5389C27.1096 37.4887 27.1633 37.4313 27.2151 37.3668C27.2723 37.3097 27.3424 37.2435 27.4256 37.1681C27.4897 37.1118 27.553 37.0588 27.6154 37.0092C27.6258 36.9963 27.6353 36.9868 27.644 36.9807C28.4194 36.4234 28.8394 36.1583 28.904 36.1856L28.8935 36.1846ZM22.7253 39.9327C22.7184 39.932 22.7097 39.9381 22.6993 39.9511C22.6906 39.9572 22.6811 39.9667 22.6707 39.9796C22.6604 39.9925 22.6509 40.0159 22.6424 40.0499C22.6407 40.0567 22.6382 40.0669 22.6348 40.0805C22.6401 40.088 22.6453 40.0955 22.6506 40.103C22.6628 40.1111 22.6716 40.119 22.6769 40.1265C22.6838 40.1271 22.6917 40.1244 22.7003 40.1183C22.709 40.1122 22.7177 40.1061 22.7264 40.1C22.735 40.0939 22.7446 40.0844 22.7549 40.0715C22.76 40.0511 22.7599 40.0232 22.7544 39.9878C22.7492 39.9804 22.7474 39.9732 22.7491 39.9664C22.7402 39.9446 22.7323 39.9334 22.7253 39.9327ZM22.6026 40.3803C22.5957 40.3796 22.5844 40.382 22.5687 40.3874C22.56 40.3935 22.5505 40.403 22.5401 40.416C22.5211 40.435 22.5065 40.4649 22.4963 40.5057C22.4895 40.5328 22.4853 40.5638 22.4838 40.5985C22.4926 40.6202 22.5075 40.6321 22.5284 40.6342C22.5354 40.6349 22.5432 40.6322 22.5519 40.6261C22.5605 40.62 22.5692 40.6139 22.5779 40.6077C22.5969 40.5887 22.609 40.569 22.6141 40.5486C22.6245 40.5357 22.6305 40.5259 22.6322 40.5191C22.6424 40.4783 22.6431 40.447 22.6343 40.4252C22.6307 40.411 22.6263 40.4001 22.621 40.3926C22.6227 40.3858 22.6166 40.3817 22.6026 40.3803ZM30.3212 41.4451C30.5042 41.4562 30.5975 41.4688 30.6011 41.4831C30.6133 41.4913 30.5621 41.5106 30.4473 41.5411C30.3498 41.5593 30.2262 41.568 30.0763 41.5672C29.9421 41.5609 29.7721 41.5406 29.5663 41.5064C29.5384 41.5036 29.5106 41.5009 29.4827 41.4981C29.3396 41.4701 29.2167 41.4475 29.1138 41.4304C29.0806 41.4201 29.0501 41.4136 29.0222 41.4109C28.9001 41.3849 28.8398 41.3685 28.8415 41.3617C28.8659 41.3502 28.9652 41.353 29.1395 41.3702C29.3173 41.3738 29.5429 41.3857 29.8166 41.4057C30.0275 41.4196 30.1957 41.4327 30.3212 41.4451ZM25.1324 42.0927C25.1045 42.09 25.0784 42.0944 25.0541 42.1059C25.0454 42.112 25.0367 42.1181 25.0281 42.1242C25.0194 42.1303 25.0142 42.1368 25.0125 42.1436C25.0108 42.1504 25.0091 42.1572 25.0074 42.164C25.0127 42.1715 25.0179 42.1789 25.0232 42.1864C25.0441 42.1885 25.0694 42.1875 25.099 42.1835C25.1286 42.1794 25.1564 42.1682 25.1824 42.1499C25.198 42.1445 25.2059 42.1418 25.2059 42.1418C25.2145 42.1357 25.2189 42.1326 25.2189 42.1326C25.2206 42.1258 25.2179 42.1221 25.211 42.1214C25.2127 42.1146 25.2066 42.1105 25.1926 42.1091C25.1734 42.1003 25.1533 42.0948 25.1324 42.0927ZM21.9373 43.1252C21.9426 43.1327 21.9384 43.1636 21.9248 43.218C21.8974 43.2989 21.8801 43.3111 21.8728 43.2547C21.8692 43.2404 21.8691 43.2264 21.8725 43.2129C21.8759 43.1993 21.8785 43.1891 21.8802 43.1823C21.8836 43.1687 21.8861 43.1585 21.8878 43.1517C21.8965 43.1456 21.9052 43.1395 21.9138 43.1333C21.9225 43.1272 21.9269 43.1242 21.9269 43.1242C21.9338 43.1249 21.9373 43.1252 21.9373 43.1252ZM25.1161 44.9852C25.1161 44.9852 25.1126 44.9849 25.1056 44.9842C25.097 44.9903 25.0875 45.0138 25.0773 45.0546C25.0705 45.0817 25.0716 45.1202 25.0806 45.1698C25.0876 45.1705 25.0902 45.1742 25.0885 45.181C25.0923 45.2232 25.1022 45.2834 25.1184 45.3616C25.1255 45.3902 25.1327 45.4187 25.1398 45.4473C25.1545 45.5602 25.1761 45.6877 25.2049 45.8299C25.2227 45.9013 25.2371 45.9723 25.248 46.0431C25.2642 46.1213 25.2777 46.1958 25.2886 46.2665C25.3029 46.3236 25.3154 46.3736 25.3261 46.4165C25.3422 46.4947 25.3583 46.559 25.3743 46.6093C25.385 46.6521 25.3966 46.6916 25.409 46.7276C25.4197 46.7705 25.4304 46.8133 25.4411 46.8562C25.4626 46.9419 25.4743 47.0092 25.4763 47.0582C25.4871 47.101 25.4943 47.1435 25.498 47.1857C25.5178 47.2782 25.5313 47.3527 25.5386 47.4091C25.5583 47.5016 25.5798 47.5873 25.6029 47.6662C25.6313 47.7526 25.6463 47.7924 25.648 47.7856C25.655 47.7863 25.6627 47.7557 25.671 47.6938C25.6691 47.6727 25.6725 47.6452 25.681 47.6112C25.691 47.5426 25.6915 47.4834 25.6825 47.4338C25.6772 47.4263 25.6754 47.4191 25.6771 47.4123C25.6717 47.377 25.6628 47.3552 25.6506 47.347C25.6436 47.3463 25.6357 47.3351 25.6269 47.3133C25.6286 47.3065 25.6303 47.2997 25.632 47.2929C25.6406 47.2868 25.6502 47.2773 25.6605 47.2644C25.6796 47.2454 25.6865 47.2322 25.6812 47.2247C25.6759 47.2172 25.6628 47.2124 25.6419 47.2103C25.6349 47.2097 25.6245 47.2086 25.6105 47.2072C25.6053 47.1998 25.6 47.1923 25.5947 47.1848C25.5894 47.1773 25.5868 47.1736 25.5868 47.1736C25.5885 47.1668 25.5902 47.16 25.5919 47.1532C25.6332 47.0737 25.6502 47.0057 25.6429 46.9492C25.6339 46.8996 25.6085 46.8727 25.5667 46.8686C25.5597 46.8679 25.5492 46.8669 25.5353 46.8655C25.523 46.8573 25.5143 46.8495 25.509 46.842C25.5037 46.8345 25.4985 46.827 25.4932 46.8195C25.4896 46.8053 25.4887 46.7947 25.4904 46.7879C25.5055 46.6989 25.418 46.2061 25.2278 45.3097C25.2153 45.2458 25.2018 45.1853 25.1875 45.1281C25.184 45.1138 25.1804 45.0996 25.1768 45.0853C25.1732 45.071 25.1688 45.0601 25.1636 45.0526C25.1442 45.0159 25.1283 44.9934 25.1161 44.9852ZM25.7947 46.5567C25.7774 46.569 25.7645 46.606 25.7562 46.6679C25.7477 46.7019 25.7435 46.7328 25.7437 46.7607C25.749 46.7682 25.7508 46.7753 25.7491 46.7821C25.7509 46.8032 25.7537 46.8209 25.7572 46.8351C25.7678 46.8501 25.7783 46.8651 25.7889 46.8801C25.8293 46.9467 25.8606 46.9359 25.8827 46.8475C25.8878 46.8271 25.8921 46.8101 25.8955 46.7966C25.9006 46.7762 25.9022 46.7554 25.9003 46.7343C25.8968 46.7201 25.8941 46.7024 25.8922 46.6813C25.8816 46.6663 25.8746 46.6517 25.871 46.6374C25.8341 46.585 25.8087 46.5581 25.7947 46.5567ZM21.0585 46.4237C21.0967 46.4135 21.1128 46.4778 21.1067 46.6165C21.1019 46.6926 21.0937 46.7685 21.0819 46.8439C21.0736 46.9058 21.0644 46.971 21.0544 47.0397C21.0444 47.1084 21.0317 47.1733 21.0164 47.2345C20.9977 47.3092 20.9842 47.3776 20.9758 47.4394C20.9452 47.5618 20.9238 47.6189 20.9115 47.6107C20.8906 47.6086 20.8848 47.5175 20.8942 47.3373C20.8983 47.1497 20.9187 46.9253 20.9554 46.6643C20.9772 46.5201 21.0115 46.4399 21.0585 46.4237ZM21.6003 46.5712C21.6265 46.5807 21.6345 46.6059 21.6243 46.6467C21.6211 46.6882 21.6152 46.7259 21.6067 46.7599C21.605 46.7667 21.6025 46.7769 21.5991 46.7905C21.5974 46.7973 21.5957 46.8041 21.594 46.8109C21.5923 46.8177 21.5897 46.8279 21.5863 46.8414C21.5846 46.8482 21.5794 46.8547 21.5707 46.8608C21.5621 46.8669 21.5534 46.873 21.5447 46.8791C21.5361 46.8852 21.5247 46.8876 21.5108 46.8862C21.4882 46.891 21.4758 46.8689 21.4738 46.8199C21.4631 46.777 21.4715 46.7291 21.4991 46.6761C21.5127 46.6217 21.5351 46.5891 21.5664 46.5783C21.5751 46.5722 21.5794 46.5691 21.5794 46.5691C21.5864 46.5698 21.5934 46.5705 21.6003 46.5712ZM26.0641 47.4505C26.0432 47.4485 26.025 47.4641 26.0095 47.4974C25.9871 47.53 25.9682 47.5769 25.9529 47.6381C25.9066 47.7658 25.9175 47.8226 25.9853 47.8084C26.0149 47.8044 26.0323 47.8061 26.0376 47.8136C26.0446 47.8143 26.0429 47.8211 26.0325 47.834C26.0204 47.8537 26.0145 47.8775 26.0147 47.9054C26.0199 47.9128 26.0243 47.9237 26.0279 47.938C26.0315 47.9523 26.0385 47.9669 26.0491 47.9819C26.0544 47.9894 26.0605 47.9935 26.0675 47.9942C26.0833 48.0166 26.0921 48.0384 26.094 48.0595C26.1081 48.0887 26.1126 48.1135 26.1075 48.1339C26.0886 48.1808 26.1932 48.4628 26.4211 48.9798C26.4316 48.9948 26.4378 49.0128 26.4397 49.0339C26.4468 49.0625 26.4513 49.0873 26.4532 49.1084C26.4622 49.158 26.4616 49.2032 26.4514 49.244C26.4189 49.3453 26.433 49.3606 26.4935 49.29C26.5212 49.2649 26.5456 49.2533 26.5665 49.2554C26.5787 49.2636 26.5902 49.2891 26.6009 49.3319C26.6045 49.3462 26.6089 49.3571 26.6142 49.3646C26.6338 49.4292 26.6594 49.4979 26.6912 49.5707C26.73 49.6442 26.7705 49.7109 26.8127 49.7707C26.8549 49.8306 26.8864 49.8616 26.9073 49.8637C26.9213 49.865 26.914 49.8225 26.8856 49.7362C26.8768 49.7144 26.8688 49.6892 26.8617 49.6607C26.8351 49.5953 26.805 49.5158 26.7713 49.4219C26.7149 49.3049 26.6645 49.1919 26.6203 49.0831C26.5655 48.9593 26.5232 48.8715 26.4933 48.8198C26.4123 48.6864 26.354 48.5623 26.3185 48.4473C26.2847 48.3256 26.2833 48.2453 26.3144 48.2066C26.3231 48.2005 26.3248 48.1937 26.3195 48.1862C26.3212 48.1794 26.3203 48.1689 26.3167 48.1546C26.3097 48.1539 26.3036 48.1498 26.2983 48.1423C26.2808 48.1267 26.2625 48.1144 26.2432 48.1055C26.224 48.0967 26.2083 48.0882 26.196 48.08C26.1838 48.0718 26.175 48.064 26.1698 48.0565C26.1539 48.034 26.1556 48.0133 26.1746 47.9943C26.1833 47.9882 26.1885 47.9817 26.1902 47.9749C26.2005 47.962 26.2066 47.9522 26.2083 47.9454C26.203 47.9379 26.1969 47.9338 26.1899 47.9331C26.1916 47.9263 26.1855 47.9222 26.1715 47.9208C26.1646 47.9202 26.1576 47.9195 26.1506 47.9188C26.1437 47.9181 26.1375 47.914 26.1323 47.9065C26.127 47.899 26.1217 47.8915 26.1164 47.8841C26.1198 47.8705 26.1224 47.8603 26.1241 47.8535C26.1343 47.8127 26.1366 47.7607 26.131 47.6974C26.1254 47.6342 26.1181 47.5777 26.109 47.5281C26.0931 47.4778 26.0781 47.4519 26.0641 47.4505ZM21.5197 47.0647C21.5354 47.0593 21.5278 47.1038 21.497 47.1983C21.4577 47.3268 21.4371 47.3665 21.435 47.3176C21.4332 47.2965 21.4339 47.2792 21.4373 47.2656C21.4424 47.2452 21.4484 47.2214 21.4552 47.1942C21.4637 47.1602 21.4748 47.13 21.4886 47.1035C21.4973 47.0973 21.5025 47.0909 21.5042 47.0841C21.5059 47.0773 21.5067 47.0739 21.5067 47.0739C21.5154 47.0678 21.5197 47.0647 21.5197 47.0647ZM25.7687 47.8602C25.7531 47.8656 25.7374 47.871 25.7218 47.8765C25.7131 47.8826 25.7036 47.8921 25.6932 47.905C25.6828 47.9179 25.6759 47.9311 25.6725 47.9447C25.6761 47.959 25.6832 47.9736 25.6937 47.9886C25.699 47.9961 25.7051 48.0002 25.7121 48.0009C25.7191 48.0016 25.726 48.0023 25.733 48.0029C25.7469 48.0043 25.7652 48.0026 25.7879 47.9979C25.7965 47.9918 25.8043 47.9891 25.8113 47.9898C25.8756 47.9613 25.8806 47.927 25.8264 47.8868C25.8211 47.8793 25.8115 47.8749 25.7975 47.8735C25.7923 47.866 25.7827 47.8616 25.7687 47.8602ZM25.7988 48.0826C25.75 48.0778 25.7487 48.1543 25.795 48.3121C25.9101 48.6229 25.952 48.6271 25.9205 48.3244C25.9079 48.2605 25.8893 48.2064 25.8646 48.1622C25.8417 48.1112 25.8197 48.0846 25.7988 48.0826ZM26.1101 48.9805C26.1031 48.9798 26.0961 48.9791 26.0892 48.9784C26.0805 48.9845 26.0727 48.9872 26.0657 48.9866C26.057 48.9927 26.0527 48.9957 26.0527 48.9957C26.0527 48.9957 26.0492 48.9954 26.0422 48.9947C26.0405 49.0015 26.0397 49.0049 26.0397 49.0049C26.038 49.0117 26.0371 49.0151 26.0371 49.0151C26.0424 49.0226 26.0477 49.0301 26.0529 49.0375C26.0529 49.0375 26.0556 49.0413 26.0608 49.0488C26.0644 49.063 26.0723 49.0743 26.0846 49.0825C26.0898 49.0899 26.096 49.094 26.1029 49.0947C26.1099 49.0954 26.1169 49.0961 26.1239 49.0968C26.1325 49.0907 26.1377 49.0842 26.1394 49.0774C26.1464 49.0781 26.1507 49.075 26.1524 49.0683C26.1594 49.0689 26.1637 49.0659 26.1654 49.0591C26.1671 49.0523 26.1654 49.0451 26.1601 49.0377C26.1618 49.0309 26.1635 49.0241 26.1652 49.0173C26.1582 49.0166 26.1556 49.0128 26.1573 49.006C26.152 48.9986 26.1459 48.9945 26.1389 48.9938C26.1336 48.9863 26.124 48.9819 26.1101 48.9805ZM26.2272 49.3264C26.2202 49.3257 26.2167 49.3254 26.2167 49.3254C26.215 49.3321 26.2133 49.3389 26.2116 49.3457C26.2099 49.3525 26.2109 49.3631 26.2144 49.3774C26.218 49.3916 26.2277 49.41 26.2435 49.4325C26.2682 49.4767 26.2981 49.5284 26.3333 49.5876C26.4265 49.7292 26.4498 49.8359 26.4032 49.908C26.3583 49.9732 26.3672 50.0089 26.43 50.0151C26.6531 50.0371 26.6689 49.9028 26.4772 49.6123C26.3524 49.4258 26.269 49.3305 26.2272 49.3264ZM28.1827 50.7209C28.099 50.7126 28.0956 50.7262 28.1725 50.7617C28.1847 50.7699 28.197 50.778 28.2092 50.7862C28.2197 50.8012 28.2311 50.8128 28.2434 50.8209C28.2592 50.8434 28.2715 50.8655 28.2804 50.8873C28.2857 50.8948 28.2909 50.9022 28.2962 50.9097C28.3084 50.9179 28.3181 50.9223 28.325 50.923C28.3303 50.9305 28.3373 50.9312 28.3459 50.9251C28.3529 50.9258 28.3599 50.9265 28.3669 50.9271C28.3686 50.9203 28.3729 50.9173 28.3799 50.918C28.3972 50.9058 28.4076 50.8929 28.411 50.8793C28.4127 50.8725 28.4083 50.8616 28.3977 50.8466C28.3836 50.8174 28.3547 50.7901 28.311 50.7649C28.2812 50.7411 28.2385 50.7264 28.1827 50.7209ZM28.7309 51.0571C28.7222 51.0632 28.7144 51.0659 28.7074 51.0652C28.7074 51.0652 28.704 51.0649 28.697 51.0642C28.697 51.0642 28.6927 51.0673 28.684 51.0734C28.684 51.0734 28.6796 51.0764 28.671 51.0825C28.671 51.0825 28.6666 51.0856 28.658 51.0917C28.658 51.0917 28.6536 51.0948 28.6449 51.1009C28.6363 51.107 28.6319 51.11 28.6319 51.11C28.6129 51.129 28.6008 51.1487 28.5957 51.1691C28.594 51.1759 28.5923 51.1827 28.5906 51.1895C28.5959 51.197 28.602 51.2011 28.609 51.2018C28.6142 51.2093 28.6177 51.2096 28.6194 51.2028C28.6264 51.2035 28.6334 51.2042 28.6404 51.2049C28.6421 51.1981 28.6464 51.195 28.6534 51.1957C28.669 51.1903 28.6812 51.1845 28.6898 51.1784C28.6985 51.1723 28.7072 51.1662 28.7159 51.1601C28.7349 51.1411 28.747 51.1214 28.7521 51.101C28.7606 51.067 28.7535 51.0524 28.7309 51.0571ZM34.5651 37.5488C34.7586 37.5749 34.9454 37.6281 35.1253 37.7086C35.2267 37.7604 35.2773 37.9151 35.2771 38.1728C35.2926 38.4251 35.2531 38.6685 35.1587 38.903C35.0557 39.1435 34.9651 39.2913 34.887 39.3463C34.8003 39.4074 34.6879 39.3998 34.5498 39.3235C34.4222 39.2621 34.3454 39.2406 34.3194 39.259C34.3004 39.278 34.314 39.3664 34.3602 39.5242C34.3956 39.6113 34.3896 39.7639 34.3421 39.9821C34.3032 40.1663 34.2266 40.4583 34.1123 40.858C34.0919 40.9395 34.0715 41.0211 34.051 41.1027C33.9845 41.3399 33.9246 41.5081 33.8712 41.6073C33.8248 41.7072 33.7816 41.7796 33.7418 41.8244C33.7418 41.8244 33.741 41.8278 33.7393 41.8346C33.6978 41.8863 33.6607 41.9488 33.6281 42.0222C33.6092 42.0691 33.5885 42.1088 33.5661 42.1414C33.5472 42.1883 33.53 42.2284 33.5145 42.2617C33.4991 42.295 33.4836 42.3283 33.4681 42.3616C33.4647 42.3752 33.457 42.3919 33.4449 42.4116C33.426 42.4585 33.3977 42.5288 33.3599 42.6226C33.2914 42.8109 33.2348 42.9515 33.19 43.0446C33.1695 43.0983 33.1471 43.1449 33.1229 43.1843C33.099 43.2516 33.0604 43.3627 33.0074 43.5177C32.9507 43.6584 32.8985 43.8099 32.8507 43.9724C32.8251 44.0465 32.7994 44.1206 32.7737 44.1946C32.7463 44.2755 32.7154 44.3561 32.6811 44.4363C32.6384 44.5783 32.5964 44.6891 32.5551 44.7686C32.5311 44.8359 32.4968 44.93 32.4523 45.051C32.4007 45.1713 32.3579 45.2855 32.3237 45.3936C32.2329 45.6423 32.1233 45.8091 31.9948 45.894C31.9202 45.9353 31.8587 45.9954 31.8104 46.0743C31.7708 46.147 31.7288 46.2717 31.6846 46.4484L31.5749 46.8869L32.0956 46.9905C32.1427 47.0021 32.1898 47.0137 32.237 47.0254C32.3189 47.0404 32.3896 47.0578 32.449 47.0776C32.5449 47.094 32.5911 47.1091 32.5877 47.1227C32.5721 47.1281 32.5242 47.1338 32.4441 47.1398C32.4075 47.1432 32.3718 47.1431 32.337 47.1397C32.2778 47.1478 32.2125 47.1518 32.141 47.1517C32.0905 47.1537 32.047 47.1564 32.0104 47.1597C31.939 47.1596 31.8772 47.164 31.8249 47.1728C31.7465 47.172 31.6987 47.1777 31.6813 47.1899C31.6606 47.2157 31.7828 47.2557 32.0479 47.3097C32.3114 47.3705 32.6463 47.4314 33.0526 47.4924C33.1485 47.5089 33.2383 47.5212 33.322 47.5295C33.4196 47.5391 33.5059 47.5511 33.5809 47.5655C33.6297 47.5703 33.6707 47.5778 33.7039 47.588C33.7666 47.5942 33.8042 47.6014 33.8164 47.6096C33.8303 47.611 33.8173 47.6201 33.7774 47.6371C33.7513 47.6554 33.7183 47.6731 33.6784 47.69C33.6627 47.6954 33.6427 47.7039 33.6184 47.7154C33.6098 47.7215 33.6019 47.7243 33.595 47.7236C33.5463 47.7466 33.509 47.7673 33.483 47.7857C33.4569 47.804 33.4544 47.8142 33.4753 47.8162C33.4806 47.8237 33.4754 47.8302 33.4597 47.8356C33.4441 47.841 33.4206 47.8492 33.3893 47.86C33.3198 47.881 33.2241 47.9064 33.1023 47.9362C32.9875 47.9666 32.8657 47.9964 32.737 48.0255C32.6535 48.0451 32.5743 48.0617 32.4995 48.0752C32.4612 48.0853 32.4273 48.0924 32.3977 48.0965C32.3542 48.0991 32.2785 48.1161 32.1706 48.1472C32.0715 48.1722 31.968 48.2003 31.8602 48.2315C31.7593 48.2633 31.6105 48.287 31.4137 48.3024C31.2239 48.3185 31.0323 48.3274 30.8389 48.3292C30.5688 48.3235 30.3727 48.3076 30.2506 48.2816C30.1302 48.2488 30.0219 48.1963 29.9256 48.1242C29.8644 48.0833 29.7969 48.0244 29.7233 47.9475C29.7127 47.9325 29.6987 47.9172 29.6812 47.9015C29.6531 47.8709 29.6277 47.844 29.6049 47.8209C29.5365 47.7514 29.476 47.6793 29.4233 47.6044C29.3267 47.4765 29.2589 47.3618 29.2199 47.2605C29.1897 47.153 29.1819 47.0269 29.1967 46.882C29.236 46.468 29.371 46.3141 29.6016 46.4205C29.7518 46.4771 29.9211 46.5286 30.1095 46.5751C30.291 46.6209 30.4541 46.6544 30.5988 46.6756C30.6058 46.6763 30.6128 46.677 30.6198 46.6777C30.7801 46.6935 30.8847 46.6899 30.9333 46.6668C31.0217 46.5989 31.0566 46.6024 31.0379 46.6772C31.0362 46.684 31.0371 46.6945 31.0407 46.7088C31.046 46.7163 31.0539 46.7275 31.0644 46.7425C31.0767 46.7506 31.0889 46.7588 31.1012 46.767C31.1151 46.7684 31.1291 46.7697 31.143 46.7711C31.1779 46.7746 31.2092 46.7637 31.2369 46.7386C31.2733 46.7074 31.2966 46.6713 31.3068 46.6306C31.3204 46.5762 31.3228 46.5381 31.3139 46.5163C31.3156 46.5095 31.313 46.5058 31.306 46.5051C31.3025 46.4908 31.298 46.4799 31.2928 46.4725C31.2875 46.465 31.2814 46.4609 31.2744 46.4602C31.2535 46.4581 31.2385 46.4323 31.2295 46.3826C31.2205 46.333 31.2201 46.2772 31.2285 46.2154C31.2385 46.1467 31.2495 46.0886 31.2614 46.041C31.2735 46.0213 31.2847 46.005 31.2951 45.9921C31.3054 45.9792 31.3141 45.973 31.3211 45.9737C31.335 45.9751 31.342 45.9758 31.342 45.9758C31.3507 45.9697 31.3559 45.9632 31.3576 45.9564C31.3662 45.9503 31.3679 45.9435 31.3627 45.936C31.3644 45.9293 31.3669 45.9191 31.3703 45.9055C31.3633 45.9048 31.3607 45.901 31.3624 45.8942C31.3466 45.8718 31.3454 45.8194 31.3588 45.7372C31.3583 45.6535 31.3665 45.5638 31.3833 45.4679C31.4071 45.3728 31.4206 45.2905 31.4236 45.2211C31.4354 45.1457 31.4421 45.1046 31.4438 45.0978C31.4487 45.0495 31.5082 44.8116 31.6224 44.384C31.7008 44.0992 31.7929 43.774 31.8986 43.4083C31.9566 43.205 32.018 42.9882 32.0828 42.7578C32.3082 41.9999 32.4406 41.5706 32.48 41.47C32.4885 41.4361 32.498 41.4126 32.5084 41.3997C32.5118 41.3861 32.5143 41.3759 32.516 41.3691C32.5177 41.3623 32.5151 41.3586 32.5081 41.3579C32.5081 41.3579 32.5072 41.3613 32.5055 41.3681C32.5055 41.3681 32.5021 41.3677 32.4951 41.3671C32.4951 41.3671 32.4916 41.3667 32.4846 41.366C32.4846 41.366 32.4838 41.3694 32.4821 41.3762C32.4821 41.3762 32.4786 41.3759 32.4716 41.3752C32.4646 41.3745 32.4577 41.3738 32.4507 41.3731C32.4524 41.3663 32.4506 41.3592 32.4453 41.3517C32.3873 41.2693 32.3725 41.2714 32.4009 41.3578C32.3992 41.3646 32.3984 41.368 32.3984 41.368C32.402 41.3822 32.4021 41.3962 32.3987 41.4098C32.4039 41.4173 32.4022 41.4241 32.3935 41.4302C32.3815 41.4499 32.365 41.4587 32.3441 41.4566C32.3162 41.4539 32.3029 41.4212 32.3043 41.3587C32.3039 41.3029 32.3148 41.2308 32.3369 41.1425C32.4937 40.5729 32.5725 40.0722 32.5734 39.6404C32.5812 39.2093 32.5109 38.9621 32.3624 38.8986C32.2559 38.8672 32.0683 38.8174 31.7996 38.7491C31.6914 38.7245 31.5868 38.7002 31.4856 38.6763C31.3495 38.6489 31.2239 38.6226 31.1087 38.5973C30.6989 38.522 30.5092 38.4232 30.5398 38.3009C30.55 38.2601 30.563 38.237 30.5786 38.2315C30.6046 38.2132 30.6264 38.2119 30.6439 38.2275C30.6562 38.2357 30.6649 38.2435 30.6702 38.251C30.6772 38.2517 30.685 38.249 30.6937 38.2429C30.718 38.2314 30.7327 38.2154 30.7378 38.195C30.7463 38.161 30.7549 38.141 30.7636 38.1349C30.7722 38.1288 30.7853 38.1335 30.8029 38.1492C30.8081 38.1567 30.8169 38.1645 30.8291 38.1727C30.8431 38.1741 30.8579 38.172 30.8735 38.1666C30.8961 38.1619 30.9196 38.1538 30.9439 38.1422C30.9596 38.1368 30.9752 38.1314 30.9909 38.126C31.1089 38.054 31.1298 38.0561 31.0536 38.1322C30.9808 38.1946 31.0185 38.2297 31.1667 38.2373C31.3182 38.2314 31.6098 38.194 32.0415 38.1252C32.1372 38.1137 32.2303 38.0985 32.3208 38.0796C32.4392 38.0634 32.5576 38.0472 32.6759 38.0311C32.6986 38.0263 32.7212 38.0216 32.7438 38.0169C32.904 38.0048 33.018 37.9917 33.0859 37.9775C33.159 37.9708 33.2295 37.9603 33.2974 37.9461C33.3217 37.9346 33.3452 37.9264 33.3678 37.9217C33.3991 37.9109 33.4234 37.8993 33.4408 37.8871C33.5258 37.8328 33.3278 37.7959 32.8469 37.7763C32.5001 37.7629 32.3101 37.7512 32.2769 37.7409C32.249 37.7382 32.3334 37.7151 32.53 37.6719C32.6431 37.6482 32.7623 37.6286 32.8877 37.6131C33.0113 37.6044 33.1106 37.5933 33.1854 37.5798C33.222 37.5765 33.2655 37.5738 33.316 37.5718C33.3735 37.5705 33.4388 37.5665 33.5119 37.5598C33.6565 37.5532 33.7984 37.5428 33.9377 37.5287C34.1624 37.516 34.3715 37.5227 34.5651 37.5488ZM31.8484 42.4525C31.8623 42.4539 31.8719 42.4583 31.8772 42.4658C31.8911 42.4672 31.9008 42.4716 31.906 42.4791C31.9113 42.4866 31.9131 42.4937 31.9114 42.5005C31.9167 42.508 31.9176 42.5186 31.9142 42.5322C31.9108 42.5457 31.9031 42.5624 31.891 42.5821C31.8823 42.5882 31.8771 42.5947 31.8754 42.6015C31.8494 42.6198 31.8242 42.6347 31.7999 42.6463C31.7773 42.651 31.7598 42.6493 31.7476 42.6411C31.7423 42.6336 31.7379 42.6227 31.7343 42.6084C31.7308 42.5942 31.7307 42.5802 31.7341 42.5666C31.7426 42.5326 31.7607 42.5031 31.7884 42.4779C31.8075 42.4589 31.8275 42.4505 31.8484 42.4525ZM32.7219 42.5596C32.7166 42.5521 32.7045 42.5579 32.6854 42.5769C32.675 42.5898 32.6586 42.6126 32.6362 42.6452C32.6173 42.6921 32.5958 42.7352 32.5716 42.7747C32.5596 42.7944 32.5518 42.811 32.5484 42.8246C32.552 42.8389 32.5556 42.8532 32.5591 42.8675C32.6 42.9899 32.6449 42.9386 32.6941 42.7136C32.7179 42.6184 32.7272 42.5671 32.7219 42.5596ZM31.7481 42.7247L31.6111 43.4008C31.564 43.6747 31.5097 43.9062 31.4481 44.0952C31.3935 44.2848 31.3507 44.399 31.3195 44.4377C31.2971 44.4703 31.3035 44.3734 31.3387 44.1471C31.3536 44.0301 31.3859 43.887 31.4353 43.7178C31.4796 43.541 31.5265 43.382 31.5762 43.2406L31.7481 42.7247ZM32.4635 43.0356L32.402 43.2385C32.3918 43.2793 32.3738 43.3367 32.3482 43.4108C32.3327 43.4441 32.3198 43.4812 32.3096 43.522C32.2977 43.5695 32.2823 43.6168 32.2635 43.6637C32.2413 43.752 32.2106 43.8465 32.1711 43.9471C32.1046 44.1843 32.0482 44.3668 32.002 44.4946C31.9644 44.6163 31.9354 44.7179 31.915 44.7995C31.8946 44.881 31.8716 44.9728 31.8461 45.0748C31.8109 45.3012 31.8115 45.3987 31.8479 45.3675C31.8965 45.3444 31.955 45.2109 32.0232 44.9669C32.0677 44.8459 32.1164 44.694 32.1693 44.5111C32.2292 44.329 32.283 44.1567 32.3308 43.9942C32.3926 43.8331 32.4343 43.6805 32.4561 43.5364C32.4918 43.3937 32.506 43.2941 32.4987 43.2376L32.4635 43.0356ZM31.2274 44.763C31.2274 44.763 31.2266 44.7664 31.2249 44.7732C31.2319 44.7738 31.2345 44.7776 31.2328 44.7844C31.2311 44.7912 31.2329 44.7983 31.2382 44.8058C31.2298 44.8677 31.218 44.9292 31.2027 44.9904C31.1874 45.0516 31.1686 45.1124 31.1463 45.1729C31.1014 45.2381 31.1028 45.1756 31.1504 44.9852C31.1861 44.8425 31.2118 44.7684 31.2274 44.763ZM31.8696 45.495C31.8626 45.4943 31.8556 45.4936 31.8487 45.4929C31.8487 45.4929 31.8443 45.496 31.8356 45.5021C31.82 45.5075 31.8078 45.5133 31.7992 45.5194C31.7905 45.5255 31.7845 45.5354 31.7811 45.549C31.7603 45.5748 31.7578 45.5989 31.7737 45.6214C31.8231 45.7377 31.8658 45.7245 31.9015 45.5817C31.9151 45.5274 31.9044 45.4985 31.8696 45.495ZM31.0825 45.4278C31.0895 45.4285 31.093 45.4288 31.093 45.4288C31.1 45.4295 31.1026 45.4333 31.1009 45.4401C31.129 45.4707 31.138 45.5203 31.1279 45.589C31.1266 45.6515 31.1087 45.7229 31.0744 45.8031C31.0487 45.8772 31.0246 45.9306 31.0022 45.9632C30.9901 45.9829 30.9806 45.9924 30.9736 45.9917C30.9736 45.9917 30.9745 45.9883 30.9762 45.9815C30.9734 45.821 30.9848 45.6898 31.0103 45.5878C31.0359 45.4859 31.0599 45.4325 31.0825 45.4278ZM31.0226 46.31C31.0296 46.3107 31.0331 46.311 31.0331 46.311C31.04 46.3117 31.0461 46.3158 31.0514 46.3233C31.0567 46.3307 31.062 46.3382 31.0672 46.3457C31.0725 46.3532 31.0769 46.3641 31.0805 46.3784C31.0841 46.3927 31.0807 46.4062 31.0703 46.4192C31.0669 46.4327 31.0609 46.4426 31.0522 46.4487C30.9483 46.5499 30.9142 46.5291 30.9499 46.3864C30.9635 46.332 30.9877 46.3065 31.0226 46.31ZM32.8569 47.1179C32.8918 47.1213 32.9214 47.1312 32.9459 47.1476C32.981 47.1789 32.9462 47.1894 32.8416 47.1791C32.73 47.168 32.6986 47.151 32.7472 47.1279C32.7785 47.1171 32.8151 47.1137 32.8569 47.1179ZM36.6739 37.5166C36.714 37.5275 36.7638 37.5429 36.8231 37.5627C37.0379 37.6466 38.4137 37.8311 40.9504 38.1163C41.3671 38.1644 41.7376 38.2114 42.062 38.2573C42.1038 38.2615 42.1413 38.2686 42.1745 38.2789C42.4291 38.3179 42.5861 38.3474 42.6454 38.3671C42.8497 38.4361 42.8246 38.4649 42.5702 38.4537C42.5353 38.4503 42.4969 38.4465 42.4551 38.4424C42.4046 38.4444 42.3549 38.443 42.3061 38.4381C42.2573 38.4333 42.2093 38.4251 42.1622 38.4135C42.1274 38.41 42.096 38.407 42.0681 38.4042C41.9984 38.3973 41.9243 38.3935 41.8459 38.3927C41.7675 38.3919 41.6996 38.4061 41.6423 38.4353C41.5884 38.4509 41.5327 38.4593 41.4752 38.4606C41.4264 38.4558 41.3871 38.4415 41.3573 38.4176C41.3573 38.4176 41.3538 38.4173 41.3469 38.4166C41.3241 38.3935 41.2743 38.3781 41.1976 38.3705C41.1209 38.363 41.0425 38.3622 40.9624 38.3682C40.9485 38.3668 40.938 38.3658 40.931 38.3651C40.8213 38.3752 40.7115 38.3713 40.6017 38.3535C40.4762 38.3411 40.3733 38.324 40.293 38.3022C40.2057 38.2796 40.0575 38.258 39.8483 38.2374C39.6636 38.2331 39.4719 38.2281 39.2733 38.2224C39.2507 38.2272 39.2289 38.2285 39.208 38.2264C38.9937 38.2262 38.809 38.2358 38.6541 38.2553C38.5165 38.2627 38.4583 38.2813 38.4793 38.3112C38.4935 38.3405 38.7176 38.387 39.1518 38.4507C39.586 38.5145 40.3454 38.6068 41.4298 38.7278C41.5606 38.7477 41.7079 38.7587 41.8716 38.7609C41.8786 38.7616 41.8856 38.7623 41.8926 38.763C42.0633 38.7659 42.2053 38.7695 42.3186 38.7737C42.5712 38.7638 42.7995 38.7794 43.0036 38.8204C43.2111 38.8479 43.3464 38.8926 43.4095 38.9545C43.469 39.0022 43.4092 39.0415 43.2299 39.0726C43.1794 39.0746 43.1437 39.0745 43.1227 39.0725C43.1105 39.0643 43.1017 39.0565 43.0965 39.049C43.0982 39.0422 43.1034 39.0357 43.112 39.0296C43.2386 38.9237 43.1201 38.9259 42.7567 39.0364C42.6645 39.0621 42.5374 39.0844 42.3755 39.1032C42.2153 39.1153 42.0568 39.1205 41.9 39.119C41.1526 39.1358 41.0851 39.2057 41.6974 39.3288C42.0513 39.3707 42.2856 39.3625 42.4003 39.3042C42.5079 39.2451 42.5367 39.2445 42.4865 39.3022C42.4761 39.3151 42.4719 39.3321 42.4737 39.3532C42.4843 39.3682 42.5018 39.3838 42.5263 39.4002C42.5753 39.4329 42.6321 39.4629 42.6967 39.4902C42.7717 39.5045 42.8266 39.4995 42.8613 39.475C42.8769 39.4696 42.896 39.4645 42.9187 39.4598C42.9483 39.4558 42.9848 39.4524 43.0284 39.4497C43.1068 39.4505 43.1878 39.455 43.2715 39.4633C43.3691 39.4729 43.445 39.4839 43.4991 39.4962C43.5252 39.5057 43.5445 39.5146 43.5567 39.5228C43.569 39.531 43.5707 39.5381 43.5621 39.5442C43.55 39.5639 43.5457 39.5809 43.5493 39.5952C43.5476 39.602 43.5494 39.6091 43.5547 39.6166C43.5686 39.618 43.5826 39.6194 43.5965 39.6207C43.7011 39.6311 43.7187 39.6607 43.6493 39.7095C43.573 39.7577 43.4513 39.8014 43.2842 39.8407C43.0388 39.8792 42.8915 39.8681 42.8424 39.8075C42.7949 39.7402 42.7488 39.7391 42.7039 39.8043C42.6848 39.8233 42.576 39.8439 42.3776 39.8661C42.1878 39.8822 41.9578 39.8874 41.6877 39.8816C41.409 39.882 41.1398 39.8868 40.8803 39.896C40.8594 39.8939 40.8411 39.8956 40.8254 39.901C40.5972 39.8994 40.4239 39.9067 40.3055 39.9228C40.1749 39.9309 39.9823 39.9293 39.7279 39.9181C39.4578 39.9123 39.1868 39.896 38.9148 39.8692C38.6429 39.8424 38.3963 39.8285 38.175 39.8275C37.9607 39.8273 37.8231 39.8346 37.7622 39.8495C37.7153 39.8657 37.6474 39.8799 37.5586 39.8921C37.4855 39.8988 37.4106 39.8984 37.3339 39.8908C37.1456 39.8722 37.0961 39.8987 37.1854 39.9702C37.2221 39.9947 37.2624 40.0196 37.3061 40.0448C37.3131 40.0455 37.3192 40.0495 37.3244 40.057C37.3646 40.068 37.4021 40.0751 37.437 40.0786C37.505 40.0923 37.6047 40.1508 37.736 40.2544C37.8673 40.3579 37.9908 40.478 38.1066 40.6148C38.2328 40.7387 38.3154 40.8514 38.3544 40.9527C38.379 40.9969 38.3822 41.0843 38.3638 41.2149C38.3524 41.3461 38.3023 41.5605 38.2135 41.8583C38.1317 42.1567 38.0045 42.5794 37.8319 43.1266C37.7106 43.5256 37.6022 43.8876 37.5066 44.2125C37.4657 44.3477 37.4264 44.4762 37.3888 44.5979C37.2781 45.0118 37.2125 45.2596 37.1921 45.3412C37.1909 45.4316 37.1713 45.4958 37.1332 45.5339C37.102 45.5726 37.0491 45.5987 36.9742 45.6122C36.8524 45.642 36.7234 45.772 36.5872 46.0024C36.458 46.2334 36.356 46.5124 36.2813 46.8394C36.2341 47.0855 36.1613 47.2907 36.063 47.4552C35.9716 47.6203 35.8876 47.6991 35.8109 47.6915C35.79 47.6894 35.7794 47.6605 35.779 47.6048C35.7856 47.5497 35.801 47.4885 35.8249 47.4212C35.8351 47.3804 35.8497 47.3366 35.8686 47.2897C35.8839 47.2285 35.8993 47.1813 35.9147 47.148C35.9181 47.1344 35.9207 47.1242 35.9224 47.1174C35.9258 47.1038 35.922 47.0617 35.9112 46.9909C35.904 46.9624 35.8977 46.9304 35.8923 46.895C35.8902 46.8461 35.8821 46.793 35.8678 46.7359C35.8498 46.6366 35.8396 46.5346 35.8372 46.4299C35.8348 46.3252 35.8413 46.2422 35.8566 46.181C35.8788 46.1205 35.8907 46.059 35.892 45.9965C35.8954 45.9829 35.898 45.9727 35.8997 45.9659C35.9114 45.8904 35.9128 45.8279 35.9038 45.7782C35.9027 45.6109 35.8714 45.6218 35.8099 45.8107C35.7172 46.0384 35.676 46.003 35.6864 45.7045C35.7197 45.4571 35.787 45.0597 35.8882 44.5125C35.9841 43.9577 36.0967 43.422 36.2259 42.9054C36.2293 42.8918 36.2327 42.8782 36.2361 42.8646C36.3142 42.5241 36.3869 42.1621 36.4543 41.7787C36.5337 41.3756 36.5977 41.0197 36.6464 40.711C36.688 40.4017 36.7052 40.2188 36.6979 40.1624C36.689 40.1406 36.7002 40.1103 36.7313 40.0716C36.7537 40.039 36.7832 40.0071 36.8196 39.9759C36.8646 39.9385 36.8932 39.91 36.9053 39.8903C36.9157 39.8774 36.9182 39.8672 36.9129 39.8597C36.9146 39.8529 36.9085 39.8488 36.8946 39.8474C36.7532 39.8126 36.6397 39.7666 36.554 39.7093C36.4647 39.6378 36.3839 39.5323 36.3116 39.3929C36.1002 39.0098 36.1542 38.437 36.4736 37.6745C36.4889 37.6133 36.5148 37.5671 36.5512 37.5359C36.5842 37.5182 36.6251 37.5118 36.6739 37.5166ZM43.3437 38.4465C43.4413 38.4561 43.5206 38.4674 43.5817 38.4804C43.6149 38.4907 43.6306 38.4992 43.6289 38.506C43.6359 38.5067 43.628 38.5094 43.6054 38.5141C43.5845 38.5121 43.5601 38.5097 43.5322 38.5069C43.4817 38.5089 43.4146 38.5057 43.3309 38.4975C43.2472 38.4892 43.1818 38.4793 43.1347 38.4677C43.1068 38.4649 43.0824 38.4625 43.0615 38.4604C43.0231 38.4427 43.0361 38.4336 43.1005 38.433C43.179 38.4337 43.26 38.4382 43.3437 38.4465ZM44.1445 39.0584C44.1794 39.0618 44.1986 39.0707 44.2022 39.085C44.2074 39.0925 44.2092 39.0996 44.2075 39.1064C44.2058 39.1132 44.1971 39.1193 44.1815 39.1247C44.1658 39.1301 44.1476 39.1318 44.1266 39.1298C44.1127 39.1284 44.0953 39.1267 44.0743 39.1246C43.9714 39.1075 43.9583 39.0888 44.0348 39.0685C44.0504 39.063 44.0687 39.0614 44.0896 39.0634C44.1123 39.0587 44.1305 39.057 44.1445 39.0584ZM41.8222 40.9293C41.8553 40.9395 41.9104 40.9763 41.9875 41.0396C42.0576 41.1023 42.1338 41.169 42.2161 41.2398C42.295 41.3242 42.3503 41.3889 42.3819 41.4338C42.3908 41.4555 42.4249 41.4903 42.4845 41.5379C42.4897 41.5454 42.4959 41.5495 42.5028 41.5502C42.545 41.6101 42.6011 41.6713 42.6712 41.734C42.7396 41.8034 42.8028 41.8793 42.8608 41.9617C42.9205 42.0372 42.954 42.1032 42.9613 42.1596C42.9744 42.3072 43.0052 42.4983 43.0536 42.7329C43.0951 42.9669 43.0377 43.3966 42.8812 44.0219C42.7161 44.6534 42.5559 45.0939 42.4006 45.3432C42.2436 45.5994 42.1338 45.7383 42.0712 45.76C42.026 45.7694 41.9453 45.8207 41.8291 45.9137C41.732 45.9877 41.6237 46.078 41.5041 46.1846C41.485 46.2036 41.4625 46.2223 41.4365 46.2406C41.2909 46.3656 41.1305 46.4925 40.9553 46.6215C40.7732 46.7498 40.6266 46.8503 40.5155 46.9229C40.4096 46.9751 40.2585 47.0647 40.0624 47.1916C40.0311 47.2025 40.0025 47.2171 39.9765 47.2354C39.8567 47.3141 39.7378 47.3895 39.6198 47.4614C39.4948 47.5327 39.3724 47.6076 39.2527 47.6864C39.0063 47.8432 38.7954 47.9721 38.62 48.0732C38.436 48.1804 38.3248 48.2391 38.2866 48.2493C38.2709 48.2547 38.2553 48.2601 38.2396 48.2655C38.217 48.2703 38.1979 48.2753 38.1822 48.2808C38.1492 48.2984 38.1241 48.3133 38.1067 48.3255C37.765 48.5774 37.4097 48.7269 37.0406 48.7741C36.9222 48.7903 36.7822 48.8217 36.6204 48.8684C36.5735 48.8847 36.53 48.9013 36.49 48.9183C36.3805 48.9562 36.2814 48.9952 36.1928 49.0352C36.0139 49.122 35.801 49.202 35.554 49.2752C35.3227 49.3429 35.1026 49.3943 34.8938 49.4294C34.6919 49.4652 34.5586 49.4695 34.494 49.4422C34.4748 49.4333 34.4582 49.4282 34.4443 49.4268C34.432 49.4187 34.4181 49.4173 34.4024 49.4227C34.3868 49.4281 34.3746 49.4339 34.3659 49.44C34.3573 49.4461 34.3512 49.456 34.3478 49.4696C34.341 49.4968 34.3107 49.5181 34.2567 49.5337C34.2168 49.5507 34.1654 49.556 34.1027 49.5499C34.0608 49.5457 34.0268 49.5389 34.0006 49.5293C33.9744 49.5198 33.9595 49.5079 33.956 49.4936C33.9418 49.4643 33.9589 49.4103 34.0072 49.3315C34.1004 49.1874 34.1352 49.1769 34.1116 49.3C34.107 49.404 34.1256 49.4581 34.1675 49.4622C34.2266 49.4541 34.2803 49.3967 34.3284 49.29C34.4026 49.165 34.5345 49.0805 34.7241 49.0365C34.8319 49.0054 35.0032 48.9492 35.2379 48.8678C35.2935 48.8455 35.3526 48.8234 35.4152 48.8017C35.5873 48.7421 35.7568 48.6787 35.9237 48.6116C35.9393 48.6062 35.955 48.6008 35.9706 48.5954C36.1774 48.5113 36.326 48.4458 36.4163 48.399C36.465 48.376 36.5248 48.3366 36.5959 48.2809C36.6376 48.2572 36.6758 48.2331 36.7105 48.2086C36.7521 48.1849 36.7903 48.1608 36.825 48.1364C36.9031 48.0814 37.0376 48.0006 37.2286 47.8941C37.4039 47.793 37.5976 47.6902 37.8095 47.5857C38.1707 47.3985 38.4563 47.2282 38.6662 47.0747C38.8847 46.9152 38.9799 46.8062 38.9517 46.7477C38.8972 46.6796 38.5524 46.8441 37.9172 47.2411C37.7731 47.3314 37.6264 47.4179 37.4771 47.5007C37.3225 47.576 37.2 47.637 37.1097 47.6839C37.0298 47.7178 36.9568 47.7523 36.8908 47.7876C36.8318 47.8236 36.7997 47.8518 36.7946 47.8722C36.7826 47.8919 36.74 47.919 36.6671 47.9536C36.6011 47.9889 36.5177 48.0225 36.4168 48.0543C36.316 48.0861 36.229 48.1193 36.1561 48.1539C36.0831 48.1885 36.0406 48.2157 36.0285 48.2354C36.0251 48.249 36.0191 48.2588 36.0104 48.2649C36.0087 48.2717 36.0044 48.2748 35.9974 48.2741C35.9887 48.2802 35.9774 48.2826 35.9635 48.2812C35.9582 48.2737 35.9494 48.2659 35.9372 48.2577C35.925 48.2495 35.9119 48.2448 35.8979 48.2434C35.8926 48.2359 35.8857 48.2352 35.877 48.2413C35.87 48.2406 35.8622 48.2433 35.8535 48.2495C35.8448 48.2556 35.8388 48.2654 35.8354 48.279C35.8286 48.3062 35.8122 48.329 35.7862 48.3473C35.7705 48.3527 35.7549 48.3581 35.7392 48.3636C35.7253 48.3622 35.7113 48.3608 35.6974 48.3594C35.6695 48.3567 35.6876 48.3271 35.7517 48.2708C35.8158 48.2144 35.8991 48.153 36.0015 48.0864C36.0986 48.0124 36.1932 47.9486 36.2852 47.895C36.3842 47.8421 36.4476 47.817 36.4755 47.8198C36.4964 47.8218 36.5407 47.8018 36.6084 47.7598C36.6604 47.7231 36.7255 47.6773 36.8036 47.6223C36.8677 47.5659 36.9362 47.5205 37.0092 47.4859C37.0752 47.4506 37.1291 47.435 37.1709 47.4391C37.2476 47.4467 37.284 47.4015 37.2799 47.3036C37.2669 47.1839 37.3095 47.1568 37.4074 47.2222C37.4983 47.259 37.5322 47.2519 37.5092 47.2009C37.5073 47.1798 37.5194 47.1601 37.5454 47.1418C37.5698 47.1302 37.6028 47.1265 37.6447 47.1307C37.7702 47.143 37.791 47.1172 37.7069 47.0532C37.6229 46.9892 37.6697 46.9451 37.8472 46.9208C37.9377 46.9019 38.0585 46.8476 38.2095 46.758C38.2182 46.7519 38.2225 46.7489 38.2225 46.7489C38.3666 46.6586 38.5088 46.5612 38.6493 46.4566C38.7811 46.3582 38.8582 46.2787 38.8805 46.2183C38.8942 46.1918 38.9323 46.1537 38.9948 46.1042C38.9965 46.0974 39.0016 46.0909 39.0103 46.0848C39.0814 46.0291 39.1665 45.9748 39.2654 45.9219C39.2915 45.9036 39.3131 45.8883 39.3305 45.8761C39.3982 45.834 39.4598 45.7878 39.5152 45.7376C39.5897 45.6683 39.6338 45.6204 39.6476 45.5939C39.6578 45.5532 39.6733 45.5199 39.694 45.494C39.7201 45.4757 39.7452 45.4608 39.7695 45.4492C39.8338 45.4208 39.95 45.3277 40.118 45.1702C40.2844 45.0194 40.4575 44.8415 40.6374 44.6364C40.807 44.4441 40.9375 44.2794 41.029 44.1422C41.1326 43.9852 41.2083 43.8255 41.2561 43.6631C41.3056 43.4938 41.3563 43.2341 41.4081 42.884C41.4216 42.8017 41.4307 42.7225 41.4354 42.6464C41.464 42.4751 41.4839 42.3099 41.4951 42.1508C41.5285 41.9033 41.543 41.7167 41.5387 41.5909C41.5603 41.1333 41.6548 40.9128 41.8222 40.9293ZM36.4211 43.1963C36.4158 43.1889 36.3892 43.2524 36.3413 43.387C36.3139 43.4679 36.2883 43.5559 36.2645 43.6511C36.2441 43.7326 36.2185 43.8206 36.1877 43.9151C36.135 44.1258 36.0805 44.3434 36.0244 44.5677C35.9683 44.792 35.9285 44.9796 35.905 45.1306C35.8732 45.3433 35.8714 45.479 35.8997 45.5375C35.9435 45.5906 35.9902 45.5325 36.0397 45.3633C36.0673 45.3103 36.0851 45.2389 36.0933 45.1491C36.1101 45.0533 36.1183 44.9635 36.1178 44.8799C36.1212 44.8663 36.122 44.849 36.1201 44.8279C36.1335 44.7456 36.152 44.629 36.1754 44.4781C36.2074 44.2932 36.2472 44.1056 36.2948 43.9152C36.31 43.8262 36.3269 43.7443 36.3456 43.6695C36.3677 43.5811 36.3846 43.4992 36.3964 43.4238C36.4217 43.2939 36.43 43.2181 36.4211 43.1963ZM35.618 46.0635C35.6389 46.0655 35.6556 46.0846 35.668 46.1206C35.6821 46.1499 35.6894 46.1924 35.6897 46.2481C35.6848 46.2964 35.6781 46.3376 35.6696 46.3715C35.6662 46.3851 35.6628 46.3987 35.6594 46.4123C35.6577 46.4191 35.6533 46.4222 35.6463 46.4215C35.6394 46.4208 35.6262 46.4021 35.6068 46.3653C35.5944 46.3293 35.5837 46.2864 35.5747 46.2368C35.5673 46.1803 35.5671 46.1385 35.5739 46.1113C35.5824 46.0774 35.5971 46.0614 35.618 46.0635ZM35.5639 46.6223C35.5779 46.6237 35.5849 46.6383 35.5851 46.6662C35.5853 46.6941 35.5803 46.7284 35.5701 46.7692C35.5633 46.7964 35.5469 46.8191 35.5208 46.8375C35.5122 46.8436 35.5034 46.8358 35.4946 46.814C35.4927 46.7929 35.5012 46.7589 35.5201 46.712C35.5337 46.6576 35.5483 46.6277 35.5639 46.6223ZM35.0894 48.5188C35.1104 48.5209 35.0992 48.5511 35.056 48.6096C35.0094 48.6816 34.967 48.7227 34.9287 48.7328C34.9061 48.7376 34.9024 48.7093 34.9178 48.6482C34.9212 48.6346 34.9272 48.6247 34.9359 48.6186C34.9462 48.6057 34.9566 48.5928 34.967 48.5799C34.9964 48.548 35.0224 48.5296 35.0451 48.5249C35.0537 48.5188 35.0616 48.5161 35.0685 48.5168C35.0755 48.5175 35.0825 48.5182 35.0894 48.5188ZM48.7297 38.4243C48.7367 38.425 48.7437 38.4257 48.7506 38.4264C48.7576 38.427 48.7672 38.4315 48.7795 38.4396C48.7795 38.4396 48.7821 38.4434 48.7874 38.4509C48.8066 38.4597 48.8389 38.4734 48.8843 38.4918C48.942 38.5184 49.0083 38.5389 49.0833 38.5532C49.5859 38.6864 49.9005 38.8428 50.027 39.0225C50.1535 39.2021 50.157 39.4881 50.0375 39.8803L49.966 40.1658L50.6745 40.2043C51.1119 40.2266 51.5154 40.242 51.8848 40.2506C52.2576 40.2456 52.4779 40.236 52.5458 40.2218C52.5545 40.2157 52.5623 40.213 52.5693 40.2137C52.5762 40.2144 52.5823 40.2185 52.5876 40.226C52.5929 40.2335 52.5947 40.2406 52.593 40.2474C52.6 40.2481 52.6017 40.2552 52.5983 40.2688C52.583 40.33 52.6458 40.3362 52.7866 40.2874C52.9188 40.2447 53.1114 40.2602 53.3645 40.334C53.4779 40.3661 53.5799 40.3866 53.6706 40.3955C53.7543 40.4038 53.8083 40.4022 53.8326 40.3906C53.8482 40.3852 53.8596 40.3828 53.8665 40.3835C53.8752 40.3774 53.8822 40.3781 53.8874 40.3856C53.8927 40.3931 53.8937 40.4036 53.8903 40.4172C53.8938 40.4315 53.8965 40.4492 53.8984 40.4703C53.8938 40.5743 53.8009 40.6174 53.6196 40.5995C53.576 40.6021 53.5299 40.6011 53.481 40.5962C53.4322 40.5914 53.3826 40.59 53.3321 40.592C53.2467 40.5905 53.1683 40.5897 53.0968 40.5897C53.055 40.5855 53.0158 40.5851 52.9792 40.5885C52.8746 40.5782 52.784 40.5692 52.7073 40.5617C52.6323 40.5473 52.5869 40.5289 52.571 40.5064C52.5585 40.4425 52.5226 40.4146 52.4634 40.4227C52.4181 40.4321 52.3879 40.4675 52.3726 40.5286C52.3556 40.5966 52.273 40.6268 52.1248 40.6191C51.9697 40.6108 51.9443 40.5839 52.0486 40.5384C52.2188 40.4577 51.7472 40.4007 50.6337 40.3675C50.3287 40.3583 50.1214 40.3587 50.0117 40.3688C49.9003 40.3856 49.8465 40.4152 49.8502 40.4573C49.8426 40.6307 49.999 40.7193 50.3196 40.7231C50.3771 40.7218 50.4764 40.7246 50.6176 40.7316C50.696 40.7323 50.7849 40.7341 50.8842 40.737C51.0114 40.7426 51.1456 40.7489 51.2868 40.7558C51.4698 40.7669 51.6633 40.779 51.8672 40.7922C51.9787 40.8032 52.0842 40.8101 52.1835 40.813C52.4014 40.8275 52.5696 40.8406 52.6881 40.8523C52.8694 40.8702 52.9689 40.887 52.9864 40.9027C53.0039 40.9183 52.977 40.94 52.9058 40.9678C52.8415 40.9963 52.7684 41.017 52.6866 41.0298C52.6135 41.0365 52.5473 41.0439 52.4881 41.052C52.4742 41.0506 52.4637 41.0496 52.4568 41.0489C52.394 41.0427 52.347 41.045 52.3157 41.0559C52.2844 41.0667 52.2697 41.0827 52.2715 41.1038C52.2719 41.1595 52.1884 41.1791 52.021 41.1626C51.8537 41.1461 51.7247 41.1473 51.6343 41.1662C51.5368 41.1845 51.4952 41.2222 51.5095 41.2793C51.5148 41.2868 51.5122 41.297 51.5019 41.3099C51.5002 41.3167 51.4915 41.3228 51.4758 41.3282C51.4462 41.3323 51.4018 41.3383 51.3427 41.3464C51.2381 41.3361 51.1562 41.335 51.097 41.3431C51.0551 41.3389 51.0186 41.3423 50.9873 41.3531C50.9786 41.3593 50.9708 41.362 50.9638 41.3613C50.9551 41.3674 50.9473 41.3701 50.9403 41.3694C50.9073 41.3871 50.87 41.4077 50.8283 41.4315C50.7814 41.4478 50.6909 41.4667 50.5569 41.4883C50.4176 41.5024 50.2661 41.5083 50.1023 41.5061L49.5142 41.5003L49.3007 42.0539C49.2561 42.1749 49.2115 42.2819 49.1668 42.375C49.16 42.4022 49.1505 42.4257 49.1385 42.4454C49.085 42.5446 49.0479 42.5931 49.027 42.5911C49.006 42.589 48.987 42.608 48.9698 42.6481C48.944 42.6943 48.9242 42.7446 48.9106 42.799C48.8953 42.8602 48.8704 42.9169 48.8359 42.9693C48.8066 43.0291 48.779 43.0681 48.753 43.0864C48.7183 43.1109 48.676 43.1798 48.6262 43.2933C48.5849 43.3728 48.5436 43.4663 48.5025 43.5737C48.494 43.6077 48.4811 43.6447 48.4639 43.6848C48.2809 44.2449 48.1308 44.4878 48.0137 44.4135C47.9961 44.3979 47.9787 44.3962 47.9614 44.4084C47.9527 44.4145 47.944 44.4206 47.9353 44.4267C47.9336 44.4335 47.9319 44.4403 47.9302 44.4471C47.9216 44.4532 47.9164 44.4597 47.9147 44.4665C47.872 44.6085 47.7997 44.7546 47.6978 44.9048C47.6599 44.9707 47.699 45.0999 47.8152 45.2925C47.9244 45.4844 48.0737 45.6872 48.2632 45.9009C48.4474 46.1071 48.6313 46.2716 48.815 46.3942C49.0109 46.525 49.2206 46.6292 49.4441 46.707C49.6833 46.7794 50.0461 46.857 50.5327 46.9398C50.5606 46.9426 50.5842 46.9484 50.6034 46.9572C50.6365 46.9675 50.6671 46.974 50.695 46.9767C50.7142 46.9856 50.7308 46.9907 50.7447 46.9921C50.8197 47.0065 50.8721 47.0256 50.9019 47.0494C50.935 47.0596 51.0213 47.0577 51.1606 47.0436C51.1902 47.0395 51.2163 47.0351 51.2389 47.0304C51.352 47.0067 51.4772 46.9773 51.6147 46.9421C51.7904 46.8968 51.9348 46.8623 52.0479 46.8386C52.1766 46.8095 52.2428 46.8021 52.2463 46.8164C52.2516 46.8239 52.2534 46.831 52.2517 46.8378C52.25 46.8446 52.2483 46.8514 52.2466 46.8582C52.2309 46.8636 52.211 46.8721 52.1866 46.8836C52.157 46.8877 52.0979 46.9097 52.0093 46.9497C51.9867 46.9545 51.9632 46.9626 51.9389 46.9741C51.819 47.025 51.6756 47.084 51.5088 47.1511C51.3489 47.2189 51.1751 47.2853 50.9873 47.3504C50.7996 47.4154 50.6483 47.4632 50.5335 47.4936C50.4413 47.5194 50.3604 47.5427 50.2909 47.5637C50.2682 47.5685 50.2491 47.5735 50.2335 47.579C50.1535 47.6129 50.111 47.64 50.1059 47.6604C50.1008 47.6808 50.1037 47.7264 50.1146 47.7971C50.1307 47.8753 50.1495 47.9573 50.171 48.043C50.2533 48.3994 50.2134 48.7158 50.0513 48.9924C49.8979 49.2628 49.6835 49.3914 49.4082 49.3782C49.3384 49.3713 49.2026 49.3718 49.0005 49.3797C48.8403 49.3918 48.6757 49.4069 48.5068 49.4251C48.4633 49.4277 48.4198 49.4304 48.3762 49.4331C48.2891 49.4384 48.2012 49.4471 48.1124 49.4593C47.9818 49.4673 47.8617 49.4763 47.752 49.4864C47.5569 49.495 47.421 49.4955 47.3443 49.4879C47.3234 49.4859 47.3016 49.4872 47.279 49.4919C47.2371 49.4878 47.1936 49.4905 47.1483 49.5C47.1188 49.504 47.0926 49.5084 47.07 49.5131C47.0474 49.5179 47.0283 49.5229 47.0126 49.5283C46.9866 49.5467 46.8831 49.5748 46.7021 49.6126C46.5299 49.6444 46.3219 49.6761 46.0781 49.7078C45.737 49.7577 45.4697 49.7836 45.2763 49.7854C45.0916 49.7811 44.8763 49.7563 44.6303 49.7112C44.4541 49.6729 44.2614 49.6434 44.0522 49.6228C43.8344 49.6082 43.6505 49.6005 43.5007 49.5997C43.2394 49.6157 42.9825 49.6147 42.7297 49.5967C42.4736 49.5924 42.2635 49.5751 42.0996 49.545C41.9339 49.5217 41.8545 49.4964 41.8613 49.4692C41.882 49.4434 41.9307 49.4204 42.0072 49.4001C42.0924 49.3736 42.1907 49.352 42.3021 49.3351C42.3613 49.327 42.4248 49.3159 42.4927 49.3017C42.5449 49.2929 42.6006 49.2845 42.6598 49.2764C42.7659 49.252 42.8581 49.2263 42.9364 49.1992C42.9503 49.2006 42.9616 49.1982 42.9703 49.1921C43.0502 49.1582 43.1241 49.1342 43.192 49.12C43.2529 49.1051 43.2938 49.0987 43.3147 49.1007C43.3286 49.1021 43.3469 49.1004 43.3695 49.0957C43.3922 49.0909 43.4261 49.0839 43.4713 49.0744C43.5166 49.0649 43.5627 49.0521 43.6096 49.0358C43.6566 49.0195 43.7035 49.0033 43.7504 48.987C44.0669 48.8929 44.4357 48.7899 44.8566 48.6782C45.2776 48.5665 45.6342 48.4833 45.9266 48.4286C45.9875 48.4137 46.0449 48.3985 46.0988 48.3829C46.1683 48.3619 46.2336 48.344 46.2945 48.3291C46.404 48.2911 46.4648 48.2623 46.4769 48.2426C46.4872 48.2297 46.4968 48.2202 46.5054 48.2141C46.5141 48.208 46.5228 48.2019 46.5315 48.1957C46.5558 48.1842 46.5759 48.1897 46.5917 48.2121C46.6092 48.2278 46.6519 48.2285 46.7197 48.2143C46.7859 48.2069 46.8572 48.1931 46.9338 48.1728C47.019 48.1463 47.0999 48.123 47.1764 48.1027C47.192 48.0973 47.2077 48.0918 47.2233 48.0864C47.2842 48.0715 47.333 48.0624 47.3695 48.059C47.4774 48.0279 47.5189 47.9902 47.4943 47.946C47.48 47.8888 47.4144 47.851 47.2976 47.8325C47.1285 47.8228 47.1423 47.7963 47.3389 47.753C47.4068 47.7388 47.4781 47.725 47.5529 47.7115C47.6121 47.7034 47.667 47.6983 47.7175 47.6964C47.7331 47.6909 47.7479 47.6889 47.7619 47.6903C47.8211 47.6822 47.8864 47.6782 47.9578 47.6783C48.0257 47.6641 48.0849 47.656 48.1354 47.654C48.158 47.6493 48.1798 47.6479 48.2007 47.65C48.2216 47.6521 48.2434 47.6507 48.266 47.646C48.2816 47.6406 48.2964 47.6386 48.3104 47.6399C48.3313 47.642 48.3461 47.64 48.3548 47.6339C48.3687 47.6352 48.3757 47.6359 48.3757 47.6359C48.3844 47.6298 48.393 47.6237 48.4017 47.6176C48.4104 47.6115 48.4156 47.605 48.4173 47.5982C48.4277 47.5853 48.4337 47.5755 48.4354 47.5687C48.4371 47.5619 48.4283 47.5541 48.4091 47.5452C48.3986 47.5302 48.3741 47.5139 48.3356 47.4962C48.264 47.4682 48.1776 47.4423 48.0764 47.4183C47.963 47.3862 47.8294 47.3348 47.6757 47.2639C47.5166 47.1855 47.3663 47.101 47.2246 47.0104C46.9009 46.7904 46.6038 46.4929 46.3332 46.1179C46.0749 45.7511 45.7939 45.2462 45.4903 44.6033C45.342 44.2822 45.1937 43.9611 45.0454 43.64C44.9695 43.4862 44.8945 43.3291 44.8203 43.1685C44.7481 43.029 44.7091 42.9277 44.7035 42.8644C44.6996 42.7944 44.7253 42.7203 44.7805 42.6422C44.8375 42.5572 44.932 42.4795 45.064 42.4089C45.1942 42.3452 45.4324 42.2642 45.7786 42.166C46.457 41.9961 46.7977 42.1621 46.8008 42.6639C46.8018 42.8312 46.8424 43.0546 46.9225 43.3342C46.9939 43.6198 47.0826 43.8793 47.1886 44.1127C47.2859 44.3522 47.3659 44.475 47.4287 44.4812C47.4496 44.4832 47.4746 44.4404 47.5037 44.3528C47.5311 44.2719 47.5601 44.1703 47.5907 44.0479C47.6107 43.9106 47.6539 43.7094 47.7203 43.4442C47.7796 43.1785 47.8372 42.9055 47.893 42.6254C47.9627 42.3467 48.0118 42.1078 48.0402 41.9086C48.0772 41.7033 48.0922 41.5864 48.0851 41.5578C48.0602 41.4857 47.918 41.4542 47.6585 41.4635C47.493 41.468 47.25 41.4684 46.9294 41.4646C46.6105 41.4541 46.3055 41.4449 46.0145 41.437C45.9013 41.4328 45.8028 41.4266 45.7191 41.4183C45.5779 41.4114 45.4795 41.4051 45.4237 41.3996C45.1429 41.351 44.922 41.277 44.7611 41.1775C44.6019 41.0713 44.5359 40.9637 44.5632 40.855C44.5768 40.8006 44.5782 40.752 44.5675 40.7091C44.5638 40.667 44.5531 40.6381 44.5356 40.6224C44.5198 40.6 44.5219 40.5201 44.542 40.3827C44.562 40.2454 44.595 40.085 44.641 39.9014C44.6869 39.7179 44.7347 39.5555 44.7843 39.4141C44.8357 39.2659 44.8778 39.1691 44.9106 39.1235C44.9297 39.1045 44.947 39.0923 44.9627 39.0869C44.98 39.0747 44.9965 39.0659 45.0121 39.0604C45.047 39.0639 45.0855 39.0816 45.1275 39.1136C45.2377 39.1872 45.7801 39.2755 46.7546 39.3787C47.1521 39.4179 47.4624 39.4485 47.6855 39.4705C47.9121 39.479 48.0715 39.4842 48.1639 39.4864C48.2527 39.4743 48.3074 39.4553 48.3282 39.4295C48.3574 39.3697 48.3768 39.2636 48.3863 39.1113C48.4045 38.9529 48.3984 38.806 48.368 38.6707C48.3712 38.6292 48.3892 38.5857 48.422 38.5402C48.4671 38.5029 48.5175 38.473 48.5731 38.4506C48.6234 38.4208 48.6756 38.412 48.7297 38.4243ZM47.8881 39.689C47.7835 39.6787 47.6885 39.6728 47.6031 39.6714C47.523 39.6774 47.4734 39.6899 47.4544 39.7089C47.4457 39.715 47.4475 39.7222 47.4598 39.7304C47.472 39.7385 47.4947 39.7477 47.5279 39.758C47.5803 39.7771 47.6587 39.7918 47.7633 39.8021C47.9865 39.8241 48.0851 39.8582 48.0593 39.9044C48.0472 39.9242 48.0421 39.9445 48.044 39.9656C48.0492 39.9731 48.058 39.9809 48.0703 39.9891C48.0842 39.9905 48.1016 39.9922 48.1226 39.9943C48.1993 40.0018 48.2417 39.9608 48.2499 39.871C48.2635 39.8166 48.2414 39.7762 48.1838 39.7496C48.1331 39.7237 48.0345 39.7035 47.8881 39.689ZM47.7973 44.0787C47.7973 44.0787 47.7921 44.0852 47.7818 44.0981C47.7784 44.1117 47.7741 44.1287 47.769 44.1491C47.7588 44.1899 47.7546 44.2208 47.7565 44.2419C47.7618 44.2494 47.7636 44.2565 47.7619 44.2633C47.7688 44.264 47.7767 44.2613 47.7853 44.2552C47.8027 44.243 47.8148 44.2232 47.8216 44.1961C47.825 44.1825 47.8249 44.1685 47.8213 44.1542C47.8247 44.1406 47.8246 44.1267 47.821 44.1124C47.8226 44.0777 47.8147 44.0665 47.7973 44.0787ZM46.6049 45.6746C46.6032 45.6813 46.6253 45.7358 46.6712 45.8378C46.7258 45.9338 46.791 46.0447 46.8667 46.1705C46.9441 46.2896 47.0127 46.4009 47.0726 46.5043C47.1481 46.6023 47.1893 46.6517 47.1963 46.6523C47.2033 46.653 47.2067 46.6534 47.2067 46.6534C47.2084 46.6466 47.2093 46.6432 47.2093 46.6432C47.211 46.6364 47.2118 46.633 47.2118 46.633C47.2205 46.6269 47.2257 46.6204 47.2274 46.6136C47.2291 46.6068 47.2308 46.6 47.2325 46.5932C47.2376 46.5728 47.2102 46.5109 47.1504 46.4075C47.0958 46.3116 47.0263 46.2037 46.9419 46.0839C46.8628 45.9717 46.7908 45.874 46.7258 45.791C46.6592 45.7147 46.6189 45.6759 46.6049 45.6746ZM47.3537 46.7515C47.3049 46.7466 47.2761 46.7473 47.2675 46.7534C47.2658 46.7602 47.2886 46.7833 47.3358 46.8228C47.3656 46.8467 47.3997 46.8675 47.4381 46.8852C47.4643 46.8947 47.4835 46.9036 47.4958 46.9118C47.5167 46.9138 47.5341 46.9155 47.5481 46.9169C47.6039 46.9224 47.6326 46.9218 47.6343 46.915C47.6377 46.9014 47.6149 46.8782 47.566 46.8456C47.5362 46.8217 47.5021 46.8009 47.4636 46.7832C47.4252 46.7655 47.3886 46.7549 47.3537 46.7515ZM46.8871 47.8025C46.9289 47.8066 46.909 47.829 46.8274 47.8697C46.7944 47.8874 46.7544 47.9043 46.7075 47.9206C46.6918 47.926 46.677 47.928 46.6631 47.9266C46.6475 47.9321 46.6327 47.9341 46.6187 47.9327C46.5699 47.9279 46.5872 47.9017 46.6705 47.8542C46.6931 47.8495 46.7166 47.8414 46.7409 47.8298C46.7566 47.8244 46.7757 47.8193 46.7983 47.8146C46.8366 47.8045 46.8662 47.8004 46.8871 47.8025Z" fill="#F1EDE4"/>
</g>
<defs>
<clipPath id="clip0_216_112291">
<rect width="60" height="63.1802" fill="white" transform="translate(10.5 8.75781)"/>
</clipPath>
</defs>
</svg>
