<svg width="81" height="81" viewBox="0 0 81 81" fill="none" xmlns="http://www.w3.org/2000/svg">
<g clip-path="url(#clip0_216_112328)">
<path fill-rule="evenodd" clip-rule="evenodd" d="M21.884 15.7911C21.7629 14.9777 22.68 14.3807 23.2857 13.8702C25.0076 12.4252 27.9234 11.2052 30.3029 10.6947C30.6576 10.6169 31.1076 10.539 31.1854 10.9197C31.3066 11.4821 30.052 11.5773 30 11.5859C27.6985 12.0964 25.4661 13.1174 23.8654 14.3894C23.2424 14.8912 22.8444 15.8084 21.8667 15.7911H21.884Z" fill="#F1EDE4"/>
<path fill-rule="evenodd" clip-rule="evenodd" d="M27.8628 23.7687C27.3177 24.7291 26.2621 25.006 25.5699 25.8366C24.8171 26.7365 24.3845 27.9997 23.277 28.5708C23.277 28.5016 23.1905 28.5102 23.1299 28.4929C22.7232 27.9824 23.4846 27.4806 23.8654 26.9441C24.8171 25.6203 25.7083 24.4522 27.1879 23.6216C27.3869 23.5091 27.6552 23.3706 27.8542 23.7687H27.8628Z" fill="#F1EDE4"/>
<path fill-rule="evenodd" clip-rule="evenodd" d="M11.7967 26.719C11.9092 26.7536 11.987 26.8315 12.0909 26.8661C12.1168 27.8352 11.3381 28.5274 10.9055 29.3061C9.49513 31.8326 9.16633 35.8387 8.90676 39.6458C8.80293 41.2033 9.13172 43.6433 9.42591 44.9671C9.50378 45.3219 10.17 46.3256 9.50378 46.5159C8.80293 46.7236 8.61257 44.9844 8.54335 44.5951C7.95498 41.1168 8.29243 36.9982 8.76832 33.442C9.14038 30.6732 10.2479 28.4928 11.5717 26.8661C11.6236 26.7969 11.7015 26.7536 11.7967 26.719Z" fill="#F1EDE4"/>
<path fill-rule="evenodd" clip-rule="evenodd" d="M73.5917 36.8426C73.9638 36.7734 74.1801 37.829 74.258 38.3222C75.0107 43.0378 73.8426 47.2862 73.0033 51.0241C72.8476 51.7249 72.8562 52.7892 72.1208 52.9449C71.6709 52.27 72.0948 51.3875 72.2679 50.652C72.4409 49.9166 72.6313 49.1292 72.787 48.3591C73.2543 45.9883 73.8513 43.8685 73.6696 40.9007C73.5831 39.4816 73.2629 38.1059 73.2975 36.9118C73.3927 36.9205 73.5744 36.6609 73.5917 36.834V36.8426Z" fill="#F1EDE4"/>
<path fill-rule="evenodd" clip-rule="evenodd" d="M55.9404 62.8432V63.2845C55.6636 63.5787 54.8675 63.4662 55.0579 62.8432C55.1963 62.6356 55.802 62.6356 55.9404 62.8432Z" fill="#F1EDE4"/>
<path fill-rule="evenodd" clip-rule="evenodd" d="M54.5299 64.0979C54.6078 64.8507 53.7165 65.2487 53.1282 65.5775C50.8526 66.8408 47.9194 67.1177 44.4151 67.3513C43.5672 67.4119 42.3818 67.9223 41.7588 67.3513C42.0011 66.5812 43.6364 66.5985 44.4151 66.5379C46.3446 66.3822 48.1876 66.3562 49.8835 66.0188C51.5534 65.6814 52.8167 64.8594 53.9502 64.0201C53.9242 64.0374 54.2963 63.9162 54.2443 64.0201C54.4001 63.9855 54.4434 64.072 54.5385 64.0979H54.5299Z" fill="#F1EDE4"/>
<path fill-rule="evenodd" clip-rule="evenodd" d="M50.8444 71.8792C50.68 72.7357 49.1658 72.7531 48.0409 72.8396C47.0286 72.9175 45.6529 73.0386 45.1597 72.4675C45.4625 71.6974 46.8902 72.0695 47.9631 72.0262C48.7937 71.9916 49.659 71.6628 50.256 71.6542C50.5242 71.6542 50.68 71.6109 50.8444 71.8792Z" fill="#F1EDE4"/>
<path d="M36.3513 12.8147C27.6988 13.5069 20.6326 20.3135 18.181 23.6303C17.8926 24.3514 17.0562 26.053 16.0179 27.0913C14.72 28.3892 14.2874 32.7154 12.9895 38.3396C11.6917 43.9637 15.5853 53.4814 17.3158 56.0772C19.0463 58.6729 22.9399 61.7013 27.2662 65.1623C31.5924 68.6233 37.2165 69.9212 45.4364 69.9212C53.6563 69.9212 60.1457 63.4318 62.3088 61.7013C64.4719 59.9708 65.7698 54.7793 67.9329 52.6162C70.0961 50.4531 70.0961 40.9353 70.5287 38.3396C70.9613 35.7438 67.5003 27.5239 65.7698 25.7934C64.0393 24.0629 60.5783 19.7367 57.1173 17.1409C53.6563 14.5452 47.1669 11.9494 36.3513 12.8147Z" stroke="#F1EDE4" stroke-width="0.86525"/>
<path d="M36.6727 64.586C29.4238 64.0005 23.5039 58.2422 21.45 55.4363C21.2084 54.8264 20.5077 53.3868 19.6378 52.5084C18.5504 51.4105 18.188 47.7506 17.1007 42.9927C16.0133 38.2349 19.2753 30.1832 20.7251 27.9872C22.1749 25.7913 25.4369 23.2294 29.0613 20.3015C32.6858 17.3736 37.3976 16.2756 44.284 16.2756C51.1704 16.2756 56.6071 21.7654 58.4193 23.2294C60.2315 24.6933 61.3189 29.0852 63.1311 30.9151C64.9433 32.7451 64.9433 40.7968 65.3057 42.9927C65.6682 45.1887 62.7686 52.1424 61.3189 53.6064C59.8691 55.0703 56.9695 58.7302 54.07 60.9262C51.1704 63.1221 45.7338 65.318 36.6727 64.586Z" stroke="#F1EDE4" stroke-width="0.86525"/>
<path d="M39.5035 44.2816C39.5035 44.1762 39.4755 44.5922 39.5379 44.6166C39.6945 44.6778 39.9564 44.5702 39.9964 44.3241C40.056 43.9566 39.3794 44.0621 39.3794 44.2816C39.3794 44.3801 39.4595 44.5691 39.5345 44.4892C39.7065 44.3061 39.7517 43.8859 39.7517 43.6069C39.7517 42.7387 39.7517 41.8706 39.7517 41.0024C39.7517 38.5051 39.3794 36.044 39.3794 33.5806" stroke="#F1EDE4" stroke-width="0.86525" stroke-linecap="round"/>
<path d="M39.5908 44.6818C40.5062 44.6818 41.1891 45.1142 42.0415 45.5217C42.7041 45.8384 43.397 46.0182 44.0545 46.3332C44.3222 46.4615 44.6456 46.4652 44.9265 46.5691C45.3834 46.7382 45.8399 46.8664 46.3053 46.9938C47.1395 47.2222 48.1377 47.1344 48.8973 47.6543" stroke="#F1EDE4" stroke-width="0.86525" stroke-linecap="round"/>
</g>
<path d="M37.5598 21.6392C37.564 21.6392 37.5662 21.6413 37.5662 21.6455C37.5704 21.6498 37.5704 21.6561 37.5662 21.6646C37.5619 21.6815 37.5556 21.7026 37.5471 21.7279C37.5345 21.7533 37.5218 21.7744 37.5091 21.7913C37.5049 21.7998 37.5007 21.8061 37.4964 21.8103C37.4922 21.8145 37.488 21.8167 37.4838 21.8167C37.4795 21.8167 37.4753 21.8145 37.4711 21.8103C37.4711 21.8061 37.4732 21.7998 37.4774 21.7913C37.4774 21.7702 37.4838 21.7491 37.4964 21.7279C37.5091 21.7026 37.5218 21.6815 37.5345 21.6646C37.5387 21.6603 37.5429 21.6561 37.5471 21.6519C37.5514 21.6434 37.5556 21.6392 37.5598 21.6392ZM37.2049 21.8293C37.2091 21.8336 37.2091 21.8483 37.2049 21.8737C37.2007 21.8821 37.1986 21.8927 37.1986 21.9054H37.2049C37.188 21.9856 37.1817 22.0363 37.1859 22.0575C37.1901 22.0701 37.1944 22.0786 37.1986 22.0828C37.207 22.087 37.2197 22.087 37.2366 22.0828C37.2577 22.0828 37.2725 22.0913 37.281 22.1082C37.2979 22.1293 37.3084 22.1525 37.3127 22.1779C37.3127 22.2075 37.3211 22.2349 37.338 22.2603C37.3591 22.2856 37.3781 22.3025 37.395 22.311C37.4457 22.3279 37.4753 22.3786 37.4838 22.4631C37.4964 22.5433 37.488 22.6194 37.4584 22.6912C37.45 22.7081 37.4415 22.7229 37.4331 22.7356C37.4288 22.7482 37.4288 22.7588 37.4331 22.7672C37.4331 22.7841 37.4457 22.801 37.4711 22.8179C37.5007 22.8306 37.5155 22.8496 37.5155 22.875C37.5197 22.9046 37.5112 22.951 37.4901 23.0144C37.4901 23.0144 37.4901 23.0165 37.4901 23.0207C37.4774 23.0714 37.4648 23.1242 37.4521 23.1792C37.4436 23.2214 37.4373 23.2594 37.4331 23.2932C37.4288 23.3059 37.4267 23.3165 37.4267 23.3249C37.4098 23.4981 37.3781 23.6671 37.3317 23.8319C37.281 23.9882 37.2303 24.096 37.1796 24.1551C37.1035 24.2185 37.019 24.2586 36.9261 24.2755C36.8331 24.2924 36.7444 24.2819 36.6599 24.2438C36.6472 24.2354 36.6325 24.229 36.6156 24.2248C36.5902 24.2121 36.5649 24.1995 36.5395 24.1868C36.5099 24.1741 36.4846 24.1636 36.4635 24.1551C36.4508 24.1509 36.4381 24.1467 36.4254 24.1424C36.3916 24.1298 36.3642 24.1129 36.3431 24.0917C36.3177 24.0748 36.305 24.0601 36.305 24.0474C36.305 24.0347 36.2924 24.0094 36.267 23.9713C36.2543 23.9587 36.2438 23.9439 36.2353 23.927C36.2184 23.9058 36.2015 23.8847 36.1846 23.8636L36.0642 23.7368L36.1973 23.5911C36.2438 23.5446 36.286 23.4897 36.324 23.4263C36.3705 23.3587 36.4254 23.2594 36.4888 23.1285C36.548 23.0144 36.6261 22.8581 36.7233 22.6595C36.736 22.6299 36.7508 22.5983 36.7677 22.5645C36.8141 22.4631 36.8606 22.3743 36.9071 22.2983C36.9535 22.2265 36.9852 22.1863 37.0021 22.1779C37.0106 22.1737 37.0169 22.1694 37.0211 22.1652C37.0296 22.161 37.0359 22.1568 37.0402 22.1525C37.0486 22.1399 37.0465 22.1272 37.0338 22.1145C37.0296 22.1061 37.0296 22.0934 37.0338 22.0765C37.0423 22.0554 37.0549 22.0363 37.0718 22.0194C37.0845 21.9983 37.0972 21.9814 37.1099 21.9687C37.1141 21.9603 37.1162 21.954 37.1162 21.9497C37.1162 21.9455 37.1141 21.9413 37.1099 21.9371C37.1099 21.9328 37.1099 21.9286 37.1099 21.9244C37.1099 21.9202 37.112 21.9138 37.1162 21.9054C37.1289 21.8927 37.1437 21.8779 37.1606 21.861C37.1732 21.8483 37.1838 21.8399 37.1923 21.8357C37.2007 21.8272 37.2049 21.8251 37.2049 21.8293ZM37.5788 22.1082C37.583 22.1082 37.5852 22.1082 37.5852 22.1082C37.5852 22.1082 37.5852 22.1103 37.5852 22.1145C37.5852 22.1145 37.5852 22.1166 37.5852 22.1208C37.5852 22.1208 37.5852 22.123 37.5852 22.1272C37.5936 22.1694 37.5852 22.2096 37.5598 22.2476C37.5345 22.2814 37.507 22.2941 37.4774 22.2856C37.469 22.2856 37.4626 22.2814 37.4584 22.2729C37.4584 22.2645 37.4584 22.256 37.4584 22.2476C37.4626 22.2222 37.4774 22.1969 37.5028 22.1715C37.5408 22.1208 37.5662 22.0997 37.5788 22.1082ZM37.7499 22.4631C37.8006 22.4631 37.8767 22.4863 37.9781 22.5328C38.2569 22.6595 38.447 22.8137 38.5484 22.9954C38.578 23.0461 38.5949 23.1031 38.5991 23.1665C38.6076 23.2299 38.5949 23.3228 38.5611 23.4453C38.54 23.5467 38.5062 23.6777 38.4597 23.8382C38.447 23.8805 38.4344 23.9249 38.4217 23.9713C38.3963 24.0601 38.3668 24.1868 38.333 24.3516C38.3245 24.3769 38.3182 24.4023 38.3139 24.4276C38.2717 24.622 38.2337 24.8184 38.1999 25.017C38.1619 25.2071 38.1407 25.3444 38.1365 25.4289C38.1323 25.4712 38.1238 25.5113 38.1112 25.5493C38.1027 25.5873 38.0921 25.6127 38.0795 25.6254C38.0668 25.6423 38.0583 25.6634 38.0541 25.6887C38.0541 25.6972 38.0541 25.7056 38.0541 25.7141C38.0499 25.731 38.0499 25.7479 38.0541 25.7648C38.0583 25.7901 38.0541 25.8366 38.0414 25.9042C38.0372 25.9169 38.033 25.9317 38.0288 25.9486C38.0161 26.0077 37.9992 26.0669 37.9781 26.126C37.9738 26.1514 37.9675 26.1767 37.9591 26.2021C37.9422 26.2612 37.9295 26.3203 37.921 26.3795C37.9084 26.4682 37.9041 26.54 37.9084 26.595C37.9084 26.6457 37.9041 26.6964 37.8957 26.7471C37.8872 26.7893 37.8725 26.821 37.8513 26.8421C37.8302 26.8548 37.8154 26.878 37.807 26.9118C37.7943 26.9414 37.7901 26.971 37.7943 27.0005C37.7943 27.0301 37.7943 27.0576 37.7943 27.0829C37.7943 27.1125 37.7901 27.1336 37.7816 27.1463C37.7774 27.1632 37.7711 27.1907 37.7626 27.2287C37.7626 27.2456 37.7626 27.2646 37.7626 27.2857C37.7584 27.3111 37.7563 27.3364 37.7563 27.3618C37.7563 27.4125 37.7478 27.4526 37.7309 27.4822C37.7182 27.516 37.7056 27.5329 37.6929 27.5329C37.676 27.5329 37.6633 27.5139 37.6549 27.4758C37.6464 27.4378 37.6316 27.442 37.6105 27.4885C37.564 27.6026 37.5852 27.6596 37.6739 27.6596C37.7204 27.6596 37.7415 27.6639 37.7373 27.6723C37.7373 27.6765 37.7204 27.6934 37.6866 27.723C37.6105 27.7864 37.5936 27.9575 37.6359 28.2363L37.6612 28.3884L38.0098 28.3631C38.0985 28.3546 38.1935 28.3462 38.2949 28.3377C38.3076 28.3335 38.3203 28.3314 38.333 28.3314C38.3668 28.3272 38.4006 28.3229 38.4344 28.3187C38.502 28.3145 38.559 28.3081 38.6055 28.2997C38.6731 28.287 38.7259 28.2807 38.7639 28.2807C38.7977 28.2807 38.8188 28.2828 38.8273 28.287C38.8315 28.2912 38.8336 28.2976 38.8336 28.306C38.8336 28.3145 38.8336 28.325 38.8336 28.3377C38.8294 28.3504 38.8273 28.361 38.8273 28.3694C38.8273 28.3779 38.8315 28.3842 38.8399 28.3884C38.8526 28.3926 38.8843 28.3884 38.935 28.3757C38.9688 28.3631 38.9984 28.3567 39.0237 28.3567C39.0491 28.3567 39.0617 28.3588 39.0617 28.3631C39.0617 28.3884 39.0554 28.4159 39.0427 28.4454C39.0301 28.4792 39.0132 28.5067 38.992 28.5278C38.9709 28.5532 38.9498 28.5659 38.9287 28.5659C38.9118 28.5659 38.897 28.5701 38.8843 28.5785C38.8801 28.5828 38.878 28.5891 38.878 28.5975C38.8822 28.6018 38.8864 28.606 38.8906 28.6102C38.8991 28.6229 38.897 28.6356 38.8843 28.6482C38.8759 28.6609 38.859 28.6715 38.8336 28.6799C38.8083 28.6926 38.7892 28.7074 38.7766 28.7243C38.7681 28.7327 38.7618 28.7412 38.7576 28.7496C38.7533 28.7581 38.7533 28.7665 38.7576 28.775C38.7576 28.8003 38.7385 28.8362 38.7005 28.8827C38.6625 28.925 38.6118 28.9693 38.5484 29.0158C38.4893 29.0623 38.428 29.0982 38.3646 29.1235C38.3182 29.1404 38.2083 29.1552 38.0351 29.1679C37.8577 29.1806 37.6718 29.189 37.4774 29.1932C37.4352 29.1932 37.395 29.1954 37.357 29.1996C37.2134 29.2038 37.0972 29.2059 37.0085 29.2059C36.9324 29.2059 36.869 29.1679 36.8184 29.0919C36.7761 29.0158 36.7191 28.8912 36.6472 28.718C36.6472 28.7095 36.6451 28.7032 36.6409 28.6989C36.6409 28.6989 36.6409 28.6968 36.6409 28.6926C36.5733 28.5321 36.548 28.4307 36.5649 28.3884C36.5775 28.3504 36.6409 28.3462 36.755 28.3757C36.7803 28.38 36.8247 28.3821 36.8881 28.3821C36.9557 28.3863 37.0275 28.3863 37.1035 28.3821C37.1458 28.3821 37.1838 28.38 37.2176 28.3757C37.2514 28.3757 37.281 28.3757 37.3063 28.3757C37.3274 28.3715 37.3465 28.3694 37.3634 28.3694C37.3887 28.3694 37.4056 28.3673 37.4141 28.3631C37.4521 28.3419 37.4648 28.1603 37.4521 27.8181C37.4479 27.6702 37.4457 27.5308 37.4457 27.3998C37.4415 27.3069 37.4415 27.235 37.4457 27.1843C37.4457 27.1632 37.4457 27.1463 37.4457 27.1336C37.45 27.0238 37.4331 26.9541 37.395 26.9245C37.357 26.8949 37.357 26.8801 37.395 26.8801C37.4035 26.8801 37.4098 26.878 37.4141 26.8738C37.4183 26.8696 37.4225 26.8654 37.4267 26.8611C37.4267 26.8527 37.4246 26.8463 37.4204 26.8421C37.4204 26.8337 37.4183 26.8252 37.4141 26.8168C37.4098 26.8083 37.4056 26.7999 37.4014 26.7914C37.4014 26.783 37.4035 26.7745 37.4077 26.7661C37.4077 26.7576 37.4098 26.7513 37.4141 26.7471C37.4183 26.7386 37.4225 26.7323 37.4267 26.728C37.431 26.7238 37.4352 26.7175 37.4394 26.709C37.4436 26.7006 37.4479 26.69 37.4521 26.6773C37.4605 26.6478 37.4605 26.6182 37.4521 26.5886C37.4479 26.5633 37.4457 26.5379 37.4457 26.5126C37.4542 26.4915 37.4605 26.4809 37.4648 26.4809C37.4774 26.4809 37.4838 26.4619 37.4838 26.4239C37.4838 26.3901 37.4774 26.3478 37.4648 26.2971C37.4521 26.2211 37.45 26.1683 37.4584 26.1387C37.4626 26.126 37.469 26.1154 37.4774 26.107C37.4901 26.0943 37.5049 26.0859 37.5218 26.0816C37.5471 26.069 37.5683 26.0542 37.5852 26.0373C37.6021 26.0162 37.6105 25.9929 37.6105 25.9676C37.6105 25.9042 37.5999 25.8958 37.5788 25.9422C37.5577 25.976 37.5366 25.9929 37.5155 25.9929C37.4901 25.9887 37.4732 25.9739 37.4648 25.9486C37.4521 25.9232 37.4521 25.8915 37.4648 25.8535C37.4774 25.8239 37.4859 25.7965 37.4901 25.7711C37.4943 25.7584 37.4964 25.7479 37.4964 25.7394C37.4964 25.731 37.4943 25.7246 37.4901 25.7204C37.4859 25.7162 37.4838 25.712 37.4838 25.7077C37.488 25.7035 37.4922 25.6993 37.4964 25.6951C37.5007 25.6908 37.5049 25.6887 37.5091 25.6887C37.5176 25.6887 37.5239 25.6887 37.5281 25.6887C37.5408 25.6887 37.5514 25.6951 37.5598 25.7077C37.564 25.7162 37.5662 25.7268 37.5662 25.7394C37.5704 25.7479 37.5725 25.7584 37.5725 25.7711C37.5683 25.7838 37.5662 25.7965 37.5662 25.8091C37.5704 25.8176 37.5746 25.826 37.5788 25.8345C37.583 25.8429 37.5873 25.8493 37.5915 25.8535C37.5957 25.8577 37.5999 25.8598 37.6042 25.8598C37.6549 25.8598 37.6802 25.7944 37.6802 25.6634C37.6802 25.6127 37.676 25.581 37.6675 25.5683C37.6549 25.5556 37.6337 25.5556 37.6042 25.5683C37.5619 25.5852 37.5471 25.5852 37.5598 25.5683C37.564 25.5599 37.5662 25.5472 37.5662 25.5303C37.5619 25.5219 37.5577 25.5155 37.5535 25.5113C37.5493 25.5028 37.5429 25.4944 37.5345 25.4859C37.5133 25.4648 37.4986 25.4057 37.4901 25.3085C37.4817 25.2113 37.4774 25.1163 37.4774 25.0233C37.4774 24.9261 37.488 24.8628 37.5091 24.8332C37.5133 24.8205 37.5155 24.8015 37.5155 24.7762C37.5112 24.7466 37.4986 24.7191 37.4774 24.6938C37.4394 24.6304 37.4331 24.5882 37.4584 24.567C37.4753 24.5544 37.4838 24.5353 37.4838 24.51C37.4922 24.4846 37.4922 24.4551 37.4838 24.4213C37.4795 24.3833 37.4795 24.3473 37.4838 24.3135C37.488 24.2755 37.4986 24.2438 37.5155 24.2185C37.5281 24.1931 37.5366 24.1678 37.5408 24.1424C37.5408 24.1171 37.5387 24.0981 37.5345 24.0854C37.526 24.0643 37.5218 24.0326 37.5218 23.9903C37.5218 23.9439 37.5281 23.8932 37.5408 23.8382C37.5493 23.7833 37.5535 23.7347 37.5535 23.6925C37.5535 23.646 37.5493 23.6186 37.5408 23.6101C37.5366 23.6059 37.5324 23.5995 37.5281 23.5911C37.5281 23.5826 37.5281 23.5742 37.5281 23.5657C37.5281 23.5446 37.5302 23.5256 37.5345 23.5087C37.5387 23.5045 37.5408 23.5003 37.5408 23.496C37.5493 23.4707 37.5577 23.42 37.5662 23.3439C37.5704 23.3059 37.5746 23.2679 37.5788 23.2299C37.583 23.1834 37.5873 23.1348 37.5915 23.0841C37.5999 22.856 37.6147 22.6954 37.6359 22.6025C37.657 22.5095 37.695 22.4631 37.7499 22.4631ZM37.6612 25.2071C37.657 25.2029 37.6528 25.2029 37.6485 25.2071C37.6485 25.2113 37.6464 25.2177 37.6422 25.2261C37.638 25.2303 37.6337 25.2346 37.6295 25.2388C37.6253 25.2472 37.6232 25.2557 37.6232 25.2641C37.6232 25.2641 37.6211 25.2662 37.6168 25.2705C37.6168 25.2705 37.6168 25.2726 37.6168 25.2768C37.6168 25.281 37.6147 25.2874 37.6105 25.2958C37.6063 25.3043 37.6042 25.3127 37.6042 25.3212C37.6042 25.3296 37.6042 25.336 37.6042 25.3402C37.6042 25.3444 37.6063 25.3486 37.6105 25.3529C37.6147 25.3571 37.619 25.3613 37.6232 25.3655C37.6274 25.3655 37.6316 25.3655 37.6359 25.3655C37.6401 25.3698 37.6464 25.3719 37.6549 25.3719C37.6675 25.3719 37.6781 25.3613 37.6866 25.3402C37.695 25.3191 37.695 25.2958 37.6866 25.2705C37.6823 25.2493 37.6781 25.2346 37.6739 25.2261C37.6697 25.2134 37.6654 25.2071 37.6612 25.2071ZM37.7436 25.9993C37.7394 25.9993 37.7351 25.9993 37.7309 25.9993C37.7309 25.9993 37.7288 26.0014 37.7246 26.0056C37.7204 26.0098 37.7161 26.014 37.7119 26.0183C37.7077 26.0225 37.7035 26.0288 37.6992 26.0373C37.695 26.05 37.6929 26.0626 37.6929 26.0753C37.6929 26.0795 37.695 26.0859 37.6992 26.0943C37.7035 26.0985 37.7077 26.1028 37.7119 26.107C37.7161 26.1112 37.7204 26.1133 37.7246 26.1133C37.733 26.1133 37.7394 26.1133 37.7436 26.1133C37.752 26.1133 37.7584 26.1112 37.7626 26.107C37.7668 26.1028 37.7711 26.0985 37.7753 26.0943C37.7795 26.0774 37.7816 26.0605 37.7816 26.0436C37.7774 26.014 37.7647 25.9993 37.7436 25.9993ZM37.6992 26.3351C37.6908 26.3394 37.6844 26.3436 37.6802 26.3478C37.676 26.352 37.6718 26.3584 37.6675 26.3668C37.6549 26.3837 37.6485 26.4048 37.6485 26.4302C37.6443 26.4429 37.6422 26.4555 37.6422 26.4682C37.6464 26.4767 37.6506 26.4851 37.6549 26.4936C37.6591 26.5062 37.6675 26.5126 37.6802 26.5126C37.6887 26.5126 37.695 26.5126 37.6992 26.5126C37.7035 26.5126 37.7077 26.5105 37.7119 26.5062C37.7161 26.5062 37.7182 26.5062 37.7182 26.5062C37.7182 26.502 37.7182 26.4978 37.7182 26.4936C37.7182 26.4893 37.7182 26.4851 37.7182 26.4809C37.7182 26.4767 37.7204 26.4703 37.7246 26.4619C37.7246 26.4534 37.7267 26.4429 37.7309 26.4302C37.7309 26.4217 37.7309 26.4133 37.7309 26.4048C37.7394 26.3837 37.7394 26.3668 37.7309 26.3541C37.7267 26.3457 37.7225 26.3415 37.7182 26.3415C37.714 26.3372 37.7077 26.3351 37.6992 26.3351ZM37.6739 26.614C37.6739 26.614 37.6718 26.614 37.6675 26.614C37.6633 26.6182 37.6612 26.6245 37.6612 26.633C37.6612 26.6372 37.6612 26.6435 37.6612 26.652C37.6612 26.6562 37.6633 26.6626 37.6675 26.671C37.6718 26.6795 37.676 26.6879 37.6802 26.6964C37.7056 26.7302 37.7119 26.7217 37.6992 26.671C37.695 26.633 37.6866 26.614 37.6739 26.614ZM37.6802 26.9182C37.6802 26.9182 37.6781 26.9182 37.6739 26.9182C37.6739 26.9182 37.6718 26.9182 37.6675 26.9182C37.6675 26.9182 37.6654 26.9182 37.6612 26.9182C37.6443 26.9224 37.6316 26.9308 37.6232 26.9435C37.619 26.9477 37.6168 26.952 37.6168 26.9562C37.6168 26.9604 37.6168 26.9646 37.6168 26.9689C37.6211 26.9815 37.6274 26.9921 37.6359 27.0005C37.6443 27.0048 37.6528 27.0048 37.6612 27.0005C37.6823 27.0005 37.6971 26.9837 37.7056 26.9499C37.7056 26.9287 37.6971 26.9182 37.6802 26.9182ZM37.6485 27.1907C37.6105 27.1949 37.5957 27.2329 37.6042 27.3047C37.6084 27.3174 37.6126 27.3301 37.6168 27.3428C37.6211 27.3512 37.6253 27.3597 37.6295 27.3681C37.6464 27.385 37.6633 27.3935 37.6802 27.3935C37.7013 27.3935 37.714 27.3829 37.7182 27.3618C37.7309 27.3407 37.733 27.3132 37.7246 27.2794C37.7077 27.2118 37.6823 27.1822 37.6485 27.1907ZM42.5282 22.0258C42.562 22.0258 42.562 22.0427 42.5282 22.0765C42.4987 22.1103 42.4649 22.1124 42.4268 22.0828C42.3973 22.049 42.4142 22.03 42.4775 22.0258C42.4902 22.0258 42.5008 22.0258 42.5092 22.0258C42.5177 22.0258 42.524 22.0258 42.5282 22.0258ZM42.3191 22.0701C42.3233 22.0701 42.3254 22.0723 42.3254 22.0765C42.3297 22.0765 42.3318 22.0807 42.3318 22.0892C42.3402 22.2032 42.1565 22.387 41.7804 22.6405C41.7255 22.6827 41.6748 22.7208 41.6283 22.7546C41.5861 22.7841 41.5481 22.8116 41.5143 22.837C41.4425 22.8961 41.4087 22.932 41.4129 22.9447C41.4129 22.9489 41.4129 22.9531 41.4129 22.9574C41.4129 22.9616 41.415 22.9637 41.4192 22.9637C41.4234 22.9679 41.4319 22.9679 41.4446 22.9637C41.453 22.9595 41.4594 22.9574 41.4636 22.9574C41.472 22.9531 41.4826 22.9468 41.4953 22.9384C41.5122 22.9299 41.5312 22.9172 41.5523 22.9003C41.5903 22.8792 41.6368 22.8475 41.6917 22.8053C41.7002 22.801 41.7086 22.7947 41.7171 22.7863C41.9072 22.6553 42.11 22.5264 42.3254 22.3997C42.5409 22.2645 42.6867 22.1842 42.7627 22.1589C42.8726 22.1166 42.8852 22.1208 42.8007 22.1715C42.7796 22.1842 42.7458 22.2075 42.6993 22.2413C42.6571 22.2708 42.6106 22.3025 42.5599 22.3363C42.5557 22.3405 42.5494 22.3448 42.5409 22.349C42.5367 22.3532 42.5304 22.3574 42.5219 22.3617C42.4712 22.3997 42.4226 22.4271 42.3761 22.444C42.3719 22.4483 42.3677 22.4504 42.3635 22.4504C42.3254 22.4673 42.3022 22.4736 42.2938 22.4694C42.2895 22.4652 42.2853 22.4631 42.2811 22.4631C42.2769 22.4631 42.2726 22.4652 42.2684 22.4694C42.26 22.4736 42.2557 22.4863 42.2557 22.5074C42.2557 22.5159 42.2536 22.5285 42.2494 22.5454C42.2452 22.5581 42.2346 22.5729 42.2177 22.5898C42.1924 22.6194 42.1607 22.6511 42.1227 22.6849C42.1058 22.7018 42.0889 22.7165 42.072 22.7292C42.0551 22.7461 42.0382 22.7609 42.0213 22.7736C41.9959 22.8074 41.9832 22.8306 41.9832 22.8433C41.9875 22.8517 41.9875 22.8623 41.9832 22.875C41.979 22.8834 41.9727 22.894 41.9642 22.9067C41.96 22.9109 41.9579 22.913 41.9579 22.913C41.9325 22.9426 41.9051 22.9743 41.8755 23.0081C41.8628 23.0207 41.8502 23.0334 41.8375 23.0461C41.8206 23.0672 41.8058 23.0862 41.7931 23.1031C41.7889 23.1073 41.7868 23.1116 41.7868 23.1158C41.7699 23.1369 41.7614 23.1538 41.7614 23.1665C41.7614 23.1707 41.7424 23.1961 41.7044 23.2425C41.6706 23.2806 41.6262 23.3228 41.5713 23.3693C41.5629 23.3735 41.5565 23.3798 41.5523 23.3883C41.5016 23.4305 41.4572 23.4707 41.4192 23.5087C41.3727 23.551 41.3432 23.5826 41.3305 23.6038C41.322 23.6122 41.3136 23.6228 41.3051 23.6355C41.2925 23.6481 41.2819 23.6608 41.2735 23.6735C41.2566 23.6904 41.2397 23.7073 41.2228 23.7242C41.2185 23.7284 41.2164 23.7305 41.2164 23.7305C41.2122 23.7347 41.2101 23.7368 41.2101 23.7368C41.2059 23.7411 41.2016 23.7453 41.1974 23.7495C41.1721 23.7749 41.1425 23.8087 41.1087 23.8509C41.1045 23.8594 41.1002 23.8657 41.096 23.8699C41.0918 23.8742 41.0897 23.8763 41.0897 23.8763C41.0897 23.8805 41.0897 23.8826 41.0897 23.8826C41.0728 23.8995 41.058 23.9185 41.0453 23.9396C41.0369 23.9523 41.0263 23.9671 41.0136 23.984C40.9883 24.0305 40.9503 24.0854 40.8996 24.1488C40.8784 24.1783 40.8573 24.2079 40.8362 24.2375C40.8066 24.2755 40.7792 24.3114 40.7538 24.3452C40.7285 24.379 40.6989 24.4171 40.6651 24.4593C40.6397 24.4931 40.6102 24.5311 40.5764 24.5734C40.5468 24.6114 40.5193 24.6473 40.494 24.6811C40.4602 24.7276 40.4285 24.7719 40.3989 24.8142C40.3271 24.9156 40.2595 24.9895 40.1961 25.036C40.1327 25.0825 40.0377 25.1247 39.9109 25.1627C39.8518 25.1796 39.7948 25.1965 39.7398 25.2134C39.7187 25.2177 39.6997 25.2219 39.6828 25.2261C39.611 25.2388 39.5645 25.2451 39.5434 25.2451C39.4673 25.2324 39.3913 25.1944 39.3152 25.1311C39.2392 25.0677 39.1779 24.9937 39.1315 24.9092C39.0596 24.7825 39.0385 24.6663 39.0681 24.5607C39.1019 24.4508 39.1927 24.3262 39.3406 24.1868C39.5518 23.9756 39.7229 23.8108 39.8539 23.6925C39.8793 23.6671 39.9025 23.6439 39.9236 23.6228C40.0588 23.496 40.1729 23.3946 40.2658 23.3186C40.325 23.2721 40.3757 23.2299 40.4179 23.1918C40.4391 23.1749 40.456 23.1623 40.4686 23.1538C40.4813 23.1411 40.4919 23.1306 40.5003 23.1221C40.5045 23.1179 40.513 23.1116 40.5257 23.1031C40.5341 23.0989 40.5426 23.0926 40.551 23.0841C40.5806 23.063 40.6144 23.044 40.6524 23.0271C40.682 23.0102 40.7285 22.9806 40.7918 22.9384C40.8087 22.9257 40.8277 22.913 40.8489 22.9003C40.9418 22.8412 41.039 22.7736 41.1404 22.6975C41.4277 22.4905 41.491 22.4631 41.3305 22.6152C41.2206 22.7292 41.1869 22.7863 41.2291 22.7863C41.2375 22.7863 41.246 22.7863 41.2544 22.7863C41.2629 22.782 41.2713 22.7778 41.2798 22.7736C41.2925 22.7651 41.2988 22.7546 41.2988 22.7419C41.2988 22.7292 41.3051 22.7165 41.3178 22.7039C41.322 22.7039 41.3263 22.7018 41.3305 22.6975C41.3389 22.6933 41.3516 22.6912 41.3685 22.6912C41.3896 22.6912 41.4129 22.6827 41.4382 22.6658C41.4636 22.6447 41.4826 22.6215 41.4953 22.5961C41.5122 22.5666 41.5333 22.5433 41.5586 22.5264C41.5629 22.5264 41.565 22.5243 41.565 22.5201C41.5776 22.5116 41.5882 22.5053 41.5967 22.5011C41.6093 22.4969 41.622 22.4947 41.6347 22.4947C41.6474 22.4947 41.6579 22.4947 41.6664 22.4947C41.679 22.4905 41.6896 22.4863 41.6981 22.4821C41.7234 22.4736 41.7382 22.4631 41.7424 22.4504C41.7551 22.4377 41.772 22.425 41.7931 22.4124C41.8185 22.4039 41.8459 22.3997 41.8755 22.3997C41.8882 22.3997 41.8987 22.3997 41.9072 22.3997C41.9199 22.3997 41.9304 22.3976 41.9389 22.3933C41.9431 22.3891 41.9452 22.3849 41.9452 22.3807C41.9494 22.3764 41.9494 22.3722 41.9452 22.368C41.941 22.3638 41.9389 22.3574 41.9389 22.349C41.9431 22.3405 41.9494 22.3321 41.9579 22.3236C41.9748 22.311 41.9938 22.2941 42.0149 22.2729C42.0191 22.2687 42.0255 22.2645 42.0339 22.2603C42.0593 22.2349 42.091 22.2138 42.129 22.1969C42.1332 22.1927 42.1374 22.1906 42.1417 22.1906C42.167 22.1779 42.1903 22.1715 42.2114 22.1715C42.2156 22.1715 42.2198 22.1694 42.2241 22.1652C42.2325 22.161 42.241 22.1546 42.2494 22.1462C42.2536 22.142 42.2579 22.1399 42.2621 22.1399C42.2748 22.1272 42.2832 22.1145 42.2874 22.1018C42.2874 22.0976 42.2895 22.0955 42.2938 22.0955C42.298 22.087 42.3022 22.0807 42.3064 22.0765C42.3107 22.0723 42.3149 22.0701 42.3191 22.0701ZM42.9719 22.5391C43.0056 22.5391 43.0437 22.5518 43.0859 22.5771C43.1831 22.6278 43.2845 22.7123 43.3901 22.8306C43.5042 22.9531 43.5866 23.0651 43.6373 23.1665C43.6626 23.2172 43.6795 23.2594 43.688 23.2932C43.6964 23.327 43.6901 23.3693 43.669 23.42C43.6563 23.4622 43.6352 23.5193 43.6056 23.5911C43.5971 23.6038 43.5908 23.6164 43.5866 23.6291C43.4091 24.0347 43.2444 24.3473 43.0923 24.567C43.05 24.6262 43.0035 24.6938 42.9528 24.7698C42.9359 24.7952 42.919 24.8205 42.9021 24.8459C42.8726 24.8881 42.8472 24.9261 42.8261 24.9599C42.8092 24.9811 42.7944 25.0022 42.7817 25.0233C42.7606 25.0529 42.7416 25.0782 42.7247 25.0994C42.6993 25.1458 42.6803 25.1754 42.6677 25.1881C42.655 25.205 42.6275 25.2451 42.5853 25.3085C42.5599 25.3423 42.5346 25.3782 42.5092 25.4162C42.4839 25.4543 42.4585 25.4923 42.4332 25.5303C42.3783 25.6148 42.2895 25.7268 42.167 25.8662C42.0529 26.0056 41.9346 26.1408 41.8121 26.2718C41.6938 26.3985 41.5924 26.5062 41.5079 26.595C41.4277 26.6879 41.3875 26.7386 41.3875 26.7471C41.3875 26.7513 41.3812 26.764 41.3685 26.7851C41.3558 26.7978 41.3432 26.8147 41.3305 26.8358C41.3136 26.8527 41.2925 26.878 41.2671 26.9118C41.2587 26.9203 41.2502 26.9287 41.2418 26.9372C41.2122 26.971 41.1847 27.0048 41.1594 27.0386C41.1467 27.0597 41.1319 27.0808 41.115 27.1019C41.0855 27.1357 41.058 27.1674 41.0326 27.197C41.02 27.2139 41.0073 27.2287 40.9946 27.2414C40.9566 27.2794 40.9312 27.2984 40.9186 27.2984C40.9143 27.2984 40.8784 27.3301 40.8108 27.3935C40.7644 27.4442 40.7073 27.5054 40.6397 27.5772C40.6271 27.5899 40.6144 27.6026 40.6017 27.6153C40.5257 27.704 40.4538 27.7779 40.3862 27.8371C40.3229 27.9004 40.2806 27.9321 40.2595 27.9321C40.2426 27.9321 40.2278 27.9364 40.2151 27.9448C40.2025 27.9533 40.1961 27.968 40.1961 27.9892C40.1961 28.0187 40.1877 28.0272 40.1708 28.0145C40.1496 27.9892 40.1581 27.9406 40.1961 27.8688C40.2341 27.7927 40.2891 27.7167 40.3609 27.6406C40.3947 27.6026 40.4369 27.5456 40.4876 27.4695C40.5426 27.3935 40.5954 27.3174 40.6461 27.2414C40.6841 27.178 40.72 27.1252 40.7538 27.0829C40.7623 27.066 40.7707 27.0512 40.7792 27.0386C40.8256 26.9879 40.851 26.9625 40.8552 26.9625C40.8763 26.9625 40.8974 26.9414 40.9186 26.8992C40.9397 26.8569 40.9608 26.8104 40.9819 26.7597C41.0031 26.7006 41.0157 26.6499 41.02 26.6076C41.0326 26.5527 41.0686 26.4746 41.1277 26.3732C41.1911 26.2718 41.2713 26.1619 41.3685 26.0436C41.4065 25.9971 41.4319 25.9612 41.4446 25.9359C41.4572 25.9148 41.453 25.9084 41.4319 25.9169C41.3812 25.9464 41.3854 25.9274 41.4446 25.8598C41.453 25.8472 41.4636 25.8324 41.4763 25.8155C41.4847 25.8028 41.4932 25.7901 41.5016 25.7775C41.5143 25.7437 41.5206 25.7204 41.5206 25.7077C41.5206 25.6993 41.5206 25.693 41.5206 25.6887C41.5248 25.6803 41.5291 25.6739 41.5333 25.6697C41.5417 25.657 41.5523 25.6507 41.565 25.6507C41.5734 25.6507 41.5798 25.6507 41.584 25.6507C41.5882 25.6465 41.5924 25.6423 41.5967 25.638C41.6009 25.6338 41.603 25.6296 41.603 25.6254C41.6072 25.6169 41.6093 25.6106 41.6093 25.6063C41.6093 25.5979 41.6072 25.5916 41.603 25.5873C41.603 25.5831 41.5988 25.581 41.5903 25.581C41.5776 25.5725 41.5607 25.5725 41.5396 25.581C41.5143 25.5894 41.4974 25.581 41.4889 25.5556C41.4889 25.5303 41.4953 25.4986 41.5079 25.4606C41.5206 25.4183 41.5439 25.3824 41.5776 25.3529C41.5945 25.3402 41.6093 25.3212 41.622 25.2958C41.6347 25.2747 41.641 25.2557 41.641 25.2388C41.641 25.2303 41.6431 25.2219 41.6474 25.2134C41.6516 25.2008 41.6579 25.1881 41.6664 25.1754C41.6833 25.1458 41.7044 25.1184 41.7297 25.093C41.7551 25.0677 41.7762 25.0402 41.7931 25.0106C41.8016 24.998 41.8079 24.9853 41.8121 24.9726C41.8164 24.9599 41.8185 24.9515 41.8185 24.9473C41.8185 24.9261 41.829 24.8923 41.8502 24.8459C41.8544 24.8416 41.8586 24.8353 41.8628 24.8269C41.884 24.7846 41.9114 24.7381 41.9452 24.6874C41.9832 24.6283 42.0149 24.5776 42.0403 24.5353C42.0656 24.4931 42.0783 24.4699 42.0783 24.4656C42.0783 24.4572 42.091 24.4318 42.1163 24.3896C42.1248 24.3769 42.1311 24.3642 42.1353 24.3516C42.1565 24.3178 42.1797 24.2776 42.205 24.2312C42.2769 24.1171 42.3571 23.9608 42.4459 23.7622C42.5346 23.5594 42.6127 23.3651 42.6803 23.1792C42.7522 22.9891 42.7902 22.856 42.7944 22.7799C42.8113 22.6109 42.8705 22.5307 42.9719 22.5391ZM44.6259 27.8814C44.6343 27.8772 44.6449 27.8772 44.6576 27.8814C44.666 27.8814 44.6745 27.8814 44.6829 27.8814C44.7421 27.8941 44.7505 27.9068 44.7083 27.9195C44.6998 27.9195 44.6914 27.9195 44.6829 27.9195C44.6745 27.9195 44.666 27.9195 44.6576 27.9195C44.6407 27.911 44.628 27.9047 44.6195 27.9004C44.6111 27.8878 44.6132 27.8814 44.6259 27.8814ZM44.5055 27.9004C44.5055 27.9047 44.4886 27.9216 44.4548 27.9511C44.4252 27.9807 44.4125 27.9997 44.4168 28.0082C44.4294 28.0166 44.4653 28.0145 44.5245 28.0018C44.8033 27.9638 44.9406 27.9702 44.9364 28.0209C44.9322 28.0251 44.9258 28.0314 44.9174 28.0399C44.9132 28.0483 44.9026 28.0568 44.8857 28.0652C44.8604 28.0779 44.8244 28.0884 44.778 28.0969C44.7357 28.1053 44.6956 28.1201 44.6576 28.1413C44.6153 28.1624 44.5857 28.1835 44.5688 28.2046C44.5562 28.23 44.5393 28.249 44.5181 28.2617C44.5012 28.2743 44.4886 28.2786 44.4801 28.2743C44.4632 28.2743 44.4189 28.2828 44.347 28.2997C44.2752 28.3124 44.1971 28.3335 44.1126 28.3631C44.0788 28.3757 44.0492 28.3863 44.0238 28.3948C43.9774 28.4117 43.9393 28.4264 43.9098 28.4391C43.8886 28.4518 43.8527 28.4645 43.802 28.4771C43.7851 28.4814 43.7703 28.4856 43.7577 28.4898C43.7197 28.5025 43.6816 28.5109 43.6436 28.5152C43.5169 28.5447 43.4619 28.5849 43.4788 28.6356C43.4831 28.6482 43.4873 28.6588 43.4915 28.6673C43.4957 28.6757 43.5021 28.682 43.5105 28.6863C43.5147 28.6905 43.5211 28.6947 43.5295 28.6989C43.538 28.6989 43.5464 28.6968 43.5549 28.6926C43.5845 28.6799 43.5929 28.6905 43.5802 28.7243C43.5676 28.7412 43.5485 28.7539 43.5232 28.7623C43.4936 28.775 43.4598 28.7792 43.4218 28.775C43.3922 28.775 43.3605 28.7771 43.3267 28.7813C43.3183 28.7856 43.3077 28.7877 43.2951 28.7877C43.2824 28.7919 43.2718 28.794 43.2634 28.794C43.2296 28.8024 43.2 28.813 43.1746 28.8257C43.1662 28.8299 43.1577 28.8341 43.1493 28.8384C43.1155 28.8468 43.0754 28.8574 43.0289 28.87C42.9655 28.8827 42.9043 28.8933 42.8451 28.9017C42.824 28.906 42.805 28.9102 42.7881 28.9144C42.75 28.9186 42.7184 28.925 42.693 28.9334C42.6508 28.9461 42.6296 28.9588 42.6296 28.9714C42.6254 28.9757 42.6191 28.9799 42.6106 28.9841C42.6064 28.9883 42.6001 28.9926 42.5916 28.9968C42.5705 29.0095 42.543 29.0179 42.5092 29.0221C42.4797 29.0264 42.4416 29.039 42.3952 29.0602C42.3487 29.0771 42.3064 29.1003 42.2684 29.1299C42.1374 29.2059 41.9135 29.2503 41.5967 29.263C41.2756 29.2714 40.9524 29.2503 40.6271 29.1996C40.2975 29.1573 40.0546 29.0855 39.8983 28.9841C39.7588 28.8869 39.6553 28.8109 39.5877 28.756C39.5244 28.6968 39.4842 28.6419 39.4673 28.5912C39.4547 28.5574 39.4314 28.5152 39.3976 28.4645C39.3723 28.418 39.3427 28.3715 39.3089 28.325C39.2329 28.2236 39.1991 28.1328 39.2075 28.0525C39.2117 27.968 39.254 27.9258 39.3343 27.9258C39.3681 27.93 39.3934 27.9364 39.4103 27.9448C39.4103 27.9448 39.4124 27.9469 39.4166 27.9511C39.4251 27.9554 39.4314 27.9596 39.4356 27.9638C39.4399 27.968 39.4399 27.9723 39.4356 27.9765C39.4441 28.0187 39.5328 28.0673 39.7018 28.1222C39.8708 28.1814 40.0757 28.23 40.3165 28.268C40.5616 28.2976 40.8573 28.3103 41.2037 28.306C41.546 28.3018 41.8248 28.2786 42.0403 28.2363C42.0825 28.2321 42.1184 28.23 42.148 28.23C42.1818 28.23 42.205 28.2342 42.2177 28.2427C42.2431 28.2638 42.2579 28.2596 42.2621 28.23C42.2663 28.2215 42.2832 28.2131 42.3128 28.2046C42.3128 28.2004 42.3149 28.1983 42.3191 28.1983C42.3571 28.1898 42.4015 28.1856 42.4522 28.1856C42.4775 28.1856 42.5029 28.1835 42.5282 28.1793C42.5536 28.1793 42.5789 28.1793 42.6043 28.1793C42.6381 28.1793 42.6655 28.1772 42.6867 28.1729C42.7036 28.1729 42.7162 28.1729 42.7247 28.1729C42.75 28.1645 42.7691 28.1645 42.7817 28.1729C42.7902 28.1772 42.7965 28.1814 42.8007 28.1856C42.805 28.1898 42.8071 28.1962 42.8071 28.2046C42.8029 28.2173 42.7902 28.23 42.7691 28.2427C42.7522 28.2469 42.7268 28.2532 42.693 28.2617C42.6634 28.2617 42.6381 28.2659 42.617 28.2743C42.6043 28.2786 42.6001 28.2849 42.6043 28.2934C42.617 28.306 42.674 28.3124 42.7754 28.3124C42.7881 28.3124 42.8007 28.3124 42.8134 28.3124C42.9064 28.3039 43.0056 28.2955 43.1113 28.287C43.238 28.2743 43.3415 28.2596 43.4218 28.2427C43.4302 28.2384 43.4408 28.2363 43.4535 28.2363C43.4957 28.2236 43.538 28.2152 43.5802 28.211C43.6267 28.211 43.6563 28.211 43.669 28.211C43.6816 28.2194 43.7133 28.2173 43.764 28.2046C43.8189 28.192 43.8781 28.1751 43.9415 28.1539C43.971 28.1455 43.9985 28.137 44.0238 28.1286C44.0534 28.1201 44.0809 28.1117 44.1062 28.1032C44.1527 28.0906 44.178 28.0842 44.1823 28.0842C44.1949 28.0884 44.214 28.0884 44.2393 28.0842C44.2647 28.0758 44.2879 28.0652 44.309 28.0525C44.3344 28.0399 44.347 28.0251 44.347 28.0082C44.347 27.9955 44.3407 27.9871 44.328 27.9828C44.3154 27.9744 44.2985 27.9744 44.2773 27.9828C44.2266 27.9871 44.2118 27.9765 44.233 27.9511C44.2456 27.9385 44.2604 27.93 44.2773 27.9258C44.2985 27.9258 44.3154 27.93 44.328 27.9385C44.3449 27.9469 44.3661 27.9511 44.3914 27.9511C44.4168 27.9469 44.44 27.9385 44.4611 27.9258C44.4865 27.9089 44.5012 27.9004 44.5055 27.9004ZM44.0999 27.9828C44.1126 27.9828 44.1252 27.9892 44.1379 28.0018C44.1506 28.0103 44.1611 28.0209 44.1696 28.0335C44.1738 28.0378 44.1738 28.042 44.1696 28.0462C44.1696 28.0504 44.1675 28.0547 44.1633 28.0589C44.159 28.0631 44.1527 28.0673 44.1442 28.0715C44.1358 28.0715 44.1273 28.0694 44.1189 28.0652C44.102 28.0652 44.0851 28.0589 44.0682 28.0462C44.0598 28.042 44.0534 28.0378 44.0492 28.0335C44.0492 28.0251 44.0513 28.0187 44.0555 28.0145C44.0555 28.0061 44.0555 28.0018 44.0555 28.0018C44.0598 27.9976 44.064 27.9934 44.0682 27.9892C44.0724 27.9849 44.0767 27.9828 44.0809 27.9828C44.0893 27.9828 44.0957 27.9828 44.0999 27.9828ZM43.1746 28.1349C43.1873 28.1349 43.2063 28.137 43.2317 28.1413C43.2908 28.1497 43.2993 28.1603 43.257 28.1729C43.2486 28.1772 43.2401 28.1793 43.2317 28.1793C43.2232 28.1793 43.2148 28.1772 43.2063 28.1729C43.1894 28.1729 43.1768 28.1666 43.1683 28.1539C43.1641 28.1497 43.162 28.1476 43.162 28.1476C43.1662 28.1434 43.1704 28.1391 43.1746 28.1349Z" fill="#F1EDE4"/>
<path d="M57.8405 45.4002C57.887 45.3875 57.8595 45.4277 57.7582 45.5206C57.6314 45.622 57.587 45.6917 57.6251 45.7298C57.6589 45.7678 57.6399 45.8269 57.568 45.9072C57.5427 45.9325 57.5237 45.96 57.511 45.9896C57.5068 45.998 57.5025 46.0044 57.4983 46.0086C57.4899 46.0255 57.4814 46.0403 57.473 46.053C57.4688 46.0656 57.4688 46.0762 57.473 46.0846C57.473 46.1269 57.4476 46.1903 57.3969 46.2748C57.3378 46.3508 57.2765 46.4205 57.2131 46.4839C57.1455 46.5473 57.0906 46.5811 57.0484 46.5853C56.9977 46.5853 56.9723 46.6106 56.9723 46.6613C56.9808 46.7501 56.8836 46.8367 56.6808 46.9212C56.4822 47.0057 56.2372 47.0606 55.9457 47.0859C55.7851 47.1028 55.6605 47.1092 55.5718 47.1049C55.4915 47.1007 55.3965 47.0796 55.2866 47.0416C55.2106 47.0204 55.1409 46.993 55.0775 46.9592C55.0099 46.9296 54.9634 46.9021 54.9381 46.8768C54.9254 46.8641 54.9127 46.8515 54.9 46.8388C54.8831 46.8177 54.862 46.7944 54.8367 46.7691C54.7944 46.7226 54.7479 46.6782 54.6972 46.636C54.655 46.5895 54.6191 46.5451 54.5895 46.5029C54.5557 46.4607 54.5388 46.4269 54.5388 46.4015C54.5388 46.3804 54.5325 46.3614 54.5198 46.3445C54.5156 46.336 54.5114 46.3276 54.5071 46.3191C54.5029 46.3107 54.4966 46.3043 54.4881 46.3001C54.4839 46.2959 54.4776 46.2895 54.4691 46.2811C54.4649 46.2726 54.4585 46.2642 54.4501 46.2557C54.4416 46.2388 54.4374 46.2219 54.4374 46.205C54.4332 46.2008 54.4311 46.1945 54.4311 46.186C54.4311 46.1607 54.4332 46.1417 54.4374 46.129C54.4501 46.1206 54.4691 46.1163 54.4945 46.1163C54.5071 46.1206 54.524 46.1227 54.5452 46.1227C54.5705 46.1269 54.6022 46.1332 54.6402 46.1417C54.8515 46.1839 55.0796 46.205 55.3246 46.205C55.5781 46.2008 55.7915 46.1776 55.9647 46.1353C56.045 46.1142 56.1231 46.091 56.1992 46.0656C56.271 46.0445 56.3196 46.0276 56.3449 46.0149C56.3618 46.0107 56.3809 46.0044 56.402 45.9959C56.4146 45.9917 56.4273 45.9875 56.44 45.9832C56.4484 45.9832 56.4548 45.9832 56.459 45.9832C56.497 45.9748 56.5287 45.9706 56.5541 45.9706C56.6048 45.9663 56.6724 45.9516 56.7569 45.9262C56.8414 45.9051 56.9216 45.8818 56.9977 45.8565C57.0737 45.8311 57.1202 45.8121 57.1371 45.7995C57.1413 45.7952 57.1455 45.791 57.1498 45.7868C57.154 45.7826 57.1603 45.7783 57.1688 45.7741C57.173 45.7741 57.1751 45.772 57.1751 45.7678C57.1793 45.7678 57.1836 45.7657 57.1878 45.7614C57.2005 45.753 57.2131 45.7445 57.2258 45.7361C57.2343 45.7319 57.2448 45.7255 57.2575 45.7171C57.2786 45.7086 57.3082 45.6917 57.3462 45.6664C57.3969 45.6326 57.4582 45.5967 57.53 45.5586C57.6948 45.4572 57.7983 45.4044 57.8405 45.4002ZM58.3158 45.8818C58.337 45.8818 58.3581 45.8882 58.3792 45.9009C58.3877 45.9051 58.3961 45.9114 58.4046 45.9199C58.413 45.9241 58.4215 45.9304 58.4299 45.9389C58.5271 46.053 58.5904 46.1628 58.62 46.2684C58.6496 46.3698 58.6602 46.5177 58.6517 46.712C58.6517 46.7796 58.639 46.8303 58.6137 46.8641C58.5926 46.8895 58.544 46.9169 58.4679 46.9465C58.413 46.9719 58.3074 47.05 58.1511 47.181C57.999 47.3077 57.8342 47.4556 57.6568 47.6246C57.4793 47.7894 57.3272 47.9351 57.2005 48.0619C57.078 48.1928 57.0188 48.2689 57.023 48.29C57.0273 48.2942 57.0273 48.3006 57.023 48.309C57.023 48.3133 57.0209 48.3175 57.0167 48.3217C57.004 48.3344 56.985 48.3428 56.9597 48.347C56.9554 48.3513 56.9512 48.3534 56.947 48.3534C56.9259 48.3618 56.909 48.3724 56.8963 48.3851C56.8836 48.4062 56.8773 48.4231 56.8773 48.4358C56.8773 48.4738 56.9005 48.4886 56.947 48.4801C56.9554 48.4759 56.9681 48.4717 56.985 48.4675C57.0019 48.4632 57.0209 48.459 57.042 48.4548C57.0927 48.4421 57.1434 48.4315 57.1941 48.4231C57.2279 48.4146 57.2744 48.3999 57.3336 48.3787C57.3674 48.3661 57.4075 48.3534 57.454 48.3407C57.5258 48.3154 57.6018 48.2879 57.6821 48.2583C57.7244 48.2457 57.7687 48.2309 57.8152 48.214C57.9293 48.1675 58.0307 48.1295 58.1194 48.0999C58.1236 48.0957 58.1278 48.0936 58.1321 48.0936C58.1532 48.0851 58.1722 48.0788 58.1891 48.0745C58.244 48.0534 58.2736 48.0429 58.2778 48.0429C58.3285 48.0471 58.337 48.0893 58.3032 48.1696C58.2694 48.2499 58.2081 48.3323 58.1194 48.4168C58.0645 48.4717 58.018 48.5224 57.98 48.5689C57.9419 48.6153 57.9229 48.6449 57.9229 48.6576C57.9229 48.6618 57.9208 48.666 57.9166 48.6703C57.9166 48.6745 57.9145 48.6787 57.9102 48.6829C57.906 48.6872 57.9018 48.6914 57.8976 48.6956C57.8933 48.6956 57.887 48.6956 57.8786 48.6956C57.8743 48.6956 57.8701 48.6977 57.8659 48.7019C57.8617 48.7019 57.8574 48.7019 57.8532 48.7019C57.8532 48.7062 57.8511 48.7083 57.8469 48.7083C57.8427 48.7125 57.8384 48.7188 57.8342 48.7273C57.8342 48.7315 57.8363 48.7378 57.8405 48.7463C57.8405 48.7632 57.8131 48.7949 57.7582 48.8414C57.7075 48.8836 57.6504 48.9237 57.587 48.9618C57.5237 48.9956 57.4793 49.0125 57.454 49.0125C57.4497 49.0125 57.4455 49.0146 57.4413 49.0188C57.4371 49.0188 57.4328 49.0188 57.4286 49.0188C57.4286 49.023 57.4265 49.0251 57.4223 49.0251C57.4181 49.0294 57.4159 49.0336 57.4159 49.0378C57.4159 49.042 57.4159 49.0484 57.4159 49.0568C57.4159 49.061 57.4138 49.0653 57.4096 49.0695C57.4096 49.0737 57.4075 49.0779 57.4033 49.0822C57.399 49.0864 57.3948 49.0906 57.3906 49.0948C57.3864 49.0948 57.38 49.0948 57.3716 49.0948C57.3589 49.0948 57.3314 49.1012 57.2892 49.1139C57.2427 49.1265 57.1941 49.1434 57.1434 49.1646C57.0885 49.1815 57.0188 49.2068 56.9343 49.2406C56.9047 49.2491 56.873 49.2596 56.8392 49.2723C56.7885 49.2892 56.74 49.304 56.6935 49.3167C56.6681 49.3251 56.6428 49.3336 56.6174 49.342C56.5625 49.3589 56.5055 49.3779 56.4463 49.399C56.3661 49.4286 56.2964 49.454 56.2372 49.4751C56.2288 49.4793 56.2203 49.4835 56.2119 49.4878C56.1738 49.5047 56.1358 49.5194 56.0978 49.5321C56.0724 49.5406 56.045 49.549 56.0154 49.5575C55.9478 49.5744 55.8908 49.587 55.8443 49.5955C55.8232 49.5997 55.8042 49.6039 55.7873 49.6082C55.7619 49.6124 55.7387 49.6187 55.7175 49.6272C55.6795 49.6356 55.6542 49.6441 55.6415 49.6525C55.5908 49.6863 55.5084 49.7032 55.3943 49.7032C55.2761 49.7032 55.1641 49.6906 55.0585 49.6652C54.9528 49.6441 54.9 49.6145 54.9 49.5765C54.9 49.5723 54.8958 49.568 54.8874 49.5638C54.8831 49.5596 54.8747 49.5554 54.862 49.5511C54.8367 49.5427 54.805 49.5385 54.767 49.5385C54.6275 49.53 54.5156 49.4349 54.4311 49.2533C54.4015 49.1984 54.3909 49.1582 54.3994 49.1329C54.4078 49.1075 54.4374 49.0758 54.4881 49.0378C54.5261 49.0125 54.6085 48.9766 54.7353 48.9301C54.8705 48.8836 55.0162 48.8392 55.1725 48.797C55.3922 48.7421 55.5464 48.6956 55.6352 48.6576C55.7239 48.6196 55.7788 48.5815 55.7999 48.5435C55.8211 48.5097 55.8443 48.4738 55.8696 48.4358C55.8992 48.3935 55.9267 48.3576 55.952 48.328C55.9605 48.3111 55.9732 48.2942 55.9901 48.2773C56.0027 48.2604 56.0154 48.2435 56.0281 48.2266C56.0365 48.214 56.045 48.2013 56.0534 48.1886C56.0703 48.1675 56.083 48.1485 56.0914 48.1316C56.1126 48.102 56.1358 48.0703 56.1612 48.0365C56.1865 48.0027 56.2119 47.9668 56.2372 47.9288C56.2626 47.895 56.2858 47.8633 56.3069 47.8337C56.3407 47.7915 56.3724 47.7513 56.402 47.7133C56.4527 47.6499 56.4844 47.614 56.497 47.6056C56.5055 47.5971 56.5224 47.5781 56.5477 47.5486C56.5731 47.5232 56.5984 47.4915 56.6238 47.4535C56.628 47.4493 56.6322 47.4429 56.6365 47.4345C56.6534 47.4134 56.6703 47.3922 56.6872 47.3711C56.6998 47.3542 56.7146 47.3352 56.7315 47.3141C56.7442 47.2972 56.7569 47.2845 56.7695 47.276C56.7822 47.2591 56.7928 47.2444 56.8012 47.2317C56.8139 47.219 56.8414 47.1894 56.8836 47.143C56.8963 47.1303 56.909 47.1176 56.9216 47.1049C56.985 47.0416 57.0547 46.9655 57.1308 46.8768C57.5194 46.4501 57.7391 46.2367 57.7898 46.2367C57.8025 46.2367 57.8194 46.2283 57.8405 46.2114C57.8659 46.1903 57.887 46.1649 57.9039 46.1353C57.9462 46.0762 58.0138 46.0192 58.1067 45.9642C58.1954 45.9093 58.2651 45.8818 58.3158 45.8818ZM56.7062 47.6309C56.7062 47.6309 56.7041 47.6309 56.6998 47.6309C56.6998 47.6309 56.6977 47.6309 56.6935 47.6309C56.6935 47.6309 56.6914 47.6309 56.6872 47.6309C56.6745 47.6394 56.6639 47.6499 56.6555 47.6626C56.6512 47.6711 56.647 47.6774 56.6428 47.6816C56.6428 47.6859 56.6428 47.6901 56.6428 47.6943C56.6428 47.6985 56.6449 47.7049 56.6491 47.7133C56.6534 47.7175 56.6576 47.7218 56.6618 47.726C56.666 47.7302 56.6703 47.7344 56.6745 47.7387C56.6829 47.7387 56.6893 47.7387 56.6935 47.7387C56.7019 47.7387 56.7083 47.7366 56.7125 47.7323C56.7167 47.7281 56.721 47.7239 56.7252 47.7197C56.7294 47.7112 56.7315 47.7028 56.7315 47.6943C56.7315 47.6859 56.7315 47.6795 56.7315 47.6753C56.7315 47.6584 56.7294 47.6478 56.7252 47.6436C56.721 47.6352 56.7146 47.6309 56.7062 47.6309ZM56.4907 47.8781C56.4865 47.8739 56.4717 47.8844 56.4463 47.9098C56.4294 47.9267 56.4104 47.9478 56.3893 47.9731C56.3851 47.9816 56.3787 47.99 56.3703 47.9985C56.3449 48.0281 56.3238 48.0619 56.3069 48.0999C56.2858 48.1295 56.2752 48.1506 56.2752 48.1633C56.2752 48.1675 56.2689 48.1802 56.2562 48.2013C56.2478 48.2097 56.2393 48.2182 56.2309 48.2266C56.2224 48.2351 56.2119 48.2435 56.1992 48.252C56.1612 48.29 56.1252 48.3301 56.0914 48.3724C56.0619 48.4189 56.0365 48.4611 56.0154 48.4991C56.0027 48.5372 56.0006 48.5625 56.0091 48.5752C56.0217 48.5836 56.0407 48.5794 56.0661 48.5625C56.0914 48.5414 56.1168 48.516 56.1421 48.4865C56.159 48.4696 56.1738 48.4506 56.1865 48.4294C56.1992 48.4125 56.214 48.3956 56.2309 48.3787C56.2478 48.3618 56.2626 48.3449 56.2752 48.328C56.2837 48.3154 56.2921 48.3048 56.3006 48.2964C56.3133 48.2837 56.3238 48.2689 56.3323 48.252C56.3365 48.2435 56.3428 48.2351 56.3513 48.2266C56.3555 48.2182 56.3597 48.2097 56.364 48.2013C56.3724 48.1802 56.3787 48.1612 56.383 48.1443C56.3914 48.1189 56.402 48.0999 56.4146 48.0872C56.4189 48.0788 56.4231 48.0724 56.4273 48.0682C56.4358 48.064 56.4421 48.0619 56.4463 48.0619C56.459 48.0619 56.4717 48.0492 56.4844 48.0238C56.497 47.9943 56.5034 47.9668 56.5034 47.9415C56.5076 47.9119 56.5034 47.8908 56.4907 47.8781ZM58.0433 48.6449C58.0729 48.6365 58.1004 48.6491 58.1257 48.6829C58.1468 48.6956 58.1849 48.7378 58.2398 48.8097C58.282 48.8604 58.3243 48.9132 58.3665 48.9681C58.3919 48.9977 58.4172 49.0294 58.4426 49.0632C58.5229 49.1561 58.582 49.2322 58.62 49.2913C58.658 49.3547 58.6855 49.4075 58.7024 49.4497C58.7151 49.4962 58.7235 49.5511 58.7278 49.6145C58.77 49.9821 58.4996 50.4595 57.9166 51.0467C57.8912 51.0721 57.868 51.0953 57.8469 51.1164C57.8004 51.1587 57.7582 51.2009 57.7201 51.2432C57.6525 51.3108 57.6082 51.3551 57.587 51.3763C57.5786 51.3805 57.5723 51.3868 57.568 51.3953C57.5596 51.3995 57.5511 51.4058 57.5427 51.4143C57.5258 51.427 57.5131 51.4333 57.5047 51.4333C57.492 51.4333 57.4603 51.4523 57.4096 51.4903C57.38 51.5157 57.3441 51.5432 57.3019 51.5727C57.2807 51.5938 57.2575 51.615 57.2322 51.6361C57.0758 51.7755 56.9385 51.8917 56.8202 51.9846C56.7019 52.0776 56.6259 52.1304 56.5921 52.1431C56.5752 52.1473 56.5456 52.1621 56.5034 52.1874C56.478 52.2086 56.4484 52.2297 56.4146 52.2508C56.402 52.2593 56.3872 52.2698 56.3703 52.2825C56.0872 52.4853 55.7471 52.6247 55.35 52.7008C55.2528 52.7177 55.1747 52.7303 55.1155 52.7388C55.0564 52.743 55.0014 52.7409 54.9507 52.7324C54.8958 52.7198 54.824 52.7008 54.7353 52.6754C54.655 52.6501 54.5853 52.6247 54.5261 52.5994C54.4712 52.574 54.4438 52.5592 54.4438 52.555C54.4395 52.5508 54.4332 52.5466 54.4247 52.5423C54.4205 52.5381 54.4142 52.5339 54.4057 52.5297C54.3804 52.5212 54.3508 52.517 54.317 52.517C54.2494 52.517 54.2177 52.5106 54.222 52.498C54.222 52.4853 54.2473 52.4726 54.298 52.4599C54.3487 52.443 54.4163 52.4325 54.5008 52.4283C54.5642 52.4283 54.6275 52.424 54.6909 52.4156C54.7543 52.4071 54.8008 52.4008 54.8303 52.3966C54.8641 52.3839 54.9022 52.3754 54.9444 52.3712C54.9782 52.3628 55.0078 52.3543 55.0331 52.3459C55.0416 52.3459 55.0479 52.3459 55.0521 52.3459C55.0859 52.3459 55.1155 52.3374 55.1409 52.3205C55.1662 52.3036 55.1852 52.2888 55.1979 52.2762C55.2106 52.2508 55.2338 52.2339 55.2676 52.2255C55.3014 52.217 55.3289 52.2191 55.35 52.2318C55.3627 52.236 55.3711 52.2424 55.3753 52.2508C55.3796 52.2593 55.3796 52.2719 55.3753 52.2888C55.3753 52.2973 55.3711 52.3057 55.3627 52.3142C55.3627 52.3184 55.3605 52.3226 55.3563 52.3269C55.3521 52.3311 55.3479 52.3353 55.3436 52.3395C55.3394 52.3395 55.3331 52.3395 55.3246 52.3395C55.3204 52.3395 55.3035 52.3416 55.2739 52.3459C55.2486 52.3543 55.2211 52.3649 55.1916 52.3776C55.0902 52.4071 55.0838 52.4219 55.1725 52.4219C55.219 52.4219 55.2634 52.4114 55.3056 52.3902C55.3563 52.3649 55.3986 52.3353 55.4324 52.3015C55.4704 52.2677 55.4852 52.2381 55.4767 52.2128C55.4767 52.2043 55.4788 52.198 55.4831 52.1938C55.4873 52.1896 55.4915 52.1853 55.4957 52.1811C55.5042 52.1769 55.5126 52.1748 55.5211 52.1748C55.5338 52.1705 55.5486 52.1705 55.5655 52.1748C55.5908 52.1748 55.6119 52.1727 55.6288 52.1684C55.6415 52.16 55.6457 52.1536 55.6415 52.1494C55.6373 52.1452 55.6352 52.141 55.6352 52.1367C55.6352 52.1283 55.6352 52.122 55.6352 52.1177C55.6394 52.1093 55.6436 52.1029 55.6478 52.0987C55.6521 52.0945 55.6584 52.0903 55.6669 52.086C55.6795 52.0776 55.6943 52.0776 55.7112 52.086C55.7281 52.0945 55.7429 52.1051 55.7556 52.1177C55.7682 52.1431 55.7873 52.1515 55.8126 52.1431C55.8337 52.1389 55.8675 52.1177 55.914 52.0797C55.9267 52.067 55.9394 52.0544 55.952 52.0417C56.007 51.9952 56.0429 51.9614 56.0598 51.9403C56.0809 51.9107 56.0745 51.8875 56.0407 51.8706C56.0281 51.8621 56.0281 51.8495 56.0407 51.8326C56.0534 51.8114 56.0745 51.7924 56.1041 51.7755C56.1548 51.7502 56.2203 51.7016 56.3006 51.6298C56.364 51.5791 56.4252 51.5263 56.4844 51.4713C56.5013 51.4502 56.5203 51.4312 56.5414 51.4143C56.6259 51.3382 56.6935 51.2706 56.7442 51.2115C56.7949 51.1481 56.8202 51.1143 56.8202 51.1101C56.8076 51.0974 56.7695 51.108 56.7062 51.1418C56.7019 51.146 56.6977 51.1481 56.6935 51.1481C56.6386 51.1777 56.5752 51.2157 56.5034 51.2622C56.4907 51.2706 56.4801 51.2791 56.4717 51.2875C56.4083 51.334 56.3513 51.3784 56.3006 51.4206C56.2752 51.446 56.2499 51.4671 56.2245 51.484C56.1992 51.4967 56.1802 51.503 56.1675 51.503C56.1633 51.503 56.1548 51.5072 56.1421 51.5157C56.1337 51.5199 56.1231 51.5263 56.1105 51.5347C56.1062 51.5389 56.0999 51.5432 56.0914 51.5474C56.0703 51.5601 56.0492 51.5791 56.0281 51.6044C56.0027 51.6298 55.9753 51.653 55.9457 51.6741C55.9203 51.6952 55.9013 51.7058 55.8887 51.7058C55.876 51.7016 55.8506 51.7121 55.8126 51.7375C55.7746 51.7544 55.7344 51.7797 55.6922 51.8135C55.6837 51.8178 55.6753 51.822 55.6669 51.8262C55.5993 51.8769 55.5211 51.9255 55.4324 51.972C55.3352 52.0269 55.2465 52.0713 55.1662 52.1051C55.0859 52.1346 55.0373 52.1473 55.0204 52.1431C55.0162 52.1389 55.0099 52.1367 55.0014 52.1367C54.9972 52.1325 54.9909 52.1325 54.9824 52.1367C54.9782 52.1367 54.9719 52.1389 54.9634 52.1431C54.955 52.1431 54.9465 52.1473 54.9381 52.1558C54.9212 52.1684 54.9 52.1748 54.8747 52.1748C54.8493 52.1748 54.8219 52.1705 54.7923 52.1621C54.7036 52.1283 54.7057 52.1156 54.7986 52.1241C54.8198 52.1241 54.8515 52.1135 54.8937 52.0924C54.9022 52.0882 54.9106 52.0839 54.9191 52.0797C54.974 52.0544 55.0289 52.0206 55.0838 51.9783C55.0923 51.9741 55.1007 51.9699 55.1092 51.9656C55.1599 51.9318 55.2042 51.9065 55.2423 51.8896C55.2887 51.8685 55.3204 51.8621 55.3373 51.8706C55.3753 51.8917 55.3838 51.8875 55.3627 51.8579C55.3584 51.8537 55.3542 51.8473 55.35 51.8389C55.35 51.8304 55.3521 51.822 55.3563 51.8135C55.3648 51.7966 55.3774 51.7819 55.3943 51.7692C55.4028 51.765 55.4091 51.7586 55.4134 51.7502C55.4218 51.7459 55.4303 51.7417 55.4387 51.7375C55.4472 51.7375 55.4514 51.7375 55.4514 51.7375C55.4556 51.7375 55.4577 51.7396 55.4577 51.7438C55.4577 51.7481 55.4662 51.7481 55.4831 51.7438C55.4957 51.7354 55.5126 51.7248 55.5338 51.7121C55.5591 51.691 55.6077 51.653 55.6795 51.5981C55.726 51.5643 55.7767 51.5284 55.8316 51.4903C55.8612 51.4692 55.8929 51.446 55.9267 51.4206C56.0239 51.3488 56.1443 51.2537 56.2879 51.1355C56.4358 51.0129 56.5752 50.8925 56.7062 50.7742C56.7442 50.7404 56.7801 50.7066 56.8139 50.6728C56.9195 50.5757 56.9998 50.5038 57.0547 50.4574C57.0801 50.432 57.1033 50.4088 57.1244 50.3877C57.1624 50.3539 57.192 50.3243 57.2131 50.2989C57.2469 50.2651 57.2829 50.2229 57.3209 50.1722C57.3336 50.1595 57.3462 50.1468 57.3589 50.1342C57.3716 50.113 57.3885 50.0919 57.4096 50.0708C57.4138 50.0666 57.4181 50.0602 57.4223 50.0518C57.4476 50.0222 57.473 49.9947 57.4983 49.9694C57.6969 49.7413 57.8258 49.5596 57.8849 49.4244C57.9271 49.3103 57.9609 49.1857 57.9863 49.0505C58.0116 48.9111 58.0159 48.8139 57.999 48.759C57.9947 48.7294 57.9947 48.7019 57.999 48.6766C58.0116 48.6555 58.0264 48.6449 58.0433 48.6449ZM54.5578 52.1938C54.579 52.198 54.5832 52.217 54.5705 52.2508C54.5621 52.2762 54.5409 52.2973 54.5071 52.3142C54.4733 52.3269 54.4395 52.3332 54.4057 52.3332C54.3677 52.3332 54.336 52.3247 54.3107 52.3079C54.2726 52.2825 54.2388 52.2846 54.2093 52.3142C54.1797 52.3522 54.1607 52.3522 54.1522 52.3142C54.1522 52.2931 54.1544 52.2804 54.1586 52.2762C54.1628 52.2719 54.167 52.2698 54.1713 52.2698C54.1755 52.2656 54.1818 52.2635 54.1903 52.2635C54.1945 52.2593 54.2008 52.2572 54.2093 52.2572C54.2346 52.2572 54.2769 52.2572 54.336 52.2572C54.3529 52.2529 54.3698 52.2508 54.3867 52.2508C54.3994 52.2508 54.4142 52.2487 54.4311 52.2445C54.4564 52.236 54.4754 52.2297 54.4881 52.2255C54.5135 52.2001 54.5367 52.1896 54.5578 52.1938Z" fill="#F1EDE4"/>
<defs>
<clipPath id="clip0_216_112328">
<rect width="68" height="68.0433" fill="white" transform="translate(6.5 6.75781)"/>
</clipPath>
</defs>
</svg>
