<svg width="81" height="81" viewBox="0 0 81 81" fill="none" xmlns="http://www.w3.org/2000/svg">
<g clip-path="url(#clip0_216_112266)">
<path d="M22.9749 39.9612C23.1001 39.9768 23.1228 40.1545 23.248 40.4783C23.3788 40.7865 23.6803 41.2932 24.4654 41.6432C24.8466 41.8156 25.3529 41.9358 25.8877 41.8679C26.4509 41.7843 27.1165 41.5701 27.7422 41.1835C28.368 40.8022 28.9995 40.2224 29.5058 39.4963C30.0064 38.7545 30.4331 37.8142 30.8484 36.7903C31.7757 34.4553 32.2593 32.5277 32.5778 31.0023C32.8964 29.4718 33.0045 28.3382 33.0955 27.5128C33.1183 27.1001 33.1467 26.7658 33.1752 26.4942C33.1922 26.2225 33.2093 26.0136 33.2321 25.8569C33.2833 25.5434 33.3629 25.4337 33.4767 25.4233C33.5905 25.4181 33.6701 25.5121 33.7384 25.8255C33.7725 25.9822 33.801 26.1912 33.8294 26.4681C33.8408 26.7449 33.8408 27.0897 33.8351 27.5128C33.7441 29.1897 33.471 32.1881 31.6278 36.9836C31.1727 38.1015 30.7289 39.094 30.1316 39.9664C29.5229 40.8179 28.789 41.4604 28.0267 41.894C27.6455 42.1082 27.253 42.2753 26.8775 42.3902C26.4964 42.5052 26.1493 42.5888 25.7568 42.6096C25.0059 42.6358 24.3972 42.4164 23.942 42.1656C23.0204 41.638 22.736 40.9067 22.7246 40.4992C22.7246 40.2903 22.7587 40.1492 22.8099 40.0604C22.8555 39.9768 22.9067 39.9455 22.9635 39.9559L22.9749 39.9612Z" fill="#F1EDE4"/>
<path d="M35.1437 69.2301C35.121 69.3294 34.8081 69.3346 34.097 69.2301C33.3915 69.1152 32.2993 68.8645 30.786 68.3055C29.2841 67.7361 27.3385 66.8638 25.171 65.3071C24.0845 64.5339 22.9637 63.5675 21.8772 62.3713C20.7963 61.175 19.7552 59.7385 18.9303 58.0251C18.0201 56.0714 17.6275 54.1803 17.5081 52.493C17.3943 50.8005 17.5593 49.2961 17.838 48.0006C18.0997 46.6946 18.5548 45.6185 18.9587 44.6939C19.1977 44.2499 19.3968 43.8267 19.63 43.4611C19.869 43.1006 20.0738 42.7611 20.2899 42.4633C20.5175 42.176 20.7223 41.9148 20.91 41.6797C21.0978 41.4447 21.3026 41.2618 21.4676 41.0842C21.6382 40.9118 21.7861 40.7604 21.9284 40.635C22.0763 40.5201 22.2071 40.4156 22.3209 40.332C22.776 39.9977 22.9637 39.9298 23.0377 40.0081C23.1117 40.0865 23.0377 40.2589 22.6964 40.6454C22.52 40.8387 22.2811 41.0842 21.9966 41.4394C21.8544 41.6171 21.678 41.7999 21.5074 42.0245C21.3424 42.2544 21.1603 42.5051 20.9555 42.782C20.1875 43.9103 19.2261 45.5663 18.6686 48.0476C18.4012 49.2804 18.2306 50.7169 18.3273 52.3363C18.424 53.9505 18.7938 55.7579 19.6414 57.6228C20.4606 59.3624 21.5244 60.8041 22.611 61.9899C23.709 63.1757 24.8354 64.116 25.9049 64.8787C28.0667 66.3779 29.9327 67.2242 31.3435 67.7779C32.7658 68.316 33.7386 68.6137 34.3416 68.807C34.9446 69.0003 35.1722 69.1309 35.1494 69.2301H35.1437Z" fill="#F1EDE4"/>
<path d="M60.1697 39.8935C60.2209 39.9092 60.2152 40.0555 60.1185 40.3741C59.9876 40.6614 59.743 41.1734 59.0262 41.539C58.3322 41.9047 57.1716 41.9622 56.0737 41.3771C55.5275 41.095 54.9928 40.6249 54.6514 39.998C54.3044 39.4025 54.0541 38.7025 53.8834 37.9346C53.5307 36.3988 53.5819 34.6279 53.2463 32.6742C52.9163 30.7153 52.2678 28.537 51.1641 26.228C50.0377 23.9348 48.4277 21.5214 46.1522 19.2334C45.003 18.0998 43.6889 17.008 42.1927 16.0103C40.7022 15.0125 39.0353 14.0513 37.1523 13.4558C36.6915 13.3043 36.225 13.1946 35.7699 13.1006C35.7301 13.0954 35.7301 13.0954 35.7357 13.0954C35.7357 13.0954 35.7528 13.1058 35.7585 13.111C35.7073 13.0849 35.7471 13.1058 35.7357 13.0954C35.7471 13.111 35.6732 13.017 35.9007 13.2991C36.2136 13.6961 36.5208 14.0879 36.8053 14.4849C37.3912 15.2737 37.9089 16.0677 38.4039 16.8513C39.3767 18.4237 40.1617 19.9804 40.742 21.5109C41.3223 23.0415 41.7034 24.546 41.8627 25.993C41.9765 27.4609 41.9082 28.7773 41.7774 30.0414C41.6409 31.3004 41.3792 32.4914 40.8273 33.5309C40.5429 34.0481 40.156 34.513 39.6782 34.8735C39.206 35.2443 38.6143 35.422 38.0682 35.5212C37.5391 35.6048 36.9077 35.5996 36.4014 35.3436C35.9007 35.0929 35.5708 34.7063 35.3318 34.3354C34.871 33.578 34.6833 32.8414 34.524 32.1727C34.2396 30.8355 34.1599 29.7489 34.0746 28.8713C33.9949 27.9989 33.938 27.3355 33.8698 26.8445C33.8072 26.3534 33.7276 26.0452 33.6536 25.8676C33.5796 25.6952 33.5171 25.6378 33.5398 25.5855C33.5455 25.5437 33.7048 25.5333 33.8868 25.7213C34.0575 25.9042 34.2168 26.2385 34.342 26.7348C34.4671 27.231 34.5695 27.8944 34.6833 28.7564C34.8028 29.6183 34.9052 30.6892 35.1896 31.9586C35.3432 32.5854 35.5309 33.2854 35.9121 33.9175C36.2989 34.56 36.919 35.0406 37.8406 34.8473C38.7566 34.7638 39.5758 34.1891 40.0707 33.2906C40.5713 32.3921 40.8273 31.269 40.9525 30.0571C41.072 28.8504 41.1288 27.5027 40.9923 26.1445C40.8273 24.7758 40.4348 23.3393 39.8375 21.8714C39.2401 20.3983 38.4494 18.8938 37.4822 17.3632C36.993 16.6006 36.4753 15.8222 35.9064 15.0543C35.6277 14.6625 35.3261 14.2812 35.0246 13.8894L34.7288 13.5133L34.2509 12.9282C33.9153 12.5312 33.6195 12.1603 33.2554 11.7633C33.6707 11.8312 34.0916 11.8991 34.5297 11.967C34.9393 12.0349 35.3489 12.0924 35.7813 12.1969L36.0316 12.2543L36.1965 12.2961L36.5322 12.3902C36.7541 12.4528 36.9816 12.5312 37.2035 12.6043C39.297 13.3461 41.1004 14.3648 42.699 15.4565C44.309 16.5483 45.7027 17.7393 46.9088 18.9669C48.1205 20.1893 49.1218 21.4692 49.9694 22.7281C50.8228 23.987 51.5168 25.2355 52.063 26.4527C53.1837 28.8817 53.764 31.1646 54.037 33.1862C54.1906 34.1996 54.2305 35.1399 54.3101 35.9966C54.3841 36.8533 54.4921 37.6316 54.6799 38.3212C54.8619 39.0055 55.1407 39.6271 55.465 40.0868C55.7949 40.5465 56.2671 40.8547 56.7165 41.048C57.1716 41.2361 57.6154 41.3144 58.0022 41.2987C58.3891 41.2779 58.7133 41.1838 58.9693 41.0532C59.487 40.792 59.7032 40.4159 59.8682 40.2122C60.0104 39.9876 60.1014 39.8883 60.1583 39.904L60.1697 39.8935Z" fill="#F1EDE4"/>
<path d="M49.2298 68.6086C49.1046 68.4205 50.0376 67.8302 52.4497 66.2265C53.6387 65.4116 55.2031 64.3355 57.0293 62.7788C57.9395 61.9952 58.9123 61.0967 59.8681 60.0049C60.8295 58.9236 61.8023 57.6647 62.6272 56.1706C64.4533 52.7804 64.789 49.6513 64.3509 47.3737C64.1291 46.235 63.7081 45.2738 63.3156 44.4641C62.9173 43.6544 62.5191 43.0014 62.155 42.4686C61.4268 41.4029 60.8466 40.8231 60.5109 40.4626C60.1696 40.1126 60.0672 39.9612 60.1354 39.8723C60.198 39.794 60.3914 39.8201 60.8352 40.1022C61.2732 40.3895 61.9445 40.9589 62.7467 42.0455C63.1449 42.5887 63.5772 43.2574 64.0039 44.0932C64.4249 44.9238 64.8686 45.9163 65.1303 47.1491C65.6366 49.5939 65.2782 52.8588 63.4009 56.4057C62.5077 58.0564 61.4496 59.4199 60.4142 60.5743C59.3731 61.7288 58.3491 62.6847 57.3877 63.484C55.4705 65.0929 53.8719 66.1534 52.6659 66.916C50.231 68.4205 49.3435 68.7653 49.2355 68.6033L49.2298 68.6086Z" fill="#F1EDE4"/>
<path d="M32.1516 61.9692C32.0093 61.9692 31.9354 61.8386 31.9297 61.5043C31.9297 61.17 31.9752 60.6267 32.1857 59.817C32.436 58.9081 32.6749 58.3961 32.8399 58.1245C33.0106 57.8476 33.113 57.8111 33.2438 57.8685C33.3747 57.926 33.3917 58.02 33.2893 58.2969C33.1869 58.579 32.9423 59.0491 32.7034 59.9215C32.4929 60.7364 32.4644 61.2588 32.4132 61.567C32.3677 61.8752 32.3052 61.9744 32.1572 61.9744L32.1516 61.9692Z" fill="#F1EDE4"/>
<path d="M24.8807 37.7253C25.0173 37.7619 25.0742 37.8454 25.0343 38.0283C24.9945 38.2111 24.8751 38.4932 24.5963 38.8745C24.272 39.2977 24.016 39.5014 23.8511 39.5902C23.6861 39.679 23.6064 39.6477 23.5211 39.5432C23.4358 39.4335 23.4301 39.3656 23.5382 39.2559C23.6406 39.1409 23.8738 38.979 24.1583 38.6081C24.4143 38.2581 24.5053 38.0022 24.5849 37.8663C24.6646 37.7253 24.7385 37.6887 24.8807 37.7253Z" fill="#F1EDE4"/>
<path d="M39.7802 27.8316C39.6266 27.8264 39.5811 27.607 39.547 27.0428C39.5072 26.4786 39.4901 25.5593 39.1943 24.1802C38.8416 22.6287 38.432 21.772 38.2499 21.2705C38.0508 20.769 38.0451 20.6227 38.1816 20.5653C38.3125 20.5078 38.4377 20.6019 38.6937 21.0877C38.9383 21.5787 39.3422 22.4615 39.712 24.0652C40.0306 25.5697 40.0476 26.5309 40.0306 27.0951C40.0078 27.6645 39.9225 27.8421 39.7802 27.8368V27.8316Z" fill="#F1EDE4"/>
<path d="M39.4562 31.2059C39.1774 31.1275 39.2627 30.9186 39.4903 30.2238C39.752 29.4403 39.7804 29.3044 40.0592 29.3828C40.3379 29.4612 40.2583 29.5761 39.9966 30.3596C39.752 31.0962 39.7349 31.2843 39.4562 31.2059Z" fill="#F1EDE4"/>
<path d="M55.4645 41.7948C55.3962 41.9045 55.163 41.8732 54.7022 41.5754C54.2528 41.2724 53.5246 40.6874 52.9443 39.5016C52.3413 38.1434 52.3925 37.2606 52.4152 36.7852C52.4664 36.3046 52.5575 36.1897 52.6997 36.2053C52.8476 36.221 52.8874 36.3359 52.8988 36.7852C52.9329 37.224 52.8703 38.0441 53.4222 39.2926C53.9797 40.4471 54.6737 40.9486 55.0378 41.2568C55.419 41.5598 55.5441 41.6747 55.4588 41.7948H55.4645Z" fill="#F1EDE4"/>
<path d="M58.5478 42.2962C58.5819 42.5627 58.4682 42.5627 58.087 42.6045C57.6603 42.6515 57.5921 42.6724 57.5522 42.4059C57.5181 42.1395 57.5921 42.1709 58.0187 42.1239C58.417 42.0821 58.508 42.0298 58.5421 42.2962H58.5478Z" fill="#F1EDE4"/>
<path d="M23.4245 65.396C23.3676 65.5057 22.958 65.4326 22.1444 64.8788C21.3423 64.3147 20.1419 63.296 18.7026 61.4364C17.8891 60.3707 17.4738 59.3938 17.1837 58.6416C16.8993 57.8789 16.74 57.3043 16.6376 56.8916C16.4384 56.0558 16.4612 55.8312 16.5977 55.7999C16.74 55.7685 16.848 55.9566 17.0984 56.761C17.2292 57.1633 17.3885 57.717 17.6673 58.4536C17.9574 59.1849 18.3385 60.1147 19.1122 61.1334C20.5914 63.0505 21.8031 64.0274 22.5085 64.5811C23.231 65.1191 23.4927 65.2654 23.4188 65.396H23.4245Z" fill="#F1EDE4"/>
<path d="M27.5748 63.3159C27.518 63.4256 27.1084 63.3525 26.2948 62.7988C25.4927 62.2346 24.2923 61.216 22.853 59.3563C22.0395 58.2906 21.6242 57.3138 21.3341 56.5615C21.0496 55.7989 20.8904 55.2242 20.788 54.8116C20.5888 53.9757 20.6116 53.7511 20.7481 53.7198C20.8904 53.6884 20.9984 53.8765 21.2488 54.681C21.3796 55.0832 21.5389 55.6369 21.8176 56.3735C22.1078 57.1048 22.4889 58.0346 23.2626 59.0533C24.7418 60.9704 25.9535 61.9473 26.6589 62.501C27.3814 63.0391 27.6431 63.1853 27.5692 63.3159H27.5748Z" fill="#F1EDE4"/>
<path d="M26.7784 60.5963C26.7499 60.6512 26.5451 60.6146 26.1384 60.3377C25.7373 60.0557 25.1371 59.5463 24.4175 58.6165C24.0107 58.0837 23.8031 57.5952 23.658 57.2191C23.5158 56.8378 23.4361 56.5505 23.3849 56.3441C23.2854 55.9262 23.2968 55.8139 23.365 55.7982C23.4361 55.7826 23.4902 55.8766 23.6153 56.2788C23.6808 56.48 23.7604 56.7568 23.8998 57.1251C24.0449 57.4908 24.2354 57.9557 24.6223 58.465C25.3618 59.4236 25.9677 59.912 26.3204 60.1889C26.6817 60.4579 26.8125 60.531 26.7755 60.5963H26.7784Z" fill="#F1EDE4"/>
<path d="M62.633 59.3938C62.7638 59.4461 62.7411 59.6759 62.4794 60.1879C62.212 60.6998 61.7171 61.5147 60.7101 62.5908C59.5553 63.7871 58.7133 64.3356 58.2297 64.6229C57.7348 64.905 57.5698 64.9154 57.4959 64.8057C57.4162 64.6908 57.5016 64.5811 57.9396 64.2677C58.3663 63.949 59.1855 63.4371 60.3005 62.2878C61.3245 61.1908 61.7796 60.3916 62.0811 59.9371C62.377 59.4774 62.5021 59.3364 62.6387 59.3938H62.633Z" fill="#F1EDE4"/>
<path d="M64.7033 55.8051C64.9707 55.9095 64.857 56.1185 64.527 56.8237C64.1515 57.6177 64.106 57.7588 63.8329 57.6491C63.5656 57.5446 63.6623 57.4297 64.0377 56.6356C64.3905 55.8939 64.4303 55.6954 64.7033 55.8051Z" fill="#F1EDE4"/>
<path d="M51.9261 31.0545C52.0569 31.0075 52.1707 31.0806 52.3073 31.3418C52.4381 31.603 52.5917 32.0574 52.7055 32.7679C52.8249 33.5723 52.7908 34.0529 52.7453 34.3193C52.6941 34.5858 52.6145 34.6484 52.4722 34.6328C52.3243 34.6171 52.2731 34.5492 52.2674 34.2985C52.2561 34.0477 52.2959 33.6037 52.1878 32.8462C52.074 32.141 51.909 31.7231 51.8408 31.4619C51.7725 31.206 51.7896 31.1015 51.9261 31.0545Z" fill="#F1EDE4"/>
<path d="M50.4814 67.2034C50.3335 67.2347 50.2311 67.0676 50.049 66.6026C49.8613 66.1429 49.611 65.3803 49.0307 64.2833C48.3594 63.0557 47.8247 62.4131 47.5573 62.0214C47.2842 61.6348 47.2501 61.5094 47.3695 61.4206C47.4833 61.337 47.6142 61.3893 47.9384 61.7497C48.257 62.1154 48.7975 62.784 49.4915 64.0534C50.1287 65.2497 50.3904 66.0437 50.5212 66.5191C50.6464 66.9996 50.6179 67.1668 50.4814 67.1981V67.2034Z" fill="#F1EDE4"/>
<path d="M16.0861 54.1807C15.8017 54.2381 15.7903 54.1284 15.7106 53.7732C15.6196 53.3762 15.5912 53.3135 15.8756 53.2561C16.1601 53.1986 16.1373 53.2717 16.2226 53.6687C16.308 54.0396 16.3706 54.1232 16.0804 54.1754L16.0861 54.1807Z" fill="#F1EDE4"/>
<path d="M41.4871 48.9617C41.6862 49.04 41.5269 49.6721 40.702 51.1609C40.2924 51.9079 39.7122 52.8586 38.9612 54.0706C38.5858 54.6765 38.1705 55.3504 37.7324 56.0974C37.3058 56.8549 36.7938 57.6645 36.4126 58.6153C36.0485 59.7123 35.6105 60.6421 35.326 61.5145C35.0245 62.3817 34.8197 63.1652 34.7173 63.8704C34.6206 64.5704 34.5864 65.1868 34.5978 65.7144C34.5978 65.9809 34.6263 66.2212 34.6376 66.4458C34.6661 66.6704 34.6888 66.8741 34.7116 67.0622C34.8424 67.804 34.9505 68.2689 35.0074 68.5562C35.0529 68.8435 35.0131 68.9637 34.9107 69.0002C34.8083 69.0368 34.7002 68.9741 34.5409 68.7129C34.3816 68.4517 34.1996 67.9816 34.0232 67.2032C33.9493 66.8114 33.8753 66.3413 33.8412 65.7824C33.8128 65.2234 33.8241 64.5757 33.8924 63.8339C33.972 63.0921 34.0972 62.2563 34.3304 61.3212C34.5808 60.3966 34.8993 59.3571 35.5593 58.328C36.1281 57.3511 36.5946 56.4578 37.0839 55.6795C37.5674 54.9064 37.9998 54.2116 38.381 53.59C39.1547 52.3572 39.7349 51.4273 40.1502 50.7221C40.9808 49.3169 41.2596 48.8624 41.4757 48.9512L41.4871 48.9617Z" fill="#F1EDE4"/>
<path d="M49.0589 68.4727C49.0077 68.4779 48.9508 68.4257 48.8939 68.3108C48.8313 68.1958 48.7801 68.013 48.6834 67.7675C48.5981 67.522 48.4843 67.2033 48.3193 66.822C48.1601 66.4354 47.9325 65.9862 47.648 65.4533C47.3636 64.9257 46.9995 64.325 46.5842 63.625C46.1746 62.925 45.7024 62.1258 45.2928 61.1646C44.8832 60.1982 44.5931 59.0698 44.485 57.8109C44.4281 57.184 44.4167 56.5206 44.4395 55.8363C44.4566 55.4915 44.4736 55.1415 44.5078 54.7863C44.5191 54.6557 44.5135 54.7027 44.5135 54.6975L44.5021 54.7027C44.4224 54.7811 44.3371 54.8594 44.2518 54.943C43.8877 55.2878 43.535 55.6639 43.1879 56.0609C42.7897 56.5206 42.4313 56.9803 42.0672 57.4191C41.7088 57.8579 41.3618 58.281 41.0261 58.6937C40.3719 59.5243 39.7859 60.3131 39.2683 61.0549L38.085 62.7683L38.3694 60.7832C38.5628 59.425 39.0009 58.2863 39.365 57.2885C39.7518 56.2803 40.0533 55.4288 40.3207 54.6244C40.6052 53.8356 40.8555 53.1617 41.0375 52.5714C41.2252 51.9811 41.3447 51.4796 41.4187 51.0513C41.4926 50.6229 41.5097 50.2781 41.5154 49.9961C41.5154 49.714 41.4926 49.4998 41.4699 49.3379C41.4585 49.1707 41.43 49.0662 41.4414 48.9826C41.4471 48.9043 41.4756 48.8573 41.5211 48.8416C41.5666 48.8207 41.6121 48.8364 41.6804 48.8938C41.7373 48.9513 41.834 49.0506 41.9022 49.2229C41.9819 49.3953 42.0558 49.6304 42.1013 49.9438C42.1355 50.2573 42.1525 50.6438 42.0957 51.1035C42.0445 51.5632 41.9307 52.1013 41.7543 52.7177C41.5837 53.3341 41.339 54.0236 41.0716 54.8124C40.827 55.5908 40.5141 56.5206 40.1557 57.5131C39.8144 58.5161 39.4503 59.634 39.3422 60.8825L38.4434 60.6109C38.9269 59.8377 39.4787 59.0176 40.1273 58.1661C40.4572 57.7482 40.7986 57.3094 41.1854 56.8863C41.5723 56.4579 41.9933 56.04 42.4427 55.6169C42.8523 55.2303 43.2505 54.849 43.6317 54.4833L43.9673 54.1699C44.138 54.0132 44.3086 53.8617 44.4793 53.705C44.8434 53.3759 45.2018 53.0572 45.5602 52.7386C45.509 53.1408 45.4521 53.5326 45.4009 53.9244C45.3782 54.1177 45.3497 54.3109 45.327 54.499L45.2815 54.9117C45.2473 55.2721 45.2246 55.6273 45.2075 55.9721C45.1791 56.6617 45.1961 57.3199 45.253 57.9363C45.3668 59.1743 45.6683 60.2452 46.0779 61.1594C46.4875 62.0787 46.9483 62.8571 47.3522 63.5519C47.7561 64.2466 48.0975 64.8578 48.3649 65.3959C48.6322 65.9339 48.8143 66.4041 48.9451 66.8011C49.0703 67.1981 49.1385 67.5167 49.167 67.7675C49.2068 68.013 49.1841 68.1958 49.167 68.3108C49.1442 68.4257 49.1101 68.4779 49.0589 68.4831V68.4727Z" fill="#F1EDE4"/>
</g>
<defs>
<clipPath id="clip0_216_112266">
<rect width="50" height="58" fill="white" transform="translate(15.5 11.7578)"/>
</clipPath>
</defs>
</svg>
