<svg width="81" height="81" viewBox="0 0 81 81" fill="none" xmlns="http://www.w3.org/2000/svg">
<g clip-path="url(#clip0_216_112348)">
<path d="M49.6352 33.3319C49.7545 32.8361 50.0109 32.4482 50.4379 32.1874C50.5463 32.1201 50.6474 31.9915 50.6872 31.8702C50.9383 31.048 51.5518 30.5941 52.3454 30.2816C52.4198 30.1252 52.4925 29.9534 52.589 29.7865C52.673 29.6445 52.7551 29.4871 52.8819 29.3787C53.4198 28.9416 53.9558 28.4891 54.5317 28.1095C54.7544 27.9586 54.9139 27.7997 55.0518 27.5891C55.1897 27.3784 55.2933 27.1408 55.4492 26.9513C55.838 26.501 56.1226 26.0242 56.1966 25.4096C56.2528 24.9059 56.583 24.4858 56.9693 24.1445C57.1807 23.9639 57.4006 23.79 57.63 23.6305C57.8374 23.4814 57.9875 23.3082 58.073 23.0494C58.3998 22.0163 59.2412 21.5195 60.1784 21.1743C60.5502 21.0367 60.8855 20.9188 61.1579 20.5989C61.3898 20.3304 61.716 20.136 62.0278 19.9512C62.5506 19.6479 63.1166 19.5102 63.7379 19.7698C63.9241 19.6388 64.1027 19.5087 64.2813 19.3786C64.8247 18.9874 65.3867 18.6871 66.0447 19.0588C66.6996 18.561 67.3407 18.1426 68.1475 18.5897C68.4614 18.3579 68.7543 18.1443 69.0489 17.9459C69.7017 17.495 69.8814 17.5046 70.5351 17.9699C70.6028 18.0162 70.6772 18.0539 70.803 18.132C70.9754 18.0803 71.1861 18.024 71.3968 17.9678C72.2599 17.7169 72.9982 17.9159 73.5924 18.598C73.6827 18.7037 73.7663 18.818 73.8633 18.9151C74.0421 19.1111 74.2509 19.2337 74.5275 19.2084C74.6346 19.1955 74.7522 19.2047 74.8622 19.2149C75.2006 19.252 75.4302 19.4187 75.5403 19.755C75.6043 19.9648 75.6768 20.1813 75.7407 20.3911C76.0665 20.4531 76.4022 20.4673 76.7029 20.5788C77.0599 20.7069 77.0625 21.1182 77.2492 21.4453C77.3151 21.4763 77.4075 21.5351 77.5126 21.5691C77.9584 21.7255 78.1843 22.0556 78.2825 22.4866C78.3284 22.6752 78.3675 22.8724 78.3521 23.0684C78.3223 23.4681 78.3644 23.8202 78.5931 24.1734C78.8303 24.5333 78.8069 24.9865 78.7168 25.4012C78.615 25.8482 78.6023 26.2613 78.8171 26.6938C79.0225 27.1119 78.9531 27.5706 78.8896 28.0131C78.8411 28.3218 78.8282 28.6029 78.8973 28.9208C78.9655 29.231 78.9311 29.5924 78.852 29.9047C78.7845 30.1846 78.7612 30.4437 78.8401 30.7138C78.8796 30.8489 78.9046 30.9934 78.8896 31.1273C78.8429 31.6454 78.7034 32.1669 79.0183 32.6573C78.9843 32.9564 78.9921 33.2817 78.8931 33.5576C78.7834 33.8736 78.6795 34.1733 78.6901 34.5215C78.7059 34.9778 78.5707 35.4056 78.2723 35.7675C78.102 35.9665 78.011 36.1793 78.0363 36.4558C78.079 37.072 77.8715 37.6094 77.4941 38.0895C77.3525 38.2695 77.234 38.4468 77.2241 38.6887C77.1868 39.6095 76.7946 40.3554 76.0714 40.9312C76.0459 41.043 76.0119 41.148 76.0017 41.258C75.9268 42.0591 75.5839 42.6981 74.8721 43.1095C74.6831 43.2175 74.5924 43.3681 74.5789 43.5794C74.5318 44.1597 74.3207 44.6665 73.8456 44.9796C73.6904 45.7593 73.192 46.3962 72.3503 46.8904C72.2868 47.1388 72.2261 47.4101 72.1491 47.6756C72.0489 48.006 71.6839 47.9409 71.4303 48.1577C71.2825 48.6102 71.1746 49.1357 70.8042 49.545C70.4396 49.9381 69.9199 50.0081 69.4767 50.2631C69.4449 50.3213 69.3833 50.3908 69.3618 50.471C69.1987 51.1195 68.8311 51.5518 68.1634 51.7482C67.968 51.8027 67.7463 51.9613 67.6354 52.1376C67.3336 52.6009 66.9121 52.9076 66.4545 53.172C66.4177 53.4483 66.3934 53.6997 66.3453 53.9462C66.2824 54.2643 66.1071 54.4872 65.7709 54.5974C65.4872 54.6934 65.2196 54.8575 64.9482 54.9909C64.6989 55.114 64.4618 55.2744 64.2012 55.3677C63.6655 55.5638 63.1115 55.6068 62.5588 55.4012C62.3555 55.3246 62.1454 55.2565 61.9353 55.1885C61.7356 55.3366 61.5476 55.4523 61.3785 55.5968C61.0241 55.88 60.6391 55.9727 60.2006 55.8776C60.065 55.8472 59.9226 55.8255 59.7936 55.7865C59.5606 55.7212 59.3576 55.7766 59.1655 55.9238C58.9878 56.0616 58.8093 56.1917 58.6316 56.3294C58.2552 56.623 57.8365 56.7585 57.3793 56.5725C56.9641 56.4125 56.6364 56.5294 56.2832 56.7581C55.9589 56.9677 55.5993 57.1428 55.2351 57.2796C54.8939 57.4136 54.5191 57.3963 54.1599 57.3151C53.666 57.2111 53.2296 57.2634 52.828 57.6065C52.2919 58.059 51.6586 58.0882 50.9844 57.9049C50.4461 58.5983 49.7802 59.0042 48.8744 58.833C48.7261 59.0216 48.618 59.221 48.4565 59.3645C48.2951 59.5081 48.0905 59.6802 47.8972 59.6878C47.527 59.7088 47.2033 59.7941 46.8734 59.9579C46.5953 60.0999 46.2759 60.0915 45.9703 60.0038C45.785 59.9483 45.5921 59.8938 45.4127 59.8221C45.0538 59.6786 44.697 59.6825 44.3473 59.8098C43.664 60.0702 42.982 60.0819 42.3093 59.7819C42.0545 59.6649 41.8037 59.7104 41.5755 59.8154C40.7011 60.2307 39.8323 60.1095 38.9596 59.8256C38.6121 59.7119 38.2713 59.5896 37.9296 59.4597C37.4905 59.2948 37.0544 59.2848 36.6164 59.4537C36.4823 59.5009 36.3567 59.5547 36.232 59.6162C35.5389 59.9244 34.8309 59.9781 34.1141 59.6989C33.6903 59.5322 33.2429 59.4925 32.7933 59.4997C32.5446 59.4984 32.2874 59.4904 32.0415 59.5121C29.4522 59.7443 26.9102 59.3341 24.3701 58.9392C23.143 58.7444 22.0986 58.1938 21.1848 57.3712C21.0191 57.2202 20.8468 57.0778 20.6879 56.9182C20.3502 56.5625 19.9353 56.3404 19.4644 56.2336C18.8406 56.0831 18.2052 55.965 17.5863 55.7906C16.4298 55.4708 15.2665 55.1596 14.1255 54.7759C11.69 53.9569 9.5084 52.6648 7.42152 51.1905C6.4629 50.5132 5.53123 49.8015 4.70832 48.9603C4.17746 48.4181 3.73207 47.8113 3.3366 47.1675C2.99716 46.6024 2.81391 45.9797 2.83738 45.3323C2.87596 44.357 2.95281 43.377 3.04681 42.4106C3.11746 41.7032 3.50713 41.2605 4.21981 41.0509C4.85776 40.8658 5.47706 40.5898 6.06698 40.2629C7.1298 39.6698 8.25435 39.5274 9.46759 39.8015C10.5929 40.0551 11.5498 40.5231 12.4046 41.3061C13.7896 42.5614 15.2439 43.7464 16.6626 44.9589C16.6798 44.9724 16.7171 44.9602 16.7946 44.9587C16.7169 44.8282 16.6639 44.7103 16.5898 44.6104C15.4692 43.0982 14.6612 41.4087 13.882 39.7003C13.6106 39.1193 13.4129 38.5061 13.3283 37.8639C13.2177 37.0695 13.3744 36.3673 13.9399 35.7716C14.3332 35.3595 14.6274 34.8972 14.7947 34.349C14.9514 33.841 15.2746 33.4917 15.8234 33.3406C16.2822 33.2158 16.7174 33.0239 17.1648 32.8694C17.2693 32.8336 17.3823 32.8046 17.4922 32.8147C18.2456 32.8798 18.9912 32.9459 19.7406 33.0426C20.4354 33.1381 21.0037 33.4739 21.4292 34.0442C21.7711 34.5003 22.2006 34.8449 22.7322 35.0687C23.468 35.3767 23.9165 35.9443 24.2081 36.6937C25.0168 38.7791 25.3316 40.9547 25.4415 43.1704C25.4692 43.7262 25.4739 44.2848 25.4796 44.8511C25.5004 45.8038 25.5586 46.7442 25.7335 47.6863C25.8237 48.1803 25.845 48.6825 25.8825 49.1906C25.9167 49.6058 25.9508 50.0211 26.1507 50.3933C26.6744 50.2917 27.1837 50.1997 27.8137 50.0777C28.082 49.7893 28.4447 49.3809 28.9715 49.2402C29.2196 49.1717 29.5157 49.245 29.8982 49.2613C30.0985 49.183 30.395 48.9999 30.7156 48.9538C30.998 48.9122 31.3054 49.0152 31.7393 49.072C31.7623 49.0693 31.9148 48.9811 32.0747 48.9542C32.2872 48.9132 32.5506 48.8429 32.7233 48.9232C33.0859 49.0972 33.3735 48.9696 33.6831 48.8316C33.8087 48.7777 33.9554 48.7058 34.0816 48.7218C34.3253 48.7469 34.5562 48.8591 34.7981 48.869C35.04 48.8788 35.2863 48.795 35.5331 48.781C35.6642 48.7731 35.7968 48.8426 35.9572 48.8856C36.4292 48.6116 36.8954 48.3539 37.207 47.8429C37.3816 47.5502 37.7908 47.4002 37.9979 47.1192C38.2127 46.8372 38.2921 46.4627 38.4631 46.1394C38.5394 45.9982 38.6616 45.8516 38.7997 45.7729C39.337 45.4601 39.7325 45.0011 40.1699 44.5683C40.5651 44.1715 41.0686 43.9015 41.6527 43.785C41.7406 43.6114 41.8285 43.4378 41.9251 43.271C42.1046 42.9544 42.3166 42.6494 42.6731 42.5135C42.9999 42.389 43.2211 42.1606 43.4025 41.8593C43.6552 41.4408 44.024 41.1481 44.4926 40.9756C44.7083 40.8954 44.8724 40.7748 45.0207 40.5862C45.324 40.2004 45.7041 39.9375 46.2198 39.899C46.4897 39.8823 46.6912 39.7494 46.8349 39.5226C46.6754 38.1904 46.786 38.2703 47.2734 37.4121C47.2632 37.0017 47.0829 36.534 47.3464 36.0754C47.5848 35.6663 48.0056 35.4839 48.3536 35.1472C48.4611 34.3577 48.8079 33.6872 49.6416 33.3855L49.6352 33.3319ZM20.605 38.383C20.7104 38.1608 20.5772 38.0214 20.4431 37.8743C20.4175 37.66 20.4215 37.4343 20.3432 37.234C19.9647 36.2775 19.5708 35.3228 19.1626 34.3776C19.0227 34.0527 18.8311 33.7494 18.6711 33.4502C17.9808 33.393 17.3286 33.1993 16.7815 33.754C16.9133 34.1421 17.0691 34.535 17.1866 34.9325C18.0251 37.7211 19.1963 40.3689 20.5966 42.9194C21.292 44.1874 22.0468 45.4328 22.7863 46.68C23.5949 48.051 24.418 49.4125 25.2334 50.7749C25.2912 50.8689 25.35 50.9706 25.4434 51.0371C25.5025 51.0766 25.6088 51.0561 25.7962 51.0647C25.558 50.6972 25.3701 50.4246 25.2042 50.1415C24.3625 48.6891 23.654 47.1819 23.0175 45.6272C22.2696 43.7908 21.6932 41.895 21.1619 39.9861C21.0548 39.6106 20.896 39.2568 20.7668 38.8918C20.8732 38.6771 20.7094 38.5414 20.6126 38.3821L20.605 38.383ZM24.7391 44.6989C24.7615 44.6264 24.8145 44.5501 24.813 44.4726C24.8521 42.8527 24.7362 41.2357 24.4366 39.6407C24.2525 38.6221 23.9555 37.6326 23.5616 36.6779C23.2226 35.8565 22.5309 35.3335 21.54 35.1648C21.5501 35.249 21.5448 35.335 21.5837 35.4003C22.4447 36.8193 23.0028 38.3679 23.4115 39.9653C23.7565 41.2908 24.1006 42.6087 24.4533 43.9333C24.5237 44.1966 24.6476 44.4536 24.7477 44.7057C24.7532 44.7516 24.7578 44.7899 24.7633 44.8358C24.7578 44.7899 24.737 44.7458 24.7247 44.7084L24.7391 44.6989ZM21.1655 54.0963C20.72 53.8778 20.2745 53.6593 19.8367 53.4399C17.7389 52.3941 15.6345 51.3569 13.5435 50.3025C11.3037 49.1727 9.11325 47.936 6.97488 46.6155C6.094 46.0686 5.27378 45.4445 4.54209 44.7167C4.31279 44.4879 4.09696 44.2419 3.82021 43.9411C3.62038 44.4776 3.57799 44.902 3.89421 45.3379C4.47061 46.1309 5.1383 46.8431 5.85501 47.5106C6.40516 48.0194 6.97063 48.5264 7.59584 48.9486C8.39924 49.497 9.25074 49.9931 10.1121 50.4414C12.1733 51.5071 14.3198 52.3762 16.4847 53.2044C17.6072 53.6291 18.7181 54.0864 19.8281 54.536C20.3425 54.7462 20.8327 55.0137 21.1967 55.4594C21.0172 55.3877 20.8311 55.3245 20.6507 55.2452C20.0123 54.9721 19.3769 54.6599 18.7269 54.4193C17.8153 54.0702 16.8863 53.7698 15.9612 53.4379C13.6987 52.637 11.4518 51.7721 9.33354 50.62C7.34883 49.5451 5.54027 48.255 4.29754 46.3069C4.20081 46.1477 4.0465 46.0263 3.89436 45.8582C3.77023 46.1837 3.91931 46.391 4.03102 46.6106C4.45613 47.4373 5.03869 48.1519 5.69904 48.8029C6.41267 49.5096 7.21575 50.1202 8.03905 50.705C10.0077 52.1002 12.0653 53.3295 14.345 54.1439C15.6911 54.6195 17.0644 54.9988 18.4632 55.2662C19.2582 55.4196 20.0482 55.5968 20.795 55.9967C20.9347 55.8014 21.061 55.6232 21.1872 55.445C21.235 55.2607 21.2657 55.0628 21.3392 54.8987C21.4931 54.5619 21.371 54.3202 21.1407 54.0837C21.2727 54.0835 21.4056 54.0909 21.5615 54.0955C21.6292 53.9476 21.697 53.7997 21.7647 53.6518C21.6771 53.5691 21.6229 53.5057 21.5553 53.4595C20.2439 52.5602 18.9124 51.6868 17.6212 50.7618C15.3516 49.1231 13.0056 47.6255 10.5025 46.3719C9.55241 45.8954 8.64672 45.3359 7.74961 44.7832C6.57602 44.0617 5.55836 43.1506 4.74073 42.0292C4.64768 41.9006 4.52583 41.7909 4.38317 41.6371C4.22939 41.7798 4.07686 41.8679 4.0073 42.0005C3.91445 42.198 3.87212 42.4283 3.83561 42.6423C3.76384 43.0159 3.84643 43.3167 4.13941 43.6233C5.1258 44.6624 6.19888 45.5823 7.42974 46.3281C10.84 48.4128 14.3526 50.3143 17.9087 52.1253C18.8025 52.5852 19.6769 53.0785 20.5514 53.5718C20.785 53.707 21.0686 53.8051 21.1741 54.1031L21.1655 54.0963ZM21.7994 53.2283C21.8472 53.2381 21.895 53.2479 21.9427 53.2578C21.8959 53.2556 21.8414 53.2544 21.7945 53.2522C21.7131 53.0911 21.6393 52.9291 21.4982 52.6586C21.78 52.7414 21.9453 52.7604 22.0788 52.8376C22.2781 52.9458 22.4429 53.0892 22.6364 53.2136C22.8299 53.338 22.9907 53.3187 23.146 53.0594C22.8836 52.7491 22.6262 52.4149 22.3351 52.1236C21.2495 51.0343 20.0879 50.0239 18.8531 49.1156C16.8952 47.6802 14.9295 46.2458 12.9716 44.8105C11.3204 43.6025 9.80585 42.2384 8.499 40.663C8.42675 40.5785 8.35451 40.4939 8.27461 40.4103C8.13103 40.2489 7.9476 40.2087 7.74363 40.2564C7.57703 40.2919 7.41043 40.3273 7.26372 40.3993C6.51394 40.753 5.76507 41.1145 4.96445 41.4977C5.0973 41.6992 5.18728 41.867 5.31279 42.0073C6.04691 42.8203 6.82912 43.5809 7.76726 44.1521C8.81501 44.7955 9.86276 45.4389 10.9482 46.0079C13.4158 47.289 15.7167 48.7998 17.9288 50.4765C18.8853 51.2007 19.8494 51.9241 20.8193 52.6312C21.1338 52.8576 21.4742 53.042 21.8089 53.2427L21.7994 53.2283ZM37.3854 49.2039C36.9528 49.266 36.5128 49.505 36.0656 49.921C35.8127 49.8192 35.535 49.7049 35.241 49.5848C35.0272 49.6803 34.7981 49.7776 34.5546 49.8844C34.3247 49.7799 34.1024 49.6745 33.8639 49.5632C33.4595 49.8834 33.0259 49.9586 32.5461 49.7132C32.3553 49.6118 32.1578 49.7131 32.0012 49.8328C31.6689 50.1055 31.3486 50.0895 31.0084 49.8429C30.9484 49.7957 30.8547 49.7914 30.7745 49.7699C30.693 49.803 30.6011 49.814 30.5368 49.8605C30.1576 50.1311 29.7818 50.3003 29.2962 50.0711C29.0576 49.9599 28.8083 50.0829 28.6331 50.3058C28.5455 50.4173 28.4493 50.522 28.3779 50.6392C28.2069 50.9626 27.9454 51.0482 27.6024 50.9728C27.4667 50.9424 27.3243 50.9207 27.1856 50.9295C26.868 50.9364 26.5826 51.0172 26.4279 51.3464C26.3467 51.5114 26.2005 51.6531 26.0927 51.7903C25.9454 51.7924 25.8296 51.7985 25.7206 51.796C25.1296 51.7891 24.7161 52.0327 24.4902 52.6111C24.3836 52.888 24.1633 53.124 24.0174 53.3977C23.8918 53.6457 23.7132 53.7758 23.4385 53.8165C23.1341 53.8685 22.841 53.9501 22.5403 54.0327C22.3066 54.0918 22.1605 54.2335 22.0722 54.4693C21.8742 55.0211 21.6667 55.5584 21.4611 56.1111C21.6643 56.5761 22.2262 56.6641 22.4649 57.1015C22.3467 57.2166 22.2343 57.3155 22.1448 57.4116C22.3327 57.8784 22.671 58.1097 23.0893 58.2305C23.4666 58.3329 23.8506 58.4267 24.2367 58.4737C26.8176 58.755 29.4071 59.043 32.012 58.7468C32.3412 58.7074 32.6818 58.6977 33.0174 58.7119C33.4085 58.7349 33.813 58.7409 34.1768 58.8604C34.9129 59.1063 35.6047 59.0467 36.2856 58.7012C36.9521 58.3652 37.6215 58.3782 38.3126 58.6372C38.7278 58.7972 39.1556 58.9324 39.5892 59.0513C40.1995 59.219 40.8067 59.2318 41.3963 58.967C41.8009 58.7788 42.1941 58.7551 42.6054 58.9466C43.0824 59.1691 43.5757 59.2032 44.0741 59.0193C44.6835 58.791 45.2755 58.8056 45.8661 59.0688C45.9644 59.1114 46.079 59.1599 46.1871 59.1547C46.3726 59.148 46.6173 59.1809 46.745 59.0801C47.1071 58.7961 47.4967 58.7417 47.9428 58.8358C48.0096 58.6803 48.0648 58.5572 48.1276 58.4332C48.3816 57.9601 48.5391 57.8481 49.0483 57.9502C49.6206 58.0603 50.0338 57.8788 50.3423 57.407C50.5853 57.0362 50.8931 56.8829 51.3389 57.0392C51.801 57.2014 52.2387 57.0946 52.6084 56.8096C53.1337 56.3973 53.6938 56.2759 54.3329 56.4246C54.8201 56.5371 55.2731 56.4286 55.6991 56.1601C55.8651 56.0548 56.0501 55.9783 56.2085 55.8739C56.6241 55.5834 57.0618 55.4767 57.5514 55.6744C57.8377 55.7954 58.0974 55.6944 58.3308 55.5034C58.4154 55.4312 58.5085 55.3657 58.5845 55.2867C59.0544 54.8654 59.5652 54.6567 60.1991 54.8915C60.5408 55.0215 60.8569 54.937 61.1289 54.6793C61.2048 54.6003 61.3151 54.5482 61.392 54.4769C61.7418 54.1555 62.1179 54.1182 62.5481 54.3385C63.2673 54.7029 63.9635 54.5497 64.6226 54.1524C64.9344 53.9675 65.2092 53.7327 65.5596 53.4811C65.3647 52.8909 65.7415 52.5352 66.245 52.2652C66.5519 52.1042 66.7979 51.8884 66.9725 51.5957C67.1665 51.2696 67.4688 51.0703 67.7987 50.9066C67.9971 50.8129 68.2051 50.7337 68.3968 50.6486C68.452 50.5255 68.5099 50.4254 68.5277 50.3145C68.6225 49.7441 69.0075 49.4572 69.4963 49.2589C69.6219 49.2051 69.7579 49.1733 69.892 49.1261C70.1756 49.0301 70.3527 48.8225 70.4517 48.5466C70.4808 48.4655 70.5099 48.3843 70.5161 48.3059C70.5683 47.8337 70.7482 47.455 71.1846 47.2086C71.294 47.1489 71.3865 47.0135 71.4187 46.8932C71.564 46.3555 71.9472 46.0534 72.4275 45.8483C72.7457 45.717 72.9457 45.5067 72.9351 45.1585C72.9263 44.8256 73.0474 44.5393 73.2961 44.3465C73.637 44.0805 73.7841 43.7522 73.7567 43.3284C73.7348 42.9505 73.9379 42.701 74.2316 42.4949C74.3036 42.4475 74.3679 42.401 74.4408 42.3612C74.9741 42.0799 75.1974 41.6105 75.1287 41.0363C75.082 40.6458 75.1981 40.3834 75.5252 40.1967C76.1219 39.8613 76.3753 39.3184 76.3749 38.6661C76.375 38.2778 76.4915 37.9532 76.7455 37.6743C77.1293 37.2478 77.2982 36.7772 77.0831 36.2127C77.0038 36.0048 77.0755 35.8253 77.2131 35.6768C77.3227 35.555 77.4572 35.4457 77.5583 35.3171C77.8019 35.0162 77.9098 34.6848 77.7941 34.3026C77.7556 34.1752 77.7391 34.0374 77.714 33.8928C78.1995 33.4076 78.3246 32.8956 77.8541 32.3384C77.8266 32.3029 77.8413 32.2312 77.8422 32.2389C77.9284 31.8558 78.0755 31.5276 78.0456 31.2127C78.0166 30.9056 77.8105 30.6118 77.6734 30.3098C77.7534 30.1993 77.8122 30.1068 77.8796 30.0211C78.1462 29.7174 78.232 29.3965 77.9862 29.0299C77.8638 28.8504 77.8877 28.6611 77.9576 28.4664C78.0167 28.3117 78.0673 28.1504 78.094 27.9841C78.1692 27.5091 78.2214 27.0369 77.7747 26.6788C77.6032 26.544 77.633 26.3385 77.7096 26.1352C77.8028 25.8755 77.8951 25.6082 77.9558 25.3369C78.0527 24.9137 77.9713 24.5585 77.5353 24.3544C77.4943 24.336 77.4851 24.2594 77.4548 24.2009C77.4987 23.854 77.5723 23.4957 77.5761 23.138C77.5814 22.6637 77.4645 22.5301 76.9755 22.4022C76.6784 22.3213 76.4687 22.1911 76.4361 21.8533C76.4168 21.6925 76.3516 21.5372 76.299 21.3572C76.1364 21.3611 75.9967 21.3623 75.8571 21.3635C75.2728 21.348 75.1185 21.2266 74.9539 20.695C74.9013 20.5149 74.8554 20.3262 74.8141 20.1759C74.7158 20.1333 74.6635 20.0852 74.6099 20.0916C73.9514 20.1704 73.4922 19.8371 73.0948 19.3721C73.0406 19.3087 72.9865 19.2452 72.9323 19.1818C72.6139 18.7928 72.1984 18.695 71.7292 18.7978C71.5626 18.8332 71.396 18.8687 71.2493 18.9406C70.8159 19.1478 70.4414 19.0684 70.0804 18.7777C69.9766 18.6891 69.8526 18.6263 69.7096 18.5347C69.5359 18.6409 69.3595 18.7242 69.2107 18.8429C69.033 18.9807 68.882 19.1463 68.7215 19.2975C68.4773 19.5287 68.2032 19.6392 67.8817 19.4835C67.3045 19.2031 66.8567 19.4198 66.4738 19.8539C66.419 19.9148 66.3565 19.9767 66.3016 20.0376C66.143 20.2042 65.9565 20.2032 65.7666 20.1094C65.6922 20.0717 65.6245 20.0255 65.5569 19.9792C65.3511 19.8174 65.1215 19.8449 64.9352 19.9759C64.7058 20.1354 64.4859 20.3093 64.3011 20.5178C64.0414 20.8129 63.7559 20.8937 63.4096 20.7255C62.9813 20.5205 62.5941 20.66 62.2162 20.8761C62.0492 20.9737 61.8679 21.0808 61.7542 21.2342C61.3832 21.7679 60.9167 22.0878 60.2506 22.1675C59.8602 22.2142 59.5355 22.4861 59.2671 22.7745C59.1363 22.9144 58.9871 23.0953 58.9843 23.2665C58.9575 23.8211 58.6193 24.1101 58.2 24.37C58.106 24.4278 58.0214 24.5001 57.9283 24.5656C57.4281 24.9283 57.0939 25.3799 57.0618 26.0205C57.0437 26.3877 56.9214 26.7285 56.7017 27.0344C56.3751 27.4851 56.0571 27.9425 55.7639 28.4125C55.5614 28.7318 55.3276 28.985 54.9521 29.0921C54.8468 29.1202 54.7528 29.1781 54.6789 29.2102C54.6345 29.2932 54.5932 29.337 54.5843 29.3924C54.4469 29.9317 54.0928 30.1527 53.522 30.0554C53.171 30.4313 53.3055 31.0365 52.9266 31.4391C52.7698 31.4268 52.6063 31.4231 52.4476 31.3955C52.1304 31.3402 51.8915 31.4853 51.7343 31.7294C51.6167 31.9143 51.5572 32.1311 51.4977 32.3479C51.4373 32.557 51.4094 32.7778 51.3692 32.9612C51.2648 32.997 51.213 33.0188 51.1518 33.0261C50.5803 33.1178 50.5641 33.112 50.4561 33.6374C50.3807 33.9804 50.2351 34.192 49.8658 34.2206C49.4744 34.2597 49.2875 34.5151 49.2148 34.881C49.201 34.9603 49.1728 35.0491 49.1667 35.1275C49.1375 35.597 48.9016 35.897 48.474 36.088C48.267 36.1749 48.0902 36.3203 48.0237 36.6078C48.1978 37.1539 48.2169 37.703 47.7561 38.2008C47.5368 38.4445 47.5686 38.7746 47.7354 39.0653C47.7932 39.1593 47.8664 39.2515 47.9166 39.3465C48.0947 39.6669 48.1007 39.9768 47.8572 40.2777C47.437 40.3358 47.015 40.3785 46.6872 40.6896C46.618 40.76 46.4753 40.8004 46.3807 40.7884C45.9124 40.7047 45.6386 40.9471 45.4253 41.3066C45.3019 41.5077 45.1643 41.6562 44.9221 41.7085C44.3916 41.8186 44.0274 42.1495 43.8144 42.641C43.6808 42.9521 43.4753 43.1165 43.1222 43.151C42.8312 43.1858 42.6312 43.3961 42.5169 43.6738C42.4577 43.8285 42.3995 43.9908 42.3404 44.1454C42.2512 44.3735 42.0888 44.5094 41.8533 44.5532C41.7461 44.566 41.6313 44.5797 41.5259 44.6079C40.9131 44.7433 40.4647 45.0844 40.2244 45.6723C40.1643 45.8192 40.0813 45.969 40.0001 46.134C39.3062 46.0462 39.0304 46.4675 38.8554 47.0165C38.8505 47.0404 38.8379 47.0652 38.8339 47.0968C38.7554 47.4789 38.5713 47.7572 38.1937 47.9112C37.8898 48.033 37.7278 48.3009 37.599 48.5881C37.5148 48.7923 37.4467 49.0024 37.3778 49.2048L37.3854 49.2039ZM14.7431 35.9938C14.8364 36.2545 14.9466 36.5908 15.0873 36.9234C15.9889 39.0055 17.1456 40.9483 18.4462 42.7962C19.6994 44.5722 21.0601 46.2731 22.3632 48.012C23.029 48.9031 23.6814 49.8113 24.3404 50.7109C24.499 50.9327 24.6796 51.144 24.863 51.3783C24.9925 51.2929 25.0789 51.236 25.1797 51.1696C25.1258 51.044 25.1044 50.9301 25.0398 50.8446C24.094 49.3658 23.1693 47.8689 22.1947 46.4091C21.0673 44.7113 20.0484 42.9461 19.1388 41.1213C17.9755 38.7987 16.9463 36.4291 16.4443 33.8565C15.9424 33.8156 15.6523 34.0523 15.4635 34.4864C15.2573 34.9693 15.0023 35.4347 14.7345 35.9871L14.7431 35.9938ZM24.4954 51.6165C24.2613 51.2174 24.073 50.8128 23.8129 50.4556C23.1538 49.556 22.4727 48.6668 21.7781 47.7947C20.3262 45.9804 18.8473 44.2004 17.5739 42.256C16.4827 40.6005 15.4126 38.9269 14.6628 37.0751C14.5732 36.8451 14.4547 36.6341 14.3213 36.3627C14.0012 36.6728 13.8942 37.0118 13.9373 37.3717C13.9932 37.8387 14.0432 38.322 14.1968 38.7618C14.7803 40.3927 15.5056 41.9755 16.4411 43.4323C17.09 44.4418 17.8685 45.366 18.5462 46.3566C19.0265 47.0601 19.6078 47.6351 20.2891 48.136C21.6439 49.1388 22.8669 50.2737 23.8131 51.6904C23.8976 51.8123 24.0185 51.9143 24.1508 52.046C24.2923 51.866 24.3934 51.7374 24.4945 51.6088L24.4954 51.6165ZM19.274 33.5566C19.3722 33.7934 19.4542 34.0243 19.5574 34.2372C20.0214 35.1291 20.4192 36.0522 20.7126 37.0111C21.1348 38.3973 21.5426 39.7929 21.9265 41.1837C22.6004 43.6347 23.4908 46.0132 24.5509 48.3171C24.7192 48.6852 24.924 49.0335 25.1456 49.4574C25.2536 48.7378 25.2189 48.2527 25.0384 47.653C24.9236 47.2784 24.8022 46.9124 24.7018 46.5284C24.1378 44.2817 23.567 42.0435 23.026 39.794C22.5758 37.9142 21.8429 36.1381 20.9326 34.4376C20.5424 33.7077 20.2439 33.5493 19.2722 33.5413L19.274 33.5566ZM9.08519 40.4996C9.28387 40.7321 9.46815 40.9741 9.68031 41.1895C10.7953 42.3296 11.9718 43.4003 13.2513 44.3577C15.0424 45.6965 16.8326 47.0276 18.6034 48.3922C20.3391 49.7221 21.9911 51.1319 23.32 52.891C23.3656 52.9477 23.4535 52.9682 23.6452 53.0773C23.471 52.7254 23.3584 52.4981 23.2448 52.2632C23.3689 52.326 23.4411 52.4105 23.5133 52.4951C23.6027 52.5931 23.6989 52.6826 23.7788 52.7662C24.0308 52.6661 24.0652 52.4989 23.977 52.3464C23.8577 52.1277 23.7162 51.9194 23.5528 51.7215C22.208 50.0886 20.5351 48.8288 18.8073 47.63C18.4681 47.391 18.1135 47.1539 17.8089 46.8797C17.0359 46.1956 16.3033 45.4601 15.5235 44.7846C14.319 43.7406 13.0953 42.73 11.8842 41.6945C11.6509 41.4972 11.431 41.2828 11.191 41.0941C10.6004 40.6367 9.91756 40.4466 9.08702 40.515L9.08519 40.4996Z" fill="#F1EDE4"/>
<path d="M69.9343 46.8845C69.8993 46.9819 69.8901 47.0995 69.8218 47.1775C68.6135 48.6967 67.2088 49.9366 65.3848 51.048C65.87 50.6249 66.3304 50.1893 66.8346 49.795C67.744 49.0882 68.5564 48.2842 69.3345 47.4533C69.5201 47.2525 69.7401 47.0786 69.9429 46.8912L69.9275 46.8931L69.9343 46.8845Z" fill="#F1EDE4"/>
<path d="M68.2095 35.9158C67.9942 36.128 67.7397 36.1429 67.492 36.1493C67.2672 36.1529 67.0618 35.9289 67.1127 35.7054C67.1743 35.4417 67.2589 35.1753 67.3769 34.9282C67.489 34.6974 67.7665 34.6797 67.9281 34.8623C68.1905 35.1726 68.3101 35.5232 68.2086 35.9082L68.2095 35.9158Z" fill="#F1EDE4"/>
<path d="M59.88 54.169C59.6175 54.247 59.3587 54.3557 59.0849 54.404C58.2874 54.5538 57.4948 54.6797 56.6955 54.8142C56.5654 54.8298 56.4257 54.831 56.2707 54.834C56.2999 54.7529 56.306 54.6745 56.329 54.6717C57.3917 54.4669 58.4621 54.2611 59.5257 54.0639C59.6473 54.0416 59.8071 54.0147 59.8751 54.1929L59.8723 54.1699L59.88 54.169Z" fill="#F1EDE4"/>
<path d="M74.0551 40.6291C73.6557 41.834 72.9571 43.0049 72.1668 43.7984C72.0643 43.6553 72.1758 43.5488 72.2279 43.4649C72.8066 42.5259 73.394 41.5935 73.9804 40.6536C73.9939 40.6364 74.0254 40.6404 74.0475 40.63L74.0551 40.6291Z" fill="#F1EDE4"/>
<path d="M28.6014 51.1407C28.8771 50.7194 29.2391 50.6294 29.5971 50.5711C30.4127 50.4424 31.2383 50.3979 32.0688 50.5237C32.0188 50.7549 31.8837 50.7944 31.7441 50.7956C31.4954 50.7943 31.2422 50.7547 30.9917 50.7381C30.2001 50.6775 29.4363 50.7845 28.6014 51.1407Z" fill="#F1EDE4"/>
<path d="M38.1842 51.5311C38.2994 51.6494 38.4252 51.7275 38.4849 51.8368C38.6042 52.0555 38.7205 52.3134 38.5223 52.5391C38.33 52.7485 38.0596 52.6954 37.818 52.6234C37.6489 52.5737 37.5571 52.3905 37.6068 52.2215C37.6905 51.9475 37.8332 51.7129 38.1833 51.5235L38.1842 51.5311Z" fill="#F1EDE4"/>
<path d="M62.5323 41.1C62.6059 40.7417 62.6756 40.415 62.7394 40.1045C63.0432 39.9827 63.2416 40.0832 63.3876 40.3297C63.5336 40.5763 63.5017 40.8286 63.3485 41.0411C63.1549 41.305 62.8832 41.3065 62.5256 41.1086L62.5323 41.1Z" fill="#F1EDE4"/>
<path d="M39.5025 54.1071C39.66 53.9951 39.7274 53.9094 39.7819 53.9106C40.1049 53.9496 40.4289 53.9962 40.7403 54.0677C40.8206 54.0892 40.8907 54.2206 40.9323 54.3088C41.0428 54.5829 40.8761 54.8125 40.5855 54.7852C40.4755 54.775 40.357 54.7581 40.2722 54.6984C40.0349 54.5327 39.8026 54.343 39.5016 54.0995L39.5025 54.1071Z" fill="#F1EDE4"/>
<path d="M67.7381 20.9453C68.0282 20.5145 68.4517 20.5492 68.8612 20.5313C69.7575 20.4939 70.1559 20.5782 70.7729 20.9315C70.3638 20.8873 70.0474 20.8397 69.7271 20.8237C69.3915 20.8095 69.0595 20.8259 68.7285 20.85C68.3974 20.8741 68.0682 20.9135 67.7457 20.9443L67.7381 20.9453Z" fill="#F1EDE4"/>
<path d="M73.2498 28.7116C73.2512 28.2688 73.2512 28.2688 73.5137 27.8025C73.6445 27.8567 73.804 27.892 73.9164 27.9873C74.082 28.1383 74.1996 28.3417 74.1581 28.5796C74.1434 28.6512 74.0846 28.7437 74.0175 28.7673C73.752 28.8845 73.4895 28.9625 73.2489 28.704L73.2498 28.7116Z" fill="#F1EDE4"/>
<path d="M34.4683 54.8739C34.8046 54.8957 34.9346 55.0741 35.0569 55.2535C35.1793 55.4328 35.0678 55.7333 34.8487 55.7828C34.6975 55.8164 34.5274 55.8212 34.368 55.786C34.1617 55.7486 34.0672 55.5426 34.1447 55.3471C34.1747 55.2737 34.2124 55.1994 34.2586 55.1317C34.3183 55.047 34.3933 54.9604 34.4674 54.8662L34.4683 54.8739Z" fill="#F1EDE4"/>
<path d="M30.8443 54.5688C31.2345 54.5842 31.4586 54.705 31.5822 55.0241C31.4162 55.3235 31.1913 55.5213 30.8128 55.4734C30.6006 55.4522 30.4524 55.2525 30.5385 55.0636C30.6188 54.8909 30.7334 54.7452 30.8434 54.5611L30.8443 54.5688Z" fill="#F1EDE4"/>
<path d="M60.8418 24.1241C60.8418 24.1241 60.8268 24.0637 60.8327 24.0475C61.2989 23.4015 61.8307 22.8486 62.6932 22.7221C62.0661 23.1932 61.4459 23.6557 60.8188 24.1268L60.8418 24.1241Z" fill="#F1EDE4"/>
<path d="M50.1232 36.4345C50.0947 36.3913 50.027 36.345 50.0387 36.3126C50.2447 35.5036 50.6253 34.7901 51.2805 34.2302C50.895 34.9675 50.5019 35.7058 50.1164 36.4431L50.1232 36.4345Z" fill="#F1EDE4"/>
<path d="M65.6809 37.1042C65.5479 36.9649 65.6094 36.7015 65.813 36.5219C65.9397 36.4136 66.1279 36.4299 66.2591 36.5539C66.4616 36.7547 66.5081 37.0129 66.3593 37.1316C66.1539 37.2959 65.8492 37.278 65.68 37.0965L65.6809 37.1042Z" fill="#F1EDE4"/>
<path d="M62.9378 37.4165C62.8288 37.414 62.6547 37.4503 62.5222 37.3808C62.4479 37.3432 62.4623 37.1397 62.4391 37.0106C62.4364 36.9876 62.448 36.9552 62.4606 36.9304C62.5187 36.7682 62.5818 36.5822 62.7795 36.6129C62.8903 36.6306 63.0273 36.7384 63.087 36.8477C63.1931 37.0212 63.1211 37.2626 62.9378 37.4165Z" fill="#F1EDE4"/>
<path d="M42.2903 45.1532C42.8245 44.6854 43.3664 44.2167 43.9006 43.7489C43.8935 44.0138 43.7492 44.1709 43.5715 44.3086C43.3593 44.4816 43.1479 44.6622 42.928 44.8361C42.7359 44.9833 42.5276 45.1248 42.327 45.2653C42.3148 45.2279 42.2949 45.1914 42.2826 45.1541L42.2903 45.1532Z" fill="#F1EDE4"/>
<path d="M66.8918 22.1803C67.5956 21.832 68.3313 21.6197 69.2797 21.6926C69.0754 21.8025 68.9985 21.8738 68.9075 21.8924C68.3397 22.0148 67.7701 22.1218 67.1928 22.2297C67.1009 22.2407 67.0017 22.1904 66.9062 22.1708L66.908 22.1861L66.8918 22.1803Z" fill="#F1EDE4"/>
<path d="M31.9221 58.3225C32.6687 58.202 33.4129 58.1906 34.164 58.3026C33.4189 58.5005 32.6717 58.5512 31.9159 58.4009L31.9297 58.3216L31.9221 58.3225Z" fill="#F1EDE4"/>
<path d="M23.8111 54.2689C24.2563 53.6409 24.9968 53.4047 25.6655 52.8277C25.5993 53.0531 25.595 53.1468 25.5536 53.1905C25.4268 53.2989 25.3009 53.4149 25.1456 53.4801C24.8139 53.6285 24.507 53.7895 24.2531 54.0684C24.1569 54.1731 23.9578 54.197 23.8093 54.2536L23.812 54.2766L23.8111 54.2689Z" fill="#F1EDE4"/>
<path d="M45.9361 57.1267C46.5609 56.8966 47.1903 56.7048 47.875 56.716C47.2557 56.9921 46.6346 57.2528 45.9318 57.2204C45.9281 57.1898 45.9321 57.1583 45.937 57.1344L45.9361 57.1267Z" fill="#F1EDE4"/>
<path d="M59.3693 24.6025C59.3485 24.5584 59.2943 24.495 59.306 24.4626C59.5257 23.9625 59.973 23.4819 60.5754 23.1302C60.3137 23.7983 59.6705 24.0695 59.354 24.6044L59.3693 24.6025Z" fill="#F1EDE4"/>
<path d="M54.1282 30.9689C54.1269 31.0234 54.1437 31.0991 54.1082 31.1266C53.6398 31.6254 53.1913 32.1605 52.5166 32.4277C52.7895 32.1776 53.0548 31.9284 53.3277 31.6782C53.5939 31.4367 53.8687 31.2019 54.1435 30.9671L54.1282 30.9689Z" fill="#F1EDE4"/>
<path d="M42.7886 45.684C43.1837 45.2873 43.4647 44.7799 44.1052 44.4858C43.7072 45.0538 43.3558 45.4919 42.7886 45.684Z" fill="#F1EDE4"/>
<path d="M51.107 36.4796C51.3598 35.8668 51.7335 35.3562 52.3311 35.0284C52.0106 35.5948 51.6026 36.0785 51.0831 36.4746L51.106 36.4719L51.107 36.4796Z" fill="#F1EDE4"/>
<path d="M58.1698 53.5735C57.5873 53.7675 57.0096 53.9376 56.3595 53.8912C56.463 53.8477 56.5571 53.7899 56.6624 53.7617C57.0704 53.6663 57.4697 53.5641 57.8804 53.4917C57.9646 53.4816 58.0666 53.5548 58.1554 53.583L58.1689 53.5659L58.1698 53.5735Z" fill="#F1EDE4"/>
<path d="M54.4889 30.5453C54.4889 30.5453 54.4663 30.4859 54.4789 30.4611C54.7415 29.9948 55.2561 29.4284 55.7419 29.0752C55.4238 29.7267 54.9959 30.174 54.4718 30.5319L54.4871 30.53L54.4889 30.5453Z" fill="#F1EDE4"/>
<path d="M24.9059 57.6402C25.0054 57.6283 25.1108 57.6001 25.2045 57.6044C25.6442 57.645 26.0929 57.6301 26.5188 57.75C26.5255 57.9356 26.4192 57.9561 26.3093 57.9459C25.838 57.9014 25.3735 57.8483 24.9022 57.8037C24.9034 57.7492 24.9037 57.687 24.905 57.6325L24.9059 57.6402Z" fill="#F1EDE4"/>
<path d="M35.4822 50.4337C35.0865 50.7606 34.6096 50.8643 34.1224 50.9459C33.9999 50.9605 33.8673 50.891 33.7393 50.8597L33.7411 50.875C34.2652 50.7113 34.8045 50.5458 35.3447 50.388C35.383 50.3834 35.4354 50.4315 35.4773 50.4575L35.4755 50.4422L35.4822 50.4337Z" fill="#F1EDE4"/>
<path d="M76.9284 25.0564C76.7527 24.627 76.5771 24.1976 76.3938 23.7691C76.9011 24.2443 77.0011 24.4963 76.9045 25.0515L76.9207 25.0573L76.9284 25.0564Z" fill="#F1EDE4"/>
<path d="M64.135 36.7764C63.9991 36.614 64.0509 36.3981 64.1998 36.2793C64.3276 36.1785 64.4623 36.2012 64.5756 36.3042C64.7061 36.4206 64.6962 36.6626 64.5409 36.7278C64.4076 36.7826 64.2422 36.7636 64.135 36.7764Z" fill="#F1EDE4"/>
<path d="M52.235 35.8476C52.1455 36.332 51.7681 36.6179 51.4482 37.0601C51.687 36.3947 51.7593 36.2851 52.258 35.8448L52.2427 35.8467L52.235 35.8476Z" fill="#F1EDE4"/>
<path d="M75.5171 23.5174C75.8029 23.7004 76.01 23.9395 75.9875 24.4C75.7425 24.1034 75.6015 23.8332 75.5171 23.5174Z" fill="#F1EDE4"/>
<path d="M69.9497 46.8829C70.0884 46.4861 70.3805 46.2028 70.6725 45.9196L70.6495 45.9223C70.5365 46.3394 70.3206 46.6756 69.9258 46.878L69.9411 46.8762L69.9497 46.8829Z" fill="#F1EDE4"/>
<path d="M32.3966 57.8079C32.6868 57.7033 32.9037 57.7007 33.1267 57.8136C32.9517 57.907 32.7083 57.9051 32.3966 57.8079Z" fill="#F1EDE4"/>
<path d="M31.9082 58.4022C31.6995 58.4737 31.4987 58.4822 31.2567 58.3405C31.5172 58.2472 31.717 58.2311 31.922 58.3229L31.9082 58.4022Z" fill="#F1EDE4"/>
<path d="M40.5519 46.7901C40.5385 46.6134 40.6183 46.5031 40.9002 46.4616C40.739 46.6049 40.6412 46.6941 40.5366 46.7919L40.5519 46.7901Z" fill="#F1EDE4"/>
<path d="M40.536 46.7851C40.5558 47.0154 40.4282 47.116 40.0918 47.1562C40.2971 46.9921 40.4246 46.8915 40.5522 46.7909L40.5369 46.7928L40.536 46.7851Z" fill="#F1EDE4"/>
<path d="M76.372 35.141C76.372 35.141 76.3294 35.1074 76.3285 35.0998C76.3383 35.0523 76.3556 35.0039 76.3654 34.9564C76.3824 34.9698 76.4165 34.9967 76.4098 35.0052C76.4001 35.0527 76.3818 35.0935 76.3644 35.1419L76.372 35.141Z" fill="#F1EDE4"/>
<path d="M41.7979 58.104C41.8667 58.0958 41.9431 58.0867 42.0137 58.0937C42.0366 58.091 42.0623 58.1112 42.0794 58.1246C42.0525 58.1588 42.0369 58.2227 42.0063 58.2264C41.9299 58.2355 41.8574 58.2132 41.7792 58.2071C41.7832 58.1756 41.7871 58.1441 41.7902 58.105L41.7979 58.104Z" fill="#F1EDE4"/>
<path d="M39.8202 47.6232L39.7612 47.6457L39.7871 47.6041L39.8202 47.6232Z" fill="#F1EDE4"/>
<path d="M23.7717 57.442C23.7551 57.4984 23.7539 57.553 23.7453 57.5463C23.6667 57.5401 23.595 57.5253 23.5155 57.5115C23.5204 57.4876 23.5303 57.4397 23.5379 57.4388C23.607 57.4306 23.6864 57.4444 23.7717 57.442Z" fill="#F1EDE4"/>
<path d="M54.4718 30.5412C54.4858 30.7871 54.3033 30.8786 54.1284 30.9692L54.1437 30.9674C54.1297 30.7214 54.3037 30.6232 54.4871 30.5393L54.4718 30.5412Z" fill="#F1EDE4"/>
<path d="M60.8254 24.1186C60.7878 24.1928 60.7569 24.2585 60.7193 24.3327C60.7059 24.3498 60.6763 24.3611 60.6543 24.3715C60.6497 24.3333 60.6347 24.2731 60.6482 24.256C60.7038 24.2029 60.7765 24.1632 60.8492 24.1235L60.834 24.1253L60.8254 24.1186Z" fill="#F1EDE4"/>
<path d="M59.3456 24.6063C59.215 24.746 59.0834 24.8781 58.9604 25.0169L58.9834 25.0142C58.9856 24.7735 59.1685 24.6818 59.3609 24.6045L59.3456 24.6063Z" fill="#F1EDE4"/>
<path d="M70.9721 45.5028C70.9842 45.7339 70.8253 45.8305 70.6577 45.9203C70.6577 45.9203 70.6806 45.9175 70.673 45.9185C70.7797 45.7739 70.8874 45.637 70.9941 45.4924L70.9712 45.4952L70.9721 45.5028Z" fill="#F1EDE4"/>
<path d="M33.5516 57.8574C33.5516 57.8574 33.5966 57.852 33.6126 57.8577C33.6068 57.8736 33.6029 57.9045 33.5888 57.9138C33.5738 57.9156 33.5513 57.9183 33.5279 57.9135C33.5336 57.8976 33.5459 57.8733 33.5516 57.8574Z" fill="#F1EDE4"/>
<path d="M76.9118 25.0492C76.9118 25.0492 76.9753 25.12 77.0099 25.1473C76.9926 25.1337 76.9762 25.1278 76.9666 25.1132C76.9561 25.091 76.9456 25.0687 76.935 25.0464L76.9109 25.0414L76.9118 25.0492Z" fill="#F1EDE4"/>
<path d="M59.8731 54.1853C59.9087 54.1577 59.952 54.1292 59.9876 54.1016C59.951 54.1215 59.9069 54.1423 59.8713 54.1699L59.874 54.1929L59.8731 54.1853Z" fill="#F1EDE4"/>
<path d="M70.9957 45.4997L71.0423 45.3697C71.0162 45.4117 70.9978 45.4528 70.9717 45.4948L70.9871 45.493L70.9957 45.4997Z" fill="#F1EDE4"/>
<path d="M35.4766 50.4499C35.5217 50.4367 35.5659 50.4158 35.6034 50.4036C35.5889 50.4131 35.5754 50.4303 35.5524 50.433C35.5294 50.4358 35.4977 50.4318 35.4738 50.4269L35.4766 50.4499Z" fill="#F1EDE4"/>
<path d="M33.7389 50.8597C33.6912 50.8499 33.6444 50.8477 33.5966 50.8379C33.5966 50.8379 33.592 50.7997 33.5893 50.7767C33.6398 50.8095 33.6826 50.8431 33.7331 50.8759L33.7389 50.8597Z" fill="#F1EDE4"/>
<path d="M52.2579 35.8449C52.2579 35.8449 52.2761 35.8041 52.2886 35.7795C52.2761 35.8041 52.2551 35.8221 52.2427 35.8467L52.2579 35.8449Z" fill="#F1EDE4"/>
<path d="M51.0829 36.4751C51.0884 36.521 51.1186 36.5793 51.0993 36.6127C51.0868 36.6374 51.0171 36.638 50.9722 36.6511C50.9771 36.6273 50.981 36.5958 50.9945 36.5787C51.0291 36.5436 51.0712 36.5075 51.1058 36.4724L51.0829 36.4751Z" fill="#F1EDE4"/>
<path d="M50.1157 36.4429C50.0717 36.4637 50.0343 36.476 49.9902 36.4968C50.0343 36.476 50.0784 36.4552 50.1225 36.4344L50.1157 36.4429Z" fill="#F1EDE4"/>
<path d="M27.0026 51.9306C27.0183 51.9976 27.0084 51.9146 27.0177 51.9288L27.0026 51.9306Z" fill="#F1EDE4"/>
<path d="M27.0254 51.9272C27.0254 51.9272 27.0813 51.8738 27.1015 51.8481C27.0736 51.8748 27.038 51.9023 27.0024 51.9299L27.0178 51.9281L27.0254 51.9272Z" fill="#F1EDE4"/>
<path d="M23.8164 54.245C23.7723 54.2658 23.7291 54.2943 23.6851 54.3151C23.7301 54.3019 23.7741 54.2811 23.8115 54.2689L23.8087 54.2459L23.8164 54.245Z" fill="#F1EDE4"/>
<path d="M58.1556 53.5828C58.1556 53.5828 58.2259 53.52 58.2615 53.4924C58.2471 53.5019 58.2326 53.5114 58.2182 53.5209C58.2038 53.5304 58.1826 53.5485 58.1614 53.5666L58.1479 53.5837L58.1556 53.5828Z" fill="#F1EDE4"/>
<path d="M66.8969 22.1647C66.8969 22.1647 66.8619 22.1919 66.8477 22.2012C66.8628 22.1994 66.877 22.1901 66.8911 22.1807L66.8969 22.1647Z" fill="#F1EDE4"/>
<path d="M58.9608 25.0172C58.9663 25.0631 58.965 25.1175 58.9629 25.1644C58.9727 25.1166 58.9749 25.0698 58.9847 25.0221L58.9617 25.0248L58.9608 25.0172Z" fill="#F1EDE4"/>
<path d="M49.3857 56.6831C49.3857 56.6831 49.4197 56.7099 49.4367 56.7232C49.4425 56.7071 49.4559 56.6901 49.4626 56.6816C49.4398 56.6843 49.4246 56.6862 49.4018 56.6889L49.3866 56.6907L49.3857 56.6831Z" fill="#F1EDE4"/>
<path d="M49.4009 56.6813C49.3133 56.7226 49.3571 56.702 49.4009 56.6813C49.3067 56.7311 49.3428 56.7114 49.3781 56.684L49.3933 56.6822L49.4009 56.6813Z" fill="#F1EDE4"/>
<path d="M45.8741 57.5771C45.8741 57.5771 45.9149 57.5954 45.9319 57.6088C45.9149 57.5954 45.8978 57.582 45.8808 57.5686L45.8675 57.5856L45.8741 57.5771Z" fill="#F1EDE4"/>
<path d="M76.1459 35.6491C76.1459 35.6491 76.1909 35.6359 76.2054 35.6264C76.2014 35.658 76.1897 35.6905 76.178 35.723C76.178 35.723 76.1379 35.7123 76.1139 35.7073C76.1265 35.6825 76.1324 35.6663 76.1449 35.6414L76.1459 35.6491Z" fill="#F1EDE4"/>
<path d="M45.8874 57.5599L45.7646 57.6367C45.7646 57.6367 45.8011 57.6168 45.8155 57.6073C45.8375 57.5969 45.8595 57.5865 45.8816 57.5761L45.895 57.559L45.8874 57.5599Z" fill="#F1EDE4"/>
<path d="M45.9242 57.2138C45.8714 57.2279 45.8205 57.2573 45.7668 57.2638C45.7362 57.2674 45.7 57.2251 45.6656 57.1981C45.6656 57.1981 45.6899 57.1407 45.7052 57.1389C45.7819 57.1297 45.8518 57.1291 45.9295 57.1276C45.9331 57.1583 45.9215 57.1908 45.9242 57.2138Z" fill="#F1EDE4"/>
<path d="M8.3551 42.9015C8.36976 43.024 8.34981 43.1817 8.20866 43.1054C7.63639 42.8012 7.16705 42.3836 6.76943 41.7866C7.13477 41.7895 7.28352 42.059 7.52571 42.2009C7.51687 42.0622 7.51262 41.9617 7.50809 41.7293C7.84237 42.1863 8.3522 42.3583 8.34928 42.9178C8.30183 42.8458 8.24673 42.7747 8.16316 42.6605C8.16559 42.7456 8.15394 42.7781 8.16251 42.7848C8.2216 42.8243 8.28835 42.8629 8.34744 42.9024L8.3551 42.9015Z" fill="#F1EDE4"/>
<path d="M6.16669 46.6735C6.06823 46.6308 5.96211 46.5891 5.86365 46.5464C5.87624 46.5215 5.88882 46.4967 5.90141 46.4719C5.98819 46.547 6.08173 46.6136 6.16852 46.6888L6.16669 46.6735Z" fill="#F1EDE4"/>
<path d="M6.58147 46.9657C6.37238 46.9675 6.25564 46.8342 6.15909 46.6752L6.16092 46.6905C6.30457 46.7896 6.4473 46.881 6.59094 46.9801L6.58911 46.9648L6.58147 46.9657Z" fill="#F1EDE4"/>
<path d="M6.59045 46.98C6.59045 46.98 6.58962 46.973 6.58183 46.9669L6.59045 46.98Z" fill="#F1EDE4"/>
<path d="M5.94775 44.3311C5.24932 44.0109 4.94836 43.7673 4.43929 43.0827C4.96412 43.315 5.4203 43.6875 5.94775 44.3311Z" fill="#F1EDE4"/>
<path d="M15.63 35.88C15.8237 36.3305 16.0251 36.7801 16.2111 37.2316C16.2754 37.3792 16.3176 37.5373 16.3693 37.7097C16.1032 37.7571 16.0496 37.5693 15.989 37.4523C15.7448 36.969 15.5082 36.4848 15.4432 35.9412C15.5026 35.9185 15.5629 35.9036 15.6223 35.8809L15.63 35.88Z" fill="#F1EDE4"/>
<path d="M16.2808 36.7109C16.2014 36.5653 16.1219 36.4197 16.0225 36.2377C16.1881 36.3679 16.2688 36.5237 16.2646 36.7051L16.2799 36.7033L16.2808 36.7109Z" fill="#F1EDE4"/>
<path d="M16.2648 36.7045L16.4331 36.9411C16.4331 36.9411 16.3813 36.9628 16.3592 36.9732C16.3329 36.8831 16.3151 36.7996 16.2887 36.7094L16.2657 36.7122L16.2648 36.7045Z" fill="#F1EDE4"/>
<path d="M20.4737 37.871C20.3453 38.0961 20.5158 38.2232 20.6279 38.3806C20.5522 38.5916 20.6853 38.731 20.7897 38.8894C20.7462 38.98 20.695 39.0715 20.6255 39.2041C20.4452 38.7364 20.2782 38.3138 20.112 37.8988L20.1071 37.9227C20.1325 37.8109 20.158 37.6991 20.1825 37.5797C20.2891 37.6912 20.3775 37.7816 20.4746 37.8787L20.4737 37.871Z" fill="#F1EDE4"/>
<path d="M17.6439 34.5362C18.0038 35.2076 18.1458 35.6798 18.178 36.4681C17.9045 35.7398 17.5457 35.2081 17.6601 34.542L17.6448 34.5439L17.6439 34.5362Z" fill="#F1EDE4"/>
<path d="M18.1281 34.6256C18.3785 35.0305 18.5685 35.4504 18.5947 35.9288C18.3376 35.5325 18.1102 35.1248 18.1434 34.6238L18.1205 34.6265L18.1281 34.6256Z" fill="#F1EDE4"/>
<path d="M18.8759 35.0948C18.9166 35.1755 18.9642 35.2476 19.0049 35.3283C18.9666 35.3328 18.9368 35.3442 18.8994 35.3564C18.897 35.2712 18.8946 35.1859 18.8921 35.1006L18.8691 35.1034L18.8759 35.0948Z" fill="#F1EDE4"/>
<path d="M18.8993 35.1002L18.6765 34.7935C18.9226 34.8416 18.9507 34.9468 18.8754 35.0953L18.8983 35.0926L18.8993 35.1002Z" fill="#F1EDE4"/>
<path d="M17.6668 34.5334C17.6202 34.469 17.5745 34.4122 17.5279 34.3478C17.5175 34.3257 17.5215 34.2941 17.5187 34.2711C17.5589 34.2819 17.6374 34.288 17.6402 34.311C17.6493 34.3877 17.6423 34.4586 17.6438 34.5362L17.6591 34.5343L17.6668 34.5334Z" fill="#F1EDE4"/>
<path d="M20.0578 38.4176L20.0752 38.563C20.0697 38.5171 20.0719 38.4703 20.0817 38.4225L20.0587 38.4253L20.0578 38.4176Z" fill="#F1EDE4"/>
<path d="M20.0814 38.4226C19.9979 38.3085 19.8781 38.2143 19.9745 38.0477L19.9515 38.0505C19.9891 38.17 20.019 38.2905 20.0575 38.4177L20.0814 38.4226Z" fill="#F1EDE4"/>
<path d="M19.9745 38.047C19.9447 37.927 20.0388 37.9389 20.1064 37.9231L20.1112 37.8994C20.0549 37.9447 20.0071 37.9968 19.9507 38.0421L19.9745 38.047Z" fill="#F1EDE4"/>
<path d="M18.1514 34.6231C18.1382 34.578 18.1251 34.5329 18.1156 34.5185C18.1174 34.5339 18.122 34.5722 18.1275 34.6182L18.1505 34.6154L18.1514 34.6231Z" fill="#F1EDE4"/>
<path d="M16.4407 41.6773C16.033 41.1902 15.7366 40.7908 15.542 40.3326C16.1096 40.7928 16.2511 41.0011 16.4407 41.6773Z" fill="#F1EDE4"/>
<path d="M15.6545 41.275C15.9182 41.4685 16.1473 41.6971 16.2108 42.1629C15.8951 41.8592 15.7177 41.6089 15.6545 41.275Z" fill="#F1EDE4"/>
<path d="M23.4053 50.7454C23.3682 50.6953 23.3501 50.6741 23.3397 50.652C23.3397 50.652 23.3532 50.6348 23.3676 50.6253C23.3713 50.656 23.3903 50.6849 23.4063 50.753L23.4053 50.7454Z" fill="#F1EDE4"/>
<path d="M16.8698 41.89L16.8269 41.9182L16.8121 41.8583L16.8698 41.89Z" fill="#F1EDE4"/>
<path d="M15.1661 39.594C15.1661 39.594 15.2032 39.5818 15.2117 39.5885C15.2212 39.6028 15.2239 39.6256 15.2342 39.6475C15.219 39.6493 15.1895 39.6605 15.1886 39.6529C15.1792 39.6387 15.1765 39.6159 15.1661 39.594Z" fill="#F1EDE4"/>
<path d="M20.6461 35.6139C20.6217 35.5393 20.5963 35.457 20.5795 35.3815C20.5768 35.3586 20.5961 35.3253 20.6086 35.3005C20.6266 35.3216 20.6532 35.3494 20.6483 35.3733C20.6422 35.4516 20.6361 35.5298 20.6223 35.609L20.6385 35.6148L20.6461 35.6139Z" fill="#F1EDE4"/>
<path d="M20.9408 36.2616C20.8454 36.048 20.749 35.8267 20.646 35.614L20.6221 35.6091C20.7845 35.7992 21.0495 35.9382 20.9178 36.2643L20.9408 36.2616Z" fill="#F1EDE4"/>
<path d="M20.9185 36.2651C20.9726 36.3284 21.0334 36.3832 21.0731 36.4559C21.0835 36.478 21.0431 36.5293 21.0239 36.5626C21.0058 36.5415 20.9734 36.5299 20.9707 36.507C20.9615 36.4305 20.9515 36.3465 20.9423 36.27L20.9194 36.2728L20.9185 36.2651Z" fill="#F1EDE4"/>
<path d="M11.878 42.682C11.9246 42.6841 11.9789 42.6854 12.0264 42.6951C12.0493 42.6924 12.0672 42.7134 12.0919 42.7259C12.0614 42.7296 12.031 42.7332 12.0157 42.735C11.9673 42.7177 11.9332 42.6908 11.8838 42.6658L11.8866 42.6887L11.878 42.682Z" fill="#F1EDE4"/>
<path d="M11.8765 42.6663C11.7992 42.6055 11.7143 42.5457 11.6103 42.457C11.8183 42.4399 11.8069 42.6046 11.8784 42.6816L11.8765 42.6663Z" fill="#F1EDE4"/>
<path d="M23.6688 38.8707L23.4441 38.2917C23.5631 38.4639 23.6301 38.6553 23.6449 38.8658L23.6679 38.863L23.6688 38.8707Z" fill="#F1EDE4"/>
<path d="M23.7621 39.2634C23.7621 39.2634 23.7504 39.2958 23.7446 39.312C23.7581 39.2949 23.7716 39.2778 23.7859 39.2683L23.763 39.271L23.7621 39.2634Z" fill="#F1EDE4"/>
<path d="M23.7858 39.2682C23.6949 39.1553 23.5812 39.0451 23.6688 38.8721L23.6459 38.8749C23.6843 39.0018 23.716 39.1373 23.7544 39.2643L23.7782 39.2691L23.7858 39.2682Z" fill="#F1EDE4"/>
</g>
<defs>
<clipPath id="clip0_216_112348">
<rect width="80" height="80" fill="white" transform="translate(0.5 0.757812)"/>
</clipPath>
</defs>
</svg>
