<svg width="81" height="81" viewBox="0 0 81 81" fill="none" xmlns="http://www.w3.org/2000/svg">
<path d="M65.0198 26.7094C65.0157 27.2669 64.8886 28.1933 64.2041 28.9639C64.0893 29.091 64.0811 29.3821 64.1303 29.5706C64.3147 30.3003 64.4869 31.0382 64.7657 31.7309C65.1223 32.6082 65.5076 33.4854 66.0118 34.2806C66.68 35.3342 67.1514 36.4122 67.135 37.6789C67.1268 38.302 67.3277 38.7775 67.8606 39.1956C68.5738 39.7572 68.6681 40.3926 68.2541 41.2083C68.0778 41.5568 68.045 41.8642 68.1024 42.2373C68.2213 42.9792 68.1106 43.6884 67.5408 44.2377C67.2416 44.5246 67.3277 44.7009 67.5859 44.951C68.1434 45.4879 68.2213 46.1684 67.9671 46.8612C67.6843 47.6277 67.3523 48.3779 66.9956 49.1158C66.762 49.5954 66.6595 49.9643 67.1186 50.4193C67.6679 50.9686 67.7417 51.727 67.4998 52.4443C67.3851 52.7887 67.1309 53.2273 66.8276 53.3462C66.2086 53.5962 66.1635 53.9939 66.1348 54.5595C66.0897 55.4327 65.6716 56.1501 64.782 56.4165C64.4008 56.5313 64.2573 56.683 64.2287 57.0724C64.159 58.0685 63.5974 58.6875 62.6464 58.9662C62.466 59.0195 62.2692 59.0933 62.1462 59.2245C61.4289 59.9705 60.5639 60.1099 59.617 59.8599C59.1907 59.7492 58.8915 59.7246 58.6701 60.2124C58.4815 60.6346 58.0593 60.8027 57.6043 60.7863C57.2149 60.774 56.7763 60.815 56.4442 60.6551C55.8416 60.36 55.485 60.4256 55.0915 60.9994C54.7881 61.4422 54.2265 61.6184 53.6772 61.475C53.2509 61.3643 53.0582 61.434 52.8492 61.8562C52.1892 63.1925 51.4227 63.5041 49.8813 63.213C49.7174 63.1802 49.4755 63.2171 49.3648 63.3237C48.836 63.8279 48.2703 63.8566 47.6473 63.5492C47.3767 63.4139 47.2127 63.5287 47.098 63.7664C46.4462 65.111 45.2 65.4594 43.8924 65.4635C42.8266 65.4635 41.9821 65.6152 41.2689 66.5088C40.8097 67.0786 40.0555 67.2426 39.2807 67.013C39.1127 66.9638 38.8052 67.0212 38.7068 67.1442C37.9034 68.1526 36.8376 68.3043 35.6857 68.0624C35.1651 67.9517 34.8495 68.0706 34.4887 68.4355C33.8615 69.0667 32.9515 69.3783 32.2464 68.8987C31.5045 68.3986 30.7584 68.087 29.9304 67.8657C29.7295 67.8124 29.4959 67.632 29.4016 67.4475C28.7662 66.1727 27.5528 66.185 26.4132 66.1276C24.8924 66.0538 23.5643 65.7095 22.7526 64.2665C22.6706 64.119 22.3837 64.0083 22.1992 64.0165C21.695 64.037 21.2482 63.9755 20.7973 63.6926C20.5636 63.5492 20.1742 63.5697 19.875 63.623C18.0508 63.9591 16.739 62.7744 16.8907 60.897C16.9645 59.9951 16.7185 59.7041 15.7921 59.5811C15.7265 59.5729 15.6609 59.5729 15.5954 59.5606C13.9885 59.2983 13.3326 58.171 14.0458 56.6912C14.3533 56.0476 14.4599 55.5147 14.1852 54.8547C13.9475 54.2849 14.0705 53.6823 14.3123 53.133C14.5009 52.7067 14.5296 52.3542 14.1852 51.9647C13.7548 51.481 13.7548 50.862 13.9598 50.2923C14.095 49.9151 14.0499 49.7184 13.7384 49.4683C12.7054 48.6321 12.3078 47.5622 12.5865 46.234C12.6849 45.7585 12.6644 45.2543 12.7177 44.7665C12.7792 44.2131 12.7669 43.6269 12.9555 43.1186C13.3736 41.9831 13.4064 40.8271 13.4187 39.6383C13.4433 37.519 13.8245 35.4776 14.9682 33.6207C15.7183 32.4032 15.9069 30.9767 16.2226 29.6034C16.4029 28.8041 16.5915 28.0088 16.8169 27.2218C17.6655 24.299 19.506 22.1674 22.1131 20.663C22.6501 20.3515 23.2117 20.0727 23.7774 19.8145C25.2163 19.1586 26.5444 18.3305 27.7455 17.2893C29.254 15.9817 30.9511 15.129 32.972 14.7519C34.4231 14.4773 35.8866 13.8706 37.145 13.0876C39.3053 11.7431 41.5517 11.5381 43.9498 11.9439C44.7573 12.0792 45.5526 12.2801 46.3601 12.4276C47.8727 12.7064 49.3853 12.981 50.902 13.227C52.1482 13.432 53.296 13.8583 54.3782 14.5182C55.7473 15.3545 57.1534 16.1333 58.5471 16.9286C60.154 17.8468 61.3838 19.1012 62.2528 20.7573C62.6709 21.5607 63.2899 22.2658 63.8597 22.9791C64.8025 24.1637 65.0567 24.8319 65.0239 26.7258L65.0198 26.7094ZM61.7814 22.1469C61.7814 22.1469 61.7732 22.1346 61.7732 22.1305C61.7896 22.3478 61.8019 22.5691 61.8183 22.7864C61.6092 22.6757 61.3428 22.6142 61.1993 22.4462C60.8181 21.9993 60.5025 21.4992 60.1376 21.0401C59.9327 20.7819 59.7482 20.4703 59.2194 20.4211C59.8261 21.8928 59.5186 23.1307 58.6291 24.2621C58.2684 24.7212 58.2766 24.7335 58.7849 25.0246C60.0761 25.7624 61.1419 26.7668 62.179 27.8121C62.4414 28.0744 62.798 28.2425 63.1096 28.4515C63.2981 28.1564 63.4949 27.8612 63.6793 27.5579C63.7285 27.4759 63.7613 27.3775 63.7736 27.2792C63.9376 26.0289 64.0073 24.8032 63.1423 23.7251C62.8144 23.3193 62.5562 22.8602 62.2364 22.4462C62.1299 22.3109 61.9372 22.2412 61.7855 22.1428L61.7814 22.1469ZM62.0438 57.5848C62.7447 58.1341 62.962 58.1095 63.3842 57.4741C63.4744 57.3388 63.5892 57.1831 63.5933 57.0355C63.6056 56.3509 63.9909 56.0025 64.5648 55.7073C65.3232 55.3179 65.5814 54.6087 65.3805 53.8012C65.2548 53.2984 65.4543 52.969 65.979 52.8133C66.639 52.6165 66.9423 52.2066 66.7538 51.5835C66.6595 51.272 66.3972 50.9686 66.1348 50.7555C65.4666 50.2103 65.442 50.1488 65.8396 49.3863C66.2332 48.6321 66.6472 47.8819 66.9751 47.103C67.3974 46.1028 67.3277 45.861 66.516 45.1559C66.1717 44.8608 66.1184 44.5779 66.3684 44.2254C66.4832 44.0655 66.6021 43.9056 66.7415 43.7704C67.2088 43.3113 67.34 42.7579 67.1596 42.1471C67.0366 41.7331 67.1145 41.4092 67.3482 41.0444C67.7499 40.4254 67.7335 40.1876 67.1514 39.6957C66.598 39.2243 66.4545 38.6791 66.6472 38.0314C66.8112 37.4862 66.721 36.9943 66.4791 36.5106C66.2045 35.9531 65.9421 35.3874 65.6224 34.8586C64.8763 33.6207 64.1303 32.395 63.8884 30.9316C63.7162 29.8986 63.0563 29.2222 62.0766 28.927C61.6051 28.7877 61.2895 28.513 60.9329 28.2179C60.027 27.4677 59.1702 26.5946 58.1372 26.0822C56.0753 25.0574 53.7961 24.6761 51.521 24.3769C51.48 24.3728 51.4308 24.4507 51.3489 24.5204C51.7178 25.0369 52.4147 25.3115 52.5254 26.033C52.1523 25.8567 51.8572 25.6026 51.5333 25.3935C51.0168 25.0533 50.488 24.7294 49.9469 24.4261C49.7912 24.34 49.5739 24.3154 49.3853 24.3277C49.0164 24.3523 48.9344 24.545 49.1681 24.8319C49.4632 25.1885 49.824 25.5001 49.9387 25.9879C49.4878 25.6969 49.1148 25.3402 48.75 24.9795C48.5327 24.7663 48.3195 24.7089 48.0613 24.9221C47.7743 25.164 47.9178 25.3689 48.0941 25.5903C48.4015 25.9797 48.8237 26.3117 48.8114 26.902C48.422 26.6028 48.09 26.2543 47.7866 25.8895C47.4915 25.537 47.2414 25.4837 46.9217 25.8731C46.1469 26.8159 45.1262 27.3652 43.9825 27.7547C43.4373 27.9432 42.9208 28.2671 42.4494 28.6073C41.9124 28.9885 41.9493 29.0172 42.4125 29.4599C42.6257 29.6608 42.8184 29.8863 42.9905 30.1199C43.1996 30.4069 43.4046 30.3577 43.6587 30.1978C44.1424 29.8986 44.3105 29.4026 44.5113 28.9148C44.5851 28.7303 44.786 28.5991 44.9336 28.4433C45.036 28.6606 45.2246 28.882 45.2246 29.0992C45.2246 29.874 44.7122 30.4971 43.8965 30.6979C43.5152 30.7922 43.3062 30.9193 43.3349 31.3374C43.3472 31.4973 43.3513 31.6981 43.2652 31.817C43.1053 32.0384 42.8799 32.2105 42.6831 32.4032C42.6298 32.1736 42.5068 31.9318 42.5355 31.7104C42.6216 31.0873 42.4535 30.5339 42.142 30.0215C41.8427 29.5296 41.564 29.5214 41.2975 30.0215C41.068 30.452 40.8794 30.9111 40.736 31.3784C40.3219 32.7352 39.58 33.8748 38.4896 34.7685C37.9854 35.1825 37.4361 35.5473 36.895 35.9121C35.9481 36.5434 35.2266 37.31 34.8044 38.425C34.4764 39.294 34.2674 40.1466 34.1403 41.0608C34.0665 41.6019 34.1034 41.9134 34.6199 42.1553C34.9724 42.3192 35.3455 42.5365 35.5012 43.1801C34.9806 42.8644 34.6199 42.6554 34.2674 42.434C33.9476 42.2373 33.714 42.311 33.5459 42.6349C33.4721 42.7784 33.3942 42.9259 33.3081 43.0653C33.1032 43.3891 33.0745 43.6269 33.4885 43.8524C33.9599 44.1147 34.3821 44.4672 34.5584 45.0411C34.3002 44.9837 34.087 44.869 33.8984 44.7255C33.6648 44.5492 33.4639 44.3156 33.2098 44.1762C33.0786 44.1024 32.767 44.1024 32.7097 44.1885C32.6031 44.3402 32.5662 44.5984 32.6154 44.7829C32.6605 44.951 32.8736 45.0698 32.9884 45.2256C33.1852 45.5002 33.3614 45.7913 33.5459 46.0741C33.4803 46.1192 33.4188 46.1684 33.3532 46.2135C33.0745 45.9102 32.7998 45.6109 32.517 45.3076C32.2751 45.0493 32.0702 45.0862 31.8939 45.3855C31.5455 45.9676 31.3938 46.5906 31.4758 47.267C31.5865 48.1852 31.3118 48.9641 30.5453 49.5052C30.0452 49.8577 30.0288 50.3046 30.1927 50.8088C30.2747 51.0547 30.4305 51.2761 30.5289 51.5179C30.5822 51.6532 30.5781 51.809 30.5985 51.9565C30.4182 51.9565 30.205 52.0262 30.0657 51.9524C29.5 51.6532 29.3442 51.1244 29.4139 50.5341C29.4672 50.116 29.336 49.9766 28.9097 49.9192C28.0037 49.7921 27.1101 49.5831 26.2083 49.415C25.9951 49.374 25.7738 49.3699 25.454 49.3371C25.6918 49.8167 25.8844 50.2062 26.1222 50.6899C25.1507 50.3168 25.122 48.837 23.7364 49.0297C23.9783 49.4724 24.1833 49.8044 24.339 50.1529C24.4866 50.4767 24.7284 50.8088 24.4907 51.2761C24.339 51.1367 24.2242 51.067 24.1628 50.9645C23.9209 50.5751 23.7159 50.1611 23.4618 49.7798C23.056 49.1609 23.0232 49.1937 22.355 49.3781C21.7319 49.5503 21.0883 49.6651 20.4489 49.7553C19.8955 49.8331 19.7725 49.9766 19.9651 50.5136C20.043 50.7268 20.1619 50.9317 20.289 51.1162C20.4734 51.3867 20.703 51.6245 20.8793 51.8991C20.9572 52.018 20.9449 52.1943 20.9736 52.346C20.7973 52.346 20.5882 52.3993 20.4448 52.3255C20.1619 52.1779 19.916 51.9606 19.6495 51.7721C19.5511 51.8664 19.4527 51.9196 19.4118 52.0016C19.2355 52.3501 19.0797 52.7108 18.9034 53.0633C18.8501 53.1699 18.7518 53.2601 18.678 53.3544C18.5632 53.256 18.3664 53.1699 18.3459 53.051C18.2968 52.7764 18.2435 52.4484 18.3459 52.2066C18.5058 51.8254 18.76 51.4687 19.0264 51.1449C19.379 50.7104 19.2847 50.2021 19.2273 49.7471C19.2109 49.6118 18.6698 49.5175 18.3623 49.4519C18.1082 49.3986 17.8335 49.3617 17.5835 49.4068C16.7472 49.5503 15.911 49.7143 15.083 49.911C14.9395 49.9438 14.7591 50.1447 14.7263 50.3004C14.6115 50.8251 14.5747 51.3458 15.2059 51.6327C15.6446 51.8295 15.6118 52.1738 15.4109 52.5386C15.3289 52.6821 15.2756 52.8461 15.1649 52.9608C14.7222 53.4282 14.7427 53.9652 14.9149 54.5227C15.001 54.8014 15.0871 55.0884 15.2182 55.3507C15.4314 55.7811 15.3863 56.1378 15.0912 56.5313C14.8657 56.8346 14.6894 57.2118 14.6115 57.5807C14.4886 58.171 14.755 58.5276 15.3453 58.6506C15.7593 58.7367 16.1733 58.8105 16.4562 58.3144C16.6243 58.0193 16.8866 58.1341 16.9071 58.4374C16.944 59.0318 17.1695 59.4253 17.768 59.5975C18.1615 59.7082 18.2517 60.0033 18.0836 60.3723C18.0139 60.5198 17.9237 60.6633 17.8786 60.815C17.5466 61.9218 18.4074 62.9384 19.5429 62.84C20.1578 62.7867 20.539 62.4957 20.785 61.9136C20.8998 62.0611 20.9859 62.1226 21.0105 62.2087C21.3261 63.2458 21.3999 63.3032 22.4329 63.1638C22.5313 63.1515 22.6255 63.1147 22.7239 63.1065C23.3265 63.0491 23.4946 63.1351 23.5479 63.7582C23.5889 64.2173 23.8061 64.5043 24.1628 64.6888C24.5645 64.8978 24.9908 65.0946 25.4294 65.1889C26.3436 65.3815 26.4419 65.3036 26.7986 64.4797C27.1757 64.7871 27.5241 65.1315 27.93 65.3856C28.1923 65.5496 28.5776 65.6849 28.7826 65.279C28.9425 64.9593 29.0572 64.615 28.6104 64.3485C28.3686 64.205 28.1431 63.9755 27.9955 63.7336C27.6102 63.1105 27.7906 62.5244 28.4547 62.1759C28.4424 62.2866 28.4383 62.3768 28.4219 62.467C28.2333 63.4098 28.3522 63.6353 29.2171 63.9468C29.3073 63.9796 29.4098 63.9837 29.5041 64.0124C29.8279 64.1067 29.9099 64.3116 29.7664 64.6109C29.6844 64.7871 29.5737 64.9552 29.5164 65.1397C29.1187 66.4063 30.2132 67.673 31.484 67.3615C31.8447 67.2713 31.8775 67.4434 31.9718 67.632C32.2833 68.2674 33.177 68.2756 33.6894 67.8903C33.8697 67.755 34.0255 67.5787 34.1854 67.4147C34.7634 66.8081 34.7675 66.7835 35.5217 67.1032C36.5178 67.5254 37.4033 67.2877 38.1739 66.6359C38.4937 66.3612 38.6617 65.9062 38.9118 65.5168C38.9815 65.5824 39.0676 65.6316 39.1168 65.7054C39.5226 66.3284 39.789 66.4637 40.367 66.1194C40.7769 65.8775 41.1418 65.5168 41.441 65.1397C41.81 64.6683 42.2076 64.5576 42.7979 64.5986C43.5357 64.6519 44.2941 64.574 45.0279 64.4469C45.7575 64.3198 46.2289 63.832 46.4257 63.086C46.5159 62.7416 46.6429 62.3973 46.7946 62.0734C46.9217 61.7947 47.1554 61.807 47.348 62.0079C47.4587 62.1185 47.512 62.2866 47.6063 62.4178C48.09 63.0983 49.0369 63.0163 49.4304 62.2661C49.5083 62.1144 49.5862 61.9587 49.6846 61.7619C50.2544 62.7211 50.8529 62.8482 51.6153 62.1677C51.9515 61.8685 52.181 61.4545 52.4516 61.0855C52.636 60.8314 52.8082 60.7084 53.1812 60.7822C54.0667 60.9585 54.7799 60.6428 55.2718 59.8517C55.5916 59.3434 55.608 59.3557 56.104 59.7328C56.9853 60.4051 58.2192 60.2001 58.666 59.2614C58.7849 59.0113 58.8832 58.9908 59.0964 59.0359C59.3219 59.081 59.5473 59.1138 59.7769 59.1425C61.1952 59.3311 61.6912 59.0113 62.0684 57.5971L62.0438 57.5848ZM37.6615 26.2748C37.5959 26.2257 37.5304 26.1724 37.4607 26.1232C37.6328 25.869 37.8091 25.619 37.9813 25.3648C38.4076 24.7458 38.8421 24.1309 39.2643 23.5038C39.3955 23.3111 39.5103 23.0651 39.2274 22.9094C38.5675 22.5445 38.4978 21.9543 38.5675 21.2984C38.6371 20.6671 38.3543 20.1752 37.8296 19.9128C37.2516 19.6259 36.6285 19.3676 35.9972 19.2734C34.9642 19.1217 33.9066 19.1258 32.8613 19.0479C32.271 19.0028 31.6562 18.9987 31.1847 18.5027C32.8285 18.4043 34.46 18.3387 36.0833 18.4371C36.8089 18.4822 37.5468 18.7855 38.2231 19.093C39.1127 19.4988 39.6865 20.1916 39.5923 21.2656C39.5718 21.5197 39.5103 21.86 39.8628 21.9051C40.0842 21.9338 40.3875 21.8477 40.5556 21.696C41.7034 20.6712 43.0561 20.1629 44.5646 20.0194C44.7942 19.9989 45.0197 19.9661 45.2451 19.9169C46.3601 19.6669 47.4915 19.4537 48.5901 19.1381C49.3484 18.9208 49.455 18.5765 49.1558 17.8755C48.7664 16.9573 48.213 16.1784 47.4136 15.5472C46.2658 14.6371 44.9131 14.1329 43.6587 13.4361C42.4904 12.7884 41.3344 12.8499 40.1457 13.0466C39.4775 13.1573 38.8134 13.3992 38.1985 13.6902C36.4072 14.5428 34.5543 15.1495 32.5662 15.3258C31.6603 15.4078 30.8527 15.748 30.1681 16.3547C29.3606 17.0721 28.5202 17.7607 27.7619 18.5314C26.9215 19.3881 25.9623 20.0522 24.8842 20.5564C24.4374 20.7655 23.9988 20.9786 23.5561 21.1959C20.248 22.7987 18.1861 25.4017 17.3416 28.9762C17.1449 29.8043 16.9727 30.6405 16.7145 31.4522C16.4275 32.354 16.1856 33.3091 15.6978 34.1003C14.6156 35.8507 14.3656 37.765 14.2262 39.7408C14.1524 40.8066 14.4968 41.7167 15.0461 42.6103C16.0299 44.209 17.4072 45.4019 18.8993 46.4841C19.0346 46.5824 19.1494 46.7177 19.3503 46.9104C19.1207 46.9268 19.0182 46.9637 18.9403 46.935C17.2473 46.2996 15.7634 45.3937 14.7591 43.8278C14.5624 43.5203 14.2385 43.2949 13.9762 43.0284C13.8614 43.3891 13.681 43.7458 13.6441 44.1147C13.5703 44.8321 13.4638 45.5166 13.2383 46.2135C12.9841 46.9883 13.2752 47.7671 13.886 48.3656C14.3205 48.7878 14.837 48.9928 15.4109 48.755C16.8456 48.1647 18.2804 48.3041 19.7602 48.5665C20.412 48.6813 21.1785 48.6853 21.777 48.4435C23.265 47.845 24.6834 47.8655 26.1837 48.3451C27.0486 48.6239 27.975 48.7222 28.8769 48.8616C29.1556 48.9026 29.459 48.8288 29.7418 48.7632C29.8443 48.7386 29.9796 48.6034 29.9919 48.505C30.0042 48.4107 29.8935 48.2836 29.8115 48.2016C29.7459 48.1361 29.6352 48.1197 29.5491 48.0746C28.1021 47.3121 26.6141 46.6152 25.2204 45.7667C23.3798 44.6435 21.9738 43.1514 21.5556 40.8968C21.2933 39.4703 20.4448 38.3225 19.4363 37.3059C19.1125 36.982 18.7723 36.6746 18.4525 36.3426C17.9114 35.781 17.6327 35.1087 17.6778 34.3052C18.0016 35.4489 18.7641 36.2442 19.6864 36.9001C21.0801 37.888 21.9902 39.2038 22.4288 40.8558C22.7403 42.0364 23.4167 42.971 24.3226 43.7786C25.8024 45.0985 27.4585 46.1438 29.1843 47.0989C29.5492 47.2998 29.9345 47.4638 30.3649 47.6687C30.4059 47.4638 30.4592 47.3449 30.451 47.226C30.3731 46.1643 30.7256 45.2297 31.2954 44.3566C31.5988 43.8892 31.8857 43.4137 32.1809 42.9382C32.8285 41.897 33.2958 40.8025 33.4598 39.5687C33.6115 38.4332 33.8656 37.31 34.5584 36.3467C35.0011 35.7318 35.0011 35.6375 34.3698 35.1743C33.6484 34.6455 32.9966 34.0552 32.5334 33.2845C31.1396 30.9644 29.0613 29.7018 26.4214 29.2673C25.7492 29.1566 25.0728 28.9598 24.4456 28.6934C22.6419 27.9309 21.6868 26.1232 22.023 24.008C22.1951 24.5122 22.314 24.8729 22.437 25.2295C23.0109 26.9184 24.1259 28.0006 25.909 28.3491C26.3599 28.4351 26.8068 28.5253 27.2577 28.6155C29.3811 29.0418 31.2257 29.9806 32.6072 31.6776C33.5008 32.7721 34.4559 33.7928 35.5709 34.6701C35.9235 34.9447 36.1325 34.998 36.5014 34.7685C37.9977 33.8379 39.1537 32.6533 39.6497 30.9029C40.0309 29.5419 40.7565 28.3941 41.8919 27.521C42.761 26.8569 42.7487 26.6766 41.81 26.0904C41.728 26.0371 41.6419 25.9879 41.5558 25.9428C40.7647 25.5452 40.4449 24.877 40.4162 24.0244C40.408 23.7907 40.3588 23.5612 40.3096 23.1758C39.3258 24.2826 38.7683 25.537 37.6615 26.2748ZM50.5372 23.8522C50.734 23.8522 50.9307 23.8522 51.1275 23.8522C51.9638 23.8522 52.099 23.7415 52.181 22.9258C52.2261 22.4708 52.1974 22.0034 52.263 21.5525C52.386 20.7204 52.017 20.167 51.3407 19.7653C51.0578 19.5972 50.7627 19.4578 50.4839 19.2857C50.115 19.0561 49.783 19.0602 49.3812 19.257C48.8565 19.5152 48.3031 19.7489 47.7333 19.8759C46.6839 20.1137 45.614 20.2859 44.5482 20.4457C43.5603 20.5892 42.6298 20.8557 41.8181 21.4623C41.1951 21.9256 40.6294 22.4011 40.945 23.3193C41.0065 23.4956 40.9491 23.7087 40.9491 23.9055C40.9491 24.6393 41.2771 25.1189 41.9616 25.4263C42.3879 25.619 42.8143 25.9182 43.1053 26.2789C43.3759 26.6151 43.6095 26.6602 43.9334 26.4962C44.6548 26.1232 45.4542 25.8321 46.0691 25.3197C47.3849 24.2211 48.9057 23.9055 50.5372 23.8522ZM50.9226 18.4658C51.3448 18.7405 51.6399 18.9372 51.9392 19.1299C52.8082 19.6956 53.2673 20.4621 53.132 21.5361C53.0582 22.1223 53.0542 22.7167 52.9353 23.2947C52.8328 23.7907 53.0254 23.9629 53.4641 23.9998C53.7592 24.0244 54.0544 24.0285 54.3454 24.0613C55.1243 24.1473 55.9154 24.1842 56.6779 24.34C57.756 24.5614 57.9322 24.5327 58.5184 23.6021C58.6742 23.3562 58.789 23.0815 58.9079 22.811C59.2727 21.987 58.9283 21.2164 58.748 20.4211C58.6168 19.8309 58.3217 19.507 57.7724 19.3389C56.3335 18.8921 54.9029 18.4084 53.4559 17.9944C52.6114 17.7525 51.7793 17.8427 50.9143 18.4699L50.9226 18.4658ZM61.433 21.0032C60.9534 19.9702 60.5558 18.9905 59.7031 18.3305C58.5389 17.4246 57.3255 16.613 55.8498 16.2522C55.1612 16.0842 54.5135 15.748 53.8494 15.4734C53.2468 15.2233 52.677 14.8421 52.0498 14.7109C49.8526 14.2518 47.6432 13.8788 45.4337 13.4729C45.5853 13.7148 45.7821 13.8624 45.9953 13.9812C47.5284 14.8626 49.1066 15.6865 49.8609 17.441C50.0535 17.8878 50.3323 17.8509 50.7135 17.6009C51.8244 16.8835 53.0419 16.7851 54.2962 17.1131C55.2145 17.3549 56.1245 17.6214 57.0222 17.9206C57.4198 18.0518 57.8257 18.2281 58.1618 18.4781C59.2276 19.2693 60.2606 20.1014 61.4289 21.0073L61.433 21.0032Z" fill="#F1EDE4"/>
<path d="M59.5391 54.5186C59.9244 54.8178 60.1991 55.0269 60.4737 55.2359C60.4614 55.2933 60.4491 55.3507 60.4327 55.4081C60.0925 55.4081 59.7482 55.3917 59.4079 55.4122C59.0841 55.4327 58.7521 55.4573 58.4446 55.5516C58.1003 55.6582 58.0839 55.8754 58.3544 56.1132C58.5717 56.3058 58.8217 56.4739 59.0062 56.6953C59.0841 56.7854 59.0636 56.9986 59.0144 57.1339C58.9939 57.1872 58.7357 57.2405 58.6742 57.1872C57.8051 56.4575 56.8172 56.7444 55.8539 56.8469C55.3497 56.9002 54.9971 56.6379 54.6364 56.3263C54.3003 56.0394 53.915 55.777 53.5132 55.5967C52.8983 55.3179 52.3982 54.9285 51.9965 54.3874C51.6645 53.9365 51.2792 53.5511 50.5372 53.4979C50.8364 54.1004 51.0988 54.6292 51.3611 55.1539C51.3119 55.1867 51.2587 55.2195 51.2095 55.2564C51.0824 55.1048 50.9389 54.9613 50.8282 54.7973C50.5454 54.3956 50.3035 53.9611 49.9838 53.5962C49.8321 53.4241 49.5493 53.3093 49.3115 53.2847C48.8401 53.2314 48.7212 53.4446 48.959 53.8504C49.1558 54.1906 49.3935 54.5063 49.5698 54.8588C49.6927 55.1007 49.7419 55.3753 49.8608 55.7647C49.2172 55.5639 49.1353 55.0925 48.9221 54.7563C48.2129 53.6331 48.2211 53.629 47.1184 54.3833C46.9545 54.494 46.8028 54.6292 46.6224 54.703C45.7575 55.0433 45.1672 55.6459 44.7163 56.4534C44.2695 57.2569 43.4988 57.6135 42.5888 57.6627C42.392 57.675 42.1953 57.6586 41.9985 57.6668C40.8097 57.7365 39.7275 57.9988 39.088 59.1507C38.9774 59.3475 38.8257 59.5319 38.6658 59.6918C38.0755 60.278 37.3746 60.1345 37.1778 59.3188C37.0548 58.7982 37.104 58.2202 37.1737 57.675C37.3787 56.023 37.6369 54.3792 37.8624 52.7313C37.928 52.2435 37.9484 51.7516 37.9894 51.2638C38.0714 50.2431 38.469 49.3576 39.1659 48.6198C40.0759 47.6564 40.5925 46.5169 40.781 45.2133C40.8302 44.8567 40.8548 44.4509 41.0475 44.1762C41.7361 43.1883 41.7034 42.143 41.482 41.0362C41.4 40.6304 41.4697 40.1876 41.5025 39.7613C41.5517 39.1382 41.8673 38.7242 42.3756 38.3184C43.0766 37.7568 43.6587 37.0271 44.2408 36.3303C44.827 35.6252 45.3558 34.875 45.8928 34.1331C46.2986 33.5756 46.8356 33.2394 47.4956 33.0837C48.4466 32.8623 49.2418 32.3786 49.9469 31.7063C51.0865 30.6159 51.5825 30.5463 53.0213 31.1939C53.6116 31.4604 54.1978 31.1529 54.3946 30.4151C54.4848 30.0789 54.4192 29.7059 54.4356 29.3493C54.4397 29.2591 54.4971 29.0951 54.5299 29.0951C54.6446 29.0951 54.7963 29.1156 54.8701 29.1894C55.0054 29.3247 55.0914 29.5091 55.2062 29.669C55.5628 30.1568 56.0589 30.1281 56.3581 29.6034C56.3909 29.546 56.3909 29.4723 56.4278 29.419C56.5262 29.2673 56.6368 29.1279 56.7393 28.9803C56.8541 29.1607 57.0427 29.3288 57.0673 29.5173C57.1616 30.1937 56.7106 30.7389 55.9687 30.702C55.3825 30.6733 55.0914 30.9029 54.7799 31.3333C54.538 31.6694 54.1609 31.9031 53.8986 32.1368C54.3085 33.0345 54.702 33.924 55.116 34.8013C55.2267 35.0308 55.3538 35.2768 55.5383 35.4448C56.0097 35.8712 56.4032 35.7646 56.7229 35.1784C56.7516 35.1251 56.7967 35.0718 56.8418 35.0308C56.8582 35.0144 56.8992 35.0226 56.9689 35.0103C57.0837 35.4161 57.2025 35.8302 57.3624 36.4C57.592 36.0474 57.7272 35.8384 57.8912 35.5883C57.965 35.6949 58.0511 35.7605 58.047 35.8261C58.0429 36.1212 58.0019 36.4123 57.9896 36.7074C57.9609 37.474 58.0142 37.5969 58.7275 37.8839C59.3301 38.1216 59.5637 38.5439 59.617 39.1628C59.6498 39.5728 59.7359 40.0032 59.908 40.3721C60.6418 41.9421 61.3592 43.5162 62.4127 44.9223C62.757 45.3814 62.8226 46.0823 62.9169 46.6849C63.0931 47.8163 63.1792 48.9641 63.335 50.0955C63.5113 51.3499 63.0603 52.2435 61.9617 52.883C61.146 53.3544 60.3918 53.9242 59.5186 54.5104L59.5391 54.5186ZM58.4815 40.7656C58.3421 40.614 58.2233 40.4377 58.0634 40.3106C57.7641 40.0729 57.4034 39.8966 57.1411 39.6261C56.7147 39.1792 56.7352 39.1505 56.2474 39.5482C54.8865 40.6509 53.464 41.6306 51.6973 41.9749C51.4759 42.02 51.2792 42.1635 51.0578 42.2291C49.7829 42.5898 49.209 43.508 49.0738 44.7542C49.0287 45.1764 49.0451 45.6068 49.0246 46.0291C49.0041 46.4226 49.0533 46.8366 48.9344 47.1973C48.6802 47.9721 48.9221 48.587 49.3279 49.2306C49.746 49.8905 50.1437 50.5792 50.4265 51.3007C50.7176 52.0385 51.2054 52.4689 51.9432 52.7354C52.1974 52.2763 52.1564 51.8295 52.0908 51.3745C51.9924 50.6858 51.9432 49.9889 52.2589 49.3453C52.7344 48.382 52.9393 47.3654 52.9188 46.3037C52.8901 45.0452 53.4394 44.0614 54.4356 43.3728C55.6981 42.5037 57.0304 41.729 58.3298 40.9173C57.8625 41.2616 57.3952 41.6101 56.9279 41.9503C56.0015 42.6185 55.034 43.2375 54.1568 43.9671C53.378 44.6107 53.0951 45.4921 53.2345 46.5292C53.3206 47.1727 53.4189 47.8737 53.255 48.4763C52.9352 49.6405 52.9024 50.7801 52.9762 51.9688C53.0172 52.6001 53.1689 53.1043 53.5583 53.5757C53.8084 53.875 54.1486 54.166 54.247 54.5186C54.3987 55.072 54.7881 55.404 55.1406 55.7729C55.5465 56.1992 55.899 56.2361 56.3294 55.8221C56.6737 55.4901 56.9689 55.072 57.1779 54.6415C57.4731 54.0267 57.8379 53.4446 58.4487 53.1945C59.9408 52.5755 60.7443 51.4605 61.0845 49.9397C61.105 49.8454 61.1542 49.7553 61.1952 49.6692C61.7527 48.4968 61.8183 47.2711 61.5928 46.0209C61.4944 45.4839 61.3756 44.9346 61.1501 44.4426C60.8509 43.7909 60.4573 43.1801 60.072 42.5734C59.6375 41.8929 59.2194 41.1879 58.4774 40.7738L58.4815 40.7656ZM41.6501 49.9479C41.7116 50.0463 41.7443 50.075 41.7443 50.0996C41.7443 50.198 41.7443 50.2964 41.7197 50.3906C41.2483 52.1123 41.3098 53.7233 42.4535 55.2318C43.0848 56.064 43.2816 56.1829 43.9661 55.3958C44.4498 54.8424 45.1016 54.6497 45.7083 54.3505C45.8518 54.2808 46.0198 54.2521 46.1633 54.1783C46.4912 54.0021 46.5732 53.7274 46.3068 53.4651C46.0075 53.174 45.6837 52.883 45.3148 52.6862C44.4457 52.2189 44.0686 51.5097 43.9784 50.5464C43.9251 49.9725 43.7284 49.4068 43.548 48.8534C43.4209 48.4517 43.1832 48.0828 43.0561 47.6769C42.7487 46.7095 42.8675 45.8077 43.5521 45.0083C44.1055 44.3607 44.622 43.6843 45.1631 43.0284C45.2041 42.9751 45.3189 42.9833 45.5976 42.9136C45.2287 43.6925 45.0032 44.3812 44.6138 44.9592C43.9333 45.9717 43.9005 46.9637 44.458 48.0131C44.9089 48.8657 45.2164 49.7553 45.1795 50.735C45.1672 51.1162 45.3148 51.4113 45.6263 51.6655C46.1059 52.0549 46.5568 52.4771 46.9914 52.9199C47.1922 53.1248 47.348 53.1658 47.5775 52.9977C48.1883 52.5591 48.8893 52.4157 49.6231 52.4157C50.033 52.4157 50.1806 52.2722 49.9838 51.8869C49.5821 51.1039 49.2131 50.3005 48.754 49.5544C48.3933 48.9682 48.1104 48.3656 48.3195 47.7056C48.6229 46.7464 48.6106 45.7708 48.6761 44.7952C48.7458 43.8237 49 42.9177 49.8075 42.2742C50.0617 42.0692 50.1396 41.8806 49.828 41.6593C49.3484 41.319 48.918 40.8722 48.3892 40.6427C47.0323 40.0524 45.8764 39.2407 45.0524 37.9946C44.8803 37.7363 44.6958 37.7486 44.4949 37.9536C44.1752 38.2815 43.9087 38.6996 43.5275 38.921C42.9044 39.2858 42.8429 39.8228 42.8634 40.4254C42.8716 40.7205 42.888 41.0157 42.9413 41.3067C43.1176 42.2373 42.888 43.0284 42.2854 43.7786C41.9247 44.2254 41.5804 44.7706 41.4697 45.3199C41.1991 46.6726 40.6294 47.8573 39.8054 48.9436C39.1823 49.7635 39.0143 50.6981 39.0061 51.7188C38.9979 52.8256 38.8503 53.9324 38.756 55.0392C38.7355 55.2687 38.6699 55.4901 38.6617 55.7196C38.6412 56.105 38.7765 56.3263 39.2315 56.3099C39.8177 56.2894 40.408 56.3509 40.9983 56.355C41.1745 56.355 41.3508 56.2771 41.523 56.2361C41.4697 56.0558 41.4492 55.8549 41.359 55.695C41.1499 55.3261 40.781 55.0064 40.699 54.621C40.3424 52.9568 40.654 51.4031 41.6501 49.9561V49.9479ZM51.89 32.7393C50.9471 32.4606 50.1724 32.8541 49.4181 33.4649C49 33.801 48.4466 33.9896 47.9342 34.1905C47.3234 34.4323 47.2455 34.5266 47.2086 35.1784C47.1635 35.9613 47.5448 36.4942 48.1555 36.8878C49.082 37.4822 49.6682 38.3143 50.0002 39.3473C50.0986 39.6547 50.2339 39.9622 50.3978 40.2409C50.8979 41.0813 51.4595 41.2985 52.3778 40.9706C53.7223 40.4869 54.8701 39.667 55.9031 38.7037C56.149 38.4783 56.2925 38.1052 56.3909 37.7732C56.4565 37.5559 56.436 37.2239 56.3048 37.0517C55.7842 36.3467 55.198 35.6908 54.6569 35.0021C54.4397 34.7234 54.206 34.4241 54.0953 34.0921C53.7428 33.0304 53.1648 32.3704 51.8858 32.7311L51.89 32.7393ZM49.7993 40.4049C49.4878 38.7611 48.9959 37.8962 47.844 37.0066C47.307 36.5926 46.8561 36.1581 46.8397 35.4243C46.8397 35.3137 46.7372 35.1087 46.688 35.1128C46.5445 35.1169 46.3519 35.162 46.2699 35.2645C45.9461 35.6703 45.655 36.1048 45.3558 36.5311C45.1221 36.8632 45.1426 37.1009 45.45 37.4535C46.6183 38.798 48.1801 39.5277 49.7993 40.4049Z" fill="#F1EDE4"/>
<path d="M28.7867 59.4828C27.9341 59.4705 27.3192 58.9417 27.2741 58.13C27.2454 57.5889 27.3356 57.0273 27.4586 56.4944C27.5365 56.1542 27.5816 55.9 27.3438 55.5967C26.9749 55.1253 26.9667 54.5555 27.1429 54.0103C27.2208 53.7766 27.3889 53.5389 27.5857 53.3954C27.7373 53.2847 27.9956 53.3175 28.2088 53.2888C28.1678 53.4569 28.1309 53.6291 28.0817 53.7971C28.0079 54.0472 27.8931 54.2849 27.8562 54.5391C27.7496 55.3384 27.9341 55.4942 28.7007 55.281C28.7949 55.2565 28.8892 55.1991 28.9835 55.2073C29.1393 55.2155 29.291 55.2606 29.4426 55.2892C29.4016 55.4327 29.3975 55.6008 29.3155 55.7197C29.209 55.8795 29.0532 56.0107 28.9056 56.1378C28.4178 56.5477 28.2497 57.1011 28.2088 57.7037C28.1719 58.2284 28.303 58.667 28.8359 58.913C28.9835 58.9827 29.0778 59.1589 29.1967 59.286C29.0327 59.368 28.8687 59.45 28.7867 59.491V59.4828Z" fill="#F1EDE4"/>
<path d="M36.7391 48.8042C36.53 49.2264 36.4111 49.7019 36.116 50.0053C35.7635 50.3701 35.579 50.7103 35.6528 51.2022C35.6733 51.358 35.6815 51.5589 35.6036 51.6819C35.4765 51.8827 35.2716 52.0303 35.1035 52.2025C35.0297 52.0139 34.8862 51.8253 34.8903 51.6368C34.9108 50.8374 34.755 50.0873 34.4025 49.3699C34.341 49.2469 34.3902 49.0706 34.3902 48.919C34.5665 48.9436 34.7796 48.9108 34.9108 49.001C35.6159 49.4642 35.6077 49.4724 35.8536 48.714C35.8618 48.6812 35.8659 48.6484 35.8782 48.6197C35.952 48.3492 35.9684 47.9393 36.3414 48.0294C36.5136 48.0704 36.5915 48.4927 36.7432 48.8001L36.7391 48.8042Z" fill="#F1EDE4"/>
<path d="M46.2865 59.8393C46.0405 58.876 46.143 58.462 46.8276 58.093C47.2621 57.8594 47.508 57.6257 47.6105 57.1133C47.7376 56.478 48.1393 56.2484 48.7542 56.2525C48.746 56.314 48.7583 56.3878 48.7296 56.437C48.3169 57.1092 48.3374 57.7596 48.7911 58.3882C48.8649 58.4948 48.9551 58.5932 49.0042 58.712C49.037 58.794 49.0493 58.9416 49.0042 58.9826C48.9182 59.0564 48.7501 59.1343 48.6722 59.0974C48.4467 58.9867 48.1967 58.8555 48.045 58.6628C47.7212 58.2447 47.4547 58.3513 47.1842 58.6833C46.9013 59.0318 46.6308 59.3966 46.2865 59.8434V59.8393Z" fill="#F1EDE4"/>
<path d="M34.124 60.2083C35.0996 59.8804 35.3169 59.3434 34.8578 58.4948C34.7389 58.2776 34.9931 58.1341 35.2062 58.2038C35.6776 58.3514 35.9031 58.749 35.8334 59.1917C35.7309 59.8353 35.9646 60.2821 36.3376 60.7781C36.5631 61.0773 36.5631 61.557 36.6123 61.9587C36.6246 62.053 36.4196 62.2374 36.2925 62.2579C36.2064 62.2743 36.0015 62.094 35.9851 61.9833C35.8498 60.9339 35.1119 60.5281 34.1281 60.2042L34.124 60.2083Z" fill="#F1EDE4"/>
<path d="M21.3794 59.7286C21.7401 60.073 22.0066 60.4009 22.3468 60.6223C22.8428 60.9502 22.9576 60.8805 23.2691 60.3107C23.3429 60.1796 23.4659 60.073 23.5643 59.9541C23.6586 60.073 23.8061 60.1755 23.8389 60.3107C24.0234 61.0568 24.4784 61.5651 25.1343 61.9422C25.2614 62.016 25.3966 62.344 25.3557 62.389C25.2204 62.5366 24.9457 62.7293 24.8227 62.6801C24.4456 62.5202 24.0398 62.3153 23.7856 62.0119C23.4331 61.5938 23.0765 61.3396 22.5231 61.2331C21.6704 61.065 21.445 60.7166 21.3835 59.7286H21.3794Z" fill="#F1EDE4"/>
<path d="M63.5398 35.8794C63.9129 36.2196 63.8801 36.5845 63.9006 36.9206C63.9252 37.2936 64.0932 37.3674 64.413 37.2239C64.6302 37.1297 64.8885 36.7935 65.073 37.1256C65.2533 37.4453 64.9787 37.7322 64.7122 37.9413C64.6384 37.9987 64.5442 38.0725 64.4581 38.0766C63.876 38.093 63.4169 38.3307 63.0274 38.7612C62.9578 38.839 62.7446 38.7939 62.597 38.8062C62.5888 38.6546 62.5355 38.4865 62.5888 38.3594C62.7651 37.9413 62.9987 37.5478 63.1668 37.1256C63.3185 36.7484 63.4046 36.3467 63.5439 35.8794H63.5398Z" fill="#F1EDE4"/>
<path d="M59.8918 33.9158C59.7688 34.0552 59.6868 34.2068 59.5597 34.2765C59.3343 34.3995 59.0801 34.4774 58.8383 34.5594C58.4242 34.6987 58.2234 34.5143 58.1783 34.1084C58.1127 33.5304 58.125 32.932 57.711 32.4483C57.67 32.4032 57.6864 32.2474 57.7315 32.2064C57.7889 32.1531 57.92 32.1203 57.9938 32.1449C58.1742 32.2105 58.3628 32.2884 58.5062 32.4114C58.8793 32.727 59.24 33.0549 59.5802 33.3993C59.7073 33.5305 59.777 33.719 59.8918 33.9158Z" fill="#F1EDE4"/>
<path d="M40.937 37.7978C40.9575 38.9292 40.1787 39.79 39.3383 39.7121C39.199 39.6999 39.0514 39.5851 38.9489 39.4785C38.9243 39.4498 39.0514 39.2694 39.1211 39.167C39.158 39.1137 39.2154 39.0727 39.2728 39.0481C40.0188 38.6873 40.2853 38.0807 40.2156 37.2772C40.2074 37.1583 40.3468 37.0272 40.4164 36.9042C40.5148 36.9821 40.6583 37.0394 40.7034 37.1419C40.8223 37.4043 40.8961 37.6871 40.937 37.8019V37.7978Z" fill="#F1EDE4"/>
<path d="M40.5393 63.1926C39.3547 62.4178 39.2727 61.1019 40.2032 60.3887C40.3098 60.3067 40.4942 60.3354 40.6418 60.3108C40.6582 60.4338 40.732 60.5936 40.6787 60.6715C40.1909 61.4217 40.3303 62.2292 40.5393 63.1926Z" fill="#F1EDE4"/>
<path d="M51.3081 29.1197C52.3288 28.7877 53.1978 28.509 54.1079 28.2097C54.2104 28.6524 53.9685 28.9845 53.575 29.1853C52.8904 29.5379 52.1771 29.7018 51.3081 29.1197Z" fill="#F1EDE4"/>
<path d="M64.9298 41.3396C64.9339 42.1512 64.4584 42.6227 63.8312 42.5038C63.7247 42.4833 63.6099 42.3808 63.5484 42.2824C63.5197 42.2414 63.6017 42.1061 63.6632 42.0365C63.8968 41.77 64.1387 41.5077 64.3805 41.2494C64.483 41.1387 64.5978 41.0403 64.7043 40.9379C64.7945 41.0977 64.8847 41.2576 64.9298 41.3355V41.3396Z" fill="#F1EDE4"/>
<path d="M31.0082 36.0474C30.9057 36.3548 30.8771 36.5065 30.8115 36.6459C30.0777 38.1585 29.594 39.7449 29.3275 41.4051C29.2661 41.7863 29.3316 42.27 28.8356 42.4668C28.7578 42.0978 28.602 41.7248 28.6102 41.36C28.6594 39.4579 29.4095 37.81 30.5696 36.3343C30.6393 36.2482 30.7623 36.2072 31.0082 36.0474Z" fill="#F1EDE4"/>
<path d="M33.8081 31.0668C34.6157 30.2101 35.3166 29.464 36.0217 28.7139C36.1283 29.919 35.2797 30.8701 33.8081 31.0668Z" fill="#F1EDE4"/>
<path d="M27.9052 43.8893C27.1879 43.4179 26.8968 42.557 27.237 41.9831C27.278 41.9135 27.3846 41.8356 27.4584 41.8356C27.5322 41.8356 27.6552 41.9258 27.6675 41.9954C27.7822 42.6103 28.102 43.2088 27.9093 43.8893H27.9052Z" fill="#F1EDE4"/>
<path d="M26.9541 44.578C26.1138 44.7502 25.585 44.3279 25.8186 43.6598C25.8637 43.5327 26.0154 43.4179 26.1466 43.3564C26.1917 43.3359 26.3433 43.4835 26.4089 43.5819C26.6016 43.8729 26.7778 44.1804 26.9582 44.4796C26.9705 44.5042 26.9582 44.5411 26.9582 44.5739L26.9541 44.578Z" fill="#F1EDE4"/>
</svg>
