<svg width="81" height="81" viewBox="0 0 81 81" fill="none" xmlns="http://www.w3.org/2000/svg">
<g clip-path="url(#clip0_216_112806)">
<path fill-rule="evenodd" clip-rule="evenodd" d="M9.98448 62.8099C8.16535 62.4508 6.46705 61.1552 6.26903 59.2119C6.26231 58.836 5.95353 57.8895 6.44691 57.772C6.85303 57.8123 6.63151 58.3359 6.69528 58.6044C6.73891 59.1918 6.8631 59.7791 7.11482 60.3128C8.2996 62.5011 11.1391 62.6219 13.3408 62.4071C19.8957 62.3568 26.1821 60.3094 32.5826 59.1448C37.3486 58.0674 41.9333 56.3221 46.6355 55.0132C49.4347 53.9995 51.9351 52.3516 54.7612 51.3917C58.4263 49.7538 62.3297 48.8577 66.1559 47.7031C69.5055 46.3236 76.3121 45.1321 75.953 40.4635C75.5737 38.5269 74.1305 37.1105 73.1874 35.4525C71.9992 33.3145 71.0561 31.0389 69.7337 28.9815C68.8846 27.6793 67.7736 26.5818 66.5049 25.6856C65.8035 25.1822 65.1859 24.5243 64.3468 24.2525C62.1551 23.6483 60.0809 22.7018 57.7919 22.5105C53.9489 21.7285 49.9583 22.4803 46.1791 23.2691C43.635 23.8497 41.0909 24.474 38.7851 25.7326C37.4761 26.3435 36.0597 26.7294 34.8515 27.545C33.7506 28.2733 32.6229 28.958 31.5153 29.6729C30.2466 30.5086 29.233 31.6565 28.1019 32.6567C26.8131 33.7576 25.192 34.5094 24.4636 36.1338C23.8864 37.1575 22.8325 37.718 22.0337 38.5303C21.1006 39.9433 20.0602 41.3429 19.5332 42.9707C17.9322 48.1293 16.187 46.9748 16.3346 53.6169C16.2574 56.1845 16.7609 59.4401 14.5054 61.2391C12.4279 62.5515 8.83326 62.1957 7.57128 59.9067C7.25243 59.3697 6.98392 58.8024 6.7322 58.2285C6.68857 58.101 6.77919 57.9566 6.90673 57.9231C7.30277 57.866 7.46723 58.789 7.67868 59.0676C8.18884 60.2322 9.15546 61.1586 10.451 61.3298C11.7667 61.5748 13.3307 61.5915 14.4048 60.682C16.3716 58.7085 15.7238 55.5804 15.8345 53.0531C15.8748 51.0426 15.9587 48.8711 17.0025 47.0922C17.6805 46.1323 18.2981 45.1355 18.6539 44.0111C19.1674 42.0275 20.2481 40.3393 21.3288 38.6309C21.8961 37.7382 22.8862 37.2851 23.5574 36.5165C24.2656 35.6975 24.6348 34.6101 25.5377 33.9589C26.266 33.3783 27.0749 32.9051 27.773 32.2808C29.243 30.898 30.6695 29.4615 32.455 28.4814C34.197 27.3336 35.9456 26.2126 37.9426 25.5547C41.7252 23.5946 45.9273 22.6616 50.116 22.0272C52.5661 21.7352 55.08 21.4231 57.5201 21.9467C59.2251 22.1984 60.9234 22.4635 62.5042 23.1784C63.4238 23.5006 64.4274 23.6215 65.2765 24.1182C66.1357 24.7022 66.9312 25.3835 67.7602 26.0078C70.6701 28.3707 71.8482 32.0693 73.6438 35.231C74.6306 36.9092 76.0772 38.3826 76.443 40.3628C76.876 42.6485 74.879 44.5414 73.033 45.5282C69.3041 47.3675 65.2564 48.5254 61.2422 49.5759C58.4699 50.3646 55.8117 51.489 53.1434 52.5597C51.2035 53.3014 49.4582 54.4627 47.5182 55.2011C45.5581 55.9596 43.5007 56.406 41.497 57.0269C37.3251 58.5373 33.029 59.5878 28.6825 60.4437C22.5505 61.7426 16.2876 63.4375 9.98448 62.7897V62.8099Z" fill="#F1EDE4"/>
<path fill-rule="evenodd" clip-rule="evenodd" d="M10.2795 61.353C10.0614 61.061 11.0213 60.6784 11.1656 60.0004C11.565 58.6243 8.50741 57.6845 8.11472 59.4332C8.24562 60.1514 7.0172 59.8057 8.00396 58.6142C8.97058 57.2113 11.9778 58.2719 11.6825 59.9903C11.5751 60.4501 10.8233 61.8061 10.2795 61.3496V61.353Z" fill="#F1EDE4"/>
<path fill-rule="evenodd" clip-rule="evenodd" d="M13.4918 60.0742C11.4545 58.6645 12.8071 56.4527 14.8679 56.1137C15.868 55.8452 15.8647 56.9897 15.2236 56.5836C14.3644 56.6608 13.2367 57.1609 13.0152 58.0705C12.7769 59.1176 13.9046 60.0742 14.9014 59.9769C15.0357 59.9567 15.1632 60.0541 15.18 60.1883C15.0491 60.8495 13.8576 60.3125 13.4918 60.0742Z" fill="#F1EDE4"/>
<path fill-rule="evenodd" clip-rule="evenodd" d="M15.103 56.2046C15.103 56.0704 15.2171 55.9563 15.3514 55.9563C15.4856 55.9563 15.5998 56.0704 15.5998 56.2046C15.5998 56.3389 15.4856 56.453 15.3514 56.453C15.2171 56.453 15.103 56.3389 15.103 56.2046Z" fill="#F1EDE4"/>
<path fill-rule="evenodd" clip-rule="evenodd" d="M6.65192 56.5165C5.54769 56.6139 2.49679 55.6372 4.51058 54.439C6.05114 53.7409 7.82999 53.8651 9.43095 53.3348C11.7938 52.8313 13.8311 51.3881 15.865 50.1563C15.9758 50.0758 16.1268 50.0925 16.2141 50.2C16.4792 50.6665 15.1904 51.0827 14.895 51.3478C13.5324 52.1198 12.2066 52.9891 10.7164 53.5059C9.08525 54.0127 7.39702 54.2812 5.71215 54.543C3.19155 55.1203 4.80594 55.8755 6.35321 56.0064C7.20235 56.0534 8.0515 55.9594 8.88387 55.7916C11.042 55.3049 13.1498 54.4188 15.0192 53.2408C15.3146 53.1334 15.5965 52.6064 15.9087 52.744C16.6605 53.3952 12.5523 55.0968 12.0187 55.2915C10.3338 56.04 8.50461 56.5333 6.65192 56.5098V56.5165Z" fill="#F1EDE4"/>
<path fill-rule="evenodd" clip-rule="evenodd" d="M11.3132 52.8383C9.25579 52.7208 7.00034 53.0329 5.28191 51.6602C4.67777 51.3447 4.53345 50.6197 4.81873 50.0324C4.99662 49.398 5.63096 49.3208 6.19147 49.4081C7.27556 49.4014 8.28246 49.7874 9.17188 50.3881C11.6992 52.1502 14.1191 50.8345 14.2433 51.5964C14.1594 52.0831 13.2498 51.7273 12.8806 51.8481C12.3805 51.8884 11.8704 51.9253 11.3736 51.8246C9.33634 51.4353 7.79243 49.6229 5.60076 49.8813C5.27855 49.925 5.22149 50.3714 5.17115 50.6365C5.2517 51.4085 6.41299 51.6904 7.00706 52.0327C8.32945 52.365 9.72903 52.2442 11.0816 52.3348C11.518 52.3449 11.9543 52.3482 12.3872 52.2811C12.4711 52.2039 12.6121 52.2039 12.7027 52.2744C13.1491 52.9725 11.6824 52.8013 11.3132 52.8383Z" fill="#F1EDE4"/>
<path fill-rule="evenodd" clip-rule="evenodd" d="M7.01415 58.4399C5.99047 58.2485 6.44693 55.4225 7.10812 56.3354C7.00408 56.8691 6.64831 57.4732 7.12826 57.9565C7.39677 58.0539 7.29272 58.4634 7.01415 58.4432V58.4399Z" fill="#F1EDE4"/>
<path fill-rule="evenodd" clip-rule="evenodd" d="M10.451 58.8025C10.112 58.6481 10.8 57.8628 10.508 56.9733C10.4678 56.6176 10.2127 56.2719 10.2597 55.9161C10.3704 55.6308 10.8269 55.7852 10.7598 56.0738C11.0249 56.6142 11.4008 58.8831 10.451 58.8025Z" fill="#F1EDE4"/>
<path fill-rule="evenodd" clip-rule="evenodd" d="M15.442 56.2113C15.3816 55.9898 15.6099 55.8858 15.7844 55.8488C16.0999 55.7985 16.1704 56.2986 15.8549 56.3389C15.8616 56.3389 15.8717 56.3389 15.8784 56.3355C15.8851 56.3355 15.8951 56.3288 15.9019 56.3288C15.7408 56.4194 15.5025 56.4295 15.4387 56.2147L15.442 56.2113Z" fill="#F1EDE4"/>
<path fill-rule="evenodd" clip-rule="evenodd" d="M13.455 56.7584C12.9482 55.9999 13.4618 54.9091 13.9921 54.2815C14.1867 54.0264 14.5828 54.3318 14.3847 54.5835C13.9652 55.0568 13.6933 55.6844 13.7705 56.3255C13.9618 56.5604 13.7538 56.9497 13.455 56.7551V56.7584Z" fill="#F1EDE4"/>
<path fill-rule="evenodd" clip-rule="evenodd" d="M13.1997 51.3545C11.4276 50.3207 10.904 48.1559 11.0248 46.2294C11.2933 42.9402 14.6194 41.5607 17.5596 42.1179C17.9254 42.2286 19.0162 42.3763 18.9827 42.8361C18.9491 42.9637 18.8048 43.0509 18.6772 43.0107C18.2107 42.8126 17.7408 42.618 17.2307 42.5643C14.7134 42.185 11.8303 43.3295 11.5417 46.1354C11.4377 47.441 11.6256 48.9614 12.4278 50.0321C12.7466 50.4382 13.2501 50.6866 13.5656 51.0726C13.6327 51.2739 13.381 51.472 13.1997 51.3511V51.3545Z" fill="#F1EDE4"/>
<path fill-rule="evenodd" clip-rule="evenodd" d="M14.2802 51.0828C13.2968 50.4485 12.6625 48.1494 12.4443 47.0116C12.8068 43.5714 15.4113 42.7793 18.4622 43.2324C18.7207 43.313 19.2778 43.4405 19.1167 43.8097C19.0496 43.9238 18.8918 43.9708 18.7777 43.9003C18.6267 43.803 18.4354 43.7325 18.2642 43.6989C15.9349 43.4472 13.8339 43.6889 13.0686 46.2397C12.639 47.2399 13.7298 49.8108 14.4212 50.5995C15.022 50.6365 14.8139 51.3044 14.2836 51.0828H14.2802Z" fill="#F1EDE4"/>
<path fill-rule="evenodd" clip-rule="evenodd" d="M16.6433 47.0987C15.9184 46.1153 15.3411 43.9069 17.2072 43.9606C17.7711 44.0076 18.8887 43.8196 18.9122 44.6319C18.8954 44.9943 18.3651 44.9239 18.4121 44.5714C14.0993 43.6216 18.3752 47.8673 16.6433 47.0987Z" fill="#F1EDE4"/>
<path fill-rule="evenodd" clip-rule="evenodd" d="M14.7505 49.3912C14.0188 48.8676 13.9282 47.7298 13.9852 46.8941C14.4686 45.0145 16.4991 46.978 16.9757 47.854C16.6737 48.9179 15.2472 45.8838 14.5558 46.7464C14.3041 47.4042 14.5457 48.203 14.8344 48.8172C15.1398 49.1864 15.707 48.8307 16.093 48.7669C16.2239 48.73 16.3615 48.8105 16.3984 48.9414C16.4991 49.4113 15.0492 49.5623 14.7538 49.3912H14.7505Z" fill="#F1EDE4"/>
<path fill-rule="evenodd" clip-rule="evenodd" d="M9.27962 46.1726C7.97737 46.3337 6.01728 45.1724 7.73907 44.0648C9.18229 43.2123 10.8604 43.3936 12.448 43.2157C12.5822 43.1922 12.7098 43.2996 12.7266 43.4271C12.6359 44.0447 11.0753 43.699 10.5852 43.8131C9.65889 43.8735 8.72583 44.0816 7.91024 44.5381C6.49387 45.7128 10.2597 46.0182 10.6893 45.2832C10.7396 45.159 10.8907 45.0986 11.0148 45.1523C11.676 45.8873 9.76293 46.2297 9.27962 46.1726Z" fill="#F1EDE4"/>
<path fill-rule="evenodd" clip-rule="evenodd" d="M6.91992 44.6153C7.13137 43.3365 8.67528 41.8027 9.92047 41.4805C12.035 40.8965 13.9615 40.9065 16.0021 41.749C16.3076 41.8329 16.1834 42.3162 15.8712 42.2289C14.4716 41.7355 13.0116 41.3126 11.5315 41.6718C9.61169 41.8396 8.3665 42.6384 7.467 44.3635C7.40994 44.5549 7.44686 44.8636 7.16829 44.8636C7.03404 44.8636 6.91992 44.7495 6.91992 44.6153Z" fill="#F1EDE4"/>
<path fill-rule="evenodd" clip-rule="evenodd" d="M19.2412 41.7424C18.3686 41.3967 17.7645 40.5845 17.167 39.8964C16.1434 38.7217 16.244 36.963 17.0194 35.6842C18.1874 33.8282 21.2047 33.0428 22.8459 34.6975C23.1413 35.0062 24.0676 36.5703 23.4668 36.7851C23.3326 36.8052 23.2051 36.7045 23.1883 36.5736C23.0775 36.0333 22.8728 35.4963 22.517 35.07C20.1273 32.7844 15.8581 35.8353 17.1133 38.866C17.5631 39.7554 18.2914 40.4838 19.06 41.1013C19.2513 41.3128 19.7011 41.1785 19.7246 41.5209C19.7246 41.7726 19.4359 41.8028 19.2446 41.7424H19.2412Z" fill="#F1EDE4"/>
<path fill-rule="evenodd" clip-rule="evenodd" d="M19.2782 42.2052C13.6933 41.8528 12.7569 34.3783 18.0163 32.5658C20.7047 31.616 24.5678 32.9216 24.6953 36.1202C24.2322 36.5766 24.1785 35.6805 24.0576 35.3952C23.336 32.9015 20.2079 32.3208 18.023 33.0894C14.4451 34.3883 13.9014 39.3087 17.298 41.1513C17.9659 41.4769 18.6976 41.7185 19.4494 41.7118C19.8924 41.7789 19.6743 42.3227 19.2782 42.2085V42.2052Z" fill="#F1EDE4"/>
<path fill-rule="evenodd" clip-rule="evenodd" d="M19.9864 40.6412C16.5898 38.5938 19.5736 34.3212 22.4533 36.2612C22.8158 36.5834 23.0037 37.0365 23.1246 37.4929C23.1581 37.6238 23.0843 37.7614 22.95 37.7984C22.6647 37.8688 22.6245 37.5466 22.5641 37.3486C21.876 35.12 18.3049 36.7143 19.0265 38.7314C19.2447 39.3926 19.7414 39.9162 20.322 40.2753C20.5436 40.4901 20.2146 40.8459 19.983 40.6378L19.9864 40.6412Z" fill="#F1EDE4"/>
<path fill-rule="evenodd" clip-rule="evenodd" d="M20.1913 39.6646C19.5536 39.2921 20.3926 37.7549 20.8659 37.4226C21.1478 37.2514 21.8426 36.805 22.0104 37.2816C22.0272 37.4192 21.9332 37.5401 21.7989 37.5602C20.1476 37.8623 20.7753 39.7284 20.1913 39.6646Z" fill="#F1EDE4"/>
<path fill-rule="evenodd" clip-rule="evenodd" d="M11.1724 40.9398C12.0886 39.7081 12.5719 37.7278 14.1863 37.2311C14.814 37.1036 15.0959 37.7312 14.5085 37.7513C13.1962 37.1774 11.706 42.2958 11.1724 40.9398Z" fill="#F1EDE4"/>
<path fill-rule="evenodd" clip-rule="evenodd" d="M22.8728 33.4353C22.7184 33.0124 23.2219 32.4888 23.6112 32.3612C23.9502 32.2001 24.3529 32.4451 24.6617 32.2303C25.7794 31.2234 25.8566 30.8307 27.4408 30.7636C27.4374 30.767 27.4307 30.7703 27.4273 30.777C27.4273 30.777 27.4206 30.7804 27.4173 30.7871C27.8704 30.0621 27.8872 29.119 28.649 28.5518C29.3908 27.7496 29.7231 28.3034 30.391 28.723C30.3876 28.723 30.3843 28.723 30.3775 28.723C30.3708 28.723 30.3641 28.723 30.3574 28.7196C31.0253 28.5182 31.663 28.092 32.4115 28.1591C32.633 28.1524 32.9888 28.0148 33.0458 28.3303C33.17 28.827 31.4784 28.5283 30.8474 29.0955C29.9849 29.6225 29.7734 28.5082 29.2465 28.6928C28.0113 29.4312 28.4376 31.0187 27.4072 31.3208C25.823 31.0523 25.6619 32.6062 24.3932 32.8345C23.1883 32.5156 23.4769 33.9018 22.8728 33.4453V33.4353Z" fill="#F1EDE4"/>
<path fill-rule="evenodd" clip-rule="evenodd" d="M23.4435 32.4417C23.2153 31.6832 23.6885 30.777 24.0611 30.1125C24.3967 29.4949 25.0579 29.2432 25.5278 28.7699C26.8502 27.075 28.7902 26.1285 30.8342 25.6116C33.3615 24.6652 32.6768 27.3636 31.5457 28.4779C31.351 28.733 30.955 28.4276 31.153 28.1759C31.6464 27.5986 32.321 26.6957 31.9585 25.9271C29.7736 26.1889 27.5483 27.1656 26.095 28.8673C25.558 29.5721 24.6216 29.854 24.2725 30.7233C24.0712 31.1697 23.9067 31.6396 23.8631 32.1296C23.9336 32.3847 23.6617 32.6431 23.4402 32.4384L23.4435 32.4417Z" fill="#F1EDE4"/>
<path fill-rule="evenodd" clip-rule="evenodd" d="M33.8984 27.4274C33.7574 26.5849 32.9486 26.1453 32.1967 25.9472C31.9215 25.7928 32.1632 25.3666 32.4317 25.5109C32.4283 25.5109 32.425 25.5076 32.4216 25.5042C34.4623 25.8902 34.7845 28.2732 33.9018 27.4274H33.8984Z" fill="#F1EDE4"/>
<path fill-rule="evenodd" clip-rule="evenodd" d="M17.4623 32.2807C16.8146 31.3644 19.6138 30.4918 20.2145 30.1461C21.2483 29.6997 22.3726 29.5218 23.4769 29.3506C23.9065 29.2634 24.3327 29.1459 24.7288 28.9512C24.9369 28.8606 25.2188 28.5787 25.4001 28.8539C25.5544 29.3104 24.7892 29.4144 24.5006 29.5856C23.8964 30.4482 22.6881 30.7771 21.7115 31.0657C20.916 31.2973 20.0635 31.1765 19.2848 31.4853C18.7109 31.5725 17.8819 32.4049 17.459 32.2807H17.4623ZM19.9762 30.8006C21.1778 30.7234 22.3894 30.4918 23.4332 29.8642C22.2485 30.032 21.057 30.2669 19.9762 30.8006Z" fill="#F1EDE4"/>
<path fill-rule="evenodd" clip-rule="evenodd" d="M20.7312 28.7599C20.2479 28.2464 21.4427 27.7731 21.7918 27.5483C22.7517 27.0415 23.8425 27.0448 24.8964 26.9273C25.9603 26.7528 27.0511 26.8736 28.1084 26.6454C28.5514 26.6488 28.4205 27.2059 28.0144 27.1656C28.1923 27.5281 27.6419 27.7228 27.3968 27.8671C26.4034 28.3504 25.2891 28.2296 24.2218 28.2699C23.0471 28.2699 21.869 28.7767 20.7312 28.7599ZM21.7515 28.1289C21.7515 28.1289 21.7448 28.1323 21.7414 28.1356C22.8054 27.9275 23.8861 27.7396 24.9736 27.7597C25.8328 27.7799 26.7491 27.7329 27.4908 27.2462C25.5844 27.4509 23.4968 27.2193 21.7515 28.1289Z" fill="#F1EDE4"/>
<path fill-rule="evenodd" clip-rule="evenodd" d="M31.3442 25.7326C30.8609 25.1117 31.2905 24.0243 32.0826 23.937C32.6263 23.937 33.2707 24.0545 33.6231 23.5242C34.1635 22.9536 35.11 21.6346 35.8987 22.5408C36.0699 22.7153 36.2276 23.0174 36.5163 22.9368C36.8553 22.7657 37.0063 22.3763 37.248 22.1011C37.7313 21.5171 38.8657 20.5874 39.4531 21.5205C39.7484 22.6448 40.4365 22.4972 41.3897 22.4065C41.7186 22.4267 42.4973 22.3763 42.3999 22.8697C42.2422 23.1818 41.8931 22.8865 41.638 22.9066C37.9662 23.5074 39.9733 20.4699 37.9025 22.128C37.446 22.5072 37.258 23.1886 36.674 23.4067C36.1505 23.5913 35.7712 23.1651 35.4624 22.8093C34.5898 22.5341 34.0225 24.4069 33.0593 24.4237C32.6867 24.5177 32.2705 24.3196 31.9248 24.5076C31.6463 24.7123 31.5221 25.1822 31.7537 25.4608C31.9349 25.7259 31.5053 26.0045 31.3375 25.7326H31.3442ZM31.3442 25.7326C31.3241 25.6991 31.3073 25.6588 31.3039 25.6185C31.3039 25.6588 31.3207 25.6991 31.3442 25.7326Z" fill="#F1EDE4"/>
<path fill-rule="evenodd" clip-rule="evenodd" d="M34.5459 27.075C34.905 25.2492 36.9222 24.3665 38.4896 23.7456C39.3924 23.3965 40.2617 23.9402 41.1243 24.1651C41.4901 24.3665 41.1142 24.8095 40.8021 24.5746C40.0066 24.3732 39.2246 23.8832 38.4124 24.2926C37.137 24.8632 35.6266 25.5076 35.0863 26.8972C35.0326 27.0717 35.0426 27.3268 34.7943 27.3234C34.66 27.3234 34.5459 27.2093 34.5459 27.075Z" fill="#F1EDE4"/>
<path fill-rule="evenodd" clip-rule="evenodd" d="M26.8028 33.3546C26.5275 32.9619 26.0174 32.5155 25.5139 32.7336C24.8125 32.7739 25.2286 31.9248 26.1684 32.2369C26.6014 32.4148 27.1417 32.7571 27.2458 33.2371C27.2257 33.4452 26.9236 33.5291 26.8028 33.3546Z" fill="#F1EDE4"/>
<path fill-rule="evenodd" clip-rule="evenodd" d="M6.6617 49.2837C6.09448 47.6425 7.10138 48.2433 7.74579 47.3874C7.80621 47.0283 7.5612 46.6692 7.68202 46.3033C7.77936 45.9006 8.37678 45.6488 8.71913 45.8704C8.91379 46.055 8.7057 46.404 8.45398 46.2899C7.61825 46.3604 8.96078 47.7063 7.51421 48.2164C7.34639 48.307 7.07117 48.3238 6.98727 48.5084C6.98727 48.7635 7.13159 48.9682 7.15173 49.22C7.19871 49.5388 6.70198 49.6059 6.6617 49.2871V49.2837Z" fill="#F1EDE4"/>
<path fill-rule="evenodd" clip-rule="evenodd" d="M6.33613 53.9994C4.76201 52.5797 6.99061 51.4822 6.7456 52.4522C6.59456 52.63 6.26565 52.6602 6.24551 52.9455C6.24551 52.9388 6.24551 52.9355 6.24551 52.9287C6.24551 52.9287 6.24551 52.9254 6.24551 52.912C6.2153 53.3181 6.76238 53.496 6.77581 53.8786C6.75567 54.0867 6.4536 54.1739 6.33277 53.9961L6.33613 53.9994Z" fill="#F1EDE4"/>
<path fill-rule="evenodd" clip-rule="evenodd" d="M11.1998 50.1397C9.59879 49.4483 9.06178 48.5421 10.844 47.5654C11.0957 47.3674 11.4045 47.7635 11.1461 47.9581C9.51824 48.8878 10.3405 49.0926 11.5018 49.747C11.7569 49.9384 11.4515 50.3378 11.1998 50.1397Z" fill="#F1EDE4"/>
<path fill-rule="evenodd" clip-rule="evenodd" d="M41.2151 24.3161C40.9231 24.1718 41.1346 23.8899 41.2789 23.7187C42.316 21.8123 42.6315 21.9264 44.3835 20.8625C45.2696 20.3792 46.4745 20.2181 47.384 20.7182C47.9076 21.0874 48.2567 21.6512 48.7937 22.007C48.9783 22.2017 49.4817 22.3661 49.2736 22.695C49.0018 22.9803 48.7064 22.5205 48.4748 22.3863C47.9177 22.0305 47.5753 21.4297 47.0216 21.084C45.4609 20.4362 44.0814 21.6949 42.7825 22.3795C42.2489 22.7521 41.8293 24.3531 41.2151 24.3161Z" fill="#F1EDE4"/>
<path fill-rule="evenodd" clip-rule="evenodd" d="M49.9244 22.5507C49.5652 22.0473 50.9749 21.6445 51.2736 21.3626C52.8242 20.1812 56.4323 18.9461 56.6504 21.9365C56.6538 22.2554 56.1537 22.2587 56.1537 21.9365C56.1302 20.3255 54.4386 20.4665 53.3008 20.7853C52.2872 21.2888 51.3307 21.9231 50.3473 22.487C50.2768 22.6514 50.0452 22.6783 49.921 22.5541L49.9244 22.5507Z" fill="#F1EDE4"/>
<path fill-rule="evenodd" clip-rule="evenodd" d="M58.4966 22.3997C58.0771 21.3593 56.9225 20.8894 55.8552 20.9531C55.7344 20.9666 55.6169 20.8927 55.5833 20.7719C55.5565 20.0537 57.2447 20.6511 57.6307 20.7954C58.0469 20.9297 59.3659 22.1446 58.8255 22.5306C58.7013 22.5843 58.5537 22.5239 58.5 22.3997H58.4966Z" fill="#F1EDE4"/>
<path fill-rule="evenodd" clip-rule="evenodd" d="M12.9817 37.6844C11.9882 37.6005 11.0451 37.2447 10.0718 37.04C9.76298 36.9595 9.89387 36.4728 10.2027 36.5601C11.6324 36.9024 13.0488 37.3857 14.5323 37.1978C14.6666 37.1843 14.7941 37.2716 14.8109 37.4092C14.8109 37.963 13.371 37.6609 12.9783 37.6811L12.9817 37.6844Z" fill="#F1EDE4"/>
<path fill-rule="evenodd" clip-rule="evenodd" d="M10.6622 37.3589C7.44354 37.4831 7.05756 34.3181 9.29623 35.2344C9.82988 35.4458 11.4443 36.5937 10.8905 37.2079C10.8536 37.2952 10.7629 37.3623 10.6622 37.3589ZM10.4642 36.8555C10.048 36.2077 9.30294 35.5901 8.5142 35.5465C8.4303 35.5667 8.37995 35.6438 8.37995 35.7278C8.52092 36.644 9.70905 36.7816 10.4642 36.8555Z" fill="#F1EDE4"/>
<path fill-rule="evenodd" clip-rule="evenodd" d="M12.6797 37.3018C11.1291 35.3283 13.2335 34.0563 13.8779 36.6138C13.9652 36.9226 13.4819 37.0568 13.398 36.7447C13.3342 36.4762 12.955 35.3652 12.616 35.7881C12.616 35.7848 12.616 35.7781 12.616 35.7747C12.616 35.7747 12.616 35.7747 12.6193 35.7579C12.5891 36.2278 12.8241 36.7346 13.1429 37.0736C13.2537 37.1004 13.3342 37.1978 13.3342 37.3152C13.2939 37.7147 12.8207 37.5502 12.673 37.3052L12.6797 37.3018Z" fill="#F1EDE4"/>
<path fill-rule="evenodd" clip-rule="evenodd" d="M10.7463 38.9968C9.40038 38.4128 11.3504 37.6139 11.9848 37.5401C12.3372 37.5267 13.6596 37.0199 13.7703 37.3689C14.0724 37.9664 11.29 37.9362 10.8335 38.5101C11.7465 38.5604 12.6225 38.2483 13.4682 37.9429C15.0256 38.3154 11.102 39.2216 10.7463 38.9968Z" fill="#F1EDE4"/>
<path fill-rule="evenodd" clip-rule="evenodd" d="M40.7988 22.6615C40.5773 22.2822 41.2486 22.1043 41.4131 21.8694C42.477 20.886 43.5544 19.765 43.843 18.3117C42.8496 19.5871 42.044 21.0706 40.6579 21.9835C40.4364 22.148 39.9799 22.5406 39.896 22.0473C39.896 21.9097 40.0068 21.819 40.1142 21.7553C40.5572 21.4599 40.9734 21.131 41.3459 20.7517C42.2018 19.9261 42.7422 18.8386 43.504 17.9525C43.6886 17.7713 44.0075 17.6572 44.2022 17.8821C44.615 18.5634 43.984 19.3924 43.6786 20.01C43.3966 20.5235 41.3359 23.1213 40.7988 22.6615Z" fill="#F1EDE4"/>
<path fill-rule="evenodd" clip-rule="evenodd" d="M47.0651 21.2449C46.7866 20.2078 50.2704 19.6137 50.9081 18.9089C50.304 18.1068 47.2128 20.1977 46.4879 20.6844C46.2932 20.9093 45.7965 20.9596 45.8837 20.5468C46.0213 20.3018 46.4442 20.1642 46.6456 19.9796C47.7465 19.258 48.9111 18.5531 50.21 18.2611C51.7942 18.0128 51.7674 19.3822 50.3845 19.7916C49.5488 20.1743 48.6225 20.4092 47.8505 20.9126C47.5988 21.0234 47.3571 21.4832 47.0685 21.2449H47.0651Z" fill="#F1EDE4"/>
<path fill-rule="evenodd" clip-rule="evenodd" d="M13.814 61.2054C15.1229 60.1213 15.1162 58.2451 15.4351 56.7012C15.8345 54.5129 15.6432 52.2809 15.9352 50.0758C16.0157 48.3104 17.3113 46.9679 18.0429 45.4407C18.788 44.1217 18.9458 42.5812 19.617 41.2386C20.2682 39.9867 21.3892 39.1141 22.1477 37.9561C22.4733 37.4728 22.7619 36.9627 23.1747 36.5465C23.6379 36.0766 24.2588 35.7947 24.6918 35.2912C25.3161 34.5528 25.7457 33.66 26.4472 32.9821C27.0815 32.3242 27.9038 31.9349 28.6758 31.4684C29.6759 30.7703 30.3942 29.7533 31.3709 29.0317C32.0724 28.5182 32.9181 28.2765 33.6901 27.8972C34.7977 27.2998 35.7307 26.4305 36.8249 25.8063C38.1607 24.8598 39.8691 24.7792 41.3627 24.259C43.5107 23.3259 45.7259 22.6815 48.0518 22.4332C50.032 21.9465 52.0358 21.3826 54.0898 21.7216C55.8217 21.7854 57.5703 21.7048 59.2653 22.1277C62.2121 22.95 64.9073 24.4134 67.5017 26.0076C68.7402 26.944 69.2 28.5349 70.274 29.6291C71.583 31.0119 72.4993 32.3209 73.1168 34.14C74.2177 36.3384 76.604 38.4864 75.7952 41.1446C75.8824 40.0673 75.389 39.1476 74.7782 38.2951C73.9593 36.8351 72.7678 35.6034 72.0898 34.0628C71.63 32.3947 70.4519 31.1697 69.3611 29.8875C68.2669 28.6021 68.0119 26.6386 66.2599 25.9942C63.3566 24.3194 60.1983 22.8661 56.8152 22.6177C54.6805 22.6513 52.5191 22.319 50.4147 22.7789C48.233 23.3964 45.9407 23.4837 43.796 24.2254C42.138 24.9068 40.4464 25.4572 38.7078 25.8834C37.1975 26.4205 35.9791 27.4978 34.6433 28.347C33.6431 29.0115 32.3308 29.0518 31.4279 29.8808C30.5352 30.7132 29.8035 31.7369 28.753 32.3914C28.0146 32.8176 27.2829 33.2707 26.7257 33.9286C26.0075 34.7441 25.504 35.7611 24.5978 36.3988C23.4802 37.0264 22.9096 38.1844 22.1578 39.1644C19.5466 41.9435 20.3084 42.3059 19.033 45.377C18.1738 47.2733 16.3144 48.7266 16.405 50.9652C15.8278 54.3283 17.2844 59.111 13.8173 61.1987L13.814 61.2054Z" fill="#F1EDE4"/>
<path fill-rule="evenodd" clip-rule="evenodd" d="M10.1994 62.642C9.36367 62.5883 8.4239 62.4272 7.81977 61.7996C7.43043 61.3666 7.18542 60.8128 7.08138 60.2423C6.99747 59.6784 7.05788 59.1011 6.93705 58.544C6.91356 58.403 6.8565 58.252 6.83301 58.1143C7.172 58.7286 7.34653 59.4132 7.54119 60.0845C7.79963 60.7692 8.24938 61.4338 8.92064 61.766C9.85034 62.2292 10.8774 62.4339 11.9078 62.5313C11.354 62.6152 10.77 62.6588 10.2028 62.6387L10.1994 62.642Z" fill="#F1EDE4"/>
<path fill-rule="evenodd" clip-rule="evenodd" d="M4.82233 56.1576C4.38601 55.9092 3.97989 55.587 3.51001 55.4058C3.51672 55.4092 3.52008 55.4125 3.52679 55.4159C3.51672 55.4125 3.50329 55.4092 3.49658 55.3991C3.49658 55.3991 3.49658 55.3957 3.49658 55.3924C4.11415 55.4696 4.69479 55.7582 5.29893 55.9059C6.00375 56.0972 6.72536 56.2012 7.45033 56.2617C9.52789 56.3892 11.8807 55.1809 13.5823 54.0633C14.1193 53.6974 14.6597 53.3316 15.1598 52.9154C15.3041 52.6033 15.4518 52.2911 15.6163 51.9924C15.6666 51.8984 15.7304 51.7776 15.8277 51.7206C16.5191 51.5125 15.9116 52.9389 15.7572 53.1738C14.7973 54.7245 12.5587 55.8253 10.8939 56.463C8.80628 57.2853 6.77906 57.3357 4.81562 56.1543L4.82233 56.1576Z" fill="#F1EDE4"/>
<path fill-rule="evenodd" clip-rule="evenodd" d="M13.6865 54.7007C14.4954 53.4757 15.2002 52.1835 15.8715 50.8812C15.8816 50.8812 15.8782 50.8913 15.8782 50.8846C15.4922 52.3009 14.8646 53.771 13.6899 54.7007H13.6865Z" fill="#F1EDE4"/>
<path fill-rule="evenodd" clip-rule="evenodd" d="M12.166 55.389C12.6157 54.8251 12.9916 54.1941 13.3944 53.6068C13.7971 53.0261 14.1831 52.4488 14.5926 51.8783C14.6127 51.8548 14.6295 51.8212 14.653 51.8111C14.6463 51.8212 14.6396 51.8313 14.6328 51.8447C14.0623 53.1637 13.3306 54.513 12.1626 55.389H12.166Z" fill="#F1EDE4"/>
<path fill-rule="evenodd" clip-rule="evenodd" d="M11.1689 55.4492C11.8536 54.5967 12.5249 53.7006 13.364 52.9991C12.7229 53.8852 12.0886 54.8317 11.1689 55.4492Z" fill="#F1EDE4"/>
<path fill-rule="evenodd" clip-rule="evenodd" d="M9.43408 56.1642C10.0047 55.4795 10.5517 54.7411 11.2767 54.2142C10.7531 54.9358 10.2027 55.6977 9.43408 56.1642Z" fill="#F1EDE4"/>
<path fill-rule="evenodd" clip-rule="evenodd" d="M7.92041 56.5602C8.28289 56.1608 8.70243 55.795 9.16225 55.5231C8.80312 55.9259 8.38023 56.2884 7.92041 56.5602Z" fill="#F1EDE4"/>
<path fill-rule="evenodd" clip-rule="evenodd" d="M68.8945 46.9478C69.2671 46.3134 69.5759 45.6422 69.9216 44.991C70.5593 43.7425 71.2339 42.5107 71.8212 41.2353C71.8212 41.2353 71.8212 41.2387 71.8212 41.242C71.9421 40.9601 72.0696 40.6782 72.1636 40.3895C71.885 41.8025 71.207 43.1081 70.5391 44.3701C70.0491 45.2596 69.5557 46.1758 68.8979 46.9478H68.8945Z" fill="#F1EDE4"/>
<path fill-rule="evenodd" clip-rule="evenodd" d="M70.7773 45.6692C71.3076 44.7966 71.8279 43.9206 72.4522 43.1218C72.0628 44.0615 71.5292 44.9778 70.7773 45.6692Z" fill="#F1EDE4"/>
<path fill-rule="evenodd" clip-rule="evenodd" d="M19.835 61.7693C20.6136 61.38 21.2547 60.7926 21.9327 60.259C22.5435 59.7656 23.1611 59.2756 23.7988 58.8157C22.7281 60.0005 21.4191 61.3565 19.835 61.7693Z" fill="#F1EDE4"/>
<path fill-rule="evenodd" clip-rule="evenodd" d="M15.6699 62.2124C16.4217 61.7526 17.2138 61.3498 18.0294 61.0377C17.3246 61.5713 16.509 61.9573 15.6699 62.2124Z" fill="#F1EDE4"/>
<path fill-rule="evenodd" clip-rule="evenodd" d="M72.8315 41.9064C73.1571 40.9667 73.2779 39.9698 73.4424 38.9898C73.4424 38.9898 73.4424 38.9932 73.4424 38.9965V39.0032C73.5666 38.1406 73.6706 37.2881 73.7109 36.4222C73.7277 36.1403 73.7176 35.8516 73.7243 35.5798C74.0902 37.3821 73.768 40.3189 72.8315 41.9098V41.9064Z" fill="#F1EDE4"/>
<path fill-rule="evenodd" clip-rule="evenodd" d="M73.248 42.2792C73.5534 41.6616 73.7212 40.9937 73.926 40.3359C74.1341 39.6914 74.3254 39.0403 74.4093 38.3657C74.5469 39.5404 74.0065 41.3763 73.2446 42.2758L73.248 42.2792Z" fill="#F1EDE4"/>
<path fill-rule="evenodd" clip-rule="evenodd" d="M73.3887 42.7155C73.8183 41.6113 74.3385 40.5339 74.9292 39.5135C74.6204 40.6681 74.0633 41.7455 73.3887 42.7155Z" fill="#F1EDE4"/>
<path fill-rule="evenodd" clip-rule="evenodd" d="M16.694 55.3252C16.6537 52.6469 17.6875 49.7 18.8756 47.3238C18.7716 47.6661 18.6474 48.0219 18.54 48.3676C17.7882 50.6432 17.0296 52.949 16.694 55.3252Z" fill="#F1EDE4"/>
<path fill-rule="evenodd" clip-rule="evenodd" d="M17.0259 56.8188C17.1131 54.7513 17.8146 52.5864 18.798 50.7707C18.2039 52.7811 17.5428 54.7882 17.0259 56.8154V56.8188Z" fill="#F1EDE4"/>
<path fill-rule="evenodd" clip-rule="evenodd" d="M18.3418 56.7081C18.3519 55.7415 18.6573 54.7581 19.1943 53.9593C18.8956 54.8689 18.5969 55.7918 18.3418 56.7081Z" fill="#F1EDE4"/>
<path fill-rule="evenodd" clip-rule="evenodd" d="M22.2885 41.7557C22.2784 41.5711 22.3523 41.3966 22.4161 41.2254C22.5906 40.7924 22.7315 40.3393 22.9732 39.9399C23.3659 39.3224 23.8828 38.8055 24.3627 38.2584C24.6883 37.8825 25.0038 37.4965 25.3159 37.1105C26.8464 35.1974 27.4237 33.9455 29.904 33.0964C30.2464 32.9755 30.5988 32.8514 30.9478 32.7675C30.6659 32.9084 30.3907 33.0561 30.1255 33.2071C29.3536 33.6502 28.5883 34.1268 27.9439 34.7477C26.9135 35.8016 26.1214 37.0568 25.1582 38.1678C24.5675 38.9297 23.772 39.4969 23.1544 40.2353C22.9464 40.5105 22.7651 40.8025 22.5872 41.0978C22.4731 41.3059 22.3187 41.5207 22.2852 41.7557H22.2885Z" fill="#F1EDE4"/>
<path fill-rule="evenodd" clip-rule="evenodd" d="M27.0107 39.262C27.541 37.8221 28.5177 35.8855 29.7629 34.9626C29.1957 35.6137 28.7695 36.3856 28.3298 37.1274C27.9102 37.849 27.437 38.5538 27.0141 39.262H27.0107Z" fill="#F1EDE4"/>
<path fill-rule="evenodd" clip-rule="evenodd" d="M27.689 40.017C27.8836 39.4196 28.1186 38.7987 28.5683 38.3422C28.2696 38.8859 28.0246 39.4934 27.689 40.017Z" fill="#F1EDE4"/>
<path fill-rule="evenodd" clip-rule="evenodd" d="M46.2261 29.5925C46.4342 27.7431 48.1224 25.3367 49.4012 24.0042C49.4951 23.9136 49.5891 23.8263 49.6864 23.7424C49.5723 23.8968 49.4414 24.0579 49.3273 24.2224C48.6997 25.1185 48.1224 26.0448 47.5451 26.9745C47.0417 27.8103 46.5114 28.6628 46.2261 29.5958V29.5925Z" fill="#F1EDE4"/>
<path fill-rule="evenodd" clip-rule="evenodd" d="M47.582 28.7834C48.0788 27.4375 48.9716 26.0681 50.0187 25.0847C49.5354 25.8265 49.089 26.6118 48.5822 27.3469C48.2533 27.8268 47.9042 28.3034 47.5854 28.7834H47.582Z" fill="#F1EDE4"/>
<path fill-rule="evenodd" clip-rule="evenodd" d="M49.4277 27.7195C49.5351 26.9811 50.0184 26.3401 50.5387 25.8366C50.1963 26.4811 49.7365 27.0617 49.4277 27.7195Z" fill="#F1EDE4"/>
<path fill-rule="evenodd" clip-rule="evenodd" d="M45.6382 27.9779C45.8429 27.0247 46.3631 26.1051 47.1015 25.4741C46.8565 25.7929 46.6786 26.1621 46.4706 26.5011C46.1819 26.9844 45.8866 27.4745 45.6382 27.9779Z" fill="#F1EDE4"/>
<path fill-rule="evenodd" clip-rule="evenodd" d="M58.4131 28.6761C58.7655 28.0183 59.0038 27.3235 59.2723 26.6288C59.5811 25.7964 59.8764 24.954 60.0577 24.0813C60.1013 23.8833 60.1349 23.6752 60.1684 23.4839C60.1785 23.598 60.1819 23.7121 60.1852 23.8262C60.1852 25.4742 59.4603 27.4074 58.4164 28.6728L58.4131 28.6761Z" fill="#F1EDE4"/>
<path fill-rule="evenodd" clip-rule="evenodd" d="M59.4062 28.5114C60.1883 27.5548 60.7857 26.2895 60.9703 25.0644C60.9804 24.994 60.9837 24.9134 60.9938 24.8496C61.0072 24.9403 61.0139 25.0275 61.0173 25.1181C61.0508 26.4036 60.4434 27.7461 59.4062 28.5114Z" fill="#F1EDE4"/>
<path fill-rule="evenodd" clip-rule="evenodd" d="M60.1079 29.072C60.2455 28.8706 60.3865 28.6726 60.5375 28.4813C60.7691 28.1825 61.0275 27.9073 61.2726 27.622C61.0007 28.1792 60.561 28.6591 60.1079 29.072Z" fill="#F1EDE4"/>
<path fill-rule="evenodd" clip-rule="evenodd" d="M14.2402 61.8198C14.6597 61.7627 15.1162 61.7157 15.4619 61.4439C16.1197 60.9169 16.7272 60.3296 17.3179 59.7321C17.4555 59.5979 17.5965 59.4468 17.7375 59.326C17.6334 59.4737 17.5327 59.6247 17.4253 59.7724C16.9219 60.4873 16.3379 61.1519 15.5995 61.6285C15.2001 61.8869 14.6933 61.8735 14.2368 61.8198H14.2402Z" fill="#F1EDE4"/>
<path fill-rule="evenodd" clip-rule="evenodd" d="M11.8506 62.2661C12.9145 61.6653 13.9516 60.9907 15.019 60.41C14.1497 61.2894 13.0622 61.9909 11.8506 62.2661Z" fill="#F1EDE4"/>
<path fill-rule="evenodd" clip-rule="evenodd" d="M24.8728 45.6758C24.3761 45.3166 24.809 44.3668 25.148 44.0345C25.0104 44.2426 24.9466 44.4977 24.8997 44.7427C25.1917 44.3198 25.8629 44.3164 25.8696 44.9273C25.8629 45.377 25.3293 45.951 24.8728 45.6791V45.6758ZM25.0943 45.4643C25.383 45.424 25.6918 45.0582 25.6011 44.7628C25.4702 44.4708 25.0473 44.6856 24.8862 44.84C24.856 45.0481 24.8392 45.4307 25.1145 45.461H25.0943V45.4643Z" fill="#F1EDE4"/>
<path fill-rule="evenodd" clip-rule="evenodd" d="M24.8095 43.3096C24.6719 43.3163 24.5544 43.2257 24.5141 43.0981C24.4369 42.8665 24.5644 42.598 24.6987 42.4201C24.6316 42.6282 24.541 42.8867 24.6517 43.088C24.8061 43.3196 25.1317 43.0813 25.1954 42.89C25.2021 42.8665 25.2021 42.8363 25.2122 42.8195C25.2189 42.8598 25.2256 42.8967 25.2189 42.937C25.1787 43.1283 25.0075 43.2995 24.8095 43.3163V43.3096Z" fill="#F1EDE4"/>
<path fill-rule="evenodd" clip-rule="evenodd" d="M22.2951 49.1126C21.8722 48.6394 22.2951 47.9278 22.5603 47.4814C22.4998 47.948 22.0635 48.683 22.4998 49.0354C22.6509 49.1026 22.9597 48.9079 22.7516 48.7904C23.1577 48.9482 22.4965 49.3643 22.2918 49.1093L22.2951 49.1126Z" fill="#F1EDE4"/>
<path fill-rule="evenodd" clip-rule="evenodd" d="M28.5515 42.2186C28.4206 41.9971 28.585 41.7252 28.6857 41.5306C28.6589 41.7185 28.5817 41.9166 28.6354 42.1045C28.7092 42.2623 28.9005 42.0676 28.9106 41.9602C28.9509 41.7957 28.8535 41.6514 28.7595 41.5272C28.9911 41.6447 29.1321 41.987 28.9274 42.1985C28.8334 42.3059 28.6421 42.3562 28.5515 42.2186Z" fill="#F1EDE4"/>
<path fill-rule="evenodd" clip-rule="evenodd" d="M39.4697 31.2806C39.6208 30.7369 39.8792 29.8173 40.6109 29.9683C40.6713 29.9415 40.7418 29.9079 40.8022 29.8945C40.7552 29.9247 40.7116 29.9515 40.6679 29.9851C41.0975 30.1294 41.0875 30.7033 40.7518 30.9517C40.4867 31.1867 39.8121 31.3343 39.7752 30.8342C39.6678 30.9786 39.5704 31.1363 39.4697 31.2806ZM40.0974 30.851C40.1209 30.8544 40.1813 30.851 40.1947 30.8477C40.3759 30.804 40.5874 30.6866 40.631 30.4986C40.631 30.502 40.631 30.5087 40.631 30.512C40.631 30.5154 40.631 30.5187 40.631 30.5221C40.6377 30.4919 40.6444 30.4583 40.6377 30.4281C40.6377 30.4348 40.6377 30.4416 40.6411 30.4483C40.6377 30.4181 40.6243 30.3879 40.6042 30.3644C40.6109 30.3711 40.6142 30.3744 40.6176 30.3811C40.5538 30.2939 40.4196 30.2804 40.3256 30.3107C40.2148 30.4449 40.0705 30.5792 40.047 30.7604C40.0403 30.8175 40.0604 30.851 40.1175 30.8544H40.0974V30.851Z" fill="#F1EDE4"/>
<path fill-rule="evenodd" clip-rule="evenodd" d="M41.5976 32.3578C41.5674 31.9852 41.9467 31.7402 42.2152 31.5657C42.0675 31.7335 41.9097 31.9047 41.799 32.096C41.5372 32.5525 42.1749 32.6095 42.0272 32.2571C42.1413 32.3343 42.1111 32.5189 41.9869 32.5726C41.8292 32.6364 41.6144 32.539 41.5942 32.3578H41.5976Z" fill="#F1EDE4"/>
<path fill-rule="evenodd" clip-rule="evenodd" d="M44.024 29.7935C43.4232 29.6089 43.8025 28.7731 44.2019 28.5684C44.2455 28.5449 44.3059 28.5214 44.3495 28.5147C44.1817 28.5986 44.0643 28.7429 43.9871 28.9108C43.8696 29.139 43.7454 29.4981 44.0038 29.6726C44.1381 29.7532 44.3193 29.6894 44.3697 29.5451C44.373 29.7129 44.1851 29.827 44.024 29.7935Z" fill="#F1EDE4"/>
<path fill-rule="evenodd" clip-rule="evenodd" d="M54.3916 26.085C54.1097 26.0381 53.9049 25.7427 53.9855 25.4641C54.066 25.1856 54.3278 24.9674 54.5997 24.8835C54.4319 24.9875 54.2875 25.152 54.1969 25.3299C53.9318 25.9004 54.7406 26.0616 54.9924 25.6353C55.1065 25.4239 55.0528 25.1319 54.8715 24.9842C55.1468 25.0849 55.2441 25.4339 55.1568 25.6924C55.0528 25.9978 54.6937 26.1387 54.3916 26.085Z" fill="#F1EDE4"/>
<path fill-rule="evenodd" clip-rule="evenodd" d="M58.9732 29.525C58.5738 29.3739 58.2986 28.8436 58.8255 28.6557C58.2449 29.0249 59.2451 29.5921 59.5069 29.2027C59.3928 28.7698 58.8826 28.4342 58.4463 28.4442C59.5975 27.9106 60.601 30.015 58.9699 29.525H58.9732Z" fill="#F1EDE4"/>
<path fill-rule="evenodd" clip-rule="evenodd" d="M64.9076 28.5988C64.7902 28.4847 64.7297 28.3035 64.7834 28.1491C64.817 28.0584 64.8808 27.9443 64.9848 27.9343C64.8808 27.9779 64.8439 28.1189 64.8439 28.2263C64.8304 28.4243 65.1392 28.7465 65.25 28.4713C65.2735 28.3739 65.25 28.2665 65.2466 28.1759C65.2902 28.2598 65.3272 28.3471 65.3339 28.4444C65.3574 28.6827 65.0553 28.7599 64.911 28.6022L64.9076 28.5988Z" fill="#F1EDE4"/>
<path fill-rule="evenodd" clip-rule="evenodd" d="M36.4357 28.9177C36.043 28.5753 36.4559 28.0719 36.7747 27.8504C36.7647 27.8504 36.7512 27.8537 36.7445 27.8504C36.9728 27.7262 37.1808 27.5248 37.4292 27.4442C37.295 27.5449 37.1708 27.6523 37.0567 27.7732C37.4091 27.7396 37.7883 28.0484 37.7044 28.4209C37.5937 28.9277 36.862 29.213 36.4357 28.9177ZM36.8419 28.7096C37.1204 28.6962 37.5433 28.5082 37.4527 28.1692C37.3789 27.9779 37.1741 27.8772 36.9862 27.8537C36.815 28.0618 36.5297 28.3035 36.5733 28.5955C36.5935 28.6458 36.627 28.6727 36.674 28.6861C36.6707 28.6861 36.6673 28.6861 36.6606 28.6827C36.6573 28.6827 36.6505 28.6794 36.6472 28.676C36.7076 28.7062 36.7781 28.7062 36.8452 28.7062L36.8419 28.7096Z" fill="#F1EDE4"/>
<path fill-rule="evenodd" clip-rule="evenodd" d="M40.5872 26.5314C40.5033 26.471 40.4361 26.3837 40.416 26.2797C40.416 26.2696 40.4127 26.2562 40.4093 26.2461C40.4026 26.2461 40.3959 26.2495 40.3892 26.2528C40.3959 26.2495 40.4026 26.2428 40.4093 26.2394C40.3724 25.6856 41.0671 25.3332 41.5068 25.1788C41.1813 25.4104 40.7919 25.6688 40.6644 26.0682C40.7986 25.991 40.9463 25.9306 41.1007 25.9273C41.2887 25.9273 41.5035 26.1018 41.4531 26.3032C41.3625 26.6287 40.8355 26.6992 40.5838 26.5348L40.5872 26.5314ZM40.8691 26.3367C40.9933 26.3468 41.3759 26.2797 41.1276 26.132C40.9765 26.0749 40.8087 26.132 40.6577 26.1656C40.6577 26.2092 40.6812 26.2528 40.7114 26.283C40.7483 26.3099 40.7852 26.3233 40.8154 26.33C40.8389 26.3334 40.8624 26.3367 40.8859 26.3367H40.8658H40.8691Z" fill="#F1EDE4"/>
<path fill-rule="evenodd" clip-rule="evenodd" d="M44.3835 25.0847C43.8734 24.9706 44.2895 24.5712 44.605 24.5611C44.5178 24.6416 44.162 24.786 44.3265 24.9068C44.6151 24.9571 45.0246 24.7893 45.0179 24.457C44.9239 23.9838 45.5213 25.1149 44.3869 25.0847H44.3835Z" fill="#F1EDE4"/>
<path fill-rule="evenodd" clip-rule="evenodd" d="M33.5088 30.992C33.68 30.9181 33.6665 30.7167 33.7135 30.5624C33.7739 30.3778 33.9518 29.9481 34.1566 29.9179C34.0928 29.9381 34.0592 30.0018 34.029 30.0555C33.9384 30.2569 33.8679 30.4516 33.7974 30.653C33.7437 30.8074 33.7035 30.9886 33.5088 30.992Z" fill="#F1EDE4"/>
<path fill-rule="evenodd" clip-rule="evenodd" d="M35.019 34.8181C35.1432 33.687 35.9319 32.3713 36.8817 31.7437C36.865 31.7706 36.828 31.8041 36.8079 31.831C36.385 32.3109 36.0997 32.8882 35.7708 33.4319C35.4956 33.8783 35.2405 34.3516 35.0156 34.8181H35.019Z" fill="#F1EDE4"/>
<path fill-rule="evenodd" clip-rule="evenodd" d="M35.4688 35.8352C34.6935 35.6741 32.6495 35.1304 32.861 34.1168C32.7871 34.7914 34.9452 35.3854 35.4688 35.8352Z" fill="#F1EDE4"/>
<path fill-rule="evenodd" clip-rule="evenodd" d="M40.2415 34.093C40.124 34.036 39.926 33.9353 39.9562 33.7842C39.9562 33.8178 39.973 33.848 39.9965 33.8715C40.0703 33.9521 40.1677 34.0192 40.2415 34.093Z" fill="#F1EDE4"/>
<path fill-rule="evenodd" clip-rule="evenodd" d="M45.7056 32.5593C45.9942 32.425 46.0714 32.5123 45.7056 32.5593V32.5593Z" fill="#F1EDE4"/>
<path fill-rule="evenodd" clip-rule="evenodd" d="M54.8147 27.3403C54.7476 27.347 54.5966 27.2631 54.7443 27.2732C54.7376 27.2799 54.7241 27.2799 54.7141 27.2832C54.8852 27.2866 55.1269 27.3571 54.8147 27.3403Z" fill="#F1EDE4"/>
<path fill-rule="evenodd" clip-rule="evenodd" d="M57.0469 24.7593C57.2046 24.729 57.4329 24.7928 57.6007 24.8566C57.4194 24.8801 57.2013 24.87 57.0469 24.7593Z" fill="#F1EDE4"/>
<path fill-rule="evenodd" clip-rule="evenodd" d="M19.4326 56.7851C19.5769 55.456 19.8857 54.0161 20.8054 53.0025C20.4261 53.6771 20.2549 54.4256 19.9998 55.1472C19.8085 55.7043 19.6239 56.2447 19.4326 56.7851Z" fill="#F1EDE4"/>
<path fill-rule="evenodd" clip-rule="evenodd" d="M12.5386 40.5877C12.4983 39.9131 12.5789 39.2217 12.8407 38.5974C12.787 39.2586 12.7266 39.95 12.5386 40.5877Z" fill="#F1EDE4"/>
<path fill-rule="evenodd" clip-rule="evenodd" d="M13.1964 40.4533C13.0991 39.7015 13.1427 38.3892 13.5354 37.7347C13.4112 38.1173 13.4448 38.557 13.4011 38.9597C13.3676 39.4598 13.2904 39.9666 13.1964 40.4533Z" fill="#F1EDE4"/>
<path fill-rule="evenodd" clip-rule="evenodd" d="M13.8005 40.9468C13.5823 40.252 13.6193 38.3557 14.0858 37.7952C13.9985 37.9395 13.9985 38.1308 13.9784 38.302C13.9616 38.5436 13.9515 38.7853 13.9415 39.0269C13.928 39.668 13.8274 40.3124 13.8005 40.9468Z" fill="#F1EDE4"/>
<path fill-rule="evenodd" clip-rule="evenodd" d="M14.2232 41.5678C13.9748 40.7388 14.0923 38.7082 14.4917 37.9463C14.3474 38.5437 14.4112 39.2184 14.3541 39.8292C14.3239 40.4132 14.2299 40.9905 14.2232 41.5678Z" fill="#F1EDE4"/>
<path fill-rule="evenodd" clip-rule="evenodd" d="M14.9685 42.0811C14.6127 40.9198 14.6127 39.6746 14.6832 38.473C14.7134 38.1676 14.7336 37.8554 14.8108 37.5601C14.8208 37.5399 14.8141 37.5433 14.8275 37.5332C14.8309 37.5332 14.8309 37.5433 14.8275 37.5399C14.8275 38.4193 14.9517 39.2953 14.9484 40.178C14.9551 40.8124 14.9383 41.4568 14.9685 42.0844V42.0811Z" fill="#F1EDE4"/>
<path fill-rule="evenodd" clip-rule="evenodd" d="M15.5291 42.1617C14.9417 42.0811 15.1297 38.7919 15.3545 38.3288C15.3713 38.2851 15.3881 38.2348 15.4183 38.2012C15.4183 38.218 15.4015 38.2449 15.3982 38.265C15.3243 38.9396 15.4183 39.6176 15.4452 40.2922C15.5056 40.8292 15.4452 41.3965 15.5895 41.92C15.8681 41.6952 16.046 40.9601 16.3782 41.5878C16.2675 41.477 16.1198 41.289 16.0258 41.5273C15.9151 41.722 15.8043 42.1986 15.5257 42.165L15.5291 42.1617Z" fill="#F1EDE4"/>
<path fill-rule="evenodd" clip-rule="evenodd" d="M19.674 41.937C18.7477 41.4067 17.7273 40.9268 17.0292 40.0911C15.9921 38.8224 15.7068 37.114 16.8849 35.8352C17.3582 35.3217 17.9354 34.8854 18.6168 34.6974C18.1771 34.9995 17.8314 35.4325 17.5293 35.8722C15.8243 38.3391 17.9153 40.3965 19.7646 41.9437C19.8016 41.9672 19.8452 41.9706 19.8888 41.974C19.8217 41.9907 19.7378 41.974 19.6707 41.937H19.674Z" fill="#F1EDE4"/>
<path fill-rule="evenodd" clip-rule="evenodd" d="M16.4455 41.4267C14.915 40.8393 13.8745 38.7282 14.0826 37.1406C14.2773 34.8785 15.7071 33.254 17.8149 32.5056C18.3888 32.3008 19.0298 32.2639 19.6138 32.4384C20.3522 32.6734 21.047 33.0359 21.7283 33.4051C21.1745 33.2473 20.604 33.0996 20.0569 32.9889C19.6642 32.9117 19.2614 32.868 18.8654 32.9486C17.7712 33.2372 16.7677 33.8749 16.0125 34.7174C15.2976 35.5195 14.9318 36.6103 14.9116 37.6743C14.9351 38.6208 15.4218 39.8425 15.9252 40.6379C16.2709 41.138 16.8214 41.5878 17.4624 41.4401C17.1369 41.5743 16.761 41.5576 16.432 41.4233L16.4455 41.4267Z" fill="#F1EDE4"/>
<path fill-rule="evenodd" clip-rule="evenodd" d="M22.8189 33.4925C22.725 33.3784 22.9867 32.9757 23.0639 32.8615C23.601 32.1466 24.6179 32.2708 25.4067 32.3145C25.1113 31.6667 25.8665 31.123 26.3901 30.9082C26.6317 30.7974 26.9136 30.7974 27.1519 30.6967C27.3869 30.4718 27.4372 30.1228 27.5547 29.8341C27.7225 29.4112 27.9843 29.0219 28.3334 28.7299C28.7428 28.3607 29.3268 28.1895 29.8605 28.3607C30.1793 28.4815 30.4713 28.6661 30.817 28.7232C30.9949 28.7568 31.1695 28.7836 31.3473 28.7937C31.1258 28.8474 30.8775 28.8608 30.6425 28.8574C30.3975 28.8574 30.1189 28.797 29.8907 28.7467C29.3738 28.6426 28.914 28.9615 28.6388 29.3743C28.1958 29.9617 28.189 30.7706 27.6218 31.2572C27.397 31.4385 27.0982 31.4653 26.823 31.5157C26.5142 31.5794 26.1954 31.7305 26.0175 32.0023C26.2357 32.1768 26.4975 32.3782 26.4505 32.6937C26.4203 32.8783 26.2659 33.0226 26.0913 33.0763C25.5141 33.2173 24.9233 32.9924 24.3561 32.885C23.8527 32.7608 23.3392 32.7978 22.9901 33.2207C22.9297 33.3012 22.7015 33.5261 22.9398 33.4791C22.9062 33.4858 22.8558 33.516 22.8189 33.4992V33.4925Z" fill="#F1EDE4"/>
<path fill-rule="evenodd" clip-rule="evenodd" d="M23.7251 32.5727C23.8795 31.5792 24.0574 30.5656 24.5038 29.656C25.2556 28.1826 26.88 27.1455 28.3468 26.4743C29.0818 26.1185 29.837 25.7963 30.6358 25.6083C31.2063 25.4372 31.834 25.3902 32.4012 25.6016C33.4081 25.9708 34.076 26.7629 33.8108 27.8738C33.8713 26.6555 32.8543 26.0681 31.74 26.1252C30.5082 26.2695 29.4006 26.9072 28.3031 27.4476C27.5412 27.8235 26.8263 28.29 26.1786 28.8405C24.9535 29.8507 24.3393 31.1563 23.7285 32.5727H23.7251Z" fill="#F1EDE4"/>
<path fill-rule="evenodd" clip-rule="evenodd" d="M22.6377 32.9286C22.7719 32.4856 23.0874 31.7304 23.4868 31.4888C23.3425 31.6297 23.2754 31.8412 23.1814 32.0124C23.027 32.3312 22.8324 32.6366 22.6377 32.9286Z" fill="#F1EDE4"/>
<path fill-rule="evenodd" clip-rule="evenodd" d="M22.7416 32.6802C22.7416 32.6802 22.7114 32.6601 22.708 32.6534C22.7181 32.6601 22.7281 32.6634 22.7382 32.6668C22.7751 32.65 22.7986 32.6064 22.8154 32.5728C22.9262 32.3177 23.0034 32.0459 23.1242 31.7942C23.3289 31.3176 23.5605 30.8544 23.8257 30.408C23.9599 30.1965 24.074 29.9549 24.262 29.7837C24.2553 29.7904 24.2519 29.7971 24.2452 29.8005C23.9196 30.5288 23.6847 31.3041 23.2719 31.9955C23.1846 32.1533 23.094 32.3077 22.9899 32.452C22.9228 32.5359 22.8523 32.6634 22.7382 32.6769L22.7416 32.6802Z" fill="#F1EDE4"/>
<path fill-rule="evenodd" clip-rule="evenodd" d="M22.0203 32.6835C22.0203 32.6835 22.0371 32.65 22.0471 32.6432C22.0471 32.65 22.0438 32.6567 22.0404 32.6634C22.366 31.9921 22.7688 31.3544 23.242 30.7771C23.4132 30.569 23.5877 30.3576 23.7924 30.1797C23.8226 30.1529 23.8629 30.1193 23.9066 30.1294C23.9066 30.1327 23.8965 30.1294 23.8898 30.1327C23.8327 30.1596 23.8025 30.22 23.7656 30.267C23.3897 30.8812 23.0406 31.5155 22.5875 32.0794C22.4331 32.2808 22.2653 32.4721 22.0874 32.6533C22.0673 32.6735 22.0539 32.6936 22.0237 32.6936C22.0169 32.6936 22.0136 32.6869 22.0169 32.6802L22.0203 32.6835Z" fill="#F1EDE4"/>
<path fill-rule="evenodd" clip-rule="evenodd" d="M21.5771 33.0728C21.4697 33.0527 21.4932 32.9386 21.5267 32.8647C21.6039 32.6969 21.6878 32.5392 21.7751 32.3781C21.7583 32.4855 21.7281 32.6063 21.7113 32.7204C22.1678 32.0189 22.6712 31.351 23.2116 30.7133C23.3962 30.5019 23.5741 30.2737 23.8023 30.1025C23.809 30.1025 23.7889 30.1193 23.7855 30.1226C23.3089 30.7939 22.9364 31.5323 22.4396 32.1901C22.2852 32.3747 21.812 33.1299 21.5771 33.0728Z" fill="#F1EDE4"/>
<path fill-rule="evenodd" clip-rule="evenodd" d="M21.1376 32.6667C21.1611 32.5493 21.3524 32.2237 21.2585 32.509C21.7351 31.7303 22.7789 30.3173 23.289 30.1059C22.893 30.5254 21.6008 32.8446 21.1343 32.6667H21.1376Z" fill="#F1EDE4"/>
<path fill-rule="evenodd" clip-rule="evenodd" d="M20.7212 32.7709C21.2146 32.0392 22.057 30.7235 22.6209 30.4752C22.01 31.2438 21.5502 32.2137 20.7212 32.7709Z" fill="#F1EDE4"/>
<path fill-rule="evenodd" clip-rule="evenodd" d="M19.4192 32.9219C19.1674 32.6937 19.4695 32.3749 19.5735 32.1466C19.4963 32.2104 19.013 32.7776 18.9593 32.5829C18.9392 32.4755 19.0667 32.3749 19.0265 32.2775C18.9694 32.2742 18.9157 32.3279 18.8721 32.348C19.0265 32.1835 19.1305 32.2238 19.0701 32.4521C19.3453 32.1265 19.5601 31.7439 19.8756 31.4552C20.0199 31.3545 20.1844 31.4351 20.181 31.613C20.3388 31.4116 20.6274 31.4217 20.6677 31.7036C21.094 31.2807 21.4497 30.7504 21.9532 30.4215C21.5571 30.8276 21.2987 31.3378 20.9933 31.811C20.8087 32.0694 20.4529 32.9824 20.0535 32.5628C19.9192 32.7608 19.6944 33.1099 19.4192 32.9253V32.9219Z" fill="#F1EDE4"/>
<path fill-rule="evenodd" clip-rule="evenodd" d="M33.1499 26.7291C33.1533 26.4774 33.2372 26.2357 33.3311 26.0041C33.5661 25.4168 33.8849 24.863 34.2474 24.3461C34.0729 24.8932 33.8379 25.4369 33.5527 25.9404C33.4083 26.1988 33.2338 26.4505 33.1499 26.7291Z" fill="#F1EDE4"/>
<path fill-rule="evenodd" clip-rule="evenodd" d="M33.8516 26.6085C34.1066 25.7426 34.5665 24.927 35.1471 24.2356C34.8148 25.0679 34.3718 25.8802 33.8516 26.6085Z" fill="#F1EDE4"/>
<path fill-rule="evenodd" clip-rule="evenodd" d="M34.0088 27.3737C34.1162 26.528 35.2372 24.6585 35.8346 24.0174C35.4621 24.6853 35.1533 25.3902 34.764 26.0514C34.5223 26.4944 34.2068 26.9139 34.0088 27.3737Z" fill="#F1EDE4"/>
<path fill-rule="evenodd" clip-rule="evenodd" d="M34.2773 27.7062C34.5391 26.8705 34.9553 26.0885 35.4286 25.3534C35.7004 24.9473 35.9656 24.5244 36.3448 24.2056C35.9589 24.7661 35.6904 25.4105 35.3413 25.9978C35.0057 26.5785 34.6432 27.1491 34.2773 27.7062Z" fill="#F1EDE4"/>
<path fill-rule="evenodd" clip-rule="evenodd" d="M42.0908 24.0142C42.3191 23.39 42.6211 22.7925 43.0071 22.2488C43.1011 22.1146 43.2051 21.987 43.3159 21.8628C43.3562 21.8192 43.4132 21.7521 43.4703 21.7386C43.2722 21.9702 43.1648 22.2924 43.0172 22.5542C42.7587 23.0678 42.4533 23.5746 42.0942 24.0176L42.0908 24.0142Z" fill="#F1EDE4"/>
<path fill-rule="evenodd" clip-rule="evenodd" d="M42.5405 23.8361C42.8124 23.1615 43.138 22.5238 43.5407 21.923C43.7085 21.6747 43.873 21.4229 44.071 21.1981C44.0945 21.1746 44.1348 21.1175 44.165 21.1209C43.8763 21.6008 43.6951 22.1513 43.393 22.6312C43.1447 23.0541 42.8694 23.4804 42.5405 23.8361Z" fill="#F1EDE4"/>
<path fill-rule="evenodd" clip-rule="evenodd" d="M43.3027 23.3496C43.7827 22.3997 44.4036 21.5204 45.1017 20.7383C44.6453 21.6949 44.0478 22.6011 43.3027 23.3496Z" fill="#F1EDE4"/>
<path fill-rule="evenodd" clip-rule="evenodd" d="M43.8428 23.2589C44.2254 22.3896 44.8027 21.621 45.4202 20.9028C45.5478 20.7685 45.6552 20.6074 45.8163 20.5134C45.531 20.9095 45.3028 21.3861 45.0141 21.7821C44.6617 22.3023 44.2522 22.7924 43.8428 23.2589Z" fill="#F1EDE4"/>
<path fill-rule="evenodd" clip-rule="evenodd" d="M44.5444 23.1314C44.7122 22.6783 44.9908 22.2755 45.2593 21.8761C45.5849 21.4297 45.9105 20.9665 46.3199 20.5974C46.0648 20.9766 45.8534 21.4062 45.5882 21.7888C45.2795 22.2621 44.9002 22.6984 44.5478 23.1314H44.5444Z" fill="#F1EDE4"/>
<path fill-rule="evenodd" clip-rule="evenodd" d="M45.4409 23.4603C45.8571 22.336 46.4277 21.2754 47.0754 20.2718C46.7465 21.4163 46.176 22.5206 45.4409 23.4603Z" fill="#F1EDE4"/>
<path fill-rule="evenodd" clip-rule="evenodd" d="M46.105 23.467C46.407 22.5541 46.9105 21.7183 47.4441 20.9229C47.132 21.8224 46.6722 22.7017 46.105 23.467Z" fill="#F1EDE4"/>
<path fill-rule="evenodd" clip-rule="evenodd" d="M47.6724 22.2621C47.716 22.1077 47.7831 21.9533 47.8838 21.8325C47.8368 21.9835 47.7697 22.1413 47.6724 22.2621Z" fill="#F1EDE4"/>
<path fill-rule="evenodd" clip-rule="evenodd" d="M52.395 22.2081C52.5427 21.4395 53.1267 20.8086 53.6637 20.2682C53.3482 20.9764 52.7911 21.557 52.395 22.2081Z" fill="#F1EDE4"/>
<path fill-rule="evenodd" clip-rule="evenodd" d="M53.667 21.5572C53.8751 21.1679 54.1604 20.6477 54.6135 20.5403C54.2409 20.7819 54.0261 21.2753 53.667 21.5572Z" fill="#F1EDE4"/>
<path fill-rule="evenodd" clip-rule="evenodd" d="M54.3784 21.9097C54.4556 21.3626 54.8953 20.8961 55.3115 20.5705C55.0363 21.0404 54.6469 21.4465 54.3784 21.9097Z" fill="#F1EDE4"/>
<path fill-rule="evenodd" clip-rule="evenodd" d="M55.8618 20.886C55.9122 20.7954 55.986 20.6611 56.0766 20.6276C56.0061 20.7115 55.9457 20.8189 55.8652 20.886H55.8618Z" fill="#F1EDE4"/>
<path fill-rule="evenodd" clip-rule="evenodd" d="M55.9629 21.3826C55.9629 21.245 56.0804 21.1275 56.218 21.1275C56.3556 21.1275 56.4731 21.245 56.4731 21.3826C56.4731 21.5202 56.3556 21.6377 56.218 21.6377C56.0804 21.6377 55.9629 21.5202 55.9629 21.3826Z" fill="#F1EDE4"/>
<path fill-rule="evenodd" clip-rule="evenodd" d="M13.1729 48.0588C13.0353 47.0553 13.2401 46.0316 13.5589 45.0818C13.5086 46.0752 13.3038 47.0754 13.1729 48.0588Z" fill="#F1EDE4"/>
<path fill-rule="evenodd" clip-rule="evenodd" d="M13.5386 48.8307C13.4983 47.3874 13.6057 45.904 14.0353 44.5211C13.9447 45.961 13.8474 47.4177 13.5386 48.8307Z" fill="#F1EDE4"/>
<path fill-rule="evenodd" clip-rule="evenodd" d="M13.7672 50.2334C13.6396 49.0889 13.7101 47.9008 14.0592 46.7999C14.029 47.9411 13.9551 49.1057 13.7672 50.2334Z" fill="#F1EDE4"/>
<path fill-rule="evenodd" clip-rule="evenodd" d="M14.1598 51.0359C13.7403 50.9385 14.1967 49.3174 14.2941 48.9986C14.284 49.5423 14.2404 50.0995 14.2504 50.6465C14.3847 50.4418 14.4451 50.1565 14.67 50.029C14.8109 49.9786 14.8747 50.1297 14.8814 50.2438C14.8982 50.3613 14.915 50.4922 14.9049 50.6063C14.8881 50.5089 14.8579 50.4116 14.8277 50.3176C14.6431 49.6631 14.4988 51.1466 14.1632 51.0392L14.1598 51.0359Z" fill="#F1EDE4"/>
<path fill-rule="evenodd" clip-rule="evenodd" d="M15.4111 49.9015C15.4313 49.5994 15.4917 49.2839 15.6125 49.0087C15.5789 49.3108 15.5219 49.6229 15.4111 49.9015Z" fill="#F1EDE4"/>
<path fill-rule="evenodd" clip-rule="evenodd" d="M14.3306 45.8333C14.3306 45.5078 14.3675 45.1822 14.4816 44.8734C14.5152 44.7962 14.542 44.6888 14.6091 44.6418C14.5252 44.8466 14.5319 45.0815 14.4749 45.2963C14.4346 45.4742 14.391 45.6622 14.3306 45.83V45.8333Z" fill="#F1EDE4"/>
<path fill-rule="evenodd" clip-rule="evenodd" d="M14.6798 46.2596C14.6764 45.3668 14.7603 44.4371 15.0624 43.598C15.0255 44.5008 14.9751 45.407 14.6798 46.2596Z" fill="#F1EDE4"/>
<path fill-rule="evenodd" clip-rule="evenodd" d="M15.2675 46.3974C15.1936 45.3737 15.3379 44.3433 15.5729 43.3532C15.6467 44.3668 15.499 45.414 15.2675 46.3974Z" fill="#F1EDE4"/>
<path fill-rule="evenodd" clip-rule="evenodd" d="M15.512 47.1458C15.4684 46.0281 15.6127 44.8668 15.9282 43.8062C15.9282 44.9306 15.7973 46.0617 15.512 47.1458Z" fill="#F1EDE4"/>
<path fill-rule="evenodd" clip-rule="evenodd" d="M16.0492 46.6591C16.0089 45.8402 16.0794 45.0145 16.2405 44.2157C16.3009 45.0313 16.2405 45.867 16.0492 46.6591Z" fill="#F1EDE4"/>
<path fill-rule="evenodd" clip-rule="evenodd" d="M13.4383 51.7373C12.8711 51.3211 12.2099 51.0291 11.7165 50.5122C10.9748 49.7705 10.6358 48.7334 10.4378 47.7265C10.2398 46.2933 10.7633 44.7494 11.8038 43.7425C12.3005 43.2827 12.9382 43.0176 13.5592 42.7759C12.9282 43.2559 12.314 43.8063 11.9783 44.5447C11.6058 45.3469 11.2936 46.2094 11.2769 47.0989C11.2836 47.7533 11.485 48.3877 11.6863 49.0052C11.9313 49.7571 12.3542 50.4317 12.8812 51.019C13.0792 51.2506 13.2772 51.4856 13.4719 51.7172C13.4954 51.7406 13.5256 51.7876 13.5592 51.7641C13.5659 51.7641 13.5793 51.7306 13.5827 51.7373C13.5592 51.8246 13.482 51.7742 13.4383 51.7339V51.7373Z" fill="#F1EDE4"/>
<path fill-rule="evenodd" clip-rule="evenodd" d="M8.30615 46.0382C7.81277 45.5951 7.56776 44.9642 7.2959 44.3802C7.69194 44.8131 8.041 45.471 8.30615 46.0382Z" fill="#F1EDE4"/>
<path fill-rule="evenodd" clip-rule="evenodd" d="M8.99761 46.1895C8.61499 45.7431 8.42032 45.1658 8.32299 44.5952C8.32299 44.5147 8.2223 44.1153 8.38676 44.1891C8.37333 44.1958 8.34313 44.1824 8.3297 44.1992C8.38005 44.5751 8.61835 44.9376 8.72239 45.3068C8.81973 45.5954 8.90363 45.9008 8.99425 46.1895H8.99761Z" fill="#F1EDE4"/>
<path fill-rule="evenodd" clip-rule="evenodd" d="M9.81987 46.0852C9.39361 45.5247 9.08483 44.6319 9.05127 44.0311C9.36005 44.6923 9.65541 45.3703 9.81987 46.0852Z" fill="#F1EDE4"/>
<path fill-rule="evenodd" clip-rule="evenodd" d="M10.3636 45.642C10.0817 45.1084 9.79306 44.4639 9.79642 43.8732C10.0246 44.4438 10.3133 45.0177 10.3636 45.642Z" fill="#F1EDE4"/>
<path fill-rule="evenodd" clip-rule="evenodd" d="M10.8003 45.5883C10.4982 45.152 10.3539 44.5781 10.3606 44.0645C10.5317 44.5613 10.6861 45.0782 10.8003 45.5883Z" fill="#F1EDE4"/>
<path fill-rule="evenodd" clip-rule="evenodd" d="M10.9677 44.7695C10.8905 44.5345 10.8166 44.2728 10.8535 44.0244C10.8938 44.266 10.971 44.5245 10.9677 44.7695Z" fill="#F1EDE4"/>
<path fill-rule="evenodd" clip-rule="evenodd" d="M7.94714 45.0081C7.88673 45.0081 7.87666 44.9746 7.93707 44.9544C7.93707 44.9645 7.91358 44.9712 7.91022 44.9846C8.06126 44.9712 8.19887 44.8772 8.33648 44.8168C8.72245 44.6188 9.10843 44.4174 9.51454 44.2563C10.2664 43.971 11.0585 43.7998 11.8573 43.7092C11.0249 44.0616 10.1757 44.4107 9.3031 44.6691C8.85671 44.79 8.41367 44.9712 7.94714 45.0048V45.0081Z" fill="#F1EDE4"/>
<path fill-rule="evenodd" clip-rule="evenodd" d="M8.43402 45.3065C8.40381 45.2696 8.49107 45.2528 8.51457 45.2461C8.5045 45.2595 8.47094 45.2696 8.45751 45.2864C8.91733 45.1555 9.35029 44.9508 9.80675 44.8131C10.6358 44.5513 11.5051 44.3835 12.3643 44.303C11.3272 44.6923 10.2733 45.0279 9.17912 45.2159C8.93411 45.2495 8.68239 45.3367 8.43402 45.3065Z" fill="#F1EDE4"/>
<path fill-rule="evenodd" clip-rule="evenodd" d="M8.77952 45.988C8.77952 45.988 8.74931 45.9846 8.75938 45.9779C9.24269 45.8806 9.68908 45.6087 10.1455 45.4208C10.8705 45.0885 11.6324 44.8233 12.3809 44.5649C11.3639 45.1791 9.97437 45.9108 8.77952 45.988Z" fill="#F1EDE4"/>
<path fill-rule="evenodd" clip-rule="evenodd" d="M7.92334 44.5614C8.6181 44.2593 9.43368 43.9606 10.2023 43.8028C9.48739 44.1653 8.72886 44.4909 7.92334 44.5614Z" fill="#F1EDE4"/>
<path fill-rule="evenodd" clip-rule="evenodd" d="M7.59473 44.246C8.21565 43.9943 8.81307 43.6821 9.44742 43.4606C10.0516 43.2492 10.6859 43.0747 11.3068 42.9438C10.1355 43.5378 8.89698 44.0379 7.59473 44.246Z" fill="#F1EDE4"/>
<path fill-rule="evenodd" clip-rule="evenodd" d="M10.3135 43.6789C10.3135 43.6789 10.3269 43.6588 10.3202 43.6722C10.3202 43.6722 10.3202 43.6722 10.3202 43.6755C10.8001 43.3466 11.2096 42.8902 11.6526 42.5243C12.2601 41.9806 12.9247 41.4906 13.5758 41.0106C12.8609 41.9135 11.9883 42.6921 11.0217 43.3131C10.7968 43.444 10.5686 43.6252 10.3168 43.6789H10.3135Z" fill="#F1EDE4"/>
<path fill-rule="evenodd" clip-rule="evenodd" d="M11.0581 44.887C11.9442 43.813 12.9578 42.843 14.0519 41.9838C13.2129 43.0881 12.159 44.0513 11.0581 44.887Z" fill="#F1EDE4"/>
<path fill-rule="evenodd" clip-rule="evenodd" d="M13.0186 43.6889C13.0186 43.6889 13.0286 43.6788 13.0219 43.6889C13.3307 43.5143 13.5723 43.219 13.8677 43.0142C14.1329 42.8162 14.4081 42.6249 14.6799 42.4504C14.3007 42.8565 13.8811 43.2223 13.4112 43.5177C13.2938 43.5882 13.1696 43.6654 13.0353 43.6956C13.0286 43.6956 13.0219 43.6956 13.0186 43.6889Z" fill="#F1EDE4"/>
<path fill-rule="evenodd" clip-rule="evenodd" d="M9.15527 43.719C9.62516 43.078 10.1521 42.4738 10.763 41.9637C10.8804 41.8697 11.0516 41.7086 11.1758 41.7052C11.1154 41.7287 11.0684 41.7858 11.0281 41.8261C10.7428 42.1617 10.4743 42.5141 10.1655 42.833C9.85339 43.1518 9.51104 43.4572 9.15527 43.719Z" fill="#F1EDE4"/>
<path fill-rule="evenodd" clip-rule="evenodd" d="M7.94043 44.481C8.61505 43.6856 9.41386 42.9506 10.3335 42.4605C9.96094 42.8062 9.5951 43.1553 9.21583 43.4909C9.21919 43.4909 9.22254 43.4842 9.2259 43.4809C8.81979 43.8366 8.38011 44.1756 7.94043 44.4777V44.481Z" fill="#F1EDE4"/>
<path fill-rule="evenodd" clip-rule="evenodd" d="M7.91042 49.9852C7.56472 49.6395 7.66877 48.1997 7.83994 47.7768C7.78288 48.2164 7.86008 48.6796 7.83994 49.126C7.83994 49.4113 7.79631 49.7234 7.91042 49.9886V49.9852Z" fill="#F1EDE4"/>
<path fill-rule="evenodd" clip-rule="evenodd" d="M8.65214 50.6263C8.52124 50.19 8.54809 49.7168 8.53467 49.267C8.53467 48.5253 8.59173 47.7869 8.70584 47.0518C8.7394 46.9042 8.80317 46.3739 8.91393 46.3604C8.91058 46.3604 8.90722 46.3604 8.90386 46.3638C8.80989 46.639 8.86359 46.9512 8.84681 47.2398C8.84681 47.6157 8.84681 47.9916 8.83338 48.3675C8.82331 49.1227 8.69242 49.8846 8.65214 50.6297V50.6263Z" fill="#F1EDE4"/>
<path fill-rule="evenodd" clip-rule="evenodd" d="M9.46439 51.009C9.27643 50.4887 9.32342 49.9148 9.30664 49.3711C9.31 48.4279 9.37041 47.4781 9.56843 46.5518C9.59193 46.4611 9.65234 46.1759 9.72283 46.1926C9.71947 46.1926 9.71611 46.1926 9.71276 46.196C9.60535 46.5115 9.66912 46.8706 9.64899 47.2029C9.64899 47.6426 9.64227 48.0822 9.62885 48.5219C9.61207 49.0052 9.57515 49.4885 9.52816 49.9719C9.50131 50.3142 9.43082 50.6666 9.46103 51.0056L9.46439 51.009Z" fill="#F1EDE4"/>
<path fill-rule="evenodd" clip-rule="evenodd" d="M10.095 51.6938C9.78959 51.6099 9.83993 51.14 9.82315 50.8917C9.81308 50.4855 9.83658 50.0794 9.87014 49.6767C9.91042 49.1766 9.96412 48.6765 10.0615 48.1831C10.1219 47.9448 10.1487 47.6763 10.2964 47.4749C10.1991 47.7065 10.2125 47.9817 10.189 48.2334C10.1756 48.6396 10.1621 49.0457 10.1588 49.4518C10.1756 50.113 10.0917 50.7809 10.1521 51.4387C10.3132 51.3145 10.5884 50.358 10.8133 50.7809C10.4911 50.3916 10.5045 51.771 10.0984 51.6972L10.095 51.6938Z" fill="#F1EDE4"/>
<path fill-rule="evenodd" clip-rule="evenodd" d="M9.55115 52.6603C8.10458 52.6737 6.81575 51.7843 5.90283 50.727C5.90283 50.7237 5.90954 50.727 5.90283 50.727C7.75217 52.3012 10.2728 52.2844 12.5685 52.4589C11.5884 52.6939 10.5547 52.6871 9.5478 52.6569L9.55115 52.6603Z" fill="#F1EDE4"/>
<path fill-rule="evenodd" clip-rule="evenodd" d="M9.24275 52.5862C7.75254 52.3613 6.2422 51.9888 5.17824 50.8443C5.11447 50.7939 4.64795 50.2502 4.82583 50.2468C4.81912 50.2468 4.81241 50.2468 4.80569 50.2502C4.80569 50.2535 4.80234 50.2569 4.79898 50.2602C4.82583 50.3811 4.94666 50.465 5.02721 50.5455C5.35277 50.8241 5.71526 51.0557 6.09788 51.247C6.60133 51.5021 7.14169 51.6733 7.68206 51.8243C8.34997 52.0156 9.01116 52.2304 9.67907 52.4318C9.99457 52.5291 10.3168 52.6231 10.6423 52.6902C10.1825 52.7104 9.70592 52.65 9.24611 52.5828L9.24275 52.5862Z" fill="#F1EDE4"/>
<path fill-rule="evenodd" clip-rule="evenodd" d="M10.4274 51.8785C9.07812 51.8416 7.73223 51.5395 6.50046 50.979C6.10777 50.7877 5.67816 50.6064 5.35596 50.3044C5.35931 50.2909 5.37274 50.2943 5.38616 50.2976C5.37945 50.2976 5.37274 50.2976 5.36603 50.2976C6.1749 50.744 7.11467 50.9253 8.01081 51.1334C8.76934 51.2811 9.53458 51.4019 10.3099 51.4489C11.2631 51.5059 12.2163 51.6066 13.1661 51.6704C13.3776 51.6838 13.5957 51.6905 13.8038 51.6972C12.6929 51.8852 11.5551 51.8919 10.4307 51.8751L10.4274 51.8785Z" fill="#F1EDE4"/>
<path fill-rule="evenodd" clip-rule="evenodd" d="M8.4572 53.6369C7.83628 53.6269 7.21536 53.5329 6.61793 53.3617C6.47025 53.3114 6.30579 53.2812 6.18161 53.1838C6.1749 53.1771 6.17825 53.1603 6.18161 53.1771C6.37628 53.2677 6.61793 53.2476 6.82938 53.2711C7.39995 53.2979 8.00409 53.2745 8.57131 53.2443C9.48087 53.1805 10.3938 53.2107 11.3034 53.2006C11.3034 53.204 11.2899 53.204 11.2899 53.2073C10.3737 53.4792 9.41375 53.6369 8.4572 53.6369Z" fill="#F1EDE4"/>
<path fill-rule="evenodd" clip-rule="evenodd" d="M6.9604 53.9525C6.74224 53.9156 6.31934 53.6605 6.5912 53.4323C6.52407 53.5128 6.50729 53.6102 6.60463 53.684C6.97718 53.929 7.46049 53.7981 7.86996 53.7377C8.62178 53.5766 9.38366 53.4658 10.1422 53.3685C10.555 53.3182 10.9779 53.2544 11.384 53.1839C10.3939 53.5699 7.96729 54.1874 6.9604 53.9525Z" fill="#F1EDE4"/>
<path fill-rule="evenodd" clip-rule="evenodd" d="M10.9478 58.0708C11.0216 57.3324 11.1693 56.5974 11.4747 55.9328C11.3841 56.6578 11.27 57.4096 10.9478 58.0708Z" fill="#F1EDE4"/>
<path fill-rule="evenodd" clip-rule="evenodd" d="M11.1694 58.6312C11.4043 57.9767 11.609 57.3122 11.8876 56.6745C12.0722 56.2079 12.3474 55.7548 12.4582 55.2682C12.4582 55.2682 12.4582 55.2749 12.4548 55.2682C12.4582 55.2447 12.4716 55.2682 12.4716 55.285C12.4783 55.5132 12.4112 55.7347 12.3609 55.9562C12.1024 56.896 11.7198 57.8257 11.166 58.6245L11.1694 58.6312Z" fill="#F1EDE4"/>
<path fill-rule="evenodd" clip-rule="evenodd" d="M11.5518 58.3828C11.837 57.5437 12.2331 56.7483 12.703 55.9998C12.8708 55.7414 13.0252 55.4661 13.2299 55.2379C13.2467 55.2245 13.2568 55.2278 13.2568 55.248C13.2534 55.248 13.2568 55.2379 13.2534 55.2379C13.2534 55.2379 13.2534 55.2379 13.2501 55.2379C13.0285 55.6608 12.8741 56.1307 12.6493 56.5569C12.3304 57.1913 11.9612 57.8122 11.5551 58.3861L11.5518 58.3828Z" fill="#F1EDE4"/>
<path fill-rule="evenodd" clip-rule="evenodd" d="M11.3906 60.0205C11.733 58.8424 12.2968 57.7449 12.901 56.6877C13.0621 56.4125 13.2232 56.1406 13.3977 55.8721C13.4715 55.7681 13.532 55.6439 13.6394 55.57C13.3977 55.9829 13.2668 56.4729 13.052 56.9059C12.5821 57.9832 11.9847 59.0069 11.3906 60.0138V60.0205Z" fill="#F1EDE4"/>
<path fill-rule="evenodd" clip-rule="evenodd" d="M11.4478 61.0209C11.8169 60.061 12.2566 59.0709 12.9514 58.309C12.4748 59.232 12.0922 60.2053 11.4478 61.0209Z" fill="#F1EDE4"/>
<path fill-rule="evenodd" clip-rule="evenodd" d="M11.5718 61.5982C12.0182 60.551 12.5115 59.4602 13.3104 58.6379C13.1123 58.9568 12.9747 59.3226 12.8035 59.6415C12.4612 60.3295 12.0551 61.0041 11.5718 61.5949V61.5982Z" fill="#F1EDE4"/>
<path fill-rule="evenodd" clip-rule="evenodd" d="M12.2266 61.5377C12.4884 60.6785 12.9113 59.826 13.4919 59.148C13.1529 59.9838 12.7938 60.8296 12.2266 61.5377Z" fill="#F1EDE4"/>
<path fill-rule="evenodd" clip-rule="evenodd" d="M12.9482 61.2961C13.1194 60.6685 13.4316 60.0039 13.9417 59.5877C13.6262 60.1583 13.3443 60.7725 12.9482 61.2961Z" fill="#F1EDE4"/>
<path fill-rule="evenodd" clip-rule="evenodd" d="M13.7334 61.1552C13.8744 60.6383 14.1261 60.155 14.4886 59.7623C14.2973 60.2456 14.0489 60.739 13.7334 61.1552Z" fill="#F1EDE4"/>
<path fill-rule="evenodd" clip-rule="evenodd" d="M13.6963 61.068C14.1192 60.343 14.2165 59.5107 14.3239 58.6984C14.4213 57.9835 14.5354 57.2485 14.4313 56.5302C14.4313 56.4765 14.4011 56.4228 14.4078 56.3725C14.4246 56.4195 14.4481 56.4665 14.4649 56.5135C14.7569 57.3156 14.7032 58.1983 14.5824 59.0307C14.4783 59.7725 14.2367 60.5343 13.6963 61.0713V61.068Z" fill="#F1EDE4"/>
<path fill-rule="evenodd" clip-rule="evenodd" d="M13.562 60.2321C13.6392 59.4635 13.6862 58.6982 13.6661 57.9296C13.6526 57.6947 13.6258 57.4665 13.6056 57.2315C13.6056 57.1912 13.5922 57.114 13.6224 57.0872C13.609 57.2013 13.6761 57.3154 13.6996 57.4262C13.7835 57.7048 13.8406 57.99 13.8607 58.282C13.8976 58.9399 13.7902 59.6212 13.562 60.2321Z" fill="#F1EDE4"/>
<path fill-rule="evenodd" clip-rule="evenodd" d="M14.4751 59.7119C14.5892 59.1044 14.6597 58.4869 14.7872 57.8827C14.8812 57.4364 14.9651 56.9765 14.9819 56.5234C15.1967 57.5639 14.898 58.7587 14.4751 59.7119Z" fill="#F1EDE4"/>
<path fill-rule="evenodd" clip-rule="evenodd" d="M13.9213 55.8186C13.9045 55.8085 13.8643 55.7716 13.8777 55.7447C13.8777 55.738 13.8878 55.7279 13.8945 55.7279C13.8878 55.7279 13.8844 55.738 13.8844 55.7447C13.9885 55.8857 14.267 55.7548 14.3979 55.7011C15.0121 55.3755 15.3713 54.7479 15.7203 54.1706C15.8378 53.9692 15.9519 53.7544 16.066 53.5598C16.019 53.7544 15.962 53.9457 15.8982 54.1337C15.6868 54.758 15.3545 55.399 14.747 55.7145C14.502 55.8353 14.1798 55.9528 13.918 55.8152L13.9213 55.8186Z" fill="#F1EDE4"/>
<path fill-rule="evenodd" clip-rule="evenodd" d="M13.6627 56.4396C13.6627 56.4396 13.6559 56.4228 13.6627 56.4127C13.6559 56.4396 13.6929 56.4429 13.713 56.4463C14.5689 56.2684 15.4046 55.0769 15.6966 54.2949C15.7335 54.2042 15.757 54.0968 15.7906 54.0096C15.7906 54.1237 15.7805 54.2378 15.7637 54.3519C15.653 55.1608 15.1428 55.9126 14.4145 56.2885C14.2131 56.3926 13.9916 56.4631 13.7633 56.4698C13.7231 56.4698 13.6794 56.4631 13.6627 56.4362V56.4396Z" fill="#F1EDE4"/>
<path fill-rule="evenodd" clip-rule="evenodd" d="M14.2705 56.7687C14.3242 56.7486 14.3779 56.7049 14.4249 56.6915C14.3813 56.7251 14.3242 56.7721 14.2705 56.7687Z" fill="#F1EDE4"/>
<path fill-rule="evenodd" clip-rule="evenodd" d="M9.69211 60.4468C8.96379 60.2253 8.42006 59.6514 7.84277 59.1882C8.02401 59.2419 8.24218 59.4097 8.43013 59.5138C8.82618 59.7588 9.239 59.9769 9.67533 60.138C10.3768 60.3361 11.1118 60.3562 11.8334 60.3562C11.1488 60.5274 10.3902 60.5979 9.68875 60.4435L9.69211 60.4468Z" fill="#F1EDE4"/>
<path fill-rule="evenodd" clip-rule="evenodd" d="M9.32349 61.5074C8.97779 61.4369 8.5314 61.1215 8.716 60.7254C8.71935 60.7489 8.70929 60.7858 8.70929 60.816C8.6925 61.1651 9.10533 61.306 9.39062 61.3262C9.8605 61.3329 10.2868 61.1047 10.6996 60.91C11.052 60.7254 11.4044 60.5442 11.7568 60.3596C12.1327 60.1615 12.5187 59.9568 12.8778 59.7386C12.5791 60.0273 12.2468 60.2824 11.9079 60.5173C11.1426 61.0107 10.2868 61.6484 9.33021 61.5108L9.32349 61.5074Z" fill="#F1EDE4"/>
<path fill-rule="evenodd" clip-rule="evenodd" d="M9.99438 60.4338C9.86013 60.4237 9.63861 60.3196 9.70574 60.1585C9.69231 60.2592 9.793 60.3196 9.88027 60.3297C10.1051 60.3666 10.3166 60.2794 10.528 60.2257C10.7596 60.1653 10.9946 60.0914 11.2194 60.0276C10.8536 60.2492 10.4307 60.4606 9.99438 60.4338Z" fill="#F1EDE4"/>
<path fill-rule="evenodd" clip-rule="evenodd" d="M9.51112 60.4503C9.29968 60.3765 9.2057 60.1416 9.33324 59.957C9.28289 60.1315 9.3668 60.2993 9.54804 60.3295C9.7897 60.3731 10.0246 60.2624 10.2529 60.1953C10.5012 60.108 10.7463 60.014 10.9913 59.9234C10.5952 60.1986 10.0179 60.6081 9.50777 60.4503H9.51112Z" fill="#F1EDE4"/>
<path fill-rule="evenodd" clip-rule="evenodd" d="M7.67864 58.3357C7.39671 58.2484 7.01409 58.0303 7.06107 57.6913C7.09799 58.0437 7.53096 58.1612 7.82632 58.188C8.46402 58.2518 9.05809 57.9531 9.61188 57.6778C10.2194 57.3523 10.8369 57.0469 11.4142 56.6642C11.4411 56.6508 11.4679 56.6206 11.4914 56.6139C11.1289 57.0032 10.696 57.3221 10.263 57.6141C9.5179 58.1142 8.60163 58.6176 7.68199 58.3357H7.67864Z" fill="#F1EDE4"/>
<path fill-rule="evenodd" clip-rule="evenodd" d="M8.80301 58.1952C8.58149 58.1851 8.37676 57.9837 8.44724 57.7589C8.44724 58.0005 8.65869 58.1046 8.87349 58.0744C9.50113 57.9636 10.122 57.826 10.7329 57.685C10.1355 57.967 9.47428 58.2086 8.80637 58.1918L8.80301 58.1952Z" fill="#F1EDE4"/>
<path fill-rule="evenodd" clip-rule="evenodd" d="M20.4324 41.4267C20.1438 40.1211 19.825 38.8255 19.5632 37.5132C19.2477 36.1505 18.9322 34.7711 18.3482 33.4957C18.2911 33.3681 18.2206 33.2339 18.1636 33.1097C18.271 33.2507 18.3683 33.3984 18.4623 33.5494C19.2242 34.7879 19.5867 36.2143 19.8854 37.624C20.1371 38.8759 20.3754 40.1546 20.4324 41.4267Z" fill="#F1EDE4"/>
<path fill-rule="evenodd" clip-rule="evenodd" d="M21.0939 40.0808C20.7515 38.5839 20.3286 37.1037 19.9225 35.6202C19.748 34.9892 19.5768 34.3582 19.3922 33.7306C19.2513 33.3312 19.1741 32.8882 18.9458 32.5324C18.9593 32.5324 18.9727 32.5525 18.9794 32.5593C19.1204 32.7439 19.2244 32.9587 19.3217 33.1668C19.5365 33.6434 19.7211 34.1334 19.889 34.6268C20.4629 36.3955 20.9395 38.2281 21.0939 40.0808Z" fill="#F1EDE4"/>
<path fill-rule="evenodd" clip-rule="evenodd" d="M21.4628 39.7114C21.3621 38.9864 21.2279 38.2648 21.1205 37.5365C20.9292 36.2745 20.7681 35.0058 20.4761 33.7674C20.4324 33.5794 20.3821 33.3814 20.3418 33.1968C20.9493 34.5024 21.2144 35.9255 21.3554 37.3485C21.4326 38.1306 21.4964 38.9294 21.4695 39.708L21.4628 39.7114Z" fill="#F1EDE4"/>
<path fill-rule="evenodd" clip-rule="evenodd" d="M21.8153 38.208C21.5233 36.6507 21.2884 35.0564 21.2783 33.4722C21.624 35.0228 21.8757 36.6171 21.8153 38.208Z" fill="#F1EDE4"/>
<path fill-rule="evenodd" clip-rule="evenodd" d="M22.6712 36.325C22.4429 35.3114 22.2886 34.271 22.208 33.2439C22.5436 34.234 22.688 35.2879 22.6712 36.325Z" fill="#F1EDE4"/>
<path fill-rule="evenodd" clip-rule="evenodd" d="M19.3686 40.2721C18.8249 39.037 18.2778 37.7549 18.063 36.4224C18.5564 37.6844 19.1034 38.943 19.3686 40.2721Z" fill="#F1EDE4"/>
<path fill-rule="evenodd" clip-rule="evenodd" d="M18.5262 40.9973C18.2778 39.9971 18.0697 38.9566 18.11 37.9262C18.3349 38.9365 18.5262 39.9635 18.5262 40.9973Z" fill="#F1EDE4"/>
<path fill-rule="evenodd" clip-rule="evenodd" d="M17.7878 41.5371C17.5898 40.8894 17.4556 40.2114 17.4287 39.5368C17.6334 40.1845 17.7576 40.8659 17.7878 41.5371Z" fill="#F1EDE4"/>
<path fill-rule="evenodd" clip-rule="evenodd" d="M26.2256 31.6331C26.1082 30.8511 26.1283 30.0523 26.2055 29.2669C26.2357 29.0119 26.2626 28.7534 26.3297 28.5051C26.333 28.4983 26.3431 28.4614 26.3565 28.4547C26.3096 28.8071 26.3666 29.1864 26.3565 29.5489C26.3633 30.2537 26.2961 30.9417 26.2256 31.6298V31.6331Z" fill="#F1EDE4"/>
<path fill-rule="evenodd" clip-rule="evenodd" d="M26.9137 31.5257C26.7626 30.3376 26.7727 29.1125 26.9405 27.9311C27.0446 29.1259 27.0815 30.3409 26.9137 31.5257Z" fill="#F1EDE4"/>
<path fill-rule="evenodd" clip-rule="evenodd" d="M27.6658 30.3844C27.5651 29.3943 27.5584 28.374 27.7363 27.394C27.8101 28.3874 27.8404 29.401 27.6658 30.3844Z" fill="#F1EDE4"/>
<path fill-rule="evenodd" clip-rule="evenodd" d="M28.6689 28.9111C28.6051 28.2935 28.6051 27.6457 28.7796 27.045C28.7729 27.6592 28.7964 28.3036 28.6689 28.9111Z" fill="#F1EDE4"/>
<path fill-rule="evenodd" clip-rule="evenodd" d="M30.2967 27.0316C30.2867 26.7698 30.3337 26.4946 30.4444 26.2596C30.4243 26.5181 30.3806 26.7866 30.2967 27.0316Z" fill="#F1EDE4"/>
</g>
<defs>
<clipPath id="clip0_216_112806">
<rect width="73" height="45.1962" fill="white" transform="translate(3.5 17.7578)"/>
</clipPath>
</defs>
</svg>
