<svg width="81" height="81" viewBox="0 0 81 81" fill="none" xmlns="http://www.w3.org/2000/svg">
<g clip-path="url(#clip0_216_112241)">
<path d="M30.3123 56.1177C29.8996 57.3794 29.3309 57.5979 28.2536 57.0106C28.1269 56.942 27.977 56.8859 27.8902 56.7787C27.4371 56.2246 27.0043 56.0823 26.3168 56.5202C25.8176 56.8348 25.2449 56.5301 24.848 56.0788C24.6987 55.9074 24.5821 55.6989 24.4804 55.491C24.3431 55.2054 24.1956 55.093 23.8777 55.2858C23.635 55.4323 23.353 55.5354 23.075 55.5894C22.2852 55.7488 21.8001 55.5549 21.4114 54.8379C21.2171 54.4794 21.0313 54.4461 20.7355 54.6378C20.4719 54.8074 20.1977 54.9795 19.9734 55.1925C19.3179 55.8092 18.653 56.4168 18.0541 57.0878C17.419 57.7967 16.7728 58.5228 16.2819 59.3298C15.4514 60.7024 14.484 61.9602 13.4215 63.1573C12.5206 64.1775 11.6618 65.2367 10.7797 66.2751C10.5175 66.5857 10.2502 66.8899 9.96483 67.1796C9.11769 68.0393 8.16449 67.6439 7.77496 66.418C7.50025 65.5607 7.69202 64.6784 8.07262 63.8772C8.39518 63.2002 8.80389 62.5599 9.18821 61.9102C9.60291 61.2129 10.0384 60.5258 10.461 59.8305C10.4851 59.788 10.4702 59.7207 10.4799 59.5625C10.2813 59.7066 10.1245 59.8044 9.98813 59.9274C9.55223 60.3098 9.09314 60.6713 8.69143 61.0907C7.36136 62.4732 5.63078 63.1526 3.92257 63.8827C3.59999 64.0208 3.28943 64.0113 3.06472 63.7004C2.851 63.4056 2.86717 63.1085 3.09706 62.8199C3.46181 62.3677 3.83089 61.9183 4.18345 61.4614C5.83461 59.3279 7.45393 57.168 9.13694 55.061C9.85935 54.1582 10.6836 53.3296 11.5126 52.5223C12.5315 51.5318 13.6188 50.6154 14.6421 49.6276C15.0954 49.1894 15.5075 48.6822 15.8515 48.1528C16.5576 47.0753 17.4754 46.3338 18.7742 46.1735C19.2663 46.1132 19.4824 45.8462 19.6015 45.426C19.7206 45.0058 19.8904 44.5966 19.9525 44.1704C20.1703 42.6989 21.0248 41.6035 22.0885 40.6812C23.3942 39.5419 24.466 38.235 25.4198 36.798C26.0613 35.8314 26.7813 34.918 27.5116 34.0173C27.7979 33.6642 28.1543 33.2585 28.5591 33.1394C29.1522 32.9639 29.3244 32.5319 29.6214 32.1096C30.3929 31.025 31.2198 29.9729 32.0578 28.9368C32.6414 28.2134 33.2938 27.5491 33.8868 26.8347C34.2366 26.4156 34.6295 26.091 35.1732 26.0119C35.5295 25.9592 35.7168 25.7469 35.9093 25.474C36.6117 24.4642 37.4538 23.5982 38.5144 22.9479C39.2542 22.4947 39.9478 21.9662 40.6951 21.53C41.5571 21.0238 42.5292 20.8315 43.5163 20.7066C43.7548 20.6762 44.0399 20.5873 44.1968 20.4226C44.882 19.7213 45.699 19.2473 46.5923 18.8829C47.2914 18.5986 47.9646 18.2307 48.6868 18.0341C50.008 17.6719 51.3615 17.5069 52.6805 18.078C52.9433 18.1909 53.1503 18.253 53.397 18.0573C53.9688 17.6004 54.6475 17.51 55.3585 17.4646C56.41 17.396 57.4582 17.3802 58.4568 17.7284C59.0489 17.9359 59.6153 18.2457 60.1383 18.5948C60.4081 18.7731 60.6197 18.8564 60.9261 18.7628C62.0362 18.4211 63.0737 18.5415 64.1109 19.1153C64.5679 19.3675 65.1559 19.4049 65.6951 19.4903C66.4078 19.6043 67.136 19.6368 67.8427 19.7744C68.5723 19.9144 69.1807 20.3302 69.6889 20.8647C70.3048 21.5166 70.8982 22.1846 71.5015 22.8468C71.5801 22.9335 71.6721 23.0135 71.7274 23.1128C72.5116 24.4932 73.4036 25.8238 74.0317 27.272C74.4547 28.2453 74.2815 29.3799 74.0776 30.4432C74.011 30.7812 73.9243 31.1125 73.8364 31.4887C74.2221 31.5523 74.568 31.5874 74.895 31.6713C76.07 31.9768 76.3737 32.8984 75.6237 33.8444C75.5507 33.9348 75.4683 34.0162 75.386 34.0975C75.2031 34.2791 75.2013 34.4393 75.4341 34.5849C75.5328 34.6449 75.6295 34.7127 75.7137 34.7908C76.4724 35.5004 76.4564 36.2361 75.6721 36.9258C75.5881 37.0001 75.5136 37.0834 75.4166 37.1829C75.5801 37.3846 75.7329 37.5553 75.8697 37.7369C76.7014 38.8615 76.5622 40.167 75.5134 41.0898C75.3609 41.2238 75.1568 41.3097 75.0381 41.4623C74.9305 41.5975 74.8668 41.7974 74.8603 41.9698C74.8557 42.1343 74.9629 42.3002 74.9969 42.4711C75.1748 43.3275 74.8383 43.9072 73.9709 44.0689C73.4964 44.1588 72.9902 44.1219 72.5034 44.0881C72.1818 44.0625 72.077 44.1599 72.1108 44.4646C72.1279 44.6095 72.145 44.7544 72.1401 44.9004C72.1288 45.6574 71.7381 46.0595 71.0002 45.9659C70.5035 45.9046 70.2512 45.9232 70.1027 46.5134C69.8751 47.4184 69.1051 47.7519 68.2331 47.792C67.7588 47.8149 67.4045 47.8262 67.3835 48.4552C67.3684 48.8748 67.0538 49.2007 66.665 49.3757C66.2995 49.5381 65.9163 49.7045 65.5202 49.7622C65.0745 49.8308 64.8177 49.9135 64.7453 50.461C64.6284 51.3118 63.8432 51.7787 62.8399 51.7289C62.4943 51.7123 62.0675 51.5129 61.8347 51.6535C61.6483 51.7689 61.724 52.28 61.6385 52.5999C61.4754 53.2082 60.9404 53.5456 60.2794 53.3458C59.7659 53.1916 59.281 52.8972 58.8343 52.5908C58.5362 52.3852 58.3793 52.2638 58.04 52.5617C57.3002 53.2007 56.7377 53.2282 55.9043 52.7023C55.572 52.4932 55.4206 52.43 55.1685 52.8201C54.6663 53.5925 54.0453 53.7259 53.2244 53.3236C53.0698 53.2462 52.9219 53.1488 52.7784 53.0541C52.5822 52.9227 52.4476 52.919 52.2658 53.1227C51.193 54.3406 50.0329 54.3885 48.8437 53.2945C48.3869 52.8751 48.392 52.8814 47.9312 53.3361C47.6443 53.6187 47.3534 53.9171 47.0188 54.1359C46.4574 54.5051 45.8356 54.6683 45.2293 54.2447C44.9088 54.0219 44.7547 54.1153 44.5186 54.3756C44.0561 54.8902 43.5905 55.4241 43.0361 55.8252C42.1455 56.4714 41.466 56.2721 40.9207 55.2998C40.7479 54.9886 40.6203 55.0168 40.4283 55.2747C40.0844 55.7371 39.766 56.2311 39.3576 56.6371C38.8606 57.1296 38.2583 57.415 37.5515 56.9912C37.3368 56.8602 37.208 56.9332 37.0267 57.0885C36.2397 57.749 35.6913 57.8069 34.8142 57.3018C34.5074 57.1242 34.3045 56.9795 34.0296 57.3672C33.7097 57.8206 33.2117 57.8711 32.6942 57.766C31.9894 57.6206 31.407 57.2548 30.9078 56.7444C30.7262 56.5615 30.5545 56.3727 30.3123 56.1177ZM60.3646 47.1317C61.7621 46.7786 62.6309 47.5494 62.4154 48.8123C62.3273 49.3223 62.072 49.7317 61.6842 50.0626C61.5183 50.2033 61.361 50.3495 61.1427 50.5389C61.8503 50.9327 62.5023 51.1084 63.217 50.9284C63.9175 50.7515 64.1015 50.3392 63.769 49.6916C63.6187 49.3977 63.4372 49.1145 63.2699 48.8281C63.3117 48.7817 63.35 48.7361 63.3918 48.6897C63.6247 48.7683 63.8643 48.8269 64.085 48.9343C64.7958 49.2754 65.4531 49.0709 66.068 48.7084C66.5219 48.441 66.5625 48.1199 66.2769 47.6849C66.2145 47.5872 66.0878 47.5185 66.0581 47.4173C65.9887 47.1873 65.8628 46.903 65.9402 46.7149C66.0678 46.4006 66.4035 46.4231 66.6982 46.529C66.8882 46.5986 67.0671 46.7189 67.2643 46.7534C67.6586 46.8225 68.0663 46.9183 68.4549 46.8771C69.0245 46.8146 69.3475 46.3753 69.3274 45.8632C69.3039 45.2515 69.0323 44.9472 68.4286 44.8389C68.2858 44.8146 68.1295 44.7971 68.019 44.7174C67.9172 44.6433 67.8666 44.4984 67.7924 44.381C67.9051 44.3189 68.0139 44.2057 68.1249 44.2035C68.6929 44.2008 69.1353 43.9322 69.4956 43.5442C69.727 43.2961 69.8684 42.9601 70.0657 42.675C70.1225 42.5956 70.2501 42.5005 70.3237 42.514C70.413 42.5315 70.5164 42.6462 70.5454 42.7438C70.7265 43.2948 70.4126 43.6911 70.0834 44.0685C69.5259 44.7082 69.538 44.7798 70.3087 45.0557C70.4456 45.1035 70.5853 45.147 70.7281 45.1712C71.1909 45.2474 71.3107 45.1504 71.2835 44.6733C71.2612 44.2694 71.1835 43.8666 71.1683 43.4611C71.1573 43.1588 71.3074 43.0811 71.6178 43.1575C72.1451 43.2901 72.6842 43.409 73.2254 43.453C73.5926 43.4835 74.028 43.4357 74.1971 43.023C74.3531 42.6355 74.1356 42.2896 73.8974 41.9853C73.809 41.8711 73.7017 41.7721 73.6098 41.6586C73.4557 41.4659 73.308 41.2681 73.0617 40.9434C73.677 40.9191 74.1792 41.191 74.608 40.8102C75.0026 40.4592 75.4183 40.1371 75.547 39.5921C75.7296 38.8196 75.3133 38.1125 74.4033 37.5589C74.0932 38.0399 73.822 38.5457 73.4699 38.9876C73.2712 39.2322 72.8797 39.3781 72.6108 39.1364C72.3093 38.8648 72.6537 38.6066 72.8134 38.4041C73.3741 37.7117 73.3708 36.9729 73.0535 36.1919C72.9884 36.0316 72.8807 35.8807 72.8511 35.7125C72.8253 35.5621 72.8783 35.3981 72.8993 35.241C73.0587 35.2728 73.2804 35.2499 73.3649 35.3464C73.6054 35.6278 73.8096 35.9469 73.989 36.2715C74.2843 36.801 74.2717 36.8112 74.8357 36.5381C74.9126 36.4988 74.9937 36.4623 75.0697 36.4195C75.6327 36.0908 75.6715 35.6772 75.1658 35.2722C75.0082 35.1472 74.8103 35.0757 74.638 34.9688C74.1739 34.6847 74.1508 34.5969 74.4691 34.1698C74.6584 33.9162 74.891 33.6902 75.0881 33.4386C75.5282 32.8732 75.3973 32.4821 74.6989 32.2981C74.0127 32.1188 73.4385 32.3124 72.996 32.8672C72.7981 33.1153 72.6241 33.3878 72.4253 33.6324C71.8883 34.2973 71.2303 34.7175 70.3309 34.667C69.6646 34.6283 68.997 34.601 68.3349 34.6319C67.9743 34.6483 67.5621 34.717 67.2741 34.9107C66.6874 35.3003 66.1632 35.7877 65.5902 36.2561C65.7579 36.494 66.0106 36.7802 66.1695 37.113C66.2869 37.3584 66.3128 37.6612 66.3219 37.9379C66.3237 38.0304 66.152 38.1278 66.0585 38.2265C65.9831 38.1539 65.8694 38.0935 65.8384 38.0037C65.6561 37.4977 65.3867 37.0517 64.9108 36.7814C63.8135 36.1539 62.571 35.9636 61.1877 35.522C61.6015 35.9992 61.8711 36.3114 62.1406 36.6235C61.8046 36.5156 61.5692 36.3074 61.3226 36.1165C60.933 35.816 60.5453 35.5077 60.1363 35.2375C59.7792 35.0004 59.4084 35.0042 58.9837 35.3023C59.4429 35.6655 59.8345 35.9582 60.2053 36.274C60.5544 36.576 60.9374 36.8631 61.0737 37.3459C60.7724 37.1597 60.5327 36.9153 60.2629 36.7035C59.764 36.3119 59.2524 35.9306 58.7298 35.5665C58.4879 35.3969 58.2423 35.3954 58.0675 35.6978C57.8769 36.0298 58.1543 36.0912 58.3494 36.2005C58.8686 36.4984 59.3578 36.829 59.6837 37.3628C59.4539 37.3318 59.2592 37.241 59.0854 37.127C58.7464 36.9045 58.4176 36.6611 58.0787 36.4386C57.7699 36.2355 57.4476 36.1728 57.0947 36.3585C56.4817 36.6796 55.8197 36.6771 55.143 36.6592C54.4814 36.6418 53.816 36.7254 53.1515 36.7457C52.7048 36.7589 52.6146 37.0241 52.668 37.3839C52.6969 37.582 52.7627 37.7793 52.8511 37.9605C53.24 38.7628 53.7831 39.4048 54.6139 39.8012C54.9466 39.9619 55.1599 40.0189 55.4618 39.7702C55.6852 39.587 55.9794 39.4887 56.2429 39.3524C56.1999 39.6964 56.0465 39.8938 55.9104 40.1022C55.7349 40.3677 55.5401 40.63 55.4184 40.9207C55.2032 41.4439 55.4703 41.8123 56.0223 41.7202C56.3203 41.673 56.6563 41.5282 56.8664 41.3183C57.2921 40.8899 57.677 40.411 58.0123 39.9096C58.333 39.4263 58.3008 39.3813 57.779 38.9874C57.5376 38.8028 57.585 38.6474 57.7852 38.5103C58.2411 38.2015 58.9079 38.4446 59.0418 38.9837C59.093 39.199 59.099 39.4616 59.0247 39.6638C58.594 40.8106 57.9207 41.7843 56.7874 42.3243C56.4475 42.4848 55.9932 42.5145 55.6107 42.4652C54.9605 42.382 54.625 41.906 54.6083 41.2407C54.6008 40.9711 54.6572 40.6204 54.5129 40.4553C54.3483 40.2649 53.9993 40.1822 53.721 40.1507C53.2944 40.1036 52.8559 40.1038 52.4334 40.1599C52.0685 40.207 51.6334 40.3067 51.5654 40.7566C51.5046 41.1714 51.9118 41.3156 52.1835 41.5195C52.513 41.7664 52.9565 41.8729 53.2405 42.3008C52.4863 42.5713 51.9152 42.2737 51.3815 41.927C50.3531 41.2583 50.418 40.155 51.5112 39.6016C51.8156 39.4489 52.1681 39.3785 52.5059 39.2928C52.7942 39.218 52.8723 39.1004 52.7609 38.798C52.5707 38.2899 52.4349 37.7587 52.2616 37.2432C52.2185 37.1152 52.157 36.9207 52.0661 36.8961C51.6352 36.7794 51.2355 36.6186 50.7603 36.9577C50.083 37.4417 49.309 37.7909 48.5731 38.1949C48.3774 38.3013 48.1757 38.3978 47.9311 38.5187C48.2184 38.8269 48.4577 39.0863 48.6963 39.3421C48.6695 39.3889 48.6399 39.44 48.613 39.4868C47.7597 38.9208 46.9336 38.226 45.7673 38.751C46.2617 39.3071 47.0125 39.5094 47.3123 40.1939C46.8976 40.0327 46.5259 39.8137 46.1606 39.5896C45.7649 39.3462 45.3878 39.0689 44.9772 38.8585C44.3954 38.5633 43.4768 38.7289 43.1409 39.1598C42.6605 39.7787 42.1838 40.3968 41.7164 41.024C41.2637 41.6331 41.2715 41.6351 41.8965 41.9914C42.0283 42.0664 42.1485 42.1736 42.2728 42.2651C41.8131 42.2365 41.4209 42.0258 41.0108 41.9862C40.5515 41.9426 40.178 42.2369 39.8292 42.5258C40.147 42.9387 40.7285 42.8959 40.9737 43.4512C39.8083 43.1213 38.8695 42.2693 37.6459 42.6695C38.5594 43.2892 39.6983 43.4986 40.4607 44.3598C40.0908 44.3002 39.7623 44.1423 39.4287 44.0115C38.5943 43.6829 37.7591 43.3506 36.9187 43.0456C36.6233 42.9361 36.3733 42.9653 36.253 43.3634C35.7219 45.1159 34.4737 46.2128 32.8071 46.7776C31.9387 47.0696 31.4603 47.7476 30.8301 48.2769C30.6074 48.4636 30.6201 48.6726 30.9065 48.8249C31.1598 48.9623 31.4056 49.1161 31.6533 49.2621C31.2554 49.2608 30.9443 49.0805 30.6121 49.0237C30.4421 48.9943 30.1853 49.1439 30.0579 49.291C29.8631 49.5198 30.1003 49.6347 30.2734 49.7451C30.5703 49.9286 30.9335 50.0417 31.0628 50.4257C30.8499 50.3872 30.6709 50.3003 30.5066 50.1954C29.7015 49.6967 29.6355 49.6332 29.0555 50.3224C28.9644 50.4317 28.8371 50.5118 28.7185 50.5975C28.2091 50.9725 28.1542 51.3972 28.5537 51.8714C28.5734 51.8931 28.5363 51.9608 28.5232 52.0194C28.4442 51.9811 28.3505 51.9609 28.2931 51.9029C27.7743 51.3708 27.22 51.3854 26.5524 51.6442C26.1145 51.8152 25.5965 51.8255 25.1146 51.8315C24.7139 51.8345 24.309 51.7343 23.9124 51.6546C23.5472 51.5829 23.3416 51.6617 23.1761 52.0401C22.9712 52.509 22.6702 52.9471 22.3638 53.3604C21.9879 53.8633 21.886 54.395 22.1788 54.6945C22.4245 54.9488 23.0154 54.915 23.4787 54.6232C23.5504 54.5776 23.6197 54.5214 23.6805 54.4597C23.9706 54.1578 24.26 53.8524 24.6128 53.4809C24.7004 53.8778 24.7369 54.2451 24.8651 54.5736C25.0189 54.967 25.1875 55.3944 25.4709 55.6849C25.8219 56.0459 26.2626 55.8706 26.383 55.372C26.4515 55.0931 26.4035 54.7915 26.4606 54.5113C26.5105 54.2661 26.5865 54.0041 26.7344 53.8153C26.8614 53.6498 27.096 53.6017 27.1743 53.9226C27.2627 54.2896 27.3299 54.6613 27.4361 55.0244C27.6496 55.7391 28.1177 56.2267 28.8231 56.4761C29.1615 56.5947 29.3942 56.521 29.4448 56.1271C29.5061 55.6304 29.7043 55.215 30.1397 54.881C30.3373 55.1533 30.498 55.3929 30.6705 55.6187C31.1769 56.2799 31.7895 56.7988 32.6233 56.9901C33.2568 57.1327 33.4637 56.9755 33.5512 56.3281C33.5874 56.0711 33.5827 55.7972 33.6684 55.5627C33.717 55.4293 33.9069 55.3131 34.057 55.2688C34.1164 55.252 34.2575 55.4364 34.3309 55.5502C34.4978 55.8182 34.6052 56.1364 34.8092 56.3701C35.3928 57.044 36.1617 56.9077 36.4951 56.0946C36.5603 55.9352 36.5913 55.7389 36.6985 55.6186C36.8594 55.4381 37.0796 55.3077 37.2731 55.1573C37.3949 55.3385 37.5194 55.5154 37.6348 55.7018C37.6804 55.7735 37.6866 55.8687 37.7223 55.9463C37.9499 56.4387 38.1745 56.5303 38.5883 56.1826C39.2157 55.6576 39.8231 55.0924 39.9488 54.2136C40.8428 54.4251 40.8066 54.3959 41.3353 53.7775C41.8613 53.1634 42.4443 52.5887 43.0575 52.0668C43.3515 51.8161 43.7655 51.6541 44.1525 51.5724C44.8664 51.4223 45.3122 51.8256 45.3482 52.5609C45.3547 52.6747 45.34 52.7932 45.3473 52.9105C45.404 53.6896 45.8555 53.9504 46.5218 53.5172C46.928 53.2528 47.2557 52.8683 47.612 52.5295C47.9186 52.2351 48.2151 51.9281 48.6026 51.5453C48.6612 51.8111 48.691 51.9457 48.7207 52.0804C48.943 52.953 50.0392 53.5584 50.9001 53.2829C51.3274 53.1477 51.5675 52.8383 51.5733 52.3761C51.5736 52.1754 51.5184 51.9757 51.4958 51.7726C51.4651 51.482 51.1788 51.077 51.5911 50.9414C51.9341 50.8285 52.0996 51.2417 52.2504 51.5206C52.2763 51.5706 52.3101 51.6226 52.3261 51.6785C52.502 52.2901 53.0126 52.5156 53.5359 52.6974C54.0513 52.8772 54.3506 52.7517 54.5543 52.3276C54.8196 51.7785 54.7506 51.3143 54.3534 51.0303C54.0703 50.8252 53.7123 50.685 53.6272 50.1649C53.9428 50.2811 54.1509 50.3652 54.3681 50.4399C55.2804 50.7514 56.2957 50.4344 56.8514 49.6688C57.4272 48.8764 57.2536 48.3424 56.3125 48.0522C55.882 47.9205 55.4484 47.8081 54.8535 47.6383C55.7571 47.1862 56.4754 47.258 57.1763 47.605C57.7817 47.9062 57.9987 48.3675 57.8982 49.0401C57.7925 49.7398 57.4268 50.2888 56.8559 50.6824C56.5489 50.8914 56.1937 51.0329 55.853 51.1899C55.4748 51.3626 55.4286 51.5066 55.6761 51.8199C56.3288 52.6384 57.5982 52.3953 57.998 51.378C58.0671 51.2029 58.1413 51.0341 58.2148 50.8618C58.3555 50.9943 58.5061 51.1209 58.635 51.2671C58.7297 51.3763 58.7894 51.5117 58.8778 51.626C59.2263 52.0768 59.6655 52.3998 60.218 52.5455C60.6673 52.6619 60.9297 52.4701 60.8639 52.0201C60.8069 51.6276 60.7037 51.1933 60.4699 50.8918C60.3296 50.7109 59.9017 50.7422 59.6018 50.6969C59.102 50.6214 58.629 50.4991 58.3143 50.0668C58.2558 49.9869 58.2214 49.8309 58.262 49.7625C58.3027 49.6941 58.4563 49.649 58.5554 49.6606C58.7266 49.6785 58.8938 49.7457 59.0591 49.7872C59.7603 49.967 60.3762 49.7604 60.9574 49.3794C61.4837 49.0365 61.7854 48.13 61.0209 47.6298C60.8333 47.504 60.6678 47.3435 60.3993 47.1203L60.3646 47.1317ZM18.0538 50.1159C18.2732 50.0154 18.4374 49.968 18.5702 49.8792C18.9831 49.5948 19.4575 49.5384 19.9006 49.6599C20.3507 49.7798 20.7519 49.7284 21.1752 49.609C21.4237 49.5393 21.6847 49.4928 21.9449 49.4762C22.5949 49.4406 23.103 49.7223 23.2757 50.3532C23.3917 50.7773 23.6085 50.8335 23.9541 50.8167C24.0978 50.811 24.243 50.8123 24.3879 50.8287C26.2274 51.047 27.6644 50.3173 28.8087 48.9349C29.1403 48.5347 29.4298 48.0954 29.726 47.6695C30.27 46.8842 30.9557 46.3203 31.8988 46.0304C33.0019 45.6903 33.9125 45.0173 34.6334 44.1075C35.2438 43.3372 35.3458 42.4859 34.981 41.5742C34.5652 40.5324 33.9804 39.6172 33.0587 38.9435C32.2164 38.3267 31.7563 37.488 31.6113 36.4608C31.579 36.2301 31.5147 36.0064 31.4718 35.7781C31.2775 34.8138 30.6103 34.2996 29.7451 34C29.1537 33.796 28.6266 33.8492 28.2144 34.4233C27.5037 35.4127 26.7128 36.3417 26.0367 37.3531C25.0812 38.783 24.0154 40.0998 22.7073 41.2284C21.7303 42.0721 20.9771 43.0709 20.6851 44.3915C20.4604 45.4111 20.0312 46.3457 19.2905 47.1485C18.6368 47.8576 18.3178 48.7866 18.0544 49.7144C18.0278 49.8131 18.0521 49.923 18.0573 50.1151L18.0538 50.1159ZM47.1255 37.2434C47.1255 37.2434 47.122 37.2107 47.1217 37.1922C47.2941 37.1653 47.472 37.1632 47.639 37.1115C49.3272 36.5939 50.4672 36.0673 50.7181 33.9715C50.9241 32.2611 50.6326 30.7385 49.4508 29.4422C49.079 29.0374 48.6729 28.6625 48.2822 28.273C47.1702 27.1583 46.4592 25.8732 46.6138 24.2336C46.6258 24.1194 46.6291 23.9998 46.619 23.8868C46.4589 22.4207 45.855 21.6546 44.2738 21.6469C43.3996 21.6429 42.4931 21.8801 41.6539 22.1694C40.2074 22.6708 39.0828 23.7218 37.8959 24.6416C37.4171 25.0149 36.9902 25.4547 36.5625 25.891C36.4655 25.9905 36.3884 26.264 36.4481 26.3325C36.8647 26.8055 37.2381 27.4366 37.7743 27.6602C38.772 28.0717 39.3268 28.7669 39.6077 29.7195C40.0292 31.1576 40.7658 32.4407 41.5087 33.7187C42.1382 34.8025 42.733 35.8976 43.0532 37.1128C43.1566 37.5137 43.3682 37.597 43.7489 37.5539C44.8741 37.4319 46.002 37.339 47.1275 37.2355L47.1255 37.2434ZM53.4119 33.834C53.4148 33.7628 53.4212 33.6908 53.4241 33.6195C53.7622 33.6192 54.1003 33.6189 54.4392 33.6222C55.5457 33.6344 56.544 33.2914 57.475 32.7105C57.906 32.4407 58.1652 32.0825 58.0714 31.5568C57.9719 30.9879 57.9026 30.4048 57.7203 29.8653C57.2276 28.4243 56.4918 27.1113 55.4207 26.0135C54.3178 24.8893 53.9481 23.5847 54.1971 22.0357C54.4048 20.7374 53.1474 18.8966 51.8689 18.6436C50.9047 18.4514 49.8943 18.47 48.9514 18.8119C47.9739 19.1652 47.0207 19.5948 46.0727 20.0308C45.7016 20.2019 45.3781 20.4703 45.0014 20.717C45.1587 20.8569 45.2156 20.9298 45.2868 20.9661C46.6871 21.6865 47.3653 22.8562 47.3882 24.4083C47.4016 25.2601 47.6875 25.9998 48.22 26.6441C48.6255 27.1343 49.0499 27.6093 49.5016 28.0559C50.2292 28.7761 50.9567 29.5298 51.2277 30.5217C51.6353 32.0149 52.2402 33.5092 51.7517 35.1185C51.6628 35.4057 51.7534 35.5975 52.0862 35.5055C53.2218 35.1954 54.3841 35.2584 55.5399 35.2077C56.4603 35.1681 57.1617 34.6416 57.7602 33.9855C57.8138 33.9253 57.7927 33.7962 57.8285 33.5542C56.3103 34.3204 54.8621 34.3427 53.4033 33.8285L53.4119 33.834ZM66.819 31.8558C66.579 30.7344 66.0865 29.8843 65.5532 29.0506C64.9919 28.1748 64.3755 27.3185 63.9206 26.3858C63.3025 25.1174 62.572 23.963 61.4999 23.029C60.8276 22.4415 60.411 21.6824 60.2036 20.8102C60.125 20.4708 60.0223 20.1404 59.9118 19.808C59.7601 19.3398 59.4446 19.0043 58.9945 18.8175C57.4489 18.1627 55.8386 18.1242 54.2148 18.412C53.6105 18.5194 53.578 18.6752 53.9666 19.1394C54.8087 20.1428 55.2646 21.2315 54.9796 22.584C54.789 23.4883 55.0941 24.298 55.6946 24.9979C56.11 25.4823 56.545 25.9549 56.9056 26.4773C58.1823 28.3214 59.1451 30.2755 58.8678 32.6223C58.8188 33.0234 58.8269 33.4304 58.8015 33.8374C58.7838 34.094 58.8832 34.2579 59.1482 34.1622C60.2537 33.7658 61.2471 34.1747 62.2724 34.5095C62.9853 34.7424 63.7306 34.8863 64.4717 34.9941C65.2013 35.1006 65.804 34.8338 66.3193 34.2555C67.0065 33.4794 66.9317 32.6189 66.819 31.8558ZM38.8606 39.956C38.2789 40.6715 37.6035 40.8949 36.9223 41.1085C36.6718 41.1861 36.4159 41.2389 36.178 41.3397C36.1102 41.3695 36.0561 41.545 36.0784 41.6292C36.1007 41.7135 36.2214 41.8058 36.3151 41.826C36.4201 41.8474 36.5422 41.7944 36.6521 41.7702C37.5876 41.5637 38.5177 41.3324 39.4552 41.1515C39.9793 41.0506 40.3437 40.7993 40.6317 40.3529C40.9446 39.8676 41.3188 39.4245 41.6748 38.9668C42.0045 38.541 42.2414 38.065 42.1552 37.5229C42.0877 37.0992 41.9631 36.6696 41.7767 36.2797C40.688 33.9742 39.33 31.7951 38.7014 29.284C38.6286 28.9879 38.3291 28.6415 38.0463 28.5218C37.3822 28.241 36.8825 27.8124 36.396 27.2917C35.7667 26.613 35.2388 26.6626 34.6332 27.3538C33.3286 28.8347 32.0326 30.3212 30.7417 31.814C30.4961 32.0986 30.2917 32.4187 30.0606 32.7187C29.8788 32.9558 29.8458 33.1936 30.0498 33.4273C30.2341 33.6393 30.3971 33.8895 30.6264 34.0359C31.3012 34.4667 31.735 35.051 31.8929 35.8338C32.1102 36.9193 32.6888 37.7393 33.6205 38.3401C34.3842 38.8368 35.0344 39.4589 35.4115 40.3085C35.5865 40.6972 35.8335 40.8062 36.2411 40.6828C37.0429 40.4426 37.8517 40.2344 38.8535 39.9575L38.8606 39.956ZM72.2615 32.0482C71.8894 32.1303 71.7016 32.1718 71.5173 32.2125C70.7337 32.4003 69.9587 32.3409 69.199 32.1147C69.0313 32.0625 68.9052 31.8785 68.759 31.7547C68.9193 31.6561 69.0687 31.5079 69.244 31.4767C69.5554 31.4228 69.8793 31.4256 70.197 31.4336C70.8059 31.4478 71.3156 31.2312 71.8054 30.8741C72.2916 30.5178 72.5565 30.0171 72.8815 29.5365C73.5986 28.4751 73.4098 27.5357 72.6932 26.5789C72.3993 26.1904 72.0992 25.7735 71.94 25.3218C71.5734 24.284 70.9634 23.4227 70.2588 22.6045C69.0849 21.2433 67.6824 20.3784 65.8177 20.4332C64.9568 20.456 64.1479 20.2258 63.4089 19.7906C62.7426 19.3987 62.0317 19.4107 61.301 19.4679C60.9286 19.4981 60.8115 19.6577 60.8802 20.0365C61.0657 21.0622 61.4108 21.9857 62.2286 22.6935C63.0274 23.3831 63.6998 24.1898 64.1318 25.1536C64.636 26.2762 65.3144 27.2785 66.0231 28.2668C67.0202 29.6522 67.8061 31.1251 67.7213 32.9128C67.7071 33.2021 67.8203 33.3444 68.1321 33.309C69.0242 33.2087 69.9182 33.134 70.8088 33.0267C71.3812 32.9598 71.7962 32.634 72.265 32.0474L72.2615 32.0482ZM15.6991 54.5342C15.7483 54.5716 15.7939 54.6099 15.843 54.6473C15.3504 55.3619 14.8447 56.0681 14.365 56.7909C13.4542 58.1701 12.6554 59.636 11.6223 60.9158C10.5627 62.2274 9.43399 63.4614 8.74173 65.0228C8.69396 65.1262 8.58875 65.2052 8.54452 65.3079C8.4039 65.6474 8.26328 65.9869 8.14706 66.3359C8.07907 66.533 8.05674 66.7349 8.31796 66.8407C8.58273 66.9458 8.85642 67.1419 9.11581 66.869C9.33618 66.6383 9.52902 66.3839 9.71322 66.124C10.1155 65.5557 10.4687 64.9501 10.9028 64.4083C11.7858 63.3066 12.4039 62.0663 12.8353 60.7372C13.1017 59.924 13.4803 59.1975 14.026 58.5382C15.0784 57.2615 16.1041 55.9648 16.8403 54.4681C16.8889 54.3682 16.8792 54.2402 16.8947 54.1253C16.9632 54.166 17.0324 54.2101 17.1008 54.2508C16.675 55.3185 16.1901 56.3546 15.5047 57.2901C15.0251 57.946 14.5325 58.5936 14.0521 59.2459C13.5032 59.9915 13.2288 60.8362 13.1495 61.7568C13.9946 60.9385 14.6781 60.0109 15.2424 58.9981C15.8411 57.9219 16.5998 56.9815 17.5248 56.1715C18.6142 55.2138 19.6548 54.2036 20.7748 53.2837C21.4696 52.7104 21.9535 52.0238 22.3026 51.2146C22.4203 50.9396 22.5715 50.6313 22.3187 50.412C22.1536 50.2701 21.8505 50.2775 21.6022 50.2469C21.4951 50.2333 21.3758 50.282 21.2655 50.3212C20.7299 50.4877 20.2095 50.5543 19.6587 50.3154C19.4491 50.2241 19.1192 50.2449 18.9076 50.3474C17.7961 50.8677 16.7969 51.5268 16.1034 52.5941C15.3637 53.7386 14.528 54.8187 13.7805 55.9611C12.9079 57.2947 12.0829 58.6586 11.2413 60.015C11.1585 60.1448 11.1224 60.3014 11.062 60.4486C11.1131 60.4782 11.1615 60.5121 11.2126 60.5417C11.9297 59.5472 12.6365 58.5401 13.3716 57.5602C14.1316 56.5414 14.9234 55.549 15.7007 54.5413L15.6991 54.5342ZM5.39828 61.1227L5.53156 61.2382C6.00124 60.9078 6.50077 60.6117 6.93037 60.2344C7.2697 59.9366 7.62999 59.582 7.80061 59.1764C8.29274 58.0049 9.10876 57.1558 10.1026 56.405C11.4022 55.4232 12.6019 54.3259 13.4109 52.8725C13.4851 52.7372 13.6089 52.6244 13.709 52.5057C13.0093 54.3697 11.704 55.7468 10.1719 56.9211C9.34517 57.5533 8.7143 58.2984 8.2705 59.2511C8.03636 59.7562 7.62241 60.2043 7.20501 60.5863C6.65557 61.0941 6.02633 61.5266 5.42304 61.9757C5.26661 62.092 5.04118 62.283 4.90937 62.2414C4.36286 62.0722 4.32211 62.4937 4.08351 62.8103C4.2433 62.827 4.33301 62.863 4.39877 62.841C5.41759 62.4898 6.40696 62.0893 7.24286 61.3808C7.92821 60.7984 8.61866 60.2223 9.31934 59.6588C10.8172 58.4474 12.1363 57.0822 13.2655 55.5136C14.1474 54.2895 15.0529 53.0713 16.0869 51.9808C16.9041 51.1203 17.5678 50.2715 17.8218 49.0819C17.9633 48.4263 18.3578 47.8226 18.6591 47.1503C18.24 47.0868 17.9299 47.2481 17.6875 47.48C17.3138 47.8412 16.9339 48.2075 16.6447 48.6318C16.1039 49.4313 15.4621 50.1267 14.7409 50.7654C13.5258 51.8438 12.2934 52.9111 11.182 54.0892C9.71238 55.6475 8.33351 57.2972 6.95308 58.9398C6.38213 59.6196 5.90907 60.3893 5.39317 61.1164L5.39828 61.1227ZM42.108 55.4428C42.1703 55.4217 42.2604 55.4092 42.3357 55.3629C43.3352 54.7557 44.0681 53.9175 44.4476 52.808C44.5626 52.4705 44.3668 52.2907 44.0277 52.4213C43.0352 52.8076 42.1732 53.3807 41.6506 54.3471C41.5587 54.5198 41.5009 54.7295 41.4884 54.9255C41.4666 55.3317 41.7009 55.5178 42.1045 55.4436L42.108 55.4428Z" fill="#F1EDE4"/>
<path d="M38.7218 46.2301C39.4708 45.9868 40.0582 46.2065 40.4009 46.8667C40.7279 47.4895 40.7943 48.1438 40.4324 48.7774C40.2418 49.1093 40.2955 49.2685 40.6539 49.4272C41.0166 49.5887 41.3867 49.8006 41.6634 50.0777C42.3796 50.7967 42.2086 51.7227 41.2775 52.1178C40.218 52.5709 39.1378 52.5938 38.0904 52.0408C37.8595 51.9208 37.6306 51.7929 37.419 51.6427C37.1859 51.4786 37.0118 51.5319 36.8029 51.6969C36.5338 51.9087 36.2391 52.0889 35.9369 52.2523C35.8672 52.29 35.6898 52.2437 35.6379 52.1771C35.586 52.1105 35.5847 51.9361 35.6395 51.8645C35.8115 51.6333 36.0196 51.4313 36.2132 51.2139C36.7375 50.6261 36.8842 49.9434 36.714 49.1894C36.5431 48.4318 36.1234 48.1974 35.3653 48.4167C35.2535 48.4488 35.1507 48.505 35.0381 48.5335C34.8589 48.5805 34.6731 48.6141 34.4896 48.6583C34.5489 48.4222 34.5403 48.1306 34.6815 47.9619C35.3656 47.1382 36.8386 47.3631 37.3245 48.3522C37.4611 48.6342 37.528 48.9539 37.6003 49.265C37.6661 49.5627 37.8163 49.6373 38.0983 49.5342C38.3421 49.4432 38.593 49.3507 38.8508 49.3235C39.4142 49.266 39.7425 48.9854 39.8818 48.4381C40.0291 47.8593 39.9676 47.3451 39.5136 46.9213C39.2612 46.6871 38.9978 46.4703 38.7175 46.2274L38.7218 46.2301ZM40.3161 51.7019C40.4838 51.6537 40.6555 51.6233 40.815 51.5546C41.4377 51.2945 41.5036 50.886 41.0016 50.4468C40.2597 49.7967 38.7423 49.8083 38.0143 50.467C37.6793 50.7676 37.6975 51.0015 38.1026 51.187C38.4166 51.3296 38.7916 51.362 39.0728 51.5415C39.483 51.8003 39.877 51.8174 40.3161 51.7019Z" fill="#F1EDE4"/>
<path d="M47.6048 43.8606C47.2951 43.8212 47.0806 43.7756 46.8641 43.7714C46.2304 43.7626 45.6527 43.8901 45.2705 44.465C44.8626 45.0754 44.9524 45.6167 45.5517 46.0419C45.7856 46.2095 46.0563 46.3245 46.2986 46.4791C46.3591 46.5178 46.4188 46.6198 46.4065 46.682C46.3958 46.7513 46.3004 46.8578 46.2441 46.8554C45.9914 46.8554 45.715 46.8829 45.4841 46.7964C44.822 46.5412 44.3566 46.0827 44.2785 45.3418C44.2043 44.6186 44.7295 43.7482 45.4007 43.4217C46.1728 43.0469 46.852 43.1608 47.6005 43.8578L47.6048 43.8606Z" fill="#F1EDE4"/>
<path d="M69.9739 38.269C69.9551 38.4701 69.9784 38.7102 69.9049 38.916C69.8448 39.0816 69.6679 39.2062 69.5397 39.3497C69.4305 39.2251 69.2952 39.1175 69.2226 38.9737C69.0593 38.6381 68.9658 38.2648 68.7765 37.9461C68.4973 37.4725 68.1523 37.0544 67.5546 36.9225C67.3944 36.8872 67.2711 36.6989 67.1299 36.5814C67.2895 36.4458 67.4359 36.2165 67.6162 36.1916C67.8824 36.1514 68.2083 36.1798 68.4443 36.3061C69.2191 36.7186 69.6539 37.4254 69.9739 38.269Z" fill="#F1EDE4"/>
<path d="M63.8496 44.8538C64.4704 44.5347 64.9619 44.3035 65.4264 44.0337C65.6967 43.8775 65.9619 43.6814 66.163 43.4475C66.5568 42.9926 66.5106 42.5643 66.0892 41.8843C66.0421 41.8055 66.047 41.6929 66.0258 41.5972C66.1337 41.5809 66.2613 41.5192 66.344 41.5568C66.4962 41.6235 66.6724 41.7147 66.7505 41.8498C66.897 42.0925 67.0384 42.3623 67.073 42.6371C67.1723 43.4068 66.7936 43.981 66.1766 44.3847C65.5174 44.8164 64.864 45.3583 63.8389 44.8561L63.8496 44.8538Z" fill="#F1EDE4"/>
<path d="M26.0704 47.239C25.8446 46.0476 26.0161 45.0062 27.0201 44.268C27.1829 44.1466 27.3303 44.0063 27.4997 43.8983C28.3614 43.3402 28.8309 42.5713 28.8757 41.5283C28.9034 40.8458 29.1342 40.2076 29.6214 39.721C29.8496 39.4922 30.1923 39.3608 30.503 39.2365C30.592 39.202 30.8049 39.3074 30.8559 39.4039C30.901 39.4906 30.8495 39.7286 30.77 39.7722C29.8379 40.2976 29.6728 41.1999 29.564 42.1382C29.4692 42.9544 29.075 43.6101 28.4099 44.0988C28.3173 44.1676 28.2314 44.2497 28.1329 44.3086C27.1645 44.8717 26.4758 45.6407 26.2671 46.7831C26.2389 46.9417 26.1371 47.0868 26.0704 47.239Z" fill="#F1EDE4"/>
<path d="M30.8022 45.3878C31.3408 45.0162 31.9085 44.6753 32.415 44.2588C32.8961 43.8627 33.3089 43.3925 33.7788 42.9283C33.8693 44.3652 32.4358 45.633 30.8014 45.3843L30.8022 45.3878Z" fill="#F1EDE4"/>
<path d="M28.0666 48.2663C27.6753 49.3896 26.4405 50.1936 25.5432 50.0349C25.4732 50.0206 25.3757 49.9492 25.3624 49.889C25.3483 49.8252 25.3993 49.7024 25.4591 49.6706C26.2781 49.2223 27.103 48.7838 28.0666 48.2663Z" fill="#F1EDE4"/>
<path d="M25.1757 46.1317C25.032 46.4905 24.9039 46.8197 24.7594 47.1415C24.7539 47.1502 24.5382 47.116 24.5064 47.0561C24.3557 46.7772 24.5963 46.1332 24.8826 46.0328C24.9378 46.0132 25.018 46.0736 25.1785 46.1273L25.1757 46.1317Z" fill="#F1EDE4"/>
<path d="M23.4963 47.0265C23.4913 47.206 23.5308 47.4017 23.4692 47.5602C23.4226 47.6857 23.254 47.7638 23.1377 47.8601C23.1261 47.7065 23.0709 47.5404 23.11 47.3979C23.1512 47.2476 23.2769 47.1269 23.3688 46.9877C23.4125 47.0004 23.4554 47.0095 23.4991 47.0222L23.4963 47.0265Z" fill="#F1EDE4"/>
<path d="M43.9105 29.97C44.0648 29.9954 44.3923 29.9974 44.6771 30.1092C45.1823 30.3099 45.5524 30.2022 45.9033 29.8051C46.216 29.4537 46.6182 29.2051 47.1173 29.2436C47.3704 29.262 47.6403 29.3065 47.8626 29.421C48.1265 29.556 48.4975 29.7045 48.3466 30.0983C48.3181 30.1715 47.8694 30.159 47.6577 30.0757C47.1219 29.8706 46.6962 29.9794 46.3351 30.3974C45.8375 30.9717 45.2295 31.1134 44.5431 30.8152C44.0002 30.5783 43.6 30.7521 43.2401 31.1586C42.9937 31.4397 42.7394 31.7188 42.4697 31.979C42.4055 32.0415 42.2386 32.0597 42.1666 32.0199C42.0982 31.9792 42.0496 31.8264 42.0627 31.7343C42.1509 31.124 43.1286 30.1314 43.9078 29.9743L43.9105 29.97Z" fill="#F1EDE4"/>
<path d="M44.8214 36.5365C46.1032 36.1644 47.3806 35.7895 48.7424 35.3923C47.9165 36.5335 46.2326 37.0538 44.8214 36.5365Z" fill="#F1EDE4"/>
<path d="M55.5986 28.2004C55.1448 28.1482 54.8539 28.1604 54.5938 28.0766C53.7943 27.8219 53.0097 27.8539 52.2104 28.0712C52.0249 28.1233 51.8003 28.0317 51.5905 28.0073C51.7151 27.8312 51.806 27.603 51.9738 27.4879C53.0062 26.7769 54.6795 27.0505 55.5986 28.2004Z" fill="#F1EDE4"/>
<path d="M60.3973 32.5821C61.7634 32.4404 63.029 32.4323 64.2351 32.9466C64.5754 33.0907 64.8817 33.3167 65.1829 33.5364C65.2761 33.605 65.3007 33.7668 65.3572 33.8881C65.2241 33.925 65.0862 34.0074 64.9599 33.9907C64.7064 33.9537 64.4475 33.892 64.2099 33.792C62.9258 33.2616 61.5952 33.1093 60.2243 33.2632C60.083 33.2796 59.9358 33.2861 59.7972 33.2646C59.728 33.2539 59.6368 33.1774 59.6191 33.1144C59.6051 33.0506 59.6438 32.9231 59.6931 32.8937C59.9432 32.7641 60.2102 32.6606 60.393 32.5794L60.3973 32.5821Z" fill="#F1EDE4"/>
<path d="M59.1312 27.5025C60.1022 27.2882 61.7726 27.9527 62.2152 28.6614C62.2969 28.7958 62.2864 28.9839 62.3223 29.1469C62.1421 29.1384 61.9295 29.1854 61.7827 29.11C61.4232 28.9292 61.1107 28.6414 60.7417 28.485C60.2665 28.2851 59.7533 28.1828 59.2576 28.0247C59.1057 27.9764 58.9692 27.8802 58.8233 27.8083C58.9538 27.6755 59.0851 27.5462 59.1304 27.499L59.1312 27.5025Z" fill="#F1EDE4"/>
<path d="M63.3524 28.4735C63.2276 28.4639 63.1603 28.4788 63.1134 28.4519C62.6635 28.1982 62.2088 27.9566 61.7774 27.6691C61.6071 27.5543 61.6224 27.3539 61.861 27.2901C62.3241 27.1656 63.2597 27.7172 63.3988 28.1957C63.4211 28.28 63.3663 28.385 63.3524 28.4735Z" fill="#F1EDE4"/>
<path d="M36.7687 38.3253C35.76 38.5033 34.9686 38.3361 34.3197 37.7026C34.2151 37.5993 34.1984 37.406 34.1392 37.2556C34.2932 37.229 34.4807 37.1356 34.5971 37.1917C35.4436 37.592 36.3111 37.6495 37.214 37.4465C37.3451 37.4176 37.5103 37.5261 37.6578 37.5715C37.5781 37.7155 37.5314 37.9079 37.4128 37.9936C37.1846 38.1554 36.9097 38.257 36.7687 38.3253Z" fill="#F1EDE4"/>
<path d="M37.0268 36.161C37.0551 36.1547 37.0855 36.1406 37.1118 36.1422C37.3153 36.1716 37.516 36.2053 37.7203 36.2383C37.5492 36.4061 37.4017 36.6134 37.2024 36.7206C37.0798 36.7885 36.865 36.7244 36.7053 36.6742C36.6136 36.6461 36.5472 36.5307 36.471 36.4546C36.5478 36.3819 36.6086 36.2867 36.6996 36.2443C36.7996 36.1925 36.9213 36.188 37.0311 36.1637L37.0296 36.1566L37.0268 36.161Z" fill="#F1EDE4"/>
<path d="M38.642 34.7232C38.5373 35.2592 38.2919 35.3766 37.753 35.1239C38.1382 34.9496 38.3887 34.8386 38.642 34.7232Z" fill="#F1EDE4"/>
<path d="M68.3842 25.9319C69.1409 25.8244 69.8538 25.8045 70.5157 26.227C70.6584 26.3182 70.7862 26.4423 70.9033 26.5689C70.9564 26.624 70.9999 26.7371 70.9762 26.7981C70.9545 26.8512 70.8344 26.8963 70.7631 26.8934C70.5907 26.8869 70.4152 26.8661 70.2483 26.8175C69.4669 26.5774 68.7012 26.661 67.9454 26.9244C67.6725 27.0181 67.3933 27.1169 67.1102 27.1645C66.9704 27.188 66.8084 27.0937 66.6581 27.0525C66.7378 26.9085 66.785 26.7012 66.9075 26.6333C67.3892 26.3745 67.8918 26.1595 68.3877 25.9311L68.3842 25.9319Z" fill="#F1EDE4"/>
</g>
<defs>
<clipPath id="clip0_216_112241">
<rect width="80" height="80" fill="white" transform="translate(0.5 0.757812)"/>
</clipPath>
</defs>
</svg>
