<svg width="81" height="81" viewBox="0 0 81 81" fill="none" xmlns="http://www.w3.org/2000/svg">
<g clip-path="url(#clip0_216_112453)">
<path d="M78.5026 53.491C78.5646 53.6533 78.6076 53.7153 78.6123 53.7821C78.6839 54.6554 78.7555 55.5287 78.8176 56.4068C78.8653 57.0462 78.7507 57.6666 78.6028 58.2822C78.598 58.3061 78.5503 58.3299 78.5169 58.3347C78.4978 58.3347 78.4596 58.3156 78.4549 58.2965C78.4358 58.1963 78.4071 58.0913 78.4167 57.9911C78.5265 57.0081 78.4549 56.0298 78.4167 55.0467C78.3976 54.6268 78.4072 54.2021 78.4119 53.7821C78.4119 53.7153 78.4501 53.6533 78.5026 53.4958V53.491Z" fill="#F1EDE4"/>
<path d="M16.3936 50.3986C16.1931 50.3556 15.9927 50.3031 15.8448 50.1457H15.8257C16.007 50.2363 16.2552 50.2029 16.3792 50.4177L16.3983 50.3986H16.3936Z" fill="#F1EDE4"/>
<path d="M16.374 50.4178C16.6222 50.4034 16.8799 50.3462 17.066 50.5943L17.0803 50.58C16.8274 50.6134 16.5888 50.5943 16.3931 50.4034L16.374 50.4225V50.4178Z" fill="#F1EDE4"/>
<path d="M15.841 50.1461C15.8121 50.1317 15.764 50.1028 15.7592 50.1076C15.7062 50.1798 15.7303 50.1943 15.8218 50.1413L15.841 50.1461Z" fill="#F1EDE4"/>
<path d="M8.77241 50.8138C8.97761 50.9903 9.18281 51.1669 9.38324 51.3482C9.40233 51.3673 9.41664 51.4198 9.40233 51.4437C9.36892 51.5153 9.30689 51.5296 9.23053 51.4914C8.80582 51.2766 8.40019 51.0333 8.07568 50.6706C8.11863 50.6181 8.16158 50.5656 8.20453 50.5131L8.15204 50.4797L8.1759 50.4272L8.13295 50.3699C8.13295 50.2984 8.13772 50.2316 8.15204 50.16L8.13772 50.1791C8.40496 50.2268 8.6197 50.3556 8.76764 50.5847H8.78195C8.63879 50.6563 8.69128 50.7374 8.78195 50.8185H8.77241V50.8138Z" fill="#F1EDE4"/>
<path d="M7.04958 49.7735C6.66782 49.6923 6.4483 49.4108 6.23355 49.1197L6.21924 49.1388C6.59623 49.2151 6.8921 49.406 7.08299 49.7448L7.04958 49.7782V49.7735Z" fill="#F1EDE4"/>
<path d="M7.3359 49.9119C7.45997 49.931 7.58405 49.95 7.70812 49.9691L7.69858 49.9548C7.77493 50.0312 7.85128 50.1123 7.93241 50.1886L7.90855 50.1696C7.98013 50.2364 8.05649 50.308 8.12807 50.3748L8.17102 50.432L8.19965 50.5227C8.1567 50.5752 8.11375 50.6277 8.0708 50.6802C7.7463 50.5179 7.44088 50.327 7.25 50.0025C7.27863 49.9739 7.30727 49.9453 7.33113 49.9214L7.3359 49.9119Z" fill="#F1EDE4"/>
<path d="M9.42638 50.351C9.25459 50.3606 9.10665 50.3176 8.98735 50.184L8.96826 50.2031C9.14006 50.184 9.30231 50.2079 9.41207 50.3654L9.42638 50.351Z" fill="#F1EDE4"/>
<path d="M8.76747 50.5847C8.76747 50.661 8.76747 50.7374 8.76747 50.8137L8.77701 50.8185C8.77701 50.7374 8.77701 50.6563 8.77701 50.5751L8.7627 50.5799L8.76747 50.5847Z" fill="#F1EDE4"/>
<path d="M8.77246 49.9739C8.89654 50.0025 8.96334 50.0788 8.96812 50.2029C8.96812 50.2029 8.98721 50.1838 8.98243 50.1838C8.91562 50.1075 8.85359 50.0311 8.78678 49.9548L8.77246 49.9691V49.9739Z" fill="#F1EDE4"/>
<path d="M7.93266 49.9643C7.99947 50.0359 8.06628 50.1075 8.13786 50.1791L8.15218 50.16C8.07105 50.16 7.9947 50.16 7.91357 50.16L7.93743 50.1791C7.93743 50.0979 7.93743 50.0216 7.93743 49.9405V49.9548L7.93266 49.9643Z" fill="#F1EDE4"/>
<path d="M8.78697 49.9596C8.68198 49.9166 8.6104 49.8403 8.60563 49.721L8.59131 49.7353C8.65335 49.8164 8.71538 49.8975 8.77265 49.9739L8.78697 49.9596Z" fill="#F1EDE4"/>
<path d="M7.70839 49.9691C7.78474 49.9691 7.85632 49.9691 7.93267 49.9691L7.93745 49.9548H7.70361L7.71316 49.9739L7.70839 49.9691Z" fill="#F1EDE4"/>
<path d="M7.25512 49.993C7.14059 49.9595 7.06423 49.8975 7.05469 49.7687L7.08809 49.7353C7.20739 49.7353 7.29806 49.7925 7.34101 49.9071C7.31238 49.9357 7.28375 49.9643 7.25989 49.9882L7.25512 49.993Z" fill="#F1EDE4"/>
<path d="M6.23379 49.1197C6.16221 49.0481 6.09062 48.9765 6.01904 48.9002C6.1288 48.9384 6.19561 49.0195 6.21947 49.134L6.23379 49.1149V49.1197Z" fill="#F1EDE4"/>
<path d="M6.0243 48.9005L5.98096 48.8716L6.01948 48.8957L6.0243 48.9005Z" fill="#F1EDE4"/>
<path d="M17.0663 50.5942C17.6437 50.5704 18.1448 50.8471 18.684 50.9808C18.9226 51.038 19.1517 51.1144 19.333 51.2909C19.3521 51.3053 19.3569 51.353 19.3474 51.3721C19.333 51.4007 19.2996 51.4246 19.2662 51.4341C19.2328 51.4437 19.1947 51.4484 19.1612 51.4341C18.5361 51.2241 17.9062 51.0142 17.281 50.7899C17.1999 50.7612 17.1426 50.6467 17.0758 50.5751L17.0615 50.5895L17.0663 50.5942Z" fill="#F1EDE4"/>
<path d="M37.9155 54.03C38.0014 53.9728 38.0777 53.8773 38.1684 53.8583C38.741 53.7437 39.3137 53.6387 39.8911 53.5481C40.0581 53.5242 40.2347 53.5576 40.4017 53.5672L40.3874 53.5481C40.3158 53.6149 40.249 53.7246 40.1631 53.7437C39.4187 53.9203 38.6647 54.0396 37.8916 54.0157L37.9059 54.03H37.9155Z" fill="#F1EDE4"/>
<path d="M34.1124 54.1019C33.9787 54.1353 33.8928 54.1687 33.8069 54.1734C33.6065 54.183 33.4013 54.1925 33.1675 54.0685C33.4968 53.9873 33.7735 53.9587 34.1124 54.1019Z" fill="#F1EDE4"/>
<path d="M28.5101 53.362C28.1618 53.3525 27.8134 53.3429 27.4603 53.3334C27.4221 53.1568 27.5462 53.1759 27.613 53.1759C27.7895 53.1664 27.9661 53.1568 28.1379 53.195C28.2668 53.2236 28.3813 53.3191 28.5006 53.3859L28.5149 53.3716L28.5101 53.362Z" fill="#F1EDE4"/>
<path d="M28.4956 53.3764C28.8106 53.3143 29.1255 53.3095 29.4309 53.4241C29.4596 53.4336 29.4834 53.4718 29.493 53.5004C29.5121 53.5768 29.4691 53.634 29.388 53.6245C29.178 53.6006 28.968 53.5816 28.7628 53.5338C28.6722 53.51 28.5958 53.4193 28.5099 53.362L28.4956 53.3764Z" fill="#F1EDE4"/>
<path d="M37.8962 54.0206C37.7626 54.054 37.6337 54.1112 37.5001 54.1208C37.2949 54.1399 37.0897 54.1208 36.7891 54.1208C37.2233 54.0015 37.5717 54.0349 37.9153 54.0301L37.901 54.0206H37.8962Z" fill="#F1EDE4"/>
<path d="M31.98 53.9114C31.9463 53.9114 31.9174 53.9114 31.8837 53.9114C31.8788 53.9114 31.874 53.8825 31.874 53.868C31.9077 53.868 31.9366 53.868 31.9703 53.868C31.9751 53.868 31.98 53.8969 31.98 53.9114Z" fill="#F1EDE4"/>
<path d="M44.5634 51.0906C44.5873 51.1002 44.6112 51.1145 44.635 51.124C44.6112 51.1336 44.5825 51.1622 44.5634 51.1574C44.4632 51.1383 44.4632 51.1145 44.5634 51.0906Z" fill="#F1EDE4"/>
<path d="M40.4064 53.5722C40.4494 53.534 40.4923 53.4911 40.5305 53.4529C40.54 53.472 40.5543 53.4958 40.5639 53.5149C40.5066 53.5292 40.4494 53.5388 40.3921 53.5531L40.4064 53.5722Z" fill="#F1EDE4"/>
<path d="M35.9115 58.5829C35.8113 58.602 35.7111 58.6354 35.6061 58.6401C33.6305 58.7738 31.6548 58.7404 29.6792 58.602C29.0779 58.559 28.4814 58.5113 27.8801 58.4779C27.527 58.454 27.1738 58.4206 26.8589 58.2441C26.7777 58.2011 26.7586 58.1438 26.8016 58.1009C26.8255 58.077 26.8636 58.0627 26.897 58.0579C26.9686 58.0532 27.0402 58.0436 27.107 58.0579C28.1235 58.2202 29.1495 58.2011 30.1707 58.2441C30.4523 58.2584 30.7386 58.2584 31.0154 58.2966C31.9984 58.4349 32.9862 58.4493 33.9788 58.4302C34.6135 58.4159 35.2434 58.4397 35.9115 58.5829Z" fill="#F1EDE4"/>
<path d="M41.662 58.0101C41.6142 58.0626 41.5808 58.1438 41.5236 58.1581C40.8173 58.349 40.1063 58.5255 39.3666 58.4683C39.2998 58.4635 39.2377 58.4301 39.1757 58.4015C39.1518 58.3919 39.1232 58.3537 39.1327 58.3394C39.1471 58.3108 39.1757 58.2678 39.1996 58.2631C40.0251 58.1724 40.8364 57.9147 41.681 58.0245L41.6667 58.0054L41.662 58.0101Z" fill="#F1EDE4"/>
<path d="M41.6763 58.0245C41.7813 57.8766 41.9388 57.8384 42.1058 57.8241C42.3015 57.8097 42.5019 57.7954 42.6975 57.7763L42.6785 57.762C42.6116 57.8909 42.5162 57.9863 42.3683 57.9959C42.1297 58.0102 41.8958 58.0006 41.6572 58.0054L41.6715 58.0245H41.6763Z" fill="#F1EDE4"/>
<path d="M42.7022 57.7811C42.9837 57.7095 43.2653 57.6427 43.5469 57.5711H43.5278C43.2939 57.824 42.9837 57.7811 42.6831 57.7668L42.6974 57.7811H42.7022Z" fill="#F1EDE4"/>
<path d="M43.5469 57.5712C43.6328 57.5521 43.7187 57.533 43.8046 57.5139C43.7139 57.533 43.6233 57.5473 43.5278 57.5664L43.5469 57.5712Z" fill="#F1EDE4"/>
<path d="M44.9019 52.5318C44.7444 52.5747 44.5917 52.6224 44.4342 52.6606C44.4199 52.6606 44.3865 52.6272 44.377 52.6034C44.377 52.5938 44.4056 52.5509 44.4247 52.5509C44.5869 52.5461 44.754 52.5509 44.9162 52.5509L44.9019 52.5365V52.5318Z" fill="#F1EDE4"/>
<path d="M45.8848 50.7755C45.8085 50.9044 45.7035 50.976 45.5508 50.9855C45.4649 50.9903 45.4076 50.9664 45.4028 50.8901C45.4028 50.8805 45.4601 50.8519 45.4935 50.8471C45.6319 50.828 45.7655 50.8089 45.9039 50.7946L45.8896 50.7755H45.8848Z" fill="#F1EDE4"/>
<path d="M45.4801 50.2893L45.3838 50.3038L45.3934 50.246L45.4801 50.2893Z" fill="#F1EDE4"/>
<path d="M49.9321 50.1504C49.8844 50.1934 49.8366 50.2363 49.7889 50.2745C49.7651 50.2936 49.7173 50.3079 49.703 50.2984C49.641 50.2506 49.6648 50.2172 49.765 50.2077C49.8271 50.2029 49.8891 50.1838 49.9512 50.1695L49.9321 50.1504Z" fill="#F1EDE4"/>
<path d="M46.5915 50.6133C46.6392 50.5703 46.6821 50.5178 46.7346 50.494C46.7776 50.4749 46.8396 50.494 46.8921 50.494C46.8778 50.5131 46.873 50.5417 46.8539 50.5513C46.8301 50.5656 46.7919 50.5656 46.7633 50.5703C46.7012 50.5799 46.6392 50.5847 46.5771 50.5942L46.5915 50.6133Z" fill="#F1EDE4"/>
<path d="M45.9043 50.7898C46.1 50.599 46.3434 50.6037 46.5915 50.6133L46.5772 50.5942C46.5104 50.7135 46.4054 50.7755 46.267 50.7803C46.1429 50.7803 46.0141 50.7803 45.8853 50.7755L45.8996 50.7898H45.9043Z" fill="#F1EDE4"/>
<path d="M50.8194 49.7544C50.8098 49.635 50.8766 49.5682 50.9769 49.5205C51.058 49.4823 51.1153 49.5062 51.1296 49.5921C51.1296 49.6207 51.1105 49.6732 51.0914 49.678C50.9959 49.7019 50.9005 49.7162 50.8003 49.7353L50.8146 49.7544H50.8194Z" fill="#F1EDE4"/>
<path d="M49.9556 49.5253C50.0749 49.406 50.2228 49.344 50.3946 49.344L50.3755 49.3249C50.2848 49.4919 50.1178 49.4871 49.9651 49.5158L49.9556 49.5253Z" fill="#F1EDE4"/>
<path d="M50.409 49.9739C50.4758 49.7639 50.6428 49.7496 50.8241 49.7543L50.8098 49.7353C50.7525 49.9548 50.5712 49.9452 50.3994 49.9548L50.4137 49.9691L50.409 49.9739Z" fill="#F1EDE4"/>
<path d="M49.9512 50.1695C50.0514 49.9786 50.228 49.9739 50.4093 49.9691L50.395 49.9548C50.2948 50.1504 50.1135 50.1409 49.9321 50.1504L49.9512 50.1695Z" fill="#F1EDE4"/>
<path d="M49.9617 49.5158L49.9321 49.5503L49.9568 49.5256L49.9617 49.5158Z" fill="#F1EDE4"/>
<path d="M50.3899 49.3397L50.4188 49.2867L50.3755 49.3253L50.3899 49.3397Z" fill="#F1EDE4"/>
<path d="M49.9556 48.9009L49.9849 48.8716L49.9556 48.9009Z" fill="#F1EDE4"/>
<path d="M77.5289 61.3838C77.2521 60.7539 77.0851 60.1145 77.0946 59.4416C77.0946 59.413 77.1328 59.3557 77.1471 59.3605C77.1996 59.37 77.2951 59.3891 77.2998 59.4177C77.3857 59.8615 77.4669 60.3101 77.5289 60.7587C77.5575 60.9639 77.5289 61.1739 77.5289 61.3791V61.3838Z" fill="#F1EDE4"/>
<path d="M75.2051 59.1267C75.2337 59.1505 75.2719 59.1648 75.2862 59.1935C75.6393 59.8616 75.73 60.2386 75.7443 61.0975C75.6059 61.0307 75.5773 60.8828 75.5487 60.7635C75.4246 60.2147 75.2051 59.685 75.2194 59.1076L75.2051 59.1219V59.1267Z" fill="#F1EDE4"/>
<path d="M77.8584 60.2959C77.8584 60.2959 77.8918 60.3388 77.8918 60.3579C77.8918 60.3865 77.8823 60.42 77.8775 60.4486C77.8632 60.4295 77.8394 60.4104 77.8394 60.3865C77.8394 60.3579 77.8489 60.3245 77.8584 60.2911V60.2959Z" fill="#F1EDE4"/>
<path d="M70.977 51.2336C70.6954 51.1143 70.6143 50.8662 70.5666 50.5942L70.5522 50.6085C70.829 50.7183 70.9817 50.9235 70.9865 51.2241L70.9817 51.2289L70.977 51.2336Z" fill="#F1EDE4"/>
<path d="M71.4062 50.6037C71.6353 50.7517 71.7737 50.9616 71.8214 51.2289L71.8405 51.2146C71.5255 51.1239 71.4444 50.8757 71.4206 50.5894L71.4062 50.6037Z" fill="#F1EDE4"/>
<path d="M73.9591 60.5631C73.668 60.4581 73.5964 60.2052 73.5343 59.9427L73.52 59.957C73.7873 60.0763 73.9304 60.2863 73.94 60.5774L73.9591 60.5631Z" fill="#F1EDE4"/>
<path d="M71.1774 50.3795C71.1202 50.2363 71.0629 50.0979 71.0056 49.9548L70.9961 49.9452C71.1106 50.0741 71.1536 50.2268 71.1631 50.3938L71.1822 50.3747L71.1774 50.3795Z" fill="#F1EDE4"/>
<path d="M66.5101 50.6038C66.5101 50.4511 66.5101 50.3031 66.5101 50.1504C66.5769 50.2984 66.6485 50.4415 66.7153 50.5895H66.7201C66.6485 50.5942 66.577 50.599 66.5054 50.6038H66.5101Z" fill="#F1EDE4"/>
<path d="M71.1913 51.6443C71.0004 51.5679 70.9575 51.4152 70.9718 51.2339L70.9765 51.2291C71.1961 51.3054 71.2008 51.4772 71.1722 51.6634L71.1865 51.6443H71.1913Z" fill="#F1EDE4"/>
<path d="M72.0503 51.644C71.8308 51.5772 71.8165 51.4054 71.8404 51.2193L71.8213 51.2336C72.0026 51.3243 72.0408 51.477 72.0313 51.6583L72.0503 51.644Z" fill="#F1EDE4"/>
<path d="M74.1981 51.8206C74.0025 51.7538 74.0216 51.582 74.0025 51.4245L73.9834 51.415C74.0502 51.5534 74.117 51.6965 74.1838 51.8349L74.1981 51.8158V51.8206Z" fill="#F1EDE4"/>
<path d="M67.3784 51.6633C67.4357 51.8065 67.4929 51.9449 67.5502 52.088L67.5693 52.0737C67.5073 51.9353 67.4452 51.8017 67.3832 51.6633H67.3784Z" fill="#F1EDE4"/>
<path d="M72.0316 51.6583C72.2511 51.7395 72.2225 51.9208 72.213 52.0974L72.2273 52.0878C72.0937 51.9685 72.0316 51.8254 72.0459 51.644L72.0269 51.6583H72.0316Z" fill="#F1EDE4"/>
<path d="M74.1787 51.8349C74.2551 51.9733 74.3266 52.1117 74.403 52.2501V52.231C74.2264 52.1499 74.2121 51.9828 74.193 51.8158L74.1787 51.8349Z" fill="#F1EDE4"/>
<path d="M68.0466 52.6606C67.9702 52.5366 67.8987 52.4125 67.8223 52.2884L67.8032 52.3027C67.8796 52.4268 67.9559 52.5509 68.0323 52.675L68.0466 52.6559V52.6606Z" fill="#F1EDE4"/>
<path d="M68.0083 53.157C68.0179 52.9948 68.0322 52.8277 68.0465 52.6607C68.0465 52.6607 68.0322 52.6798 68.0322 52.675C68.0895 52.8277 68.1467 52.9852 68.204 53.1427L68.2135 53.157C68.1372 53.1475 68.0656 53.1427 67.9893 53.1331L68.0083 53.1522V53.157Z" fill="#F1EDE4"/>
<path d="M72.0459 57.7954C72.1079 57.9433 72.17 58.0913 72.232 58.2392L72.2463 58.2249C72.1843 58.0865 72.1175 57.9433 72.0554 57.8049V57.7906L72.0459 57.7954Z" fill="#F1EDE4"/>
<path d="M75.215 59.1127C75.171 59.0833 75.215 59.1273 75.2003 59.1273L75.215 59.1127Z" fill="#F1EDE4"/>
<path d="M73.9447 60.5776C74.1642 60.6444 74.169 60.821 74.1499 61.0023L74.1642 60.9832C73.9686 60.9021 73.9304 60.7494 73.959 60.5585L73.9399 60.5728L73.9447 60.5776Z" fill="#F1EDE4"/>
<path d="M73.9978 51.4246L73.9448 51.415H73.9785L73.9978 51.4246Z" fill="#F1EDE4"/>
<path d="M66.3003 50.1791C66.3003 50.1027 66.3003 50.0216 66.3003 49.9452C66.3766 50.0216 66.4578 50.1027 66.5341 50.1791C66.4578 50.1791 66.3766 50.1791 66.3003 50.1791Z" fill="#F1EDE4"/>
<path d="M67.5503 52.088C67.6362 52.1596 67.7173 52.236 67.8032 52.3075L67.8223 52.2932C67.7412 52.2216 67.6553 52.1453 67.5694 52.0737L67.5503 52.088Z" fill="#F1EDE4"/>
<path d="M72.2129 52.0991C72.2129 52.0991 72.2351 52.0824 72.2351 52.088C72.2351 52.0935 72.2129 52.0991 72.2129 52.0991Z" fill="#F1EDE4"/>
<path d="M71.0019 49.9556L70.9624 49.9309L70.992 49.9507L71.0019 49.9556Z" fill="#F1EDE4"/>
<path d="M72.0517 57.8108L72.0122 57.7763L72.0467 57.796L72.0517 57.8108Z" fill="#F1EDE4"/>
<path d="M67.3846 51.6594L67.3501 51.6347L67.3797 51.6643L67.3846 51.6594Z" fill="#F1EDE4"/>
<path d="M74.1504 61.0024L74.2419 61.0313C74.2226 61.1035 74.1937 61.0891 74.1696 60.988L74.1552 61.0072L74.1504 61.0024Z" fill="#F1EDE4"/>
<path d="M71.1581 50.3985C71.2822 50.4129 71.3633 50.4892 71.4062 50.6037L71.4206 50.5894C71.3394 50.5178 71.2583 50.451 71.1724 50.3795L71.1533 50.3985H71.1581Z" fill="#F1EDE4"/>
<path d="M71.1772 51.6633C71.211 51.6681 71.2687 51.6825 71.2687 51.6825C71.2591 51.7596 71.2302 51.7451 71.1965 51.644L71.1821 51.6633H71.1772Z" fill="#F1EDE4"/>
<path d="M70.5619 50.5945L70.5186 50.5608L70.5474 50.6138L70.5619 50.5945Z" fill="#F1EDE4"/>
<path d="M68.2041 53.1473L68.2436 53.1769L68.209 53.1572L68.2041 53.1473Z" fill="#F1EDE4"/>
<path d="M66.7202 50.5942L66.7547 50.6238L66.7251 50.5942H66.7202Z" fill="#F1EDE4"/>
<path d="M71.4014 63.3405C71.7497 63.3357 72.0074 63.5314 72.2603 63.7366L72.2699 63.7222C71.8929 63.7938 71.597 63.6745 71.4205 63.3214L71.4014 63.3405Z" fill="#F1EDE4"/>
<path d="M71.416 63.3214C71.1201 63.3118 70.9149 63.1591 70.7765 62.9062L70.7622 62.9205C71.0438 62.9539 71.2776 63.0589 71.3969 63.3405L71.416 63.3214Z" fill="#F1EDE4"/>
<path d="M70.1177 62.7058C70.1177 62.6295 70.1177 62.5531 70.1177 62.472C70.2608 62.5436 70.4088 62.6104 70.5519 62.682L70.571 62.6629C70.4231 62.6772 70.2704 62.6915 70.1225 62.7058H70.1177Z" fill="#F1EDE4"/>
<path d="M71.3966 62.7249C71.5589 62.7392 71.7259 62.7487 71.8214 62.911L71.8357 62.8967C71.6591 62.8967 71.5207 62.806 71.3823 62.7153L71.3919 62.7296L71.3966 62.7249Z" fill="#F1EDE4"/>
<path d="M72.4607 63.3262C72.2794 63.3357 72.1267 63.3023 72.0503 63.1114L72.0312 63.1257C72.2126 63.1114 72.3844 63.1257 72.4464 63.3405L72.4607 63.3262Z" fill="#F1EDE4"/>
<path d="M72.8857 63.5409C72.733 63.4932 72.5373 63.5218 72.4562 63.3261L72.4419 63.3405C72.6232 63.3405 72.7569 63.4359 72.8905 63.5361H72.8857V63.5409Z" fill="#F1EDE4"/>
<path d="M69.9461 62.2289L69.8979 62.2048L69.9317 62.2434L69.9461 62.2289Z" fill="#F1EDE4"/>
<path d="M70.1415 62.4911C70.0652 62.4911 69.9841 62.4911 69.9077 62.4911C69.922 62.4052 69.9363 62.3146 69.9507 62.2287C69.9507 62.2287 69.9316 62.2478 69.9316 62.243C70.0032 62.3241 70.0747 62.4052 70.1415 62.4911Z" fill="#F1EDE4"/>
<path d="M71.3826 62.7109L71.3682 62.682L71.3971 62.7253L71.3826 62.7109Z" fill="#F1EDE4"/>
<path d="M70.7764 62.9063C70.6523 62.8681 70.5808 62.7917 70.5664 62.6629L70.5474 62.682C70.6523 62.7345 70.7287 62.8061 70.7573 62.9254L70.7717 62.9111L70.7764 62.9063Z" fill="#F1EDE4"/>
<path d="M72.0456 63.1115C71.9167 63.0971 71.8308 63.0399 71.8356 62.8919L71.8213 62.9063C71.9454 62.9253 72.0408 62.9731 72.0313 63.1258L72.0456 63.1115Z" fill="#F1EDE4"/>
<path d="M72.8954 63.5409L72.9291 63.5746L72.8857 63.5409H72.8954Z" fill="#F1EDE4"/>
<path d="M67.3643 64.1901C67.0875 63.8465 66.7344 63.6365 66.3001 63.5554C66.2238 63.4409 66.1426 63.3311 66.0806 63.207C66.0567 63.1593 66.0758 63.0877 66.0806 63.0305C66.0806 63.0209 66.1426 63.0114 66.176 63.0162C66.2094 63.0162 66.2476 63.0305 66.2763 63.0496C67.2784 63.6365 68.2805 64.2235 69.2827 64.8105C68.8914 64.8343 68.5669 64.6339 68.2185 64.5051C67.9369 64.4001 67.6936 64.1853 67.3691 64.1901H67.3643Z" fill="#F1EDE4"/>
<path d="M63.1174 61.2171C63.127 61.0692 63.0506 61.0071 62.9122 60.9976C62.8884 60.8162 62.7595 60.7065 62.6354 60.5919C62.4398 60.4106 62.2298 60.2388 62.0437 60.0432C61.9578 59.9525 61.9101 59.8189 61.8433 59.7091C61.9101 59.7187 61.9912 59.7091 62.0389 59.7425C62.5591 60.1338 63.0745 60.5299 63.4944 61.0262C63.5326 61.0739 63.5421 61.1503 63.5612 61.2123C63.4133 61.2123 63.2653 61.2123 63.1174 61.2123V61.2171Z" fill="#F1EDE4"/>
<path d="M53.9883 50.6037C54.1696 50.6419 54.2794 50.7803 54.3748 50.9139C54.4655 51.038 54.6277 51.1334 54.6039 51.3291C54.1362 50.9712 54.141 50.9664 54.0026 50.5894L53.9883 50.6085V50.6037Z" fill="#F1EDE4"/>
<path d="M53.1098 49.7783C52.7471 49.5635 52.4798 49.2724 52.3033 48.8907L52.2842 48.9097C52.3844 48.9288 52.5037 48.9241 52.5801 48.9766C52.8377 49.1627 53.0668 49.387 53.2052 49.6828C53.1718 49.7162 53.1432 49.7496 53.1098 49.7783Z" fill="#F1EDE4"/>
<path d="M58.035 55.2519C57.7725 55.1898 57.6532 54.9894 57.5626 54.7604C57.553 54.7413 57.5721 54.6935 57.596 54.6792C57.6198 54.6649 57.6676 54.6554 57.6866 54.6697C57.8775 54.8224 58.0255 55.0037 58.0207 55.2662L58.035 55.2519Z" fill="#F1EDE4"/>
<path d="M71.3919 65.2401C71.4158 65.2401 71.5208 65.2544 71.621 65.2735C71.7117 65.2925 71.7403 65.3403 71.7021 65.388C71.683 65.4118 71.6496 65.4357 71.621 65.4405C71.454 65.45 71.2822 65.4596 71.1104 65.45C71.0531 65.45 71.0006 65.3832 70.9434 65.345C70.9959 65.3069 71.0483 65.2591 71.1056 65.2401C71.1676 65.221 71.2392 65.2401 71.3872 65.2401H71.3919Z" fill="#F1EDE4"/>
<path d="M63.7517 61.6417C63.6802 61.4938 63.6086 61.3459 63.5322 61.1979C63.8281 61.217 64.0047 61.4175 64.186 61.6131L64.2003 61.594C64.0476 61.6083 63.8997 61.6227 63.747 61.637L63.7517 61.6417Z" fill="#F1EDE4"/>
<path d="M53.7734 50.3891C53.6446 50.3986 53.5682 50.3318 53.5205 50.2173C53.5491 50.1886 53.5778 50.16 53.6112 50.1266C53.7257 50.1695 53.7877 50.2507 53.7877 50.3747L53.7734 50.3891Z" fill="#F1EDE4"/>
<path d="M53.5207 50.2173C53.411 50.1791 53.3489 50.098 53.3203 49.9882C53.3537 49.9548 53.3824 49.9262 53.4158 49.8928C53.4778 49.9691 53.5446 50.0503 53.6066 50.1266C53.578 50.1553 53.5494 50.1839 53.5207 50.2173Z" fill="#F1EDE4"/>
<path d="M58.0156 55.2662C58.0156 55.2662 58.059 55.2854 58.0782 55.2951C58.0638 55.2806 58.0445 55.2662 58.0301 55.2517L58.0156 55.2662Z" fill="#F1EDE4"/>
<path d="M53.2054 49.6828C53.277 49.7544 53.3486 49.826 53.4202 49.8976C53.3868 49.9262 53.3581 49.9596 53.3247 49.993C53.2102 49.9644 53.1386 49.8976 53.1147 49.783C53.1482 49.7496 53.1768 49.721 53.2102 49.6876L53.2054 49.6828Z" fill="#F1EDE4"/>
<path d="M60.1678 58.034C60.0867 58.034 60.0056 58.034 59.9292 58.034C60.0103 57.9433 60.0915 57.8765 60.1678 58.034Z" fill="#F1EDE4"/>
<path d="M60.1392 58.2439C60.1392 58.1676 60.1392 58.0912 60.1392 58.0101C60.2871 58.0149 60.3682 58.0912 60.373 58.2439C60.2966 58.2439 60.2203 58.2439 60.1392 58.2439Z" fill="#F1EDE4"/>
<path d="M60.588 58.4587C60.4258 58.4634 60.3494 58.3871 60.3542 58.2248C60.5117 58.22 60.5928 58.2964 60.588 58.4587Z" fill="#F1EDE4"/>
<path d="M60.7978 58.6734C60.6403 58.6734 60.564 58.5971 60.564 58.4396C60.7214 58.4396 60.7883 58.5255 60.7978 58.6734Z" fill="#F1EDE4"/>
<path d="M61.0126 58.8834C60.8599 58.8834 60.7788 58.8022 60.7788 58.6495C60.9267 58.6591 61.0031 58.7354 61.0126 58.8834Z" fill="#F1EDE4"/>
<path d="M56.3218 49.3487C56.3981 49.4155 56.4745 49.4824 56.5461 49.5492L56.5652 49.5301C56.4888 49.4633 56.4125 49.3965 56.3361 49.3297L56.3218 49.3487Z" fill="#F1EDE4"/>
<path d="M61.2226 59.0981C61.0699 59.0981 60.9888 59.017 60.9888 58.8643C61.1367 58.8738 61.2131 58.9502 61.2226 59.0981Z" fill="#F1EDE4"/>
<path d="M61.4374 59.3081C61.2847 59.3081 61.2036 59.2269 61.2036 59.0742C61.3515 59.0838 61.4279 59.1601 61.4374 59.3081Z" fill="#F1EDE4"/>
<path d="M61.6474 59.5228C61.4995 59.5132 61.4136 59.4416 61.4136 59.2889C61.5615 59.2985 61.6426 59.3701 61.6474 59.5228Z" fill="#F1EDE4"/>
<path d="M61.8622 59.7327C61.7143 59.7232 61.638 59.6468 61.6284 59.4989C61.7811 59.5037 61.8622 59.58 61.8622 59.7327Z" fill="#F1EDE4"/>
<path d="M56.0781 49.1292C56.2022 49.1531 56.2786 49.2342 56.3215 49.3487L56.3358 49.3297C56.2547 49.2581 56.1783 49.1817 56.0972 49.1101L56.0781 49.1245V49.1292Z" fill="#F1EDE4"/>
<path d="M64.3866 61.8469C64.272 61.804 64.21 61.7276 64.2052 61.5988L64.1909 61.6179C64.253 61.6942 64.3102 61.7754 64.3723 61.8565L64.3866 61.8517V61.8469Z" fill="#F1EDE4"/>
<path d="M69.2828 64.8108L69.3124 64.8354L69.2778 64.8009L69.2828 64.8108Z" fill="#F1EDE4"/>
<path d="M54.0025 50.5847C53.8641 50.5942 53.7878 50.5226 53.7734 50.389L53.7878 50.3747C53.9166 50.3986 53.9834 50.4701 53.9882 50.599L54.0025 50.5847Z" fill="#F1EDE4"/>
<path d="M74.909 64.4718C74.6895 64.7057 74.5272 64.8918 74.3554 65.0684C73.7732 65.6744 73.0431 66.0323 72.2509 66.2471C71.6305 66.4141 70.9863 66.3711 70.3564 66.2327C69.7646 66.1039 69.2063 65.8796 68.6766 65.5981C67.0827 64.7534 65.5318 63.8276 64.1049 62.7157C63.4893 62.2385 62.8833 61.7517 62.2677 61.2745C61.6234 60.7735 61.0413 60.2056 60.5068 59.59C59.9484 58.9505 59.3997 58.3015 58.8556 57.6477C57.9298 56.5311 57.0088 55.4096 56.083 54.2977C55.9017 54.083 55.7013 53.8825 55.5008 53.6821C55.4102 53.5867 55.2288 53.5819 55.1095 53.663C55.0523 53.7012 54.995 53.7442 54.9377 53.7871C54.7373 53.935 54.5321 54.0734 54.346 54.2357C52.7807 55.5576 50.953 56.4022 49.0585 57.1085C47.2356 57.7861 45.3744 58.3492 43.4751 58.7787C42.2678 59.0507 41.0557 59.275 39.8149 59.3561C39.0753 59.4039 38.3356 59.5041 37.6007 59.6138C35.9161 59.862 34.2268 59.9813 32.5279 59.8238C32.1414 59.7856 31.7501 59.7856 31.3636 59.7618C31.0438 59.7427 30.7289 59.7284 30.4091 59.695C29.3211 59.5852 28.2283 59.4707 27.1402 59.3466C26.7537 59.3037 26.3719 59.2225 25.9902 59.1653C23.8523 58.8455 21.7812 58.2395 19.7244 57.5905C19.2186 57.433 18.7223 57.2421 18.2116 57.1037C16.8086 56.7172 15.482 56.1302 14.1744 55.5098C13.2821 55.0851 12.3945 54.6461 11.5068 54.2023C11.2253 54.0591 10.9485 53.8969 10.6813 53.7251C9.94159 53.2431 9.21146 52.742 8.46701 52.2648C7.14514 51.4249 5.97598 50.4037 4.90225 49.2632C4.22461 48.5426 3.56129 47.8124 3.00773 46.9821C2.26328 45.8654 1.87674 44.6342 1.76221 43.3123C1.662 42.1384 1.74789 40.9788 2.06285 39.843C2.10103 39.7094 2.11535 39.5662 2.15829 39.4279C2.3969 38.6548 2.32532 37.9294 2.01036 37.1659C1.64768 36.2878 1.46634 35.3429 1.50452 34.3694C1.52361 33.8302 1.59519 33.31 1.77175 32.8089C2.50189 30.714 3.53266 28.8004 5.08359 27.1826C5.50354 26.7484 5.95212 26.3523 6.44841 26.0087C7.78937 25.0781 9.20192 24.2812 10.6622 23.5558C10.7242 23.5224 10.7863 23.4843 10.8483 23.4604C12.3563 22.8496 13.8643 22.2435 15.4391 21.8236C16.3601 21.5802 17.2954 21.3893 18.245 21.2605C18.8034 21.1841 19.3665 21.0982 19.9248 21.0075C22.1295 20.6544 24.3438 20.4635 26.5771 20.4587C26.8253 20.4587 27.0734 20.454 27.3216 20.4731C28.486 20.5781 29.6456 20.683 30.8052 20.7976C31.5449 20.8739 32.2798 20.9837 33.0195 21.0505C33.5444 21.0982 34.0789 21.0887 34.6134 21.103C34.7374 21.0123 34.8615 20.9407 34.9617 20.8453C35.4771 20.3585 36.0259 19.9195 36.651 19.5711C36.8324 19.4709 36.9994 19.323 37.1235 19.156C37.5148 18.6406 37.992 18.2302 38.5312 17.8818C38.6219 17.8245 38.7078 17.7625 38.7889 17.6957C39.8674 16.832 41.113 16.3738 42.4778 16.2068C43.1793 16.1209 43.8808 16.035 44.5775 15.9062C45.4222 15.7487 46.2716 15.7487 47.1163 15.7773C47.7128 15.8012 48.3141 15.8918 48.901 16.0111C49.8698 16.2068 50.8385 16.4215 51.7929 16.6792C53.3295 17.0992 54.8089 17.6862 56.2071 18.464C58.8986 19.9672 61.4707 21.647 63.8329 23.637C64.3197 24.0474 64.7683 24.5007 65.2312 24.9398C65.7704 25.4504 66.3049 25.9658 66.8346 26.4859C67.2402 26.882 67.6506 27.2733 68.0324 27.6885C69.297 29.0724 70.5425 30.4706 71.7164 31.9357C73.1576 33.7395 74.3793 35.677 75.3146 37.7958C75.4435 38.0869 75.5914 38.3732 75.7823 38.6261C76.3883 39.4326 76.7653 40.3393 77.0517 41.2937C77.4859 42.7492 77.8677 44.2238 78.197 45.7079C78.6599 47.8172 79.0034 49.9456 79.2611 52.0882C79.4568 53.7012 79.5666 55.3285 79.5093 56.9606C79.4759 57.8816 79.3136 58.7883 79.1084 59.6854C78.9605 60.3392 78.7982 60.993 78.6169 61.6372C78.4594 62.186 78.216 62.6918 77.8581 63.1452C77.4764 63.632 76.9705 63.9517 76.4313 64.2237C76.312 64.2857 76.1593 64.3 76.0209 64.3191C75.6725 64.3716 75.3194 64.4193 74.9281 64.4766L74.909 64.4718ZM67.1543 27.6789C67.0827 27.6026 67.0064 27.531 66.9348 27.4546C66.6246 27.1158 66.324 26.7675 65.8706 26.6004C65.8372 26.5384 65.8181 26.4668 65.7704 26.4143C64.2958 24.7489 62.616 23.3077 60.7549 22.0908C60.6404 22.0145 60.4972 21.9906 60.3684 21.9429C60.3016 21.857 60.2395 21.7758 60.1727 21.69L60.1441 21.647L60.1918 21.6709C60.1823 21.7615 60.168 21.8522 60.1584 21.9381C59.686 21.8999 59.3233 21.69 59.0799 21.2795C59.2231 21.2795 59.3662 21.2748 59.5142 21.27L59.5333 21.3034L59.4951 21.2843C59.3472 21.0553 59.142 20.9169 58.8747 20.8691C58.7888 20.683 58.6123 20.683 58.4452 20.6592C58.4405 20.5208 58.3402 20.4731 58.2305 20.4349C58.135 20.2774 57.9823 20.2345 57.8105 20.2249C57.7437 20.0483 57.5863 19.9624 57.4383 19.867C55.4293 18.6119 53.3057 17.6098 51.0008 17.0372C50.2515 16.851 49.4975 16.6649 48.7388 16.5218C48.1518 16.4072 47.5553 16.2975 46.9636 16.2975C46.1952 16.2975 45.4222 16.4025 44.6539 16.4645C44.6491 16.4645 44.6443 16.5265 44.6395 16.5695C44.7445 16.5838 44.8447 16.5981 44.9497 16.622C45.0309 16.6411 45.1597 16.6268 45.0833 16.7985C44.7398 16.8558 44.3914 16.8272 44.0383 16.8129C43.919 16.684 43.7662 16.6458 43.5945 16.6602C43.5133 16.6649 43.4704 16.7031 43.4799 16.7795C43.4799 16.7985 43.5372 16.8224 43.5658 16.8224C43.7281 16.8224 43.8903 16.8081 44.0526 16.7985C44.0335 17.1708 44.0144 17.1994 43.7758 17.2137C43.5754 17.228 43.3749 17.2328 43.1745 17.2424V17.2519C43.0409 16.9656 42.8118 16.832 42.4969 16.8606C41.7524 16.9369 41.0366 17.1087 40.3828 17.4857C39.4618 18.0107 38.6076 18.6358 37.7486 19.2514C37.6055 19.3516 37.4766 19.4805 37.3573 19.6093C37.0376 19.9434 36.7847 20.3251 36.6415 20.7689C36.5985 20.8978 36.7226 21.0457 36.861 21.06C37.1903 21.0982 37.4814 20.9407 37.7963 20.9169C37.93 20.9026 38.0731 20.9455 38.202 20.9885C38.2449 21.0028 38.264 21.0982 38.2831 21.1602C38.2879 21.1746 38.2545 21.2223 38.2354 21.2271C38.1686 21.2461 38.097 21.2557 38.0302 21.2605C37.6055 21.2843 37.1855 21.2986 36.7608 21.3225C36.589 21.332 36.4649 21.5563 36.5461 21.7186C36.6081 21.8427 36.6844 21.962 36.7608 22.0765C36.861 22.2197 36.9994 22.3437 37.071 22.4964C37.4671 23.3316 38.2354 23.7992 38.9082 24.3576C39.395 24.5818 39.8245 24.8873 40.2397 25.2165C40.5499 25.4551 40.8839 25.6508 41.2752 25.7319C41.886 25.8608 42.3823 26.1757 42.7975 26.6338C43.2509 27.1349 43.7806 27.5453 44.3723 27.8698C45.0929 28.2611 45.7228 28.7622 46.2907 29.3587C46.7297 29.8216 47.2165 30.232 47.7557 30.5708C48.1518 30.819 48.4859 31.1244 48.7579 31.5014C49.2208 32.1361 49.7839 32.6658 50.4138 33.1287C50.8146 33.4198 51.1821 33.7491 51.5066 34.126C52.084 34.7989 52.733 35.3907 53.4107 35.9633C53.8163 36.3069 54.2124 36.6553 54.5751 37.0466C55.0332 37.5381 55.4913 38.0249 56.0067 38.4591C56.3073 38.712 56.5698 38.9984 56.7702 39.3324C57.0279 39.7619 57.3667 40.1198 57.7724 40.4109C58.0348 40.597 58.2639 40.8213 58.4118 41.1076C58.6123 41.4989 58.9129 41.7853 59.2803 42.0096C59.686 42.2577 59.9914 42.587 60.1775 43.026C60.3207 43.3601 60.5402 43.6368 60.8313 43.8468C61.3514 44.2238 61.7809 44.6867 62.1627 45.1973C62.3536 45.4502 62.5779 45.6793 62.7974 45.9084C63.308 46.4428 63.8425 46.9582 64.3435 47.507C64.6967 47.8983 65.0164 48.3231 65.3361 48.743C65.527 48.9911 65.6988 49.2632 65.8754 49.5208C65.947 49.5924 66.0233 49.6592 66.0997 49.5208C66.1713 49.664 66.2428 49.8119 66.3144 49.9551C66.219 50.0219 66.219 50.0919 66.3144 50.1651C66.3383 50.3321 66.3478 50.5039 66.5244 50.5946C66.8298 51.4822 67.2879 52.2887 67.8367 53.0427C67.8749 53.0951 67.9465 53.119 68.0037 53.1572L67.9847 53.1381C68.0562 53.2956 68.1183 53.4626 68.2089 53.6105C68.4475 54.0019 68.71 54.3788 68.9439 54.7797C69.3924 55.548 69.903 56.2638 70.533 56.8937C70.91 57.2707 71.2345 57.6955 71.4731 58.1727C71.8882 59.003 72.4275 59.7379 73.086 60.3917C73.463 60.7687 73.7541 61.2125 73.9498 61.7136C74.1788 62.3149 74.5702 62.8207 74.9662 63.3218C75.0999 63.4936 75.2717 63.6129 75.4769 63.6844C75.6009 63.7274 75.8014 63.694 75.8682 63.6081C76.2452 63.1166 76.5029 62.5869 76.4408 61.9474C76.417 61.6992 76.3979 61.4559 76.374 61.2077C76.2929 60.4299 76.0638 59.6854 75.9207 58.9219C75.5628 57.0608 74.8469 55.3285 73.988 53.663C72.7854 51.3342 71.3919 49.1152 69.7456 47.0728C68.104 45.0351 66.4003 43.0451 64.6156 41.1315C63.4846 39.9146 62.3297 38.7168 61.1844 37.5142C60.6261 36.9225 60.0725 36.326 59.5046 35.7438C58.7125 34.9325 57.9251 34.1213 57.109 33.3386C56.3455 32.6037 55.5486 31.9022 54.7707 31.1769C54.618 31.0337 54.4892 30.8667 54.346 30.7092C54.3937 30.6615 54.4414 30.6138 54.4892 30.5661C54.6037 30.6472 54.7325 30.714 54.8375 30.8047C55.7681 31.6207 56.6939 32.4463 57.6149 33.2671C57.7485 33.3864 57.8726 33.5104 57.9967 33.6345C59.9246 35.6054 61.8621 37.5667 63.7852 39.5519C65.7275 41.561 67.5504 43.675 69.3543 45.8129C71.2583 48.0654 72.8665 50.5182 74.2838 53.0904C75.0855 54.5459 75.7632 56.0682 76.1831 57.6859C76.4217 58.6117 76.6747 59.5327 76.8465 60.468C77.0087 61.3366 77.1137 62.2194 76.8846 63.0975L76.8655 63.1309L76.8989 63.0832C77.0517 63.0975 77.171 63.0354 77.2712 62.9305C77.672 62.5105 77.9345 62.0142 78.0872 61.4654C78.3258 60.616 78.5501 59.7618 78.741 58.9028C78.8603 58.354 78.9557 57.7909 78.9748 57.2278C79.0034 56.24 79.0034 55.2521 78.9319 54.2643C78.846 53.1047 78.7553 51.9451 78.5692 50.795C78.3974 49.7499 78.2542 48.7 78.0586 47.6645C77.672 45.6173 77.1519 43.6034 76.6031 41.5992C76.2356 40.2677 75.6916 39.0079 74.9042 37.8626C74.5463 37.3424 74.2313 36.7841 73.9212 36.2353C73.3819 35.2857 72.8188 34.3456 72.1603 33.4675C71.1486 32.1074 70.051 30.819 68.9152 29.5591C68.7768 29.4017 68.6432 29.2299 68.4285 29.1678C68.3903 29.0581 68.3282 28.9817 68.2089 28.9579C68.1708 28.8576 68.1135 28.7717 67.999 28.7431C67.9274 28.6668 67.851 28.5952 67.7795 28.5188C67.7127 28.3804 67.6458 28.2468 67.579 28.1084C67.5075 28.0368 67.4359 27.9653 67.3643 27.8937C67.2927 27.8221 67.2259 27.7505 67.1543 27.6789ZM51.6593 51.4392L51.6307 51.4726L51.6641 51.444C51.6641 51.3724 51.6832 51.3629 51.7213 51.4297C51.7023 51.4297 51.6832 51.4345 51.6593 51.4392ZM63.1314 61.203C63.2698 61.4559 63.4703 61.6229 63.7709 61.6229C63.8186 61.7088 63.852 61.8233 63.9236 61.8854C64.5535 62.4389 65.2073 62.9591 65.9279 63.3886C66.0424 63.4554 66.1856 63.4888 66.3144 63.5365C66.5864 63.8944 66.9443 64.1044 67.3834 64.1712C67.4502 64.2476 67.5027 64.3525 67.5838 64.4003C68.2471 64.8059 68.9343 65.159 69.6644 65.4454C70.4852 65.7651 71.3251 65.7889 72.165 65.6124C72.4991 65.5408 72.8522 65.4549 73.1194 65.2067C73.0335 64.9968 72.8522 64.9681 72.6995 64.9013C71.6639 64.4384 70.6618 63.923 69.8219 63.1404C69.6167 62.9495 69.3781 62.7873 69.1395 62.6394C67.9083 61.9044 66.8871 60.9309 65.9947 59.8238C65.5938 59.3227 65.15 58.8694 64.6251 58.5067C64.1574 58.1822 63.747 57.7909 63.4178 57.328C62.8976 56.6026 62.2868 55.9727 61.5805 55.4287C61.1844 55.1233 60.8551 54.7558 60.5927 54.3311C60.1632 53.6392 59.7146 52.9615 59.3185 52.2505C58.9749 51.6301 58.5693 51.0575 58.116 50.5087C57.5528 49.831 57.0041 49.1343 56.4457 48.4471C56.1546 48.0892 55.8635 47.7361 55.5724 47.3782C55.1477 46.858 54.7134 46.3474 54.3078 45.8129C53.7686 45.1019 53.1434 44.4863 52.3894 44.0043C52.2415 43.9089 52.0983 43.8039 51.9456 43.7084C51.5209 43.4364 51.1678 43.0928 50.9101 42.6633C50.5999 42.1384 50.2277 41.6755 49.7171 41.3319C49.4785 41.1697 49.2923 40.9502 49.1874 40.6829C48.9249 40.0387 48.462 39.5615 47.9132 39.1558C47.4503 38.8218 47.0542 38.4162 46.7584 37.9246C46.3479 37.247 45.8135 36.6934 45.1502 36.2639C44.7254 35.9919 44.3866 35.634 44.1528 35.1855C43.9524 34.8037 43.6899 34.4744 43.3558 34.2024C42.9645 33.8779 42.683 33.4818 42.5255 32.9951C42.368 32.5178 42.1151 32.0931 41.7667 31.7352C41.4661 31.425 41.2418 31.0719 41.0891 30.671C40.8505 30.0316 40.483 29.4732 40.0201 28.9769C39.6813 28.6143 39.3998 28.2086 39.1564 27.7744C39.0323 27.5596 38.9082 27.3449 38.7603 27.1492C38.3356 26.6004 38.1161 25.9801 38.0111 25.3024C37.9443 24.8491 37.8536 24.4005 37.7582 23.9567C37.7486 23.909 37.6484 23.8613 37.5911 23.8565C37.553 23.8565 37.4957 23.9328 37.4766 23.9853C37.4528 24.0474 37.4575 24.1237 37.4528 24.1953C37.4289 24.4339 37.5005 24.6868 37.3669 24.9159C37.3525 24.9398 37.2857 24.9541 37.2857 24.9493C37.2476 24.892 37.1951 24.83 37.1951 24.7632C37.176 24.2717 37.1712 23.7801 37.1569 23.2552C37.0328 23.155 36.8992 23.0452 36.7608 22.9355L36.7799 22.9498C36.6272 22.8687 36.4792 22.7875 36.3265 22.7016L36.3361 22.7207C36.255 22.339 36.045 22.0097 35.9161 21.647C35.8255 21.6756 35.7443 21.6709 35.7109 21.7138C35.5964 21.8474 35.5057 22.0001 35.3912 22.129C35.353 22.1719 35.2719 22.1767 35.2099 22.1958C35.1908 22.129 35.1431 22.0622 35.1574 22.0049C35.248 21.6088 35.4962 21.313 35.8255 21.0839C35.94 21.0028 36.0784 20.9455 36.1213 20.7976C36.1404 20.7403 36.1166 20.6687 36.1023 20.6067C36.1023 20.5971 36.0402 20.5828 36.0164 20.5971C35.5487 20.8501 35.1574 21.2032 34.7708 21.5706C34.3079 22.0097 34.098 22.5537 34.0932 23.1836C34.0932 23.3936 34.0884 23.6083 34.1171 23.8183C34.3413 25.2547 34.7183 26.6434 35.4198 27.9366C36.0259 29.0581 36.7703 30.0888 37.4862 31.1387C37.5196 31.1912 37.6007 31.2151 37.658 31.2532C37.6866 31.5443 37.8154 31.7639 38.0827 31.8927C38.1113 31.9929 38.1208 32.1074 38.1781 32.1933C38.8319 33.2003 39.4427 34.2358 40.2015 35.1759C41.9767 37.3758 43.7328 39.5949 45.5367 41.7662C47.0256 43.5605 48.5288 45.3453 50.1322 47.0394C51.0055 47.9651 51.855 48.91 52.6901 49.8692C53.6206 50.9334 54.5846 51.9689 55.5867 52.9663C56.0353 53.4149 56.4553 53.8969 56.8609 54.3836C57.739 55.443 58.6027 56.5215 59.4712 57.5905C59.6049 57.7527 59.7289 57.9293 59.9437 57.9961C59.9818 58.1059 60.0534 58.187 60.168 58.2108C60.2061 58.3063 60.2205 58.4208 60.2825 58.5019C60.9697 59.3848 61.7237 60.2056 62.6304 60.8689C62.7115 60.9262 62.8212 60.9405 62.9167 60.9787C62.9262 61.1123 63.0121 61.1695 63.1362 61.1886L63.1314 61.203ZM52.2797 50.9668C52.3799 50.9763 52.4849 50.9954 52.5851 50.9859C52.6328 50.9811 52.7044 50.9095 52.7092 50.8618C52.7139 50.8093 52.6662 50.7282 52.6233 50.7043C52.5755 50.6805 52.4753 50.69 52.4419 50.7282C52.3703 50.7998 52.3274 50.9 52.2749 50.9859L52.2654 51.0193L52.2797 50.9668ZM46.5627 53.5676C45.7514 53.6535 45.7085 53.663 45.2599 53.9398C45.3219 53.9637 45.384 54.0066 45.446 54.0019C45.8326 53.9923 46.1857 53.8587 46.5007 53.6392C46.5245 53.6201 46.5293 53.5771 46.5436 53.5485C46.6009 53.5485 46.6581 53.5485 46.7154 53.5437C46.7297 53.5437 46.7488 53.4817 46.744 53.4817C46.6343 53.4101 46.6009 53.5008 46.5579 53.5724L46.5627 53.5676ZM5.60375 44.639C5.60375 44.7392 5.61807 44.7583 5.66579 44.701C5.63716 44.6867 5.6133 44.6724 5.58466 44.6581C5.48445 44.3097 5.22198 44.0616 5.02633 43.7705C4.99292 43.718 4.9118 43.6989 4.82113 43.6464C4.76386 43.8755 4.83067 44.0711 4.92611 44.262C5.06928 44.5435 5.27448 44.6963 5.60375 44.639ZM51.0246 51.8878C50.8099 51.883 50.6142 51.9355 50.4233 52.0262C49.9223 52.26 49.4116 52.4891 48.9106 52.7229C48.8724 52.742 48.8581 52.8088 48.8294 52.8565C49.1205 52.9329 49.3878 52.8852 49.6455 52.7706C50.0606 52.5893 50.4615 52.3841 50.8194 52.1026C50.8958 52.0405 50.9435 51.9451 51.0055 51.8639L51.0485 51.8353L51.0246 51.8783V51.8878ZM24.8687 54.2357C25.0548 54.3264 25.2409 54.4313 25.4366 54.4981C25.6991 54.5888 25.9711 54.6461 26.2622 54.522C25.7897 54.3645 25.3412 54.1975 24.8496 54.25C24.7303 54.1784 24.6206 54.083 24.4965 54.0353C24.067 53.8635 23.6041 53.8301 23.1603 53.7298C21.7859 53.4197 20.4164 53.0761 19.0324 52.7945C17.2906 52.4366 15.6443 51.8353 14.0599 51.0384C13.745 50.8809 13.4252 50.733 13.1055 50.585C13.0291 50.5516 12.948 50.5612 12.9242 50.6375C12.9051 50.6948 12.9242 50.7759 12.9528 50.8284C13.0339 50.9859 13.1341 51.129 13.3107 51.2054C13.9931 51.4965 14.6421 51.8496 15.3484 52.0835C15.7206 52.2075 16.1119 52.2219 16.4746 52.3459C16.8421 52.47 17.1856 52.6609 17.5435 52.8041C17.7058 52.8709 17.8871 52.89 18.0542 52.9377C18.8368 53.1524 19.6242 53.3433 20.3973 53.5914C20.9413 53.7632 21.4805 53.8921 22.0484 53.9207C22.33 53.935 22.6163 53.9589 22.8788 54.0496C23.2223 54.1641 23.5659 54.188 23.9238 54.188C24.2388 54.188 24.5585 54.1212 24.8687 54.2452V54.2357ZM53.1482 52.9377V52.9281C53.1673 52.7706 53.2914 52.6991 53.4154 52.6275C54.1217 52.2266 54.0119 52.1598 53.53 51.6444C53.4584 51.5681 53.3868 51.487 53.3104 51.4154C53.2102 51.3104 53.048 51.3056 52.9335 51.4106C52.3226 51.9498 51.6116 52.3555 50.9674 52.8422C50.829 52.9472 50.6667 53.0331 50.514 53.1142C49.9843 53.4053 49.426 53.6296 48.8056 53.6153C48.4047 53.6058 48.042 53.7442 47.6841 53.9016C47.5219 53.9732 47.374 54.0734 47.2117 54.145C46.4625 54.4695 45.7133 54.7749 44.8781 54.7845C44.6348 54.7845 44.3866 54.8513 44.1432 54.8751C43.1554 54.9658 42.1867 55.1281 41.2466 55.4717C40.8457 55.6196 40.4496 55.7246 40.1108 56.0109C39.834 56.2447 39.4904 56.3736 39.1278 56.3354C38.6124 56.2781 38.1495 56.3974 37.7152 56.6647C37.5673 56.7554 37.3859 56.7935 37.2237 56.8603C36.9183 56.9796 36.5986 57.0274 36.2884 56.9224C35.8971 56.7888 35.5344 56.8412 35.1526 56.9606C34.5275 57.161 33.8975 57.1371 33.2915 56.8556C33.2294 56.8269 33.1579 56.8078 33.0958 56.7792C32.8 56.6504 32.4898 56.5836 32.17 56.5883C31.7024 56.5931 31.2538 56.4833 30.8243 56.3259C30.118 56.0682 29.3974 55.9298 28.6435 55.9393C28.0326 55.9489 27.4457 55.8296 26.9207 55.5051C26.7012 55.3667 26.4626 55.3333 26.2097 55.3333C26.0331 55.3333 25.8565 55.3333 25.68 55.3285C25.3937 55.319 25.1073 55.2903 24.864 55.1281C24.5538 54.9229 24.2102 54.8895 23.8475 54.899C23.3846 54.9133 22.9313 54.899 22.4922 54.7129C22.3681 54.6604 22.2154 54.6509 22.077 54.6509C21.3612 54.6365 20.6788 54.4791 20.0155 54.2166C19.8867 54.1641 19.7483 54.1116 19.6099 54.0877C18.875 53.9637 18.2021 53.6249 17.4767 53.4674C17.2047 53.4053 16.9375 53.2908 16.6893 53.1572C16.403 53.0045 16.1024 52.9138 15.797 52.8327C15.5584 52.7706 15.3293 52.6752 15.0907 52.6084C14.3653 52.4032 13.7688 51.9451 13.115 51.6015C12.886 51.4822 12.7428 51.2722 12.6426 51.0431C12.4994 50.7234 12.3801 50.3941 12.2704 50.1126C11.7454 49.7785 11.2587 49.4874 10.8006 49.1629C10.4188 48.8957 10.0275 48.6905 9.57414 48.5664C8.84878 48.366 8.21886 47.9795 7.67962 47.4402C7.40761 47.1682 7.12128 46.901 6.81109 46.6671C6.43887 46.3856 6.10482 46.0802 5.89485 45.6554C5.79941 45.4598 5.6467 45.3166 5.45104 45.2164C5.32697 45.1496 5.19812 45.0876 5.07882 45.0112C4.73046 44.7821 4.53957 44.4529 4.52526 44.0377C4.51571 43.718 4.5348 43.403 4.53957 43.0833C4.53957 42.8685 4.49185 42.6681 4.39641 42.4725C4.15303 41.9618 3.93352 41.4417 3.69491 40.9311C3.4229 40.3584 3.14612 39.7858 2.85979 39.2227C2.84071 39.1845 2.74526 39.1749 2.68323 39.1654C2.66414 39.1654 2.63073 39.2083 2.61642 39.2417C2.58301 39.3038 2.54006 39.3658 2.53052 39.4326C2.37781 40.4825 2.21556 41.5323 2.34441 42.5965C2.37304 42.8399 2.3969 43.0881 2.42553 43.3362C2.54961 44.4767 2.88843 45.5409 3.50403 46.5144C4.05282 47.3877 4.72091 48.1608 5.43196 48.9052C6.4341 49.9599 7.51259 50.9191 8.74379 51.7065C9.51688 52.198 10.2756 52.7229 11.0439 53.2288C11.2778 53.3815 11.5259 53.5294 11.7789 53.6535C12.7619 54.1402 13.7402 54.627 14.7328 55.0994C15.6252 55.5242 16.5271 55.9489 17.472 56.2352C19.5669 56.8699 21.6332 57.6 23.7711 58.0963C25.1503 58.416 26.539 58.6737 27.9467 58.8121C29.2829 58.941 30.6239 59.0269 31.9601 59.1509C33.4776 59.2893 34.9951 59.3227 36.5079 59.1128C37.0328 59.0412 37.5577 58.9744 38.0827 58.9123C38.7842 58.8264 39.4857 58.7215 40.1872 58.6737C41.3563 58.5974 42.4969 58.3636 43.6326 58.1011C44.9068 57.81 46.1475 57.3996 47.3978 57.0083C48.7865 56.574 50.1084 55.9966 51.4064 55.3428C51.9743 55.0565 52.5231 54.7272 53.0337 54.3454C53.6015 53.9207 54.1551 53.4865 54.7278 53.0474C54.6753 52.9472 54.6466 52.8422 54.5846 52.7706C54.3889 52.5464 54.2458 52.513 54.031 52.6179C53.8402 52.7134 53.6588 52.8279 53.4632 52.909C53.3725 52.9472 53.258 52.9329 53.153 52.9424L53.1482 52.9377ZM69.9174 62.4819C69.9221 62.6203 70.0033 62.6823 70.1321 62.6966C70.2037 62.8159 70.2562 62.9495 70.3516 63.0498C70.7191 63.4363 71.182 63.6988 71.621 63.9994C72.0123 64.2666 72.437 64.4003 72.8904 64.4957C73.5203 64.6293 73.988 64.3859 74.365 63.8992C74.4509 63.7847 74.4604 63.632 74.3745 63.5079C74.2361 63.3027 74.0834 63.107 73.9546 62.897C73.7732 62.5964 73.568 62.3005 73.4392 61.976C73.2101 61.4034 72.857 60.9262 72.4323 60.4967C71.8978 59.967 71.4731 59.3705 71.1342 58.7024C70.8431 58.1345 70.4805 57.6143 70.0271 57.1562C69.4545 56.574 68.9868 55.9107 68.5764 55.2044C68.3139 54.7463 68.0419 54.2882 67.7413 53.8539C67.1782 53.0379 66.6962 52.1789 66.2524 51.2913C65.8897 50.5659 65.4936 49.8549 65.1023 49.1438C64.8446 48.681 64.5869 48.1942 64.1765 47.8602C63.4321 47.2589 62.8928 46.4476 62.0863 45.9179C61.8859 45.7843 61.7284 45.5743 61.5853 45.3787C61.2894 44.973 60.941 44.6342 60.5354 44.3383C60.1298 44.0425 59.7957 43.6798 59.5953 43.2121C59.4521 42.8685 59.1992 42.6347 58.8938 42.4438C58.4691 42.1766 58.116 41.833 57.8773 41.3844C57.739 41.1267 57.5242 40.9454 57.2952 40.7784C57.0088 40.5684 56.7225 40.3489 56.5412 40.0435C56.1594 39.3897 55.6154 38.8886 55.0523 38.4018C54.8662 38.2396 54.6896 38.063 54.5273 37.8769C54.0119 37.2899 53.4441 36.7602 52.8428 36.2687C52.2129 35.7533 51.6211 35.195 51.0914 34.5746C50.7669 34.1976 50.409 33.8588 50.0082 33.5629C49.3544 33.0714 48.7722 32.5035 48.2902 31.845C48.0802 31.5587 47.8464 31.2962 47.541 31.1053C46.8538 30.6615 46.2477 30.1223 45.6799 29.5353C45.2551 29.101 44.7875 28.7288 44.2578 28.4425C43.5086 28.0321 42.8166 27.5501 42.2487 26.9011C42.0149 26.6291 41.7095 26.4525 41.3611 26.3427C40.9603 26.2139 40.5642 26.066 40.1633 25.9276L40.1776 25.9467C40.0249 25.6603 39.7577 25.4838 39.5095 25.2929C39.3759 25.1927 39.2471 25.2595 39.1325 25.3406L39.1516 25.3263C39.0371 25.2929 38.9894 25.2022 38.9607 25.0972C38.9178 24.9588 38.8558 24.8491 38.6983 24.8061C38.5742 24.7727 38.5217 24.9636 38.5742 25.2452C38.684 25.8417 38.8558 26.4096 39.2375 26.9011C39.3902 27.0967 39.5143 27.3115 39.6336 27.531C39.8722 27.9653 40.1633 28.3661 40.4974 28.7336C40.9746 29.2633 41.3611 29.8502 41.614 30.5231C41.7429 30.8619 41.9338 31.1483 42.1819 31.4107C42.578 31.8259 42.8691 32.3079 43.0457 32.8567C43.1697 33.2384 43.3893 33.5486 43.6851 33.8159C44.0001 34.1022 44.3103 34.3981 44.5059 34.7798C44.7875 35.3334 45.2217 35.7342 45.7371 36.0683C46.2525 36.4023 46.6677 36.8318 46.9874 37.352C47.3644 37.9676 47.8321 38.4782 48.4143 38.8981C48.9392 39.2751 49.3544 39.7524 49.6264 40.3441C49.7457 40.6066 49.9175 40.8261 50.1609 40.9931C50.6381 41.3176 51.0008 41.7471 51.2966 42.2386C51.5782 42.7015 51.9552 43.0642 52.4181 43.3457C52.5087 43.403 52.5946 43.465 52.6853 43.5223C53.5061 44.0377 54.1837 44.6963 54.7564 45.4741C55.1334 45.9847 55.5486 46.4715 55.9446 46.9678C56.2787 47.3829 56.6127 47.7933 56.9468 48.2037C57.4813 48.8623 58.011 49.5256 58.5502 50.1842C58.932 50.6471 59.3042 51.1195 59.6144 51.6397C60.0296 52.3412 60.4686 53.0236 60.8838 53.7203C61.2131 54.2739 61.6235 54.7558 62.1388 55.1424C62.764 55.6148 63.2985 56.1779 63.747 56.8222C64.1193 57.3471 64.5631 57.8004 65.0832 58.1774C65.5461 58.5115 65.9422 58.9123 66.281 59.3705C66.448 59.5948 66.6246 59.819 66.8107 60.0338C67.6029 60.9453 68.4857 61.7613 69.5404 62.3673C69.6597 62.4342 69.8028 62.458 69.9317 62.501L69.9174 62.4819ZM44.902 52.5368L44.9211 52.5511C44.9784 52.408 45.0881 52.3412 45.2361 52.3078C46.4386 52.0119 47.6078 51.6063 48.7483 51.1386C49.698 50.752 50.6238 50.313 51.5591 49.8931C51.6832 49.8358 51.7261 49.6258 51.6498 49.5256C51.5829 49.4445 51.5209 49.3586 51.4493 49.2822C50.8337 48.5998 50.2229 47.9126 49.5978 47.2398C47.8273 45.3548 46.1618 43.3839 44.525 41.3892C43.0457 39.5853 41.6093 37.7433 40.149 35.9251C39.5525 35.1807 39.0085 34.3933 38.4883 33.5916C37.7152 32.4081 36.9374 31.2246 36.1452 30.0554C35.6871 29.3826 35.2671 28.6859 34.8949 27.9605C34.2125 26.6195 33.8212 25.1974 33.7591 23.6895C33.7496 23.5129 33.7591 23.3363 33.7544 23.1598C33.7448 22.9498 33.6351 22.8114 33.4537 22.7875C33.3487 22.7732 33.2438 22.7637 33.1388 22.7541C32.8572 22.735 32.5757 22.716 32.2989 22.6921C32.2798 22.6921 32.2368 22.6396 32.2416 22.6253C32.2655 22.568 32.2989 22.4821 32.3371 22.4773C32.4755 22.4487 32.6186 22.4392 32.757 22.4487C33.0052 22.463 33.2485 22.5012 33.4919 22.5251C33.5587 22.5298 33.6398 22.5251 33.6971 22.4964C33.7448 22.4678 33.7926 22.3914 33.7926 22.3342C33.7926 22.2769 33.7448 22.191 33.7019 22.1719C33.3965 22.0479 33.0767 22.1194 32.7618 22.129C32.2369 22.1481 31.7071 22.2101 31.1727 22.1099C31.2013 22.0479 31.2061 22.0001 31.2299 21.9906C32.0603 21.6327 32.967 21.7949 33.826 21.6231C33.3297 21.5754 32.8381 21.5468 32.3466 21.542C30.8625 21.5277 29.3736 21.5611 27.8942 21.3845C27.7558 21.3654 27.6127 21.375 27.4695 21.3654C25.2028 21.2795 22.9456 21.4227 20.6979 21.709C19.9248 21.8045 19.1517 21.8856 18.3834 22.0097C17.4099 22.1672 16.4317 22.3294 15.4725 22.568C14.5419 22.7971 13.6591 23.155 12.7619 23.4747C10.6145 24.2383 8.6579 25.3645 6.78246 26.6434C6.3148 26.9631 5.90917 27.3592 5.52263 27.7744C4.11486 29.2728 3.19861 31.0528 2.53052 32.976C2.27283 33.7204 2.18216 34.4887 2.37304 35.2714C2.42076 35.4766 2.4303 35.6961 2.49234 35.8965C2.79298 36.8795 3.03636 37.8721 3.24156 38.8791C3.27497 39.0509 3.31792 39.2322 3.40381 39.3801C3.9526 40.3298 4.40118 41.3271 4.90702 42.3007C5.33174 43.1215 5.78509 43.9136 6.44364 44.5769C6.54386 44.6772 6.62498 44.7965 6.70611 44.911C7.16423 45.5505 7.74643 46.0658 8.34294 46.5669C8.61495 46.7912 8.91082 46.9869 9.1876 47.2064C11.0201 48.6714 13.0482 49.8215 15.1814 50.7855C16.2455 51.2674 17.3383 51.6683 18.4837 51.9164C20.0728 52.26 21.6571 52.6179 23.2414 52.9711C23.8284 53.0999 24.4201 53.2049 24.9976 53.3624C27.3264 54.0019 29.6933 54.3693 32.108 54.4075C32.6043 54.4123 33.1006 54.417 33.5921 54.4743C34.6468 54.5984 35.7109 54.5984 36.7703 54.6222C37.9109 54.6461 39.0275 54.4791 40.1395 54.2834C41.7429 54.0019 43.3081 53.5724 44.8829 53.1715C45.8755 52.9186 46.8681 52.6752 47.8368 52.3268C49.3353 51.7876 50.7717 51.1147 52.1508 50.3226C52.1699 50.313 52.1699 50.251 52.1604 50.2223C52.1508 50.1937 52.1127 50.1508 52.0936 50.1555C51.9933 50.1651 51.8836 50.1651 51.7977 50.208C50.4424 50.8952 49.0346 51.4726 47.5935 51.9498C46.7202 52.2362 45.8373 52.4939 44.9163 52.5511L44.902 52.5368ZM28.9823 54.9467C28.4287 54.8417 28.0851 54.7797 27.7368 54.7129C27.7034 54.7081 27.6652 54.7033 27.6318 54.7129C27.5984 54.7224 27.5506 54.7558 27.5506 54.7654C27.565 54.8227 27.5793 54.9133 27.6175 54.9229C28.1901 55.1185 28.7866 55.1519 29.3831 55.1806C29.9128 55.2044 30.4378 55.2521 30.9341 55.4573C31.3636 55.6339 31.8217 55.6816 32.275 55.7389C32.7284 55.7962 33.1817 55.8296 33.6112 56.0348C34.1409 56.2877 34.6754 56.345 35.248 56.1207C35.5725 55.9918 35.9305 55.9489 36.2884 56.0443C36.7942 56.1827 37.2619 56.0634 37.7009 55.7914C38.1638 55.5051 38.6696 55.3858 39.2184 55.4573C39.2852 55.4669 39.3616 55.4573 39.4284 55.4526C39.4618 55.4526 39.4952 55.4335 39.5286 55.4287C39.6193 55.4144 39.7577 55.2426 39.7052 55.2044C39.6527 55.1662 39.5811 55.1138 39.5238 55.1185C39.0323 55.171 38.5456 55.2617 38.0588 55.2855C36.5461 55.3619 35.0285 55.3428 33.5158 55.214C32.5995 55.1328 31.6881 55.0994 30.7718 55.0708C30.1037 55.0517 29.4309 55.1138 28.987 54.9372L28.9823 54.9467Z" fill="#F1EDE4"/>
<path d="M8.37163 26.4045C8.40026 26.3424 8.40503 26.2565 8.45275 26.2231C9.49784 25.4453 10.6288 24.8392 11.8887 24.4956C11.9459 24.4813 12.0223 24.5195 12.0843 24.5433C12.1607 24.572 12.0939 24.7008 11.9698 24.7676C11.9412 24.7819 11.9125 24.8106 11.8791 24.8249C10.7815 25.2782 9.71259 25.7936 8.65795 26.3424C8.57206 26.3901 8.45275 26.3806 8.35254 26.3949L8.36686 26.4092L8.37163 26.4045Z" fill="#F1EDE4"/>
<path d="M26.1 22.0333C26.1668 22.0047 26.2288 21.9569 26.2909 21.9569C27.0258 21.9474 27.7655 21.9426 28.5004 21.9474C28.6244 21.9474 28.7628 21.9379 28.8964 22.0667C27.9993 22.1669 27.126 22.1908 26.2479 22.1287C26.1954 22.1287 26.1477 22.0667 26.0952 22.0333H26.1Z" fill="#F1EDE4"/>
<path d="M10.4285 33.6248C10.3378 33.7775 10.2662 33.9397 10.1612 34.0734C10.104 34.1449 9.98466 34.1831 9.88922 34.207C9.79378 34.2308 9.63153 34.0781 9.61244 33.9397C9.58858 33.7679 9.5838 33.5914 9.58858 33.4196C9.58858 33.3003 9.76037 33.1857 9.89399 33.1905C10.0372 33.1953 10.1803 33.2144 10.271 33.3384C10.3283 33.4196 10.3664 33.515 10.4285 33.6248Z" fill="#F1EDE4"/>
<path d="M37.51 48.1032C37.6388 48.1032 37.7724 48.2798 37.7295 48.3991C37.6436 48.652 37.4766 48.8143 37.2189 48.8906C37.0948 48.9288 36.9278 48.8143 36.9135 48.6759C36.8848 48.3371 37.1234 48.1128 37.51 48.1032Z" fill="#F1EDE4"/>
<path d="M18.7078 22.6726C18.2163 22.9112 17.7152 23.0353 17.2237 23.1642C17.195 23.1689 17.1569 23.1498 17.133 23.1307C17.0757 23.0878 17.09 23.0353 17.1759 22.9876C17.5768 22.7585 18.0158 22.6392 18.474 22.5867C18.536 22.582 18.6028 22.6297 18.7078 22.6726Z" fill="#F1EDE4"/>
<path d="M37.0807 45.8986C37.0521 45.9558 37.0092 46.0894 36.9328 46.1992C36.8326 46.3424 36.5988 46.3185 36.4985 46.1563C36.4461 46.0704 36.4031 45.9701 36.3792 45.8747C36.3649 45.8127 36.3792 45.7363 36.4031 45.6743C36.4508 45.5407 36.6608 45.4738 36.8565 45.5168C36.9805 45.5454 37.0903 45.6934 37.0807 45.8986Z" fill="#F1EDE4"/>
<path d="M40.44 46.0989C40.4257 46.285 40.3637 46.4425 40.1871 46.5236C40.1298 46.5475 40.0487 46.5523 39.9914 46.5284C39.8244 46.4568 39.7385 46.2707 39.7672 46.1037C39.7958 45.9462 39.9676 45.8317 40.1632 45.8364C40.2921 45.8412 40.44 45.9796 40.44 46.0989Z" fill="#F1EDE4"/>
<path d="M9.58384 36.0631C9.45977 36.044 9.38818 35.9295 9.38818 35.7482C9.38818 35.6098 9.50749 35.4953 9.65542 35.5048C9.80336 35.5096 9.9322 35.6336 9.91789 35.7625C9.8988 35.9581 9.75086 36.0918 9.58384 36.0631Z" fill="#F1EDE4"/>
<path d="M11.6117 35.3712C11.6308 35.5335 11.4971 35.7005 11.3349 35.7244C11.2156 35.7435 11.0915 35.6194 11.0772 35.4762C11.0581 35.2806 11.1774 35.1183 11.3349 35.1279C11.4637 35.1326 11.5974 35.2519 11.6117 35.3712Z" fill="#F1EDE4"/>
<path d="M3.43262 37.0558C3.77144 37.3087 3.87642 37.6666 3.89074 38.0627L3.90983 38.0484C3.85256 38.0102 3.77144 37.9863 3.74758 37.9338C3.59964 37.6523 3.48034 37.3612 3.44693 37.0367L3.43262 37.0558Z" fill="#F1EDE4"/>
<path d="M4.33454 39.1078C4.02913 38.8214 3.83347 38.4922 3.9146 38.0531L3.89551 38.0674C4.16752 38.3681 4.33931 38.7069 4.32022 39.1269L4.33931 39.1125L4.33454 39.1078Z" fill="#F1EDE4"/>
<path d="M2.86413 34.8464C2.7162 34.6794 2.67325 34.479 2.69711 34.2642C2.76392 34.207 2.783 34.2356 2.78778 34.3454C2.79732 34.5171 2.82595 34.6889 2.84504 34.8607L2.86413 34.8464Z" fill="#F1EDE4"/>
<path d="M22.3345 22.3292C22.2772 22.3006 22.2247 22.2719 22.1675 22.2433C22.2247 22.2099 22.2772 22.1669 22.3393 22.1479C22.4013 22.1335 22.4729 22.1383 22.5397 22.1479C22.5683 22.1479 22.6113 22.1717 22.6208 22.1956C22.6542 22.2576 22.6208 22.3006 22.5349 22.3149C22.4681 22.3244 22.4013 22.3244 22.3345 22.334V22.3292Z" fill="#F1EDE4"/>
<path d="M23.7961 22.0189C23.7961 22.0189 23.7961 22.0767 23.7865 22.0767C23.7624 22.0815 23.7335 22.0767 23.7046 22.0767C23.7046 22.0574 23.7046 22.0189 23.7142 22.0189C23.7383 22.0141 23.7672 22.0189 23.7961 22.0189Z" fill="#F1EDE4"/>
<path d="M19.4287 22.4967C19.4287 22.4967 19.4287 22.4437 19.4383 22.4437C19.4624 22.4389 19.5106 22.4341 19.5154 22.4437C19.5395 22.5015 19.5058 22.5207 19.4287 22.4967Z" fill="#F1EDE4"/>
<path d="M3.44648 37.0415C3.41784 36.9842 3.38444 36.927 3.36058 36.8649C3.34626 36.8363 3.33195 36.7838 3.34626 36.7743C3.40353 36.7265 3.43216 36.76 3.43216 36.8602C3.43216 36.927 3.43216 36.989 3.43216 37.0558L3.44648 37.0415Z" fill="#F1EDE4"/>
<path d="M2.8457 34.8605C2.88388 34.913 2.9316 34.9608 2.95069 35.0228C2.96501 35.0705 2.93637 35.1278 2.92683 35.1803C2.90774 35.166 2.87911 35.1516 2.86956 35.1326C2.85525 35.1039 2.85048 35.0705 2.85525 35.0371C2.85525 34.9751 2.86479 34.9083 2.86479 34.8415L2.85048 34.8558L2.8457 34.8605Z" fill="#F1EDE4"/>
<path d="M4.31532 39.1223L4.43462 39.2368C4.43462 39.2368 4.39644 39.2606 4.37736 39.2702C4.36304 39.2177 4.34872 39.1604 4.32964 39.1079L4.31055 39.1223H4.31532Z" fill="#F1EDE4"/>
<path d="M8.35716 26.3903C8.26172 26.5716 8.0756 26.543 7.91812 26.5859L7.90381 26.5955C8.06129 26.5335 8.21399 26.4666 8.37147 26.4046L8.35716 26.3903Z" fill="#F1EDE4"/>
<path d="M10.2711 47.168C10.1279 47.1107 9.98951 47.0582 9.84635 47.001L9.83203 47.0153C9.97997 47.0487 10.1374 47.0582 10.252 47.1823L10.2711 47.1632V47.168Z" fill="#F1EDE4"/>
<path d="M10.9012 47.6023C10.7532 47.5641 10.5958 47.5498 10.4908 47.4161L10.4717 47.4352C10.6148 47.4925 10.7628 47.5545 10.9059 47.6118V47.6023H10.9012Z" fill="#F1EDE4"/>
<path d="M10.9058 47.6121L10.9305 47.6417L10.9009 47.6023L10.9058 47.6121Z" fill="#F1EDE4"/>
<path d="M10.4858 47.416C10.4142 47.3348 10.3426 47.2537 10.271 47.1678L10.252 47.1869C10.3235 47.268 10.3951 47.3492 10.4667 47.4351L10.4858 47.416Z" fill="#F1EDE4"/>
<path d="M9.62646 46.8006C9.69327 46.8722 9.76486 46.9437 9.83166 47.0153L9.84598 47.001C9.77917 46.9294 9.70759 46.8578 9.64078 46.7863L9.62646 46.8006Z" fill="#F1EDE4"/>
<path d="M9.4165 46.5427C9.48809 46.6286 9.5549 46.7145 9.62648 46.8004L9.64079 46.7861C9.56921 46.7097 9.49286 46.6334 9.42128 46.557V46.5427H9.4165Z" fill="#F1EDE4"/>
<path d="M9.42176 46.5574L9.37842 46.5189L9.41694 46.5429L9.42176 46.5574Z" fill="#F1EDE4"/>
<path d="M7.2943 44.2296L7.25977 44.1902L7.2943 44.2198V44.2296Z" fill="#F1EDE4"/>
<path d="M7.91854 26.5857L7.88965 26.629L7.90409 26.5953L7.91854 26.5857Z" fill="#F1EDE4"/>
<path d="M48.2471 25.5645C48.0515 25.4834 47.8463 25.4309 47.6697 25.3212C47.2497 25.0587 46.8441 24.7772 46.4385 24.4956C46.2619 24.3763 46.0997 24.2379 45.8801 24.2093V24.2284C45.7943 24.1234 45.7322 23.985 45.6272 23.9134C44.8446 23.3932 44.0763 22.854 43.2316 22.4293C42.4204 22.0236 41.5853 21.6753 40.6881 21.5083C40.5115 21.4749 40.3636 21.3985 40.2491 21.2553L40.23 21.2697C41.0221 21.2267 41.7666 21.4224 42.4824 21.7278C42.9692 21.933 43.4511 22.1477 43.9045 22.415C44.6299 22.8444 45.3457 23.2978 46.0424 23.775C46.7391 24.2522 47.412 24.7628 48.0896 25.2639C48.1708 25.3259 48.228 25.4166 48.2996 25.493L48.2376 25.5645H48.2471Z" fill="#F1EDE4"/>
<path d="M73.1336 35.7054C73.1909 35.7483 73.2577 35.777 73.2958 35.8295C73.9401 36.7457 74.4936 37.7097 74.8993 38.7548C74.9088 38.7786 74.8802 38.8359 74.8754 38.8359C74.8181 38.8263 74.7561 38.8168 74.7036 38.7977C74.675 38.7834 74.6511 38.75 74.6368 38.7214C74.131 37.8099 73.6203 36.8936 73.1193 35.9774C73.0859 35.9201 73.0811 35.8438 73.062 35.777L73.1384 35.7054H73.1336Z" fill="#F1EDE4"/>
<path d="M37.4482 22.1431C37.4769 22.1574 37.5198 22.1717 37.5389 22.1956C38.102 22.816 38.6604 23.4459 39.3523 23.9326C39.3809 23.9517 39.4048 23.9851 39.4096 24.0185C39.4191 24.0758 39.4382 24.1617 39.4096 24.1856C39.3666 24.2237 39.2712 24.2524 39.2235 24.2285C38.417 23.8133 37.8443 23.1739 37.4721 22.3483C37.4435 22.291 37.4626 22.2099 37.4626 22.1431H37.4482Z" fill="#F1EDE4"/>
<path d="M54.1312 30.5038C53.3724 29.9216 52.6709 29.2821 52.0601 28.5424C52.0839 28.5186 52.1126 28.4899 52.1364 28.4661C52.2271 28.5138 52.3321 28.5424 52.4037 28.6092C53.0336 29.1867 53.6587 29.7688 54.2839 30.351C54.2314 30.4035 54.1836 30.4513 54.1312 30.5038Z" fill="#F1EDE4"/>
<path d="M69.1728 36.9175C69.4495 36.9175 69.6166 37.1466 69.5307 37.409C69.5211 37.4424 69.5116 37.4758 69.4973 37.5093C69.3923 37.7288 69.1919 37.8719 69.0248 37.8528C68.8578 37.8338 68.6956 37.5904 68.7099 37.3756C68.729 37.0989 68.9103 36.9223 69.1775 36.9175H69.1728Z" fill="#F1EDE4"/>
<path d="M77.5386 47.6452C77.5624 47.6691 77.5958 47.6881 77.6149 47.7168C77.844 48.0413 77.8249 48.4374 77.9251 48.8C77.9872 49.0243 77.9394 49.2725 77.9347 49.5111C77.9347 49.5254 77.8917 49.5349 77.8488 49.5636C77.6865 48.9241 77.4909 48.3037 77.5577 47.6357L77.5434 47.65L77.5386 47.6452Z" fill="#F1EDE4"/>
<path d="M40.841 20.4489C41.1369 20.4441 41.4328 20.4441 41.6714 20.6636L41.6952 20.6493C41.4566 20.6684 41.1942 20.6302 41.0367 20.8784L41.0462 20.8593C40.6979 20.8736 40.3495 20.9118 40.0059 20.8116C39.9964 20.6589 40.1157 20.678 40.1968 20.6684C40.4402 20.6446 40.6931 20.6589 40.8649 20.4298L40.8506 20.4441L40.841 20.4489Z" fill="#F1EDE4"/>
<path d="M70.1131 41.05C70.1131 41.1932 70.0415 41.303 69.9318 41.3984C69.8411 41.4795 69.7361 41.47 69.6407 41.4318C69.488 41.3745 69.3973 41.1741 69.4355 40.9975C69.4593 40.8735 69.5882 40.778 69.7457 40.7685C69.9604 40.7542 70.137 40.883 70.1179 41.05H70.1131Z" fill="#F1EDE4"/>
<path d="M50.5903 27.254C50.6571 27.2683 50.7335 27.2587 50.7812 27.2969C51.1964 27.5737 51.602 27.8648 51.8931 28.2847L51.8359 28.342C51.3252 28.0891 50.9244 27.7073 50.6046 27.2397L50.5903 27.254Z" fill="#F1EDE4"/>
<path d="M66.9492 27.4449C67.0208 27.5164 67.0923 27.588 67.1639 27.6596C67.2355 27.7312 67.3023 27.8028 67.3739 27.8743C67.4455 27.9459 67.5171 28.0175 67.5886 28.0891C67.5886 28.237 67.5886 28.385 67.5886 28.5329C67.5027 28.4804 67.3978 28.447 67.3309 28.3754C67.0494 28.0748 66.7822 27.7598 66.5054 27.4496C66.6533 27.4496 66.8012 27.4496 66.9492 27.4496V27.4449Z" fill="#F1EDE4"/>
<path d="M71.7548 38.9454C71.8932 38.9454 72.0459 39.0695 72.0459 39.1888C72.0459 39.3606 71.8884 39.5181 71.7166 39.5085C71.6116 39.5037 71.478 39.3367 71.478 39.2079C71.478 39.0838 71.6212 38.9502 71.7548 38.9454Z" fill="#F1EDE4"/>
<path d="M52.6043 21.3461C52.6139 21.5084 52.5423 21.6134 52.423 21.6897C52.3133 21.7613 52.1176 21.6993 52.0985 21.5752C52.0842 21.4798 52.0746 21.3605 52.1128 21.2793C52.151 21.203 52.2512 21.1362 52.3371 21.1123C52.4469 21.0837 52.5948 21.2364 52.6043 21.3461Z" fill="#F1EDE4"/>
<path d="M52.2937 33.6246C52.4512 33.7201 52.4989 33.8919 52.5657 34.0446C52.5991 34.1209 52.5705 34.183 52.4942 34.2116C52.4655 34.2211 52.4226 34.2211 52.3939 34.202C52.246 34.1114 52.0981 34.0207 52.0885 33.825L52.0742 33.8394C52.1506 33.763 52.2317 33.6819 52.3081 33.6055L52.2937 33.6246Z" fill="#F1EDE4"/>
<path d="M75.7108 41.0261C75.7299 40.9688 75.7299 40.9307 75.749 40.9116C75.7585 40.902 75.811 40.902 75.8158 40.9116C75.8778 41.0261 75.9494 41.1406 75.9924 41.2647C76.0067 41.3077 75.959 41.3745 75.9351 41.427C75.9113 41.4079 75.8731 41.3888 75.8588 41.3649C75.8015 41.2456 75.749 41.1263 75.7061 41.0261H75.7108Z" fill="#F1EDE4"/>
<path d="M54.2888 22.8922C54.222 22.9972 54.1886 23.0974 54.1218 23.1499C54.012 23.231 53.8641 23.126 53.845 22.9733C53.8307 22.8635 53.907 22.7586 54.012 22.7777C54.0979 22.792 54.179 22.8445 54.2888 22.897V22.8922Z" fill="#F1EDE4"/>
<path d="M54.2172 29.3584C54.0263 29.387 53.9118 29.2725 53.7972 29.1484C53.7352 29.0816 53.7257 29.0291 53.7972 28.991C53.8163 28.9766 53.8688 28.991 53.8879 29.01C54.0072 29.115 54.1695 29.1866 54.2029 29.3727L54.2172 29.3584Z" fill="#F1EDE4"/>
<path d="M67.7842 28.7189C67.8605 28.7189 67.9369 28.7189 68.0132 28.7189C68.0848 28.7905 68.1564 28.8621 68.228 28.9337C68.2996 29.0053 68.3759 29.0769 68.4475 29.1484C68.3807 29.2343 68.29 29.2916 68.1898 29.2439C67.9608 29.1437 67.7937 28.9862 67.7842 28.7142V28.7189Z" fill="#F1EDE4"/>
<path d="M58.4404 20.864C58.5884 20.864 58.7363 20.864 58.8842 20.864C58.9176 20.9213 58.9558 20.9785 58.9844 21.0406C59.0274 21.1265 59.0608 21.2171 59.099 21.3078C58.7792 21.3078 58.5597 21.1599 58.4404 20.864Z" fill="#F1EDE4"/>
<path d="M71.8169 33.8393C72.1366 33.93 72.2416 34.1638 72.2416 34.4693L72.2607 34.4502C71.9935 34.3261 71.8694 34.1018 71.836 33.8203L71.8169 33.8346V33.8393Z" fill="#F1EDE4"/>
<path d="M72.2412 34.4695C72.5514 34.5649 72.6564 34.8035 72.6755 35.0994C72.3891 34.9801 72.2842 34.7415 72.2603 34.4551L72.2412 34.4742V34.4695Z" fill="#F1EDE4"/>
<path d="M58.2495 20.4393C58.2638 20.5682 58.3545 20.6207 58.4642 20.6541C58.4642 20.7304 58.4642 20.8068 58.4642 20.8831C58.1493 20.8784 57.9202 20.7447 57.8057 20.4393C57.9536 20.4393 58.1015 20.4393 58.2495 20.4393Z" fill="#F1EDE4"/>
<path d="M72.6757 35.0946C72.9525 35.2043 73.0622 35.4382 73.1338 35.7006L73.0575 35.7722C72.8189 35.61 72.6614 35.4048 72.6757 35.0993V35.0946Z" fill="#F1EDE4"/>
<path d="M40.8551 20.4297C40.6833 20.4202 40.5162 20.4106 40.3444 20.3963C40.3349 20.3963 40.3158 20.3438 40.3254 20.3295C40.3397 20.3056 40.3731 20.277 40.3969 20.2722C40.5735 20.2531 40.7453 20.2531 40.8407 20.444L40.8551 20.4297Z" fill="#F1EDE4"/>
<path d="M77.5527 47.6355C77.4 47.5306 77.3714 47.3778 77.3905 47.2061C77.3905 47.1822 77.4191 47.1536 77.443 47.1392C77.4573 47.1345 77.505 47.1536 77.505 47.1631C77.5193 47.3254 77.5289 47.4828 77.5384 47.6451L77.5527 47.6308V47.6355Z" fill="#F1EDE4"/>
<path d="M59.1085 33.5769C58.8127 33.5912 58.6504 33.3669 58.4547 33.2047L58.4404 33.2237C58.7172 33.2428 58.9224 33.3955 59.0942 33.596L59.1133 33.5769H59.1085Z" fill="#F1EDE4"/>
<path d="M71.3921 33.1999C71.7023 33.3001 71.8216 33.5244 71.8168 33.8346L71.8359 33.8203C71.5782 33.6867 71.4398 33.4719 71.4112 33.1856L71.3921 33.1999Z" fill="#F1EDE4"/>
<path d="M48.3091 25.4882C48.562 25.5741 48.8054 25.6791 48.8818 25.9797L48.8961 25.9654C48.6193 25.9273 48.3998 25.7984 48.2471 25.5646L48.3091 25.493V25.4882Z" fill="#F1EDE4"/>
<path d="M49.5356 25.5645C49.8029 25.6074 50.0081 25.7506 50.1703 25.9606L50.1846 25.9415C49.8983 25.9224 49.6979 25.7745 49.55 25.5454L49.5356 25.5597V25.5645Z" fill="#F1EDE4"/>
<path d="M49.5453 26.3757C49.2637 26.3423 49.049 26.2039 48.901 25.9606L48.8867 25.9749C49.1778 25.994 49.3878 26.1371 49.531 26.3853L49.5453 26.371V26.3757Z" fill="#F1EDE4"/>
<path d="M51.664 22.8826C51.7546 22.7872 51.8071 22.7108 51.8787 22.6726C51.9121 22.6583 52.0028 22.706 52.0314 22.749C52.0934 22.8349 52.0409 22.9924 51.9598 22.9876C51.8739 22.9828 51.7928 22.9303 51.6592 22.8826H51.664Z" fill="#F1EDE4"/>
<path d="M50.3755 26.1994C50.6666 26.1994 50.8575 26.376 51.015 26.5955L51.0293 26.5764C50.7382 26.5668 50.533 26.4284 50.3898 26.1803L50.3755 26.1946V26.1994Z" fill="#F1EDE4"/>
<path d="M71.411 33.1857C71.1343 33.0568 71.0102 32.8373 71.0054 32.5367L70.9863 32.551C71.2154 32.7084 71.3824 32.9041 71.392 33.2L71.411 33.1857Z" fill="#F1EDE4"/>
<path d="M49.7314 26.6336C50.0321 26.6336 50.2468 26.7672 50.3757 27.0345L50.39 27.0202C50.1084 26.9963 49.9176 26.8197 49.7458 26.6145L49.7314 26.6336Z" fill="#F1EDE4"/>
<path d="M68.6572 44.0136C68.8529 44.1902 69.0581 44.362 69.0581 44.6579L69.0724 44.6435C68.7765 44.529 68.6572 44.3047 68.6763 43.9945L68.6572 44.0136Z" fill="#F1EDE4"/>
<path d="M40.2541 21.2507C40.1491 21.2507 40.0441 21.2507 39.9391 21.2554C39.8389 21.2602 39.7959 21.2316 39.8341 21.1743C39.8437 21.16 39.9009 21.1648 39.9343 21.1743C40.0345 21.1982 40.1348 21.2316 40.235 21.2602L40.2541 21.2459V21.2507Z" fill="#F1EDE4"/>
<path d="M54.6322 29.7879C54.742 29.7497 54.8279 29.7975 54.8995 29.8738C54.9615 29.9358 54.9519 29.9979 54.8804 30.0408C54.8565 30.0551 54.8136 30.0408 54.7849 30.0217C54.6847 29.9788 54.6274 29.9072 54.6274 29.7927L54.6322 29.7879Z" fill="#F1EDE4"/>
<path d="M48.5479 16.9804C48.5479 16.9804 48.5479 16.9129 48.5575 16.9129C48.5912 16.9081 48.6442 16.9033 48.6538 16.9129C48.6875 16.9852 48.6442 17.0092 48.5479 16.9755V16.9804Z" fill="#F1EDE4"/>
<path d="M49.7124 17.2946C49.6122 17.2756 49.512 17.2612 49.4166 17.2326C49.3879 17.2231 49.3641 17.1944 49.3354 17.1753C49.3927 17.1515 49.45 17.1038 49.5025 17.1038C49.617 17.1133 49.6647 17.204 49.6934 17.309L49.7077 17.2946H49.7124Z" fill="#F1EDE4"/>
<path d="M49.6978 17.3087C49.798 17.2992 49.8934 17.2897 49.9936 17.2849C50.0223 17.2849 50.0747 17.2944 50.0843 17.3135C50.1225 17.3946 50.0843 17.4376 49.9889 17.409C49.8982 17.3803 49.8075 17.3326 49.7168 17.2897L49.6978 17.3087Z" fill="#F1EDE4"/>
<path d="M41.6712 20.8688C41.458 21.0215 41.2481 21.0199 41.0413 20.864L41.0317 20.8831C41.2513 20.8831 41.4708 20.8831 41.6903 20.8831L41.6712 20.8688Z" fill="#F1EDE4"/>
<path d="M76.8523 44.6205C76.8282 44.6205 76.7849 44.6205 76.7849 44.6109C76.78 44.582 76.7752 44.5242 76.7849 44.5194C76.8571 44.4905 76.8812 44.529 76.8523 44.6253V44.6205Z" fill="#F1EDE4"/>
<path d="M70.3472 31.6777C70.4044 31.8304 70.4617 31.9831 70.519 32.1359L70.538 32.1215L70.3519 31.6968V31.6825L70.3472 31.6777Z" fill="#F1EDE4"/>
<path d="M40.4307 17.9149C40.4784 17.8672 40.5214 17.8243 40.5691 17.7766C40.5834 17.8004 40.5977 17.8195 40.612 17.8434C40.5452 17.8624 40.4784 17.8815 40.4116 17.8959L40.4259 17.9149H40.4307Z" fill="#F1EDE4"/>
<path d="M39.9919 18.1009C40.1207 18.0007 40.2639 17.9196 40.4357 17.9148L40.4213 17.8957C40.3307 18.0913 40.1446 18.0579 39.9775 18.077L39.9919 18.0961V18.1009Z" fill="#F1EDE4"/>
<path d="M53.5258 18.3592C53.5258 18.3592 53.4969 18.2918 53.4873 18.2966C53.4151 18.3206 53.4199 18.3447 53.5018 18.3592H53.521H53.5258Z" fill="#F1EDE4"/>
<path d="M53.5059 18.3588C53.5348 18.3685 53.5781 18.3974 53.5877 18.3877C53.6455 18.3348 53.6214 18.3203 53.5251 18.3588H53.5059Z" fill="#F1EDE4"/>
<path d="M57.825 20.2294C57.825 20.3057 57.825 20.3821 57.825 20.4632C57.6437 20.4632 57.4862 20.4203 57.3956 20.2485L57.3765 20.2628C57.5244 20.2532 57.6723 20.2437 57.8203 20.2294H57.825Z" fill="#F1EDE4"/>
<path d="M41.6713 20.6636C41.7794 20.7463 41.7794 20.8147 41.6713 20.8688L41.6904 20.8831C41.6904 20.8068 41.6904 20.7304 41.6904 20.6493L41.6665 20.6636H41.6713Z" fill="#F1EDE4"/>
<path d="M44.8449 22.3722C44.7161 22.3006 44.5825 22.229 44.4536 22.1526V22.1622C44.6015 22.1956 44.7781 22.1861 44.8306 22.3865L44.8449 22.3674V22.3722Z" fill="#F1EDE4"/>
<path d="M44.8257 22.391C45.007 22.3815 45.1979 22.348 45.2743 22.5867L45.2933 22.5676C45.112 22.5771 44.9593 22.5198 44.8448 22.3767L44.8257 22.3958V22.391Z" fill="#F1EDE4"/>
<path d="M45.2744 22.5869C45.3651 22.5821 45.4701 22.5487 45.4748 22.6919C45.4748 22.7014 45.4033 22.7253 45.3985 22.7205C45.3603 22.6728 45.3269 22.6203 45.2935 22.5678L45.2744 22.5869Z" fill="#F1EDE4"/>
<path d="M62.6831 24.0948C62.8549 24.09 63.0124 24.1091 63.1269 24.2618L63.146 24.2427C62.9694 24.2618 62.8263 24.195 62.7022 24.0757L62.6831 24.0948Z" fill="#F1EDE4"/>
<path d="M41.4328 25.1493C41.3087 25.073 41.1799 24.9966 41.0558 24.9203L41.0415 24.9346C41.199 24.9537 41.3803 24.9346 41.4185 25.1589L41.4376 25.1493H41.4328Z" fill="#F1EDE4"/>
<path d="M46.3384 24.949C46.3384 24.949 46.3817 24.9683 46.401 24.9779C46.3865 24.9635 46.3673 24.949 46.3528 24.9346L46.3384 24.9539V24.949Z" fill="#F1EDE4"/>
<path d="M41.4136 25.1593C41.4521 25.1641 41.4906 25.1689 41.5291 25.1737C41.4954 25.1641 41.4665 25.1544 41.4328 25.1448L41.4136 25.1544V25.1593Z" fill="#F1EDE4"/>
<path d="M48.8916 25.1493C49.0348 25.2066 49.1732 25.2639 49.3163 25.3211L49.3354 25.302C49.1922 25.2448 49.0539 25.1875 48.9107 25.135L48.8964 25.1541L48.8916 25.1493Z" fill="#F1EDE4"/>
<path d="M69.4639 45.3116C69.3685 45.1732 69.2874 45.03 69.2921 44.8535L69.2778 44.8678C69.4496 44.968 69.4544 45.135 69.4449 45.302H69.4639V45.3116Z" fill="#F1EDE4"/>
<path d="M67.9991 43.3646C67.9323 43.2978 67.8608 43.231 67.7939 43.169C67.856 43.2358 67.918 43.3121 67.9801 43.3837L67.9991 43.3646Z" fill="#F1EDE4"/>
<path d="M67.7953 43.1702L67.7559 43.1356L67.7953 43.1652V43.1702Z" fill="#F1EDE4"/>
<path d="M69.4448 45.3067L69.4978 45.3164L69.4641 45.3115L69.4448 45.3067Z" fill="#F1EDE4"/>
<path d="M59.9487 34.4701L59.9882 34.4898L59.9635 34.4504L59.9487 34.4701Z" fill="#F1EDE4"/>
<path d="M59.9626 34.4501C59.8433 34.4263 59.7574 34.369 59.7336 34.2402L59.7192 34.2545C59.8338 34.2831 59.9006 34.3642 59.9435 34.4692L59.9626 34.4501Z" fill="#F1EDE4"/>
<path d="M59.5093 34.0445C59.6381 34.0541 59.7049 34.1304 59.7193 34.2545L59.7336 34.2402C59.5952 34.2402 59.5236 34.1638 59.5236 34.0302L59.5093 34.0445Z" fill="#F1EDE4"/>
<path d="M69.0581 44.6578C69.1965 44.6578 69.2585 44.7437 69.2728 44.8726L69.2872 44.8582C69.144 44.8582 69.0867 44.7771 69.0724 44.6435L69.0581 44.6578Z" fill="#F1EDE4"/>
<path d="M59.3042 33.8298C59.4187 33.8584 59.4855 33.93 59.5046 34.0446L59.5189 34.0302C59.3901 34.0159 59.3233 33.9443 59.3185 33.8155L59.3042 33.8298Z" fill="#F1EDE4"/>
<path d="M59.0942 33.596C59.1658 33.6724 59.2374 33.7535 59.309 33.8298L59.3233 33.8155C59.1849 33.7964 59.1133 33.7249 59.1133 33.5817L59.0942 33.6008V33.596Z" fill="#F1EDE4"/>
<path d="M50.6094 27.2347C50.4806 27.2204 50.4042 27.1535 50.3947 27.0199L50.3804 27.0342C50.5092 27.0486 50.5903 27.1106 50.5951 27.249L50.6094 27.2347Z" fill="#F1EDE4"/>
<path d="M52.0934 33.825C51.9694 33.806 51.9025 33.7296 51.8835 33.6055L51.8691 33.6198C51.9455 33.6198 52.0171 33.6198 52.0934 33.6198L52.0791 33.6055C52.0791 33.6867 52.0791 33.763 52.0791 33.8441L52.0934 33.8298V33.825Z" fill="#F1EDE4"/>
<path d="M51.2344 26.8393L51.2738 26.864L51.2541 26.8245L51.2344 26.8393Z" fill="#F1EDE4"/>
<path d="M51.0151 26.5955C51.0867 26.6766 51.1583 26.7578 51.2347 26.8389L51.2537 26.8198C51.1822 26.7387 51.1058 26.6575 51.0342 26.5764L51.0199 26.5955H51.0151Z" fill="#F1EDE4"/>
<path d="M52.0794 33.4051C52.1987 33.429 52.2607 33.5101 52.2941 33.6199L52.3084 33.6008C52.2273 33.6008 52.1509 33.6008 52.0698 33.6008L52.0841 33.6151C52.0841 33.5387 52.0841 33.4624 52.0841 33.3908L52.0698 33.4099L52.0794 33.4051Z" fill="#F1EDE4"/>
<path d="M49.7508 26.6146C49.641 26.5716 49.5599 26.5001 49.5456 26.376L49.5312 26.3903C49.6553 26.4237 49.7317 26.4953 49.7365 26.6289L49.7508 26.6098V26.6146Z" fill="#F1EDE4"/>
<path d="M51.879 33.6055C51.7549 33.5912 51.6833 33.5149 51.669 33.3956L51.6499 33.4099C51.7263 33.4099 51.7978 33.4099 51.8742 33.4099L51.8646 33.4003V33.6246L51.879 33.6103V33.6055Z" fill="#F1EDE4"/>
<path d="M50.1704 25.9606C50.2897 25.9988 50.3708 26.0656 50.3804 26.1992L50.3947 26.1849C50.2706 26.1515 50.1943 26.0799 50.1895 25.9463L50.1752 25.9606H50.1704Z" fill="#F1EDE4"/>
<path d="M49.3163 25.3212C49.3879 25.4023 49.4595 25.4834 49.531 25.5646L49.5454 25.5502C49.4356 25.5025 49.3592 25.4214 49.3306 25.3021L49.3115 25.3212H49.3163Z" fill="#F1EDE4"/>
<path d="M63.752 24.921L63.7914 24.9407L63.7717 24.9012L63.752 24.921Z" fill="#F1EDE4"/>
<path d="M51.8643 33.1951C51.9931 33.2047 52.0551 33.2858 52.079 33.4051C52.079 33.4051 52.0933 33.386 52.0933 33.3908C52.017 33.3908 51.9406 33.3908 51.869 33.3908L51.8786 33.4003C51.8786 33.324 51.8786 33.2524 51.8786 33.1761L51.8643 33.1951Z" fill="#F1EDE4"/>
<path d="M48.9105 25.1303C48.8437 25.054 48.7769 24.9776 48.7053 24.9012L48.6958 24.8869C48.7626 24.9728 48.8246 25.0587 48.8915 25.1446L48.9058 25.1255L48.9105 25.1303Z" fill="#F1EDE4"/>
<path d="M63.7711 24.9012C63.647 24.8821 63.5659 24.8201 63.5563 24.6865L63.542 24.7008C63.6804 24.7056 63.7424 24.7915 63.752 24.9156L63.7711 24.8965V24.9012Z" fill="#F1EDE4"/>
<path d="M51.669 33.3956C51.5497 33.3765 51.4733 33.3097 51.459 33.1856L51.4399 33.1952C51.5163 33.1952 51.5926 33.1952 51.669 33.1952L51.6547 33.1808C51.6547 33.2572 51.6547 33.3336 51.6547 33.4099L51.6738 33.3956H51.669Z" fill="#F1EDE4"/>
<path d="M48.7069 24.907L48.6675 24.8774L48.6971 24.8922L48.7069 24.907Z" fill="#F1EDE4"/>
<path d="M46.1571 24.7008C46.2192 24.7819 46.2812 24.8631 46.3385 24.9442L46.3528 24.9251C46.2907 24.844 46.2335 24.7629 46.1714 24.6817L46.1523 24.696L46.1571 24.7008Z" fill="#F1EDE4"/>
<path d="M58.2354 33.0043C58.3022 33.0758 58.369 33.1522 58.4406 33.2238L58.4549 33.2047C58.3881 33.1331 58.3212 33.0567 58.2544 32.9852L58.2401 33.0043H58.2354Z" fill="#F1EDE4"/>
<path d="M51.6547 32.9852C51.7788 33.0043 51.8456 33.0759 51.8646 33.1952L51.879 33.1761C51.8026 33.1761 51.7263 33.1761 51.6499 33.1761L51.6642 33.1904C51.6642 33.114 51.6642 33.0377 51.6642 32.9613L51.6547 32.9804V32.9852Z" fill="#F1EDE4"/>
<path d="M51.4542 33.1856C51.3826 33.114 51.3158 33.0424 51.2442 32.9709L51.2251 32.9852C51.3015 32.9852 51.3778 32.9852 51.4589 32.9852L51.4398 32.9661C51.4398 33.0424 51.4398 33.1188 51.4398 33.1952L51.4589 33.1856H51.4542Z" fill="#F1EDE4"/>
<path d="M68.4378 43.7798C68.3233 43.7655 68.2612 43.6986 68.2326 43.5937L68.2183 43.608C68.3232 43.6271 68.3901 43.6939 68.4235 43.7941L68.4378 43.775V43.7798Z" fill="#F1EDE4"/>
<path d="M63.5563 24.6865C63.4227 24.677 63.3511 24.6102 63.3463 24.4765L63.332 24.4908C63.4609 24.5004 63.542 24.5624 63.542 24.7008L63.5563 24.6865Z" fill="#F1EDE4"/>
<path d="M48.0518 24.467L48.071 24.52L48.0566 24.4815L48.0518 24.467Z" fill="#F1EDE4"/>
<path d="M46.1717 24.6865C46.0763 24.634 45.9856 24.5767 45.8901 24.5242V24.5433C45.976 24.5958 46.0619 24.6483 46.1526 24.7055L46.1717 24.6912V24.6865Z" fill="#F1EDE4"/>
<path d="M63.1221 24.2618C63.2366 24.3 63.313 24.3716 63.3273 24.4956L63.3416 24.4813C63.2032 24.4622 63.1268 24.3954 63.1364 24.2475L63.1221 24.2618Z" fill="#F1EDE4"/>
<path d="M48.0569 24.4818C48.0569 24.4818 48.0473 24.4433 48.0424 24.4289C47.9847 24.4674 47.9895 24.4818 48.0569 24.4722V24.4866V24.4818Z" fill="#F1EDE4"/>
<path d="M58.2546 32.9852C58.1878 32.9136 58.1162 32.842 58.0446 32.7704L58.0303 32.7848C58.1019 32.8563 58.1687 32.9279 58.2402 32.9995L58.2546 32.9804V32.9852Z" fill="#F1EDE4"/>
<path d="M51.4494 32.7657C51.5162 32.8373 51.5878 32.9136 51.6546 32.9852L51.6641 32.9661C51.5878 32.9661 51.5114 32.9661 51.4351 32.9661L51.4541 32.9852C51.4541 32.9088 51.4541 32.8325 51.4541 32.7561V32.7705L51.4494 32.7657Z" fill="#F1EDE4"/>
<path d="M45.8949 24.5244C45.9379 24.4241 45.9569 24.3239 45.8901 24.2237V24.2046C45.8901 24.3144 45.8901 24.4289 45.8901 24.5434V24.5244H45.8949Z" fill="#F1EDE4"/>
<path d="M51.0244 32.7752C51.0912 32.7752 51.1628 32.7657 51.2296 32.7609V32.7514C51.2296 32.8277 51.2296 32.9041 51.2296 32.9852L51.2487 32.9709C51.1771 32.9041 51.1055 32.8325 51.0387 32.7657L51.0292 32.7752H51.0244Z" fill="#F1EDE4"/>
<path d="M62.6974 24.0757L62.5065 23.8466H62.4922C62.5542 23.9325 62.6163 24.0137 62.6783 24.0948L62.6926 24.0757H62.6974Z" fill="#F1EDE4"/>
<path d="M57.8203 32.5748C57.8919 32.6464 57.9587 32.7132 58.0303 32.7848L58.0446 32.7705C57.973 32.6989 57.9062 32.6321 57.8346 32.5605L57.8203 32.5748Z" fill="#F1EDE4"/>
<path d="M51.2299 32.7657C51.3062 32.7657 51.3778 32.7657 51.4542 32.7657L51.4589 32.7514C51.3826 32.7514 51.3062 32.7514 51.2251 32.7514V32.7609L51.2299 32.7657Z" fill="#F1EDE4"/>
<path d="M71.0056 32.5366C70.8911 32.5223 70.8147 32.4603 70.7765 32.3457L70.7622 32.3601C70.8863 32.3696 70.9435 32.4507 70.9865 32.5509L71.0056 32.5366Z" fill="#F1EDE4"/>
<path d="M57.6099 32.3219C57.6814 32.4078 57.7483 32.4889 57.8198 32.5748L57.8342 32.5605C57.7626 32.4842 57.691 32.4126 57.6194 32.3362L57.6099 32.3219Z" fill="#F1EDE4"/>
<path d="M60.1348 21.9281C60.2159 21.9281 60.297 21.9281 60.3781 21.9281C60.297 21.9854 60.2159 22.014 60.1348 21.9281Z" fill="#F1EDE4"/>
<path d="M44.4493 22.1579L44.4199 22.1383L44.4444 22.1677L44.4493 22.1579Z" fill="#F1EDE4"/>
<path d="M70.7762 32.3458C70.6951 32.2694 70.6188 32.1931 70.5376 32.1167L70.5186 32.131C70.5997 32.2074 70.6808 32.2838 70.7619 32.3601L70.7762 32.3458Z" fill="#F1EDE4"/>
<path d="M57.62 32.3366L57.5767 32.3029L57.6104 32.3221L57.62 32.3366Z" fill="#F1EDE4"/>
<path d="M67.98 43.3837C68.0611 43.4601 68.1375 43.5317 68.2186 43.608L68.2329 43.5937C68.1565 43.5174 68.0754 43.441 67.9991 43.3694L67.98 43.3885V43.3837Z" fill="#F1EDE4"/>
<path d="M57.396 20.2445C57.3719 20.23 57.3478 20.2108 57.3237 20.1963C57.3574 20.1434 57.3767 20.1674 57.3815 20.2589L57.4008 20.2445H57.396Z" fill="#F1EDE4"/>
<path d="M37.8396 19.8094L37.8198 19.844L37.8593 19.8292L37.8396 19.8094Z" fill="#F1EDE4"/>
<path d="M38.035 19.5709C38.035 19.6997 37.9539 19.7713 37.8394 19.8095L37.8584 19.8286C37.9205 19.7475 37.9873 19.6711 38.0493 19.59L38.035 19.5709Z" fill="#F1EDE4"/>
<path d="M70.3519 31.6924L70.3086 31.6587L70.3471 31.6827L70.3519 31.6924Z" fill="#F1EDE4"/>
<path d="M38.0544 19.5902L38.117 19.5709H38.0352L38.0544 19.5902Z" fill="#F1EDE4"/>
<path d="M39.7531 18.3302L39.729 18.3735L39.7675 18.3494L39.7531 18.3302Z" fill="#F1EDE4"/>
<path d="M68.4238 43.7941C68.5002 43.8657 68.5813 43.9373 68.6577 44.0136L68.6767 43.9945C68.5431 43.9802 68.4715 43.8991 68.4381 43.7798L68.4238 43.7941Z" fill="#F1EDE4"/>
<path d="M39.7671 18.3491C39.8387 18.268 39.9151 18.1821 39.9867 18.1009C39.9867 18.1009 39.9723 18.0818 39.9676 18.0818C39.896 18.163 39.8196 18.2489 39.748 18.3348L39.7671 18.3539V18.3491Z" fill="#F1EDE4"/>
<path d="M43.1701 17.2515L43.1504 17.2861L43.18 17.2614L43.1701 17.2515Z" fill="#F1EDE4"/>
<path d="M54.3509 30.7089C54.2793 30.6421 54.2029 30.5705 54.1313 30.5037C54.1838 30.4512 54.2316 30.4035 54.2841 30.351C54.3556 30.4226 54.4272 30.4941 54.4988 30.5657C54.4511 30.6134 54.4034 30.6612 54.3556 30.7089H54.3509Z" fill="#F1EDE4"/>
<path d="M54.6323 29.7926C54.5035 29.7783 54.4224 29.7162 54.4224 29.5779C54.5608 29.5779 54.6419 29.6399 54.6371 29.7878L54.6323 29.7926Z" fill="#F1EDE4"/>
<path d="M54.1982 29.3727C54.3271 29.3822 54.4082 29.4443 54.4178 29.5826C54.2841 29.5731 54.203 29.5111 54.2126 29.3631L54.1982 29.3774V29.3727Z" fill="#F1EDE4"/>
<path d="M67.8032 28.509C67.8032 28.5853 67.8032 28.6665 67.8032 28.7428C67.66 28.7333 67.5884 28.6474 67.5693 28.509C67.6457 28.509 67.7268 28.509 67.8032 28.509Z" fill="#F1EDE4"/>
<path d="M51.8932 28.2847C52.0077 28.299 52.0889 28.3611 52.1318 28.4708C52.1079 28.4947 52.0793 28.5185 52.0555 28.5472C51.9409 28.5233 51.8646 28.4613 51.8359 28.3467L51.8932 28.2895V28.2847Z" fill="#F1EDE4"/>
<path d="M39.1323 25.3307C39.4234 25.6266 39.6143 25.9606 39.5618 26.3949C39.2421 26.1038 39.0846 25.7554 39.1514 25.3164L39.1323 25.3307Z" fill="#F1EDE4"/>
<path d="M40.1777 26.4234C40.4211 26.5761 40.3782 26.8147 40.3686 27.0438H40.3877C40.2589 26.8577 40.1968 26.643 40.1968 26.4091L40.1825 26.4234H40.1777Z" fill="#F1EDE4"/>
<path d="M43.3702 32.1215C43.2175 32.0118 43.1984 31.8543 43.2032 31.6825L43.1841 31.7016C43.3034 31.8209 43.3511 31.9688 43.3559 32.1358L43.3702 32.1215Z" fill="#F1EDE4"/>
<path d="M42.7212 31.1051C42.8882 31.1862 42.9216 31.3341 42.9312 31.4964L42.9503 31.4773C42.8787 31.3484 42.8071 31.2148 42.7355 31.086L42.7212 31.1051Z" fill="#F1EDE4"/>
<path d="M42.7356 31.0859C42.7118 31.0429 42.6879 31 42.6641 30.957C42.6784 30.9761 42.6975 30.9952 42.707 31.0143C42.7166 31.0429 42.7166 31.0716 42.7213 31.1002L42.7356 31.0859Z" fill="#F1EDE4"/>
<path d="M40.1584 25.9177C40.1632 26.0847 40.1727 26.2565 40.1775 26.4235L40.1918 26.4092C39.9962 26.2565 40.0964 26.099 40.1727 25.9368L40.1584 25.9177Z" fill="#F1EDE4"/>
<path d="M39.5576 26.3951C39.7676 26.4523 39.758 26.6337 39.7867 26.7959L39.801 26.7816C39.5672 26.7482 39.5576 26.5764 39.5576 26.3951Z" fill="#F1EDE4"/>
<path d="M39.7861 26.7959C39.8052 26.8437 39.8243 26.8914 39.8434 26.9343C39.8291 26.9152 39.8052 26.8961 39.8004 26.8723C39.7957 26.8437 39.8004 26.8102 39.8004 26.7816L39.7861 26.7959Z" fill="#F1EDE4"/>
<path d="M53.1342 43.1452L53.0908 43.1163L53.1197 43.1596L53.1342 43.1452Z" fill="#F1EDE4"/>
<path d="M54.2124 44.2476L54.2557 44.2765L54.2268 44.2283L54.2124 44.2476Z" fill="#F1EDE4"/>
<path d="M54.227 44.2283C54.1554 44.1615 54.0791 44.0899 54.0075 44.0231L53.9932 44.0422C54.0647 44.109 54.1411 44.1806 54.2127 44.2474L54.2318 44.2331L54.227 44.2283Z" fill="#F1EDE4"/>
<path d="M53.1196 43.1592C53.1912 43.2308 53.258 43.3024 53.3296 43.374L53.3487 43.3596C53.2771 43.2881 53.2055 43.2165 53.1339 43.1449L53.1196 43.1592Z" fill="#F1EDE4"/>
<path d="M40.3687 27.044L40.4168 27.0585L40.3831 27.0488L40.3687 27.044Z" fill="#F1EDE4"/>
<path d="M53.5679 43.6175C53.6299 43.6796 53.6919 43.7464 53.7492 43.8084L53.7683 43.7941C53.7063 43.7321 53.6442 43.6652 53.5822 43.6032L53.5679 43.6223V43.6175Z" fill="#F1EDE4"/>
<path d="M53.5874 43.5983C53.511 43.5171 53.4299 43.4408 53.3536 43.3596L53.3345 43.374C53.4108 43.4551 53.492 43.5314 53.5731 43.6126L53.5874 43.5983Z" fill="#F1EDE4"/>
<path d="M53.7543 43.8036C53.8354 43.8848 53.9118 43.9611 53.9929 44.0422C53.9929 44.0422 54.0072 44.0232 54.0072 44.0279C53.9261 43.9516 53.8497 43.8705 53.7686 43.7941L53.7495 43.8084L53.7543 43.8036Z" fill="#F1EDE4"/>
<path d="M43.1983 31.6825C43.0647 31.6777 42.9931 31.5966 42.9454 31.4821L42.9263 31.5011C43.0503 31.5155 43.1267 31.5966 43.1744 31.7016L43.1935 31.6825H43.1983Z" fill="#F1EDE4"/>
<path d="M38.0634 31.921C38.0634 31.6108 37.9393 31.3913 37.6387 31.2816C37.6101 31.1479 37.6005 31 37.5433 30.8807C37.4001 30.5991 37.2283 30.3367 37.0804 30.0599C36.8799 29.6924 36.6938 29.3154 36.5029 28.948C36.46 28.8669 36.4743 28.8048 36.5602 28.781C36.5888 28.7714 36.6366 28.781 36.6557 28.8048C36.7272 28.8812 36.7988 28.9575 36.8513 29.0434C37.4669 30.0551 38.0777 31.0716 38.6886 32.088C38.722 32.1453 38.7363 32.2169 38.7601 32.2837C38.7267 32.3171 38.6886 32.3457 38.6552 32.3791C38.5406 32.2694 38.4261 32.1548 38.302 32.0546C38.2304 31.9974 38.1445 31.9592 38.0634 31.9162V31.921Z" fill="#F1EDE4"/>
<path d="M38.7603 32.2885C39.185 32.7323 39.5667 33.2096 39.8197 33.7774C39.7863 33.8061 39.7529 33.8395 39.7194 33.8681C39.2804 33.4338 38.9177 32.9471 38.6553 32.384C38.6887 32.3506 38.7269 32.3219 38.7603 32.2885Z" fill="#F1EDE4"/>
<path d="M41.2512 35.7434C40.817 35.5144 40.5831 35.1231 40.3779 34.6983C40.4066 34.6697 40.44 34.6459 40.4686 34.6172C40.8122 34.9322 41.1367 35.2567 41.2608 35.7291L41.2465 35.7387L41.2512 35.7434Z" fill="#F1EDE4"/>
<path d="M51.6737 48.0556C51.8407 48.2178 52.0078 48.3801 52.1652 48.5471C52.2607 48.6473 52.3036 48.7714 52.2845 48.9146L52.3036 48.8955C51.9553 48.7141 51.7787 48.4087 51.688 48.0413L51.6689 48.0556H51.6737Z" fill="#F1EDE4"/>
<path d="M47.6221 43.1735C47.9513 43.3644 48.1756 43.6364 48.252 44.0182L48.2663 44.0039C47.9418 43.8082 47.6984 43.5458 47.6364 43.1544L47.6221 43.1688V43.1735Z" fill="#F1EDE4"/>
<path d="M41.8906 36.5882C42.2485 36.7647 42.4442 37.0558 42.5205 37.4424L42.5349 37.4233C42.1722 37.2563 41.9479 36.9842 41.9002 36.5786L41.8906 36.5882Z" fill="#F1EDE4"/>
<path d="M41.9005 36.5787C41.4996 36.4451 41.3517 36.111 41.2515 35.7436L41.2658 35.734C41.6237 35.9106 41.805 36.2208 41.8909 36.593L41.9005 36.5834V36.5787Z" fill="#F1EDE4"/>
<path d="M36.761 22.9544C36.8135 23.255 36.8087 23.5556 36.7323 23.8515C36.7323 23.8658 36.6846 23.8897 36.6703 23.8801C36.6417 23.8658 36.6083 23.842 36.6035 23.8133C36.5606 23.5127 36.5176 23.2073 36.7801 22.9687L36.761 22.9496V22.9544Z" fill="#F1EDE4"/>
<path d="M40.3783 34.6984C40.0633 34.4979 39.8677 34.2021 39.7197 33.868C39.7531 33.8394 39.7865 33.806 39.8199 33.7773C40.1158 33.9969 40.3353 34.2736 40.469 34.6172C40.4403 34.6411 40.4069 34.6697 40.3783 34.6984Z" fill="#F1EDE4"/>
<path d="M36.3263 22.7251C36.3359 22.9637 36.3502 23.1975 36.3597 23.4266C36.2595 23.4648 36.2118 23.4314 36.2261 23.3407C36.2595 23.1403 36.3025 22.9399 36.3407 22.7394L36.3263 22.7203V22.7251Z" fill="#F1EDE4"/>
<path d="M49.3111 45.2829C49.1202 45.1064 48.9341 44.925 48.9341 44.6339L48.915 44.653C49.1012 44.8344 49.2634 45.03 49.292 45.302L49.3111 45.2877V45.2829Z" fill="#F1EDE4"/>
<path d="M56.0973 49.1102C55.9111 48.9289 55.7107 48.7523 55.7203 48.4564L55.7012 48.4707C55.9255 48.633 56.102 48.8191 56.0782 49.1245L56.0973 49.1102Z" fill="#F1EDE4"/>
<path d="M46.5439 42.1C46.52 42.0571 46.5009 42.0093 46.4771 41.9664C46.4961 41.9855 46.52 41.9998 46.5248 42.0189C46.5343 42.0475 46.5248 42.0809 46.5248 42.1096L46.5439 42.0952V42.1Z" fill="#F1EDE4"/>
<path d="M42.7354 37.6523C42.8594 37.6618 42.9262 37.7286 42.9453 37.8479L42.9596 37.8336C42.8308 37.8336 42.7688 37.762 42.7497 37.638L42.7354 37.6523Z" fill="#F1EDE4"/>
<path d="M42.7544 37.638C42.6256 37.6236 42.554 37.5473 42.5397 37.4232L42.5254 37.4375C42.6638 37.4375 42.7258 37.5234 42.7401 37.6523L42.7544 37.638Z" fill="#F1EDE4"/>
<path d="M51.2265 47.6075L51.187 47.5877L51.2067 47.6272L51.2265 47.6075Z" fill="#F1EDE4"/>
<path d="M50.6094 46.7909L50.6527 46.8246L50.6238 46.7765L50.6094 46.7909Z" fill="#F1EDE4"/>
<path d="M50.39 46.5618C50.4616 46.6381 50.538 46.7145 50.6095 46.7908L50.6239 46.7765C50.5427 46.7049 50.4616 46.6333 50.3853 46.5618H50.39Z" fill="#F1EDE4"/>
<path d="M50.3816 46.5677L50.3521 46.5331L50.3915 46.5627L50.3816 46.5677Z" fill="#F1EDE4"/>
<path d="M47.4071 42.9636C47.5312 42.9779 47.598 43.0542 47.6171 43.1735L47.6314 43.1592C47.493 43.1592 47.431 43.0781 47.4167 42.9492L47.4023 42.9636H47.4071Z" fill="#F1EDE4"/>
<path d="M46.5293 42.1142C46.6009 42.1858 46.6725 42.2573 46.744 42.3289L46.7631 42.3098C46.6915 42.2383 46.62 42.1667 46.5484 42.0951L46.5293 42.1094V42.1142Z" fill="#F1EDE4"/>
<path d="M49.9746 45.932L50.0179 45.9561L49.9939 45.9176L49.9746 45.932Z" fill="#F1EDE4"/>
<path d="M49.994 45.9176C49.9224 45.8508 49.846 45.7792 49.7745 45.7124L49.7554 45.7315C49.827 45.7983 49.9033 45.8699 49.9749 45.9367L49.994 45.9223V45.9176Z" fill="#F1EDE4"/>
<path d="M49.5356 45.5215C49.6072 45.5883 49.6836 45.6599 49.7552 45.7267L49.7742 45.7076C49.7027 45.6408 49.6263 45.5692 49.5547 45.5024L49.5404 45.5215H49.5356Z" fill="#F1EDE4"/>
<path d="M49.2925 45.2972C49.3736 45.3736 49.4547 45.4451 49.5359 45.5215C49.5359 45.5215 49.5502 45.5024 49.5502 45.5072C49.469 45.4308 49.3927 45.3593 49.3116 45.2829L49.2925 45.2972Z" fill="#F1EDE4"/>
<path d="M48.9344 44.634C48.8103 44.6197 48.7292 44.5576 48.7101 44.4288L48.6958 44.4431C48.7674 44.5147 48.8437 44.5815 48.9153 44.6483L48.9344 44.6292V44.634Z" fill="#F1EDE4"/>
<path d="M48.7103 44.4288C48.5814 44.4192 48.5051 44.3524 48.486 44.2236L48.4717 44.2379C48.5958 44.257 48.6578 44.3333 48.696 44.4431L48.7103 44.4288Z" fill="#F1EDE4"/>
<path d="M48.4858 44.2188C48.3617 44.1997 48.2949 44.1234 48.2663 44.0041L48.252 44.0184C48.3856 44.0279 48.4524 44.109 48.4715 44.2331L48.4858 44.2188Z" fill="#F1EDE4"/>
<path d="M46.9923 42.5198C46.9159 42.453 46.8396 42.3814 46.7632 42.3146L46.7441 42.3337C46.8634 42.3528 46.9446 42.4196 46.9732 42.5389L46.9923 42.5245V42.5198Z" fill="#F1EDE4"/>
<path d="M47.207 42.7297C47.0829 42.7107 47.0209 42.6343 46.9922 42.5198L46.9731 42.5341C47.0972 42.5484 47.1736 42.62 47.1879 42.7441L47.2022 42.7297H47.207Z" fill="#F1EDE4"/>
<path d="M43.394 38.2966L43.4374 38.3207L43.4085 38.2822L43.394 38.2966Z" fill="#F1EDE4"/>
<path d="M43.1792 38.077C43.2508 38.1485 43.3224 38.2201 43.3939 38.2965C43.3939 38.2965 43.4083 38.2822 43.413 38.2822C43.3415 38.2106 43.2746 38.1342 43.2031 38.0627L43.184 38.0817L43.1792 38.077Z" fill="#F1EDE4"/>
<path d="M55.4819 48.2703C55.5965 48.2942 55.6585 48.3753 55.7014 48.4755C55.7014 48.4755 55.7205 48.4612 55.7205 48.4564C55.5965 48.4421 55.5201 48.3753 55.4962 48.2512L55.4819 48.2655V48.2703Z" fill="#F1EDE4"/>
<path d="M55.4962 48.2512C55.3816 48.2322 55.3053 48.1701 55.2814 48.0508L55.2671 48.0651C55.3912 48.0747 55.4484 48.1606 55.4818 48.2656L55.4962 48.2512Z" fill="#F1EDE4"/>
<path d="M47.1924 42.744C47.3165 42.7631 47.3833 42.8395 47.4119 42.9636L47.4262 42.9492C47.3021 42.9302 47.2306 42.8586 47.2067 42.7345L47.1924 42.7488V42.744Z" fill="#F1EDE4"/>
<path d="M55.2816 48.0508C55.2004 47.984 55.1241 47.9172 55.043 47.8504L55.0525 47.8647C55.1241 47.9315 55.1957 48.0031 55.2673 48.0699L55.2816 48.0556V48.0508Z" fill="#F1EDE4"/>
<path d="M51.6878 48.0365C51.6115 47.9697 51.5399 47.9029 51.4635 47.8361L51.4492 47.8504C51.5208 47.9172 51.5972 47.984 51.6687 48.0508L51.6878 48.0365Z" fill="#F1EDE4"/>
<path d="M43.1983 38.0579C43.0838 38.0197 42.9979 37.9529 42.9645 37.8336L42.9502 37.8479C43.0265 37.9243 43.1029 38.0006 43.184 38.077L43.2031 38.0579H43.1983Z" fill="#F1EDE4"/>
<path d="M55.0427 47.8507L55.0234 47.8218L55.0523 47.8651L55.0427 47.8507Z" fill="#F1EDE4"/>
<path d="M51.4685 47.8361C51.3874 47.7598 51.3063 47.6834 51.2251 47.6071L51.2061 47.6214C51.2872 47.6977 51.3683 47.7741 51.4494 47.8504L51.4637 47.8361H51.4685Z" fill="#F1EDE4"/>
<path d="M51.0011 55.037C50.9677 55.0943 50.9486 55.1754 50.9009 55.204C50.4046 55.5095 49.8558 55.7099 49.307 55.8865C49.1829 55.9246 49.0398 55.896 48.9014 55.896L48.9157 55.9151C48.9491 55.8578 48.9729 55.7767 49.0254 55.7528C49.5885 55.519 50.1517 55.2899 50.7148 55.0704C50.8054 55.037 50.9152 55.0561 51.0154 55.0561L51.0011 55.0418V55.037Z" fill="#F1EDE4"/>
<path d="M48.228 56.0821C48.2184 56.1155 48.2232 56.1632 48.1993 56.1823C47.7698 56.5068 47.2688 56.6261 46.7534 56.7215C46.7295 56.7263 46.6675 56.6834 46.6675 56.6786C46.6818 56.6261 46.6961 56.5545 46.7343 56.5354C47.2115 56.3111 47.7173 56.1632 48.2423 56.0964L48.228 56.0773V56.0821Z" fill="#F1EDE4"/>
<path d="M48.2423 56.0966C48.4332 55.9153 48.6671 55.8771 48.9152 55.9153L48.9009 55.8962C48.7339 56.1682 48.4809 56.1205 48.228 56.0823L48.2423 56.0966Z" fill="#F1EDE4"/>
<path d="M53.1485 52.9326C53.0674 53.1378 52.886 53.1187 52.719 53.1235H52.7095C52.8192 52.9851 52.9624 52.9183 53.1437 52.9231L53.1485 52.9326Z" fill="#F1EDE4"/>
<path d="M51.4825 54.8652C51.5636 54.7125 51.7258 54.6887 51.869 54.6314H51.8738C51.7354 54.703 51.6018 54.7793 51.4634 54.8509L51.4825 54.87V54.8652Z" fill="#F1EDE4"/>
<path d="M51.0149 55.0563C51.1151 54.8607 51.3012 54.875 51.4826 54.8655C51.4826 54.8655 51.4635 54.8464 51.4683 54.8464C51.3537 55.0039 51.1867 55.0468 51.0054 55.0373L51.0197 55.0516L51.0149 55.0563Z" fill="#F1EDE4"/>
<path d="M51.8691 54.6326L51.9086 54.598L51.879 54.6326H51.8691Z" fill="#F1EDE4"/>
<path d="M52.7201 53.1283L52.6807 53.1628L52.7103 53.1332L52.7201 53.1283Z" fill="#F1EDE4"/>
</g>
<defs>
<clipPath id="clip0_216_112453">
<rect width="78" height="50.5986" fill="white" transform="translate(1.5 15.7579)"/>
</clipPath>
</defs>
</svg>
