<svg width="81" height="81" viewBox="0 0 81 81" fill="none" xmlns="http://www.w3.org/2000/svg">
<path d="M44.7806 28.6641C44.4548 29.2828 44.8501 29.5537 45.0771 29.9564C45.6702 31.0034 46.644 31.8674 46.7538 33.1744C46.7648 33.3171 46.9003 33.5112 47.0321 33.5734C47.7386 33.9175 47.7423 34.5252 47.6361 35.1549C47.53 35.7883 47.4384 36.4363 47.2188 37.0293C46.838 38.0581 47.1822 38.8744 47.8631 39.581C48.3244 40.0606 48.4232 40.5292 48.2804 41.1699C48.123 41.8728 48.1084 42.6123 48.0352 43.3371C48.0132 43.5714 48.0461 43.8131 47.9912 44.0364C47.8558 44.5599 48.0059 45.0944 47.94 45.5886C47.8302 46.4526 48.123 47.1299 48.4415 47.873C48.7966 48.7041 48.4708 49.5095 47.9656 50.1758C47.6471 50.5968 47.4714 51.0068 47.4604 51.523C47.4567 51.8122 47.3615 52.1014 47.3542 52.3943C47.3432 53.0203 47.0906 53.5219 46.6403 53.9392C46.2376 54.3126 45.9521 54.719 46.1461 55.3304C46.2083 55.5281 46.1754 55.8429 46.0509 56.0003C45.564 56.6154 45.0515 57.2158 44.4914 57.7649C44.3486 57.904 43.9459 57.948 43.7628 57.8491C43.2503 57.5745 42.8659 57.7649 42.4778 58.0578C42.1191 58.3287 41.7457 58.5301 41.2697 58.4898C41.1416 58.4788 40.9695 58.5374 40.8817 58.6252C40.0763 59.4343 39.0329 59.6906 37.9749 59.9102C37.5758 59.9944 37.1658 60.0457 36.7595 60.0933C36.4007 60.1372 36.0858 60.2177 35.8552 60.5436C35.6063 60.8914 35.2328 60.917 34.8265 60.8621C34.1089 60.7632 33.3841 60.679 32.6629 60.6278C32.3773 60.6095 32.0515 60.6241 31.8062 60.7449C31.2131 61.0451 30.6201 60.9719 30.005 60.9206C29.5803 60.8877 29.1484 60.9499 28.72 60.9865C28.4638 61.0085 28.1672 61.1732 27.9585 61.0927C27.2703 60.8218 26.5967 60.9389 25.9011 60.9719C25.4508 60.9939 24.9822 60.8181 24.5356 60.6863C24.1548 60.5729 23.8327 60.4594 23.5251 60.8657C23.4117 61.0158 23.1115 61.0707 22.8918 61.0854C22.2804 61.122 21.6654 61.133 21.0503 61.1183C20.0582 61.0927 19.1027 60.9682 18.2534 60.3422C17.869 60.0603 17.3382 59.9725 16.8732 59.8004C16.7963 59.7711 16.6902 59.7565 16.6206 59.7857C15.5955 60.247 14.64 59.9212 13.6662 59.5844C13.4466 59.5075 13.1391 59.5148 12.9304 59.61C12.1835 59.9542 11.5319 59.8443 10.8656 59.3904C10.6167 59.222 10.2689 59.1854 9.96135 59.1268C8.89236 58.9254 8.39813 58.4605 8.16383 57.3952C8.05766 56.9119 7.57808 56.4946 6.99965 56.5495C6.2455 56.619 5.78422 56.2603 5.38517 55.7075C5.14355 55.378 4.89095 55.0558 4.63102 54.7373C4.2576 54.2724 4.1551 53.7781 4.56146 53.3059C4.82139 53.002 4.82505 52.7055 4.63102 52.4273C4.18438 51.7902 3.88419 51.0251 3.12637 50.6444C2.72733 50.4467 2.50401 50.0843 2.4674 49.6632C2.41981 49.0848 2.36123 48.4844 2.4674 47.9206C2.67608 46.7931 2.4674 45.7058 2.32096 44.6075C2.30632 44.494 2.28069 44.3476 2.20381 44.2853C1.29224 43.5495 1.47163 42.4768 1.62539 41.6128C1.91094 40.024 1.68396 38.4717 1.63271 36.9122C1.59244 35.7114 1.78281 34.6497 2.46374 33.6832C2.67242 33.3867 2.81885 33.1304 2.79323 32.735C2.77126 32.4092 2.96529 32.0651 3.06048 31.7319C3.27281 31.0107 3.54372 30.3152 3.31308 29.5171C3.17396 29.0338 3.32406 28.5396 3.74873 28.1662C4.01232 27.9355 4.21001 27.639 4.45529 27.3864C4.93854 26.8885 5.24972 26.8373 5.83547 27.229C6.11004 27.412 6.31505 27.4816 6.62257 27.3059C7.02528 27.0789 7.34012 26.797 7.45361 26.3467C7.47923 26.2442 7.36208 26.0831 7.28154 25.9769C7.00331 25.6182 7.05456 25.2557 7.28154 24.9189C7.54147 24.5309 7.82336 24.1538 8.1199 23.795C8.6068 23.2093 9.123 22.6491 9.61356 22.0707C9.94671 21.679 10.3421 21.4044 10.8546 21.2983C11.0816 21.2507 11.3232 21.2031 11.5209 21.0859C11.8504 20.8882 12.1799 20.621 11.9932 20.1744C11.8138 19.7387 12.0042 19.4422 12.2494 19.1383C12.934 18.2853 13.8236 17.7398 14.867 17.4689C15.6981 17.2529 16.4852 16.7038 17.4224 17.0845C17.6091 17.1614 17.88 17.0223 18.1106 17.0076C18.6268 16.9783 19.1467 16.9747 19.6665 16.9381C19.8496 16.9271 20.0289 16.8539 20.212 16.8099C20.1534 16.6635 20.1205 16.5024 20.0326 16.378C19.7251 15.9386 19.7324 15.5286 20.212 15.1882C20.838 14.7452 21.4384 14.3022 21.8777 13.6579C21.9729 13.5188 22.2218 13.4638 22.4086 13.4162C22.7673 13.3211 23.1517 13.2918 23.4959 13.1636C23.8107 13.0465 24.0267 13.0355 24.272 13.3064C24.5758 13.6432 24.7625 13.6139 24.9749 13.2735C24.9895 13.2478 25.0042 13.2222 25.0188 13.1966C25.1616 12.922 25.2495 12.4937 25.4654 12.4095C25.7473 12.2997 26.1391 12.4461 26.4759 12.5193C26.9335 12.6145 27.3911 12.7243 27.8341 12.8671C28.072 12.944 28.3246 13.0685 28.5004 13.2442C28.9141 13.6469 28.9433 13.8153 28.5956 14.3022C28.2844 14.7379 28.2368 15.1406 28.515 15.5872C28.7273 15.9313 28.9433 15.9533 29.1374 15.5945C29.4888 14.9429 30.1148 14.9831 30.664 15.0307C31.1509 15.0747 31.5682 15.3382 31.711 15.9386C31.7989 16.3121 32.0808 16.6489 32.3041 16.982C32.4322 17.176 32.6738 17.3042 32.758 17.5092C32.985 18.0437 33.3401 18.3256 33.9259 18.4208C34.3945 18.4976 34.68 18.8125 34.6764 19.3506C34.6764 19.6655 34.7606 19.9876 34.8375 20.2988C34.9802 20.8553 35.2072 20.9212 35.7747 20.7381C36.0566 20.6466 36.408 20.6429 36.6899 20.7271C37.5026 20.9724 38.0994 21.5399 38.6156 22.1915C39.1134 22.8175 39.1171 22.8432 39.8273 22.6089C40.3216 22.4441 40.684 22.6162 41.0135 22.942C41.4711 23.3923 41.9104 23.8609 42.3753 24.3039C42.8476 24.7542 43.1405 25.2777 43.0746 25.9367C43.027 26.376 43.2174 26.6469 43.5322 26.9032C43.8031 27.1228 44.0887 27.3535 44.279 27.639C44.4987 27.9612 44.6195 28.3456 44.7659 28.6604L44.7806 28.6641ZM32.7251 49.3594C32.7837 49.3557 32.8496 49.3667 32.8972 49.3411C33.4646 49.0116 33.4683 48.9823 33.0619 48.5393C32.9448 48.4112 32.8166 48.2904 32.7068 48.1513C32.2931 47.6314 32.0259 47.0567 32.0735 46.3501C32.5823 47.7449 33.6477 48.576 34.8631 49.2679C34.9143 49.2972 34.9583 49.3338 35.0059 49.3704C35.1889 49.4985 35.3976 49.5864 35.5111 49.3301C35.555 49.2313 35.4635 48.997 35.361 48.9274C34.5922 48.3966 34.0174 47.7083 33.6403 46.8626C33.4609 46.4563 33.2559 46.0353 33.3767 45.4678C33.7868 46.178 34.098 46.8333 34.5153 47.4154C34.9473 48.0231 35.4598 48.5869 36.4556 48.6968C35.998 48.0817 35.6539 47.5911 35.2804 47.1189C34.4494 46.0645 34.292 44.904 34.6764 43.641C34.7789 43.3078 34.8667 42.9637 34.9253 42.6196C34.9802 42.3011 34.8484 42.1217 34.486 42.1656C33.8783 42.2388 33.2669 42.2901 32.6555 42.3487C31.8025 42.4292 31.2241 42.8136 31.1143 43.7325C31.0887 43.9339 31.0411 44.1462 30.9386 44.3183C30.4663 45.12 30.6713 45.8925 30.9862 46.6759C31.3925 47.6937 32.0442 48.554 32.7471 49.3814C32.1979 49.3155 31.8794 48.9237 31.5792 48.5284C30.9678 47.7266 30.5725 46.8223 30.3455 45.8376C30.3162 45.7058 30.1624 45.5081 30.0599 45.5044C29.6829 45.4971 29.2728 45.9144 29.2435 46.2659C29.141 47.5838 30.653 49.7145 31.9417 50.0586C31.9966 50.0733 32.0551 50.0843 32.1137 50.0952C32.802 50.2197 32.8898 50.1172 32.7251 49.3594ZM15.1306 54.9094L15.3063 54.9204C15.3759 55.0778 15.4674 55.2279 15.5077 55.389C15.8408 56.6996 17.038 57.4977 18.3413 57.3659C19.4139 57.256 20.4975 57.2341 21.5739 57.1206C22.4159 57.0291 23.1261 57.2231 23.7594 57.7942C24.0853 58.0871 24.4367 58.3873 24.8321 58.5483C25.5826 58.8522 26.3587 59.1121 27.1458 59.2805C27.5851 59.3721 27.7206 59.1524 27.6986 58.7131C27.6913 58.5959 27.6693 58.4788 27.6327 58.369C27.4131 57.7466 27.9695 57.9772 28.1965 57.8162C28.6139 57.516 28.5114 57.8711 28.5882 58.0505C28.98 58.9694 29.6938 59.0609 30.2869 58.2774C30.3382 58.2079 30.4041 58.142 30.4407 58.0651C30.5761 57.7576 30.7482 57.7942 30.9825 57.9626C31.1948 58.1127 31.4291 58.2774 31.6744 58.325C32.0076 58.3873 32.3773 58.4056 32.7068 58.3324C33.0619 58.2518 32.9887 57.8784 33.0399 57.5965C33.0985 57.2817 33.3218 57.2194 33.5122 57.5013C33.8234 57.9663 34.259 57.9882 34.735 58.0212C35.4415 58.0724 36.0602 57.8711 36.646 57.494C37.1182 57.1901 37.6051 56.9302 38.1982 56.9668C38.8096 57.0071 39.3185 56.7655 39.8383 56.4506C40.2483 56.2017 40.7535 56.0113 41.2221 55.9894C42.0898 55.9491 42.5218 55.4622 42.8696 54.7666C43.3455 53.8221 43.3345 52.7824 43.5176 51.7793C43.5871 51.4132 43.5578 51.0178 43.5029 50.6444C43.4736 50.4357 43.3418 50.1465 43.1771 50.0806C43.038 50.022 42.7744 50.2087 42.595 50.3259C42.401 50.454 42.2435 50.6297 42.0678 50.7835C42.0093 50.7249 41.9543 50.6663 41.8958 50.6114C42.1374 50.3002 42.3461 49.9525 42.6353 49.6962C42.8037 49.5461 43.1551 49.4289 43.3418 49.5058C43.847 49.7145 43.9935 49.4326 44.0777 49.0665C44.3156 48.0414 44.5609 47.0164 44.7367 45.9803C44.8025 45.5923 44.744 45.1493 44.6195 44.7722C44.2864 43.7508 44.2205 42.7075 44.2351 41.6494C44.2424 40.9173 44.2571 40.1851 44.2424 39.4529C44.2314 39.0209 44.1729 38.5889 43.7628 38.2557C43.6018 38.5816 43.4919 38.8854 43.3125 39.138C43.2174 39.2735 42.9977 39.3284 42.8366 39.4163C42.811 39.2552 42.7634 39.0978 42.7634 38.9367C42.7634 38.4717 42.8476 37.9995 42.7817 37.5455C42.6646 36.7584 42.379 36.612 41.5956 36.7877C41.4967 36.8097 41.3137 36.795 41.2954 36.7511C41.2514 36.6303 41.2221 36.3997 41.2807 36.363C41.5626 36.1837 41.8628 36.0006 42.185 35.9201C42.6609 35.8029 42.778 35.7407 42.5804 35.327C42.357 34.8621 42.0788 34.3861 41.709 34.0347C41.0171 33.3794 40.4643 32.6618 40.0763 31.7832C39.8566 31.2853 39.4612 30.868 39.1244 30.4286C38.978 30.2383 38.8389 30.2786 38.751 30.5129C38.7107 30.6154 38.6265 30.6996 38.4472 30.9595C38.4435 29.8832 37.7626 29.3963 37.1731 28.7117C37.4074 28.7117 37.5136 28.7007 37.6125 28.7117C38.0847 28.7702 38.1396 28.719 37.9932 28.32C37.9529 28.2101 37.9053 28.1003 37.8468 28.0015C37.1365 26.819 35.987 26.0868 34.9693 25.2228C34.9034 25.1679 34.8118 25.1496 34.7313 25.113C33.827 24.67 32.8935 24.9153 31.9673 25.0068C31.7549 25.0288 31.6524 25.1679 31.7952 25.3729C32.4176 26.2552 32.9594 27.196 33.8344 27.8806C34.2444 28.2028 34.6544 28.5762 34.9143 29.0155C35.2987 29.6599 35.6978 30.3225 35.1157 31.1389C34.6654 31.7759 34.94 32.1713 35.7197 32.2189C36.1041 32.2408 36.5069 32.1017 36.9096 32.3031C36.6533 32.7021 36.386 33.0206 36.2213 33.3867C35.8955 34.1042 36.3458 34.9499 37.0816 35.0927C37.3489 35.1439 37.5283 35.0927 37.6161 34.7998C37.715 34.485 37.8504 34.1811 37.9712 33.8699C38.1433 34.3642 38.0737 34.8621 38.2458 35.2538C38.4215 35.6565 38.8352 35.953 39.1317 36.3045C39.1757 36.3594 39.205 36.4985 39.1684 36.5351C39.0988 36.612 38.9853 36.6852 38.8865 36.6889C38.3373 36.6998 38.0811 36.2971 37.7992 35.9164C37.5429 35.565 37.045 35.5393 36.7521 35.8285C36.3641 36.2129 36.1517 38.0288 36.5874 38.5047C36.9571 38.9111 37.2171 38.9147 37.5429 38.4278C37.7259 38.1532 37.7772 37.7762 38.1213 37.6114C38.4069 37.9922 38.3703 38.34 38.1762 38.706C37.9346 39.1637 37.8687 39.6506 38.0371 40.1521C38.2604 40.8221 38.5277 40.9136 39.1647 40.5658C39.2562 40.5145 39.377 40.5109 39.4832 40.4889C39.5052 40.6244 39.5747 40.7745 39.5381 40.8953C39.4905 41.0564 39.388 41.2248 39.2599 41.3309C38.978 41.5579 39.0329 41.741 39.2343 41.9862C39.4649 42.2608 39.6772 42.5683 39.5454 43.0626C39.3368 42.8136 39.2013 42.6233 39.0402 42.4622C38.7913 42.2132 38.513 41.8947 38.1396 42.0558C37.715 42.2389 37.7772 42.6928 37.8321 43.0662C37.876 43.3811 37.9749 43.6922 38.0811 43.9961C38.2129 44.3549 38.1982 44.5819 37.8724 44.9004C37.1695 45.5849 36.7412 46.4489 36.6277 47.4557C36.5837 47.8511 36.6679 48.1513 36.9938 48.3673C37.294 48.565 37.5466 48.4295 37.7845 48.2208C38.1433 47.906 38.5057 47.5985 38.8645 47.2946C38.8755 47.3276 38.9231 47.3861 38.9121 47.4264C38.6668 48.2391 38.6375 48.975 39.4576 49.5241C39.6662 49.6632 39.4905 49.8756 39.3075 49.8866C39.1281 49.8975 38.8242 49.828 38.773 49.7145C38.4801 49.0043 37.9749 48.8542 37.2903 49.0409C37.2134 49.0628 37.1146 48.986 37.034 48.997C36.818 49.0299 36.5691 49.0299 36.4007 49.1434C35.7344 49.59 35.6941 49.7694 35.976 50.5675C36.2872 51.4534 35.965 51.9184 35.0278 51.9257C34.1529 51.933 32.9594 52.9544 32.8532 53.7891C32.7947 54.2504 33.0107 54.4701 33.4573 54.3639C34.0247 54.2248 34.4567 53.9026 34.7313 53.3718C34.8228 53.1924 34.9436 53.0313 35.0498 52.8629C35.0498 53.8038 34.5043 54.4335 33.6623 54.6275C33.0033 54.7812 32.6482 54.6238 32.4725 53.9649C32.3736 53.5914 32.165 53.3974 31.8538 53.3059C31.4657 53.1887 31.0557 53.0789 30.6567 53.0789C29.8769 53.0789 29.6133 53.4157 29.6353 54.2248C29.6353 54.287 29.5584 54.3493 29.4559 54.5067C29.2948 54.2101 29.1813 53.9832 29.0532 53.7672C28.72 53.207 28.3356 52.6872 27.7316 52.398C27.0287 52.0612 26.593 52.3138 26.5198 53.0789C26.5015 53.2839 26.4905 53.4889 26.4759 53.6976C26.15 53.3498 25.9633 52.991 25.7766 52.6323C25.5167 52.1271 25.081 51.955 24.5429 51.955C24.0633 51.955 23.8253 52.2808 23.5947 52.6323C23.5288 52.7311 23.386 52.7824 23.2762 52.8556C23.2213 52.7275 23.1041 52.5847 23.1298 52.4748C23.192 52.2003 23.3201 51.9403 23.4263 51.6768C23.4885 51.523 23.613 51.3656 23.602 51.2155C23.5727 50.8018 23.0419 50.2929 22.6099 50.2087C22.0461 50.0989 21.669 50.2673 21.3615 50.7798C21.303 50.8787 21.281 51.0068 21.2078 51.0947C21.1419 51.1752 20.9954 51.285 20.9405 51.2594C20.8307 51.2082 20.7172 51.0874 20.6806 50.9702C20.6367 50.8384 20.6806 50.681 20.6733 50.5345C20.6513 49.6669 19.7397 48.9201 18.9233 49.1617C18.6964 49.2276 18.5389 49.5388 18.3522 49.7401C18.5023 49.8573 18.6341 50.022 18.8062 50.0843C19.4615 50.3222 20.0106 50.6846 20.3548 51.307C20.7245 51.9733 20.6879 52.7348 20.2779 53.2034C19.8825 53.6573 19.1064 53.7708 18.4035 53.456C17.8324 53.1997 17.3674 52.808 17.0197 52.2772C16.9428 52.1637 16.7048 52.0172 16.6426 52.0575C16.185 52.3394 16.1776 51.9623 16.0641 51.7061C15.6578 50.7908 15.31 49.8097 14.025 49.8573C13.9701 49.8573 13.8676 49.7621 13.8603 49.6999C13.8493 49.6303 13.9042 49.5022 13.9591 49.4839C14.2007 49.396 14.457 49.3411 14.7059 49.2715C15.1599 49.1397 15.5553 48.5357 15.515 48.0378C15.4821 47.6021 15.2258 47.4374 14.5339 47.4044C14.0946 47.3849 13.7761 47.5911 13.5784 48.0231C13.4942 48.2098 13.41 48.4002 13.3001 48.5686C13.0695 48.9237 12.8132 49.2569 12.2165 49.3521C12.4947 48.7517 12.7363 48.2904 12.9231 47.8071C13.3367 46.7345 13.172 46.4709 12.0591 46.3391C12.0334 46.3391 12.0115 46.3098 11.9859 46.2952C12.319 45.6325 12.9267 45.4678 13.4136 45.9547C13.6699 46.211 13.7651 46.7125 14.0506 46.8297C14.3838 46.9725 14.8451 46.8187 15.2478 46.8041C15.332 46.8041 15.4162 46.8516 15.5004 46.8699C16.2655 47.042 16.8256 46.6869 16.9757 45.9254C17.1148 45.2262 16.8988 44.6514 16.3021 44.2451C15.8957 43.9668 15.6029 43.6483 15.7639 43.1065C15.8372 43.1138 15.8738 43.1065 15.8957 43.1175C15.9433 43.1504 15.9836 43.1907 16.0275 43.2273C16.4961 43.6483 16.6279 43.6593 17.016 43.231C17.5285 42.6672 17.7958 41.9899 17.7958 41.2358C17.7958 40.8111 17.7555 40.3535 17.5944 39.9691C17.3528 39.3906 16.8696 39.3906 16.5474 39.9178C16.4119 40.1375 16.3167 40.3754 16.1667 40.6793C16.1154 39.6798 16.2948 39.343 17.0855 39.0904C17.4077 38.9879 17.5029 38.8415 17.4992 38.5413C17.4883 37.8897 17.3272 37.2929 16.8879 36.7584C17.1661 36.8133 17.3857 36.9671 17.6274 37C18.0813 37.0586 18.5609 37.1392 18.9966 37.0476C19.6043 36.9195 19.7544 36.4619 19.4725 35.9018C19.4212 35.7993 19.3334 35.7114 19.2894 35.6052C19.1833 35.3636 18.7696 35.1696 19.0661 34.8877C19.1393 34.8145 19.5494 35.0817 19.7983 35.2062C19.8715 35.2428 19.9301 35.3233 19.9814 35.3929C20.3182 35.8798 20.7428 35.7004 21.1602 35.554C21.5958 35.4002 21.8082 35.122 21.7642 34.6204C21.7166 34.0933 21.7533 33.5588 21.7533 33.0023C22.0864 33.1414 22.372 33.2952 22.6758 33.3794C23.591 33.632 24.283 33.2 24.4843 32.2774C24.5282 32.0761 24.5649 31.8747 24.6051 31.6734C24.7955 30.7179 24.8943 30.6337 25.8865 30.7764C26.194 30.8204 26.3331 30.7105 26.3953 30.4543C26.5308 29.8685 26.5747 29.2462 26.2562 28.741C25.6741 27.8074 25.546 26.8556 25.8425 25.8195C25.8462 25.8012 25.8132 25.7719 25.74 25.6621C25.3995 25.8232 25.0518 26.0172 24.6857 26.1563C24.1988 26.343 23.7045 26.592 23.1993 26.6249C21.508 26.7457 20.0765 27.3461 19.0002 28.6751C18.6927 29.0521 18.3229 29.2425 17.8543 29.1729C16.9428 29.0338 16.4522 29.6342 15.9946 30.2456C15.8994 30.3737 15.9763 30.6813 16.0568 30.8716C16.0971 30.9705 16.3277 31.0364 16.4668 31.029C16.7487 31.0107 17.038 30.8863 17.21 31.0803C16.6389 31.6441 16.0861 32.1932 15.5333 32.7387C15.4711 32.8009 15.4308 32.8888 15.3612 32.9364C15.2478 33.0096 15.1196 33.0609 14.9951 33.1194C14.9585 32.962 14.8524 32.7753 14.9 32.6472C14.9988 32.3799 15.1745 32.1383 15.3283 31.893C15.4345 31.721 15.6212 31.5709 15.6614 31.3878C15.7054 31.1791 15.7054 30.8789 15.5846 30.7362C15.4711 30.6007 15.1452 30.5385 14.9659 30.5971C14.673 30.6922 14.3618 30.8643 14.1714 31.0986C13.6552 31.732 13.1903 32.4056 12.718 33.0755C12.2751 33.7015 12.0737 34.3825 12.3263 35.1476C12.3519 35.2281 12.3044 35.3343 12.2861 35.4624C11.887 35.2648 12.1506 34.5472 11.6051 34.6607C11.2573 34.7339 10.9425 35.0158 10.6386 35.2428C10.4812 35.3599 10.3311 35.5357 10.2616 35.7187C9.83688 36.8353 9.3573 37.9299 9.36096 39.171C9.36828 40.8367 9.30604 42.5024 9.24747 44.1682C9.23649 44.5086 9.19622 44.9223 9.00219 45.1676C8.52992 45.7643 8.45304 46.427 8.42742 47.1409C8.41644 47.452 8.29928 47.7669 8.1858 48.0634C7.99543 48.5613 8.00641 49.0336 8.27 49.4985C8.36884 49.6742 8.44572 49.9488 8.59216 49.9927C8.73128 50.033 8.93995 49.8353 9.21452 49.6925C9.00219 50.9482 9.65383 51.523 10.6496 51.8561C10.8839 51.933 11.0999 52.0612 11.4184 52.2076C11.0194 52.4602 10.7631 52.2881 10.4959 52.2296C10.3384 52.1966 10.0565 52.182 10.0163 52.2552C9.93939 52.409 9.95769 52.6286 9.9943 52.8117C10.0199 52.9435 10.1188 53.0862 10.2249 53.1704C10.9571 53.7489 11.7003 54.3163 12.4435 54.8838C12.513 54.935 12.6009 54.9972 12.6778 54.9936C13.3221 54.9643 13.8639 55.2389 14.4057 55.5391C14.673 55.6892 14.9183 55.6489 15.0025 55.2828C15.0318 55.1547 15.0867 55.0302 15.1269 54.9021L15.1306 54.9094ZM26.9335 20.0792C26.9262 20.0572 26.9188 20.0352 26.9152 20.0133C27.2227 20.0352 27.5339 20.0316 27.8414 20.0792C28.2038 20.1377 28.526 20.156 28.8042 19.8412C29.2692 19.314 29.8769 19.2994 30.5066 19.4422C30.9056 19.53 31.2937 19.6655 31.6927 19.746C32.0771 19.8229 32.4359 19.9364 32.6519 20.2915C32.7947 20.5221 32.9594 20.5917 33.2376 20.5148C33.4866 20.4453 33.7648 20.4855 34.0137 20.416C34.1272 20.383 34.2847 20.2036 34.281 20.0938C34.2627 19.5117 34.0394 19.2847 33.4097 19.2518C32.9484 19.2298 32.5494 19.098 32.4762 18.6331C32.3736 17.9851 32.0515 17.5128 31.6085 17.0626C31.4145 16.8649 31.2937 16.5683 31.2095 16.2938C31.0887 15.9057 30.8507 15.6458 30.4663 15.6787C30.0636 15.7153 29.584 15.6275 29.3534 16.1729C29.1154 16.7367 28.8006 17.2676 28.5077 17.8094C28.3649 18.0693 28.2258 18.234 27.9146 17.9265C27.3948 17.414 26.7358 17.176 26.0073 17.2053C25.308 17.2309 24.6124 17.2969 23.9169 17.3811C23.5325 17.4286 23.1591 17.5092 22.8369 17.2163C22.5989 17.004 22.3646 17.0882 22.1047 17.1834C21.1785 17.5202 20.234 17.8057 19.3224 18.1718C18.5206 18.4903 17.6091 18.5745 16.9611 19.2591C16.8403 19.3836 16.5218 19.3689 16.3058 19.347C15.8115 19.2921 15.4308 19.4348 15.2111 19.8888C14.9549 20.4123 14.5522 20.6832 13.9774 20.7418C13.7468 20.7638 13.5015 20.804 13.2965 20.9029C13.0475 21.0237 12.7437 21.1738 12.6375 21.3934C12.5643 21.5435 12.7913 21.8401 12.8755 22.0524C12.4545 22.2611 12.0371 22.4624 11.6198 22.6748C11.261 22.8542 11.0926 23.0885 11.2756 23.5241C11.3489 23.6998 11.3159 24.011 11.1988 24.1575C10.9352 24.4906 10.5947 24.7615 10.2579 25.08C10.0016 24.6444 10.2762 24.454 10.43 24.2234C10.5508 24.0366 10.7777 23.7804 10.7265 23.6413C10.4959 23.0409 10.7777 22.6089 11.1841 22.1696C10.5801 22.0195 10.17 22.1805 9.85885 22.5869C9.2731 23.3557 8.69467 24.1282 8.11624 24.9043C7.88194 25.2191 7.80506 25.5413 7.84533 25.9623C7.88194 26.3613 7.72086 26.8007 7.56344 27.1887C7.49388 27.3644 7.22663 27.4743 7.0326 27.5804C6.52007 27.855 6.10272 28.1698 6.16496 28.8508C6.18326 29.0412 6.08075 29.2498 6.00753 29.4402C5.98557 29.4988 5.87208 29.5683 5.81717 29.5574C5.76225 29.5464 5.68537 29.4329 5.69269 29.3706C5.70734 29.1986 5.76591 29.0302 5.7952 28.8581C5.84279 28.6018 5.97092 28.3163 5.90137 28.093C5.82449 27.8477 5.59385 27.6207 5.37053 27.4743C5.30463 27.4303 5.0081 27.6756 4.86898 27.8367C4.68227 28.0564 4.57244 28.3456 4.37841 28.5542C4.13313 28.8105 4.10018 29.0412 4.29421 29.3304C4.4919 29.6269 4.49556 29.9308 4.3052 30.2383C3.789 31.0766 3.55836 31.9882 3.49613 32.9693C3.47416 33.3281 3.30942 33.7089 3.11905 34.0237C2.54062 34.9829 2.25141 35.9823 2.40883 37.1135C2.46008 37.476 2.35025 37.864 2.30266 38.2411C2.27703 38.4424 2.20015 38.6401 2.21114 38.8378C2.2148 38.933 2.35757 39.0465 2.4674 39.0978C2.62848 39.1783 2.80787 39.2113 2.97993 39.2662C2.88475 39.4382 2.83716 39.6762 2.69438 39.775C1.94023 40.2876 1.91826 41.1113 1.98782 41.8252C2.04639 42.4146 2.06836 43.1797 2.82617 43.4982C3.14102 43.63 3.14468 43.9156 3.00922 44.1682C2.79323 44.5672 2.86645 44.9516 2.95797 45.3616C3.02753 45.6728 3.06048 45.995 3.08244 46.3172C3.14102 47.2507 3.16298 48.1879 3.25084 49.1214C3.28013 49.4143 3.39728 49.8353 3.61328 49.9561C4.3894 50.3881 4.71888 51.1606 5.16552 51.8269C5.55724 52.4053 5.63046 53.0789 5.16918 53.7196C5.08864 53.8331 5.0264 54.0747 5.08864 54.1589C5.47304 54.6751 5.8794 55.173 6.30773 55.6489C6.45051 55.81 6.68847 55.8539 6.80562 55.5793C6.98501 55.1693 7.11314 55.4036 7.27788 55.5903C7.59638 55.9454 7.91489 56.3042 8.48965 56.4616C8.44206 56.231 8.4201 56.1211 8.39447 56.0113C8.24071 55.2718 8.17115 54.503 7.42432 54.0381C7.29253 53.9539 7.21565 53.6793 7.22297 53.4926C7.25226 52.6579 7.01429 52.0172 6.15763 51.7207C5.61215 51.5303 5.35955 51.1423 5.50599 50.5565C5.60117 50.1685 5.495 49.8646 5.14721 49.6559C4.75915 49.4253 4.71888 49.1068 4.79576 48.6785C4.8763 48.2282 5.01908 47.6314 4.81041 47.3166C4.22832 46.438 4.70424 45.6838 4.88729 44.8857C4.91291 44.7796 5.08498 44.71 5.18748 44.6221C5.20945 44.7429 5.26436 44.8747 5.2424 44.9882C5.16918 45.3287 5.04837 45.6618 4.97515 46.006C4.92756 46.2293 4.83603 46.5588 4.9422 46.6759C5.44741 47.2324 5.28633 47.7815 5.07765 48.3856C4.93854 48.781 5.06667 49.1397 5.51697 49.2935C6.08441 49.4839 6.28211 49.8939 6.20156 50.4577C6.15031 50.8274 6.31871 51.0068 6.60793 51.2338C7.23761 51.7317 7.60371 52.4236 7.59272 53.2546C7.59272 53.4853 7.5854 53.6647 7.84167 53.7306C8.5885 53.9246 8.77887 54.4994 8.90334 55.1693C8.96192 55.4951 9.07907 55.9454 9.31703 56.0772C10.0748 56.5055 10.8986 56.8241 11.7076 57.1572C11.9712 57.267 12.0847 57.1206 12.0005 56.835C11.9712 56.7398 11.9968 56.6264 11.9968 56.3445C12.3446 56.7106 12.535 57.051 12.8169 57.1755C13.2855 57.3805 13.6479 57.5636 13.5857 58.1713C13.571 58.2957 13.7614 58.4532 13.8712 58.5813C14.3106 59.0865 14.9732 58.8852 15.5077 59.0902C15.8152 59.2073 15.969 58.9474 16.1959 58.8376C16.368 58.7534 16.6536 58.7827 16.8403 58.8669C17.5029 59.1671 18.1399 59.5295 18.8025 59.8333C18.9636 59.9066 19.2601 59.9395 19.359 59.848C19.6482 59.5771 19.7617 59.6832 19.9704 59.9395C20.0912 60.0896 20.3694 60.1628 20.5817 60.1738C21.2517 60.2031 21.9253 60.1958 22.5989 60.1738C22.7344 60.1701 22.8625 60.02 22.9943 59.9358C22.8881 59.8553 22.7893 59.7528 22.6721 59.6979C22.3024 59.5295 21.8301 59.5771 21.4823 59.1854C22.2511 59.0279 23.3348 59.0938 24.0596 59.3464C24.6308 59.5441 25.1945 59.7748 25.7656 59.9725C25.8535 60.0017 25.978 59.9358 26.0841 59.9102C26.0366 59.815 26.0146 59.6723 25.9414 59.6356C25.6009 59.4746 25.2495 59.3391 24.898 59.2073C24.3232 58.995 23.7192 58.8486 23.1774 58.5776C22.6465 58.3104 22.1413 58.2445 21.5702 58.358C21.2334 58.4239 20.8783 58.4312 20.5378 58.4056C19.7507 58.3507 18.9673 58.2408 18.1802 58.1969C17.5981 58.164 17.0709 58.0175 16.6719 57.5928C16.0788 56.9595 15.3832 56.7106 14.5339 56.8899C14.0579 56.9888 13.6809 56.835 13.355 56.4799C13.161 56.2676 12.9487 56.0333 12.6961 55.9235C11.25 55.2828 10.0236 54.3493 9.01317 53.1521C7.87095 51.7939 7.16805 50.1904 7.17904 48.4149C7.18636 47.0859 7.36574 45.7351 7.88194 44.4647C8.01007 44.1462 8.07597 43.7874 8.08695 43.4433C8.14186 41.9533 8.22241 40.467 8.52626 39.0062C8.68002 38.2667 8.91432 37.5455 9.13032 36.8207C9.20354 36.5681 9.37194 36.3411 9.41587 36.0885C9.57329 35.2025 10.1371 34.6607 10.8656 34.2067C11.5795 33.7601 12.2568 33.2586 12.6521 32.4678C12.8608 32.0504 13.0805 31.6331 13.3477 31.2524C13.615 30.8753 13.8822 30.3737 14.263 30.2273C15.1562 29.8905 15.8408 29.323 16.573 28.7483C17.1002 28.3346 17.642 27.9502 18.0886 27.4486C19.1284 26.2845 20.2559 25.3143 21.8118 24.7945C24.4184 23.9268 27.0323 23.828 29.6902 24.2856C30.426 24.4137 31.1289 24.4943 31.8538 24.3039C32.2785 24.1941 32.7068 24.0696 33.1424 24.0403C33.5964 24.011 34.0833 24.0074 34.5153 24.1282C35.2768 24.3405 36.0053 24.6517 36.5105 25.329C36.6643 25.534 36.8949 25.6914 37.1036 25.8488C38.0737 26.5737 38.751 27.4999 39.0732 28.6751C39.2635 29.3706 39.6479 29.9271 40.2007 30.4103C40.5851 30.7472 40.8451 31.2267 41.1636 31.6441C41.5516 32.1493 41.8884 32.7058 42.3387 33.1487C43.0526 33.8516 43.5688 34.6204 43.7189 35.6272C43.7775 36.0262 43.891 36.4472 44.0996 36.784C44.8611 37.9958 45.176 39.2845 45.0588 40.7159C44.96 41.9203 45.1394 43.0955 45.564 44.2487C45.78 44.8345 45.8056 45.5081 45.802 46.1451C45.7947 47.3129 45.381 48.3819 44.8282 49.396C44.5756 49.8573 44.5243 50.2893 44.6122 50.8201C44.7659 51.7719 44.8684 52.7677 44.4474 53.6683C44.1436 54.3236 43.6713 54.9057 43.2503 55.4988C42.8696 56.0333 42.3497 56.3262 41.6688 56.2529C41.3649 56.22 41.1196 56.2822 40.8744 56.5056C40.5559 56.7984 40.1861 57.051 39.8017 57.256C39.4759 57.4318 39.1061 57.6002 38.7473 57.6148C38.0518 57.6478 37.4294 57.8235 36.8363 58.1786C36.0382 58.6582 35.1816 58.7753 34.3066 58.4385C33.9296 58.2921 33.7319 58.3836 33.5049 58.6911C33.1974 59.1121 32.7178 59.1963 32.2382 59.1121C31.9014 59.0499 31.5865 58.8742 31.2534 58.7644C31.1253 58.7204 30.9019 58.6618 30.869 58.7094C30.7409 58.8925 30.5761 59.1341 30.6091 59.3245C30.642 59.5039 30.9019 59.7711 31.063 59.7711C31.9343 59.7711 32.813 59.7675 33.6696 59.632C34.1199 59.5624 34.5373 59.6649 34.9436 59.632C35.3244 59.599 35.6722 59.2366 36.1371 59.2073C36.807 59.1634 37.488 59.0902 38.1287 58.9071C39.0109 58.6509 39.9591 58.4971 40.6364 57.7576C40.7352 57.6514 40.9842 57.5453 41.0794 57.5965C41.4857 57.8125 41.731 57.5636 42.0276 57.3732C42.4925 57.073 42.9831 56.8094 43.4626 56.5275C43.6603 56.4104 43.8214 56.3152 43.88 56.6776C43.9422 57.073 44.1509 56.9742 44.3523 56.7618C44.4731 56.6373 44.5975 56.5092 44.7183 56.3847C45.0625 56.0333 45.5055 55.7294 45.1137 55.1254C45.0442 55.0192 45.1174 54.7703 45.2016 54.6275C45.4322 54.2248 45.6995 53.844 45.9557 53.456C46.1315 53.1924 46.417 52.9435 46.461 52.6616C46.622 51.6109 46.7062 50.5455 46.8234 49.4509C47.0504 49.3704 47.4055 49.7511 47.6251 49.3081C47.8594 48.8322 47.918 48.3636 47.6691 47.8804C47.5483 47.6461 47.3945 47.5985 47.2005 47.8145C47.1236 47.9023 47.043 48.0012 46.9442 48.0488C46.849 48.0964 46.655 48.133 46.6257 48.089C46.5561 47.9902 46.4939 47.8108 46.5378 47.712C46.6953 47.3678 46.9296 47.0567 47.0723 46.7089C47.1895 46.427 47.3579 46.0536 47.2664 45.8119C46.9845 45.0688 47.0101 44.3732 47.1895 43.6117C47.3872 42.7624 47.4274 41.8764 47.5519 41.0088C47.6032 40.6573 47.5739 40.3937 47.3323 40.0569C46.7575 39.2515 46.2376 38.3912 46.5452 37.2966C46.7502 36.5681 46.8783 35.8212 47.0284 35.078C47.1273 34.5875 46.9991 34.3093 46.4793 34.075C46.1644 33.9322 46.1754 33.6942 46.1205 33.4416C45.9338 32.6069 45.6885 31.7942 44.9526 31.245C44.8392 31.1608 44.7257 31.0327 44.6927 30.9046C44.5536 30.3554 44.2754 29.9601 43.6933 29.7953C43.4846 29.7367 43.4626 29.5683 43.6384 29.3999C44.2497 28.8178 44.2754 28.5579 43.6603 28.0234C42.9538 27.4084 42.1996 26.8519 41.4711 26.2662C41.3137 26.138 41.1746 25.9843 41.0281 25.8415C41.0611 25.7939 41.094 25.7426 41.127 25.6951C41.3942 25.7866 41.6541 25.8891 41.925 25.966C42.0239 25.9952 42.2179 25.9916 42.2362 25.9477C42.2875 25.8268 42.3094 25.6584 42.2619 25.545C42.185 25.3619 42.0532 25.1935 41.9214 25.0361C41.5443 24.5895 41.1379 24.1648 40.7755 23.7072C40.5156 23.374 40.2666 23.2386 39.8054 23.3337C39.1134 23.4729 38.5057 23.3337 38.1287 22.5796C37.8211 21.9536 37.2317 21.5911 36.5325 21.4484C36.2689 21.3934 36.1188 21.4484 35.9833 21.7193C35.7344 22.2245 35.5733 22.2501 35.1413 21.9389C34.9985 21.8364 34.896 21.6534 34.7423 21.6021C34.2664 21.4447 33.7721 21.02 33.2852 21.4264C33.0033 21.6607 32.9191 21.6094 32.769 21.3605C32.6189 21.1079 32.4871 20.8406 32.2968 20.621C32.154 20.4562 31.949 20.2769 31.7513 20.2476C31.1765 20.1707 30.5871 20.1377 30.005 20.1451C29.7671 20.1451 29.4669 20.2366 29.3021 20.3977C28.9067 20.7857 28.548 20.7088 28.1086 20.4929C27.7352 20.3098 27.3215 20.2146 26.9262 20.0828L26.9335 20.0792ZM29.2289 27.4377C29.6572 26.9654 30.2064 26.9325 30.7555 26.8775C30.9971 26.8556 31.2278 26.7494 31.4657 26.6798C31.3266 26.4346 31.2351 26.1234 31.0337 25.955C30.7043 25.6841 30.3199 25.3765 29.9208 25.3143C29.2069 25.2081 28.4564 25.2082 27.7352 25.2777C26.6223 25.3839 25.9157 26.1197 25.978 27.0642C26.0036 27.423 26.1574 27.8074 26.3514 28.1149C26.8639 28.935 27.0433 29.7917 26.7321 30.7105C26.6077 31.0766 26.6553 31.3805 26.809 31.7136C27.1129 32.369 27.1495 33.0389 26.9957 33.7638C26.8054 34.6387 26.8896 35.4917 27.5595 36.2203C27.8451 36.5314 28.0684 36.9488 28.1819 37.3552C28.5663 38.7243 28.0574 39.8666 27.1934 40.9099C26.7687 41.4261 26.3514 41.957 25.989 42.5134C25.8425 42.7367 25.8462 43.0552 25.7839 43.3298C26.0878 43.2895 26.4283 43.3298 26.6882 43.2017C28.4345 42.3231 29.5437 40.9246 29.9721 39.0062C30.0599 38.6072 30.1075 38.1972 30.1807 37.7945C30.3162 37.0367 30.5468 36.3264 31.0923 35.7407C31.2497 35.5723 31.3047 35.2867 31.3632 35.0451C31.4364 34.7339 31.4328 34.4044 31.517 34.0969C31.8135 33.0133 31.517 32.1346 30.6384 31.4501C30.1075 31.0364 29.5474 30.663 29.0312 30.231C28.4052 29.7038 27.7828 29.1729 27.2227 28.5762C26.6809 28.0014 26.3807 27.2876 26.3148 26.4419C26.41 26.4858 26.4502 26.4895 26.4612 26.5114C26.5161 26.614 26.5747 26.7128 26.6113 26.8226C26.9518 27.8989 27.64 28.7117 28.526 29.378C29.5071 30.1138 30.4883 30.8533 31.484 31.5709C31.5902 31.6478 31.8428 31.677 31.9233 31.6075C32.5384 31.0657 33.2706 30.9558 34.0467 30.9265C34.1895 30.9229 34.4165 30.835 34.4567 30.7288C34.6032 30.3371 34.2847 29.9271 33.882 30.0186C33.2889 30.1541 32.7105 30.3628 32.1284 30.5568C31.8721 30.641 31.6268 30.7655 31.3779 30.8716C31.9307 29.7075 33.0802 29.8026 34.0467 29.5171C33.655 28.697 33.4829 28.5286 32.7251 28.6055C31.7989 28.697 30.8836 28.8984 29.9611 29.0448C29.789 29.0741 29.6096 29.0668 29.4339 29.0741C29.4193 29.0119 29.4046 28.9496 29.39 28.8874C29.822 28.6677 30.2393 28.4042 30.6933 28.2467C31.1655 28.082 31.6744 28.0234 32.2016 27.9099C31.7257 27.1777 31.7257 27.1558 31.0484 27.207C30.4407 27.2546 29.8366 27.3535 29.2326 27.434L29.2289 27.4377ZM16.9025 48.8542C16.9538 48.8395 17.005 48.8249 17.0599 48.8102C17.3162 49.1507 17.5725 49.4912 17.869 49.8866C18.1692 49.3923 18.0996 49.0262 17.9202 48.6309C17.7628 48.2904 17.5651 47.9353 17.7262 47.3935C17.8434 47.7046 17.9056 47.895 17.9825 48.0781C18.2534 48.7444 18.2534 48.748 18.9819 48.726C19.6336 48.7077 20.212 48.8908 20.6147 49.4106C20.8746 49.7438 21.0687 49.7987 21.4823 49.612C22.6685 49.0738 23.6789 49.5168 24.1438 50.7469C24.2647 51.069 24.4184 51.2338 24.7479 51.2667C24.8907 51.2814 25.0554 51.296 25.1689 51.3766C25.4764 51.5889 25.74 51.977 26.0622 52.0282C26.377 52.0758 26.7431 51.6621 27.0799 51.6731C28.0025 51.7024 28.2587 51.0507 28.5516 50.4137C28.6944 50.0989 28.6541 49.828 28.3613 49.5571C28.1416 49.3521 28.0318 49.0262 27.8817 48.7517C27.8011 48.6052 27.7682 48.3783 27.6474 48.3087C26.7578 47.8181 26.8017 47.0237 27.0323 46.2476C27.1788 45.7643 27.1239 45.3763 26.8493 45.0212C26.5308 44.6111 26.1757 44.2121 25.7766 43.879C25.3849 43.5495 24.9712 43.6703 24.6783 44.1133C24.5649 44.2853 24.4733 44.4684 24.3708 44.6441C23.3494 46.3538 22.2145 46.7418 20.3841 46.0169C20.223 45.951 20.0656 45.8522 19.8972 45.8266C19.4395 45.7534 18.9783 45.6582 18.5206 45.6692C18.0667 45.6801 17.6933 45.8852 17.5541 46.4013C17.4187 46.9029 17.0599 47.247 16.6096 47.507C16.4705 47.5875 16.3131 47.7156 16.2618 47.8584C16.0239 48.5027 16.4193 49.5937 17.005 49.9561C17.0709 49.9964 17.221 50.0147 17.243 49.9854C17.2979 49.9012 17.3491 49.7694 17.3162 49.6889C17.2027 49.4033 17.0526 49.1324 16.9135 48.8542H16.9025ZM26.4612 43.7984C26.809 44.2743 27.1165 44.732 27.468 45.1566C27.5742 45.2884 27.7938 45.4056 27.9585 45.4019C29.0056 45.3763 29.789 44.7246 30.0197 43.6959C30.0892 43.3847 30.1148 43.0589 30.1478 42.7404C30.2759 41.5176 30.7811 41.0124 32.0039 40.9795C32.5237 40.9685 33.0509 41.0454 33.5671 41.1149C34.6032 41.2577 35.1084 40.8623 35.4232 39.8739C35.7381 38.8854 36.1225 37.9263 35.9724 36.8609C35.9577 36.7548 36.0273 36.6376 36.0566 36.5241C36.2469 35.726 35.7271 34.7486 34.94 34.5069C34.7459 34.4484 34.4714 34.4813 34.292 34.5765C33.5964 34.9499 32.9228 35.3599 32.2492 35.7736C31.5463 36.2093 31.0777 36.8207 30.9093 37.6444C30.8104 38.1313 30.7116 38.6182 30.5981 39.1014C30.1039 41.1955 28.9726 42.766 26.9079 43.5678C26.7504 43.63 26.604 43.7215 26.4576 43.7984H26.4612ZM22.2402 41.3566C22.2731 43.0589 21.3615 43.7801 19.9557 43.447C19.6445 43.3737 19.3407 43.2639 19.0295 43.187C18.6158 43.0845 18.2314 43.1211 17.8543 43.3591C16.9647 43.9229 16.9611 43.9668 17.448 44.8967C17.62 45.2298 17.7921 45.2591 18.1326 45.2115C18.5572 45.153 19.0039 45.1676 19.4322 45.2299C20.0363 45.3177 20.633 45.4751 21.2334 45.5996C22.2841 45.8156 22.8881 45.5776 23.4666 44.677C23.7192 44.2853 23.8949 43.8423 24.1622 43.4616C24.6381 42.7917 24.7735 42.0631 24.5465 41.2943C24.1951 40.0862 24.3122 38.944 24.7882 37.7871C25.3666 36.385 24.1878 35.2794 22.7747 35.2648C22.6282 35.2648 22.4378 35.3746 22.3353 35.4881C21.9583 35.9127 21.4787 36.0702 20.9405 36.1361C20.7831 36.1544 20.633 36.2422 20.4792 36.2971C20.5781 36.4216 20.6513 36.5827 20.7758 36.6706C21.3762 37.0769 21.6837 37.6151 21.7093 38.3546C21.7276 38.8745 21.8741 39.3906 21.9656 39.9068C22.0718 40.4816 22.1816 41.0527 22.2402 41.3566ZM28.4271 13.7714C28.1745 13.5956 28.0171 13.4163 27.8268 13.365C27.2337 13.2076 26.6296 13.1051 26.0292 12.9733C25.7766 12.9184 25.6009 12.9367 25.4691 13.2222C25.3263 13.5371 25.103 13.819 24.8907 14.0935C24.5905 14.4779 24.5026 14.4779 24.1182 14.1741C23.9864 14.0716 23.8253 13.8848 23.7119 13.9105C23.2286 14.013 22.6502 14.0496 22.3134 14.3461C21.7972 14.8037 21.2261 15.1149 20.644 15.4444C20.5012 15.525 20.3255 15.8178 20.3731 15.9203C20.5525 16.3157 20.8124 16.6818 21.0613 17.0406C21.087 17.0735 21.281 17.004 21.3872 16.9637C21.6032 16.8795 21.8082 16.744 22.0351 16.6928C22.3097 16.6342 22.5989 16.6306 22.8808 16.6232C23.2506 16.6123 23.6277 16.6708 23.9864 16.6159C24.8394 16.4878 25.6741 16.4329 26.4869 16.7916C26.8859 16.9674 27.2996 17.1211 27.684 17.3225C27.9695 17.4726 28.1379 17.3811 28.2404 17.1321C28.332 16.9198 28.709 16.6379 28.3869 16.4731C27.8414 16.1949 27.9036 15.6348 27.6327 15.2431C27.4387 14.9612 27.5449 14.7928 27.7901 14.5878C28.0208 14.3937 28.1709 14.1008 28.4235 13.764L28.4271 13.7714ZM35.8442 43.6556C35.7161 44.3695 35.6465 45.0688 36.0968 45.6911C36.4043 46.1121 36.4739 46.1268 36.7814 45.735C37.0157 45.4385 37.2317 45.12 37.4953 44.8564C37.7369 44.6111 37.7992 44.3878 37.6381 44.0803C37.5429 43.9009 37.4697 43.7069 37.4221 43.5092C37.2464 42.7514 37.1146 41.9972 37.9273 41.4774C38.0042 41.4261 38.092 41.2394 38.0628 41.1991C37.6234 40.6134 38.0811 39.365 36.7704 39.4163C36.7228 39.4163 36.6753 39.354 36.6203 39.3321C36.4483 39.2588 36.192 39.0831 36.1188 39.1417C35.954 39.2698 35.8369 39.5041 35.782 39.7165C35.6941 40.0496 35.6575 40.4011 35.6319 40.7452C35.6026 41.1442 35.5733 41.5506 35.6063 41.946C35.6539 42.5171 35.7637 43.0882 35.8442 43.6556ZM18.1399 42.5171C18.1399 42.583 18.1399 42.6525 18.1436 42.7184C18.8794 42.8502 19.6079 43.0333 20.3474 43.0992C21.3908 43.1944 21.9326 42.6049 21.8631 41.5616C21.8558 41.4737 21.8375 41.3895 21.8265 41.3017C21.6654 40.2363 21.5373 39.1673 21.3249 38.113C21.2554 37.7688 21.0028 37.443 20.7721 37.1611C20.6843 37.0513 20.3841 37 20.2486 37.0623C20.0216 37.1721 19.9557 37.4211 20.1168 37.6627C20.428 38.1313 20.3914 38.6585 20.3987 39.1856C20.4024 39.5298 20.4536 39.8812 20.5305 40.218C20.7868 41.3163 20.4792 41.8691 19.3883 42.1876C18.9746 42.3084 18.5572 42.4073 18.1399 42.5171ZM34.9546 33.0535C34.8448 32.8742 34.7606 32.7643 34.702 32.6399C34.5922 32.4092 34.4457 32.1786 34.4018 31.9296C34.2627 31.1462 34.27 31.1389 33.4829 31.3842C33.3438 31.4281 33.2047 31.4757 33.0692 31.5269C32.7434 31.6477 32.3517 31.699 32.1064 31.9187C31.7806 32.2079 32.2382 32.5447 32.2089 32.8851C32.176 33.2622 32.1723 33.643 32.1393 34.02C32.1247 34.1921 32.0551 34.3605 32.0332 34.5326C31.9966 34.8145 32.121 34.9353 32.3846 34.8035C33.0143 34.496 33.655 34.1994 34.2481 33.8333C34.5263 33.6613 34.7093 33.3354 34.9546 33.0572V33.0535ZM18.2973 17.8094C17.1405 17.9192 16.0605 17.6739 15.0061 18.0693C14.1714 18.3842 13.388 18.7466 12.8242 19.4605C12.535 19.8266 12.7107 20.3208 13.1391 20.4123C13.7504 20.5404 14.5741 20.2036 14.9109 19.6435C15.2111 19.1456 15.6029 18.8747 16.2033 18.9333C16.3643 18.9479 16.562 18.9333 16.6975 18.8527C17.2137 18.5416 17.7116 18.1938 18.2973 17.8094ZM24.5978 33.1194C24.7186 33.5112 24.7955 33.9798 25.0042 34.3788C25.2092 34.7742 25.6375 34.7998 25.978 34.5362C26.7907 33.9102 26.8163 32.2957 26.0182 31.6368C25.546 31.245 25.0554 31.3439 24.8358 31.9333C24.704 32.2811 24.6857 32.6691 24.5978 33.1194ZM19.0917 52.9654C19.7763 52.9727 20.0948 52.5151 19.8569 51.8561C19.5603 51.0251 18.4071 50.4504 17.5505 50.6847C17.1917 50.7835 17.0892 50.9848 17.1514 51.3326C17.3089 52.1856 18.2168 52.9544 19.0917 52.9654ZM30.0599 49.5498C30.1185 49.4875 30.1734 49.4289 30.232 49.3667C29.3936 48.4698 28.9104 47.4447 28.936 46.222C28.936 46.1524 28.7383 46.0243 28.6285 46.0169C27.9 45.9767 27.252 46.6722 27.4424 47.3825C27.5998 47.9682 28.3832 48.2025 28.4198 48.9201C28.4235 49.0262 28.6688 49.158 28.8262 49.2093C29.2326 49.3447 29.6499 49.4399 30.0599 49.5498ZM32.0295 52.8739C32.165 52.4529 32.3077 52.0502 32.4176 51.6365C32.4542 51.5047 32.4395 51.2448 32.37 51.2155C31.733 50.9409 31.085 50.6956 30.4333 50.4687C30.3601 50.443 30.1515 50.5748 30.1368 50.659C30.0343 51.2265 29.9647 51.8049 29.8842 52.376C29.8513 52.5957 29.9391 52.6689 30.1698 52.6872C30.7921 52.7311 31.4145 52.8116 32.0332 52.8739H32.0295ZM35.1047 51.545C35.5074 51.5523 35.6795 51.4095 35.6868 51.069C35.7051 50.2563 34.8265 49.3521 34.0137 49.3484C33.4353 49.3484 33.1827 49.7108 33.3731 50.2746C33.5964 50.9409 34.3981 51.5267 35.1084 51.5413L35.1047 51.545ZM19.9008 39.1271C19.9557 39.1161 20.0106 39.1014 20.0656 39.0868C19.9594 38.6731 19.8642 38.2594 19.7361 37.853C19.7178 37.7908 19.5237 37.7322 19.4395 37.7579C19.3663 37.7798 19.2858 37.9336 19.2931 38.0215C19.326 38.3692 19.3956 38.717 19.4469 39.0612C19.564 39.8373 19.3407 40.5072 18.7915 41.0673C18.6707 41.1918 18.5097 41.2943 18.4364 41.4408C18.3962 41.5213 18.5206 41.7812 18.5389 41.7776C18.9892 41.7044 19.4761 41.6897 19.8715 41.492C20.2852 41.287 20.2669 40.8294 20.1534 40.3974C20.0436 39.9764 19.9777 39.5481 19.8935 39.1197L19.9008 39.1271ZM18.484 40.5182C19.0368 39.8775 19.2638 38.5779 18.8867 37.9702C18.7879 37.8128 18.4474 37.7798 18.2131 37.7469C18.1655 37.7396 18.0301 37.9995 18.0264 38.1423C17.9971 38.9477 17.9459 39.7641 18.484 40.5182ZM10.375 58.3763C10.6533 58.3287 10.9388 58.3983 10.9718 57.9956C10.9974 57.6624 10.9095 57.4867 10.5215 57.4098C10.1371 57.3329 9.78929 57.084 9.41587 56.9266C9.23649 56.8533 9.0388 56.8241 8.85209 56.7728C8.82646 56.9925 8.72762 57.2341 8.78985 57.4244C8.86307 57.6478 9.03513 57.9004 9.23649 58.0029C9.58794 58.1823 9.9943 58.2591 10.3787 58.3763H10.375ZM11.3964 57.9516C11.4074 58.596 11.6234 58.9144 12.0444 58.9254C12.5094 58.9364 13.0768 58.4825 13.1061 58.0688C13.1244 57.8015 13.0658 57.6295 12.718 57.6624C12.4142 57.6917 12.0993 57.6551 11.7991 57.6002C11.477 57.5416 11.3598 57.6514 11.3964 57.9553V57.9516ZM28.5443 59.0645C28.3905 59.2952 28.2331 59.5331 28.0757 59.7748C28.0061 59.8846 27.9402 59.9944 27.8707 60.1042C28.0281 60.1409 28.1928 60.2287 28.3393 60.2104C28.8518 60.1409 29.3607 60.0384 29.8696 59.9395C29.9684 59.9212 30.0563 59.8553 30.1515 59.8114C30.0563 59.7235 29.9794 59.599 29.8696 59.5514C29.4522 59.383 29.0239 59.2403 28.5443 59.0645ZM28.6212 52.2259C28.6688 52.2076 28.7273 52.1966 28.7749 52.1673C29.0422 51.9989 29.6462 50.6371 29.5291 50.3698C29.4705 50.238 29.2875 50.1355 29.1374 50.0916C29.0751 50.0733 28.9177 50.2234 28.8701 50.3295C28.6614 50.7689 28.4784 51.2155 28.2844 51.6621C28.1819 51.8964 28.3796 52.2259 28.6212 52.2222V52.2259ZM32.6153 52.9068C33.0509 52.5444 33.4097 52.2149 33.7978 51.9221C34.076 51.7097 33.9845 51.5706 33.7794 51.3839C33.4939 51.1276 33.245 51.0764 32.985 51.4132C32.6629 51.8269 32.3627 52.2442 32.6153 52.9068ZM16.7195 50.3954C16.4778 50.0916 16.2069 49.7365 15.9177 49.3923C15.8957 49.3667 15.7493 49.4143 15.6981 49.4655C15.6468 49.5168 15.6029 49.6486 15.6322 49.6889C15.8701 50.0184 16.1191 50.3405 16.379 50.6554C16.4119 50.6956 16.5291 50.6883 16.5986 50.6663C16.6353 50.6554 16.6462 50.5675 16.7231 50.3954H16.7195Z" fill="#F1EDE4"/>
<path d="M10.397 39.7678C10.8363 38.8745 11.3122 38.7464 12.092 39.3102C12.4764 39.5884 12.6741 39.5701 12.9633 39.2296C13.3514 38.7793 13.355 38.2192 12.9926 37.5236C12.934 37.4101 12.9194 37.271 12.8864 37.1465C13.0512 37.1392 13.2452 37.077 13.377 37.1392C13.549 37.2234 13.7101 37.3845 13.8053 37.5492C14.2519 38.3437 13.9261 39.603 13.0841 39.9764C12.5606 40.2107 12.5459 40.5292 12.502 40.9869C12.4508 41.5287 12.3007 42.0705 12.1176 42.583C11.9968 42.9162 11.6929 43.1541 11.2902 43.1029C11.1804 43.0882 11.0852 42.9345 10.9827 42.8466C11.0523 42.7697 11.1145 42.6453 11.1987 42.6306C11.7735 42.5245 11.9309 42.0559 12.0151 41.6056C12.103 41.1223 12.0883 40.6171 12.07 40.1265C12.059 39.7641 11.9163 39.431 11.5392 39.2882C11.1365 39.1381 10.8692 39.3577 10.6496 39.6616C10.5983 39.7312 10.5727 39.819 10.5361 39.8959C10.4885 39.852 10.4409 39.808 10.397 39.7641V39.7678Z" fill="#F1EDE4"/>
<path d="M22.207 55.3745C22.4157 55.6124 22.5914 55.909 22.8477 56.081C23.1772 56.3043 23.5616 56.4984 23.946 56.5752C24.5134 56.6851 24.7624 56.33 24.5757 55.7845C24.3121 55.0193 23.5726 54.4995 22.7635 54.5251C22.628 54.5288 22.4926 54.5471 22.2693 54.5654C22.5146 54.0089 22.8953 53.9357 23.3126 54.0419C24.2389 54.2762 24.8576 54.8692 25.1211 55.7845C25.3335 56.513 24.9161 56.9963 24.1693 56.9633C23.2577 56.923 22.4926 56.297 22.2253 55.3598L22.2107 55.3745H22.207Z" fill="#F1EDE4"/>
<path d="M37.8213 54.2616C37.4503 53.8125 37.0403 53.7661 36.5912 54.1224C36.4813 54.2103 36.3532 54.2689 36.1848 54.3751C36.0054 53.7637 36.3569 53.4781 36.7596 53.3244C37.2099 53.1523 37.4478 52.8704 37.6382 52.4457C37.8322 52.0101 38.0848 51.5635 38.7877 51.4866C38.4839 51.9771 38.1544 52.3469 38.008 52.7825C37.8542 53.2255 37.8798 53.7307 37.8176 54.2616H37.8213Z" fill="#F1EDE4"/>
<path d="M41.5624 42.9236C41.6027 43.4068 41.599 43.901 41.6942 44.3733C41.7528 44.6772 41.9212 44.9737 42.0969 45.2373C42.2506 45.4679 42.474 45.7938 42.7888 45.6071C42.9535 45.5082 43.0158 45.1604 43.0304 44.9188C43.056 44.5564 43.0011 44.1903 43.0597 43.8168C43.5503 44.3404 43.5759 44.9591 43.3929 45.5851C43.2501 46.072 42.7449 46.2294 42.3385 45.8999C42.0529 45.6693 41.8113 45.3471 41.6466 45.0176C41.3098 44.344 41.3098 43.6265 41.5624 42.9199V42.9236Z" fill="#F1EDE4"/>
<path d="M22.2254 55.3599C22.1558 55.3123 22.079 55.2684 22.0131 55.2134C21.0136 54.397 20.7757 54.3714 19.7103 54.9645C19.6481 54.3092 20.0581 53.8772 20.7098 54.0163C21.4383 54.1737 22.0423 54.5545 22.2107 55.3745L22.2254 55.3599Z" fill="#F1EDE4"/>
<path d="M24.1182 28.4336C23.4153 27.9943 22.7417 28.0419 22.0791 28.4629C22.0242 28.4995 21.8594 28.4776 21.8485 28.4446C21.8155 28.3531 21.7972 28.2213 21.8375 28.1408C22.1084 27.6465 22.8333 27.4269 23.452 27.6868C23.7265 27.804 23.9535 28.0273 24.2024 28.203C24.1732 28.2799 24.1439 28.3568 24.1146 28.4336H24.1182Z" fill="#F1EDE4"/>
<path d="M16.2107 25.2523C15.841 25.2523 15.6176 25.2633 15.3943 25.2523C14.8488 25.2157 14.512 25.4646 14.3143 25.9625C14.1313 26.4238 13.9299 26.8778 13.7323 27.3354C13.5822 27.6832 13.3845 27.771 13.0989 27.4525C12.9854 27.3244 12.85 27.2072 12.7035 27.1194C12.5717 27.0425 12.3594 26.9363 12.2715 26.9912C12.0922 27.0974 11.8176 27.3573 11.8542 27.4598C12.2642 28.5911 11.3893 28.9462 10.7193 29.4294C10.3898 29.6711 10.0823 29.9493 9.73085 30.1506C9.50387 30.2788 9.22564 30.4435 9.03893 29.9822C8.89615 29.6308 8.49345 29.6381 8.21156 29.8468C7.69902 30.2238 7.2048 30.6302 6.73986 31.0659C6.64467 31.1537 6.66298 31.4503 6.72887 31.604C6.80575 31.7798 6.99246 31.9079 7.14622 32.0433C7.44276 32.2996 7.48303 32.5449 7.2231 32.8707C7.00711 33.138 6.89362 33.4857 6.68494 33.7603C6.48359 34.0276 6.25661 34.3204 5.97106 34.4779C5.69283 34.6316 5.59398 34.8073 5.57568 35.0856C5.50612 36.0191 5.42558 36.949 5.35968 37.8825C5.33772 38.1791 5.46219 38.3219 5.78801 38.2047C5.93079 38.1535 6.09187 38.1718 6.24563 38.1571C6.24563 38.3182 6.28956 38.5012 6.23099 38.6404C5.97472 39.2591 5.69649 39.8704 5.41093 40.4782C5.37066 40.566 5.24985 40.6173 5.16931 40.6832C5.1144 40.5916 4.99725 40.4928 5.01189 40.4123C5.07413 40.0718 5.14002 39.724 5.2645 39.4018C5.37799 39.109 5.50246 38.8637 5.14369 38.655C4.81786 38.4646 4.7959 38.1315 4.8142 37.802C4.87644 36.7513 4.95332 35.7006 5.01921 34.6499C5.04118 34.2582 5.17663 33.9727 5.6013 33.8958C6.10285 33.8006 6.12116 33.321 6.32617 32.9879C6.55315 32.6181 6.65932 32.3326 6.37742 31.8932C6.00767 31.3185 6.16875 30.8901 6.71423 30.4472C6.96317 30.2458 7.21944 30.0554 7.45374 29.8358C7.92234 29.3928 8.45318 29.2098 9.05357 29.5026C9.47458 29.7077 9.77478 29.6051 10.064 29.2866C10.28 29.0487 10.496 28.8034 10.7486 28.6094C11.0781 28.3531 11.2538 28.0749 11.1769 27.6392C11.1257 27.3537 11.1074 26.9912 11.4991 26.9363C11.9164 26.8778 12.2972 26.3982 12.7841 26.8814C13.1904 27.2841 13.3735 27.2146 13.6114 26.6984C13.7103 26.486 13.7835 26.2627 13.8604 26.0431C14.0398 25.5342 14.3217 25.1608 14.8232 24.8642C15.2149 24.6299 15.3467 23.96 15.7385 23.733C16.3828 23.3596 17.1369 23.1656 17.8581 22.9422C18.0229 22.891 18.2608 22.9898 18.4329 23.085C18.5757 23.1655 18.6672 23.3376 18.7844 23.4694C18.6086 23.528 18.3633 23.6927 18.2645 23.6268C17.4847 23.1216 16.7965 23.5573 16.1265 23.8392C15.42 24.1357 15.4126 24.3188 15.9361 24.8862C15.9947 24.9484 16.0387 25.0217 16.2107 25.2523Z" fill="#F1EDE4"/>
<path d="M26.2632 20.6211C25.9887 21.1117 25.7214 21.2398 25.2308 21.2215C24.678 21.1995 24.1033 21.4265 23.7189 21.9317C23.4553 22.2758 22.6169 22.5175 22.2399 22.36C22.152 22.3234 22.0458 22.2063 22.0385 22.1184C22.0312 22.0306 22.1227 21.8768 22.1996 21.8548C22.5693 21.745 22.9098 21.6205 23.0782 21.2251C23.1038 21.1629 23.2283 21.1043 23.3015 21.108C24.1728 21.1739 24.9343 20.493 25.8349 20.7419C25.9264 20.7675 26.0472 20.687 26.2632 20.6247V20.6211Z" fill="#F1EDE4"/>
<path d="M24.0816 20.3539C24.0084 20.3172 23.7997 20.2697 23.7887 20.2001C23.7704 20.0537 23.8143 19.845 23.9169 19.7571C24.056 19.6363 24.2646 19.5668 24.455 19.5484C24.7479 19.5155 25.092 19.5777 25.1323 19.9145C25.1726 20.2733 24.7955 20.2111 24.5685 20.2733C24.433 20.3099 24.2866 20.3209 24.0816 20.3539Z" fill="#F1EDE4"/>
<path d="M3.67571 41.0893C3.65741 41.3163 3.6867 41.5652 3.60615 41.7666C3.55124 41.9057 3.33891 41.9825 3.19613 42.0887C3.11193 41.9276 2.94352 41.7592 2.96183 41.6128C3.0021 41.3053 3.12291 41.0051 3.24738 40.7195C3.29497 40.6134 3.4524 40.5584 3.55856 40.4816C3.60615 40.5987 3.66473 40.7122 3.69036 40.833C3.70866 40.9136 3.67937 41.0051 3.66839 41.0893C3.66839 41.0893 3.67205 41.0893 3.67571 41.0893Z" fill="#F1EDE4"/>
<path d="M44.0996 33.1599C44.5389 33.1599 45.0515 33.9434 44.8721 34.2692C44.8355 34.3387 44.6195 34.401 44.6048 34.3827C44.3705 34.0605 44.1509 33.731 43.9532 33.3905C43.9312 33.3503 44.0594 33.2221 44.0996 33.1599Z" fill="#F1EDE4"/>
<path d="M5.06317 30.4581C5.12175 30.524 5.24622 30.6046 5.29015 30.7217C5.42561 31.0951 5.26086 31.4576 4.89477 31.5564C4.76298 31.593 4.52135 31.5381 4.45912 31.4393C4.29071 31.1793 4.67511 30.5167 5.06683 30.4581H5.06317Z" fill="#F1EDE4"/>
<path d="M46.1277 41.6349C46.1533 41.6422 46.1935 41.6385 46.2045 41.6569C46.3986 41.9497 46.3912 42.2499 46.2009 42.5391C46.1826 42.5648 46.0874 42.5684 46.0508 42.5465C45.886 42.4366 45.9117 42.1474 46.1277 41.6349Z" fill="#F1EDE4"/>
<path d="M46.4867 40.3535C46.6076 40.6025 46.6918 40.7599 46.7577 40.9283C46.765 40.9429 46.5929 41.0491 46.5892 41.0454C46.4867 40.9173 46.3842 40.7855 46.311 40.6427C46.2927 40.6098 46.3806 40.5256 46.4904 40.3572L46.4867 40.3535Z" fill="#F1EDE4"/>
<path d="M4.29019 43.2164C4.20233 43.015 4.13643 42.9015 4.1108 42.777C4.09982 42.7295 4.18768 42.6636 4.23162 42.605C4.30117 42.7148 4.38904 42.8173 4.43297 42.9345C4.45127 42.9784 4.37439 43.0589 4.29019 43.2164Z" fill="#F1EDE4"/>
<path d="M25.6411 19.0468C25.5678 18.9882 25.5093 18.937 25.4507 18.8894C25.5166 18.8454 25.5788 18.7686 25.6447 18.7686C25.7069 18.7686 25.7692 18.8454 25.8314 18.8894C25.7728 18.937 25.7143 18.9882 25.6411 19.0468Z" fill="#F1EDE4"/>
<path d="M41.8526 16.4482C42.9824 15.8952 44.677 16.2178 45.3831 16.4482L46.4423 16.4481L47.1484 16.1026L46.7953 15.4114V14.3747L48.2075 12.9924L48.9136 12.3012L50.6789 11.9557L51.738 12.3012L52.7972 10.9189L54.9155 11.6101L55.9746 12.3012L55.2685 13.338L55.6216 14.3747L56.3277 15.0658L57.0338 14.0291H58.446L59.8582 15.757L60.9174 17.4849L61.9765 17.8304L62.3296 18.5216L62.6826 20.2495H63.7418H64.8009L66.2131 20.9406L67.2723 22.3229H69.0375L70.8028 23.7052L71.5089 25.4331L71.8619 26.4698L72.9211 27.161L73.6272 28.8888L73.2741 29.58L75.3925 31.999L75.7455 33.7269L76.4516 34.0725L76.8047 35.4548L76.0986 37.8738L76.4516 39.6017L77.1577 40.2928L77.5108 42.0207L77.1577 42.7118V45.822V48.5866L77.8638 49.6233L77.5108 51.0056L76.4516 51.6968V54.807L75.0394 56.5348V57.9171L73.2741 59.645L72.568 59.2994L69.7436 60.6817L63.7418 62.7552L58.7991 63.1008H52.7972L50.3258 62.7552L48.5606 63.1008L45.0301 62.7552L42.5587 61.7185L41.1465 62.064L39.3812 61.3729L36.9099 61.7185C36.3215 61.4881 35.0034 60.9582 34.4385 60.6817C33.8737 60.4053 33.7324 59.4146 33.7324 58.9539L32.3202 58.2627C32.0849 58.2627 31.4729 58.1936 30.908 57.9171C30.2019 57.5716 29.4958 55.8437 29.8489 55.1525C30.2019 54.4614 29.8489 53.7702 29.4958 53.4247L29.4958 53.4246C29.1427 53.079 28.0836 52.0424 27.7306 52.0424C27.3775 52.0424 27.3775 50.3145 27.3775 48.5866C27.3775 46.8587 27.0245 45.1309 26.6714 44.4397C26.389 43.8868 26.3184 41.6751 26.3184 40.6384C26.436 39.4865 26.6714 37.0444 26.6714 36.4915C26.6714 35.9386 27.1421 34.418 27.3775 33.7269L28.4367 30.6167V28.1977L30.2019 26.8154C30.6727 26.9306 31.7553 27.161 32.3202 27.161C33.0263 27.161 32.6733 25.7787 32.6733 25.4331C32.6733 25.0875 32.6733 25.0875 33.7324 23.3596C34.5798 21.9773 35.7331 21.171 36.2038 20.9406L37.616 21.2862L37.969 19.9039C37.969 19.5583 38.0397 18.6598 38.3221 17.8304C38.6751 16.7937 40.4404 17.1393 41.8526 16.4482Z" fill="#121212"/>
<path d="M40.3066 40.2258C40.746 39.3325 41.2219 39.2044 42.0017 39.7682C42.3861 40.0464 42.5837 40.0281 42.873 39.6876C43.261 39.2373 43.2647 38.6772 42.9022 37.9816C42.8437 37.8681 42.829 37.729 42.7961 37.6045C42.9608 37.5972 43.1549 37.535 43.2866 37.5972C43.4587 37.6814 43.6198 37.8425 43.715 38.0072C44.1616 38.8017 43.8358 40.061 42.9938 40.4345C42.4703 40.6688 42.4556 40.9872 42.4117 41.4449C42.3604 41.9867 42.2103 42.5285 42.0273 43.041C41.9065 43.3742 41.6026 43.6122 41.1999 43.5609C41.0901 43.5463 40.9949 43.3925 40.8924 43.3046C40.9619 43.2278 41.0242 43.1033 41.1084 43.0886C41.6832 42.9825 41.8406 42.5139 41.9248 42.0636C42.0126 41.5803 41.998 41.0751 41.9797 40.5846C41.9687 40.2221 41.8259 39.889 41.4489 39.7462C41.0462 39.5961 40.7789 39.8157 40.5592 40.1196C40.508 40.1892 40.4824 40.277 40.4458 40.3539C40.3982 40.31 40.3506 40.266 40.3066 40.2221V40.2258Z" fill="#F1EDE4"/>
<path d="M52.1172 55.8325C52.3259 56.0704 52.5016 56.367 52.7579 56.539C53.0873 56.7623 53.4717 56.9564 53.8561 57.0333C54.4236 57.1431 54.6725 56.788 54.4858 56.2425C54.2222 55.4774 53.4827 54.9575 52.6737 54.9831C52.5382 54.9868 52.4027 55.0051 52.1794 55.0234C52.4247 54.4669 52.8054 54.3937 53.2228 54.4999C54.149 54.7342 54.7677 55.3273 55.0313 56.2425C55.2436 56.971 54.8263 57.4543 54.0795 57.4213C53.1679 57.381 52.4027 56.755 52.1355 55.8178L52.1208 55.8325H52.1172Z" fill="#F1EDE4"/>
<path d="M67.7304 54.7196C67.3595 54.2705 66.9494 54.2241 66.5004 54.5805C66.3905 54.6683 66.2624 54.7269 66.094 54.8331C65.9146 54.2217 66.2661 53.9361 66.6688 53.7824C67.1191 53.6103 67.357 53.3284 67.5474 52.9037C67.7414 52.4681 67.994 52.0215 68.6969 51.9446C68.3931 52.4351 68.0636 52.8049 67.9171 53.2405C67.7634 53.6835 67.789 54.1887 67.7268 54.7196H67.7304Z" fill="#F1EDE4"/>
<path d="M71.4725 43.3816C71.5128 43.8648 71.5092 44.3591 71.6043 44.8313C71.6629 45.1352 71.8313 45.4317 72.007 45.6953C72.1608 45.9259 72.3841 46.2518 72.699 46.0651C72.8637 45.9662 72.9259 45.6184 72.9406 45.3768C72.9662 45.0144 72.9113 44.6483 72.9699 44.2749C73.4604 44.7984 73.4861 45.4171 73.303 46.0431C73.1602 46.53 72.655 46.6874 72.2487 46.3579C71.9631 46.1273 71.7215 45.8051 71.5567 45.4756C71.2199 44.802 71.2199 44.0845 71.4725 43.3779V43.3816Z" fill="#F1EDE4"/>
<path d="M52.1351 55.8179C52.0655 55.7703 51.9886 55.7264 51.9227 55.6714C50.9233 54.8551 50.6853 54.8294 49.62 55.4225C49.5578 54.7672 49.9678 54.3352 50.6194 54.4743C51.348 54.6317 51.952 55.0125 52.1204 55.8325L52.1351 55.8179Z" fill="#F1EDE4"/>
<path d="M54.0279 28.8916C53.325 28.4523 52.6514 28.4999 51.9888 28.9209C51.9339 28.9575 51.7691 28.9356 51.7581 28.9026C51.7252 28.8111 51.7069 28.6793 51.7471 28.5988C52.0181 28.1045 52.7429 27.8849 53.3616 28.1448C53.6362 28.262 53.8632 28.4853 54.1121 28.661C54.0828 28.7379 54.0535 28.8148 54.0243 28.8916H54.0279Z" fill="#F1EDE4"/>
<path d="M46.1204 25.7102C45.7506 25.7102 45.5273 25.7212 45.304 25.7102C44.7585 25.6736 44.4217 25.9225 44.224 26.4204C44.041 26.8817 43.8396 27.3356 43.6419 27.7933C43.4918 28.141 43.2941 28.2289 43.0086 27.9104C42.8951 27.7823 42.7596 27.6651 42.6132 27.5773C42.4814 27.5004 42.2691 27.3942 42.1812 27.4491C42.0018 27.5553 41.7273 27.8152 41.7639 27.9177C42.1739 29.049 41.2989 29.4041 40.629 29.8873C40.2995 30.1289 39.992 30.4072 39.6405 30.6085C39.4135 30.7367 39.1353 30.9014 38.9486 30.4401C38.8058 30.0887 38.4031 30.096 38.1212 30.3047C37.6087 30.6817 37.1145 31.0881 36.6495 31.5238C36.5543 31.6116 36.5726 31.9082 36.6385 32.0619C36.7154 32.2376 36.9021 32.3658 37.0559 32.5012C37.3524 32.7575 37.3927 33.0028 37.1328 33.3286C36.9168 33.5958 36.8033 33.9436 36.5946 34.2182C36.3933 34.4855 36.1663 34.7783 35.8807 34.9357C35.6025 35.0895 35.5036 35.2652 35.4853 35.5435C35.4158 36.477 35.3352 37.4069 35.2693 38.3404C35.2474 38.637 35.3719 38.7797 35.6977 38.6626C35.8405 38.6113 36.0015 38.6296 36.1553 38.615C36.1553 38.7761 36.1992 38.9591 36.1407 39.0982C35.8844 39.7169 35.6062 40.3283 35.3206 40.936C35.2803 41.0239 35.1595 41.0752 35.079 41.1411C35.0241 41.0495 34.9069 40.9507 34.9216 40.8701C34.9838 40.5297 35.0497 40.1819 35.1742 39.8597C35.2877 39.5668 35.4121 39.3216 35.0534 39.1129C34.7275 38.9225 34.7056 38.5894 34.7239 38.2599C34.7861 37.2092 34.863 36.1585 34.9289 35.1078C34.9508 34.7161 35.0863 34.4305 35.511 34.3537C36.0125 34.2585 36.0308 33.7789 36.2358 33.4458C36.4628 33.076 36.569 32.7904 36.2871 32.3511C35.9173 31.7764 36.0784 31.348 36.6239 30.9051C36.8728 30.7037 37.1291 30.5133 37.3634 30.2937C37.832 29.8507 38.3628 29.6677 38.9632 29.9605C39.3842 30.1655 39.6844 30.063 39.9737 29.7445C40.1897 29.5066 40.4057 29.2613 40.6583 29.0673C40.9877 28.811 41.1635 28.5328 41.0866 28.0971C41.0353 27.8116 41.017 27.4491 41.4087 27.3942C41.8261 27.3356 42.2068 26.856 42.6937 27.3393C43.1001 27.742 43.2832 27.6724 43.5211 27.1562C43.62 26.9439 43.6932 26.7206 43.7701 26.5009C43.9494 25.9921 44.2313 25.6187 44.7329 25.3221C45.1246 25.0878 45.2564 24.4179 45.6481 24.1909C46.2924 23.8175 47.0466 23.6234 47.7678 23.4001C47.9326 23.3489 48.1705 23.4477 48.3426 23.5429C48.4854 23.6234 48.5769 23.7955 48.694 23.9273C48.5183 23.9859 48.273 24.1506 48.1742 24.0847C47.3944 23.5795 46.7061 24.0152 46.0362 24.297C45.3296 24.5936 45.3223 24.7766 45.8458 25.3441C45.9044 25.4063 45.9483 25.4795 46.1204 25.7102Z" fill="#F1EDE4"/>
<path d="M56.1729 21.0791C55.8983 21.5697 55.6311 21.6978 55.1405 21.6795C54.5877 21.6575 54.0129 21.8845 53.6285 22.3897C53.365 22.7338 52.5266 22.9755 52.1495 22.818C52.0617 22.7814 51.9555 22.6643 51.9482 22.5764C51.9408 22.4886 52.0324 22.3348 52.1092 22.3128C52.479 22.203 52.8195 22.0785 52.9879 21.6832C53.0135 21.6209 53.138 21.5623 53.2112 21.566C54.0825 21.6319 54.844 20.951 55.7446 21.1999C55.8361 21.2255 55.9569 21.145 56.1729 21.0828V21.0791Z" fill="#F1EDE4"/>
<path d="M53.9913 20.8119C53.918 20.7753 53.7094 20.7277 53.6984 20.6581C53.6801 20.5117 53.724 20.303 53.8265 20.2151C53.9656 20.0943 54.1743 20.0248 54.3647 20.0065C54.6576 19.9735 55.0017 20.0357 55.042 20.3725C55.0822 20.7313 54.7051 20.6691 54.4782 20.7313C54.3427 20.7679 54.1963 20.7789 53.9913 20.8119Z" fill="#F1EDE4"/>
<path d="M33.5854 41.5473C33.5671 41.7743 33.5964 42.0232 33.5158 42.2246C33.4609 42.3637 33.2486 42.4406 33.1058 42.5467C33.0216 42.3856 32.8532 42.2172 32.8715 42.0708C32.9118 41.7633 33.0326 41.4631 33.1571 41.1775C33.2046 41.0714 33.3621 41.0165 33.4682 40.9396C33.5158 41.0567 33.5744 41.1702 33.6 41.291C33.6183 41.3716 33.589 41.4631 33.5781 41.5473C33.5781 41.5473 33.5817 41.5473 33.5854 41.5473Z" fill="#F1EDE4"/>
<path d="M74.0093 33.6179C74.4486 33.6179 74.9611 34.4014 74.7818 34.7272C74.7452 34.7967 74.5292 34.859 74.5145 34.8407C74.2802 34.5185 74.0606 34.189 73.8629 33.8485C73.8409 33.8083 73.969 33.6802 74.0093 33.6179Z" fill="#F1EDE4"/>
<path d="M34.9728 30.916C35.0314 30.9819 35.1559 31.0625 35.1998 31.1796C35.3353 31.553 35.1705 31.9155 34.8044 32.0143C34.6726 32.0509 34.431 31.996 34.3688 31.8971C34.2004 31.6372 34.5848 30.9746 34.9765 30.916H34.9728Z" fill="#F1EDE4"/>
<path d="M76.0373 42.0929C76.0629 42.1002 76.1032 42.0966 76.1142 42.1149C76.3082 42.4077 76.3009 42.7079 76.1105 42.9971C76.0922 43.0228 75.997 43.0264 75.9604 43.0045C75.7957 42.8946 75.8213 42.6054 76.0373 42.0929Z" fill="#F1EDE4"/>
<path d="M76.3964 40.8118C76.5172 41.0607 76.6014 41.2181 76.6673 41.3865C76.6746 41.4012 76.5026 41.5073 76.4989 41.5037C76.3964 41.3755 76.2939 41.2438 76.2207 41.101C76.2024 41.068 76.2902 40.9838 76.4001 40.8154L76.3964 40.8118Z" fill="#F1EDE4"/>
<path d="M34.2003 43.6744C34.1125 43.473 34.0466 43.3595 34.021 43.2351C34.01 43.1875 34.0978 43.1216 34.1418 43.063C34.2113 43.1728 34.2992 43.2753 34.3431 43.3925C34.3614 43.4364 34.2845 43.517 34.2003 43.6744Z" fill="#F1EDE4"/>
<path d="M55.5512 19.5048C55.478 19.4462 55.4194 19.395 55.3608 19.3474C55.4267 19.3034 55.489 19.2266 55.5549 19.2266C55.6171 19.2266 55.6793 19.3034 55.7416 19.3474C55.683 19.395 55.6244 19.4462 55.5512 19.5048Z" fill="#F1EDE4"/>
<path d="M74.6903 29.1222C74.3644 29.7409 74.7598 30.0118 74.9868 30.4145C75.5799 31.4616 76.5537 32.3255 76.6635 33.6325C76.6745 33.7753 76.8099 33.9693 76.9417 34.0315C77.6483 34.3757 77.652 34.9834 77.5458 35.6131C77.4396 36.2464 77.3481 36.8944 77.1284 37.4875C76.7477 38.5162 77.0918 39.3326 77.7728 40.0391C78.234 40.5187 78.3329 40.9873 78.1901 41.628C78.0327 42.3309 78.018 43.0704 77.9448 43.7953C77.9229 44.0296 77.9558 44.2712 77.9009 44.4945C77.7654 45.018 77.9155 45.5525 77.8496 46.0467C77.7398 46.9107 78.0327 47.588 78.3512 48.3312C78.7063 49.1622 78.3805 49.9676 77.8753 50.6339C77.5568 51.0549 77.381 51.4649 77.3701 51.9811C77.3664 52.2704 77.2712 52.5596 77.2639 52.8524C77.2529 53.4785 77.0003 53.98 76.55 54.3974C76.1473 54.7708 75.8617 55.1771 76.0558 55.7885C76.118 55.9862 76.0851 56.301 75.9606 56.4585C75.4737 57.0735 74.9612 57.6739 74.401 58.223C74.2583 58.3622 73.8556 58.4061 73.6725 58.3072C73.16 58.0327 72.7756 58.223 72.3875 58.5159C72.0287 58.7868 71.6553 58.9882 71.1794 58.9479C71.0513 58.9369 70.8792 58.9955 70.7913 59.0834C69.9859 59.8924 68.9426 60.1487 67.8846 60.3683C67.4855 60.4525 67.0755 60.5038 66.6691 60.5514C66.3103 60.5953 65.9955 60.6759 65.7649 61.0017C65.5159 61.3495 65.1425 61.3751 64.7361 61.3202C64.0186 61.2213 63.2937 61.1371 62.5725 61.0859C62.287 61.0676 61.9611 61.0822 61.7159 61.203C61.1228 61.5032 60.5297 61.43 59.9147 61.3788C59.49 61.3458 59.058 61.4081 58.6297 61.4447C58.3734 61.4666 58.0769 61.6314 57.8682 61.5508C57.18 61.2799 56.5063 61.3971 55.8108 61.43C55.3605 61.452 54.8919 61.2763 54.4452 61.1445C54.0645 61.031 53.7423 60.9175 53.4348 61.3239C53.3213 61.474 53.0211 61.5289 52.8015 61.5435C52.1901 61.5801 51.5751 61.5911 50.96 61.5765C49.9679 61.5508 49.0124 61.4264 48.1631 60.8003C47.7787 60.5185 47.2478 60.4306 46.7829 60.2585C46.706 60.2292 46.5998 60.2146 46.5303 60.2439C45.5052 60.7052 44.5497 60.3793 43.5759 60.0425C43.3562 59.9656 43.0487 59.973 42.84 60.0682C42.0932 60.4123 41.4416 60.3025 40.7753 59.8485C40.5263 59.6801 40.1785 59.6435 39.871 59.5849C38.802 59.3836 38.3078 58.9186 38.0735 57.8533C37.9673 57.37 37.4877 56.9527 36.9093 57.0076C36.1552 57.0772 35.6939 56.7184 35.2948 56.1656C35.0532 55.8361 34.8006 55.5139 34.5407 55.1954C34.1673 54.7305 34.0648 54.2363 34.4711 53.764C34.7311 53.4602 34.7347 53.1636 34.5407 52.8854C34.0941 52.2484 33.7939 51.4832 33.036 51.1025C32.637 50.9048 32.4137 50.5424 32.3771 50.1214C32.3295 49.5429 32.2709 48.9425 32.3771 48.3788C32.5857 47.2512 32.3771 46.1639 32.2306 45.0656C32.216 44.9521 32.1904 44.8057 32.1135 44.7434C31.2019 44.0076 31.3813 42.9349 31.5351 42.071C31.8206 40.4821 31.5936 38.9299 31.5424 37.3703C31.5021 36.1695 31.6925 35.1078 32.3734 34.1414C32.5821 33.8448 32.7285 33.5886 32.7029 33.1932C32.6809 32.8674 32.875 32.5232 32.9701 32.1901C33.1825 31.4689 33.4534 30.7733 33.2227 29.9752C33.0836 29.492 33.2337 28.9977 33.6584 28.6243C33.922 28.3937 34.1197 28.0971 34.365 27.8445C34.8482 27.3466 35.1594 27.2954 35.7451 27.6871C36.0197 27.8702 36.2247 27.9397 36.5322 27.764C36.9349 27.537 37.2498 27.2551 37.3633 26.8048C37.3889 26.7023 37.2718 26.5412 37.1912 26.4351C36.913 26.0763 36.9642 25.7139 37.1912 25.3771C37.4511 24.989 37.733 24.6119 38.0296 24.2531C38.5165 23.6674 39.0327 23.1073 39.5232 22.5288C39.8564 22.1371 40.2518 21.8626 40.7643 21.7564C40.9913 21.7088 41.2329 21.6612 41.4306 21.5441C41.7601 21.3464 42.0896 21.0791 41.9028 20.6325C41.7235 20.1968 41.9138 19.9003 42.1591 19.5964C42.8437 18.7434 43.7333 18.198 44.7767 17.927C45.6077 17.711 46.3948 17.1619 47.332 17.5426C47.5187 17.6195 47.7896 17.4804 48.0203 17.4658C48.5365 17.4365 49.0563 17.4328 49.5762 17.3962C49.7592 17.3852 49.9386 17.312 50.1217 17.2681C50.0631 17.1216 50.0301 16.9606 49.9423 16.8361C49.6348 16.3968 49.6421 15.9867 50.1217 15.6463C50.7477 15.2033 51.3481 14.7603 51.7874 14.116C51.8826 13.9769 52.1315 13.922 52.3182 13.8744C52.677 13.7792 53.0614 13.7499 53.4055 13.6218C53.7204 13.5046 53.9364 13.4936 54.1816 13.7646C54.4855 14.1014 54.6722 14.0721 54.8845 13.7316C54.8992 13.706 54.9138 13.6804 54.9285 13.6547C55.0713 13.3802 55.1591 12.9518 55.3751 12.8676C55.657 12.7578 56.0487 12.9042 56.3855 12.9775C56.8432 13.0726 57.3008 13.1825 57.7437 13.3252C57.9817 13.4021 58.2343 13.5266 58.41 13.7023C58.8237 14.105 58.853 14.2734 58.5052 14.7603C58.194 15.196 58.1464 15.5987 58.4247 16.0453C58.637 16.3895 58.853 16.4114 59.047 16.0526C59.3985 15.401 60.0245 15.4413 60.5737 15.4889C61.0606 15.5328 61.4779 15.7964 61.6207 16.3968C61.7085 16.7702 61.9904 17.107 62.2138 17.4401C62.3419 17.6342 62.5835 17.7623 62.6677 17.9673C62.8947 18.5018 63.2498 18.7837 63.8356 18.8789C64.3042 18.9558 64.5897 19.2706 64.586 19.8088C64.586 20.1236 64.6702 20.4458 64.7471 20.757C64.8899 21.3134 65.1169 21.3793 65.6843 21.1963C65.9662 21.1047 66.3177 21.1011 66.5996 21.1853C67.4123 21.4306 68.009 21.998 68.5252 22.6497C69.0231 23.2757 69.0268 23.3013 69.737 23.067C70.2312 22.9023 70.5937 23.0743 70.9231 23.4002C71.3808 23.8505 71.8201 24.3191 72.285 24.762C72.7573 25.2123 73.0501 25.7358 72.9842 26.3948C72.9367 26.8341 73.127 27.105 73.4419 27.3613C73.7128 27.581 73.9983 27.8116 74.1887 28.0971C74.4084 28.4193 74.5292 28.8037 74.6756 29.1185L74.6903 29.1222ZM62.6348 49.8175C62.6933 49.8139 62.7592 49.8248 62.8068 49.7992C63.3743 49.4697 63.3779 49.4404 62.9716 48.9975C62.8544 48.8693 62.7263 48.7485 62.6165 48.6094C62.2028 48.0895 61.9355 47.5148 61.9831 46.8082C62.492 48.203 63.5573 49.0341 64.7728 49.726C64.824 49.7553 64.8679 49.7919 64.9155 49.8285C65.0986 49.9566 65.3073 50.0445 65.4207 49.7882C65.4647 49.6894 65.3731 49.4551 65.2706 49.3855C64.5018 48.8547 63.9271 48.1664 63.55 47.3208C63.3706 46.9144 63.1656 46.4934 63.2864 45.9259C63.6964 46.6362 64.0076 47.2915 64.425 47.8736C64.857 48.4813 65.3695 49.0451 66.3653 49.1549C65.9076 48.5399 65.5635 48.0493 65.1901 47.577C64.3591 46.5227 64.2016 45.3621 64.586 44.0991C64.6885 43.766 64.7764 43.4219 64.835 43.0777C64.8899 42.7592 64.7581 42.5798 64.3957 42.6238C63.788 42.697 63.1766 42.7482 62.5652 42.8068C61.7122 42.8873 61.1338 43.2717 61.0239 44.1906C60.9983 44.392 60.9507 44.6043 60.8482 44.7764C60.376 45.5781 60.581 46.3506 60.8958 47.134C61.3022 48.1518 61.9538 49.0121 62.6567 49.8395C62.1076 49.7736 61.7891 49.3819 61.4889 48.9865C60.8775 48.1847 60.4821 47.2805 60.2552 46.2957C60.2259 46.1639 60.0721 45.9662 59.9696 45.9625C59.5925 45.9552 59.1825 46.3726 59.1532 46.724C59.0507 48.042 60.5627 50.1726 61.8513 50.5168C61.9062 50.5314 61.9648 50.5424 62.0234 50.5534C62.7116 50.6778 62.7995 50.5753 62.6348 49.8175ZM45.0403 55.3675L45.216 55.3785C45.2856 55.5359 45.3771 55.686 45.4173 55.8471C45.7505 57.1577 46.9476 57.9558 48.2509 57.824C49.3236 57.7142 50.4072 57.6922 51.4835 57.5787C52.3255 57.4872 53.0358 57.6812 53.6691 58.2523C53.9949 58.5452 54.3464 58.8454 54.7418 59.0065C55.4923 59.3103 56.2684 59.5703 57.0555 59.7387C57.4948 59.8302 57.6303 59.6105 57.6083 59.1712C57.601 59.0541 57.579 58.9369 57.5424 58.8271C57.3227 58.2047 57.8792 58.4354 58.1062 58.2743C58.5235 57.9741 58.421 58.3292 58.4979 58.5086C58.8896 59.4275 59.6035 59.519 60.1966 58.7356C60.2478 58.666 60.3137 58.6001 60.3503 58.5232C60.4858 58.2157 60.6579 58.2523 60.8922 58.4207C61.1045 58.5708 61.3388 58.7356 61.5841 58.7832C61.9172 58.8454 62.287 58.8637 62.6165 58.7905C62.9716 58.7099 62.8984 58.3365 62.9496 58.0546C63.0082 57.7398 63.2315 57.6776 63.4219 57.9594C63.733 58.4244 64.1687 58.4464 64.6446 58.4793C65.3512 58.5306 65.9699 58.3292 66.5556 57.9521C67.0279 57.6483 67.5148 57.3883 68.1079 57.425C68.7192 57.4652 69.2281 57.2236 69.748 56.9088C70.158 56.6598 70.6632 56.4694 71.1318 56.4475C71.9995 56.4072 72.4314 55.9203 72.7792 55.2247C73.2552 54.2802 73.2442 53.2405 73.4272 52.2374C73.4968 51.8713 73.4675 51.4759 73.4126 51.1025C73.3833 50.8938 73.2515 50.6046 73.0868 50.5387C72.9476 50.4801 72.6841 50.6669 72.5047 50.784C72.3106 50.9121 72.1532 51.0879 71.9775 51.2416C71.9189 51.183 71.864 51.1245 71.8054 51.0696C72.047 50.7584 72.2557 50.4106 72.5449 50.1543C72.7133 50.0042 73.0648 49.8871 73.2515 49.964C73.7567 50.1726 73.9031 49.8907 73.9873 49.5246C74.2253 48.4996 74.4706 47.4745 74.6463 46.4385C74.7122 46.0504 74.6536 45.6074 74.5292 45.2304C74.196 44.209 74.1301 43.1656 74.1448 42.1076C74.1521 41.3754 74.1667 40.6432 74.1521 39.911C74.1411 39.479 74.0825 39.047 73.6725 38.7139C73.5114 39.0397 73.4016 39.3436 73.2222 39.5962C73.127 39.7316 72.9074 39.7865 72.7463 39.8744C72.7207 39.7133 72.6731 39.5559 72.6731 39.3948C72.6731 38.9299 72.7573 38.4576 72.6914 38.0036C72.5742 37.2165 72.2887 37.0701 71.5052 37.2458C71.4064 37.2678 71.2233 37.2532 71.205 37.2092C71.1611 37.0884 71.1318 36.8578 71.1904 36.8212C71.4723 36.6418 71.7725 36.4587 72.0946 36.3782C72.5706 36.261 72.6877 36.1988 72.49 35.7851C72.2667 35.3202 71.9885 34.8443 71.6187 34.4928C70.9268 33.8375 70.374 33.12 69.9859 32.2413C69.7663 31.7434 69.3709 31.3261 69.0341 30.8868C68.8877 30.6964 68.7485 30.7367 68.6607 30.971C68.6204 31.0735 68.5362 31.1577 68.3568 31.4176C68.3532 30.3413 67.6722 29.8544 67.0828 29.1698C67.3171 29.1698 67.4233 29.1588 67.5221 29.1698C67.9944 29.2284 68.0493 29.1771 67.9029 28.7781C67.8626 28.6683 67.815 28.5584 67.7564 28.4596C67.0462 27.2771 65.8967 26.5449 64.8789 25.6809C64.813 25.626 64.7215 25.6077 64.641 25.5711C63.7367 25.1281 62.8032 25.3734 61.8769 25.4649C61.6646 25.4869 61.5621 25.626 61.7049 25.831C62.3272 26.7133 62.8691 27.6542 63.744 28.3388C64.1541 28.6609 64.5641 29.0343 64.824 29.4737C65.2084 30.118 65.6074 30.7806 65.0254 31.597C64.5751 32.234 64.8496 32.6294 65.6294 32.677C66.0138 32.6989 66.4165 32.5598 66.8192 32.7612C66.563 33.1602 66.2957 33.4787 66.131 33.8448C65.8051 34.5624 66.2554 35.408 66.9913 35.5508C67.2585 35.6021 67.4379 35.5508 67.5258 35.2579C67.6246 34.9431 67.7601 34.6393 67.8809 34.3281C68.053 34.8223 67.9834 35.3202 68.1555 35.7119C68.3312 36.1146 68.7449 36.4111 69.0414 36.7626C69.0853 36.8175 69.1146 36.9566 69.078 36.9932C69.0085 37.0701 68.895 37.1433 68.7961 37.147C68.247 37.158 67.9907 36.7553 67.7088 36.3745C67.4526 36.0231 66.9547 35.9975 66.6618 36.2867C66.2737 36.6711 66.0614 38.4869 66.4971 38.9628C66.8668 39.3692 67.1267 39.3728 67.4526 38.8859C67.6356 38.6114 67.6869 38.2343 68.031 38.0696C68.3165 38.4503 68.2799 38.7981 68.0859 39.1642C67.8443 39.6218 67.7784 40.1087 67.9468 40.6102C68.1701 41.2802 68.4374 41.3717 69.0744 41.0239C69.1659 40.9727 69.2867 40.969 69.3929 40.9471C69.4148 41.0825 69.4844 41.2326 69.4478 41.3534C69.4002 41.5145 69.2977 41.6829 69.1695 41.7891C68.8877 42.016 68.9426 42.1991 69.1439 42.4444C69.3746 42.7189 69.5869 43.0265 69.4551 43.5207C69.2464 43.2717 69.111 43.0814 68.9499 42.9203C68.7009 42.6714 68.4227 42.3529 68.0493 42.5139C67.6246 42.697 67.6869 43.1509 67.7418 43.5244C67.7857 43.8392 67.8846 44.1504 67.9907 44.4542C68.1225 44.813 68.1079 45.04 67.782 45.3585C67.0791 46.0431 66.6508 46.9071 66.5373 47.9138C66.4934 48.3092 66.5776 48.6094 66.9034 48.8254C67.2036 49.0231 67.4562 48.8876 67.6942 48.679C68.053 48.3641 68.4154 48.0566 68.7742 47.7527C68.7851 47.7857 68.8327 47.8443 68.8218 47.8845C68.5765 48.6973 68.5472 49.4331 69.3672 49.9823C69.5759 50.1214 69.4002 50.3337 69.2171 50.3447C69.0378 50.3557 68.7339 50.2861 68.6826 50.1726C68.3898 49.4624 67.8846 49.3123 67.2 49.499C67.1231 49.521 67.0242 49.4441 66.9437 49.4551C66.7277 49.488 66.4788 49.488 66.3103 49.6015C65.6441 50.0482 65.6038 50.2275 65.8857 51.0256C66.1969 51.9116 65.8747 52.3765 64.9375 52.3838C64.0625 52.3912 62.8691 53.4126 62.7629 54.2472C62.7043 54.7085 62.9203 54.9282 63.367 54.822C63.9344 54.6829 64.3664 54.3607 64.641 53.8299C64.7325 53.6505 64.8533 53.4894 64.9595 53.321C64.9595 54.2619 64.414 54.8916 63.572 55.0856C62.913 55.2394 62.5579 55.0819 62.3822 54.423C62.2833 54.0496 62.0746 53.8555 61.7635 53.764C61.3754 53.6469 60.9654 53.537 60.5663 53.537C59.7865 53.537 59.523 53.8738 59.5449 54.6829C59.5449 54.7451 59.468 54.8074 59.3655 54.9648C59.2045 54.6683 59.091 54.4413 58.9628 54.2253C58.6297 53.6652 58.2453 53.1453 57.6412 52.8561C56.9383 52.5193 56.5027 52.7719 56.4295 53.537C56.4112 53.7421 56.4002 53.9471 56.3855 54.1557C56.0597 53.8079 55.873 53.4492 55.6863 53.0904C55.4264 52.5852 54.9907 52.4131 54.4526 52.4131C53.973 52.4131 53.735 52.739 53.5044 53.0904C53.4385 53.1892 53.2957 53.2405 53.1859 53.3137C53.131 53.1856 53.0138 53.0428 53.0394 52.933C53.1017 52.6584 53.2298 52.3985 53.336 52.1349C53.3982 51.9811 53.5227 51.8237 53.5117 51.6736C53.4824 51.2599 52.9516 50.751 52.5196 50.6668C51.9558 50.557 51.5787 50.7254 51.2712 51.238C51.2126 51.3368 51.1907 51.4649 51.1174 51.5528C51.0515 51.6333 50.9051 51.7432 50.8502 51.7175C50.7404 51.6663 50.6269 51.5455 50.5903 51.4283C50.5463 51.2965 50.5903 51.1391 50.5829 50.9927C50.561 50.125 49.6494 49.3782 48.833 49.6198C48.606 49.6857 48.4486 49.9969 48.2619 50.1982C48.412 50.3154 48.5438 50.4801 48.7159 50.5424C49.3712 50.7803 49.9203 51.1428 50.2644 51.7651C50.6342 52.4314 50.5976 53.1929 50.1876 53.6615C49.7922 54.1155 49.0161 54.229 48.3132 53.9141C47.742 53.6578 47.2771 53.2661 46.9293 52.7353C46.8524 52.6218 46.6145 52.4754 46.5522 52.5156C46.0946 52.7975 46.0873 52.4204 45.9738 52.1642C45.5674 51.2489 45.2197 50.2678 43.9347 50.3154C43.8798 50.3154 43.7772 50.2202 43.7699 50.158C43.7589 50.0884 43.8139 49.9603 43.8688 49.942C44.1104 49.8541 44.3667 49.7992 44.6156 49.7296C45.0696 49.5979 45.4649 48.9938 45.4247 48.4959C45.3917 48.0603 45.1355 47.8955 44.4435 47.8626C44.0042 47.8431 43.6857 48.0493 43.488 48.4813C43.4038 48.668 43.3196 48.8583 43.2098 49.0268C42.9792 49.3819 42.7229 49.715 42.1262 49.8102C42.4044 49.2098 42.646 48.7485 42.8327 48.2653C43.2464 47.1926 43.0817 46.929 41.9687 46.7972C41.9431 46.7972 41.9211 46.7679 41.8955 46.7533C42.2287 46.0907 42.8364 45.9259 43.3233 46.4128C43.5796 46.6691 43.6747 47.1707 43.9603 47.2878C44.2934 47.4306 44.7547 47.2768 45.1574 47.2622C45.2416 47.2622 45.3258 47.3098 45.41 47.3281C46.1752 47.5001 46.7353 47.145 46.8854 46.3836C47.0245 45.6843 46.8085 45.1095 46.2118 44.7032C45.8054 44.4249 45.5125 44.1064 45.6736 43.5646C45.7468 43.5719 45.7834 43.5646 45.8054 43.5756C45.853 43.6086 45.8933 43.6488 45.9372 43.6854C46.4058 44.1064 46.5376 44.1174 46.9257 43.6891C47.4382 43.1253 47.7054 42.448 47.7054 41.6939C47.7054 41.2692 47.6652 40.8116 47.5041 40.4272C47.2625 39.8488 46.7792 39.8488 46.4571 40.3759C46.3216 40.5956 46.2264 40.8336 46.0763 41.1374C46.0251 40.138 46.2045 39.8012 46.9952 39.5486C47.3174 39.4461 47.4126 39.2996 47.4089 38.9994C47.3979 38.3478 47.2368 37.751 46.7975 37.2165C47.0758 37.2715 47.2954 37.4252 47.537 37.4582C47.991 37.5167 48.4706 37.5973 48.9062 37.5058C49.5139 37.3776 49.664 36.92 49.3821 36.3599C49.3309 36.2574 49.243 36.1695 49.1991 36.0634C49.0929 35.8217 48.6792 35.6277 48.9758 35.3458C49.049 35.2726 49.459 35.5398 49.708 35.6643C49.7812 35.7009 49.8398 35.7815 49.891 35.851C50.2278 36.3379 50.6525 36.1585 51.0698 36.0121C51.5055 35.8583 51.7178 35.5801 51.6739 35.0786C51.6263 34.5514 51.6629 34.0169 51.6629 33.4604C51.9961 33.5995 52.2816 33.7533 52.5855 33.8375C53.5007 34.0901 54.1926 33.6581 54.394 32.7356C54.4379 32.5342 54.4745 32.3329 54.5148 32.1315C54.7052 31.176 54.804 31.0918 55.7961 31.2346C56.1036 31.2785 56.2428 31.1687 56.305 30.9124C56.4404 30.3267 56.4844 29.7043 56.1659 29.1991C55.5838 28.2655 55.4557 27.3137 55.7522 26.2777C55.7559 26.2593 55.7229 26.2301 55.6497 26.1202C55.3092 26.2813 54.9614 26.4753 54.5953 26.6145C54.1084 26.8012 53.6142 27.0501 53.109 27.0831C51.4176 27.2039 49.9862 27.8043 48.9099 29.1332C48.6024 29.5103 48.2326 29.7006 47.764 29.6311C46.8524 29.492 46.3619 30.0924 45.9043 30.7037C45.8091 30.8319 45.8859 31.1394 45.9665 31.3298C46.0068 31.4286 46.2374 31.4945 46.3765 31.4872C46.6584 31.4689 46.9476 31.3444 47.1197 31.5384C46.5486 32.1022 45.9958 32.6514 45.443 33.1968C45.3807 33.2591 45.3405 33.3469 45.2709 33.3945C45.1574 33.4677 45.0293 33.519 44.9048 33.5776C44.8682 33.4202 44.762 33.2334 44.8096 33.1053C44.9085 32.8381 45.0842 32.5964 45.238 32.3512C45.3441 32.1791 45.5308 32.029 45.5711 31.846C45.615 31.6373 45.615 31.3371 45.4942 31.1943C45.3807 31.0588 45.0549 30.9966 44.8755 31.0552C44.5827 31.1504 44.2715 31.3224 44.0811 31.5567C43.5649 32.1901 43.1 32.8637 42.6277 33.5336C42.1847 34.1597 41.9834 34.8406 42.236 35.6057C42.2616 35.6863 42.214 35.7924 42.1957 35.9206C41.7967 35.7229 42.0603 35.0053 41.5148 35.1188C41.167 35.192 40.8522 35.4739 40.5483 35.7009C40.3909 35.8181 40.2408 35.9938 40.1712 36.1768C39.7465 37.2934 39.267 38.3881 39.2706 39.6291C39.2779 41.2948 39.2157 42.9606 39.1571 44.6263C39.1462 44.9668 39.1059 45.3805 38.9119 45.6257C38.4396 46.2225 38.3627 46.8851 38.3371 47.599C38.3261 47.9102 38.209 48.225 38.0955 48.5215C37.9051 49.0194 37.9161 49.4917 38.1797 49.9566C38.2785 50.1324 38.3554 50.4069 38.5018 50.4509C38.6409 50.4911 38.8496 50.2934 39.1242 50.1507C38.9119 51.4064 39.5635 51.9811 40.5593 52.3143C40.7936 52.3912 41.0096 52.5193 41.3281 52.6657C40.929 52.9183 40.6728 52.7463 40.4055 52.6877C40.2481 52.6547 39.9662 52.6401 39.9259 52.7133C39.8491 52.8671 39.8674 53.0867 39.904 53.2698C39.9296 53.4016 40.0284 53.5444 40.1346 53.6286C40.8668 54.207 41.61 54.7744 42.3531 55.3419C42.4227 55.3931 42.5106 55.4554 42.5874 55.4517C43.2318 55.4224 43.7736 55.697 44.3154 55.9972C44.5827 56.1473 44.8279 56.107 44.9121 55.7409C44.9414 55.6128 44.9963 55.4883 45.0366 55.3602L45.0403 55.3675ZM56.8432 20.5373C56.8358 20.5153 56.8285 20.4934 56.8248 20.4714C57.1324 20.4934 57.4435 20.4897 57.7511 20.5373C58.1135 20.5959 58.4357 20.6142 58.7139 20.2993C59.1788 19.7722 59.7865 19.7575 60.4162 19.9003C60.8153 19.9882 61.2033 20.1236 61.6024 20.2041C61.9868 20.281 62.3455 20.3945 62.5615 20.7496C62.7043 20.9803 62.8691 21.0498 63.1473 20.9729C63.3962 20.9034 63.6745 20.9437 63.9234 20.8741C64.0369 20.8412 64.1943 20.6618 64.1907 20.5519C64.1724 19.9699 63.949 19.7429 63.3194 19.7099C62.8581 19.688 62.459 19.5562 62.3858 19.0912C62.2833 18.4432 61.9611 17.971 61.5182 17.5207C61.3241 17.323 61.2033 17.0265 61.1191 16.7519C60.9983 16.3638 60.7604 16.1039 60.376 16.1368C59.9733 16.1735 59.4937 16.0856 59.263 16.6311C59.0251 17.1948 58.7102 17.7257 58.4174 18.2675C58.2746 18.5274 58.1355 18.6922 57.8243 18.3847C57.3044 17.8721 56.6455 17.6342 55.9169 17.6635C55.2177 17.6891 54.5221 17.755 53.8265 17.8392C53.4421 17.8868 53.0687 17.9673 52.7466 17.6744C52.5086 17.4621 52.2743 17.5463 52.0144 17.6415C51.0881 17.9783 50.1436 18.2639 49.232 18.6299C48.4303 18.9484 47.5187 19.0327 46.8707 19.7172C46.7499 19.8417 46.4314 19.8271 46.2154 19.8051C45.7212 19.7502 45.3405 19.893 45.1208 20.3469C44.8645 20.8704 44.4618 21.1413 43.8871 21.1999C43.6564 21.2219 43.4112 21.2622 43.2061 21.361C42.9572 21.4818 42.6533 21.6319 42.5472 21.8516C42.474 22.0017 42.7009 22.2982 42.7851 22.5105C42.3641 22.7192 41.9468 22.9206 41.5294 23.1329C41.1707 23.3123 41.0023 23.5466 41.1853 23.9822C41.2585 24.158 41.2256 24.4692 41.1084 24.6156C40.8448 24.9487 40.5044 25.2196 40.1676 25.5381C39.9113 25.1025 40.1859 24.9121 40.3396 24.6815C40.4604 24.4948 40.6874 24.2385 40.6362 24.0994C40.4055 23.499 40.6874 23.067 41.0938 22.6277C40.4897 22.4776 40.0797 22.6387 39.7685 23.045C39.1828 23.8138 38.6043 24.5863 38.0259 25.3624C37.7916 25.6773 37.7147 25.9994 37.755 26.4204C37.7916 26.8195 37.6305 27.2588 37.4731 27.6469C37.4035 27.8226 37.1363 27.9324 36.9423 28.0386C36.4297 28.3131 36.0124 28.628 36.0746 29.3089C36.0929 29.4993 35.9904 29.708 35.9172 29.8983C35.8952 29.9569 35.7817 30.0265 35.7268 30.0155C35.6719 30.0045 35.595 29.891 35.6024 29.8288C35.617 29.6567 35.6756 29.4883 35.7049 29.3162C35.7525 29.06 35.8806 28.7744 35.811 28.5511C35.7342 28.3058 35.5035 28.0788 35.2802 27.9324C35.2143 27.8885 34.9178 28.1338 34.7786 28.2948C34.5919 28.5145 34.4821 28.8037 34.2881 29.0124C34.0428 29.2686 34.0099 29.4993 34.2039 29.7885C34.4016 30.085 34.4052 30.3889 34.2149 30.6964C33.6987 31.5348 33.468 32.4463 33.4058 33.4275C33.3838 33.7862 33.2191 34.167 33.0287 34.4818C32.4503 35.441 32.1611 36.4404 32.3185 37.5717C32.3697 37.9341 32.2599 38.3221 32.2123 38.6992C32.1867 38.9006 32.1098 39.0983 32.1208 39.296C32.1245 39.3911 32.2672 39.5046 32.3771 39.5559C32.5382 39.6364 32.7175 39.6694 32.8896 39.7243C32.7944 39.8964 32.7468 40.1343 32.604 40.2332C31.8499 40.7457 31.8279 41.5694 31.8975 42.2833C31.9561 42.8727 31.978 43.6378 32.7358 43.9563C33.0507 44.0881 33.0543 44.3737 32.9189 44.6263C32.7029 45.0253 32.7761 45.4097 32.8676 45.8198C32.9372 46.1309 32.9701 46.4531 32.9921 46.7753C33.0507 47.7088 33.0726 48.646 33.1605 49.5795C33.1898 49.8724 33.3069 50.2934 33.5229 50.4142C34.2991 50.8462 34.6286 51.6187 35.0752 52.285C35.4669 52.8634 35.5401 53.537 35.0788 54.1777C34.9983 54.2912 34.9361 54.5328 34.9983 54.617C35.3827 55.1332 35.7891 55.6311 36.2174 56.107C36.3602 56.2681 36.5981 56.312 36.7153 56.0375C36.8947 55.6274 37.0228 55.8617 37.1875 56.0484C37.5061 56.4035 37.8246 56.7623 38.3993 56.9197C38.3517 56.6891 38.3298 56.5793 38.3041 56.4694C38.1504 55.7299 38.0808 54.9611 37.334 54.4962C37.2022 54.412 37.1253 54.1374 37.1326 53.9507C37.1619 53.116 36.924 52.4754 36.0673 52.1788C35.5218 51.9884 35.2692 51.6004 35.4157 51.0146C35.5108 50.6266 35.4047 50.3227 35.0569 50.1141C34.6688 49.8834 34.6286 49.5649 34.7054 49.1366C34.786 48.6863 34.9287 48.0895 34.7201 47.7747C34.138 46.8961 34.6139 46.1419 34.797 45.3438C34.8226 45.2377 34.9946 45.1681 35.0972 45.0803C35.1191 45.2011 35.174 45.3329 35.1521 45.4464C35.0788 45.7868 34.958 46.12 34.8848 46.4641C34.8372 46.6874 34.7457 47.0169 34.8519 47.134C35.3571 47.6905 35.196 48.2397 34.9873 48.8437C34.8482 49.2391 34.9763 49.5979 35.4266 49.7516C35.9941 49.942 36.1918 50.352 36.1112 50.9158C36.06 51.2856 36.2284 51.4649 36.5176 51.6919C37.1473 52.1898 37.5134 52.8817 37.5024 53.7128C37.5024 53.9434 37.4951 54.1228 37.7513 54.1887C38.4982 54.3827 38.6885 54.9575 38.813 55.6274C38.8716 55.9533 38.9887 56.4035 39.2267 56.5353C39.9845 56.9637 40.8082 57.2822 41.6173 57.6153C41.8809 57.7252 41.9944 57.5787 41.9102 57.2932C41.8809 57.198 41.9065 57.0845 41.9065 56.8026C42.2543 57.1687 42.4447 57.5092 42.7266 57.6336C43.1952 57.8386 43.5576 58.0217 43.4954 58.6294C43.4807 58.7539 43.6711 58.9113 43.7809 59.0394C44.2202 59.5446 44.8829 59.3433 45.4173 59.5483C45.7249 59.6655 45.8786 59.4055 46.1056 59.2957C46.2777 59.2115 46.5632 59.2408 46.7499 59.325C47.4126 59.6252 48.0496 59.9876 48.7122 60.2915C48.8733 60.3647 49.1698 60.3976 49.2687 60.3061C49.5579 60.0352 49.6714 60.1414 49.88 60.3976C50.0008 60.5477 50.2791 60.6209 50.4914 60.6319C51.1614 60.6612 51.835 60.6539 52.5086 60.6319C52.644 60.6283 52.7722 60.4782 52.904 60.394C52.7978 60.3134 52.699 60.2109 52.5818 60.156C52.2121 59.9876 51.7398 60.0352 51.392 59.6435C52.1608 59.4861 53.2444 59.552 53.9693 59.8046C54.5404 60.0023 55.1042 60.2329 55.6753 60.4306C55.7632 60.4599 55.8876 60.394 55.9938 60.3683C55.9462 60.2732 55.9243 60.1304 55.851 60.0938C55.5106 59.9327 55.1591 59.7972 54.8077 59.6655C54.2329 59.4531 53.6288 59.3067 53.087 59.0358C52.5562 58.7685 52.051 58.7026 51.4799 58.8161C51.1431 58.882 50.788 58.8893 50.4475 58.8637C49.6604 58.8088 48.8769 58.699 48.0898 58.655C47.5077 58.6221 46.9806 58.4756 46.5815 58.051C45.9885 57.4176 45.2929 57.1687 44.4435 57.3481C43.9676 57.4469 43.5905 57.2932 43.2647 56.938C43.0707 56.7257 42.8583 56.4914 42.6057 56.3816C41.1597 55.7409 39.9333 54.8074 38.9228 53.6102C37.7806 52.252 37.0777 50.6485 37.0887 48.873C37.096 47.5441 37.2754 46.1932 37.7916 44.9228C37.9197 44.6043 37.9856 44.2456 37.9966 43.9014C38.0515 42.4114 38.1321 40.9251 38.4359 39.4644C38.5897 38.7249 38.824 38.0037 39.04 37.2788C39.1132 37.0262 39.2816 36.7992 39.3255 36.5466C39.483 35.6607 40.0467 35.1188 40.7753 34.6649C41.4892 34.2182 42.1664 33.7167 42.5618 32.9259C42.7705 32.5086 42.9901 32.0912 43.2574 31.7105C43.5246 31.3334 43.7919 30.8319 44.1726 30.6854C45.0659 30.3486 45.7505 29.7812 46.4827 29.2064C47.0099 28.7927 47.5517 28.4083 47.9983 27.9068C49.038 26.7426 50.1656 25.7724 51.7215 25.2526C54.3281 24.3849 56.942 24.2861 59.5998 24.7437C60.3357 24.8718 61.0386 24.9524 61.7635 24.762C62.1881 24.6522 62.6165 24.5277 63.0521 24.4984C63.5061 24.4692 63.993 24.4655 64.425 24.5863C65.1864 24.7986 65.915 25.1098 66.4202 25.7871C66.5739 25.9921 66.8046 26.1495 67.0133 26.3069C67.9834 27.0318 68.6607 27.958 68.9828 29.1332C69.1732 29.8288 69.5576 30.3852 70.1104 30.8685C70.4948 31.2053 70.7547 31.6849 71.0732 32.1022C71.4613 32.6074 71.7981 33.1639 72.2484 33.6069C72.9623 34.3098 73.4785 35.0786 73.6286 36.0853C73.6871 36.4844 73.8006 36.9054 74.0093 37.2422C74.7708 38.454 75.0856 39.7426 74.9685 41.174C74.8696 42.3785 75.049 43.5536 75.4737 44.7068C75.6897 45.2926 75.7153 45.9662 75.7117 46.6032C75.7043 47.7711 75.2906 48.84 74.7378 49.8541C74.4852 50.3154 74.434 50.7474 74.5218 51.2782C74.6756 52.2301 74.7781 53.2259 74.3571 54.1264C74.0532 54.7818 73.581 55.3638 73.16 55.9569C72.7792 56.4914 72.2594 56.7843 71.5784 56.7111C71.2746 56.6781 71.0293 56.7404 70.784 56.9637C70.4655 57.2565 70.0958 57.5092 69.7114 57.7142C69.3855 57.8899 69.0158 58.0583 68.657 58.0729C67.9614 58.1059 67.3391 58.2816 66.746 58.6367C65.9479 59.1163 65.0913 59.2335 64.2163 58.8967C63.8392 58.7502 63.6415 58.8417 63.4145 59.1493C63.107 59.5703 62.6274 59.6545 62.1479 59.5703C61.8111 59.508 61.4962 59.3323 61.1631 59.2225C61.0349 59.1786 60.8116 59.12 60.7787 59.1676C60.6505 59.3506 60.4858 59.5922 60.5187 59.7826C60.5517 59.962 60.8116 60.2292 60.9727 60.2292C61.844 60.2292 62.7226 60.2256 63.5793 60.0901C64.0296 60.0206 64.4469 60.1231 64.8533 60.0901C65.234 60.0572 65.5818 59.6947 66.0468 59.6655C66.7167 59.6215 67.3976 59.5483 68.0383 59.3653C68.9206 59.109 69.8688 58.9552 70.5461 58.2157C70.6449 58.1096 70.8939 58.0034 70.989 58.0546C71.3954 58.2706 71.6407 58.0217 71.9372 57.8313C72.4022 57.5311 72.8927 57.2675 73.3723 56.9856C73.57 56.8685 73.7311 56.7733 73.7897 57.1357C73.8519 57.5311 74.0606 57.4323 74.2619 57.2199C74.3827 57.0955 74.5072 56.9673 74.628 56.8429C74.9721 56.4914 75.4151 56.1876 75.0234 55.5835C74.9538 55.4773 75.0271 55.2284 75.1113 55.0856C75.3419 54.6829 75.6091 54.3022 75.8654 53.9141C76.0411 53.6505 76.3267 53.4016 76.3706 53.1197C76.5317 52.069 76.6159 51.0037 76.7331 49.909C76.96 49.8285 77.3151 50.2092 77.5348 49.7663C77.7691 49.2903 77.8277 48.8217 77.5787 48.3385C77.4579 48.1042 77.3042 48.0566 77.1101 48.2726C77.0332 48.3605 76.9527 48.4593 76.8539 48.5069C76.7587 48.5545 76.5646 48.5911 76.5354 48.5472C76.4658 48.4483 76.4036 48.2689 76.4475 48.1701C76.6049 47.826 76.8392 47.5148 76.982 47.167C77.0991 46.8851 77.2676 46.5117 77.176 46.2701C76.8941 45.5269 76.9198 44.8313 77.0991 44.0698C77.2968 43.2205 77.3371 42.3346 77.4616 41.4669C77.5128 41.1155 77.4835 40.8519 77.2419 40.5151C76.6672 39.7097 76.1473 38.8493 76.4548 37.7547C76.6598 37.0262 76.788 36.2793 76.9381 35.5362C77.0369 35.0456 76.9088 34.7674 76.3889 34.5331C76.0741 34.3903 76.0851 34.1523 76.0302 33.8997C75.8434 33.065 75.5982 32.2523 74.8623 31.7032C74.7488 31.619 74.6353 31.4908 74.6024 31.3627C74.4633 30.8136 74.185 30.4182 73.6029 30.2534C73.3943 30.1949 73.3723 30.0265 73.548 29.8581C74.1594 29.276 74.185 29.016 73.57 28.4815C72.8634 27.8665 72.1093 27.31 71.3808 26.7243C71.2233 26.5962 71.0842 26.4424 70.9378 26.2996C70.9707 26.252 71.0037 26.2008 71.0366 26.1532C71.3039 26.2447 71.5638 26.3472 71.8347 26.4241C71.9336 26.4534 72.1276 26.4497 72.1459 26.4058C72.1971 26.285 72.2191 26.1166 72.1715 26.0031C72.0946 25.82 71.9628 25.6516 71.8311 25.4942C71.454 25.0476 71.0476 24.6229 70.6852 24.1653C70.4253 23.8321 70.1763 23.6967 69.715 23.7919C69.0231 23.931 68.4154 23.7919 68.0383 23.0377C67.7308 22.4117 67.1414 22.0493 66.4421 21.9065C66.1786 21.8516 66.0285 21.9065 65.893 22.1774C65.6441 22.6826 65.483 22.7082 65.051 22.397C64.9082 22.2945 64.8057 22.1115 64.6519 22.0602C64.176 21.9028 63.6818 21.4782 63.1949 21.8845C62.913 22.1188 62.8288 22.0676 62.6787 21.8186C62.5286 21.566 62.3968 21.2988 62.2064 21.0791C62.0637 20.9144 61.8586 20.735 61.661 20.7057C61.0862 20.6288 60.4968 20.5959 59.9147 20.6032C59.6767 20.6032 59.3765 20.6947 59.2118 20.8558C58.8164 21.2439 58.4576 21.167 58.0183 20.951C57.6449 20.7679 57.2312 20.6728 56.8358 20.541L56.8432 20.5373ZM59.1386 27.8958C59.5669 27.4235 60.116 27.3906 60.6652 27.3357C60.9068 27.3137 61.1374 27.2075 61.3754 27.138C61.2363 26.8927 61.1448 26.5815 60.9434 26.4131C60.6139 26.1422 60.2295 25.8347 59.8305 25.7724C59.1166 25.6663 58.3661 25.6663 57.6449 25.7358C56.532 25.842 55.8254 26.5778 55.8876 27.5224C55.9133 27.8811 56.067 28.2655 56.2611 28.5731C56.7736 29.3931 56.953 30.2498 56.6418 31.1687C56.5173 31.5348 56.5649 31.8386 56.7187 32.1718C57.0225 32.8271 57.0591 33.497 56.9054 34.2219C56.715 35.0969 56.7992 35.9499 57.4692 36.6784C57.7547 36.9896 57.978 37.4069 58.0915 37.8133C58.4759 39.1825 57.9671 40.3247 57.1031 41.3681C56.6784 41.8843 56.2611 42.4151 55.8986 42.9716C55.7522 43.1949 55.7558 43.5134 55.6936 43.7879C55.9975 43.7477 56.3379 43.7879 56.5979 43.6598C58.3441 42.7812 59.4534 41.3827 59.8817 39.4644C59.9696 39.0653 60.0172 38.6553 60.0904 38.2526C60.2259 37.4948 60.4565 36.7846 61.002 36.1988C61.1594 36.0304 61.2143 35.7449 61.2729 35.5032C61.3461 35.1921 61.3424 34.8626 61.4267 34.555C61.7232 33.4714 61.4267 32.5928 60.548 31.9082C60.0172 31.4945 59.4571 31.1211 58.9409 30.6891C58.3148 30.1619 57.6925 29.6311 57.1324 29.0343C56.5905 28.4596 56.2903 27.7457 56.2245 26.9C56.3196 26.9439 56.3599 26.9476 56.3709 26.9696C56.4258 27.0721 56.4844 27.1709 56.521 27.2808C56.8615 28.3571 57.5497 29.1698 58.4357 29.8361C59.4168 30.5719 60.3979 31.3115 61.3937 32.029C61.4999 32.1059 61.7525 32.1352 61.833 32.0656C62.4481 31.5238 63.1802 31.414 63.9564 31.3847C64.0991 31.381 64.3261 31.2931 64.3664 31.187C64.5128 30.7953 64.1943 30.3852 63.7916 30.4768C63.1985 30.6122 62.6201 30.8209 62.038 31.0149C61.7818 31.0991 61.5365 31.2236 61.2875 31.3298C61.8403 30.1656 62.9899 30.2608 63.9564 29.9752C63.5646 29.1552 63.3926 28.9868 62.6348 29.0636C61.7085 29.1552 60.7933 29.3565 59.8708 29.5029C59.6987 29.5322 59.5193 29.5249 59.3436 29.5322C59.3289 29.47 59.3143 29.4078 59.2996 29.3455C59.7316 29.1259 60.149 28.8623 60.6029 28.7049C61.0752 28.5401 61.5841 28.4815 62.1112 28.3681C61.6353 27.6359 61.6353 27.6139 60.9581 27.6652C60.3503 27.7127 59.7463 27.8116 59.1422 27.8921L59.1386 27.8958ZM46.8122 49.3123C46.8634 49.2977 46.9147 49.283 46.9696 49.2684C47.2259 49.6088 47.4821 49.9493 47.7787 50.3447C48.0789 49.8505 48.0093 49.4844 47.8299 49.089C47.6725 48.7485 47.4748 48.3934 47.6359 47.8516C47.753 48.1628 47.8153 48.3531 47.8921 48.5362C48.1631 49.2025 48.1631 49.2061 48.8916 49.1842C49.5432 49.1659 50.1217 49.3489 50.5244 49.8688C50.7843 50.2019 50.9783 50.2568 51.392 50.0701C52.5782 49.532 53.5886 49.9749 54.0535 51.205C54.1743 51.5272 54.3281 51.6919 54.6576 51.7249C54.8003 51.7395 54.9651 51.7542 55.0786 51.8347C55.3861 52.047 55.6497 52.4351 55.9718 52.4863C56.2867 52.5339 56.6528 52.1202 56.9896 52.1312C57.9121 52.1605 58.1684 51.5089 58.4613 50.8719C58.6041 50.557 58.5638 50.2861 58.2709 50.0152C58.0513 49.8102 57.9414 49.4844 57.7913 49.2098C57.7108 49.0634 57.6778 48.8364 57.557 48.7668C56.6674 48.2763 56.7114 47.4818 56.942 46.7057C57.0884 46.2225 57.0335 45.8344 56.7589 45.4793C56.4404 45.0693 56.0853 44.6702 55.6863 44.3371C55.2946 44.0076 54.8809 44.1284 54.588 44.5714C54.4745 44.7434 54.383 44.9265 54.2805 45.1022C53.2591 46.8119 52.1242 47.1999 50.2937 46.4751C50.1326 46.4092 49.9752 46.3103 49.8068 46.2847C49.3492 46.2115 48.8879 46.1163 48.4303 46.1273C47.9763 46.1383 47.6029 46.3433 47.4638 46.8595C47.3284 47.361 46.9696 47.7052 46.5193 47.9651C46.3802 48.0456 46.2228 48.1738 46.1715 48.3165C45.9335 48.9609 46.3289 50.0518 46.9147 50.4142C46.9806 50.4545 47.1307 50.4728 47.1526 50.4435C47.2075 50.3593 47.2588 50.2275 47.2259 50.147C47.1124 49.8614 46.9623 49.5905 46.8232 49.3123H46.8122ZM56.3709 44.2565C56.7187 44.7325 57.0262 45.1901 57.3776 45.6148C57.4838 45.7465 57.7035 45.8637 57.8682 45.86C58.9152 45.8344 59.6987 45.1828 59.9293 44.154C59.9989 43.8429 60.0245 43.517 60.0575 43.1985C60.1856 41.9758 60.6908 41.4706 61.9136 41.4376C62.4334 41.4266 62.9606 41.5035 63.4768 41.5731C64.5128 41.7158 65.018 41.3205 65.3329 40.332C65.6477 39.3436 66.0321 38.3844 65.882 37.3191C65.8674 37.2129 65.9369 37.0957 65.9662 36.9823C66.1566 36.1842 65.6367 35.2067 64.8496 34.9651C64.6556 34.9065 64.381 34.9394 64.2016 35.0346C63.5061 35.408 62.8325 35.8181 62.1588 36.2318C61.4559 36.6674 60.9873 37.2788 60.8189 38.1025C60.7201 38.5894 60.6212 39.0763 60.5078 39.5595C60.0135 41.6536 58.8823 43.2242 56.8175 44.0259C56.6601 44.0881 56.5137 44.1797 56.3672 44.2565H56.3709ZM52.1498 41.8147C52.1828 43.517 51.2712 44.2382 49.8654 43.9051C49.5542 43.8319 49.2504 43.722 48.9392 43.6452C48.5255 43.5427 48.1411 43.5793 47.764 43.8172C46.8744 44.381 46.8707 44.4249 47.3576 45.3548C47.5297 45.688 47.7018 45.7173 48.0422 45.6697C48.4669 45.6111 48.9135 45.6257 49.3419 45.688C49.9459 45.7758 50.5427 45.9333 51.1431 46.0577C52.1938 46.2737 52.7978 46.0358 53.3762 45.1352C53.6288 44.7434 53.8046 44.3005 54.0718 43.9197C54.5477 43.2498 54.6832 42.5213 54.4562 41.7525C54.1048 40.5444 54.2219 39.4021 54.6978 38.2453C55.2763 36.8431 54.0974 35.7375 52.6843 35.7229C52.5379 35.7229 52.3475 35.8327 52.245 35.9462C51.8679 36.3709 51.3883 36.5283 50.8502 36.5942C50.6928 36.6125 50.5427 36.7004 50.3889 36.7553C50.4878 36.8797 50.561 37.0408 50.6854 37.1287C51.2858 37.5351 51.5934 38.0732 51.619 38.8127C51.6373 39.3326 51.7837 39.8488 51.8753 40.365C51.9814 40.9397 52.0912 41.5108 52.1498 41.8147ZM58.3368 14.2295C58.0842 14.0538 57.9268 13.8744 57.7364 13.8231C57.1433 13.6657 56.5393 13.5632 55.9389 13.4314C55.6863 13.3765 55.5106 13.3948 55.3788 13.6803C55.236 13.9952 55.0127 14.2771 54.8003 14.5517C54.5001 14.9361 54.4123 14.9361 54.0279 14.6322C53.8961 14.5297 53.735 14.343 53.6215 14.3686C53.1383 14.4711 52.5598 14.5077 52.223 14.8043C51.7068 15.2619 51.1357 15.5731 50.5536 15.9025C50.4109 15.9831 50.2351 16.276 50.2827 16.3785C50.4621 16.7739 50.7221 17.1399 50.971 17.4987C50.9966 17.5317 51.1907 17.4621 51.2968 17.4218C51.5128 17.3376 51.7178 17.2022 51.9448 17.1509C52.2194 17.0923 52.5086 17.0887 52.7905 17.0814C53.1602 17.0704 53.5373 17.129 53.8961 17.074C54.7491 16.9459 55.5838 16.891 56.3965 17.2498C56.7956 17.4255 57.2092 17.5793 57.5936 17.7806C57.8792 17.9307 58.0476 17.8392 58.1501 17.5902C58.2416 17.3779 58.6187 17.096 58.2965 16.9313C57.7511 16.653 57.8133 16.0929 57.5424 15.7012C57.3484 15.4193 57.4545 15.2509 57.6998 15.0459C57.9305 14.8519 58.0806 14.559 58.3332 14.2222L58.3368 14.2295ZM65.7539 44.1138C65.6258 44.8276 65.5562 45.5269 66.0065 46.1492C66.314 46.5703 66.3836 46.5849 66.6911 46.1932C66.9254 45.8966 67.1414 45.5781 67.405 45.3146C67.6466 45.0693 67.7088 44.846 67.5477 44.5384C67.4526 44.359 67.3793 44.165 67.3318 43.9673C67.156 43.2095 67.0242 42.4554 67.837 41.9355C67.9138 41.8843 68.0017 41.6975 67.9724 41.6573C67.5331 41.0715 67.9907 39.8231 66.6801 39.8744C66.6325 39.8744 66.5849 39.8122 66.53 39.7902C66.3579 39.717 66.1017 39.5413 66.0285 39.5998C65.8637 39.728 65.7466 39.9623 65.6917 40.1746C65.6038 40.5077 65.5672 40.8592 65.5415 41.2033C65.5123 41.6024 65.483 42.0087 65.5159 42.4041C65.5635 42.9752 65.6733 43.5463 65.7539 44.1138ZM48.0496 42.9752C48.0496 43.0411 48.0496 43.1107 48.0532 43.1766C48.7891 43.3084 49.5176 43.4914 50.2571 43.5573C51.3005 43.6525 51.8423 43.0631 51.7727 42.0197C51.7654 41.9318 51.7471 41.8476 51.7361 41.7598C51.5751 40.6944 51.4469 39.6255 51.2346 38.5711C51.165 38.227 50.9124 37.9011 50.6818 37.6193C50.5939 37.5094 50.2937 37.4582 50.1583 37.5204C49.9313 37.6302 49.8654 37.8792 50.0265 38.1208C50.3377 38.5894 50.301 39.1166 50.3084 39.6438C50.312 39.9879 50.3633 40.3393 50.4402 40.6761C50.6964 41.7744 50.3889 42.3272 49.2979 42.6457C48.8843 42.7665 48.4669 42.8654 48.0496 42.9752ZM64.8643 33.5117C64.7544 33.3323 64.6702 33.2225 64.6117 33.098C64.5018 32.8673 64.3554 32.6367 64.3115 32.3878C64.1724 31.6043 64.1797 31.597 63.3926 31.8423C63.2535 31.8862 63.1143 31.9338 62.9789 31.9851C62.6531 32.1059 62.2613 32.1571 62.0161 32.3768C61.6902 32.666 62.1479 33.0028 62.1186 33.3433C62.0856 33.7204 62.082 34.1011 62.049 34.4782C62.0344 34.6502 61.9648 34.8186 61.9428 34.9907C61.9062 35.2726 62.0307 35.3934 62.2943 35.2616C62.924 34.9541 63.5646 34.6576 64.1577 34.2915C64.4359 34.1194 64.619 33.7936 64.8643 33.5153V33.5117ZM48.207 18.2675C47.0501 18.3773 45.9702 18.1321 44.9158 18.5274C44.0811 18.8423 43.2977 19.2047 42.7339 19.9186C42.4447 20.2847 42.6204 20.7789 43.0487 20.8704C43.6601 20.9986 44.4838 20.6618 44.8206 20.1016C45.1208 19.6038 45.5125 19.3328 46.1129 19.3914C46.274 19.4061 46.4717 19.3914 46.6072 19.3109C47.1233 18.9997 47.6212 18.6519 48.207 18.2675ZM54.5075 33.5776C54.6283 33.9693 54.7052 34.4379 54.9138 34.8369C55.1188 35.2323 55.5472 35.2579 55.8876 34.9944C56.7004 34.3683 56.726 32.7539 55.9279 32.0949C55.4557 31.7032 54.9651 31.802 54.7454 32.3914C54.6136 32.7392 54.5953 33.1273 54.5075 33.5776ZM49.0014 53.4235C49.686 53.4309 50.0045 52.9732 49.7665 52.3143C49.47 51.4832 48.3168 50.9085 47.4602 51.1428C47.1014 51.2416 46.9989 51.443 47.0611 51.7908C47.2185 52.6438 48.1264 53.4126 49.0014 53.4235ZM59.9696 50.0079C60.0282 49.9456 60.0831 49.8871 60.1417 49.8248C59.3033 48.9279 58.8201 47.9028 58.8457 46.6801C58.8457 46.6105 58.648 46.4824 58.5382 46.4751C57.8096 46.4348 57.1617 47.1304 57.352 47.8406C57.5094 48.4263 58.2929 48.6607 58.3295 49.3782C58.3332 49.4844 58.5784 49.6162 58.7359 49.6674C59.1422 49.8029 59.5596 49.8981 59.9696 50.0079ZM61.9392 53.332C62.0746 52.911 62.2174 52.5083 62.3272 52.0946C62.3639 51.9628 62.3492 51.7029 62.2797 51.6736C61.6426 51.399 60.9947 51.1538 60.343 50.9268C60.2698 50.9012 60.0611 51.0329 60.0465 51.1171C59.944 51.6846 59.8744 52.263 59.7939 52.8341C59.7609 53.0538 59.8488 53.127 60.0794 53.1453C60.7018 53.1892 61.3241 53.2698 61.9428 53.332H61.9392ZM65.0144 52.0031C65.4171 52.0104 65.5891 51.8676 65.5965 51.5272C65.6148 50.7144 64.7361 49.8102 63.9234 49.8065C63.345 49.8065 63.0924 50.169 63.2827 50.7328C63.5061 51.399 64.3078 51.9848 65.018 51.9994L65.0144 52.0031ZM49.8105 39.5852C49.8654 39.5742 49.9203 39.5596 49.9752 39.5449C49.8691 39.1312 49.7739 38.7175 49.6457 38.3112C49.6274 38.2489 49.4334 38.1904 49.3492 38.216C49.276 38.238 49.1954 38.3917 49.2028 38.4796C49.2357 38.8274 49.3053 39.1752 49.3565 39.5193C49.4737 40.2954 49.2504 40.9654 48.7012 41.5255C48.5804 41.6499 48.4193 41.7525 48.3461 41.8989C48.3058 41.9794 48.4303 42.2394 48.4486 42.2357C48.8989 42.1625 49.3858 42.1478 49.7812 41.9501C50.1949 41.7451 50.1766 41.2875 50.0631 40.8555C49.9533 40.4345 49.8874 40.0062 49.8032 39.5779L49.8105 39.5852ZM48.3937 40.9763C48.9465 40.3357 49.1735 39.036 48.7964 38.4283C48.6976 38.2709 48.3571 38.238 48.1228 38.205C48.0752 38.1977 47.9397 38.4576 47.9361 38.6004C47.9068 39.4058 47.8555 40.2222 48.3937 40.9763ZM40.2847 58.8344C40.5629 58.7868 40.8485 58.8564 40.8814 58.4537C40.9071 58.1205 40.8192 57.9448 40.4311 57.8679C40.0467 57.791 39.699 57.5421 39.3255 57.3847C39.1462 57.3115 38.9485 57.2822 38.7618 57.2309C38.7361 57.4506 38.6373 57.6922 38.6995 57.8826C38.7727 58.1059 38.9448 58.3585 39.1462 58.461C39.4976 58.6404 39.904 58.7173 40.2884 58.8344H40.2847ZM41.3061 58.4098C41.3171 59.0541 41.5331 59.3726 41.9541 59.3836C42.419 59.3945 42.9865 58.9406 43.0158 58.5269C43.0341 58.2596 42.9755 58.0876 42.6277 58.1205C42.3239 58.1498 42.009 58.1132 41.7088 58.0583C41.3867 57.9997 41.2695 58.1095 41.3061 58.4134V58.4098ZM58.454 59.5227C58.3002 59.7533 58.1428 59.9913 57.9854 60.2329C57.9158 60.3427 57.8499 60.4525 57.7804 60.5624C57.9378 60.599 58.1025 60.6868 58.249 60.6685C58.7615 60.599 59.2704 60.4965 59.7792 60.3976C59.8781 60.3793 59.9659 60.3134 60.0611 60.2695C59.9659 60.1816 59.8891 60.0572 59.7792 60.0096C59.3619 59.8412 58.9335 59.6984 58.454 59.5227ZM58.5308 52.684C58.5784 52.6657 58.637 52.6547 58.6846 52.6255C58.9519 52.4571 59.5559 51.0952 59.4388 50.8279C59.3802 50.6961 59.1971 50.5936 59.047 50.5497C58.9848 50.5314 58.8274 50.6815 58.7798 50.7877C58.5711 51.227 58.3881 51.6736 58.194 52.1202C58.0915 52.3545 58.2892 52.684 58.5308 52.6804V52.684ZM62.5249 53.365C62.9606 53.0025 63.3194 52.6731 63.7074 52.3802C63.9857 52.1678 63.8941 52.0287 63.6891 51.842C63.4036 51.5858 63.1546 51.5345 62.8947 51.8713C62.5725 52.285 62.2723 52.7023 62.5249 53.365ZM46.6291 50.8536C46.3875 50.5497 46.1166 50.1946 45.8274 49.8505C45.8054 49.8248 45.659 49.8724 45.6077 49.9237C45.5565 49.9749 45.5125 50.1067 45.5418 50.147C45.7798 50.4765 46.0287 50.7986 46.2887 51.1135C46.3216 51.1538 46.4388 51.1464 46.5083 51.1245C46.5449 51.1135 46.5559 51.0256 46.6328 50.8536H46.6291Z" fill="#F1EDE4"/>
</svg>
