<svg width="512" height="512" viewBox="0 0 512 512" fill="none" xmlns="http://www.w3.org/2000/svg">
<g clip-path="url(#clip0_668_253985)">
<path d="M259.724 6.65333C260.256 6.65333 260.656 8.51759 260.922 12.2461C261.455 16.2409 261.455 21.0347 260.922 26.6275C260.656 39.6773 261.455 46.2022 263.319 46.2022C264.118 46.2022 264.917 45.6696 265.716 44.6043C266.249 43.8053 266.515 42.74 266.515 41.4084C266.781 41.1421 266.914 40.7426 266.914 40.2099C266.914 36.4814 267.713 37.2804 269.311 42.6069C270.377 45.0038 271.309 46.868 272.108 48.1996C272.64 48.9986 273.173 49.5312 273.706 49.7976C274.505 50.0639 275.037 50.197 275.304 50.197C276.635 50.197 277.434 51.6618 277.7 54.5914C278.499 57.5209 279.032 61.5157 279.298 66.5759C279.831 81.7562 280.63 94.2734 281.695 104.127C282.494 113.715 283.56 119.041 284.891 120.107C285.424 120.373 285.69 120.772 285.69 121.305C285.956 121.838 286.09 122.637 286.09 123.702C286.622 125.3 286.622 127.297 286.09 129.694C285.291 132.89 285.557 135.154 286.889 136.485C287.954 137.817 290.883 138.749 295.677 139.282C303.667 140.613 305.664 142.345 301.669 144.475C300.072 145.54 298.474 146.339 296.876 146.872C295.011 147.671 293.28 148.071 291.682 148.071C288.22 148.337 285.956 151.533 284.891 157.658C284.625 158.723 284.492 159.789 284.492 160.854C284.492 162.186 284.359 163.251 284.092 164.05C284.092 165.115 284.092 165.914 284.092 166.447C284.092 166.713 284.092 166.979 284.092 167.246C284.092 167.246 284.359 167.246 284.891 167.246C285.956 167.512 288.353 167.645 292.082 167.645C294.212 167.645 296.609 167.645 299.273 167.645C302.468 167.912 306.064 168.045 310.059 168.045L335.626 168.444L336.425 157.658C336.691 153.131 336.425 150.068 335.626 148.47C334.827 146.339 332.829 144.875 329.633 144.076C325.905 142.744 324.041 141.945 324.041 141.679C324.041 140.88 325.638 139.948 328.834 138.882C330.965 138.616 332.43 137.684 333.229 136.086C334.028 134.754 334.56 132.757 334.827 130.094C334.827 127.164 334.693 123.036 334.427 117.71C333.628 104.127 333.894 89.6127 335.226 74.166C336.824 58.7194 338.955 47.0012 341.618 39.0115C342.949 35.5493 344.015 32.7529 344.814 30.6223C345.08 29.8234 345.346 29.1576 345.613 28.6249C346.145 27.5596 346.545 27.027 346.811 27.027C356.931 24.6301 364.522 23.698 369.582 24.2306C374.642 25.0296 381.3 27.5596 389.556 31.8208C406.334 39.8105 416.055 46.3354 418.718 51.3955C421.648 56.9883 419.65 65.3774 412.726 76.563C409.796 82.1557 407.533 88.8138 405.935 96.5371C404.337 103.994 403.538 115.579 403.538 131.292C403.271 147.272 403.538 169.776 404.337 198.805C405.668 264.853 409.131 310.261 414.723 335.029C415.256 337.692 416.055 341.287 417.12 345.815C417.919 350.342 418.718 354.603 419.517 358.598C420.316 362.593 421.381 366.322 422.713 369.784C424.045 372.98 425.243 375.377 426.308 376.975C427.107 378.306 428.572 382.035 430.703 388.16C430.969 388.959 431.235 389.758 431.502 390.557C432.833 396.15 434.298 402.275 435.896 408.933C436.695 411.596 437.361 414.26 437.893 416.923C438.959 421.45 440.024 425.712 441.089 429.706C442.953 435.565 444.285 439.028 445.084 440.093C445.883 441.158 446.282 442.357 446.282 443.688C446.282 445.286 445.883 446.751 445.084 448.083C443.486 451.279 442.021 451.012 440.69 447.284C439.891 445.686 438.959 444.354 437.893 443.289C436.562 442.49 435.097 442.09 433.499 442.09C432.434 442.09 431.368 441.824 430.303 441.291C429.238 440.492 428.705 439.693 428.705 438.895C428.705 438.362 428.705 437.962 428.705 437.696C428.972 437.43 429.238 437.163 429.504 436.897C430.303 436.364 431.102 436.498 431.901 437.297C432.7 437.563 433.499 437.696 434.298 437.696C434.564 437.43 434.697 437.163 434.697 436.897C434.964 436.364 435.097 435.965 435.097 435.699C435.097 434.367 434.697 433.568 433.899 433.302C433.632 432.503 432.833 432.103 431.502 432.103C431.235 432.103 430.836 432.103 430.303 432.103C430.037 432.103 429.771 431.97 429.504 431.704C429.504 431.437 429.371 431.304 429.105 431.304C429.105 431.038 428.972 430.772 428.705 430.505C428.705 430.239 428.705 429.973 428.705 429.706C428.705 429.174 428.705 428.774 428.705 428.508C428.705 427.975 428.705 427.309 428.705 426.511C428.705 425.978 428.705 425.312 428.705 424.513C428.705 423.714 428.705 423.048 428.705 422.516C428.439 420.119 428.039 418.92 427.507 418.92C427.24 418.92 426.441 420.119 425.11 422.516C422.979 426.777 421.914 426.511 421.914 421.717C421.648 418.521 420.849 414.393 419.517 409.333C417.919 404.539 416.188 400.011 414.324 395.75C412.992 391.755 411.661 389.758 410.329 389.758C408.731 389.758 408.065 392.022 408.332 396.549C408.598 401.343 409.929 406.403 412.326 411.73C413.658 414.393 414.723 417.189 415.522 420.119C416.055 421.717 416.454 423.048 416.721 424.114C417.253 425.445 417.653 426.511 417.919 427.309C418.185 429.174 418.851 431.171 419.917 433.302C420.716 434.9 421.648 436.498 422.713 438.096C423.778 439.161 424.311 440.492 424.311 442.09C424.577 442.623 424.577 443.289 424.311 444.088C424.311 444.887 424.178 445.553 423.911 446.085C422.313 448.482 424.178 449.015 429.504 447.683C430.037 447.683 430.436 447.55 430.703 447.284C434.165 446.218 434.964 446.218 433.1 447.284C430.436 448.615 429.105 450.346 429.105 452.477C429.371 454.341 430.836 455.273 433.499 455.273C435.097 455.273 436.961 457.271 439.092 461.266C441.489 465.527 443.22 469.921 444.285 474.449C445.35 479.242 445.484 482.571 444.685 484.436C444.685 484.702 444.685 484.835 444.685 484.835C444.418 485.368 444.152 485.9 443.886 486.433C443.886 486.699 444.019 486.966 444.285 487.232C444.551 487.498 444.818 487.765 445.084 488.031C445.35 488.031 445.617 488.031 445.883 488.031C447.215 488.031 448.014 488.297 448.28 488.83C448.546 489.096 448.679 489.363 448.679 489.629C448.946 489.629 449.079 489.895 449.079 490.428C448.813 491.227 448.946 492.159 449.478 493.224C449.478 493.491 449.478 493.757 449.478 494.023C449.745 494.822 450.011 495.621 450.277 496.42C450.544 496.953 450.81 497.752 451.076 498.817C455.071 509.47 452.142 509.603 442.288 499.217C439.092 495.222 434.431 488.031 428.306 477.644C422.18 466.992 416.454 456.472 411.128 446.085C406.068 435.166 402.872 427.709 401.54 423.714C401.274 422.915 401.008 421.983 400.741 420.918C400.475 419.852 400.076 418.654 399.543 417.322C399.01 415.192 398.211 413.194 397.146 411.33C396.88 410.531 396.613 409.865 396.347 409.333C394.483 404.805 393.018 399.479 391.953 393.353C390.621 387.494 389.955 382.168 389.955 377.374C389.955 372.847 390.488 370.583 391.553 370.583C393.95 370.583 394.483 367.52 393.151 361.395C391.553 355.003 390.355 349.277 389.556 344.217C389.29 342.086 389.023 340.222 388.757 338.624C388.224 335.695 387.825 333.298 387.558 331.433C387.558 330.102 387.558 329.17 387.558 328.637C387.825 327.838 388.091 327.572 388.357 327.838C388.89 328.371 389.955 331.3 391.553 336.627C392.619 339.823 393.684 343.551 394.749 347.812C395.282 350.209 395.948 352.739 396.747 355.402C398.344 362.593 400.209 368.852 402.339 374.178C404.47 378.972 406.068 381.768 407.133 382.567C412.193 384.432 410.728 374.711 402.739 353.405C401.407 349.677 399.942 343.951 398.344 336.227C398.078 334.629 397.679 332.898 397.146 331.034C394.749 320.647 392.619 309.728 390.754 298.276C389.689 293.749 388.89 289.488 388.357 285.493C387.026 279.634 385.827 274.307 384.762 269.513C382.898 261.79 381.566 257.928 380.767 257.928C379.968 257.928 379.569 258.594 379.569 259.926C379.302 260.459 379.169 261.124 379.169 261.923C379.436 262.456 379.702 263.122 379.968 263.921C381.3 267.916 382.365 273.908 383.164 281.897C383.43 282.696 383.564 283.629 383.564 284.694C384.363 293.749 384.895 302.671 385.162 311.459C385.162 319.715 384.629 325.175 383.564 327.838C381.167 332.099 381.433 338.092 384.363 345.815C385.694 349.277 386.493 352.606 386.759 355.802C387.558 358.998 387.692 361.395 387.159 362.993C386.626 365.39 385.561 363.792 383.963 358.199C382.099 352.872 379.968 345.549 377.571 336.227C376.24 330.102 374.908 323.71 373.576 317.052C373.044 313.856 372.378 310.66 371.579 307.464C369.715 297.344 368.383 288.955 367.584 282.297C366.519 268.448 365.321 259.793 363.989 256.331C362.391 252.868 360.26 252.602 357.597 255.532C354.401 258.195 354.002 261.524 356.399 265.519C358.263 268.981 357.997 272.31 355.6 275.506C353.735 277.903 353.602 278.702 355.2 277.903C355.999 277.636 356.798 278.302 357.597 279.9C358.396 281.764 358.929 284.561 359.195 288.289C359.994 300.274 362.391 314.522 366.386 331.034C370.114 347.546 374.375 361.395 379.169 372.58C379.968 374.445 380.767 377.241 381.566 380.969C382.099 382.834 382.498 384.698 382.765 386.562C383.297 388.693 383.697 390.69 383.963 392.554C384.496 396.017 385.295 400.011 386.36 404.539C387.159 408.534 388.224 411.996 389.556 414.926C389.822 415.458 389.955 415.991 389.955 416.523C390.754 418.121 391.154 419.453 391.154 420.518C391.154 422.116 390.754 422.649 389.955 422.116C389.156 421.584 388.224 420.119 387.159 417.722C386.094 415.325 385.162 412.662 384.363 409.732C384.363 409.466 384.363 409.333 384.363 409.333C384.096 409.066 383.963 408.667 383.963 408.134C383.164 404.406 382.365 401.609 381.566 399.745C381.3 397.881 380.9 396.416 380.368 395.351C379.835 394.552 379.436 393.753 379.169 392.954C378.903 392.421 378.637 391.755 378.37 390.956C378.37 390.956 378.237 390.956 377.971 390.956C377.971 390.69 377.971 390.557 377.971 390.557C377.971 390.291 377.971 390.158 377.971 390.158C377.438 389.092 377.039 388.16 376.772 387.361C376.506 386.562 376.24 385.763 375.973 384.964C375.441 383.633 375.041 382.434 374.775 381.369C374.509 381.103 374.375 380.836 374.375 380.57C374.375 379.505 373.843 377.374 372.778 374.178C372.511 373.113 372.112 371.914 371.579 370.583C369.981 365.523 368.117 359.797 365.986 353.405C364.122 347.013 362.125 340.488 359.994 333.83C359.994 333.298 359.861 332.765 359.595 332.232C358.263 325.841 357.331 320.914 356.798 317.452C356.532 315.587 356.266 313.856 355.999 312.258C355.733 310.128 355.333 308.13 354.801 306.266C354.534 304.402 354.268 302.937 354.002 301.872C353.735 300.54 353.469 299.475 353.203 298.676C350.273 290.153 347.211 269.78 344.015 237.555C343.748 235.158 343.482 232.761 343.216 230.364C342.417 221.309 341.618 213.985 340.819 208.393C340.02 201.468 338.955 196.541 337.623 193.612C336.558 190.682 334.96 189.084 332.829 188.818C329.367 187.753 323.774 187.22 316.051 187.22C308.594 187.22 301.27 187.753 294.079 188.818C287.421 189.617 283.426 190.682 282.095 192.014C281.296 193.612 280.896 201.069 280.896 214.385C280.896 227.967 281.296 244.08 282.095 262.722C283.426 294.681 283.426 316.253 282.095 327.439C281.296 338.624 278.633 344.35 274.105 344.616C273.306 344.616 271.841 345.149 269.711 346.214C268.113 347.546 266.382 349.011 264.517 350.609C261.854 353.272 257.726 355.269 252.134 356.601C247.073 357.933 241.88 358.598 236.554 358.598C231.494 358.598 227.898 357.533 225.768 355.402C220.441 350.342 216.979 317.452 215.381 256.73L213.783 197.207L199.402 197.606C192.211 197.873 187.018 199.471 183.822 202.4C180.626 205.33 178.629 210.39 177.83 217.581C177.297 220.244 177.031 223.839 177.031 228.367C177.031 233.16 176.764 238.221 176.232 243.547C175.965 244.08 175.832 244.612 175.832 245.145C175.3 247.542 174.501 249.939 173.435 252.336C172.636 254.466 171.97 256.597 171.438 258.727C170.639 262.19 170.239 265.519 170.239 268.715C169.973 272.177 169.44 275.373 168.641 278.302C166.245 288.955 163.714 297.477 161.051 303.869C158.654 309.994 156.923 313.324 155.858 313.856C155.059 314.122 154.393 315.72 153.861 318.65C153.328 321.047 153.062 324.11 153.062 327.838C153.062 331.3 152.928 334.363 152.662 337.026C151.863 339.689 151.064 341.021 150.265 341.021C149.466 341.021 148.8 341.554 148.268 342.619C147.469 343.418 147.202 344.616 147.469 346.214C147.469 347.28 146.936 348.478 145.871 349.81C145.072 350.609 144.007 351.141 142.675 351.408C141.077 351.408 139.745 351.807 138.68 352.606C137.615 353.671 136.683 355.003 135.884 356.601C135.351 357.666 134.685 358.865 133.886 360.196C133.354 360.463 132.821 360.729 132.288 360.995C131.756 361.262 131.223 361.395 130.691 361.395C129.359 361.927 127.228 365.39 124.299 371.781C121.103 378.173 117.508 386.163 113.513 395.75C111.116 402.142 108.719 408.534 106.322 414.926C105.257 418.121 104.058 421.317 102.727 424.513C98.4655 435.699 94.8702 441.291 91.9406 441.291C89.0111 441.025 89.1442 435.166 92.3401 423.714C92.6064 422.649 92.8727 421.717 93.1391 420.918C94.2043 417.722 95.0033 414.526 95.536 411.33C96.3349 407.335 96.6012 404.406 96.3349 402.542C96.3349 396.15 99.2645 383.1 105.124 363.392C105.39 361.528 105.789 359.53 106.322 357.4C106.588 356.601 106.855 355.802 107.121 355.003C107.387 353.938 107.654 353.006 107.92 352.207C108.985 349.011 109.518 346.614 109.518 345.016C110.051 342.619 110.051 340.888 109.518 339.823C109.252 339.024 108.319 338.358 106.721 337.825C105.124 337.026 103.659 337.293 102.327 338.624C100.729 339.689 99.9303 341.287 99.9303 343.418C99.664 345.282 100.063 347.28 101.129 349.41C101.395 349.677 101.528 350.209 101.528 351.008C101.528 351.807 101.395 352.872 101.129 354.204C100.862 356.068 100.063 358.199 98.7318 360.596C97.9329 362.194 96.7344 365.123 95.1365 369.384C93.5385 373.379 92.2069 377.64 91.1416 382.168C89.5437 386.695 88.6116 390.158 88.3453 392.554C87.8126 395.75 87.1468 398.547 86.3478 400.944C85.2825 403.34 84.3504 404.539 83.5515 404.539C83.0188 404.539 82.6193 404.406 82.353 404.139C82.0867 403.873 81.8204 403.607 81.554 403.34C81.2877 402.542 81.2877 401.609 81.554 400.544C82.0867 399.479 82.8856 396.816 83.9509 392.554C85.2825 388.027 86.481 383.233 87.5463 378.173C88.3453 375.243 88.8779 372.447 89.1442 369.784C89.6769 367.92 90.0763 366.189 90.3427 364.591C91.1416 358.731 92.2069 353.405 93.5385 348.611C94.6038 343.817 95.536 340.622 96.3349 339.024C97.6665 335.561 99.664 327.039 102.327 313.457C103.126 309.728 103.792 305.866 104.325 301.872C106.189 291.485 108.053 280.832 109.917 269.913C112.314 254.733 113.779 243.148 114.312 235.158C114.578 231.163 115.111 226.902 115.91 222.374C116.176 221.842 116.309 221.176 116.309 220.377C117.108 215.051 117.907 210.656 118.706 207.194C119.771 202.933 120.304 199.87 120.304 198.006C120.038 195.875 118.972 194.277 117.108 193.212C114.977 192.147 111.915 191.215 107.92 190.416C103.925 189.883 100.463 190.016 97.5334 190.815C95.9354 190.815 93.1391 190.016 89.1442 188.418C85.4157 186.82 81.1546 184.823 76.3607 182.426C71.8333 179.763 67.9716 177.233 64.7757 174.836C61.3135 172.439 59.5824 170.708 59.5824 169.643C59.5824 168.311 58.7835 165.914 57.1855 162.452C56.1202 158.457 54.5223 154.462 52.3917 150.467C48.9295 144.076 47.0653 138.749 46.799 134.488C46.2663 130.493 46.799 124.235 48.3969 115.712C49.7285 107.723 51.0601 102.529 52.3917 100.132C53.9897 97.4693 56.1202 96.1376 58.7835 96.1376C60.9141 96.1376 62.7783 96.2708 64.3762 96.5371C65.9742 96.8034 67.1726 97.3361 67.9716 98.1351C70.6348 99.9993 75.9613 102.13 83.9509 104.527C92.2069 106.924 100.729 108.522 109.518 109.321L125.897 111.318L123.5 98.5345C122.701 94.806 122.035 90.2786 121.502 84.9521C121.236 79.6257 120.837 74.6987 120.304 70.1712C120.038 60.051 118.04 53.1266 114.312 49.3981C111.116 46.2022 109.118 43.1395 108.319 40.2099C107.254 37.0141 107.52 34.7503 109.118 33.4187C109.651 33.1524 111.249 32.7529 113.912 32.2203C114.445 31.954 114.977 31.8208 115.51 31.8208C118.972 31.0218 123.1 30.2229 127.894 29.4239C139.612 27.826 144.939 28.3586 143.873 31.0218C143.873 31.5545 144.007 32.0871 144.273 32.6198C144.539 33.1524 145.072 33.6851 145.871 34.2177C146.936 35.0167 148.667 35.6825 151.064 36.2151C154.526 36.7478 158.788 38.2125 163.848 40.6094C168.641 43.0063 173.302 45.9359 177.83 49.3981C182.091 52.5939 185.02 55.3903 186.618 57.7872C187.417 59.6515 188.482 63.9126 189.814 70.5707C191.146 76.9624 192.211 84.2863 193.01 92.5423L196.206 121.305L208.19 120.906C212.984 120.906 216.313 120.373 218.177 119.308C220.042 118.509 221.506 116.245 222.572 112.516C223.371 108.522 224.17 102.396 224.969 94.1402C225.501 89.6127 226.167 84.9521 226.966 80.1583C227.765 75.6308 228.564 71.7691 229.363 68.5733C229.629 68.307 229.762 67.9075 229.762 67.3748C230.029 66.8422 230.162 66.4427 230.162 66.1764C230.162 65.6437 230.295 65.1111 230.561 64.5784C231.893 60.8499 232.692 58.0535 232.958 56.1893C233.491 54.0587 233.89 52.1945 234.157 50.5965C234.423 50.0639 234.556 49.2649 234.556 48.1996C234.823 46.868 235.222 45.2701 235.755 43.4058C235.755 43.1395 235.755 42.8732 235.755 42.6069C235.755 42.3405 235.888 41.941 236.154 41.4084C236.687 38.2125 237.486 35.6825 238.551 33.8182C239.35 31.6876 240.149 30.6223 240.948 30.6223C241.747 30.6223 242.146 31.0218 242.146 31.8208C242.679 32.6198 242.679 33.6851 242.146 35.0167C241.88 36.3483 241.88 37.6799 242.146 39.0115C242.413 39.5441 242.679 40.0768 242.945 40.6094C243.212 41.1421 243.611 41.5416 244.144 41.8079C248.405 44.4711 250.802 42.6069 251.335 36.2151C251.867 34.8835 252.267 33.4187 252.533 31.8208C252.799 30.7555 253.066 29.9565 253.332 29.4239C253.598 28.8912 253.865 28.3586 254.131 27.826C254.93 26.7607 255.463 25.0296 255.729 22.6327C256.261 21.0347 256.528 19.4368 256.528 17.8389C256.794 17.0399 256.927 16.2409 256.927 15.442C256.927 13.0451 257.194 10.9145 257.726 9.05023C257.993 8.25127 258.259 7.71862 258.525 7.4523C259.058 6.91965 259.457 6.65333 259.724 6.65333ZM244.144 47.0012C243.345 47.0012 242.679 47.4007 242.146 48.1996C241.88 48.7323 241.614 49.2649 241.347 49.7976C241.081 50.0639 240.948 50.4634 240.948 50.996C240.948 52.8603 240.815 54.5914 240.548 56.1893C240.282 60.9831 240.149 64.7116 240.149 67.3748C240.149 71.3697 240.282 73.8997 240.548 74.965C240.815 76.2966 241.347 76.9624 242.146 76.9624C242.679 76.9624 243.345 76.1635 244.144 74.5655C244.943 73.2339 245.609 71.5028 246.141 69.3722C247.473 63.5132 247.872 58.1867 247.34 53.3929C247.34 48.8654 246.274 46.7348 244.144 47.0012ZM258.126 57.7872C258.126 57.7872 258.126 58.0535 258.126 58.5862C257.859 59.1188 257.726 59.9178 257.726 60.9831C257.726 62.8473 257.859 64.179 258.126 64.9779C258.392 65.2443 258.658 65.5106 258.925 65.7769C259.191 65.7769 259.457 65.6437 259.724 65.3774C259.99 65.1111 260.123 64.7116 260.123 64.179C260.389 63.6463 260.523 63.1137 260.523 62.581C260.523 61.2494 260.256 60.051 259.724 58.9857C258.925 57.6541 258.392 57.2546 258.126 57.7872ZM258.925 71.3697C258.658 71.3697 258.259 71.3697 257.726 71.3697C257.46 71.3697 257.06 71.5028 256.528 71.7691C255.995 72.0355 255.463 72.435 254.93 72.9676C254.397 73.5002 253.998 74.0329 253.731 74.5655C253.465 75.6308 253.465 76.8293 253.731 78.1609C253.998 79.4925 254.131 82.1557 254.131 86.1506C254.131 90.4117 253.731 95.0724 252.932 100.132C252.4 104.127 252 107.723 251.734 110.919C251.468 111.718 251.335 112.516 251.335 113.315C251.335 117.31 251.468 119.707 251.734 120.506C255.729 125.3 258.525 122.504 260.123 112.117C260.389 110.253 260.523 108.255 260.523 106.125C260.523 103.994 260.656 101.864 260.922 99.733C261.188 94.4065 261.322 89.6127 261.322 85.3516C261.322 76.0303 260.523 71.3697 258.925 71.3697ZM240.948 86.9495C240.682 86.9495 240.415 87.0827 240.149 87.349C239.883 87.349 239.616 87.4822 239.35 87.7485C239.084 88.0148 238.817 88.4143 238.551 88.9469C238.285 89.2133 238.018 89.6127 237.752 90.1454C236.953 91.2107 236.82 92.0096 237.353 92.5423C237.619 93.0749 237.885 93.4744 238.152 93.7407C238.418 93.7407 238.817 93.6076 239.35 93.3413C239.883 93.3413 240.282 93.3413 240.548 93.3413C240.815 93.0749 241.081 92.8086 241.347 92.5423C242.146 91.7433 242.546 90.9444 242.546 90.1454C242.546 89.6127 242.546 89.2133 242.546 88.9469C242.28 88.4143 242.146 88.0148 242.146 87.7485C241.88 87.4822 241.614 87.349 241.347 87.349C241.347 87.0827 241.214 86.9495 240.948 86.9495ZM200.6 125.699C197.937 125.433 196.605 126.365 196.605 128.496C196.605 130.094 198.07 131.159 201 131.692C203.929 132.224 206.992 132.491 210.188 132.491C213.384 131.958 215.647 131.026 216.979 129.694C216.979 129.694 216.979 129.561 216.979 129.295C217.245 129.028 217.378 128.895 217.378 128.895C217.378 128.629 217.245 128.363 216.979 128.096C216.713 127.564 215.914 127.297 214.582 127.297C213.517 127.297 211.786 127.164 209.389 126.898C207.525 126.898 205.527 126.632 203.397 126.099C202.331 125.833 201.399 125.699 200.6 125.699ZM252.932 126.099C252.134 126.099 251.468 126.498 250.935 127.297C250.669 127.564 250.402 127.963 250.136 128.496C250.136 128.762 250.136 129.162 250.136 129.694C250.136 130.493 250.402 131.292 250.935 132.091C251.734 132.624 252.533 132.89 253.332 132.89C254.131 132.89 254.93 132.491 255.729 131.692C256.261 131.159 256.528 130.36 256.528 129.295C256.528 128.496 256.128 127.83 255.329 127.297C255.063 126.498 254.264 126.099 252.932 126.099ZM300.471 125.3C302.602 125.034 304.2 125.167 305.265 125.699C306.064 125.966 305.931 126.365 304.865 126.898C304.066 127.164 302.202 127.297 299.273 127.297C294.212 127.297 293.014 126.765 295.677 125.699C297.275 125.433 298.873 125.3 300.471 125.3ZM132.688 198.006C132.155 197.74 131.489 198.405 130.691 200.003C129.625 202.4 128.826 204.797 128.294 207.194C128.027 209.591 128.027 211.722 128.294 213.586C129.093 215.45 130.025 216.382 131.09 216.382C131.623 216.382 132.022 216.116 132.288 215.583C132.555 215.051 132.954 214.385 133.487 213.586C133.487 213.319 133.487 213.186 133.487 213.186C134.02 211.322 134.153 208.792 133.886 205.596C133.886 200.27 133.487 197.74 132.688 198.006ZM250.935 196.009C250.669 196.009 250.269 196.807 249.737 198.405C248.938 200.003 248.405 202.001 248.139 204.398C248.139 205.197 248.139 205.996 248.139 206.795C247.872 208.126 247.872 209.325 248.139 210.39C248.405 211.988 248.938 212.787 249.737 212.787C250.536 212.521 251.201 211.588 251.734 209.99C252.267 208.393 252.4 206.528 252.134 204.398C252.134 202.001 252 200.003 251.734 198.405C251.734 197.873 251.601 197.473 251.335 197.207C251.335 196.408 251.201 196.009 250.935 196.009ZM355.999 205.197C355.467 204.398 355.2 206.262 355.2 210.789C355.467 211.855 355.6 212.787 355.6 213.586C355.6 214.917 355.733 215.983 355.999 216.782C356.266 217.048 356.399 217.181 356.399 217.181C356.399 217.181 356.532 217.048 356.798 216.782C357.331 215.45 357.597 213.852 357.597 211.988C357.597 209.857 357.331 208.126 356.798 206.795C356.532 206.528 356.399 206.262 356.399 205.996C356.399 205.729 356.266 205.596 355.999 205.596C355.999 205.33 355.999 205.197 355.999 205.197ZM369.182 210.39C368.383 210.39 367.984 211.988 367.984 215.184C368.25 219.711 368.916 221.176 369.981 219.578C370.247 218.779 370.381 218.113 370.381 217.581C370.381 216.782 370.381 215.983 370.381 215.184C370.381 213.586 370.114 212.254 369.582 211.189C369.582 210.923 369.448 210.789 369.182 210.789C369.182 210.523 369.182 210.39 369.182 210.39ZM128.693 223.173C128.16 223.173 127.628 223.44 127.095 223.972C126.829 224.239 126.563 224.771 126.296 225.57C125.764 226.902 125.497 228.633 125.497 230.764C125.497 234.758 124.698 241.949 123.1 252.336C121.236 262.722 119.105 272.843 116.709 282.696C114.312 292.284 112.447 298.143 111.116 300.274C110.051 301.339 109.252 303.603 108.719 307.065C108.719 307.331 108.719 307.598 108.719 307.864C108.453 311.592 108.319 315.854 108.319 320.647C108.319 340.622 111.648 335.561 118.307 305.467C120.703 295.879 122.834 284.694 124.698 271.91C126.563 260.725 128.027 250.605 129.093 241.55C129.093 240.484 129.226 239.286 129.492 237.954C130.291 228.1 130.025 223.173 128.693 223.173ZM358.396 228.766C357.863 229.032 357.464 229.299 357.198 229.565C356.931 229.831 356.665 230.364 356.399 231.163C355.866 232.495 355.6 233.959 355.6 235.557C355.6 237.422 355.866 239.02 356.399 240.351C357.198 241.683 357.997 242.349 358.796 242.349C359.595 242.349 360.394 241.683 361.193 240.351C361.725 238.753 361.991 237.155 361.991 235.557C361.991 233.427 361.592 231.829 360.793 230.764C359.994 229.432 359.195 228.766 358.396 228.766ZM371.18 228.367C370.913 228.367 370.514 228.633 369.981 229.166C369.715 229.698 369.448 230.364 369.182 231.163C368.65 232.761 368.383 234.625 368.383 236.756C368.383 239.153 368.783 241.15 369.582 242.748C370.114 244.346 370.78 245.145 371.579 245.145C372.112 245.145 372.511 245.012 372.778 244.746C373.31 244.213 373.71 243.547 373.976 242.748C373.976 242.482 373.976 242.215 373.976 241.949C374.509 240.618 374.775 238.886 374.775 236.756C374.775 234.359 374.375 232.362 373.576 230.764C372.778 229.166 371.979 228.367 371.18 228.367ZM373.576 266.318C373.31 266.85 373.31 268.182 373.576 270.312C373.843 271.111 373.976 272.044 373.976 273.109C376.107 290.153 377.571 293.749 378.37 283.895C378.903 281.498 378.77 278.835 377.971 275.905C377.704 272.976 377.039 270.712 375.973 269.114C374.908 266.717 374.109 265.785 373.576 266.318ZM139.879 311.459C139.08 311.459 138.414 311.859 137.881 312.658C137.082 312.924 136.683 313.723 136.683 315.055C136.683 315.587 136.816 315.987 137.082 316.253C137.082 316.519 137.082 316.786 137.082 317.052C137.615 317.851 138.014 318.25 138.281 318.25C138.813 318.25 139.346 317.851 139.879 317.052C140.145 316.786 140.411 316.519 140.678 316.253C140.944 315.72 141.21 315.188 141.477 314.655C142.276 313.856 142.409 313.057 141.876 312.258C141.61 311.992 141.343 311.859 141.077 311.859C140.811 311.592 140.411 311.459 139.879 311.459ZM133.487 339.423C132.688 338.89 131.356 339.689 129.492 341.82C128.16 343.152 127.095 344.217 126.296 345.016C125.497 346.347 125.098 347.013 125.098 347.013C125.098 347.28 125.497 347.679 126.296 348.212C126.829 348.212 127.361 348.212 127.894 348.212C128.427 348.212 129.093 348.212 129.892 348.212C131.223 348.212 132.288 347.679 133.087 346.614C133.886 345.549 134.286 344.217 134.286 342.619C134.286 340.488 134.02 339.423 133.487 339.423Z" fill="#C00A00"/>
</g>
<defs>
<clipPath id="clip0_668_253985">
<rect width="512" height="512" fill="white"/>
</clipPath>
</defs>
</svg>
