<svg width="182" height="105" viewBox="0 0 182 105" fill="none" xmlns="http://www.w3.org/2000/svg">
<g clip-path="url(#clip0_505_253987)">
<path d="M0.696 4.14H11.316V5.604H0.696V4.14ZM3.168 9.588H8.736V11.052H3.168V9.588ZM5.22 1.812H6.756V13.08H5.22V1.812ZM4.788 4.668L6.108 5.088C5.076 7.704 3.372 9.996 1.272 11.316C1.032 10.956 0.552 10.404 0.228 10.116C2.196 9.036 3.936 6.876 4.788 4.668ZM7.188 4.704C8.064 6.84 9.816 8.928 11.832 9.972C11.472 10.272 10.956 10.872 10.716 11.28C8.604 9.984 6.924 7.692 5.88 5.136L7.188 4.704ZM18.732 3.084H21.888V4.308H18.732V3.084ZM17.484 8.58H22.728V13.044H21.336V9.792H18.816V13.08H17.484V8.58ZM18.024 11.436H22.092V12.672H18.024V11.436ZM18.864 1.8L20.232 2.184C19.572 3.828 18.468 5.412 17.364 6.396C17.124 6.144 16.572 5.64 16.26 5.424C17.352 4.584 18.324 3.216 18.864 1.8ZM21.516 3.084H21.768L22.008 3.036L22.92 3.444C21.924 6.516 19.584 8.46 16.86 9.48C16.692 9.132 16.332 8.592 16.056 8.316C18.54 7.548 20.748 5.712 21.516 3.312V3.084ZM18.78 3.912C19.548 5.52 21.276 7.296 23.82 8.004C23.532 8.28 23.124 8.844 22.932 9.204C20.34 8.28 18.564 6.3 17.712 4.464L18.78 3.912ZM12.528 4.284H16.824V5.628H12.528V4.284ZM14.124 1.812H15.48V13.08H14.124V1.812ZM14.088 5.208L14.916 5.496C14.556 7.428 13.812 9.732 12.912 10.968C12.792 10.572 12.468 10.008 12.24 9.66C13.056 8.616 13.788 6.744 14.088 5.208ZM15.432 5.856C15.708 6.12 16.692 7.308 16.908 7.596L16.128 8.676C15.84 8.088 15.132 6.948 14.784 6.456L15.432 5.856ZM1.716 18.756H5.4V26.844H1.716V25.572H4.092V20.016H1.716V18.756ZM0.876 18.756H2.184V27.732H0.876V18.756ZM1.656 21.96H4.728V23.208H1.656V21.96ZM2.58 16.8L4.152 17.028C3.876 17.844 3.576 18.696 3.336 19.26L2.184 19.008C2.352 18.384 2.52 17.46 2.58 16.8ZM6.984 18.672H10.488V19.98H6.984V18.672ZM9.996 18.672H11.328C11.328 18.672 11.328 19.14 11.316 19.32C11.16 24.72 11.016 26.628 10.524 27.264C10.188 27.732 9.852 27.864 9.36 27.936C8.904 28.008 8.172 27.996 7.476 27.96C7.452 27.564 7.26 26.952 6.996 26.568C7.776 26.628 8.496 26.64 8.796 26.64C9.036 26.64 9.168 26.592 9.324 26.424C9.708 26.016 9.864 23.952 9.996 18.948V18.672ZM7.02 16.812L8.4 17.136C7.932 18.912 7.152 20.736 6.336 21.888C6.072 21.648 5.484 21.24 5.148 21.048C5.952 20.04 6.636 18.408 7.02 16.812ZM6.432 22.128L7.56 21.492C8.148 22.32 8.94 23.472 9.312 24.18L8.088 24.924C7.764 24.192 7.008 23.016 6.432 22.128ZM12.984 19.14C13.5 19.2 14.148 19.224 14.58 19.224C16.068 19.224 17.688 18.972 18.852 18.6L18.888 19.992C17.856 20.28 16.128 20.592 14.592 20.58C14.112 20.58 13.608 20.568 13.092 20.544L12.984 19.14ZM17.652 17.34C17.496 17.976 17.208 19.152 16.884 20.172C16.332 21.9 15.252 24.132 14.232 25.548L12.78 24.804C13.86 23.484 14.94 21.384 15.408 20.088C15.696 19.224 15.96 18.108 15.996 17.184L17.652 17.34ZM20.472 21.084C20.436 21.588 20.448 22.092 20.46 22.62C20.484 23.328 20.592 25.116 20.592 25.788C20.592 26.904 19.992 27.78 18.276 27.78C16.788 27.78 15.612 27.108 15.612 25.788C15.612 24.624 16.596 23.712 18.264 23.712C20.364 23.712 22.02 24.768 23.016 25.668L22.224 26.964C21.36 26.16 19.992 24.924 18.18 24.924C17.484 24.924 17.028 25.224 17.028 25.644C17.028 26.088 17.412 26.4 18.072 26.4C18.888 26.4 19.152 25.944 19.152 25.272C19.152 24.552 19.02 22.344 18.96 21.084H20.472ZM22.536 21.72C21.84 21.156 20.472 20.376 19.644 20.004L20.424 18.828C21.288 19.2 22.764 20.004 23.388 20.448L22.536 21.72ZM1.836 32.532H10.212V42.924H8.664V33.984H3.324V42.936H1.836V32.532ZM2.856 36.564H9.312V37.992H2.856V36.564ZM2.844 40.704H9.312V42.156H2.844V40.704ZM12.696 34.14H23.316V35.604H12.696V34.14ZM15.168 39.588H20.736V41.052H15.168V39.588ZM17.22 31.812H18.756V43.08H17.22V31.812ZM16.788 34.668L18.108 35.088C17.076 37.704 15.372 39.996 13.272 41.316C13.032 40.956 12.552 40.404 12.228 40.116C14.196 39.036 15.936 36.876 16.788 34.668ZM19.188 34.704C20.064 36.84 21.816 38.928 23.832 39.972C23.472 40.272 22.956 40.872 22.716 41.28C20.604 39.984 18.924 37.692 17.88 35.136L19.188 34.704ZM2.268 46.872H3.6V58.056H2.268V46.872ZM0.456 50.808H5.376V52.152H0.456V50.808ZM2.016 51.528L2.808 51.912C2.424 53.52 1.68 55.608 0.888 56.76C0.756 56.316 0.444 55.68 0.228 55.272C0.948 54.384 1.68 52.716 2.016 51.528ZM3.576 52.224C3.924 52.536 5.088 53.928 5.352 54.264L4.464 55.392C4.152 54.708 3.348 53.376 2.916 52.788L3.576 52.224ZM0.432 47.796L1.44 47.532C1.752 48.408 1.992 49.548 2.052 50.304L0.972 50.592C0.948 49.836 0.72 48.672 0.432 47.796ZM4.392 47.472L5.604 47.736C5.292 48.708 4.932 49.848 4.632 50.556L3.732 50.304C3.972 49.536 4.26 48.324 4.392 47.472ZM8.928 46.8H10.284V58.068H8.928V46.8ZM5.34 54.312L11.508 53.208L11.724 54.54L5.568 55.656L5.34 54.312ZM6.024 48.444L6.732 47.46C7.404 47.868 8.256 48.468 8.652 48.912L7.896 50.004C7.536 49.536 6.696 48.876 6.024 48.444ZM5.484 51.468L6.156 50.436C6.852 50.808 7.752 51.384 8.184 51.828L7.464 52.968C7.056 52.524 6.18 51.876 5.484 51.468ZM18.156 50.676V51.708H21.792V50.676H18.156ZM18.156 48.54V49.548H21.792V48.54H18.156ZM16.86 47.316H23.16V52.92H16.86V47.316ZM16.776 53.952H23.292V55.248H16.776V53.952ZM15.936 56.4H23.688V57.696H15.936V56.4ZM12.42 47.496H16.404V48.84H12.42V47.496ZM12.54 50.952H16.2V52.284H12.54V50.952ZM12.288 55.512C13.32 55.248 14.856 54.768 16.296 54.3L16.548 55.68C15.204 56.136 13.764 56.604 12.612 56.976L12.288 55.512ZM13.752 48.024H15.12V55.404L13.752 55.62V48.024ZM19.392 47.832H20.604V52.356H20.736V57.012H19.26V52.356H19.392V47.832Z" fill="#C00A00"/>
<path d="M157.424 39.44C157.256 39.632 157.112 39.8 157.016 39.944C156.08 41.492 154.304 43.652 152.444 45.02L151.244 43.916C152.828 42.812 154.172 41.18 154.796 40.076C153.74 40.076 149.372 40.076 148.46 40.076C147.968 40.076 147.32 40.136 147.068 40.172V38.48C147.392 38.54 148.04 38.6 148.46 38.6C149.216 38.6 153.824 38.6 155.108 38.6C155.576 38.6 155.972 38.552 156.236 38.468L157.424 39.44ZM151.1 45.2C150.392 44.492 149.168 43.4 148.46 42.896L149.72 41.864C150.368 42.356 151.568 43.328 152.48 44.204C153.272 44.972 154.22 45.968 154.796 46.664L153.38 47.792C152.888 47.12 151.88 45.992 151.1 45.2ZM169.424 39.44C169.256 39.632 169.112 39.8 169.016 39.944C168.08 41.492 166.304 43.652 164.444 45.02L163.244 43.916C164.828 42.812 166.172 41.18 166.796 40.076C165.74 40.076 161.372 40.076 160.46 40.076C159.968 40.076 159.32 40.136 159.068 40.172V38.48C159.392 38.54 160.04 38.6 160.46 38.6C161.216 38.6 165.824 38.6 167.108 38.6C167.576 38.6 167.972 38.552 168.236 38.468L169.424 39.44ZM163.1 45.2C162.392 44.492 161.168 43.4 160.46 42.896L161.72 41.864C162.368 42.356 163.568 43.328 164.48 44.204C165.272 44.972 166.22 45.968 166.796 46.664L165.38 47.792C164.888 47.12 163.88 45.992 163.1 45.2ZM171.212 37.664H180.752V38.876H171.212V37.664ZM171.716 39.524H180.32V40.688H171.716V39.524ZM170.552 41.372H181.436V42.608H170.552V41.372ZM170.78 43.484H181.244V44.732H170.78V43.484ZM177.944 42.464H179.42V46.496C179.42 47.192 179.288 47.576 178.808 47.804C178.316 48.02 177.656 48.044 176.78 48.044C176.72 47.636 176.492 47.036 176.3 46.64C176.876 46.664 177.524 46.664 177.704 46.664C177.896 46.664 177.944 46.616 177.944 46.46V42.464ZM175.088 36.788L176.66 36.944C176.06 42.08 174.764 45.644 171.584 47.696C171.344 47.408 170.66 46.82 170.288 46.556C173.432 44.816 174.596 41.528 175.088 36.788ZM173.66 45.824L174.824 45.104C175.328 45.596 175.964 46.304 176.264 46.784L175.028 47.6C174.764 47.12 174.152 46.364 173.66 45.824ZM146.948 52.532H155.876V53.9H146.948V52.532ZM147.056 54.764H154.16V56.012H147.056V54.764ZM155.372 52.532H156.848V61.256C156.848 62.084 156.704 62.528 156.188 62.78C155.684 63.02 154.928 63.056 153.836 63.056C153.788 62.624 153.572 61.904 153.368 61.496C154.052 61.532 154.832 61.532 155.072 61.52C155.288 61.52 155.372 61.46 155.372 61.232V52.532ZM147.68 56.9H149.084V61.856H147.68V56.9ZM148.928 56.9H153.536V60.98H148.928V59.744H152.12V58.148H148.928V56.9ZM162.022 59.372V57.872H165.418V59.372H162.022ZM180.25 53.96C180.178 54.14 180.058 54.608 180.034 54.776C179.818 56.024 179.542 57.776 178.606 59.228C177.61 60.788 175.978 61.988 174.046 62.66L172.714 61.304C174.322 60.896 176.182 59.912 177.118 58.412C177.73 57.44 178.09 56.096 178.21 54.812C177.454 54.812 173.314 54.812 172.462 54.812C172.462 55.172 172.462 56.324 172.462 56.804C172.462 56.984 172.462 57.416 172.498 57.788H170.734C170.77 57.428 170.794 57.128 170.794 56.804C170.794 56.324 170.794 54.836 170.794 54.272C170.794 53.948 170.782 53.588 170.746 53.276C171.118 53.3 171.658 53.312 172.21 53.312C172.69 53.312 177.094 53.312 177.946 53.312C178.354 53.312 178.762 53.288 179.086 53.228L180.25 53.96ZM152.024 76.736C152.084 76.508 152.12 76.184 152.12 75.86C152.12 75.224 152.12 69.836 152.12 68.864C152.12 68.324 152.036 67.856 152.036 67.832H153.812C153.812 67.856 153.728 68.336 153.728 68.876C153.728 69.836 153.728 74.408 153.728 75.14C154.712 74.72 155.888 73.772 156.704 72.608L157.616 73.94C156.62 75.236 154.904 76.532 153.548 77.216C153.296 77.348 153.152 77.48 153.032 77.564L152.024 76.736ZM146.468 76.568C147.536 75.824 148.184 74.72 148.508 73.688C148.856 72.668 148.868 70.388 148.868 68.948C148.868 68.456 148.82 68.144 148.748 67.844H150.512C150.512 67.892 150.428 68.432 150.428 68.924C150.428 70.352 150.392 72.884 150.08 74.096C149.708 75.44 148.964 76.628 147.932 77.54L146.468 76.568ZM161.696 67.508C162.488 67.94 163.808 68.78 164.432 69.224L163.544 70.544C162.872 70.076 161.624 69.272 160.832 68.828L161.696 67.508ZM159.476 76.028C160.82 75.8 162.248 75.392 163.556 74.672C165.596 73.532 167.276 71.888 168.224 70.172L169.148 71.804C168.044 73.472 166.34 74.984 164.384 76.124C163.16 76.808 161.432 77.408 160.376 77.6L159.476 76.028ZM159.848 70.244C160.652 70.676 161.972 71.492 162.596 71.936L161.708 73.28C161.036 72.8 159.788 71.996 158.984 71.564L159.848 70.244ZM174.8 69.38C174.836 69.668 174.92 69.98 174.992 70.292C175.4 71.732 176.528 75.86 176.828 76.856C176.888 77.072 177.056 77.6 177.14 77.84L175.52 78.248C175.472 77.924 175.4 77.528 175.304 77.192C175.004 76.148 173.912 71.864 173.528 70.616C173.444 70.316 173.312 70.016 173.18 69.764L174.8 69.38ZM180.56 71.24C180.044 72.284 178.844 74.096 178.004 74.984L176.672 74.324C177.296 73.772 178.124 72.764 178.448 72.176C177.824 72.284 172.94 73.304 171.956 73.52L171.584 72.092C171.956 72.056 172.292 72.02 172.688 71.948C173.336 71.852 178.136 70.94 178.988 70.748C179.192 70.7 179.432 70.628 179.588 70.556L180.56 71.24ZM156.824 83.96C156.752 84.14 156.632 84.608 156.608 84.776C156.392 86.024 156.116 87.776 155.18 89.228C154.184 90.788 152.552 91.988 150.62 92.66L149.288 91.304C150.896 90.896 152.756 89.912 153.692 88.412C154.304 87.44 154.664 86.096 154.784 84.812C154.028 84.812 149.888 84.812 149.036 84.812C149.036 85.172 149.036 86.324 149.036 86.804C149.036 86.984 149.036 87.416 149.072 87.788H147.308C147.344 87.428 147.368 87.128 147.368 86.804C147.368 86.324 147.368 84.836 147.368 84.272C147.368 83.948 147.356 83.588 147.32 83.276C147.692 83.3 148.232 83.312 148.784 83.312C149.264 83.312 153.668 83.312 154.52 83.312C154.928 83.312 155.336 83.288 155.66 83.228L156.824 83.96ZM165.092 83.78C164.924 85.004 164.684 86.408 164.264 87.824C163.544 90.248 162.512 91.736 161.204 91.736C159.86 91.736 158.756 90.26 158.756 88.232C158.756 85.472 161.168 83.096 164.276 83.096C167.24 83.096 169.124 85.16 169.124 87.788C169.124 90.308 167.576 92.096 164.552 92.564L163.64 91.148C164.108 91.088 164.444 91.028 164.768 90.956C166.292 90.584 167.492 89.492 167.492 87.728C167.492 85.844 166.316 84.5 164.24 84.5C161.696 84.5 160.304 86.576 160.304 88.088C160.304 89.3 160.784 89.888 161.24 89.888C161.756 89.888 162.212 89.12 162.716 87.5C163.064 86.372 163.328 84.992 163.448 83.732L165.092 83.78ZM171.836 82.532H180.212V92.924H178.664V83.984H173.324V92.936H171.836V82.532ZM172.856 86.564H179.312V87.992H172.856V86.564ZM172.844 90.704H179.312V92.156H172.844V90.704ZM146.696 99.14H157.316V100.604H146.696V99.14ZM149.168 104.588H154.736V106.052H149.168V104.588ZM151.22 96.812H152.756V108.08H151.22V96.812ZM150.788 99.668L152.108 100.088C151.076 102.704 149.372 104.996 147.272 106.316C147.032 105.956 146.552 105.404 146.228 105.116C148.196 104.036 149.936 101.876 150.788 99.668ZM153.188 99.704C154.064 101.84 155.816 103.928 157.832 104.972C157.472 105.272 156.956 105.872 156.716 106.28C154.604 104.984 152.924 102.692 151.88 100.136L153.188 99.704ZM158.672 100.04H169.352V101.528H158.672V100.04ZM164.828 100.64C165.548 103.388 167.072 105.668 169.616 106.676C169.256 107 168.776 107.624 168.536 108.044C165.788 106.76 164.288 104.276 163.376 100.976L164.828 100.64ZM163.172 96.812H164.756C164.696 100.472 164.672 105.56 159.524 108.044C159.296 107.648 158.852 107.132 158.432 106.82C163.352 104.624 163.136 100.064 163.172 96.812ZM173.972 97.988H181.628V99.296H173.972V97.988ZM175.544 101.312V102.5H179.924V101.312H175.544ZM174.236 100.136H181.304V103.676H174.236V100.136ZM175.364 103.796C176.432 105.524 178.7 106.496 181.808 106.784C181.508 107.096 181.148 107.672 180.968 108.068C177.716 107.624 175.496 106.412 174.188 104.156L175.364 103.796ZM177.008 96.884H178.424V102.368C178.424 104.816 177.812 107.048 174.368 108.08C174.2 107.756 173.78 107.18 173.468 106.88C176.696 106.16 177.008 104.324 177.008 102.356V96.884ZM173.06 96.776L174.404 97.208C173.588 99.248 172.268 101.396 170.9 102.752C170.78 102.416 170.396 101.624 170.156 101.276C171.296 100.196 172.412 98.492 173.06 96.776ZM171.896 100.124L173.252 98.756L173.264 98.768V108.104H171.896V100.124Z" fill="#C00A00"/>
</g>
<defs>
<clipPath id="clip0_505_253987">
<rect width="182" height="105" fill="white"/>
</clipPath>
</defs>
</svg>
