<svg width="1570" height="325" viewBox="0 0 1570 325" fill="none" xmlns="http://www.w3.org/2000/svg">
<path d="M278.946 40.0286H308.632V44.121H278.946V40.0286ZM285.856 55.2576H301.42V59.35H285.856V55.2576ZM291.592 33.521H295.885V65.019H291.592V33.521ZM290.384 41.5045L294.074 42.6786C291.189 49.9912 286.426 56.3981 280.556 60.088C279.885 59.0817 278.543 57.5386 277.637 56.7336C283.139 53.7146 288.002 47.6766 290.384 41.5045ZM297.093 41.6052C299.542 47.576 304.439 53.4127 310.075 56.331C309.068 57.1696 307.626 58.8468 306.955 59.9874C301.051 56.3646 296.355 49.9577 293.437 42.8127L297.093 41.6052ZM329.362 37.0767H338.185V40.4982H329.362V37.0767ZM325.874 52.4399H340.533V64.9183H336.641V55.8279H329.597V65.019H325.874V52.4399ZM327.383 60.4234H338.755V63.8785H327.383V60.4234ZM329.731 33.4875L333.555 34.5609C331.711 39.1564 328.624 43.5843 325.538 46.3349C324.867 45.6305 323.324 44.2216 322.452 43.6178C325.505 41.2697 328.222 37.4457 329.731 33.4875ZM337.145 37.0767H337.849L338.52 36.9425L341.069 38.083C338.285 46.6703 331.744 52.1045 324.13 54.9557C323.66 53.9829 322.654 52.4735 321.882 51.7019C328.826 49.5551 334.998 44.4229 337.145 37.714V37.0767ZM329.497 39.3912C331.643 43.8862 336.474 48.8507 343.585 50.8298C342.78 51.6013 341.64 53.1779 341.103 54.1842C333.857 51.6013 328.893 46.0665 326.511 40.9343L329.497 39.3912ZM312.02 40.4311H324.029V44.1881H312.02V40.4311ZM316.481 33.521H320.272V65.019H316.481V33.521ZM316.381 43.014L318.695 43.8191C317.689 49.2197 315.609 55.6602 313.094 59.1152C312.758 58.0082 311.852 56.4317 311.215 55.4589C313.496 52.5406 315.542 47.3077 316.381 43.014ZM320.138 44.8254C320.909 45.5634 323.66 48.8842 324.264 49.6893L322.083 52.7083C321.278 51.0646 319.299 47.8779 318.326 46.5026L320.138 44.8254ZM281.797 79.9552H292.095V102.564H281.797V99.0082H288.439V83.4773H281.797V79.9552ZM279.449 79.9552H283.105V105.046H279.449V79.9552ZM281.629 88.9115H290.216V92.4H281.629V88.9115ZM284.212 74.4875L288.606 75.1248C287.835 77.4058 286.996 79.7874 286.325 81.364L283.105 80.6596C283.575 78.9153 284.044 76.3324 284.212 74.4875ZM296.523 79.7204H306.318V83.3767H296.523V79.7204ZM304.942 79.7204H308.666C308.666 79.7204 308.666 81.0286 308.632 81.5317C308.196 96.6266 307.794 101.96 306.418 103.738C305.479 105.046 304.54 105.415 303.164 105.616C301.89 105.818 299.844 105.784 297.898 105.684C297.831 104.577 297.294 102.866 296.556 101.792C298.737 101.96 300.749 101.994 301.588 101.994C302.259 101.994 302.628 101.859 303.064 101.39C304.137 100.249 304.573 94.4798 304.942 80.4919V79.7204ZM296.623 74.521L300.481 75.4267C299.173 80.3912 296.992 85.49 294.711 88.7102C293.973 88.0393 292.33 86.8988 291.39 86.3621C293.638 83.5444 295.55 78.9824 296.623 74.521ZM294.98 89.3811L298.133 87.6032C299.776 89.9178 301.99 93.138 303.03 95.1171L299.609 97.1969C298.703 95.1507 296.59 91.8633 294.98 89.3811ZM313.295 81.0286C314.737 81.1963 316.549 81.2634 317.756 81.2634C321.916 81.2634 326.444 80.559 329.698 79.5191L329.798 83.4102C326.914 84.2153 322.083 85.0874 317.79 85.0539C316.448 85.0539 315.039 85.0203 313.597 84.9532L313.295 81.0286ZM326.343 75.997C325.907 77.7748 325.102 81.0621 324.197 83.9134C322.654 88.7437 319.635 94.9829 316.783 98.9412L312.725 96.8614C315.743 93.1716 318.762 87.3013 320.071 83.6786C320.876 81.2634 321.614 78.1438 321.714 75.5609L326.343 75.997ZM334.226 86.4627C334.126 87.8716 334.159 89.2804 334.193 90.7564C334.26 92.7355 334.562 97.7336 334.562 99.612C334.562 102.732 332.885 105.18 328.088 105.18C323.928 105.18 320.641 103.302 320.641 99.612C320.641 96.3583 323.392 93.8089 328.054 93.8089C333.924 93.8089 338.554 96.7608 341.338 99.2766L339.124 102.899C336.709 100.652 332.885 97.1969 327.819 97.1969C325.874 97.1969 324.599 98.0355 324.599 99.2095C324.599 100.451 325.673 101.323 327.517 101.323C329.798 101.323 330.536 100.048 330.536 98.1696C330.536 96.157 330.167 89.9849 330 86.4627H334.226ZM339.996 88.2406C338.05 86.664 334.226 84.4836 331.912 83.4438L334.092 80.1564C336.507 81.1963 340.633 83.4438 342.378 84.6849L339.996 88.2406ZM282.132 117.534H305.546V146.583H301.219V121.593H286.292V146.616H282.132V117.534ZM284.984 128.805H303.03V132.796H284.984V128.805ZM284.95 140.377H303.03V144.436H284.95V140.377ZM312.49 122.029H342.176V126.121H312.49V122.029ZM319.4 137.258H334.964V141.35H319.4V137.258ZM325.136 115.521H329.43V147.019H325.136V115.521ZM323.928 123.505L327.618 124.679C324.733 131.991 319.97 138.398 314.1 142.088C313.429 141.082 312.087 139.539 311.181 138.734C316.683 135.715 321.547 129.677 323.928 123.505ZM330.637 123.605C333.086 129.576 337.983 135.413 343.619 138.331C342.612 139.17 341.17 140.847 340.499 141.987C334.595 138.365 329.899 131.958 326.981 124.813L330.637 123.605ZM283.34 156.689H287.063V187.952H283.34V156.689ZM278.275 167.691H292.028V171.448H278.275V167.691ZM282.635 169.704L284.849 170.777C283.776 175.272 281.696 181.109 279.482 184.329C279.113 183.088 278.241 181.31 277.637 180.17C279.65 177.687 281.696 173.025 282.635 169.704ZM286.996 171.649C287.969 172.522 291.223 176.413 291.961 177.352L289.478 180.505C288.606 178.593 286.359 174.87 285.151 173.226L286.996 171.649ZM278.208 159.272L281.025 158.534C281.897 160.982 282.568 164.169 282.736 166.282L279.717 167.087C279.65 164.974 279.013 161.72 278.208 159.272ZM289.277 158.366L292.665 159.104C291.793 161.821 290.787 165.008 289.948 166.987L287.432 166.282C288.103 164.136 288.908 160.748 289.277 158.366ZM301.957 156.487H305.747V187.985H301.957V156.487ZM291.927 177.486L309.169 174.4L309.773 178.123L292.564 181.243L291.927 177.486ZM293.839 161.083L295.818 158.332C297.697 159.473 300.078 161.15 301.185 162.391L299.072 165.444C298.066 164.136 295.718 162.291 293.839 161.083ZM292.33 169.536L294.208 166.651C296.154 167.691 298.67 169.301 299.877 170.542L297.864 173.729C296.724 172.488 294.275 170.677 292.33 169.536ZM327.752 167.322V170.207H337.916V167.322H327.752ZM327.752 161.351V164.169H337.916V161.351H327.752ZM324.13 157.93H341.74V173.595H324.13V157.93ZM323.895 176.48H342.109V180.103H323.895V176.48ZM321.547 183.323H343.216V186.946H321.547V183.323ZM311.718 158.433H322.855V162.19H311.718V158.433ZM312.054 168.094H322.285V171.817H312.054V168.094ZM311.349 180.841C314.234 180.103 318.528 178.761 322.553 177.453L323.257 181.31C319.5 182.585 315.475 183.893 312.255 184.933L311.349 180.841ZM315.442 159.909H319.266V180.539L315.442 181.142V159.909ZM331.207 159.372H334.595V172.018H334.964V185.034H330.838V172.018H331.207V159.372Z" fill="#C00A00"/>
<path d="M1212.93 106.867C1212.46 107.404 1212.06 107.874 1211.79 108.276C1209.18 112.603 1204.21 118.641 1199.01 122.465L1195.66 119.379C1200.09 116.293 1203.84 111.731 1205.59 108.645C1202.64 108.645 1190.43 108.645 1187.88 108.645C1186.5 108.645 1184.69 108.813 1183.99 108.913V104.184C1184.89 104.351 1186.7 104.519 1187.88 104.519C1189.99 104.519 1202.87 104.519 1206.46 104.519C1207.77 104.519 1208.88 104.385 1209.61 104.15L1212.93 106.867ZM1195.26 122.968C1193.28 120.989 1189.86 117.937 1187.88 116.528L1191.4 113.643C1193.21 115.018 1196.56 117.735 1199.11 120.184C1201.33 122.331 1203.98 125.115 1205.59 127.061L1201.63 130.214C1200.25 128.335 1197.44 125.182 1195.26 122.968ZM1246.48 106.867C1246.01 107.404 1245.61 107.874 1245.34 108.276C1242.72 112.603 1237.76 118.641 1232.56 122.465L1229.2 119.379C1233.63 116.293 1237.39 111.731 1239.13 108.645C1236.18 108.645 1223.97 108.645 1221.42 108.645C1220.05 108.645 1218.23 108.813 1217.53 108.913V104.184C1218.44 104.351 1220.25 104.519 1221.42 104.519C1223.53 104.519 1236.41 104.519 1240 104.519C1241.31 104.519 1242.42 104.385 1243.16 104.15L1246.48 106.867ZM1228.8 122.968C1226.82 120.989 1223.4 117.937 1221.42 116.528L1224.94 113.643C1226.75 115.018 1230.11 117.735 1232.66 120.184C1234.87 122.331 1237.52 125.115 1239.13 127.061L1235.17 130.214C1233.8 128.335 1230.98 125.182 1228.8 122.968ZM1251.48 101.903H1278.14V105.291H1251.48V101.903ZM1252.89 107.102H1276.94V110.356H1252.89V107.102ZM1249.63 112.268H1280.06V115.723H1249.63V112.268ZM1250.27 118.172H1279.52V121.66H1250.27V118.172ZM1270.29 115.32H1274.42V126.591C1274.42 128.537 1274.05 129.61 1272.71 130.247C1271.33 130.851 1269.49 130.918 1267.04 130.918C1266.87 129.778 1266.24 128.101 1265.7 126.994C1267.31 127.061 1269.12 127.061 1269.62 127.061C1270.16 127.061 1270.29 126.927 1270.29 126.491V115.32ZM1262.31 99.4539L1266.71 99.89C1265.03 114.247 1261.41 124.21 1252.52 129.946C1251.85 129.141 1249.93 127.497 1248.89 126.759C1257.68 121.895 1260.94 112.704 1262.31 99.4539ZM1258.32 124.713L1261.57 122.7C1262.98 124.075 1264.76 126.054 1265.6 127.396L1262.14 129.677C1261.41 128.335 1259.69 126.222 1258.32 124.713ZM1183.65 142.534H1208.61V146.358H1183.65V142.534ZM1183.95 148.773H1203.81V152.261H1183.95V148.773ZM1207.2 142.534H1211.32V166.92C1211.32 169.235 1210.92 170.476 1209.48 171.18C1208.07 171.851 1205.96 171.952 1202.9 171.952C1202.77 170.744 1202.17 168.732 1201.6 167.591C1203.51 167.692 1205.69 167.692 1206.36 167.658C1206.96 167.658 1207.2 167.491 1207.2 166.853V142.534ZM1185.7 154.744H1189.62V168.597H1185.7V154.744ZM1189.18 154.744H1202.07V166.149H1189.18V162.694H1198.11V158.232H1189.18V154.744ZM1225.79 161.654V157.461H1235.28V161.654H1225.79ZM1276.74 146.525C1276.54 147.029 1276.2 148.337 1276.14 148.806C1275.53 152.295 1274.76 157.192 1272.14 161.251C1269.36 165.612 1264.8 168.966 1259.4 170.845L1255.67 167.054C1260.17 165.914 1265.37 163.163 1267.98 158.97C1269.7 156.253 1270.7 152.496 1271.04 148.907C1268.92 148.907 1257.35 148.907 1254.97 148.907C1254.97 149.913 1254.97 153.134 1254.97 154.475C1254.97 154.979 1254.97 156.186 1255.07 157.226H1250.14C1250.24 156.22 1250.31 155.381 1250.31 154.475C1250.31 153.134 1250.31 148.974 1250.31 147.398C1250.31 146.492 1250.27 145.486 1250.17 144.613C1251.21 144.68 1252.72 144.714 1254.27 144.714C1255.61 144.714 1267.92 144.714 1270.3 144.714C1271.44 144.714 1272.58 144.647 1273.49 144.479L1276.74 146.525ZM1197.84 209.262C1198.01 208.625 1198.11 207.719 1198.11 206.813C1198.11 205.035 1198.11 189.974 1198.11 187.257C1198.11 185.748 1197.87 184.439 1197.87 184.372H1202.84C1202.84 184.439 1202.6 185.781 1202.6 187.291C1202.6 189.974 1202.6 202.754 1202.6 204.801C1205.35 203.627 1208.64 200.977 1210.92 197.723L1213.47 201.446C1210.69 205.069 1205.89 208.692 1202.1 210.604C1201.39 210.973 1200.99 211.342 1200.66 211.577L1197.84 209.262ZM1182.31 208.792C1185.29 206.713 1187.11 203.627 1188.01 200.742C1188.98 197.891 1189.02 191.517 1189.02 187.492C1189.02 186.117 1188.88 185.244 1188.68 184.406H1193.61C1193.61 184.54 1193.38 186.049 1193.38 187.425C1193.38 191.417 1193.28 198.494 1192.41 201.882C1191.37 205.639 1189.29 208.96 1186.4 211.509L1182.31 208.792ZM1224.88 183.467C1227.09 184.674 1230.78 187.022 1232.52 188.263L1230.04 191.953C1228.16 190.645 1224.67 188.398 1222.46 187.156L1224.88 183.467ZM1218.67 207.283C1222.43 206.646 1226.42 205.505 1230.08 203.492C1235.78 200.306 1240.47 195.71 1243.12 190.913L1245.71 195.475C1242.62 200.138 1237.86 204.365 1232.39 207.551C1228.97 209.463 1224.14 211.141 1221.19 211.677L1218.67 207.283ZM1219.71 191.115C1221.96 192.322 1225.65 194.603 1227.39 195.844L1224.91 199.601C1223.03 198.26 1219.54 196.012 1217.29 194.805L1219.71 191.115ZM1261.51 188.699C1261.61 189.505 1261.84 190.377 1262.04 191.249C1263.18 195.274 1266.34 206.813 1267.17 209.597C1267.34 210.201 1267.81 211.677 1268.05 212.348L1263.52 213.489C1263.38 212.583 1263.18 211.476 1262.91 210.537C1262.08 207.618 1259.02 195.643 1257.95 192.155C1257.72 191.316 1257.35 190.477 1256.98 189.773L1261.51 188.699ZM1277.61 193.899C1276.16 196.817 1272.81 201.882 1270.46 204.365L1266.74 202.52C1268.48 200.977 1270.8 198.159 1271.7 196.515C1269.96 196.817 1256.31 199.668 1253.56 200.272L1252.52 196.28C1253.56 196.18 1254.5 196.079 1255.6 195.878C1257.41 195.61 1270.83 193.06 1273.21 192.523C1273.78 192.389 1274.45 192.188 1274.89 191.987L1277.61 193.899ZM1211.26 228.525C1211.06 229.029 1210.72 230.337 1210.65 230.806C1210.05 234.295 1209.28 239.192 1206.66 243.251C1203.88 247.612 1199.32 250.966 1193.91 252.845L1190.19 249.054C1194.69 247.914 1199.89 245.163 1202.5 240.97C1204.21 238.253 1205.22 234.496 1205.55 230.907C1203.44 230.907 1191.87 230.907 1189.49 230.907C1189.49 231.913 1189.49 235.134 1189.49 236.475C1189.49 236.979 1189.49 238.186 1189.59 239.226H1184.66C1184.76 238.22 1184.82 237.381 1184.82 236.475C1184.82 235.134 1184.82 230.974 1184.82 229.398C1184.82 228.492 1184.79 227.486 1184.69 226.613C1185.73 226.68 1187.24 226.714 1188.78 226.714C1190.12 226.714 1202.43 226.714 1204.82 226.714C1205.96 226.714 1207.1 226.647 1208 226.479L1211.26 228.525ZM1234.37 228.022C1233.9 231.444 1233.23 235.368 1232.05 239.327C1230.04 246.103 1227.16 250.262 1223.5 250.262C1219.74 250.262 1216.66 246.136 1216.66 240.467C1216.66 232.752 1223.4 226.11 1232.09 226.11C1240.37 226.11 1245.64 231.88 1245.64 239.226C1245.64 246.27 1241.31 251.268 1232.86 252.577L1230.31 248.618C1231.62 248.451 1232.56 248.283 1233.46 248.082C1237.72 247.042 1241.08 243.989 1241.08 239.058C1241.08 233.792 1237.79 230.035 1231.99 230.035C1224.88 230.035 1220.98 235.838 1220.98 240.065C1220.98 243.453 1222.33 245.096 1223.6 245.096C1225.04 245.096 1226.32 242.949 1227.73 238.421C1228.7 235.268 1229.44 231.41 1229.77 227.888L1234.37 228.022ZM1253.22 224.534H1276.63V253.583H1272.31V228.593H1257.38V253.616H1253.22V224.534ZM1256.07 235.805H1274.12V239.796H1256.07V235.805ZM1256.04 247.377H1274.12V251.436H1256.04V247.377ZM1182.95 270.029H1212.63V274.121H1182.95V270.029ZM1189.86 285.258H1205.42V289.35H1189.86V285.258ZM1195.59 263.521H1199.89V295.019H1195.59V263.521ZM1194.38 271.505L1198.07 272.679C1195.19 279.991 1190.43 286.398 1184.56 290.088C1183.88 289.082 1182.54 287.539 1181.64 286.734C1187.14 283.715 1192 277.677 1194.38 271.505ZM1201.09 271.605C1203.54 277.576 1208.44 283.413 1214.07 286.331C1213.07 287.17 1211.63 288.847 1210.95 289.987C1205.05 286.365 1200.35 279.958 1197.44 272.813L1201.09 271.605ZM1216.42 272.544H1246.28V276.704H1216.42V272.544ZM1233.63 274.222C1235.64 281.903 1239.9 288.277 1247.01 291.094C1246.01 292 1244.67 293.744 1244 294.918C1236.31 291.329 1232.12 284.385 1229.57 275.161L1233.63 274.222ZM1229 263.521H1233.43C1233.26 273.752 1233.19 287.975 1218.8 294.918C1218.17 293.811 1216.93 292.369 1215.75 291.497C1229.5 285.358 1228.9 272.611 1229 263.521ZM1259.19 266.808H1280.59V270.465H1259.19V266.808ZM1263.59 276.1V279.421H1275.83V276.1H1263.59ZM1259.93 272.813H1279.69V282.708H1259.93V272.813ZM1263.08 283.044C1266.07 287.874 1272.41 290.591 1281.1 291.396C1280.26 292.268 1279.25 293.878 1278.75 294.985C1269.66 293.744 1263.45 290.356 1259.8 284.05L1263.08 283.044ZM1267.68 263.722H1271.64V279.052C1271.64 285.895 1269.93 292.134 1260.3 295.019C1259.83 294.113 1258.65 292.503 1257.78 291.665C1266.81 289.652 1267.68 284.52 1267.68 279.018V263.722ZM1256.64 263.42L1260.4 264.628C1258.12 270.33 1254.43 276.335 1250.6 280.125C1250.27 279.186 1249.2 276.972 1248.52 275.999C1251.71 272.98 1254.83 268.217 1256.64 263.42ZM1253.39 272.779L1257.18 268.955L1257.21 268.989V295.086H1253.39V272.779Z" fill="#C00A00"/>
</svg>
