<svg width="255" height="298" viewBox="0 0 255 298" fill="none" xmlns="http://www.w3.org/2000/svg">
<mask id="mask0_132_197538" style="mask-type:alpha" maskUnits="userSpaceOnUse" x="0" y="0" width="255" height="298">
<rect width="255" height="298" rx="10" fill="#F1EDE4"/>
</mask>
<g mask="url(#mask0_132_197538)">
<path d="M-37.491 -1.74287H4.99733V3.65502H-37.491V-1.74287ZM-35.2463 6.54102H3.07333V11.7251H-35.2463V6.54102ZM-40.4305 14.7715H8.04366V20.2762H-40.4305V14.7715ZM-39.415 24.1777H7.18855V29.7359H-39.415V24.1777ZM-7.50867 19.6349H-0.935006V37.5922C-0.935006 40.692 -1.52289 42.4022 -3.66067 43.4177C-5.8519 44.3797 -8.79134 44.4866 -12.6928 44.4866C-12.96 42.6695 -13.9755 39.9972 -14.8306 38.2336C-12.2652 38.3405 -9.37923 38.3405 -8.57756 38.3405C-7.72245 38.3405 -7.50867 38.1267 -7.50867 37.4319V19.6349ZM-20.2285 -5.64431L-13.2272 -4.94954C-15.8995 17.9247 -21.6715 33.7977 -35.8342 42.9367C-36.9031 41.654 -39.9495 39.0352 -41.6062 37.8595C-27.6038 30.11 -22.4197 15.4662 -20.2285 -5.64431ZM-26.5883 34.5994L-21.4042 31.3927C-19.1596 33.5839 -16.327 36.7371 -14.9909 38.8749L-20.4957 42.5091C-21.6715 40.3714 -24.3971 37.0044 -26.5883 34.5994ZM14.7777 -2.33076H54.5403V3.76191H14.7777V-2.33076ZM15.2587 7.60991H46.8978V13.1681H15.2587V7.60991ZM52.2957 -2.33076H58.8693V36.5234C58.8693 40.211 58.228 42.1885 55.9299 43.3108C53.6852 44.3797 50.3182 44.54 45.4548 44.54C45.241 42.616 44.279 39.4094 43.3704 37.5922C46.4168 37.7526 49.8907 37.7526 50.9596 37.6991C51.9216 37.6991 52.2957 37.4319 52.2957 36.4165V-2.33076ZM18.0378 17.123H24.2908V39.1956H18.0378V17.123ZM23.596 17.123H44.1187V35.2941H23.596V29.7894H37.8122V22.6812H23.596V17.123ZM7.99022 71.1669C7.24199 72.022 6.60066 72.7702 6.17311 73.4116C2.00444 80.3059 -5.90534 89.9259 -14.1892 96.0186L-19.5337 91.1017C-12.479 86.1848 -6.49323 78.9164 -3.71412 73.9995C-8.41723 73.9995 -27.871 73.9995 -31.9328 73.9995C-34.124 73.9995 -37.01 74.2667 -38.1323 74.427V66.8914C-36.6893 67.1586 -33.8033 67.4258 -31.9328 67.4258C-28.5658 67.4258 -8.04312 67.4258 -2.32456 67.4258C-0.240227 67.4258 1.52344 67.212 2.69922 66.8379L7.99022 71.1669ZM-20.175 96.8202C-23.3282 93.667 -28.7796 88.8036 -31.9328 86.5589L-26.3211 81.9627C-23.4351 84.1539 -18.0907 88.4829 -14.0289 92.3844C-10.5016 95.8048 -6.27945 100.241 -3.71412 103.34L-10.0206 108.364C-12.2118 105.371 -16.7011 100.348 -20.175 96.8202ZM61.4347 71.1669C60.6864 72.022 60.0451 72.7702 59.6176 73.4116C55.4489 80.3059 47.5391 89.9259 39.2552 96.0186L33.9108 91.1017C40.9654 86.1848 46.9512 78.9164 49.7303 73.9995C45.0272 73.9995 25.5734 73.9995 21.5117 73.9995C19.3204 73.9995 16.4344 74.2667 15.3121 74.427V66.8914C16.7551 67.1586 19.6411 67.4258 21.5117 67.4258C24.8787 67.4258 45.4013 67.4258 51.1199 67.4258C53.2042 67.4258 54.9679 67.212 56.1437 66.8379L61.4347 71.1669ZM33.2694 96.8202C30.1162 93.667 24.6649 88.8036 21.5117 86.5589L27.1233 81.9627C30.0093 84.1539 35.3538 88.4829 39.4156 92.3844C42.9429 95.8048 47.165 100.241 49.7303 103.34L43.4239 108.364C41.2327 105.371 36.7433 100.348 33.2694 96.8202ZM-11.3032 133.227C-12.0515 138.679 -13.1203 144.932 -14.9909 151.238C-18.1976 162.034 -22.7938 168.661 -28.6192 168.661C-34.605 168.661 -39.5219 162.087 -39.5219 153.055C-39.5219 140.763 -28.7796 130.181 -14.9375 130.181C-1.73667 130.181 6.65411 139.374 6.65411 151.078C6.65411 162.301 -0.240227 170.264 -13.7082 172.349L-17.77 166.042C-15.6857 165.775 -14.1892 165.508 -12.7462 165.187C-5.95878 163.53 -0.61434 158.667 -0.61434 150.811C-0.61434 142.42 -5.8519 136.434 -15.0978 136.434C-26.428 136.434 -32.6276 145.68 -32.6276 152.414C-32.6276 157.812 -30.4898 160.431 -28.4589 160.431C-26.1608 160.431 -24.1299 157.01 -21.8852 149.795C-20.3353 144.771 -19.1596 138.625 -18.6251 133.014L-11.3032 133.227ZM55.6092 130.555C54.861 131.784 53.8456 134.136 53.3646 135.419C51.3337 140.71 48.0736 147.764 43.6377 153.536C38.6673 159.95 32.0937 166.844 21.7254 172.563L15.7931 167.111C25.52 162.462 32.2006 156.529 37.8657 149.154C42.0878 143.596 44.4928 138.091 46.3633 132.746C46.8443 131.357 47.3788 129.166 47.646 127.83L55.6092 130.555ZM26.2148 135.739C31.5058 139.053 38.8277 144.13 43.317 147.657C49.0356 152.093 54.6472 157.117 58.9762 161.713L53.4714 167.859C48.8218 162.408 44.1187 158.026 38.4536 153.323C34.6056 150.116 28.3526 145.306 21.6186 141.191L26.2148 135.739ZM-33.8568 198.548C-31.8793 198.762 -29.4209 198.869 -27.5503 198.869C-23.061 198.869 -8.36378 198.869 -5.42434 198.869C-3.28656 198.869 -1.04189 198.762 0.507995 198.548V206.298C-1.04189 206.244 -3.55378 206.137 -5.42434 206.137C-8.2569 206.137 -24.5575 206.137 -27.5503 206.137C-29.5812 206.137 -32.0397 206.244 -33.8568 206.298V198.548ZM-38.3461 224.736C-36.2618 224.843 -33.7499 225.057 -31.6121 225.057C-28.2451 225.057 -4.302 225.057 -0.935006 225.057C0.828661 225.057 3.12677 224.896 4.94388 224.736V232.913C3.01988 232.699 0.614882 232.539 -0.935006 232.539C-4.302 232.539 -28.2451 232.539 -31.6121 232.539C-33.7499 232.539 -36.3152 232.699 -38.3461 232.913V224.736ZM51.0664 209.397C50.8527 210.092 50.6389 211.054 50.5854 211.642C50.051 215.383 48.2339 227.515 47.5926 231.363H40.2172C40.912 227.836 42.5153 217.521 42.7826 213.94C40.2172 213.94 29.849 213.94 28.2991 213.94C26.6423 213.94 24.5046 214.047 22.9547 214.154V207.099C24.3977 207.313 26.8561 207.473 28.2457 207.473C30.9713 207.473 39.4156 207.473 41.9809 207.473C43.0498 207.473 45.241 207.26 45.9358 206.885L51.0664 209.397ZM18.0912 228.744C19.4808 228.905 21.5117 229.065 23.3288 229.065C26.5354 229.065 48.7683 229.065 51.3871 229.065C52.7232 229.065 55.2351 228.958 56.6247 228.798V235.692C55.5023 235.639 52.8836 235.585 51.494 235.585C48.7149 235.585 26.0544 235.585 23.3288 235.585C21.4582 235.585 20.0687 235.639 18.0912 235.745V228.744ZM15.419 275.092C17.3964 275.252 21.2444 275.466 24.0236 275.466C30.33 275.466 47.9667 275.466 52.7232 275.466C55.2351 275.466 57.5867 275.199 59.0297 275.092V283.536C57.747 283.483 55.0213 283.216 52.7767 283.216C47.9132 283.216 30.33 283.216 24.0236 283.216C21.0307 283.216 17.4499 283.376 15.419 283.536V275.092Z" fill="#C00A00"/>
</g>
</svg>
