<svg width="15" height="22" viewBox="0 0 15 22" fill="none" xmlns="http://www.w3.org/2000/svg">
<path d="M0.129053 9.59094C0.174369 9.89749 0.22235 10.2054 0.295655 10.5079C0.37829 10.8504 0.466255 11.1877 0.563551 11.5262C0.648851 11.8207 0.748812 12.11 0.855438 12.3978C1.10068 13.0616 1.39923 13.7027 1.71377 14.3371C1.99633 14.9062 2.32953 15.4513 2.65074 16.0005C3.28649 17.088 4.03154 18.105 4.76459 19.1272C5.04448 19.5177 5.32037 19.9083 5.59226 20.3041C5.62292 20.3481 5.65491 20.3867 5.69089 20.4214C5.67223 20.4561 5.65491 20.4907 5.63625 20.5254C5.50963 20.7746 5.52829 21.0691 5.73354 21.2731C5.84816 21.389 6.00677 21.4543 6.17071 21.4543C6.22535 21.4463 6.28 21.4397 6.33464 21.4317C6.43993 21.4024 6.53057 21.349 6.60787 21.2731C6.81046 21.1118 6.91308 20.8399 7.04103 20.62C7.15166 20.4294 7.27028 20.2455 7.39823 20.0655C7.66079 19.695 7.92069 19.3232 8.19125 18.958C8.36985 18.7287 8.55111 18.4995 8.72171 18.2636C8.90298 18.0117 9.08157 17.7571 9.26417 17.5052C9.63203 17.0001 10.0052 16.4963 10.3837 15.9991C11.1461 14.9955 11.9258 13.9946 12.5482 12.895C13.188 11.7661 13.6865 10.5426 13.977 9.27773C14.0716 8.86456 14.1383 8.44738 14.1889 8.02755C14.2342 7.65169 14.2302 7.26118 14.1863 6.88532C14.1609 6.66541 14.1409 6.44416 14.1063 6.22558C14.021 5.68979 13.865 5.17399 13.6438 4.67951C13.5132 4.39029 13.3839 4.09974 13.2306 3.82118C13.1387 3.65325 13.0494 3.48398 12.9507 3.32004C12.7108 2.91887 12.4269 2.54834 12.1217 2.19515C11.5886 1.57805 10.9195 1.05959 10.1785 0.718387C9.77597 0.533126 9.37213 0.358527 8.94829 0.223913C8.54712 0.0972955 8.12861 0.0319876 7.70877 0.00533126C7.63147 0.00266563 7.55817 0 7.48486 0C7.15699 0 6.83045 0.0426501 6.50524 0.0906314C6.15471 0.142611 5.80551 0.197257 5.45632 0.257233C5.29505 0.28389 5.13378 0.323874 4.97384 0.355862C4.60198 0.433165 4.25012 0.555784 3.90492 0.713056C3.54239 0.879658 3.22118 1.12623 2.91197 1.3768C2.5721 1.65269 2.27355 1.97657 1.98833 2.3071C1.7191 2.61898 1.46987 2.95219 1.25795 3.30538C1.13133 3.5173 1.0287 3.73988 0.922078 3.96246C0.778134 4.26234 0.650184 4.57556 0.543559 4.8901C0.44493 5.17932 0.347635 5.46987 0.279661 5.76842C0.145047 6.3482 0.014431 6.93331 0.00643412 7.53307C0.00376848 7.71167 0.00243567 7.8916 -0.000229962 8.0702C-0.00289559 8.23813 0.0157638 8.40873 0.0237607 8.57667C0.0397545 8.91654 0.0810718 9.25507 0.129053 9.59094ZM1.33792 6.91065C1.40856 6.46815 1.51385 6.03366 1.62847 5.60049C1.71777 5.26462 1.84572 4.94208 1.97234 4.61954C2.03631 4.47826 2.10162 4.33831 2.1656 4.19704C2.31887 3.86383 2.52945 3.55728 2.74937 3.26407C3.09857 2.8269 3.47575 2.41773 3.91158 2.0672C4.1275 1.90992 4.35141 1.77398 4.59399 1.66069C4.9965 1.50475 5.42966 1.41412 5.85483 1.34215C6.17071 1.28883 6.48525 1.23952 6.80246 1.1942C6.99572 1.17154 7.18898 1.15289 7.3849 1.14889C7.5675 1.14489 7.75009 1.15688 7.93135 1.17688C8.28189 1.23419 8.61909 1.33548 8.95229 1.4581C9.03493 1.48875 9.11756 1.52341 9.20019 1.55806C9.33348 1.62204 9.46542 1.68601 9.59871 1.74865C9.88793 1.88727 10.1612 2.0512 10.4197 2.24046C10.6143 2.39773 10.8009 2.56434 10.9795 2.74027C11.1648 2.9242 11.3327 3.12412 11.4953 3.32804C11.9271 3.90781 12.2537 4.55556 12.5456 5.21531C12.5922 5.34192 12.6389 5.46854 12.6842 5.59383C12.7855 5.87105 12.8454 6.16294 12.8921 6.45349C12.9068 6.5961 12.9227 6.73872 12.9374 6.88133C12.9787 7.26384 12.9694 7.64903 12.9254 8.03021C12.8881 8.28211 12.8441 8.53535 12.7841 8.78325C12.7175 9.05382 12.6455 9.32038 12.5656 9.58827C12.4349 10.0281 12.271 10.4559 12.0977 10.8811C11.8405 11.4276 11.5793 11.9753 11.2581 12.4885C10.9062 13.0523 10.5223 13.5907 10.1252 14.1225C9.38679 15.1128 8.62708 16.0871 7.91936 17.1C7.7261 17.3786 7.53418 17.6571 7.33026 17.9277C7.13033 18.1943 6.93841 18.4648 6.75448 18.7421C6.59454 18.982 6.4306 19.2205 6.26933 19.4631C5.59093 18.4835 4.8992 17.5145 4.27677 16.4976C3.95823 15.9751 3.66635 15.438 3.37712 14.8982C3.22918 14.6223 3.0839 14.3438 2.94263 14.0625C2.80002 13.7786 2.6694 13.4921 2.53745 13.2042C2.4135 12.907 2.29355 12.6084 2.17892 12.3072C2.04431 11.958 1.94168 11.5955 1.83239 11.237C1.62447 10.5572 1.48586 9.85884 1.37657 9.15911C1.30726 8.40873 1.25128 7.65836 1.33792 6.90798V6.91065Z" fill="#F1EDE4"/>
<path d="M3.2705 9.27625C3.40512 9.59346 3.59038 9.88268 3.77164 10.1732C3.78497 10.1946 3.7983 10.2146 3.81296 10.2359C3.85161 10.3065 3.89159 10.3758 3.93291 10.4451C4.00222 10.5598 4.07152 10.6744 4.14483 10.785C4.29677 11.0142 4.47803 11.2182 4.68595 11.3981C4.89387 11.5767 5.10979 11.738 5.35236 11.8659C5.48564 11.9366 5.62825 11.9925 5.76686 12.0498C5.91214 12.1098 6.05875 12.1591 6.21202 12.1965C6.40262 12.2444 6.59721 12.2658 6.79313 12.2844C6.98639 12.3031 7.17965 12.3164 7.37424 12.3124C7.62614 12.3071 7.88204 12.2644 8.12062 12.1858C8.39251 12.0978 8.65241 11.9592 8.88699 11.7993C9.5414 11.3528 10.0332 10.6957 10.3704 9.98398C10.4597 9.79472 10.5517 9.60013 10.617 9.4002C10.6503 9.30158 10.6823 9.20295 10.7143 9.10432C10.7489 9.00036 10.7716 8.8924 10.7996 8.78711C10.8236 8.69781 10.8369 8.60318 10.8556 8.51255C10.8729 8.42592 10.8862 8.33928 10.8982 8.25132C10.9302 8.03274 10.9528 7.81282 10.9742 7.59291C10.9928 7.39965 10.9982 7.20372 11.0062 7.01047C11.0128 6.82387 11.0115 6.63728 10.9995 6.45068C10.9862 6.24276 10.9662 6.03218 10.9315 5.82693C10.9155 5.72696 10.8982 5.627 10.8822 5.52704C10.8662 5.43375 10.8396 5.34311 10.8182 5.25115C10.7956 5.15252 10.7609 5.05523 10.7303 4.95926C10.6876 4.83131 10.6356 4.70203 10.5757 4.58074C10.553 4.53543 10.5197 4.49544 10.489 4.45413C10.4331 4.37949 10.3744 4.30885 10.3104 4.23954C10.0665 3.97964 9.75331 3.78505 9.44677 3.60779C9.22152 3.47717 8.97095 3.38254 8.71905 3.31857C8.5178 3.26792 8.30854 3.25193 8.10329 3.2306C7.92203 3.21194 7.7381 3.20928 7.5555 3.21061H7.55284C7.4702 3.17995 7.3849 3.15596 7.29827 3.13864C7.17165 3.11198 7.04104 3.10398 6.91175 3.10132C6.89443 3.10132 6.87577 3.10132 6.85844 3.10132C6.73982 3.10132 6.61853 3.10932 6.50258 3.13064C6.23202 3.18129 5.97745 3.27858 5.72688 3.38921C5.46831 3.5025 5.21508 3.64377 4.97917 3.79971C4.89387 3.85569 4.80724 3.913 4.72194 3.96898C4.63131 4.02896 4.54867 4.0996 4.46204 4.16491C4.29544 4.29152 4.14216 4.4328 3.99289 4.58074C3.80363 4.76867 3.63036 4.97926 3.48508 5.2005C3.2705 5.52704 3.14788 5.89223 3.07591 6.26942C2.94929 6.68792 2.89198 7.12909 2.89731 7.56492C2.90131 7.84614 2.93463 8.1287 2.98661 8.40459C3.04259 8.70714 3.15455 8.99103 3.27317 9.27359L3.2705 9.27625ZM3.85827 7.04912C3.89426 6.81188 3.94224 6.57064 4.02621 6.34539C4.07019 6.2241 4.11417 6.10282 4.16215 5.9842C4.16215 5.98287 4.16349 5.98153 4.16482 5.9802C4.26078 5.80693 4.36608 5.639 4.47936 5.4764C4.54467 5.39509 4.61131 5.31646 4.68195 5.23915C4.78458 5.12587 4.90187 5.02191 5.02049 4.92594C5.16976 4.81798 5.32704 4.72469 5.48831 4.63272C5.63758 4.54609 5.79219 4.46745 5.95079 4.39548C6.03743 4.36216 6.12273 4.33284 6.21069 4.30752C6.24401 4.30085 6.276 4.29552 6.30932 4.28886C6.49991 4.26886 6.68784 4.2622 6.87843 4.28353C7.01438 4.30352 7.15299 4.32751 7.28361 4.36483C7.43955 4.40881 7.59415 4.45679 7.74743 4.51144C8.01932 4.60873 8.28988 4.70869 8.55911 4.81399C8.74971 4.90462 8.93097 5.00191 9.1029 5.12453C9.1802 5.19117 9.25218 5.26181 9.31882 5.33912C9.43211 5.49772 9.5294 5.66566 9.6107 5.84292C9.72932 6.14947 9.81462 6.47201 9.86394 6.79722C9.92658 7.32634 9.93058 7.8688 9.86927 8.39926C9.84928 8.52854 9.82662 8.65516 9.79597 8.78178C9.76131 8.93105 9.71067 9.075 9.65335 9.21761C9.56272 9.42286 9.45876 9.61879 9.32681 9.80138C9.24151 9.90667 9.15088 10.008 9.05092 10.0999C8.98828 10.1572 8.92031 10.2119 8.855 10.2652C8.79102 10.3172 8.72571 10.3692 8.65907 10.4198C8.58977 10.4691 8.52046 10.5184 8.45115 10.5678C8.28589 10.685 8.11129 10.7837 7.92736 10.8663C7.79807 10.9183 7.66746 10.9649 7.53551 11.0076C7.4009 11.0502 7.26095 11.0782 7.121 11.0995C6.9544 11.1182 6.78913 11.1235 6.62253 11.1075C6.38396 11.0689 6.15338 11.0102 5.92813 10.9236C5.72288 10.8303 5.53229 10.7144 5.34969 10.5811C5.19775 10.4585 5.05247 10.3252 4.92852 10.1732C4.87388 10.1053 4.8179 10.0386 4.76325 9.97065C4.67929 9.85736 4.59532 9.74407 4.51935 9.62545C4.3954 9.43219 4.27544 9.23893 4.16882 9.03768C4.13816 8.91373 4.10751 8.78844 4.07819 8.66316C4.00222 8.33928 3.91558 8.01674 3.86627 7.68887C3.84228 7.47429 3.83695 7.26503 3.85961 7.05178L3.85827 7.04912Z" fill="#F1EDE4"/>
</svg>
