<svg width="35" height="62" viewBox="0 0 35 62" fill="none" xmlns="http://www.w3.org/2000/svg">
<g clip-path="url(#clip0_177_226665)">
<path d="M0.110454 57.773C-0.0666264 59.2782 0.62694 60.9088 0.995858 61.536L1.21732 61.7573H1.66002L2.43475 61.536L3.65218 60.5399L4.98028 59.1011L7.96852 56.2236L9.96068 54.4527L12.0635 53.1246L15.9372 51.6859L20.5855 49.6937L24.0165 47.9229L27.0047 45.7094L29.5502 42.8318L31.6531 39.8436L32.9812 36.7447L33.8666 33.7564L34.3093 31.875L34.6413 28.3333L34.752 24.7917L34.6413 22.1355L33.9772 18.7046L33.5345 17.1551L32.0958 15.163L31.4317 14.6096L30.657 13.8349L28.2221 12.2854L27.7794 12.0641L27.3367 9.40785L26.7833 6.19826L25.8979 2.21394L25.5659 0.775164V0.443137L25.3446 0.221786H24.3485C24.1714 0.221786 23.7582 0.664488 23.5738 0.885839V3.3207L23.2417 5.75556L22.2457 10.736L20.6962 11.4L19.2574 12.5068L17.4866 14.4989L16.6012 16.0484L15.2731 19.258L14.609 22.9102L14.3877 25.8985L13.2809 32.3177C12.9858 33.4982 12.3734 35.9921 12.2849 36.5233C12.1742 37.1874 11.7315 37.1874 10.8461 39.0689C9.96068 40.9503 6.97244 43.8279 6.64042 44.0493C6.30839 44.2706 3.65218 47.5909 3.0988 48.5869C2.6561 49.3838 1.51238 51.9441 0.995858 53.1246C0.774507 54.0469 0.287535 56.2678 0.110454 57.773Z" fill="#C00A00"/>
<path d="M27.9169 11.9044C28.4327 12.1988 28.9373 12.4777 29.431 12.7721C30.1371 13.1926 30.7945 13.6818 31.3788 14.264C31.4652 14.3481 31.5581 14.4322 31.66 14.492C32.4369 14.9413 32.9637 15.6186 33.3887 16.3845C33.827 17.1725 34.1059 18.0247 34.3405 18.8902C34.6017 19.8597 34.7367 20.8514 34.8319 21.8519C35.0134 23.7599 35.0289 25.6702 34.9581 27.5826C34.9271 28.4459 34.8142 29.307 34.7235 30.1658C34.5353 31.9499 34.1789 33.7074 33.7207 35.4384C33.3378 36.8816 32.7468 38.2495 32.0562 39.571C30.8631 41.8553 29.2583 43.8254 27.4211 45.6205C25.7654 47.2386 23.8706 48.5047 21.7988 49.5229C20.6942 50.0653 19.5676 50.5522 18.421 50.9949C17.2744 51.4376 16.1211 51.8626 14.9723 52.3031C13.6398 52.8144 12.336 53.3922 11.092 54.0938C10.096 54.6561 9.18842 55.34 8.38049 56.1502C7.13649 57.3964 5.89693 58.647 4.65294 59.8932C4.21245 60.3337 3.76753 60.7676 3.31819 61.1992C2.85114 61.6463 2.27563 61.8655 1.64921 61.9695C1.29062 62.0293 0.996221 61.9031 0.754948 61.6308C0.507035 61.3497 0.35873 61.0221 0.272403 60.6635C0.0953224 59.9065 -0.00428547 59.1384 0.000141545 58.3615C0.00456856 57.3743 0.0554793 56.3892 0.192717 55.4109C0.345449 54.3218 0.639846 53.2726 1.03606 52.25C1.41679 51.2716 1.86613 50.3264 2.35089 49.3968C3.03486 48.0842 3.8605 46.8689 4.85879 45.7733C5.59368 44.9653 6.33078 44.1574 7.07452 43.3561C8.17242 42.1763 9.22162 40.9567 10.1823 39.664C11.0942 38.4355 11.7672 37.0808 12.1855 35.6C12.6415 33.993 13.0731 32.3793 13.3852 30.7391C13.6486 29.3534 13.8589 27.9567 14.0183 26.5534C14.1577 25.3315 14.2883 24.1097 14.4344 22.89C14.5097 22.2569 14.6049 21.6261 14.7045 20.9975C14.99 19.2112 15.6076 17.5355 16.4354 15.9352C16.7985 15.2335 17.1925 14.5495 17.6905 13.9297C18.7109 12.6592 19.9217 11.6166 21.3649 10.8529C21.5885 10.7334 21.8475 10.6825 22.1219 10.5895C22.1485 10.4988 22.1928 10.3881 22.2171 10.2708C22.6001 8.56639 22.9387 6.85535 23.1955 5.12881C23.2951 4.46697 23.346 3.80292 23.3482 3.13444C23.3504 2.43719 23.3836 1.73993 23.3925 1.04046C23.3969 0.759347 23.5076 0.542423 23.7245 0.374197C24.2181 -0.00652676 24.7759 -0.0817861 25.3625 0.0775866C25.7012 0.170554 25.8384 0.394118 25.7654 0.730572C25.7322 0.887731 25.741 1.02718 25.7787 1.17549C26.0886 2.39734 26.3962 3.6192 26.7061 4.84106C27.0514 6.19572 27.3237 7.56589 27.4919 8.95376C27.596 9.82809 27.7177 10.7002 27.8372 11.5723C27.8527 11.6897 27.8926 11.807 27.9147 11.9021L27.9169 11.9044ZM23.481 14.472L23.4877 14.4654C23.4744 14.6447 23.4633 14.824 23.4523 14.9701C23.7998 15.3242 24.1163 15.6452 24.4417 15.9794C24.5878 15.8798 24.7184 15.7736 24.8645 15.6983C25.0283 15.6142 25.0681 15.488 25.0548 15.3242C25.0283 14.9457 25.0062 14.5672 24.9796 14.1887C24.9021 13.0842 24.818 11.9796 24.7472 10.8751C24.7295 10.6028 24.7073 10.3261 24.7959 9.98746C24.8512 10.4944 24.8999 10.9304 24.9464 11.3665C24.9951 11.818 25.0438 12.2718 25.088 12.7256C25.1323 13.1638 25.17 13.6021 25.2186 14.0382C25.2696 14.4831 25.2364 14.9369 25.3448 15.4106C25.4975 15.3419 25.6171 15.291 25.7499 15.2313C25.7388 15.0918 25.7278 14.9723 25.7189 14.8528C25.7078 14.7155 25.6946 14.5805 25.6879 14.4433C25.6813 14.3392 25.6237 14.2308 25.7211 14.0692C25.8207 14.4366 25.8539 14.7509 25.8982 15.063C25.9004 15.0852 25.938 15.1029 25.9712 15.1339C26.0354 15.114 26.104 15.0918 26.197 15.063C26.1727 14.8461 26.1527 14.638 26.1262 14.43C26.0996 14.2131 26.0686 13.9961 26.0288 13.7084C26.1948 13.8832 26.2081 14.0338 26.2369 14.1776C26.2634 14.3127 26.2856 14.4455 26.3165 14.5805C26.3475 14.7177 26.3365 14.8727 26.4339 14.9789C26.4848 14.9701 26.5113 14.9701 26.5135 14.9634C26.6287 14.6513 26.4516 14.3459 26.5202 14.0271C26.5999 14.3127 26.6773 14.6004 26.7526 14.8727C26.912 14.897 27.0027 14.855 26.9939 14.7177C26.9784 14.461 26.9474 14.2064 26.923 13.9496C27.0027 14.1466 27.0359 14.3525 27.0824 14.5561C27.1023 14.638 27.151 14.7133 27.1909 14.7974C27.348 14.7686 27.4831 14.7531 27.6137 14.7199C27.7531 14.6845 27.9191 14.7045 28.0364 14.565C28.0232 14.4875 28.0165 14.4123 27.9988 14.3414C27.5561 12.6016 27.3082 10.8264 27.0492 9.05336C26.8699 7.82044 26.6574 6.59416 26.383 5.37894C26.0886 4.07518 25.73 2.78692 25.5551 1.45882C25.544 1.37913 25.502 1.30166 25.471 1.21533C25.2275 1.33707 25.0128 1.44553 24.7804 1.56285C24.9375 2.35529 25.0615 3.1433 25.0615 3.94459C24.8578 3.17207 24.7759 2.37521 24.6166 1.60269C24.3731 1.60491 24.3399 1.62483 24.3465 1.76428C24.3487 1.83954 24.362 1.9148 24.3709 1.99006C24.3908 2.17821 24.3952 2.36635 24.3642 2.60541C24.1805 2.26011 24.3155 1.91701 24.1672 1.61155C24.0278 1.55621 23.8817 1.50087 23.7002 1.50973C23.7068 1.69123 23.7112 1.84175 23.7179 1.99227C23.7821 3.23848 23.7445 4.47583 23.5452 5.71318C23.1977 7.87135 22.7484 10.0096 22.2703 12.1434C22.1286 12.7809 21.9714 13.414 21.7457 14.0293C21.7324 14.067 21.739 14.1112 21.7368 14.1644C22.0157 14.2529 22.2857 14.3392 22.5735 14.4322C22.6687 14.0138 22.589 13.5955 22.7395 13.1063C22.7594 13.2723 22.7749 13.3431 22.7727 13.414C22.7617 13.7482 22.7462 14.0802 22.7351 14.4145C22.7329 14.4986 22.7594 14.5628 22.8657 14.5274C22.9077 14.3392 22.9476 14.1533 23.0029 13.9032C23.1092 14.1466 23.0361 14.3282 23.0317 14.5052C23.0273 14.731 23.0228 14.7332 23.2973 14.824C23.408 14.7377 23.3217 14.5451 23.4766 14.4831L23.481 14.472ZM21.3029 12.1257L21.3162 12.1346C21.3716 12.0881 21.4203 12.0305 21.48 11.9929C21.5841 11.9331 21.7014 11.8911 21.8054 11.8313C21.894 11.7804 21.9272 11.7029 21.8563 11.579C21.5597 11.5568 21.2742 11.7184 20.9089 11.7295C21.2565 11.4639 21.6217 11.4152 21.9847 11.32C22.0046 11.196 22.0223 11.0854 22.0423 10.957C21.8209 10.9503 21.6615 11.03 21.5022 11.1208C19.9018 12.0505 18.5648 13.2657 17.5422 14.8129C17.2744 15.218 17.0442 15.6474 16.8206 16.079C16.0769 17.5156 15.5168 19.0208 15.2114 20.6123C15.0741 21.3273 14.9723 22.0489 14.886 22.7727C14.7355 24.0388 14.6115 25.3072 14.4721 26.5733C14.3193 27.9767 14.1046 29.3712 13.8501 30.7612C13.5291 32.5099 13.0776 34.2276 12.5817 35.9342C12.1589 37.3929 11.4971 38.7432 10.594 39.9562C9.60456 41.2843 8.52879 42.5415 7.39769 43.7501C6.68272 44.5138 5.96776 45.2819 5.27493 46.0654C4.72377 46.6919 4.18146 47.3271 3.7299 48.0332C2.77588 49.5229 2.00115 51.1012 1.36588 52.748C1.0427 53.5847 0.812499 54.448 0.679689 55.34C0.52917 56.3649 0.478259 57.3942 0.476046 58.4257C0.473832 59.1251 0.546878 59.8202 0.712891 60.5019C0.78151 60.7853 0.874478 61.0553 1.06705 61.2811C1.21093 61.4538 1.38358 61.5357 1.616 61.5489C2.17381 61.5821 2.62536 61.3696 3.01051 60.9956C3.42223 60.5927 3.8273 60.181 4.23016 59.7671C5.51178 58.4522 6.78897 57.133 8.07059 55.8159C8.94493 54.9173 9.93658 54.1735 11.0278 53.5604C12.128 52.9428 13.2657 52.4071 14.4411 51.9489C15.7426 51.4443 17.0486 50.9484 18.3501 50.446C19.6251 49.9546 20.8735 49.4012 22.0887 48.777C23.9083 47.8429 25.575 46.6941 27.0448 45.2642C28.8532 43.5066 30.4292 41.572 31.6002 39.3275C32.3129 37.964 32.915 36.554 33.2891 35.0599C33.6809 33.4994 34.0019 31.9233 34.1767 30.3208C34.2719 29.4619 34.3959 28.6031 34.4468 27.7398C34.5597 25.8295 34.5198 23.9171 34.3449 22.009C34.2387 20.858 34.055 19.7203 33.7252 18.6091C33.2869 17.126 32.5764 15.8046 31.4585 14.7177C31.2305 14.4964 31.0092 14.264 30.7546 14.0758C29.9467 13.4782 29.0613 13.0045 28.198 12.4998C28.1338 12.4622 28.0674 12.4179 27.9789 12.4976C28.001 12.7256 28.0232 12.9624 28.1206 13.1948C28.3176 13.2413 28.5101 13.2812 28.7005 13.3299C28.9993 13.4073 28.9993 13.4095 29.1985 13.5911C29.006 13.5689 28.8444 13.5468 28.6806 13.5335C28.5079 13.5224 28.3353 13.4428 28.0896 13.5335C28.2025 13.5844 28.2489 13.6154 28.2999 13.6287C28.4924 13.673 28.685 13.7084 28.8776 13.7526C28.9373 13.7659 29.0215 13.7681 29.0215 13.8677C28.7492 13.9098 28.4902 13.7726 28.1471 13.8722C28.426 13.9563 28.6275 14.016 28.8311 14.078L28.8222 14.1068C28.6319 14.1024 28.4415 14.0979 28.2379 14.0913C28.2135 14.2706 28.2025 14.4145 28.3043 14.5628C28.809 14.5938 29.3402 14.4455 29.8294 14.7266C29.3247 14.7199 28.8333 14.8041 28.3441 14.8948C27.3237 15.0807 26.3343 15.3619 25.4024 15.8267C25.1345 15.9617 24.8578 16.0901 24.6431 16.3181C24.6852 16.4664 24.7272 16.6059 24.7715 16.763C24.6166 16.7475 24.5767 16.6391 24.5059 16.5682C24.2381 16.2982 23.9791 16.0215 23.7024 15.7625C23.3682 15.4504 22.9985 15.1826 22.5868 14.9811C21.936 14.6624 21.2653 14.4477 20.526 14.5561C20.4994 14.5606 20.4707 14.5362 20.4441 14.5274C20.4286 14.3569 20.4353 14.3304 20.4884 14.2927C20.6278 14.1931 20.785 14.1444 20.9554 14.1312C21.1192 14.1179 21.283 14.1046 21.4513 14.0913C21.5132 13.839 21.5641 13.611 21.5332 13.3409C21.2476 13.4361 21.013 13.5733 20.65 13.653C20.8005 13.5379 20.8647 13.4737 20.9421 13.4317C21.1414 13.321 21.3472 13.2258 21.5464 13.1152C21.6128 13.0775 21.646 13.0045 21.5509 12.9049C21.2653 12.9934 20.9643 13.0864 20.6632 13.1793C20.7872 13.0687 20.9244 12.9868 21.0683 12.9226C21.2476 12.8429 21.438 12.7853 21.6173 12.7034C21.708 12.6614 21.7479 12.5795 21.6483 12.4622C21.4933 12.5131 21.3251 12.5662 21.0838 12.6437C21.283 12.4467 21.4579 12.3825 21.635 12.3205C21.7656 12.274 21.832 12.1899 21.7833 12.0239C21.6239 12.0571 21.4623 12.0903 21.3007 12.1235L21.3029 12.1257ZM24.7029 1.1113C24.942 1.05374 25.1677 0.971844 25.347 0.794763C25.5241 0.619896 25.4798 0.433961 25.2452 0.334354C25.0836 0.265735 24.9198 0.272375 24.7538 0.305578C24.4373 0.365343 24.134 0.456097 23.9016 0.697369C23.7201 0.885517 23.771 1.06038 24.0278 1.129C24.2536 1.19098 24.4793 1.16442 24.7029 1.1113Z" fill="#891812"/>
<path d="M24.4297 28.0938C24.5116 27.5736 24.6046 27.0535 24.6754 26.5311C24.7484 26.0065 24.8082 25.4796 24.8591 24.9506C24.9078 24.4371 24.9432 23.9236 24.9698 23.41C24.9963 22.881 25.0141 22.3497 25.0229 21.8207C25.0318 21.2961 24.9875 20.7715 25.0118 20.227C25.1579 20.2668 25.1314 20.3532 25.1402 20.4129C25.2708 21.316 25.2686 22.2258 25.2221 23.1355C25.1446 24.6673 24.9654 26.1858 24.6046 27.6777C24.5691 27.8238 24.5293 27.9698 24.4917 28.1159C24.4717 28.1093 24.4518 28.1027 24.4319 28.096L24.4297 28.0938Z" fill="#891812"/>
<path d="M9.74714 49.6226C9.74714 49.4699 9.86666 49.3858 9.95078 49.2861C10.5196 48.6132 11.1461 47.9957 11.8256 47.4357C12.9235 46.5281 14.0281 45.6294 15.1282 44.7263C15.3849 44.516 15.6395 44.3013 15.894 44.0888L15.883 44.08C15.8719 44.1309 15.8763 44.2017 15.8454 44.2327C15.6439 44.4363 15.4425 44.6444 15.2256 44.8304C14.1697 45.7357 13.1139 46.641 12.047 47.533C11.3364 48.1241 10.668 48.7571 10.0194 49.4123C9.9375 49.4942 9.88437 49.6204 9.73828 49.616L9.74935 49.6226H9.74714Z" fill="#891812"/>
<path d="M21.0434 48.3409C21.0434 48.2988 21.0301 48.2346 21.05 48.2191C21.1474 48.1483 21.2537 48.0885 21.3599 48.0287C21.9111 47.7122 22.4645 47.3957 23.0178 47.0792C23.9984 46.5191 24.8838 45.8352 25.6873 45.0427C25.9131 44.8214 26.1433 44.6067 26.4466 44.3167C26.4089 44.4384 26.4045 44.4716 26.389 44.4982C26.3647 44.5358 26.3315 44.569 26.3027 44.6022C25.3885 45.6514 24.346 46.5479 23.1241 47.2208C22.4357 47.6015 21.7384 47.9668 21.0434 48.3409Z" fill="#891812"/>
<path d="M33.2344 30.0194C33.2366 29.964 33.2344 29.9065 33.2432 29.8511C33.4026 28.9989 33.4292 28.1357 33.4491 27.2702C33.4668 26.5287 33.5266 25.7871 33.5664 25.0456C33.5819 24.7601 33.5952 24.4745 33.6483 24.1823C33.6704 24.2731 33.7103 24.3616 33.7103 24.4524C33.7147 24.9681 33.7169 25.4839 33.7036 25.9974C33.6837 26.7257 33.6527 27.4517 33.6217 28.1799C33.5974 28.7267 33.5044 29.2646 33.3561 29.7914C33.334 29.8711 33.3074 29.9485 33.2809 30.0282C33.2654 30.026 33.2499 30.0238 33.2366 30.0194H33.2344Z" fill="#891812"/>
<path d="M32.5914 20.1143C32.2262 18.8017 31.8831 17.4846 31.25 16.2539C31.2987 16.2982 31.3629 16.3314 31.3939 16.3845C31.5134 16.5771 31.6374 16.7697 31.7303 16.9777C32.0579 17.7148 32.3258 18.4718 32.4741 19.2665C32.5272 19.5476 32.5538 19.8331 32.5914 20.1165V20.1143Z" fill="#891812"/>
<path d="M15.6067 50.4282C15.6289 50.5013 15.5846 50.5367 15.5292 50.5654C15.1242 50.7691 14.7324 51.0015 14.314 51.1719C13.6987 51.4243 13.1032 51.7187 12.5056 52.0064C12.3684 52.0728 12.2333 52.1304 12.043 52.1193C13.1984 51.4309 14.3959 50.9063 15.6134 50.4216L15.6089 50.4282H15.6067Z" fill="#891812"/>
<path d="M14.65 30.2125C14.6124 31.1599 14.4375 32.0874 14.1852 32.9993C14.1277 33.2096 14.1122 33.4442 13.9329 33.608L13.9218 33.6036C13.9218 33.5151 13.9107 33.4243 13.9262 33.3402C14.1232 32.3508 14.3247 31.3635 14.5239 30.3763C14.5394 30.3055 14.5416 30.2236 14.6434 30.2169V30.2125H14.65Z" fill="#891812"/>
<path d="M8.01562 50.3461C8.08424 50.2531 8.14622 50.1557 8.22369 50.0694C8.82798 49.3899 9.36587 48.6528 10.0432 48.0396C10.1428 47.9489 10.2579 47.8758 10.3664 47.7939C10.373 47.7895 10.3929 47.8006 10.4306 47.8094C9.64919 48.6771 8.87225 49.5359 8.09752 50.3948C8.07096 50.3793 8.0444 50.3616 8.01562 50.3461Z" fill="#891812"/>
<path d="M1.18602 56.1724C1.12625 55.8825 1.20151 55.6036 1.25685 55.3247C1.38302 54.6872 1.61987 54.0851 1.85671 53.4852C1.8877 53.41 1.95853 53.3502 2.01166 53.2816L2.00059 53.2749C1.99616 53.3325 2.00502 53.3967 1.98731 53.4498C1.70177 54.2976 1.44057 55.152 1.26792 56.033C1.25907 56.0795 1.20594 56.1193 1.17274 56.1614L1.18602 56.168V56.1724Z" fill="#891812"/>
<path d="M1.16037 60.3446C0.854902 59.6761 0.852689 58.3126 1.12495 57.8455C1.13823 58.6955 1.1493 59.5189 1.16037 60.3446Z" fill="#891812"/>
<path d="M21.8743 47.3583C21.8456 47.2565 21.9363 47.2366 21.9895 47.1945C22.3148 46.9488 22.6469 46.712 22.9656 46.4574C23.2467 46.2316 23.5123 45.9859 23.7868 45.7491C23.8842 45.7978 23.8156 45.8553 23.7868 45.8885C23.6629 46.0391 23.5411 46.1962 23.3972 46.329C23.0187 46.6788 22.6004 46.9776 22.1577 47.2388C22.0691 47.2919 21.9629 47.314 21.8633 47.3495L21.8743 47.3561V47.3583Z" fill="#891812"/>
<path d="M31.5452 37.1095C31.5651 37.0077 31.574 36.9015 31.6094 36.8041C31.8684 36.078 32.1296 35.3542 32.393 34.6304C32.4173 34.5662 32.4726 34.5131 32.5147 34.4555L32.5036 34.4489C32.5081 34.5064 32.5324 34.5729 32.5147 34.6216C32.2269 35.4361 31.9325 36.2485 31.6382 37.0631C31.6293 37.0896 31.5983 37.1073 31.5784 37.1272L31.543 37.1095H31.5452Z" fill="#891812"/>
<path d="M3.51554 49.6911C3.43143 50.0608 2.82935 51.3247 2.45084 51.9091C2.42871 51.7497 2.4774 51.6434 2.51946 51.5394C2.77401 50.8731 3.24106 50.0077 3.51775 49.6911H3.51554Z" fill="#891812"/>
<path d="M18.2984 41.8574C18.3007 41.8176 18.2896 41.7622 18.3095 41.7401C18.9337 41.1292 19.5004 40.4651 20.0449 39.7812C20.0781 39.7391 20.1401 39.7192 20.1888 39.6882L20.1777 39.6815C20.1733 39.7236 20.1821 39.7745 20.16 39.8033C19.6509 40.5293 19.0732 41.1978 18.4025 41.7822C18.3693 41.8109 18.325 41.8264 18.2852 41.8486L18.2962 41.8574H18.2984Z" fill="#891812"/>
<path d="M9.56575 42.1915C9.56575 42.1516 9.54362 42.0985 9.56354 42.0719C9.63216 41.9745 9.71406 41.886 9.79153 41.793C9.9664 41.5872 10.1501 41.3857 10.3183 41.1755C10.4755 40.9762 10.6216 40.766 10.7699 40.5645C10.8629 40.6132 10.8252 40.6708 10.8009 40.7217C10.5131 41.3171 10.0616 41.7753 9.55469 42.1848L9.56575 42.1937V42.1915Z" fill="#891812"/>
<path d="M15.4082 21.9005C15.4193 21.9426 15.4436 21.9869 15.4392 22.0289C15.3639 22.6376 15.2865 23.2463 15.2068 23.8551C15.2001 23.9148 15.1868 23.9768 15.1581 24.0255C15.1404 24.0543 15.085 24.0587 15.0452 24.0764L15.043 24.0786C15.1227 23.4411 15.2023 22.8036 15.2887 22.1684C15.3019 22.071 15.2931 21.9537 15.4148 21.9027L15.4082 21.9005Z" fill="#891812"/>
<path d="M6.77325 45.6982C6.76882 45.6429 6.74005 45.5765 6.76218 45.5367C6.8463 45.3928 6.93926 45.2533 7.0433 45.1227C7.32663 44.7664 7.61881 44.4166 7.90657 44.0647C7.93977 44.0226 7.98404 43.9894 8.03495 43.9407C8.08808 44.0757 8.00618 44.1399 7.95969 44.1997C7.69186 44.5494 7.41738 44.8925 7.14291 45.2356C7.01895 45.3884 6.89057 45.5367 6.76218 45.6894L6.77325 45.6982Z" fill="#891812"/>
<path d="M24.247 23.1378C24.2337 23.0935 24.2116 23.0515 24.2094 23.0072C24.1895 22.3277 24.1717 21.6459 24.1562 20.9664C24.1562 20.8933 24.1585 20.8203 24.1629 20.6852C24.2116 20.776 24.2426 20.807 24.2448 20.8424C24.3156 21.5507 24.3665 22.259 24.2935 22.9718C24.2868 23.0271 24.2536 23.078 24.2337 23.1312L24.247 23.1378Z" fill="#891812"/>
<path d="M14.8744 27.3879C14.8789 27.5075 14.8921 27.6292 14.8833 27.7465C14.8479 28.3021 14.797 28.8577 14.6332 29.4067C14.6243 29.3491 14.6 29.2893 14.6066 29.2318C14.6664 28.6607 14.7306 28.0918 14.7925 27.5208C14.7992 27.461 14.8058 27.4012 14.8833 27.3924L14.8722 27.3857L14.8744 27.3879Z" fill="#891812"/>
<path d="M32.5859 17.1812C32.9578 17.6748 33.2456 18.5624 33.2411 19.1645C33.022 18.5004 32.8139 17.8762 32.5859 17.1812Z" fill="#891812"/>
<path d="M19.7295 13.0132C19.3555 13.4337 19.0345 13.8986 18.5586 14.3147C18.7799 13.8233 19.3444 13.188 19.7295 13.0132Z" fill="#891812"/>
<path d="M11.2202 52.5844C11.2025 52.6309 11.2002 52.6707 11.1825 52.6818C10.7221 52.9673 10.2595 53.2506 9.73047 53.5738C9.85885 53.3348 10.0271 53.2484 10.1732 53.1444C10.3325 53.0293 10.4986 52.9208 10.6712 52.8301C10.8439 52.7393 11.0276 52.6707 11.2202 52.5866V52.5844Z" fill="#891812"/>
<path d="M16.9688 16.8669C17.0086 16.3932 17.3163 15.6982 17.6549 15.3285C17.4314 15.904 17.2078 16.3888 16.9688 16.8669Z" fill="#891812"/>
<path d="M25.7786 20.6985C25.8516 21.3515 25.8915 21.9315 25.8472 22.5535C25.7299 22.1794 25.6812 21.0704 25.7786 20.6985Z" fill="#891812"/>
<path d="M31.5465 18.2817C31.3561 17.7151 31.1503 17.1528 30.8359 16.5641C31.199 16.8607 31.4535 17.4893 31.5465 18.2817Z" fill="#891812"/>
<path d="M28.5195 42.648C28.7763 42.2982 29.0331 41.9485 29.3075 41.5722C29.2057 41.9529 28.8892 42.4178 28.5195 42.648Z" fill="#891812"/>
<path d="M1.48913 59.7029C1.53783 60.0815 1.58874 60.4578 1.63965 60.8429C1.58431 60.8363 1.53562 60.8363 1.53562 60.8274C1.48913 60.5042 1.44486 60.1789 1.40723 59.8557C1.40059 59.807 1.42937 59.7539 1.44044 59.7007C1.45593 59.7007 1.47142 59.7007 1.48913 59.7007V59.7029Z" fill="#891812"/>
<path d="M32.3375 16.544C32.322 16.5462 32.3021 16.5595 32.2932 16.5529C32.0387 16.3559 31.8527 16.1058 31.7553 15.7981C31.7487 15.7759 31.7664 15.745 31.7819 15.6874C32.0719 15.9243 32.1848 16.2519 32.3309 16.5573L32.3375 16.5462V16.544Z" fill="#891812"/>
<path d="M20.3828 15.8026C20.5577 15.4484 20.7945 15.1562 21.1487 14.9791C21.1775 15.0057 21.193 15.0123 21.193 15.019C21.193 15.0323 21.1885 15.0522 21.1797 15.061C20.9296 15.3178 20.6794 15.5746 20.4271 15.8291C20.4138 15.8203 20.3983 15.8092 20.385 15.8004L20.3828 15.8026Z" fill="#891812"/>
<path d="M29.5043 15.8376C29.2984 15.6915 29.0904 15.5476 28.8867 15.3993C28.8579 15.3772 28.8447 15.3307 28.8203 15.2887C29.1103 15.313 29.2674 15.4237 29.5043 15.8376Z" fill="#891812"/>
<path d="M20.8047 16.3224C20.9397 15.82 21.046 15.6717 21.4333 15.3861C21.2917 15.5986 21.1965 15.7381 21.1013 15.8797C21.0017 16.028 20.9043 16.1741 20.8047 16.3224Z" fill="#891812"/>
<path d="M27.6256 16.1167C27.3977 15.9861 27.2006 15.8223 27.1055 15.5235C27.3121 15.6474 27.4855 15.8452 27.6256 16.1167Z" fill="#891812"/>
<path d="M31.0255 18.0003C30.8396 17.5797 30.6913 17.2455 30.543 16.909C30.8374 17.1813 30.9901 17.5155 31.0255 18.0003Z" fill="#891812"/>
<path d="M29.9414 16.7672C30.2734 17.0019 30.3575 17.1303 30.466 17.553C30.2225 17.2963 30.0986 17.0262 29.9414 16.7672Z" fill="#891812"/>
<path d="M29.5312 15.3618C29.8721 15.4082 30.0957 15.6185 30.317 15.8288C30.3038 15.8532 30.3016 15.8709 30.2905 15.8775C30.2816 15.8819 30.2617 15.8775 30.2529 15.8709C30.0116 15.7004 29.7725 15.53 29.5312 15.3595V15.3618Z" fill="#891812"/>
<path d="M28.4536 15.9287C28.2256 15.7914 28.0021 15.6409 27.8516 15.2912C28.1947 15.4616 28.3407 15.6763 28.4536 15.9287Z" fill="#891812"/>
<path d="M28.0331 16.0236C27.9357 15.9329 27.8339 15.8465 27.7409 15.7514C27.6811 15.6894 27.6346 15.6163 27.5859 15.5566C27.6457 15.4592 27.7033 15.4857 27.752 15.5234C27.9091 15.6429 28.0286 15.7912 28.0331 16.0236Z" fill="#891812"/>
<path d="M22.9279 16.159C22.9899 16.5242 22.9634 16.6482 22.7796 16.8053C22.7177 16.4246 22.7464 16.3006 22.9279 16.159Z" fill="#891812"/>
<path d="M21.2188 16.3688C21.3139 16.0766 21.449 15.8066 21.7035 15.614C21.5973 15.904 21.4999 16.1962 21.263 16.4064C21.263 16.4064 21.2409 16.3887 21.2188 16.3688Z" fill="#891812"/>
<path d="M23.773 20.7387C23.8284 21.0752 23.8306 21.4116 23.7885 21.7437C23.7398 21.7636 23.7 21.7813 23.6602 21.799C23.7531 21.6485 23.7022 21.4825 23.7089 21.3231C23.7133 21.1593 23.7022 20.9955 23.7089 20.8339C23.7089 20.8029 23.7576 20.7719 23.7841 20.7432L23.7708 20.7365L23.773 20.7387Z" fill="#891812"/>
<path d="M29.0167 15.8291C28.9768 15.8513 28.9392 15.8734 28.8816 15.9044C28.6802 15.7406 28.4743 15.5746 28.2773 15.413C28.326 15.2957 28.388 15.3333 28.4279 15.3643C28.5585 15.4639 28.6802 15.5746 28.8064 15.6764C28.8728 15.7317 28.9458 15.7782 29.0167 15.8291Z" fill="#891812"/>
<path d="M5.26953 57.9102C5.36471 57.7818 5.45989 57.6534 5.55286 57.5228C5.61041 57.4409 5.66575 57.359 5.7233 57.2771C5.74101 57.3192 5.76093 57.3612 5.78085 57.4077C5.63255 57.5937 5.52187 57.8172 5.28945 57.9257L5.26953 57.9102Z" fill="#891812"/>
<path d="M22.1452 15.8374C22.0456 16.03 21.9437 16.2248 21.8264 16.4484C21.7556 16.196 21.822 16.0455 22.1452 15.8374Z" fill="#891812"/>
<path d="M22.5191 16.0545C22.4461 16.2427 22.373 16.4286 22.2668 16.6965C22.2358 16.5703 22.2092 16.5216 22.2159 16.4795C22.2446 16.3002 22.3 16.1342 22.5191 16.0545Z" fill="#891812"/>
<path d="M26.7305 15.6937C26.9673 15.8509 27.0359 16.0036 27.0891 16.2073C26.8544 16.0413 26.8589 16.039 26.7305 15.6937Z" fill="#891812"/>
<path d="M9.16575 48.21C9.11041 48.4092 8.9776 48.5598 8.83594 48.7236C8.83889 48.5878 8.94883 48.4166 9.16575 48.21Z" fill="#891812"/>
<path d="M20.1868 39.6881C20.1868 39.6593 20.1802 39.6239 20.1935 39.604C20.2865 39.4689 20.3839 39.3361 20.5167 39.148C20.4414 39.3841 20.3278 39.5619 20.1758 39.6814L20.1868 39.6881Z" fill="#891812"/>
<path d="M25.9864 16.1653C25.9996 16.3114 26.0107 16.4353 26.024 16.5726C25.7805 16.4331 25.7694 16.349 25.9864 16.1653Z" fill="#891812"/>
<path d="M26.2656 15.8488C26.5069 15.9462 26.5733 16.0613 26.6131 16.2539C26.4117 16.1897 26.3475 16.0724 26.2656 15.8488Z" fill="#891812"/>
<path d="M31.3314 37.729C31.3557 37.5054 31.4177 37.2952 31.5483 37.1092L31.5837 37.1269C31.5881 37.3394 31.4863 37.5187 31.3956 37.7002C31.3867 37.7157 31.3469 37.7157 31.3203 37.7224L31.3314 37.729Z" fill="#891812"/>
<path d="M1.95976 60.0438C2.01731 60.243 2.07486 60.4422 2.07707 60.6791C1.89114 60.4732 1.86679 60.2829 1.97304 60.0504L1.96197 60.046L1.95976 60.0438Z" fill="#891812"/>
<path d="M23.4112 16.8605C23.305 16.7034 23.2983 16.5683 23.4046 16.3913C23.5241 16.5661 23.4997 16.7012 23.4112 16.8605Z" fill="#891812"/>
<path d="M20.4297 15.8311C20.3633 15.9373 20.2947 16.0436 20.215 16.1675C20.1442 16.0568 20.2106 16.0081 20.2438 15.9572C20.2814 15.8997 20.3368 15.8532 20.3855 15.8001C20.3987 15.8089 20.4142 15.82 20.4275 15.8289L20.4297 15.8311Z" fill="#891812"/>
<path d="M19.5676 15.8159C19.4879 15.931 19.406 16.0461 19.3263 16.1612C19.2953 15.973 19.3905 15.8623 19.4857 15.7539C19.5122 15.7738 19.5388 15.7959 19.5676 15.8159Z" fill="#891812"/>
<path d="M21.4805 37.2156C21.5225 37.1271 21.5646 37.0363 21.631 36.8947C21.6753 37.0695 21.5911 37.1514 21.4805 37.2156Z" fill="#891812"/>
<path d="M19.1406 15.7537C19.176 15.6784 19.2115 15.6032 19.2469 15.5279C19.3443 15.6718 19.2646 15.7293 19.1406 15.7537Z" fill="#891812"/>
<path d="M21.9025 36.3636C21.9357 36.5075 21.8449 36.6093 21.7852 36.7554C21.7925 36.6181 21.8361 36.4905 21.9158 36.3724L21.9025 36.3658V36.3636Z" fill="#891812"/>
<path d="M8.44141 49.1574C8.48568 49.0954 8.52773 49.0312 8.57864 48.9582C8.65169 49.1065 8.52109 49.1176 8.44141 49.1574Z" fill="#891812"/>
<path d="M9.7388 49.6158C9.75651 49.7708 9.62591 49.8172 9.53516 49.8903C9.55508 49.7597 9.61706 49.6645 9.74987 49.6225L9.7388 49.6158Z" fill="#891812"/>
<path d="M19.6211 15.5723C19.7141 15.4218 19.7539 15.3598 19.7937 15.2956C19.8978 15.3642 19.8159 15.4085 19.8004 15.4461C19.7871 15.4749 19.7428 15.4904 19.6211 15.5723Z" fill="#891812"/>
<path d="M32.332 16.5549C32.3652 16.6169 32.3962 16.6788 32.4294 16.7408C32.4161 16.7452 32.4007 16.7519 32.3874 16.7563C32.3697 16.6855 32.3542 16.6146 32.3365 16.5438L32.332 16.5549Z" fill="#891812"/>
<path d="M21.8637 47.3517C21.826 47.458 21.7375 47.4425 21.6445 47.4137C21.7198 47.396 21.7973 47.3761 21.8725 47.3584L21.8637 47.3517Z" fill="#891812"/>
<path d="M21.9156 36.3703C21.8957 36.2375 21.9466 36.149 22.075 36.1091V36.1047C22.0197 36.191 21.9599 36.2774 21.9023 36.3615L21.9156 36.3681V36.3703Z" fill="#891812"/>
<path d="M21.0404 48.3429C20.9607 48.3673 20.881 48.3916 20.7305 48.4359C20.8611 48.3274 20.954 48.3518 21.0404 48.3429Z" fill="#891812"/>
<path d="M32.6738 34.1723C32.6074 34.2586 32.6384 34.4025 32.5078 34.449L32.5189 34.4556C32.5056 34.2498 32.5299 34.2099 32.6871 34.1789L32.6738 34.1723Z" fill="#891812"/>
<path d="M6.97738 56.1654C6.92868 56.0127 6.94196 55.9839 7.12347 55.8777L7.11019 55.8688C7.06371 55.9662 7.01944 56.0636 6.97295 56.161L6.97959 56.1654H6.97738Z" fill="#891812"/>
<path d="M21.3503 37.6367C21.3326 37.6212 21.3104 37.6101 21.3127 37.6057C21.3281 37.5636 21.3481 37.5238 21.3658 37.4839C21.3813 37.4972 21.4145 37.5171 21.4123 37.5238C21.3968 37.5614 21.3724 37.599 21.3503 37.6367Z" fill="#891812"/>
<path d="M2.01328 53.2833C2.01992 53.2324 2.02435 53.1815 2.0332 53.1306C2.0332 53.1195 2.05312 53.1129 2.06419 53.104C2.07305 53.1195 2.09297 53.1439 2.08633 53.1527C2.06198 53.197 2.03099 53.2369 2 53.2767L2.01107 53.2833H2.01328Z" fill="#891812"/>
<path d="M6.76246 45.6891C6.71819 45.7223 6.67613 45.7555 6.62522 45.7931C6.6208 45.6714 6.68277 45.6648 6.77131 45.6957L6.76246 45.6891Z" fill="#891812"/>
<path d="M5.29088 57.9253C5.28203 58.0426 5.19791 58.0846 5.04297 58.1953C5.11823 58.016 5.16471 57.9385 5.27096 57.912L5.29088 57.9275V57.9253Z" fill="#891812"/>
<path d="M3.90781 59.5721C3.94544 59.5034 3.98307 59.4326 4.01849 59.364C4.0362 59.3706 4.05169 59.3773 4.0694 59.3839C4.06054 59.4171 4.06276 59.4658 4.04062 59.4835C3.99857 59.5189 3.94323 59.5388 3.89453 59.5632L3.9056 59.5698L3.90781 59.5721Z" fill="#891812"/>
<path d="M4.92562 58.3171C4.92562 58.3171 4.94333 58.3414 4.94112 58.3436C4.92341 58.3658 4.90349 58.3879 4.88357 58.41C4.87693 58.3968 4.86365 58.3791 4.86807 58.3724C4.88357 58.3525 4.9057 58.3348 4.92562 58.3171Z" fill="#891812"/>
<path d="M31.3184 37.7251C31.3228 37.7782 31.3383 37.8335 31.3294 37.8867C31.325 37.9154 31.2829 37.9398 31.2188 37.9398C31.2564 37.8712 31.294 37.8026 31.3316 37.7317L31.3184 37.7251Z" fill="#891812"/>
<path d="M24.1624 23.3789C24.1911 23.2992 24.2199 23.2173 24.2487 23.1376L24.2354 23.131C24.2708 23.2306 24.2841 23.3236 24.1602 23.3745V23.3811L24.1624 23.3789Z" fill="#891812"/>
<path d="M3.8954 59.5659C3.94631 59.6522 3.86884 59.6655 3.82235 59.6943C3.81571 59.6987 3.79137 59.6832 3.78694 59.6721C3.78251 59.6611 3.78694 59.6345 3.79358 59.6301C3.82899 59.608 3.86884 59.5925 3.90647 59.5725L3.8954 59.5659Z" fill="#891812"/>
<path d="M23.7832 20.7427C23.7655 20.7029 23.7433 20.6652 23.7345 20.6254C23.7323 20.6121 23.7633 20.5922 23.7788 20.5745C23.7854 20.5878 23.7987 20.601 23.7965 20.6121C23.7898 20.6542 23.7788 20.6962 23.7699 20.7383L23.7832 20.7449V20.7427Z" fill="#891812"/>
<path d="M14.8856 27.3943C14.8258 27.2947 14.7992 27.1996 14.8966 27.1066L14.8834 27.0977C14.9121 27.1951 14.952 27.2925 14.8767 27.3877L14.8878 27.3943H14.8856Z" fill="#891812"/>
<path d="M23.6602 21.8011C23.7 21.8609 23.7398 21.9207 23.7819 21.9782L23.7332 22.007C23.7089 21.9384 23.6867 21.8698 23.6624 21.8011H23.6602Z" fill="#891812"/>
<path d="M22.079 36.1087L22.0547 36.0047C22.0547 36.0047 22.0569 36.0047 22.0591 36.0047C22.068 36.0379 22.0746 36.0711 22.0835 36.1043L22.0813 36.1087H22.079Z" fill="#891812"/>
<path d="M15.3956 21.6701C15.4199 21.6568 15.4465 21.6413 15.473 21.6302C15.4775 21.6302 15.4885 21.6413 15.4974 21.648C15.4598 21.6546 15.4243 21.659 15.3867 21.6657L15.3978 21.6701H15.3956Z" fill="#891812"/>
<path d="M15.3867 21.6657C15.4908 21.7764 15.493 21.7985 15.4066 21.9003L15.4133 21.9025C15.4089 21.8251 15.4066 21.7498 15.4 21.6701C15.3978 21.6701 15.3867 21.6657 15.3867 21.6657Z" fill="#891812"/>
<path d="M32.6043 33.902C32.6264 33.8909 32.6486 33.8776 32.6707 33.8688C32.6818 33.8644 32.6928 33.8644 32.7039 33.8622C32.6906 33.8732 32.6796 33.8909 32.6641 33.8954C32.6441 33.902 32.6198 33.8998 32.5977 33.8998L32.6065 33.902H32.6043Z" fill="#891812"/>
<path d="M13.9354 33.6077C13.9421 33.621 13.9553 33.6387 13.9509 33.6498C13.9376 33.6807 13.9155 33.7095 13.8978 33.7383C13.8934 33.7007 13.8867 33.6608 13.8867 33.6232C13.8867 33.6166 13.9111 33.6099 13.9266 33.6033L13.9376 33.6077H13.9354Z" fill="#891812"/>
<path d="M32.5977 33.8976C32.6862 33.9706 32.6862 34.0658 32.6707 34.1699C32.6729 34.1699 32.684 34.1765 32.6862 34.1787C32.5866 34.1101 32.6242 33.9994 32.6087 33.9042C32.6065 33.9042 32.5977 33.8998 32.5977 33.8998V33.8976Z" fill="#891812"/>
<path d="M19.3555 13.9474L19.3975 13.9541L19.3621 13.9784L19.3555 13.9474Z" fill="#891812"/>
<path d="M14.6499 30.2166C14.641 30.1944 14.6299 30.1723 14.6211 30.1479C14.6322 30.1679 14.6432 30.19 14.6543 30.2121L14.6521 30.2166H14.6499Z" fill="#891812"/>
<path d="M15.0413 24.0766C15.0546 24.1032 15.0701 24.1275 15.0833 24.1541C15.0678 24.1298 15.0546 24.1054 15.0391 24.0811L15.0413 24.0766Z" fill="#891812"/>
<path d="M23.7103 22.3233L23.6992 22.2968L23.7214 22.299L23.7103 22.3233Z" fill="#891812"/>
<path d="M21.3065 12.1258C21.291 12.1501 21.2733 12.1722 21.2578 12.1966C21.2777 12.1767 21.2999 12.1545 21.3198 12.1346L21.3065 12.1258Z" fill="#891812"/>
<path d="M1.97083 60.0481C1.96419 60.0127 1.95755 59.9773 1.95312 59.9419C1.96641 59.9419 1.97969 59.9419 1.99075 59.9441C1.97969 59.9773 1.96862 60.0083 1.95977 60.0415L1.97083 60.0459V60.0481Z" fill="#891812"/>
<path d="M29.0182 15.8289C29.0182 15.8532 29.0116 15.8798 29.0116 15.9041C29.0116 15.9174 29.0182 15.9307 29.0204 15.944C29.0072 15.9285 28.9784 15.913 28.9806 15.9019C28.985 15.8754 29.0027 15.8532 29.016 15.8267L29.0182 15.8289Z" fill="#891812"/>
<path d="M9.55065 42.1827C9.53516 42.2026 9.52187 42.2247 9.50417 42.2424C9.49753 42.2491 9.48203 42.2424 9.46875 42.2424C9.47539 42.2225 9.47539 42.1893 9.48646 42.1849C9.50638 42.1783 9.53516 42.1849 9.5595 42.1893L9.54844 42.1805L9.55065 42.1827Z" fill="#891812"/>
<path d="M18.2853 41.8488C18.2499 41.9285 18.1857 41.9595 18.1016 41.9595L18.1148 41.9683C18.1348 41.8665 18.2012 41.8377 18.2964 41.8577L18.2853 41.851V41.8488Z" fill="#891812"/>
<path d="M18.1017 41.9596C18.0973 41.9861 18.0951 42.0127 18.0884 42.0393C18.0884 42.0437 18.0641 42.0415 18.0508 42.0437C18.0729 42.0193 18.0951 41.995 18.1172 41.9684L18.1039 41.9596H18.1017Z" fill="#891812"/>
<path d="M16.2156 43.7813C16.2156 43.7813 16.2156 43.8056 16.209 43.8079C16.2001 43.8123 16.1868 43.8079 16.1758 43.8079C16.1758 43.799 16.1758 43.7813 16.1802 43.7813C16.1913 43.7769 16.2046 43.7813 16.2156 43.7813Z" fill="#891812"/>
<path d="M15.8939 44.0885C15.9072 44.0641 15.9204 44.0375 15.9382 44.0154C15.9448 44.0088 15.9647 44.0132 15.9802 44.011C15.9758 44.0331 15.9802 44.0708 15.9669 44.0774C15.9426 44.0885 15.9116 44.0796 15.8828 44.0796L15.8939 44.0885Z" fill="#891812"/>
<path d="M5.72487 57.2768C5.75143 57.2746 5.77799 57.2724 5.80456 57.2679C5.81784 57.2657 5.83333 57.2613 5.84661 57.2569C5.83333 57.2746 5.82005 57.3034 5.80456 57.3034C5.77799 57.3034 5.74922 57.2879 5.72266 57.2768H5.72487Z" fill="#891812"/>
<path d="M6.60547 56.4138L6.64088 56.4226L6.60768 56.4426L6.60547 56.4138Z" fill="#891812"/>
<path d="M6.97161 56.1612C6.94505 56.1701 6.91849 56.1833 6.88971 56.19C6.87643 56.1944 6.86315 56.1922 6.84766 56.1922C6.86094 56.1723 6.872 56.1391 6.8875 56.1391C6.91406 56.1391 6.94505 56.1546 6.97383 56.1634L6.9694 56.159L6.97161 56.1612Z" fill="#891812"/>
<path d="M14.8944 27.1046C14.8988 27.0714 14.9055 27.036 14.9099 27.0028C14.9165 27.0139 14.932 27.0271 14.9276 27.0338C14.9143 27.0559 14.8966 27.0758 14.8789 27.098L14.8944 27.1068V27.1046Z" fill="#891812"/>
<path d="M7.12266 55.8776C7.13372 55.8554 7.14479 55.8311 7.15807 55.8112C7.16029 55.8067 7.17799 55.8156 7.18906 55.8156C7.1625 55.8333 7.13594 55.851 7.10938 55.8687L7.12266 55.8776Z" fill="#891812"/>
<path d="M8.03125 54.851C8.03789 54.882 8.04453 54.913 8.05338 54.944C8.04674 54.913 8.0401 54.882 8.03346 54.851H8.03125Z" fill="#891812"/>
<path d="M8.23268 54.7402C8.23932 54.9129 8.11758 54.8465 8.03125 54.8509C8.10208 54.8155 8.17291 54.7823 8.24375 54.7469L8.23268 54.7402Z" fill="#891812"/>
<path d="M8.41588 54.625C8.39817 54.7291 8.32513 54.749 8.23438 54.7424C8.23438 54.7424 8.24766 54.749 8.24544 54.749C8.30521 54.7114 8.36719 54.6715 8.42916 54.6339L8.4181 54.625H8.41588Z" fill="#891812"/>
<path d="M8.58672 54.5054C8.52916 54.5453 8.47161 54.5851 8.41406 54.6227L8.42513 54.6316C8.42513 54.5076 8.51588 54.5165 8.6 54.5143L8.5845 54.5054H8.58672Z" fill="#891812"/>
<path d="M8.60534 54.5166C8.62305 54.4569 8.63854 54.3993 8.65625 54.3396C8.67617 54.4126 8.66953 54.4724 8.58984 54.5056L8.60534 54.5166Z" fill="#891812"/>
<path d="M24.1602 23.3728C24.1757 23.4104 24.1911 23.448 24.169 23.3927C24.1867 23.4547 24.1757 23.4193 24.1646 23.3816C24.1646 23.3794 24.1602 23.3728 24.1602 23.3728Z" fill="#891812"/>
<path d="M1.16868 56.1657C1.17532 56.1989 1.18196 56.2321 1.1886 56.2675C1.17975 56.2631 1.16204 56.2564 1.16425 56.252C1.16868 56.2254 1.17753 56.2011 1.18196 56.1745L1.16868 56.1679V56.1657Z" fill="#891812"/>
<path d="M8.83112 54.2114C8.81562 54.3132 8.74258 54.3354 8.65625 54.3398C8.73815 54.3221 8.81341 54.2955 8.83333 54.2003V54.2136L8.83112 54.2114Z" fill="#891812"/>
<path d="M8.83203 54.2003C8.85195 54.2092 8.87409 54.2158 8.89401 54.2247C8.89401 54.2114 8.89401 54.2003 8.89401 54.187C8.87409 54.1959 8.85195 54.2047 8.83203 54.2136L8.83424 54.2003H8.83203Z" fill="#891812"/>
<path d="M15.6099 50.4214C15.632 50.4214 15.652 50.4214 15.6741 50.4214C15.663 50.4214 15.6542 50.4147 15.6431 50.417C15.6298 50.417 15.6187 50.4236 15.6055 50.428L15.6099 50.4214Z" fill="#891812"/>
<path d="M8.17578 43.7787C8.17578 43.7676 8.18021 43.7565 8.18242 43.7432C8.19349 43.7565 8.20234 43.7698 8.21341 43.7831C8.20013 43.7831 8.18906 43.7787 8.17578 43.7787Z" fill="#891812"/>
<path d="M26.4961 9.11542C26.6621 9.43638 26.8967 10.386 26.9698 10.988C26.8016 10.625 26.7595 10.3218 26.6842 10.0318C26.609 9.72856 26.5271 9.42752 26.4961 9.11542Z" fill="#891812"/>
<path d="M25.1875 2.46574C25.172 2.42811 25.1499 2.39048 25.1388 2.35064C25.1012 2.20898 25.0702 2.06731 25.0746 1.91679L25.2052 2.4591C25.2052 2.4591 25.192 2.46353 25.1853 2.46574H25.1875Z" fill="#891812"/>
<path d="M23.4814 14.4718C23.4725 14.4518 23.4659 14.4319 23.457 14.412C23.457 14.4209 23.457 14.4319 23.4592 14.4386C23.4659 14.4496 23.477 14.4563 23.4858 14.4651L23.4814 14.4718Z" fill="#891812"/>
</g>
<defs>
<clipPath id="clip0_177_226665">
<rect width="35" height="61.9849" fill="white"/>
</clipPath>
</defs>
</svg>
