<svg width="27" height="62" viewBox="0 0 27 62" fill="none" xmlns="http://www.w3.org/2000/svg">
<g clip-path="url(#clip0_177_234129)">
<path d="M11.5497 54.2833L13.1874 60.834L12.5575 60.0782L11.5497 57.1807L11.1718 54.6612L10.4159 53.9054L7.89641 51.8898L6.13276 49.7482L3.99118 46.3469L2.8574 43.5754L1.59765 39.6702L1.21973 35.8909L1.09375 29.5922L1.97558 23.7973L4.24313 16.6167L7.77044 11.1998L12.0536 6.79063L16.5887 3.51527L18.7303 1.75162L20.242 0.617844L20.9978 4.3971L22.2576 6.41271L23.2654 10.192L24.5252 14.853L26.1628 22.1596L26.7927 27.7025L26.0369 31.6078L24.1472 37.1507L20.116 43.7014L13.1874 52.5197L11.5497 54.2833Z" fill="#00E340"/>
<path d="M19.7015 0.5614C19.5466 0.675935 19.0682 1.11386 18.6303 1.53158C18.1924 1.94929 17.6399 2.44786 17.4041 2.64998C16.69 3.24287 14.8102 4.57013 14.0017 5.04174C12.7419 5.78285 11.6908 6.49027 11.2057 6.92146C10.7072 7.37286 8.15373 10.2699 6.96121 11.7454C4.99391 14.1843 3.66665 16.7513 2.67626 20.0324C1.61175 23.5627 1.00539 26.635 0.776322 29.6331C0.65505 31.1827 0.722424 35.0162 0.897595 36.5995C1.18056 39.2203 1.75324 41.8007 2.48761 43.795C3.14113 45.5737 4.65704 48.3023 5.95735 50.0473C6.67824 51.0107 8.43669 52.7018 9.73027 53.672C10.3232 54.1166 10.8352 54.5478 10.8554 54.6287C10.8824 54.7095 10.9565 55.1272 11.0238 55.5652C11.3001 57.3236 12.2231 60.288 12.7351 61.0292C12.944 61.3323 13.0248 61.3862 13.1933 61.3728C13.3752 61.3525 13.4089 61.3121 13.4223 61.0696C13.4358 60.9146 13.355 60.4767 13.2472 60.0792C13.1394 59.6884 12.8564 58.6441 12.6206 57.7683C12.3848 56.8924 12.0883 55.8414 11.9671 55.4439C11.7986 54.8982 11.7717 54.7095 11.8458 54.6826C11.8997 54.6624 12.1692 54.3524 12.4387 53.9954C12.9238 53.362 13.611 52.5064 14.5946 51.3341C14.8709 51.004 15.3425 50.3976 15.6591 49.9664C15.9758 49.542 16.5013 48.8682 16.8449 48.4572C19.048 45.8364 21.0221 43.2223 22.1539 41.4302C22.8007 40.3926 24.2156 37.7718 24.6872 36.7208C25.6911 34.4907 26.4928 31.8429 26.7892 29.7948C26.9779 28.5012 26.9442 26.4328 26.7084 24.1219C26.3715 20.888 26.3311 20.6522 25.2936 16.7849C25.0982 16.0438 24.7007 14.4269 24.411 13.1805C23.8518 10.755 23.8113 10.5933 23.1915 8.51822C22.8344 7.31223 22.3022 5.93107 22.1539 5.81654C22.127 5.79632 21.9451 5.47967 21.743 5.10911C21.3118 4.30063 21.1905 3.84923 20.9277 2.11773C20.793 1.20819 20.6852 0.736571 20.5841 0.595087C20.3753 0.312118 20.0452 0.305381 19.7015 0.568137V0.5614ZM19.8565 1.41704C19.8161 1.52484 19.5735 2.05036 19.331 2.58261C18.6303 4.09851 18.381 4.69813 17.714 6.4768C17.3704 7.39308 17.0807 8.14766 17.0672 8.16113C17.0066 8.22177 17.0336 6.04561 17.1009 5.25734C17.2289 3.75491 17.2828 3.57973 17.7073 3.22939C17.9094 3.06096 18.4821 2.53544 18.9604 2.07057C19.4455 1.60569 19.8632 1.22166 19.8902 1.22166C19.9171 1.22166 19.9037 1.30925 19.8565 1.41704ZM20.3281 2.06383C20.4427 3.00032 20.6717 4.1322 20.8469 4.61729C20.921 4.81267 21.1501 5.27755 21.3657 5.65484C21.5813 6.03213 21.7564 6.38247 21.7564 6.43637C21.7564 6.49027 21.5745 7.02252 21.3522 7.61541C20.6717 9.44797 19.8969 10.5933 17.8286 12.8032C16.6158 14.1035 15.2347 15.6126 14.6485 16.2931C14.4127 16.5694 14.3319 16.63 14.3858 16.4885C14.4262 16.3807 15.0326 14.8311 15.7265 13.0457C16.4272 11.2536 17.2828 8.98309 17.6467 7.97923C18.0037 6.97536 18.6707 5.22365 19.1221 4.07156C19.5735 2.91947 19.9845 1.82802 20.0384 1.63938C20.0856 1.45073 20.153 1.28903 20.1866 1.28903C20.2203 1.28903 20.281 1.63938 20.3349 2.05709L20.3281 2.06383ZM16.791 4.34106C16.7034 4.68466 16.6563 5.46619 16.6226 7.15727L16.5687 9.50187L15.1808 12.9514L13.7929 16.4009L13.7323 15.8282C13.5638 14.1911 13.4156 12.9244 13.2606 11.8532C13.1326 10.9234 13.0922 10.2834 13.0922 8.92246C13.0922 6.40269 13.1394 6.29489 14.4195 5.52683C14.7631 5.31797 15.4638 4.85309 15.9623 4.48928C16.4609 4.12546 16.8786 3.83575 16.8853 3.84249C16.8921 3.84923 16.8449 4.06482 16.7775 4.32758L16.791 4.34106ZM12.7419 6.93494C12.6475 7.25833 12.6206 7.77037 12.6206 9.29301C12.6206 11.1727 12.6341 11.3007 12.9507 13.45C13.1326 14.6694 13.3011 16.0641 13.3348 16.5491L13.3886 17.4317L12.9507 18.6108C12.3983 20.0863 11.8054 22.0333 11.3068 23.9804C11.0979 24.8091 10.9093 25.429 10.8891 25.3683C10.8689 25.301 10.7611 24.863 10.6465 24.3779C10.532 23.8996 10.2625 22.8486 10.0469 22.0401C9.65615 20.5713 9.10369 17.8495 8.73314 15.552C8.59165 14.6627 8.52428 13.8811 8.49059 12.6954L8.44343 11.0717L9.69658 9.6164C11.1788 7.89164 11.6571 7.39981 12.3309 6.90125C12.6071 6.69913 12.8497 6.52396 12.8564 6.52396C12.8631 6.52396 12.8227 6.7126 12.7553 6.94167L12.7419 6.93494ZM22.7131 9.05047L23.1982 10.7213L23.0231 11.1929C22.6795 12.1025 21.2983 13.9957 19.6948 15.7474C19.2906 16.1921 18.5225 17.0342 18.0037 17.6136C17.4782 18.1998 16.3935 19.3451 15.585 20.1738C13.867 21.9323 12.9979 22.9833 12.0344 24.479C11.8593 24.7552 11.711 24.9574 11.711 24.9304C11.711 24.5666 12.8227 20.7196 13.4021 19.0824C13.7323 18.1392 13.7996 18.0246 14.3386 17.3913C15.2414 16.3268 16.2857 15.1612 17.6534 13.679C20.4629 10.6472 21.1838 9.56924 21.7362 7.56151L21.9653 6.73955L22.1068 7.06295C22.1809 7.23812 22.4639 8.14092 22.7266 9.0572L22.7131 9.05047ZM23.7709 13.167C23.9798 14.1035 24.2829 15.424 24.4514 16.0977C24.7546 17.3105 24.7546 17.3374 24.6468 17.8495C24.3975 19.0217 23.8315 20.1065 22.3291 22.2826C21.8575 22.9631 21.2377 23.8659 20.948 24.3038C20.2877 25.2808 19.0278 26.8303 17.7814 28.198C15.8343 30.3338 14.6553 31.7486 13.3482 33.5071C12.1153 35.1712 10.7813 37.3069 10.3501 38.3108C10.2693 38.4994 10.1817 38.6544 10.148 38.6544C10.0604 38.6544 10.1749 35.4878 10.3164 33.8237C10.4512 32.2539 10.7139 30.1855 11.0306 28.2048C11.2596 26.763 11.3674 26.5204 12.3983 24.9574C13.483 23.3269 14.3251 22.2961 15.9556 20.6118C16.7708 19.7629 17.7208 18.7523 18.0711 18.348C18.4215 17.9505 19.1087 17.1757 19.6005 16.6367C20.7593 15.3701 21.6823 14.245 22.2617 13.3961C22.7401 12.7021 23.2521 11.6915 23.2521 11.449C23.2521 11.0515 23.4206 11.6241 23.7642 13.1603L23.7709 13.167ZM8.04593 12.9514C8.04593 13.9283 8.09983 14.6559 8.2211 15.4914C8.48386 17.3105 9.13738 20.6185 9.46077 21.7639C10.02 23.7514 10.3703 25.0988 10.532 25.9141L10.6937 26.7293L10.5185 27.2009C10.4175 27.4637 10.3164 27.6456 10.2827 27.6119C10.2154 27.531 10.2019 27.5108 9.13738 24.3443C8.64555 22.889 8.07961 21.2181 7.87749 20.6455C7.67537 20.066 7.40588 19.0824 7.27787 18.4491C7.03532 17.2902 6.72541 14.5953 6.72541 13.6992V13.2142L7.37219 12.4057C7.72927 11.961 8.02571 11.5972 8.03245 11.5972C8.03919 11.5972 8.05266 12.2103 8.05266 12.9649L8.04593 12.9514ZM6.42222 14.0698C6.35485 14.8581 6.55697 17.1083 6.80625 18.3817C7.05554 19.6551 7.16333 19.9987 8.7803 24.7216C10.3703 29.3771 10.2962 29.0469 10.0941 30.4146C9.91217 31.6071 9.66963 34.1404 9.61573 35.3329C9.54162 36.9498 9.56183 36.9296 8.98916 35.8382C8.71966 35.3194 7.97855 33.918 7.34524 32.7188C5.72154 29.6466 5.13539 28.2856 4.24606 25.557C3.67338 23.7851 3.39715 22.4847 3.34325 21.2855L3.30283 20.3355L3.67338 19.2643C4.15174 17.8764 4.57619 16.886 5.12192 15.8619C5.53289 15.0939 6.39528 13.6453 6.44244 13.6453C6.45591 13.6453 6.44917 13.834 6.42896 14.0698H6.42222ZM25.1925 18.9207C25.307 19.3654 25.4014 19.8437 25.4014 19.9785C25.4014 20.5983 24.7344 22.6464 24.256 23.4751C23.7844 24.3038 21.9653 26.8371 21.2848 27.6051C19.8565 29.2288 19.1087 30.1721 17.175 32.7457C14.9382 35.7237 13.6447 37.6168 12.7351 39.2473C12.0883 40.4061 11.1788 42.2724 10.7139 43.3975C10.4916 43.9432 10.3973 44.0982 10.3568 43.9836C10.3097 43.8556 10.1951 42.2319 10.1008 40.4128L10.0671 39.7458L10.404 39.1799C10.5926 38.87 10.9767 38.1693 11.2731 37.6236C12.5734 35.2183 15.0258 31.9373 17.842 28.8448C19.5062 27.019 20.7458 25.4357 22.1876 23.2932C24.1617 20.3625 24.4177 19.9043 24.7748 18.6781C24.8691 18.348 24.9567 18.0785 24.9702 18.0853C24.9836 18.0987 25.0847 18.4693 25.1925 18.914V18.9207ZM26.001 23.7918C26.3581 27.3087 26.3042 28.9324 25.745 31.3376C25.5091 32.3482 25.2599 32.9074 24.6266 33.8776C23.7103 35.2722 21.2309 38.2838 18.8324 40.9114C18.0374 41.7805 17.1346 42.7979 16.8247 43.1684C15.8815 44.2936 14.5946 46.0992 13.7929 47.4197C13.0855 48.592 11.8391 51.0377 11.5089 51.9C11.4281 52.1089 11.3338 52.2504 11.3068 52.2167C11.2057 52.1089 10.7813 48.7335 10.5185 46.0116L10.431 45.102L10.7611 44.2733C11.7852 41.6862 13.7053 38.3108 15.7669 35.4744C17.7545 32.7323 20.0249 29.7611 20.9547 28.6899C22.1068 27.3626 22.7401 26.5204 23.8585 24.8496C24.7546 23.5088 25.078 22.8216 25.3879 21.555L25.5967 20.6926L25.6911 21.2047C25.745 21.4876 25.8797 22.6464 26.001 23.7985V23.7918ZM3.12092 22.9025C3.28936 23.9265 3.56559 24.9978 4.0372 26.4665C4.91306 29.1817 5.64069 30.765 8.01898 35.1712C8.59839 36.2424 9.13064 37.3069 9.21149 37.5427C9.29234 37.7785 9.38666 38.0211 9.42708 38.0682C9.46751 38.1154 9.48772 38.5803 9.47425 39.0856L9.4473 40.0086L7.97182 37.7988C6.12578 35.0364 5.3712 33.662 4.0911 30.6908C3.12766 28.454 2.71668 27.0527 2.48087 25.1797C2.32591 23.9804 2.33265 23.9063 2.68973 22.5723C2.89859 21.8043 2.95922 21.6426 2.9727 21.8582C2.98617 22.0131 3.04681 22.478 3.11418 22.889L3.12092 22.9025ZM2.44045 27.4906C2.79753 29.0335 3.85529 31.661 5.05454 34.0191C5.90345 35.69 6.12578 36.0538 7.61474 38.1963C9.49446 40.9047 9.46077 40.8373 9.52141 41.7738L9.57531 42.5621L8.98916 41.6121C8.66576 41.0866 8.12004 40.2377 7.76296 39.7122C7.41262 39.1866 6.67824 38.048 6.13926 37.1789C5.59353 36.3098 4.90632 35.2183 4.60314 34.7602C4.29996 34.3021 3.76097 33.3386 3.40389 32.6177C2.74363 31.3039 2.5213 30.6639 1.92167 28.4204L1.65892 27.43L1.81387 26.5204C1.90146 26.0219 1.98905 25.5637 2.016 25.4963C2.04294 25.429 2.11032 25.6917 2.17095 26.0892C2.23159 26.4867 2.34613 27.0998 2.43371 27.4771L2.44045 27.4906ZM2.12379 30.4348C2.51456 31.8092 3.43084 33.7294 4.42797 35.2453C4.78505 35.791 5.48573 36.8892 5.99103 37.6977C6.4896 38.5062 7.08922 39.4292 7.31156 39.7526C7.89771 40.5948 9.01611 42.3802 9.36645 43.0404C9.63594 43.539 9.66963 43.6872 9.76395 44.5833C9.81785 45.129 9.86501 45.641 9.86501 45.7286C9.86501 45.8162 9.93912 46.5573 10.0267 47.3927C10.1143 48.2214 10.2288 49.3735 10.2827 49.9664C10.3366 50.5526 10.431 51.3206 10.4916 51.671C10.66 52.6344 10.6398 52.6816 10.276 52.1089C8.98916 50.1012 7.50694 47.9385 6.44244 46.5236C4.95348 44.5294 4.63683 44.0645 3.85529 42.7305C2.4674 40.3589 1.87451 38.9643 1.6926 37.7044C1.38268 35.5148 1.26141 32.3011 1.40963 30.1047C1.53091 28.3462 1.57133 28.1643 1.70608 28.8111C1.75998 29.0739 1.94862 29.8083 2.12379 30.4348ZM24.6602 34.7872C24.2897 35.7641 23.9596 36.4917 23.2656 37.8257C21.6419 40.9586 20.4763 42.7103 17.8286 45.9914C16.8314 47.2243 15.6187 48.7537 15.1269 49.3937C14.6351 50.0338 14.15 50.6469 14.0489 50.7547C13.739 51.0848 12.2837 53.0117 11.9536 53.5237C11.7784 53.7932 11.6302 53.9819 11.61 53.9415C11.5898 53.9078 11.5494 53.7461 11.5224 53.5844C11.4483 53.1936 11.7717 52.3717 12.789 50.3168C13.712 48.4572 14.7024 46.8268 15.8478 45.2637C16.8584 43.8893 17.33 43.3234 19.1828 41.2483C21.2579 38.9306 23.7305 35.8786 24.5659 34.6255C24.6939 34.4368 24.8017 34.2819 24.8219 34.2819C24.8421 34.2819 24.768 34.5042 24.6602 34.7737V34.7872ZM3.7475 43.3301C4.25953 44.2262 4.96696 45.2772 5.56658 46.0588C6.69172 47.5208 8.59165 50.2561 9.737 52.0685C10.687 53.5709 10.7341 53.6585 10.7948 53.8943C10.8487 54.1031 10.7611 54.0493 9.99302 53.3755C7.95834 51.5969 7.00837 50.593 6.09209 49.2388C4.32691 46.6247 3.24893 44.3879 2.56846 41.9422C2.13053 40.3724 2.14401 40.3522 2.77058 41.5447C3.08723 42.1511 3.52516 42.9528 3.74076 43.3234L3.7475 43.3301ZM12.0951 57.7346C12.3983 58.7924 12.6341 59.6749 12.6206 59.6884C12.5465 59.7625 11.6369 56.7846 11.5022 56.03C11.3809 55.3428 11.5696 55.8953 12.0951 57.7346Z" fill="#006D2C"/>
</g>
<defs>
<clipPath id="clip0_177_234129">
<rect width="26.1881" height="61" fill="white" transform="translate(0.714844 0.365723)"/>
</clipPath>
</defs>
</svg>
